<?xml version="1.0" standalone="no"?>
<!DOCTYPE svg PUBLIC "-//W3C//DTD SVG 20010904//EN"
 "http://www.w3.org/TR/2001/REC-SVG-20010904/DTD/svg10.dtd">
<svg version="1.0" xmlns="http://www.w3.org/2000/svg"
 width="521.000000pt" height="521.000000pt" viewBox="0 0 521.000000 521.000000"
 preserveAspectRatio="xMidYMid meet">
<metadata>
Created by potrace 1.11, written by Peter Selinger 2001-2013
</metadata>
<g transform="translate(0.000000,521.000000) scale(0.100000,-0.100000)"
fill="#000000" stroke="none">
<path d="M2343 4780 l-2 -150 150 0 c112 0 149 3 150 13 1 17 1 259 0 275 -1
9 -38 12 -149 12 l-148 0 -1 -150z"/>
<path d="M2053 4627 c-3 -5 -5 -71 -6 -148 l0 -139 -86 -1 c-47 -1 -114 -1
-148 0 l-63 1 0 -150 0 -150 -148 0 -147 0 0 -740 c0 -488 3 -740 10 -741 5
-1 66 -3 135 -4 69 -1 131 -3 138 -4 9 -1 12 -37 12 -146 l0 -145 33 -1 c17 0
85 -1 149 -1 l117 0 0 -116 c-1 -65 -1 -131 0 -149 l1 -31 593 1 592 2 0 145
0 145 135 2 c74 1 141 2 147 2 9 1 13 41 15 148 l3 148 145 0 145 0 0 445 0
445 -145 0 -145 0 -3 298 -2 297 -150 0 -149 0 0 -117 c1 -65 1 -133 0 -150
l-1 -33 -97 1 c-54 1 -121 0 -148 0 l-51 -1 1 -148 1 -147 -147 0 -146 0 1
148 1 147 -60 1 c-33 0 -99 0 -146 -1 -63 -1 -88 3 -91 12 -2 7 -4 206 -3 441
0 246 -4 431 -9 434 -14 9 -277 9 -283 0z"/>
<path d="M2939 4338 c-1 -2 -2 -69 -3 -150 -2 -127 0 -148 14 -149 56 -2 272
1 278 5 4 2 7 69 7 148 l0 143 -148 3 c-81 1 -147 1 -148 0z"/>
<path d="M680 1963 c-225 -20 -398 -205 -401 -432 -2 -122 40 -226 128 -316
58 -58 107 -90 186 -120 l60 -22 -34 -7 c-60 -11 -152 -61 -212 -116 -129
-118 -175 -318 -110 -483 70 -177 241 -290 430 -282 37 1 158 23 268 49 110
26 211 50 225 52 13 3 63 14 110 25 47 11 92 22 100 24 8 2 47 11 85 20 39 9
77 18 85 20 8 2 38 9 65 15 74 17 74 17 152 34 39 8 118 27 175 41 57 14 115
28 130 30 14 3 66 14 115 26 48 12 95 23 103 24 8 2 75 17 149 34 73 17 143
31 155 31 11 0 140 -27 286 -61 146 -34 272 -62 280 -64 8 -2 35 -8 60 -15 25
-7 56 -14 70 -16 14 -3 90 -20 170 -40 80 -19 154 -36 165 -38 11 -3 63 -14
115 -26 52 -12 111 -26 130 -30 104 -22 485 -112 490 -115 15 -9 71 -17 143
-20 217 -8 412 144 452 352 9 51 7 159 -5 204 -40 150 -168 278 -319 319 l-44
12 66 22 c201 68 315 235 305 450 -3 76 -9 102 -35 159 -40 84 -115 165 -193
206 -61 33 -175 60 -226 55 -65 -7 -106 -14 -161 -28 -50 -13 -405 -95 -738
-171 -131 -30 -286 -65 -305 -70 -234 -54 -510 -118 -525 -121 -11 -2 -53 -12
-92 -22 -89 -23 -96 -22 -263 17 -147 35 -154 37 -475 111 -121 28 -249 57
-285 66 -36 9 -72 17 -80 19 -8 2 -37 9 -65 15 -27 6 -61 14 -75 16 -14 3 -43
10 -65 16 -22 5 -50 12 -62 14 -12 2 -71 16 -130 30 -60 14 -118 28 -131 30
-12 2 -62 14 -110 25 -48 12 -94 22 -102 24 -8 2 -35 8 -60 13 -58 14 -107 18
-150 15z"/>
</g>
</svg>
