<?xml version="1.0" encoding="utf-8"?>
<!-- Generator: Adobe Illustrator 22.1.0, SVG Export Plug-In . SVG Version: 6.00 Build 0)  -->
<svg version="1.1" id="Layer_1" xmlns="http://www.w3.org/2000/svg" xmlns:xlink="http://www.w3.org/1999/xlink" x="0px" y="0px"
	 viewBox="0 0 4000 1750" style="enable-background:new 0 0 4000 1750;" xml:space="preserve">
<style type="text/css">
	.st0{fill:#CCF2FF;}
	.st1{fill:#538DA6;}
	.st2{fill:#335767;}
	.st3{fill:#A68F7E;}
	.st4{fill:#816C61;}
	.st5{fill:#75A3B7;}
	.st6{fill:#97BAC9;}
	.st7{fill:#538CA5;}
	.st8{fill:#B6CFD9;}
</style>
<rect id="Sky" x="-1373.2" y="-467.3" class="st0" width="6654.1" height="2225.6"/>
<g id="hills">
	<path class="st1" d="M5175.1,1195.2c-25.8-4.5-51.5-9.9-77.4-13.3c-78-10.1-155.9-22.4-234.4-28.2c-106.2-7.8-212.9-4.8-317.3,16.4
		c-112.4,22.7-223.9,49.1-335.2,76c-80,19.4-160.1,38.1-242.9,41.8c-70.7,3.2-141.6,5-212.3,2.9c-83-2.5-162.5-24.8-242-45.5
		c-84.5-22-169.9-43.2-257.7-47.6c-69.1-3.4-138.7,0.4-208.1,2.3c-28.6,0.8-57.1,5.1-85.6,7.8v-2.2
		c122.5-19.8,245.2-37.6,370.3-32.7c86.6,3.4,171.4,16.6,255.7,34.2c60.9,12.7,122,23.2,185,21.5c83.6-2.3,164.6-19.7,245.6-36
		c88-17.7,175.3-38.3,263.4-55.3c142.7-27.6,287.1-32,432.4-25.2c152,7.1,298.6,39.3,443.9,78.4
		C5164,1192,5169.5,1193.6,5175.1,1195.2z"/>
	<path class="st1" d="M2921.6,1190.5c-137.9-39.1-277.1-71.3-421.4-78.4c-137.9-6.8-275-2.4-410.5,25.2
		c-83.7,17-166.6,37.7-250.1,55.3c-77,16.3-153.8,33.7-233.2,36c-59.8,1.7-117.8-8.8-175.6-21.5c-80-17.6-160.6-30.8-242.8-34.2
		c-45.5-1.9-90.7-0.4-135.7,3.2c-53.5-3.4-107.2-4.7-161.3-2.9c-100.6,3.4-199.2,16.6-297.1,34.2c-70.8,12.7-141.8,23.2-215,21.5
		c-97.2-2.3-191.2-19.7-285.4-36c-102.3-17.7-203.7-38.3-306.1-55.4c-165.8-27.6-333.6-32-502.4-25.2
		c-176.6,7.1-347,39.3-515.8,78.4c-6.5,1.5-12.9,3.1-19.4,4.6c30-4.5,59.8-10,90-13.3c90.7-10.1,181.2-22.4,272.3-28.2
		c123.4-7.8,247.4-4.8,368.7,16.4c130.6,22.8,260.2,49.1,389.5,76.1c93,19.4,186.1,38.2,282.3,41.9c82.1,3.2,164.6,5,246.7,2.9
		c96.5-2.5,188.8-24.8,281.2-45.5c98.2-22,197.4-43.2,299.5-47.6c41.7-1.8,83.5-1.6,125.3-0.8c3.3,0.1,6.6,0.3,9.9,0.5
		c83.4,4.4,164.4,25.6,244.7,47.6c75.5,20.7,151,43,229.8,45.5c67.1,2.1,134.5,0.3,201.6-2.9c78.6-3.7,154.6-22.5,230.6-41.8
		c105.7-26.9,211.6-53.3,318.3-76c99.1-21.1,200.4-24.2,301.2-16.4c74.5,5.8,148.4,18.1,222.5,28.2c24.7,3.4,49,8.8,73.5,13.3
		C2932.1,1193.6,2926.9,1192,2921.6,1190.5z"/>
</g>
<g id="bg-grass">
	<path class="st2" d="M5274.4,1217.3c-27.9-6.2-55.9-12.4-83.8-18.6l-4-0.8l-1.9-0.5l-2.9-0.6l-1.9-0.5l-2.9-0.6l-1.9-0.5
		c-25.8-4.5-51.4-9.9-77.4-13.3c-78-10.1-155.9-22.4-234.4-28.2c-106.2-7.8-212.9-4.8-317.3,16.4c-112.4,22.7-223.9,49-335.2,76
		c-70.2,17-140.4,33.5-212.4,39.8v-19.6h-10.2V1256h-10v-10.5h9.8v-10.1h-10.3v-20.9h-10.2v-10.1h20.4v-21.1h-10.4v-20.7h-9.8v-10.3
		h9.8v-10.5h-10.2v-10.2H3957V1121h-10.2v-10.2h20.3v-21.1h-10.3v-10.3h-10.1v-31h-10.5v-31.2h-10.3l0-20.7h-10.4v10.6h-10.7v20.7
		h-10.2v20.7h-10.5v10.5h-10v10.1h20.3v10.5H3884v10.5h-10.3v10.2h-10.4v10.5h-9.9v20.3h10.1v-9.8h10.5v10.3h9.8v10.3h-10.1v10.3
		h-10.5v10.6H3853v10.1h-10.3v10.3h-10.3v0.8h-4.3v-46.2h-11.3v-11.5h-11.4v-22.8h22.6v-23.5h-11.3v-11.3h-11.5v-23.3h-11V1023h11.2
		v11.4h11.7v11h10.9v-22.9h-10.8V1011h10.8v-11.5h-11.1v-23.1h-11.7v-11.7h-11.7v-34.6h-11.3v-23.1h-11.5V861h-11.5v23.4h-11.9v11.5
		h-11.3v23h-11.7v11.7h-11.7V942h-11.3v11.5h-11.1v23.1h11.1v34.8h-11.7v11.7h-11.5v11.3h-11v22.6h11.5v-10.9h11.3v11.4h11.1v11.7
		h-11.5v23h-11.3v11.5h-11.7v11.7h-11.5v22.8h-11v11.7h10.8v34.8h-11.3v11.3h-11.5v11.5h-11.4v8.5h-1.9v-11.5h-11.3v-23h-11.5v-11.7
		h11.1v-11.4h11.3v10.9h11.6v-22.6h-11v-11.3h-11.5v-11.7H3596V1089h11v-23.1h-11.1v-11.5h-11.3v-11.5H3573v-11.7h-11.7v-23h-11.3
		v-11.5h-11.9v-23.4h-11.5l0,46.1h-11.5v23.1h-11.3v34.6h-11.7v11.7h-11.7v23.1h-11.1v11.5h10.8v11.5h-10.7v22.9h10.9v-11h11.7
		v-11.4h11.1v22.6h-11v23.2h-11.5v11.3h-11.3v23.5h22.6v22.9h-3.5c-40.3-10.3-80.9-20.1-121.9-27.6v-6.8h-10.3v-10.2H3346v-10.5
		h-10.5v-10.3h-10.1v-10.3h9.8v-10.3h10.5v9.8h10v-20.3h-9.9v-10.5h-10.4v-10.2h-10.3v-10.5h-10.3v-10.5h20.2v-10.2h-9.9v-10.5
		h-10.5v-20.7h-10.2v-20.7h-10.7v-10.6h-10.4l0,20.6h-10.3v31.2h-10.5v31h-10.1v10.3h-10.4v21.1h20.4v10.2h-10.2v10.5H3242v10.1
		h-10.1v10.5h9.8v10.3h-9.8v3.1c-61.2-1.7-122.8,1.5-184.1,3.2c-21.8,0.6-43.6,3.3-65.3,5.7c-10-2.4-20.1-4.7-30.1-7.1l-3.8-0.8
		l-1.8-0.5l-2.8-0.6l-1.8-0.5l-2.8-0.6l-1.8-0.5c-24.5-4.5-48.9-9.9-73.5-13.3c-74.1-10.1-148-22.4-222.5-28.2
		c-100.8-7.8-202.1-4.8-301.2,16.4c-106.7,22.7-212.6,49-318.3,76c-76,19.4-152,38.1-230.6,41.8c-67.1,3.2-134.5,5-201.6,2.9
		c-78.8-2.5-154.3-24.8-229.8-45.5c-12.9-3.5-78.4-35.3-138.1-45c-38-6.1-77.1-2.3-115.7-3.1c-62.6-2.7-125.6,0.9-188.4,2.7
		c-27.2,0.8-81.3,11.9-81.3,13.9c-32.4,5.4-64.7,11.9-96.7,18.7v-9h-10.3v-10.5h-10.5v-10.3h-10.1v-10.3h9.8v-10.3H729v9.8h10.1
		v-20.3h-9.9v-10.5h-10.3V1151h-10.3v-10.5h-10.3V1130h20.3v-10.2h-9.9v-10.5H698v-20.7h-10.2v-20.7h-10.7v-10.6h-10.4l0,20.6h-10.3
		v31.2H646v31.1h-10.2v10.3h-10.3v21.1h20.4v10.2h-10.2v10.5h-10.3v10.1h-10.2v10.5h9.8v10.3h-9.8v20.7h-10.4v18.7
		c-43.6,9.4-87.5,17.9-132,23.2v-11.3h-8.8v-9.4h8.6v-27.7h-9v-18.5h-9.4v-18.6h-9.2v-8.7h-9.2v27.7h-9.4v18.4h-8.7v18.5h8.6v8.9
		h-18.1v-18.4h-9.4v-8.8h-9.2v18.2h-9.2v18.1H371v-27.6h-9.1v-9.2h-8.9v-18.6H371v-18.3h-9.2v-9.4h-9.4v-18.4h-9v-9.2h-8.8v-9.4
		h17.9v-18.3h-9.2v-9.4h-9.2V1108h-8.9v-9.3h8.6v-18.4H325v-9.2h-9.4v-18.6h-9.2v-9h-9.2v-27.9h-9.4v-8.8h-9v36.9h-9.4v18.6h-9.2v9
		h-8.8v36.9h8.9v18.7h-9.5v9.2h-9v9.2H233v18.6h17.9v18.3h-9.2v9.4h-9.2v18.3h-9.2v8.9H214v-18.3h-9.1v-9.2h-9.2v-27.6h-9.2v-9.2
		h-9.2v-9.3h9.1v9.3h9.2v9.2h9v-18.8h-9.1v-18.3h-9.2v-9.4H177v-9.4h-18v-9h8.7v-27.6h-8.9v8.9h-9.3v-8.9h-8.9v-9.3h8.9v-18.6h-8.9
		v-18.1h8.9v8.8h8.9v-18.4h-9.2v-9.2h-9V997h-9.1v-9.1h18v-18.8h-18.3v-18.3H122v-9.4h8.6v-18.6h-9.1v-9h-9.2v-9.4H103v-18.4h-9
		v-9.2h-9.3v-18.6h-9.3V831h-9v36.9H57v18.6h-9.2v18.3h-9.2v9.4h-9.1v9.1h8.9v9.3h-8.9v9.4H11.3v18.6H20v9h-9.1v9.3H2v36.9h8.9v9.3
		H1.6v9.1h-9.1v46.3h9.2v9.2h-9.2v64.7h9v9.2h-9v106.8c-40.9-7-81.6-15.4-122.3-23.9c-129.3-27-259-53.3-389.5-76.1
		c-121.3-21.1-245.3-24.2-368.7-16.4c-91.1,5.8-181.7,18.1-272.3,28.2c-30.2,3.3-60,8.8-90,13.3l-2.2,0.5l-3.4,0.6l-2.2,0.5
		l-3.4,0.6l-2.2,0.5l-4.6,0.9c-32.4,6.2-64.9,12.5-97.4,18.7c-2.5,0.3-5,0.5-7.5,0.6c0,178.9,0.1,357.8,0.2,536.8
		c0,1.5,3.5,4.3,5.4,4.3c894.4,0.2,1788.8,0.2,2683.3,0c0.5,0,1.1-0.2,1.7-0.5c561.2,0.1,1122.4,0.1,1683.6-0.1
		c758.4,0.2,1516.7,0.2,2275.1,0c1.6,0,4.6-2.8,4.6-4.3c0.1-178.8,0.2-357.7,0.2-536.5C5278.7,1217.8,5276.6,1217.6,5274.4,1217.3z
		 M656,1161.4v10h-10v-10H656z M645.6,1223.7v10h-10l0-10H645.6z M625.5,1233.8h10v10h-10V1233.8z M625.3,1254.8h10v1
		c-3.3,0.7-6.7,1.5-10,2.2V1254.8z M269.3,1099.1v8.9h-8.9v-8.9H269.3z M195.4,1200.5v8.9h-8.9v-8.9H195.4z M186.4,1191.3v9.2h-18.3
		v-9.2H186.4z M168.3,1136h8.9v9h-8.9V1136z M159.1,1182.3h8.9v8.9h-8.9V1182.3z M122.1,978.9h8.9v8.9l-8.9,0V978.9z M103.5,969.7
		h8.8v8.8h-8.8V969.7z M19.9,1006.7v8.9H11v-8.9H19.9z M10.7,1071.4v8.9H1.8v-8.9H10.7z M3262.3,1198.1c-2.2-0.1-4.3-0.3-6.5-0.4
		c-1.2-0.1-2.3-0.1-3.5-0.2l0-3.2h10V1198.1z M3272.7,1142h-10v-10h10V1142z M3503.3,1215.9h-11.1v-11.1h11.1V1215.9z
		 M3595.8,1088.8h-11.1v-11.1h11.1V1088.8z M3643.7,1250.6h-1.6v-8.1h1.6V1250.6z M3712.8,976.5h-11.1v-11.1h11.1V976.5z
		 M3805.3,1103.5h-11.1v-11.1h11.1V1103.5z M3832.4,1242h-3.6v-22.6h11.2v10.9h2.7v5h-10.3V1242z M3842.7,1265.3h-2.9v-9.1l2.9,0
		V1265.3z M3852.8,1256h-10v-10h10V1256z M3873.6,1204.4h-10.3v10.5h-0.7v-7.6h-11.3v-11.3h-11.5v-2.1h13.6v-10h10.3v10h9.9V1204.4z
		 M3946.6,1110.7h-10v-10h10V1110.7z M3957,1173h-10v-10h10L3957,1173z M3957.1,1173.2h10v9.9h-10V1173.2z M3967.4,1204.2h-10v-10
		h10V1204.2z"/>
</g>
<g id="Tent">
	<g>
		<path class="st3" d="M1706.8,1100.1l0.4-1.8h0.7c0.8,4.1,1.6,8.2,2.6,12.2c3.4,14.8,6.9,29.5,10.4,44.3s6.8,29.6,10.9,44.2
			c7.9,28.2,16.4,56.2,27.1,83.5c6.6,16.7,13.4,33.2,20.8,49.5c10.1,21.9,23,42.5,38.4,61c2.8,3.4,5.7,6.7,8.8,10.2
			c-2.7,0-5.2,0.2-7.6,0c-22.2-1.5-44.3-3.1-66.5-4.7l-66.5-4.7c-19.6-1.4-39.2-2.8-58.9-4.1c-2.9-0.2-5-1.1-6.4-3.7
			c-2.4-4.4-5-8.8-7.6-13.2c0.1-0.4,0.2-0.8,0.3-1.1c5.4-10.4,11.2-20.7,16.1-31.3c8.3-18.2,16.5-36.5,24-55.1
			c8.5-21,16.9-42.1,24.1-63.6c7.3-21.8,13.7-44,19.4-66.3c4.1-15.9,6.5-32.3,9.5-48.4C1707.3,1104.6,1706.8,1102.3,1706.8,1100.1z"
			/>
		<path class="st4" d="M1706.8,1100.1c0,2.2,0.5,4.6,0.1,6.7c-3,16.2-5.4,32.5-9.5,48.4c-5.7,22.3-12.1,44.5-19.4,66.3
			c-7.2,21.5-15.6,42.6-24.1,63.6c-7.5,18.6-15.7,36.9-24,55.1c-4.9,10.7-10.7,20.9-16.1,31.3c-0.1,0.4-0.2,0.7-0.3,1.1
			c-3.3,4.8-6.6,9.7-10,14.4c-6.8,9.1-13.7,18.1-20.5,27.2c-1.6,2.1-3.3,2.6-6,2c-31-6.8-62-13.5-93.3-20.2c0.4-0.6,0.8-1.1,1.3-1.6
			c14.3-12.6,26-27.4,36.9-42.8c15.1-21.4,28.2-44,38.1-68.4c3.1-7.6,6-15.3,8.7-23.1c0.8-2.5,2.5-4.6,4.7-6
			c14.3-9.2,27.8-19.7,40.4-31.3c14.9-13.7,29.1-28,41.4-44c10.1-13.2,20.7-26.2,29.9-40C1693.2,1126.4,1699.6,1113,1706.8,1100.1z"
			/>
	</g>
	<g>
		<path class="st4" d="M2498.1,1071.5c0.6,0.2,1.2,0.4,1.8,0.7c21,12.8,43.4,22.4,66.8,30.1c21.4,7.1,43.3,12.5,65.2,17.7
			c18.2,4.3,36.4,8.7,54.9,11.8c23.9,4,48.1,7,72.2,9.9c20.8,2.5,41.6,4.7,62.6,5.9c20.2,1.2,40.4,1.3,60.6,1.3
			c15.4,0,30.8-1,46.1-1.5c1.4,0,2.4,0.1,3.1,1.6c8.8,19.6,21,37.3,33.2,54.9c8.2,11.9,16,24.1,24.1,36.1
			c12.5,18.7,26.9,35.9,41.4,53c13,15.3,26.3,30.4,40.9,44.4c25,23.9,51.1,46.5,80.9,64.2c18.2,10.8,37,20.5,55.5,30.6
			c1.9,1,4,1.7,6.8,2.9c-2.7,0.8-4.7,1.5-6.7,2.1l-122.8,34.7c-10,2.8-20,5.6-30,8.5c-21.3,6.1-42.4,12.4-63.7,18.4
			c-19.7,5.6-39.5,10.9-59.3,16.3c-42.2,11.5-84.4,23-126.6,34.5c-17.5,4.8-35.1,9.5-52.6,14.3c-2.5,0.8-5.2,0.4-7.3-1.1
			c-16.5-10.4-30.6-23.6-44.7-37c-19.4-18.3-35.6-39.3-51.9-60.2c-11.1-14.1-21.1-28.9-30.1-44.4c-0.5-0.7-0.9-1.4-1.5-2
			c-0.9-1.8-1.8-3.6-2.8-5.4c-8.1-14.3-16.5-28.5-24.3-43c-4.8-9-8.9-18.3-13-27.6c-6.7-15.3-13.2-30.6-19.5-46
			c-4.6-11.3-8.9-22.7-13.1-34.2s-8.3-22.8-11.8-34.4c-5.6-18.3-10.6-36.8-15.8-55.2c-2.5-8.7-5.1-17.4-7.1-26.2
			c-2.4-11.1-4.3-22.3-6.3-33.4C2500.5,1099.8,2498.4,1085.7,2498.1,1071.5z"/>
		<path class="st3" d="M2498.1,1071.5c0.4,14.2,2.5,28.3,5,42.3c2,11.2,3.9,22.3,6.3,33.4c2,8.8,4.6,17.5,7.1,26.2
			c5.2,18.4,10.3,36.8,15.8,55.2c3.5,11.6,7.7,23,11.8,34.4s8.5,22.9,13.1,34.2c6.3,15.4,12.8,30.7,19.5,46
			c4.1,9.3,8.2,18.7,13,27.6c7.8,14.5,16.2,28.7,24.3,43c1,1.8,1.9,3.6,2.8,5.4c-6.2,0.7-12.3,1.4-18.5,2.1
			c-15.4,1.6-30.8,3.2-46.2,4.8c-13.5,1.4-26.9,2.8-40.4,4.1l-46.4,4.8l-45.1,4.6l-57.5,6c-15,1.6-30,3.1-45.1,4.6
			c-13.9,1.4-27.9,2.6-41.8,3.8c-2.2,0.2-4.5,0-6.6,0c5.6-2.9,11.5-5.8,17.3-8.9c19.2-10,36.1-23.3,52.3-37.4
			c22.2-19.3,40.9-41.7,56.7-66.3c11.5-17.8,22.9-35.8,32-55c11.5-24,21.8-48.5,30.9-73.5c5.9-16.6,11.9-33.1,17-50
			c4.8-16.1,8.6-32.6,12.5-49c3.2-13.1,5.9-26.4,8.9-39.6C2497.3,1073.3,2497.6,1072.4,2498.1,1071.5z"/>
	</g>
	<g>
		<path class="st4" d="M1296,1434.9c-1.4,1.3-2.9,2.6-4.2,4c-10.1,11.6-20,23.5-30.4,34.9c-7.3,8-15.1,15.6-22.7,23.3
			c-1,0.9-2.3,1.4-3.7,1.3c-17.1-1.3-34.1-2.8-51.2-4.2c-11.4-1-22.7-2-34.1-3c-22.7-2-45.3-4-67.9-6.1c-20-1.8-40.1-3.5-60.1-5.3
			c-21.9-1.9-43.8-4-65.7-5.9c-13.5-1.2-27-2.3-40.5-3.5c-17.4-1.5-34.9-3.1-52.3-4.6c-0.8-0.1-1.5-0.5-2-1.1
			c0.6-0.3,1.1-0.6,1.7-0.9c29.2-20.2,55.4-44,80.5-69c14.3-14.3,28.5-28.7,40.7-45c15.1-20.2,29.5-40.8,41.8-62.9
			c11.1-20,20.8-40.9,28.8-62.3c0.7-1.8,1.7-2.1,3.3-2.1c23.8-0.3,47.6-1.9,70.9-6.9c22.2-4.8,44.2-10.7,66-16.9
			c30-8.6,58.9-20.3,87.5-32.6c32.6-14.1,64.4-29.7,94.5-48.7c16.1-10.2,32.2-20.6,47.8-31.5c8.8-6.2,16.7-13.6,25-20.4
			c0.3-0.2,0.6-0.4,1.4-1.1v4.2c-0.3,0.4-1,0.7-1,1.1c-1,5.4-1.8,10.8-2.9,16.2c-3.7,18.7-6.9,37.5-11.3,56.1
			c-4.5,19.1-10.1,38-15.5,56.9c-3.5,12.1-7,24.2-11.3,36.1c-6,16.5-12.6,32.8-19.4,48.9c-5.3,12.6-10.8,25.1-17.2,37.1
			s-13.8,23.8-21.1,35.3c-8.4,13.2-17.2,26.2-26.2,39.1c-6.7,9.6-13.8,18.8-20.7,28.2L1296,1434.9z M1242.9,1489.3
			c-0.1-0.1-0.1-0.3-0.2-0.3c-0.2,0-0.3,0.1-0.4,0.2l0.3,0.5L1242.9,1489.3z"/>
		<path class="st3" d="M1296,1434.9l8.4-11.4c6.9-9.4,14.1-18.6,20.7-28.2c8.9-12.9,17.7-25.9,26.2-39.1
			c7.4-11.6,14.7-23.2,21.1-35.3s11.9-24.6,17.2-37.1c6.8-16.2,13.4-32.4,19.4-48.9c4.3-11.8,7.9-23.9,11.3-36.1
			c5.4-18.9,11-37.8,15.5-56.9c4.4-18.6,7.6-37.4,11.3-56.1c1-5.4,1.9-10.8,2.9-16.2c0.1-0.4,0.7-0.7,1-1.1
			c0.7,4.9,1.7,9.7,2.2,14.6c3.1,30.8,7.9,61.4,14.3,91.7c5.8,26.7,12.2,53.2,21.2,79.1c8.6,24.9,18.1,49.4,31.1,72.4
			c16.1,28.6,33.8,56.1,55.8,80.7c5.9,6.6,13,12.1,19.9,17.7c7.6,6.3,15.4,12.1,23.6,18.5c-2.5-0.1-4.7-0.3-6.8-0.3
			c-13.4-0.3-26.8-0.5-40.2-0.8c-16.1-0.4-32.2-0.8-48.3-1.2l-42.1-1.1l-46-1.2l-43.2-1.1l-44.3-1.1c-14.9-0.4-29.7-0.7-44.6-1.1
			C1301,1435.3,1298.5,1435,1296,1434.9z"/>
	</g>
</g>
<g id="grass5">
	<path class="st2" d="M954.6,1462.9v15.7H939v-39.1h7.7v23.5L954.6,1462.9L954.6,1462.9z"/>
	<path class="st2" d="M954.6,1462.9v-7.7h7.6v7.6L954.6,1462.9L954.6,1462.9z"/>
</g>
<g id="grass4">
	<path class="st2" d="M1088.7,1474v15.5h-23.4V1474v0.1h7.7v-39h7.8v38.9L1088.7,1474L1088.7,1474z"/>
	<path class="st2" d="M1096.5,1458.4v15.6h-7.8l0,0v-15.6L1096.5,1458.4L1096.5,1458.4z"/>
	<path class="st2" d="M1096.6,1458.4v-7.7h7.6v7.6L1096.6,1458.4L1096.6,1458.4z"/>
	<path class="st2" d="M1057.4,1466.2h-7.7v-7.6h7.6L1057.4,1466.2L1057.4,1466.2z"/>
	<path class="st2" d="M1057.4,1466.3h7.8v7.8l0,0h-7.8V1466.3z"/>
</g>
<g id="grass3">
	<path class="st2" d="M2977.7,1494.7h-7.8l0,0v-7.9h7.8L2977.7,1494.7z"/>
	<path class="st2" d="M2946.4,1502.6h7.7v-23.3h7.9v15.5h7.9l0,0v15.5h-23.4v-7.7L2946.4,1502.6z"/>
	<path class="st2" d="M2946.4,1502.5h-7.7v-7.6h7.6L2946.4,1502.5L2946.4,1502.5z"/>
</g>
<g id="grass2">
	<path class="st2" d="M2834.6,1533.3c0,5.2,0,10.4,0,15.7H2819v-23.5l0,0h7.8v7.8h8L2834.6,1533.3z"/>
	<path class="st2" d="M2811.1,1509.9h7.8v15.7l0,0h-7.8V1509.9z"/>
	<path class="st2" d="M2834.6,1533.3v-15.5h7.6v15.4L2834.6,1533.3L2834.6,1533.3z"/>
	<path class="st2" d="M2811.2,1509.8h-7.7v-7.6h7.6L2811.2,1509.8L2811.2,1509.8z"/>
</g>
<g id="grass_1">
	<path class="st2" d="M2422.2,1396.9v15.5h-7.8v-15.5H2422.2z"/>
	<path class="st2" d="M2414.9,1428.3h7.7v-15.5h7.9v15.5h7.9v-0.1v15.5H2415v-15.5L2414.9,1428.3z"/>
	<path class="st2" d="M2407.1,1420.4h-7.7v-7.6h7.6L2407.1,1420.4L2407.1,1420.4z"/>
	<path class="st2" d="M2407.1,1420.4h7.8v7.8v-0.1h-7.8L2407.1,1420.4L2407.1,1420.4z"/>
	<path class="st2" d="M2438.4,1428.3v-7.7h7.6v7.6L2438.4,1428.3L2438.4,1428.3z"/>
</g>
<g id="Fire_Ground">
	<path class="st5" d="M2002,1533.7c5.7,0,11.4-0.2,17,0c11.6,0.4,23.2,0.9,34.7,1.7c11,0.8,21.9,1.9,32.8,3.3
		c11.2,1.5,22.4,3.1,33.4,5.4c14.8,3,29.5,6.4,44.1,10.3c15.2,4.1,29.9,9.5,44.2,16.1c12.3,5.5,23.9,12.4,34.6,20.7
		c9.5,7.6,17.6,16.3,22,27.9c4.5,11.8,3.3,23.3-2.9,34.3c-7.8,13.8-19.8,23.2-32.9,31.3c-21.6,13.3-45.1,21.6-69.4,28.4
		c-18.7,5.1-37.6,9.2-56.7,12.1c-9.3,1.5-18.7,2.5-28.1,3.5c-8.8,0.9-17.7,1.6-26.6,2.2c-7.9,0.5-15.7,0.9-23.6,1.1
		c-13.4,0.3-26.8,0.7-40.2,0.5c-11.5-0.2-23-0.8-34.4-1.7c-11-0.8-21.9-1.9-32.8-3.3c-11.2-1.5-22.3-3.1-33.4-5.4
		c-14.8-3.1-29.5-6.4-44.1-10.3c-15.2-4.1-29.9-9.5-44.2-16.1c-12.3-5.5-23.9-12.5-34.6-20.7c-9.5-7.5-17.6-16.4-22-27.9
		c-3.8-9.4-3.6-20,0.5-29.3c5.4-12.8,14.9-22,25.8-30c15.2-11.1,32.1-18.9,49.7-25.4c15.3-5.7,31-10.4,46.9-13.9
		c13.6-2.9,27.4-5.4,41.2-7.7c11.3-1.8,22.7-3.3,34.1-4.4c9.6-1,19.2-1.3,28.8-1.8c12-0.6,23.9-1,35.9-1.5L2002,1533.7z
		 M1999.7,1556v-0.9c-10.4,0.5-20.8,0.9-31.1,1.5c-7.7,0.4-15.4,0.7-23,1.8c-13.3,1.9-26.7,4-39.9,6.6
		c-22.2,4.3-43.7,11.1-63.8,21.7c-11.2,5.9-21.6,12.8-29.4,22.9c-8.5,11-11.3,23.3-4.6,36.4c4.5,9,11.5,15.6,19.5,21.3
		c11.6,8.3,24.3,14.2,37.6,19.2c17.5,6.4,35.6,11.2,54,14.2c11.7,2,23.4,3.3,35.2,4.5c10.5,1.1,21,2,31.6,2.1
		c15.1,0.1,30.3-0.4,45.4-1.1c9.9-0.5,19.8-1.4,29.5-2.8c13.4-1.9,26.7-4,39.9-6.9c22-4.9,43.3-12,62.9-23.5
		c10.3-6.1,19.9-13.2,26.4-23.5c5.6-8.9,7.4-18.5,3.7-28.7c-3.6-9.9-10.6-17.2-18.7-23.4c-13.3-10.2-28.3-17-44-22.5
		c-20.1-7-40.9-11.9-62.1-14.6c-13.7-1.7-27.3-3.3-41.1-4.3C2018.3,1555.5,2009,1556,1999.7,1556L1999.7,1556z"/>
	<path class="st6" d="M1999.7,1556c9.3,0,18.6-0.5,27.9,0.1c13.7,1,27.4,2.6,41.1,4.3c21.2,2.7,42,7.5,62.1,14.6
		c15.7,5.5,30.7,12.3,44,22.5c8.1,6.2,15.1,13.5,18.7,23.4c3.7,10.2,1.9,19.8-3.7,28.7c-6.5,10.3-16,17.4-26.4,23.5
		c-19.6,11.5-40.9,18.6-62.9,23.5c-13.2,2.9-26.5,5-39.9,6.9c-9.8,1.4-19.7,2.3-29.5,2.8c-15.1,0.7-30.3,1.2-45.4,1.1
		c-10.5-0.1-21.1-1.1-31.6-2.1c-11.8-1.2-23.5-2.6-35.2-4.5c-18.4-3-36.5-7.7-54-14.2c-13.3-5-26.1-10.9-37.6-19.2
		c-8-5.7-15-12.4-19.5-21.3c-6.6-13.1-3.8-25.4,4.6-36.4c7.8-10.1,18.3-17,29.4-22.9c20.1-10.6,41.6-17.4,63.8-21.7
		c13.2-2.6,26.6-4.7,39.9-6.6c7.6-1.1,15.3-1.3,23-1.8c10.4-0.6,20.8-1,31.1-1.5L1999.7,1556z M2000.2,1681c9-0.6,19.7-1.3,30.5-2.1
		c12.6-0.9,25.2-3,37.4-6.2c16.6-4.3,32.9-9.4,46.3-20.8c5.8-4.9,10.2-10.9,9.9-19.1c-0.3-7.3-4.4-12.8-9.5-17.3
		c-8.7-7.6-19.1-12.3-30-16.1c-13.2-4.7-26.9-7.9-40.8-9.4c-12.8-1.4-25.6-2.5-38.4-3.2c-7.6-0.4-15.2,0.2-22.8,0.5
		c-6.5,0.3-13,0.2-19.4,1.2c-13,2.1-26.1,4.2-38.9,7.3c-15.1,3.7-29.7,9.2-41.8,19.5c-5.7,4.9-10,10.8-9.8,18.8
		c0.2,7.5,4.4,13,9.7,17.5c8.8,7.6,19.1,12.3,30,16.1c18.4,6.4,37.4,9.7,56.7,11.5C1978.9,1680.4,1988.7,1680.5,2000.2,1681
		L2000.2,1681z"/>
	<path class="st7" d="M1907.2,1503.4c22.7-1.2,45.3-2.7,68-3.3c20.1-0.5,40.2-0.4,60.3,0.2c18.2,0.5,36.4,2,54.6,3
		c1.3,0,2.7-0.2,3.9-0.5c0.6,0.4,1.1,1.1,1.7,1.1c6.7,0.7,13.5,1.1,20.2,1.8c8.1,0.9,16.2,1.9,24.2,3.1c7.5,1.1,15,2.2,22.5,3.6
		c9.9,1.8,19.8,3.7,29.7,5.9c3.1,0.7,6.1,2.3,9,3.6c0.5,0.2,0.8,1.1,1.2,1.6c-0.5,0.3-1.1,0.5-1.7,0.6c-0.7,0.1-1.5,0.1-2.2,0
		c-7.4,0-14.9,0-22.4,0c-0.2-0.5-0.8-0.7-1.2-0.5c-0.5,0.2-0.7,0.8-0.5,1.2c0.2,0.5,0.8,0.7,1.2,0.5c0.1-0.1,0.2-0.1,0.3-0.2
		c1.7,0.3,3.5,0.4,5.2,0.7c11.3,2,22.6,3.9,33.9,6c15.7,3,31.5,5.9,47.1,9.6c12.3,2.9,24.4,7,36.6,10.6c11.5,3.4,22.6,8.1,33.1,14
		c5.3,3,10.5,6.3,15.6,9.7c0.8,0.5,1.1,1.6,1.6,2.3c-0.9,0.4-1.8,0.7-2.8,0.8c-4.6-0.1-9.1-0.4-13.6-0.4c-7.5-0.1-15.1,0-22.6-0.1
		c-0.6,0-1.3,0.1-1.9,0.1c0.6,0.4,1.2,0.7,1.9,0.9c19.1,4.6,37.7,10.9,55.6,18.9c14.8,6.6,29.2,13.8,43.6,21.2
		c7.8,4,15,9.2,22.5,13.9c2.4,1.5,4.7,3.2,7.1,4.8l6.6,6.1c0.8,0.8,1.5,1.6,2.3,2.4c1.8,2,1.5,3.9-1,5.1c-0.9,0.4-1.9,0.7-2.9,0.9
		c-5.1,1.1-10.1,2.3-15.2,3.3c-7.8,1.6-15.6,3-23.5,4.5c-9.6,1.8-19.1,3.8-28.6,5.6c-2.8,0.6-5.6,1-8.5,1.5
		c-0.3,0.1-0.6,0.5-0.9,0.8c0.3,0.2,0.7,0.3,1,0.4c6.9,1.3,13.9,2.4,20.7,4c11,2.6,22,5.3,32.8,8.5c6.4,1.9,6.7,4.7,1.6,9
		c-0.2,0.2-0.4,0.4-0.6,0.5c-11.1,8.4-22.9,15.9-35.3,22.2c-22.9,11.9-46.8,21.9-71.4,29.9c-19.8,6.2-40.1,10.8-60.7,13.6
		c-1.9,0.4-3.9,0.9-5.8,1.6h-499.1c-0.4-0.4-0.9-0.9-1.3-1c-7.5-1.2-15-2.2-22.5-3.5c-23.4-4-46-11.3-68.1-19.8
		c-21.2-8.1-41.6-18.1-61-29.9c-7.4-4.7-14.4-9.8-21.3-15.3c-3.2-2.5-2.7-5,1.1-6.5c6.1-2.4,12.4-4.4,18.8-6c12-2.8,24.1-5,36.2-7.5
		c0.6-0.2,1.2-0.4,1.8-0.7c-0.6-0.2-1.2-0.5-1.9-0.7c-0.3-0.1-0.5-0.2-0.8-0.2c-10.7-2-21.3-3.9-32-5.9c-11.5-2.2-22.9-4.6-34.3-7
		c-3.3-0.7-6.8-1.3-10-2.2s-3.9-3.2-1.6-5.8c0.6-0.7,1.2-1.4,1.8-2l7.1-6c5-3.5,9.9-7.2,15.1-10.4c7.5-4.7,14.9-9.6,22.8-13.4
		c19.5-9.4,38.9-19,59.6-25.7c10.1-3.3,20.4-6.2,30.7-9.3c0.6-0.2,1.1-0.5,1.6-0.9c-0.6,0-1.3-0.2-1.9-0.2
		c-11.9,0.2-23.8,0.4-35.7,0.5c-1-0.2-2.1-0.5-3-0.9c0.6-0.9,1-2,1.8-2.6c5.7-3.6,11.4-7.3,17.3-10.6c13.8-7.7,28.9-12.3,44-16.7
		c11.8-3.4,23.6-6.7,35.5-9.4s23.8-4.7,35.8-6.8c12.7-2.3,25.4-4.4,38-6.6c0.3-0.1,0.7-0.2,1-0.2c-0.4-0.1-0.8-0.2-1.2-0.3
		c-7.9,0-15.8,0-23.7-0.1c-0.8-0.2-1.5-0.4-2.2-0.9c0.4-0.7,0.7-1.6,1.3-1.9c2.1-1,4.2-1.9,6.4-2.7c14.6-4.8,29.8-6.7,45-8.9
		c15.7-2.2,31.4-3.9,47.2-5.7L1907.2,1503.4z M2002,1533.7v-0.4c-12,0.5-23.9,0.9-35.9,1.5c-9.6,0.5-19.3,0.8-28.8,1.8
		c-11.4,1.1-22.8,2.6-34.1,4.4c-13.8,2.2-27.5,4.7-41.2,7.7c-16,3.5-31.6,8.1-46.9,13.9c-17.6,6.5-34.5,14.3-49.7,25.4
		c-10.9,8-20.4,17.2-25.8,30c-4.1,9.3-4.3,19.8-0.5,29.3c4.4,11.5,12.4,20.3,22,27.9c10.7,8.2,22.3,15.2,34.6,20.7
		c14.2,6.6,29,12,44.2,16.1c14.6,3.9,29.3,7.3,44.1,10.3c11,2.3,22.2,3.9,33.4,5.4c10.9,1.4,21.9,2.6,32.8,3.3
		c11.5,0.8,23,1.5,34.4,1.7c13.4,0.2,26.8-0.2,40.2-0.5c7.9-0.2,15.8-0.6,23.6-1.1c8.9-0.6,17.7-1.3,26.6-2.2c9.4-1,18.8-2,28.1-3.5
		c19.1-2.9,38.1-6.9,56.7-12.1c24.2-6.8,47.8-15.2,69.4-28.4c13.2-8.1,25.1-17.5,32.9-31.3c6.2-11,7.4-22.5,2.9-34.3
		c-4.4-11.5-12.5-20.3-22-27.9c-10.6-8.3-22.2-15.2-34.6-20.7c-14.2-6.6-29-12-44.2-16.1c-14.6-3.9-29.3-7.3-44.1-10.3
		c-11-2.3-22.2-3.9-33.4-5.4c-10.9-1.4-21.9-2.5-32.8-3.3c-11.6-0.9-23.1-1.3-34.7-1.7C2013.4,1533.5,2007.7,1533.7,2002,1533.7
		L2002,1533.7z"/>
	<path class="st8" d="M2000.2,1681c-11.5-0.6-21.3-0.7-30.9-1.6c-19.3-1.8-38.3-5.1-56.7-11.5c-10.9-3.8-21.3-8.5-30-16.1
		c-5.3-4.6-9.4-10.1-9.7-17.5c-0.2-8.1,4.1-14,9.8-18.8c12.1-10.4,26.7-15.8,41.8-19.5c12.8-3.2,25.9-5.3,38.9-7.3
		c6.4-1,12.9-1,19.4-1.2c7.6-0.3,15.3-0.9,22.8-0.5c12.8,0.7,25.6,1.8,38.4,3.2c13.9,1.6,27.6,4.8,40.8,9.4
		c10.9,3.8,21.3,8.5,30,16.1c5.2,4.5,9.3,10,9.5,17.3c0.3,8.2-4.1,14.1-9.9,19.1c-13.4,11.4-29.7,16.5-46.3,20.8
		c-12.3,3.2-24.8,5.3-37.4,6.2C2019.9,1679.8,2009.2,1680.4,2000.2,1681z"/>
</g>
</svg>
