<?xml version="1.0" encoding="utf-8"?>
<!-- Generator: Adobe Illustrator 23.0.1, SVG Export Plug-In . SVG Version: 6.00 Build 0)  -->
<svg version="1.1" id="Layer_1" xmlns="http://www.w3.org/2000/svg" xmlns:xlink="http://www.w3.org/1999/xlink" x="0px" y="0px"
	 viewBox="0 0 4000 1750" style="enable-background:new 0 0 4000 1750;" xml:space="preserve">
<style type="text/css">
	.st0{fill:#CCF2FF;}
	.st1{fill:#335767;}
	.st2{fill:#538DA6;}
	.st3{fill:#538CA5;}
	.st4{fill:#345868;}
	.st5{fill:#97BAC9;}
	.st6{fill:#B6CFD9;}
	.st7{fill:#75A3B7;}
	.st8{fill:#816C61;}
	.st9{fill:#A68F7E;}
	.st10{fill:#CBF2FF;}
</style>
<title>hero-no-logo</title>
<g>
	<path class="st0" d="M836.4,1205.6c0-216.2,0.1-432.5,0.2-648.7c0-1.7,3.2-4.9,4.8-4.9c730.5-0.2,1461-0.2,2191.4,0
		c1.7,0,4.8,3.2,4.8,4.9c0.2,220.4,0.3,440.7,0.2,661c-2.1-0.1-4.1-0.3-6.1-0.6c-26.5-6.2-53.1-12.4-79.6-18.6l-3.8-0.9l-1.8-0.5
		l-2.8-0.6l-1.8-0.5l-2.8-0.6l-1.8-0.5c-5.3-1.6-10.6-3.1-15.8-4.6c-137.9-39.1-277.1-71.3-421.4-78.4
		c-137.9-6.8-275-2.4-410.5,25.2c-83.7,17-166.6,37.7-250.1,55.3c-77,16.3-153.8,33.7-233.2,36c-59.8,1.7-117.8-8.8-175.6-21.5
		c-80-17.6-160.6-30.8-242.8-34.2C1069.1,1168.1,952.7,1185.8,836.4,1205.6z"/>
	<path class="st1" d="M2952.2,1198.7c26.5,6.2,53,12.4,79.6,18.6c2,0.3,4.1,0.5,6.1,0.6c0,178.8-0.1,357.7-0.2,536.5
		c0,1.5-2.9,4.3-4.4,4.3c-730.8,0.2-1461.6,0.2-2192.4,0c-1.5,0-4.4-2.8-4.4-4.3c-0.2-182.2-0.3-364.4-0.2-546.6
		c27.1-2.7,54.2-7,81.3-7.8c65.8-1.9,131.9-5.7,197.6-2.3c83.4,4.4,164.4,25.6,244.7,47.6c75.5,20.7,151,43,229.8,45.5
		c67.1,2.1,134.5,0.3,201.6-2.9c78.6-3.7,154.7-22.5,230.6-41.8c105.7-27,211.6-53.3,318.3-76c99.1-21.1,200.4-24.2,301.2-16.4
		c74.5,5.8,148.4,18.1,222.5,28.2c24.7,3.3,49,8.8,73.5,13.3l1.8,0.5l2.8,0.6l1.8,0.5l2.8,0.6l1.8,0.5L2952.2,1198.7z"/>
	<path class="st2" d="M2937.4,1195.2c-24.5-4.5-48.9-9.9-73.5-13.3c-74.1-10.1-148-22.4-222.5-28.2c-100.8-7.8-202.1-4.8-301.2,16.4
		c-106.7,22.7-212.6,49.1-318.3,76c-76,19.4-152,38.1-230.6,41.8c-67.1,3.2-134.5,5-201.6,2.9c-78.8-2.5-154.3-24.8-229.8-45.5
		c-80.3-22-161.3-43.2-244.7-47.6c-65.6-3.4-131.7,0.4-197.5,2.3c-27.2,0.8-54.2,5.1-81.3,7.8v-2.2
		c116.3-19.8,232.8-37.6,351.6-32.7c82.2,3.4,162.8,16.6,242.8,34.2c57.8,12.7,115.8,23.2,175.6,21.5c79.4-2.3,156.2-19.7,233.2-36
		c83.5-17.7,166.4-38.3,250.1-55.3c135.5-27.6,272.6-32,410.5-25.2c144.3,7.1,283.5,39.3,421.4,78.4
		C2926.9,1192,2932.1,1193.6,2937.4,1195.2z"/>
	<path class="st2" d="M2952.2,1198.7l-3.8-0.9L2952.2,1198.7z"/>
	<path class="st2" d="M2942,1196.2l-2.8-0.6L2942,1196.2z"/>
	<path class="st2" d="M2946.6,1197.3l-2.8-0.6L2946.6,1197.3z"/>
	<path class="st0" d="M2962,1205.6c0-216.2,0.1-432.5,0.2-648.7c0-1.7,3.3-4.9,5.1-4.9c769.4-0.2,1538.8-0.2,2308.2,0
		c1.8,0,5.1,3.2,5.1,4.9c0.2,220.4,0.3,440.7,0.2,661c-2.2-0.1-4.3-0.3-6.5-0.6c-27.9-6.2-55.9-12.4-83.8-18.6l-4-0.9l-1.9-0.5
		l-2.9-0.6l-1.9-0.5l-2.9-0.6l-1.9-0.5c-5.6-1.6-11.1-3.1-16.7-4.6c-145.3-39.1-291.9-71.3-443.9-78.4
		c-145.2-6.8-289.7-2.4-432.4,25.2c-88.1,17-175.5,37.7-263.4,55.3c-81.1,16.3-162,33.7-245.6,36c-63,1.7-124.1-8.8-185-21.5
		c-84.3-17.6-169.1-30.8-255.7-34.2C3207.2,1168.1,3084.6,1185.8,2962,1205.6z"/>
	<path class="st1" d="M5190.6,1198.7c27.9,6.2,55.9,12.4,83.8,18.6c2.1,0.3,4.3,0.5,6.5,0.6c0,178.8-0.1,357.7-0.2,536.5
		c0,1.5-3,4.3-4.6,4.3c-769.7,0.2-1539.5,0.2-2309.2,0c-1.6,0-4.6-2.8-4.6-4.3c-0.2-182.2-0.3-364.4-0.2-546.6
		c28.5-2.7,57-7,85.6-7.8c69.4-1.9,139-5.7,208.1-2.3c87.9,4.4,173.2,25.6,257.7,47.6c79.6,20.7,159,43,242,45.5
		c70.7,2.1,141.6,0.3,212.3-2.9c82.8-3.7,162.9-22.5,242.9-41.8c111.3-27,222.9-53.3,335.2-76c104.4-21.1,211.1-24.2,317.3-16.4
		c78.4,5.8,156.3,18.1,234.4,28.2c26,3.3,51.6,8.8,77.4,13.3l1.9,0.5l2.9,0.6l1.9,0.5l2.9,0.6l1.9,0.5L5190.6,1198.7z"/>
	<path class="st2" d="M5175.1,1195.2c-25.8-4.5-51.5-9.9-77.4-13.3c-78-10.1-155.9-22.4-234.4-28.2c-106.2-7.8-212.9-4.8-317.3,16.4
		c-112.4,22.7-223.9,49.1-335.2,76c-80,19.4-160.1,38.1-242.9,41.8c-70.7,3.2-141.6,5-212.3,2.9c-83-2.5-162.5-24.8-242-45.5
		c-84.5-22-169.9-43.2-257.7-47.6c-69.1-3.4-138.7,0.4-208.1,2.3c-28.6,0.8-57.1,5.1-85.6,7.8v-2.2
		c122.5-19.8,245.2-37.6,370.3-32.7c86.6,3.4,171.4,16.6,255.7,34.2c60.9,12.7,122,23.2,185,21.5c83.6-2.3,164.6-19.7,245.6-36
		c88-17.7,175.3-38.3,263.4-55.3c142.7-27.6,287.1-32,432.4-25.2c152,7.1,298.6,39.3,443.9,78.4
		C5164,1192,5169.5,1193.6,5175.1,1195.2z"/>
	<path class="st0" d="M1321.3,1205.9c0-216.3-0.1-432.7-0.3-649c0-1.7-3.9-4.9-5.9-4.9C421,551.7-473,551.7-1367,552
		c-2.1,0-5.9,3.2-5.9,4.9c-0.3,220.4-0.4,440.9-0.3,661.3c2.5-0.1,5-0.3,7.5-0.6c32.5-6.2,64.9-12.4,97.4-18.7l4.6-0.9l2.2-0.5
		l3.4-0.6l2.2-0.5l3.4-0.6l2.2-0.5c6.5-1.6,12.9-3.1,19.4-4.7c168.8-39.2,339.2-71.3,515.8-78.4c168.8-6.8,336.6-2.4,502.4,25.2
		c102.4,17,203.9,37.7,306.1,55.4c94.2,16.3,188.3,33.8,285.4,36c73.2,1.7,144.2-8.8,215-21.5c97.9-17.6,196.5-30.8,297.1-34.2
		C1036.4,1168.3,1178.9,1186.1,1321.3,1205.9z"/>
	<path class="st1" d="M-1268.3,1199c-32.4,6.2-64.9,12.5-97.4,18.7c-2.5,0.3-5,0.5-7.5,0.6c0,178.9,0.1,357.8,0.2,536.8
		c0,1.5,3.5,4.3,5.4,4.3c894.4,0.2,1788.8,0.2,2683.3,0c1.9,0,5.4-2.8,5.4-4.3c0.3-182.3,0.3-364.5,0.2-546.8
		c-33.2-2.7-66.3-7-99.5-7.8c-80.6-1.9-161.5-5.8-241.8-2.3c-102.1,4.4-201.3,25.6-299.5,47.6c-92.4,20.7-184.8,43-281.2,45.5
		c-82.1,2.1-164.6,0.3-246.7-2.9c-96.2-3.7-189.3-22.5-282.3-41.9c-129.3-27-259-53.3-389.5-76.1c-121.3-21.1-245.3-24.2-368.7-16.4
		c-91.1,5.8-181.7,18.1-272.3,28.2c-30.2,3.3-60,8.8-90,13.3l-2.2,0.5l-3.4,0.6l-2.2,0.5l-3.4,0.6l-2.2,0.5L-1268.3,1199z"/>
	<path class="st2" d="M-1250.2,1195.5c30-4.5,59.8-10,90-13.3c90.7-10.1,181.2-22.4,272.3-28.2c123.4-7.8,247.4-4.8,368.7,16.4
		c130.6,22.8,260.2,49.1,389.5,76.1c93,19.4,186.1,38.2,282.3,41.9c82.1,3.2,164.6,5,246.7,2.9c96.5-2.5,188.8-24.8,281.2-45.5
		c98.2-22,197.4-43.2,299.5-47.6c80.3-3.4,161.2,0.4,241.8,2.3c33.2,0.8,66.3,5.1,99.5,7.8v-2.2c-142.4-19.8-284.9-37.6-430.3-32.7
		c-100.6,3.4-199.2,16.6-297.1,34.2c-70.8,12.7-141.8,23.2-215,21.5c-97.2-2.3-191.2-19.7-285.4-36
		c-102.3-17.7-203.7-38.3-306.1-55.4c-165.8-27.6-333.6-32-502.4-25.2c-176.6,7.1-347,39.3-515.8,78.4
		C-1237.3,1192.3-1243.8,1193.9-1250.2,1195.5z"/>
	<path class="st3" d="M1907.2,1503.4c22.7-1.2,45.3-2.7,68-3.3c20.1-0.5,40.2-0.4,60.3,0.2c18.2,0.5,36.4,2,54.6,3
		c1.3,0,2.7-0.2,3.9-0.5c0.6,0.4,1.1,1.1,1.7,1.1c6.7,0.7,13.5,1.1,20.2,1.8c8.1,0.9,16.2,1.9,24.2,3.1c7.5,1.1,15,2.2,22.5,3.6
		c9.9,1.8,19.8,3.7,29.7,5.9c3.1,0.7,6.1,2.3,9,3.6c0.5,0.2,0.8,1.1,1.2,1.6c-0.5,0.3-1.1,0.5-1.7,0.6c-0.7,0.1-1.5,0.1-2.2,0
		c-7.4,0-14.9,0-22.4,0c-0.2-0.5-0.8-0.7-1.2-0.5c-0.5,0.2-0.7,0.8-0.5,1.2c0.2,0.5,0.8,0.7,1.2,0.5c0.1-0.1,0.2-0.1,0.3-0.2
		c1.7,0.3,3.5,0.4,5.2,0.7c11.3,2,22.6,3.9,33.9,6c15.7,3,31.5,5.9,47.1,9.6c12.3,2.9,24.4,7,36.6,10.6c11.5,3.4,22.6,8.1,33.1,14
		c5.3,3,10.5,6.3,15.6,9.7c0.8,0.5,1.1,1.6,1.6,2.3c-0.9,0.4-1.8,0.7-2.8,0.8c-4.6-0.1-9.1-0.4-13.6-0.4c-7.5-0.1-15.1,0-22.6-0.1
		c-0.6,0-1.3,0.1-1.9,0.1c0.6,0.4,1.2,0.7,1.9,0.9c19.1,4.6,37.7,10.9,55.6,18.9c14.8,6.6,29.2,13.8,43.6,21.2
		c7.8,4,15,9.2,22.5,13.9c2.4,1.5,4.7,3.2,7.1,4.8l6.6,6.1c0.8,0.8,1.5,1.6,2.3,2.4c1.8,2,1.5,3.9-1,5.1c-0.9,0.4-1.9,0.7-2.9,0.9
		c-5.1,1.1-10.1,2.3-15.2,3.3c-7.8,1.6-15.6,3-23.5,4.5c-9.6,1.8-19.1,3.8-28.6,5.6c-2.8,0.6-5.6,1-8.5,1.5
		c-0.3,0.1-0.6,0.5-0.9,0.8c0.3,0.2,0.7,0.3,1,0.4c6.9,1.3,13.9,2.4,20.7,4c11,2.6,22,5.3,32.8,8.5c6.4,1.9,6.7,4.7,1.6,9
		c-0.2,0.2-0.4,0.4-0.6,0.5c-11.1,8.4-22.9,15.9-35.3,22.2c-22.9,11.9-46.8,21.9-71.4,29.9c-19.8,6.2-40.1,10.8-60.7,13.6
		c-1.9,0.4-3.9,0.9-5.8,1.6h-499.1c-0.4-0.4-0.9-0.9-1.3-1c-7.5-1.2-15-2.2-22.5-3.5c-23.4-4-46-11.3-68.1-19.8
		c-21.2-8.1-41.6-18.1-61-29.9c-7.4-4.7-14.4-9.8-21.3-15.3c-3.2-2.5-2.7-5,1.1-6.5c6.1-2.4,12.4-4.4,18.8-6c12-2.8,24.1-5,36.2-7.5
		c0.6-0.2,1.2-0.4,1.8-0.7c-0.6-0.2-1.2-0.5-1.9-0.7c-0.3-0.1-0.5-0.2-0.8-0.2c-10.7-2-21.3-3.9-32-5.9c-11.5-2.2-22.9-4.6-34.3-7
		c-3.3-0.7-6.8-1.3-10-2.2s-3.9-3.2-1.6-5.8c0.6-0.7,1.2-1.4,1.8-2l7.1-6c5-3.5,9.9-7.2,15.1-10.4c7.5-4.7,14.9-9.6,22.8-13.4
		c19.5-9.4,38.9-19,59.6-25.7c10.1-3.3,20.4-6.2,30.7-9.3c0.6-0.2,1.1-0.5,1.6-0.9c-0.6,0-1.3-0.2-1.9-0.2
		c-11.9,0.2-23.8,0.4-35.7,0.5c-1-0.2-2.1-0.5-3-0.9c0.6-0.9,1-2,1.8-2.6c5.7-3.6,11.4-7.3,17.3-10.6c13.8-7.7,28.9-12.3,44-16.7
		c11.8-3.4,23.6-6.7,35.5-9.4s23.8-4.7,35.8-6.8c12.7-2.3,25.4-4.4,38-6.6c0.3-0.1,0.7-0.2,1-0.2c-0.4-0.1-0.8-0.2-1.2-0.3
		c-7.9,0-15.8,0-23.7-0.1c-0.8-0.2-1.5-0.4-2.2-0.9c0.4-0.7,0.7-1.6,1.3-1.9c2.1-1,4.2-1.9,6.4-2.7c14.6-4.8,29.8-6.7,45-8.9
		c15.7-2.2,31.4-3.9,47.2-5.7L1907.2,1503.4z M2002,1533.7v-0.4c-12,0.5-23.9,0.9-35.9,1.5c-9.6,0.5-19.3,0.8-28.8,1.8
		c-11.4,1.1-22.8,2.6-34.1,4.4c-13.8,2.2-27.5,4.7-41.2,7.7c-16,3.5-31.6,8.1-46.9,13.9c-17.6,6.5-34.5,14.3-49.7,25.4
		c-10.9,8-20.4,17.2-25.8,30c-4.1,9.3-4.3,19.8-0.5,29.3c4.4,11.5,12.4,20.3,22,27.9c10.7,8.2,22.3,15.2,34.6,20.7
		c14.2,6.6,29,12,44.2,16.1c14.6,3.9,29.3,7.3,44.1,10.3c11,2.3,22.2,3.9,33.4,5.4c10.9,1.4,21.9,2.6,32.8,3.3
		c11.5,0.8,23,1.5,34.4,1.7c13.4,0.2,26.8-0.2,40.2-0.5c7.9-0.2,15.8-0.6,23.6-1.1c8.9-0.6,17.7-1.3,26.6-2.2c9.4-1,18.8-2,28.1-3.5
		c19.1-2.9,38.1-6.9,56.7-12.1c24.2-6.8,47.8-15.2,69.4-28.4c13.2-8.1,25.1-17.5,32.9-31.3c6.2-11,7.4-22.5,2.9-34.3
		c-4.4-11.5-12.5-20.3-22-27.9c-10.6-8.3-22.2-15.2-34.6-20.7c-14.2-6.6-29-12-44.2-16.1c-14.6-3.9-29.3-7.3-44.1-10.3
		c-11-2.3-22.2-3.9-33.4-5.4c-10.9-1.4-21.9-2.5-32.8-3.3c-11.6-0.9-23.1-1.3-34.7-1.7C2013.4,1533.5,2007.7,1533.7,2002,1533.7
		L2002,1533.7z"/>
	<path class="st4" d="M2249.5,1758.3c1.9-0.7,3.8-1.2,5.8-1.6c20.6-2.8,40.9-7.4,60.7-13.6c24.6-8,48.5-18,71.4-29.9
		c12.4-6.3,24.2-13.8,35.3-22.2c0.2-0.2,0.4-0.4,0.6-0.5c5-4.3,4.8-7.1-1.6-9c-10.8-3.2-21.8-5.9-32.8-8.5c-6.9-1.6-13.8-2.7-20.7-4
		c-0.3-0.1-0.7-0.2-1-0.4c0.3-0.3,0.6-0.7,0.9-0.8c2.8-0.5,5.6-1,8.5-1.5c9.5-1.9,19.1-3.8,28.6-5.6c7.8-1.5,15.7-2.9,23.5-4.5
		c5.1-1,10.1-2.2,15.2-3.3c1-0.2,2-0.5,2.9-0.9c2.4-1.2,2.8-3.2,1-5.1c-0.7-0.8-1.5-1.6-2.3-2.4c0.1-0.9,0.4-1.8,0.7-2.7
		c0.7-1.5,2.4-2.2,3.9-1.6c0.6,0.3,1.1,0.7,1.4,1.3c0.8,1.1,1.5,2.3,2.1,3.6c0.8,2,1.6,3.7,4.3,3c0.3-0.1,1,1.6,1.6,2.5h0.1h-0.6
		c-0.4,0-0.7,0-1.1,0.1c-0.9,0.3-1.8,0.8-2.7,1.2c0.9,0,1.8,0,2.7,0c1-0.1,1.9-0.4,2.9-0.6c0.1,0,0.2,0,0.3,0
		c1.3,0.4,2.5,0.9,3.8,1.4c-1.1,0.8-2.3,1.4-3.6,1.9c-1.5,0.3-3.1,0.6-4.7,0.6c-2.8,0.2-4.8,2.6-4.7,5.3c0,0,0,0.1,0,0.1
		c0.1,2.6,0.3,5.2,0.4,7.7c0.1,2.8-1.3,4.7-3.6,6.3c-0.5,0.5-1,1-1.5,1.5c0.7,0.2,1.4,0.4,2,0.6c8.2,2.1,16.4,4.2,24.5,6.4
		c1.2,0.4,2.4,1,3.5,1.6v0.7h-2.1l-3.8-0.9c-1.5-0.4-2.9-0.9-4.4-1.3c-0.4-0.1-0.7-0.1-1.1,0c0.3,0.3,0.6,0.5,1,0.7
		c1.5,0.4,3,0.8,4.5,1.2l3.9,1.2l3.2,2.1c-1.2,0-2.5-0.1-3.7-0.3c-7.3-1.9-14.6-3.9-21.9-5.9l-3.3-0.8c-0.3-0.2-0.6-0.4-1-0.5
		c-1-0.2-2-0.2-2.9-0.3l3.1,0.9l4.3,1.6c1.6,0.6,3.2,1.2,4.8,2c0.5,0.2,0.8,0.9,1.2,1.4l-3.2-0.3c1.1,0.4,2.2,0.9,3.3,1.3
		c0.1,0,0.2-0.1,0.3-0.1c3.2,1.1,6.4,2.1,9.5,3.3c0.7,0.3,1.1,1.3,1.6,1.9c-0.7,0.2-1.5,0.4-2.3,0.3c-1.7-0.3-3.4-1-4.6,1.2
		c-0.1,0.3-1.4,0.2-2.1,0c-1.9-0.5-3.7-1.2-5.6-1.8c-1.2-0.4-2.4-1.4-3.7,0.2c-0.3,0.4-1.7-0.1-2.6-0.4c-3.4-0.8-6.9-1.8-10.3-2.6
		c0.1-0.1,0.1-0.1,0.1-0.2c0,0,0-0.1-0.1-0.2l-0.1,0.4c-0.6,0.3-1.3,1-1.7,0.9c-1.4-0.4-2.7-1.2-4.1-1.6c-0.6-0.2-1.3-0.2-1.9,0.1
		c-0.5,0.5-0.8,1.1-0.8,1.8c1.6,4.1-0.5,6.4-3.7,8.1c-1.1,0.6-2.2,1.1-3.2,1.6c-1.8,0.9-2.2,1.9-0.9,3.7c0.8,1.3,1.5,2.6,2,4.1l-4-2
		l-1.8-0.8c0.1,0.6,0.2,1.2,0.3,1.8c0,0.1,0.1,0.2,0.1,0.3c0.2,1.3,0.4,2.6,0.7,3.9c-0.9-0.8-1.8-1.6-2.7-2.3
		c-0.6-0.4-1.3-0.5-2-0.4c-1.3,0.7-2.6,1.4-3.8,2.3l-3.6,2.2c0.8,0.8,1.6,1.7,2.2,2.7c0.5,1.2,1.3,3,0.8,3.9c-1.8,3.3-4,6.2-6,9.3
		c-0.4,0.6-1.1,1.3-1,1.8c0.7,3.9,0.3,5.5-3.1,7.5c-6.2,3.5-12.4,7-18.9,10.1c-7.8,3.7-15.8,6.8-23.7,10.2L2249.5,1758.3z
		 M2436.2,1671.1l-2.1,2.2c0.7,0.4,1.5,0.7,2.3,1c0.2,0.1,0.9-0.6,0.8-0.7C2436.9,1672.8,2436.6,1671.9,2436.2,1671.1z"/>
	<path class="st4" d="M1555.4,1644.3c-0.6,0.7-1.2,1.4-1.8,2c-2.3,2.6-1.8,4.8,1.6,5.8s6.7,1.5,10,2.2c11.4,2.3,22.8,4.8,34.3,7
		c10.6,2.1,21.3,4,32,5.9c0.3,0,0.5,0.1,0.8,0.2c0.6,0.2,1.2,0.5,1.9,0.7c-0.6,0.3-1.2,0.5-1.8,0.7c-12.1,2.5-24.2,4.7-36.2,7.5
		c-6.4,1.6-12.7,3.6-18.8,6c-3.8,1.4-4.3,4-1.1,6.5c6.8,5.5,13.9,10.6,21.3,15.3c19.4,11.8,39.8,21.8,61,29.9
		c22.1,8.5,44.7,15.8,68.1,19.8c7.5,1.3,15,2.3,22.5,3.5c0.5,0.1,0.9,0.7,1.3,1H1661c-0.9-0.2-1.7-0.4-2.6-0.5c-5.3,0-10.5,0-15.8,0
		c-14-5.7-28.3-10.6-41.2-18.9c-3.2-2.1-6.2-4.1-4.3-8.7c0.1-0.3-0.8-1-1.2-1.5c-2-3-4.4-5.8-6-9c-1-2,0.2-4.2,2.2-5.5
		c1.2-0.8,1-1.2-0.1-1.9c-2.1-1.1-4.1-2.3-6-3.6c-1.6-1.2-2.5-0.9-3.4,0.8c-0.4,0.7-1.3,1-2,1.5c0-0.8,0.1-1.6,0.2-2.4
		c0.2-1.3,0.6-2.6,0.8-3.9c-1,0.7-2.1,1.4-3.1,2.1c-0.4,0.4-0.9,0.7-1.3,1c-0.3,0.2-1,0.2-1.2,0c-0.2-0.4-0.3-0.8-0.1-1.2
		c0.5-0.9,1.2-1.7,1.8-2.4c1.7-1.9,1.4-3.1-0.9-4.2c-1.3-0.6-2.5-1.2-3.7-1.9c-3.3-2-3.8-3.4-3.1-7.2c0.1-0.9-0.2-1.7-0.8-2.3
		c-0.4-0.4-1.4-0.2-2.1,0c-1.4,0.4-2.7,1.2-4.2,1.6c-0.4,0.1-1.1-0.6-1.6-1l0.3-0.3h-0.4l0.1,0.4c-2.9,0.7-5.9,1.5-8.8,2.1
		c-1.6,0.4-3.3,2-5,0c-0.2-0.2-1.2,0.1-1.8,0.3c-2.1,0.7-4.2,1.5-6.3,2c-0.8,0.2-1.7-0.6-2.6-0.7c-1.4-0.2-2.8-0.2-4.1-0.3
		c-0.7-0.1-1.3-0.2-2-0.3c0.5-0.6,0.8-1.4,1.4-1.7c3.2-1.2,6.4-2.3,9.7-3.4c0.1,0,0.2,0.1,0.3,0l3.4-1.3l-3.5,0.3l4.4-2.7l7.8-2.3
		l2.9-1.2l-2.9,0.4l-7.7,2l-23.6,6.2c0-0.4,0-0.8,0-1.2l4.5-1.7l10.8-3.1c0.2-0.1,0.5-0.3,0.7-0.4c-0.3-0.1-0.6-0.1-0.8-0.1
		c-3.6,0.9-7.1,1.8-10.7,2.7h-3.6c0.9-0.7,1.9-1.3,3-1.7c8.3-2.2,16.6-4.3,24.8-6.5c0.8-0.2,1.5-0.5,2.3-0.8c-0.5-0.5-1-1.1-1.5-1.5
		c-3-2-3.6-4.6-3.5-8.2c0.1-3,1.6-6.6-1.1-9.3c-0.9-0.9-1.9-1.5-3.1-1.8c-1.9-0.5-3.9-0.3-5.8-0.8c-1-0.3-1.9-1.2-2.8-1.8
		c0.9-0.5,1.9-1,2.9-1.4c0.5-0.2,1.1,0.1,1.7,0s3.2,1.4,0.9-1.3c-1.1-1.3,0.6-2,1.8-1.7c2,0.4,2.7-0.4,3.3-2.2
		c0.7-1.7,1.6-3.3,2.8-4.8c1-1.4,2.8-1.7,4.2-0.7c0.4,0.3,0.8,0.7,1,1.2C1555.1,1642.4,1555.3,1643.3,1555.4,1644.3z M1556.5,1683
		c-0.5-0.2-0.7-0.4-0.9-0.3c-2.8,0.8-5.7,1.6-8.5,2.4c-0.2,0.1-0.3,0.4-0.5,0.6c0.4,0.1,0.8,0.2,1.2,0.1c2.5-0.7,4.9-1.5,7.4-2.3
		C1555.6,1683.4,1555.9,1683.3,1556.5,1683L1556.5,1683z M1564.9,1674.8l2.1-1.4c-0.6-0.4-1.2-1.1-1.7-1s-1.1,0.8-1.6,1.2
		L1564.9,1674.8z M1558.9,1656.9c-0.2-0.1-0.3-0.2-0.4-0.2s-0.3,0.2-0.4,0.3c0.1,0.1,0.3,0.1,0.4,0.1
		C1558.7,1657.1,1558.8,1657,1558.9,1656.9L1558.9,1656.9z M1544.3,1651.1l-0.4,0.2c0.2,0.1,0.3,0.1,0.5,0.2c0.2,0,0.4-0.1,0.5-0.1
		L1544.3,1651.1z"/>
	<path class="st4" d="M2565.4,1593.3c1.5,1.4,3,2.8,4.4,4.3c0.4,0.4,0.3,1.3,0.5,2c-0.6-0.1-1.3-0.3-1.8-0.6
		c-3.3-2.6-6.4-5.3-9.7-7.9c-0.5-0.4-1.8-0.8-2.1-0.6c-1,1.2-1.9,2.4-2.8,3.8c0.7,0.3,1.3,0.6,1.9,1.1c0.6,0.7,1.2,1.4,1.8,2.2
		c-0.8,0.5-1.6,1.5-2.3,1.5c-1.5-0.1-2.9,0.6-3.6,1.9c-1.7,2.4-4.6,1.2-6.3,0.7c-3.7-1-6,2-9.2,2.1c-0.1,0-0.3,0.3-0.4,0.5
		c0.2,0.1,0.5,0.2,0.7,0.4c0.7,0.8,1.4,1.6,2.2,2.3c-0.9,0.7-1.6,1.8-2.6,2c-2.8,0.7-5.7,1-8.5,1.5c-4,0.8-7.9,1.7-11.9,2.4
		c-2.6,0.4-5.4,0.4-8,0.6c-0.7,0.1-1.8,0.2-1.9,0.6c-1.1,3-3.4,2.3-5.4,1.8c-10.3-2.5-20.6-5.2-30.8-7.8c-3.2-0.8-6.5-1.7-9.7-2.5
		c-1.1-0.3-2.3-0.9-2.1,1.4s-1.8,3.7-4.1,3c-1.3-0.5-2.6-1.1-3.7-1.9c-6.4-4.2-12.8-8.4-19-12.8c-0.9-0.6-1.2-2.2-1.5-3.4
		c-0.6-2,1.5-5-2.4-5.6c-0.4-0.1-0.9-1.1-0.7-1.6c0.2-0.7,0.7-1.3,1.4-1.5c1.3-0.3,1.9-0.6,1.5-2.2c-0.1-0.5,1-1.7,1.8-1.9
		c1.8-0.6,3.5,0.2,4.9-2.5c1.1-2.2,4.9-3.1,7.6-4.2c1.7-0.6,3.4-0.9,5.2-1c9.8-0.9,19.6-2,29.5-2.6c6.8-0.3,13.6,0.2,20.4,0.3
		c0.7,0,1.4-0.1,2.1-0.2c-0.4-0.7-0.9-1.3-1.5-1.8c-0.7-0.4-1.5-0.7-2.3-0.9c-15.5-3.9-31.1-7.7-46.6-11.6c-1.6-0.5-3.3-1.2-4.8-1.9
		c1.7-0.2,3.5-0.3,5.3-0.2c3.9,0.5,7.7,1.4,11.6,1.8c2.5,0.2,5.2-0.8,7.6-0.3c9.9,2.2,19.7,4.5,29.5,7.3c2.6,0.7,3.1-0.8,4.4-1.9
		c-0.4-0.5-0.8-0.9-1.2-1.3c-0.9-0.7-1.8-1.4-2.6-2c1.1,0.1,2.5-0.2,3.4,0.3c7.9,4.5,17,4.5,25.5,6.9c7.4,2.1,14.6,4.5,20.9,9.1
		c3.9,2.9,7.8,5.8,9.2,10.8c0.2,0.7,1.1,1.2,1.8,1.6c6.3,3.7,12.7,7.3,19,11c0.1,0.1,0.4-0.2,0.6-0.3v1.1c-2.4,1.3-3.3-1.3-5-1.8
		l-5.6-2.6l-0.5-0.6l-1.1-0.6l-1.1-0.5l-0.6-0.4l-0.1,0.2l0.8,0.2l1.1,0.6l1.2,0.9c0.2,0.1,0.3,0.1,0.5,0.1l5.5,3.5
		c-0.3,1.9-1.3,1.3-2.3,0.8c-2.1-1.1-4.2-2.2-6.4-3.3l-0.7-0.5l-1.1-0.4l0.6,1L2565.4,1593.3z M2549,1578.4l0.3,0.2L2549,1578.4
		l-1.6-1.7c-4.4-2.3-8.7-4.5-13.1-6.7c-0.4-0.2-0.9,0-1.4,0c0.4,0.4,0.6,0.9,1,1.1c4.2,2.1,8.5,4.2,12.7,6.3L2549,1578.4z
		 M2504.5,1598.9c10-0.7,20.1-1.2,30.3-2.1c2.7-0.2,5.4-1.3,8-2.2c1.1-0.5,2.1-1.2,3.1-1.9c-0.6-0.7-1.2-1.3-1.9-1.9
		c-1-0.7-2-1.3-3.1-1.8l-2.3-1.3c0.7,0,1.5,0.1,2-0.2c0.8-0.6,1.5-1.3,2.1-2.1c0.4-0.5,0.8-0.9,1.3-1.3c0.3-0.2,0.9-0.1,1.3-0.1
		c-0.4-0.3-0.9-0.6-1.3-0.9c-8.1-4.1-16.7-6.6-25.5-8.8c-12.9-3.2-26.3-4.3-39.6-3.4c-8.6,0.6-17.2,1.8-25.8,2.4
		c-5,0.4-9.9,0.5-13.9,4c-0.4,0.4-0.9,0.7-1.4,1.1c0.6,0,1.1,0,1.6-0.1c8.2-1.1,16.4-2.2,24.6-3.2c0.6,0,1.3,0.2,1.9,0.4
		c-0.5,0.5-1,1.1-1.5,1.6c-0.7,0.7-1.9,1.4-1.9,2.1c-0.1,1.7-1,1.6-2.2,1.7c-1.9,0.2-3.9,0.3-5.8,0.6c-0.7,0.1-1.7,0.3-1.9,0.7
		c-1,2.1-2.8,1.7-4.6,1.7c-3,0-6.1,0.2-9.1,0.4c-0.4,0-0.8,0.5-1.2,0.8c0.3,0.3,0.6,0.6,1,0.9c9.8,3.9,19.3,8.8,30,10.2
		c5.5,0.7,11,2.4,16.5,2.8C2491.5,1599.2,2497.9,1598.8,2504.5,1598.9L2504.5,1598.9z M2536,1574.3c-1.5-0.8-2.3-1.3-3.2-1.7
		c-0.2-0.1-0.6,0.2-0.9,0.3c0.8,0.5,1.6,1,2.4,1.4C2534.6,1574.4,2534.9,1574.3,2536,1574.3L2536,1574.3z M2551.5,1588.1
		c-0.2-0.3-0.4-0.6-0.6-0.6s-0.4,0.2-0.6,0.3c0.2,0.3,0.4,0.5,0.6,0.7C2550.9,1588.5,2551.2,1588.2,2551.5,1588.1L2551.5,1588.1z
		 M2563.4,1591.6l0.1-0.1h-0.2L2563.4,1591.6z"/>
	<path class="st4" d="M1421.3,1595.1c0.2,0.1,0.5,0.4,0.6,0.3c6.4-3.6,12.7-7.3,19-11c0.7-0.5,1.4-1.1,1.9-1.8
		c2.1-2.8,3.8-6,6.3-8.3c8.3-7.3,18.6-10.5,29.1-12.6c6.8-1.3,13.5-2.5,19.7-5.6c0.3-0.2,0.7-0.3,1.1-0.3c0.9-0.1,1.7,0,2.6-0.1
		c-0.6,0.6-1.3,1.1-1.9,1.7s-1.3,1.1-2,1.7c1.3,0.5,1.3,2.8,3.9,2.1c9.9-2.8,20-5,30-7.5c7.4,1.6,14.4-1.2,21.7-1.7
		c0.9,0.1,1.9,0.2,2.8,0.5c-0.8,0.6-1.7,1-2.6,1.4c-3.9,1-7.8,1.8-11.7,2.8c-12.3,3.1-24.5,6.2-36.8,9.3c-0.6,0.1-1.1,0.2-1.6,0.5
		c-0.9,0.7-1.7,1.5-2.6,2.3c1,0.1,2,0.2,2.9,0.1c13.3-1.8,26.3,1,39.5,1.6c3.6,0.2,7.4,0,10.8,0.9c4,1,8.5,2.3,11.2,5
		c1.9,1.9,3.9,1.7,5.6,2.8c1.8,1.2,2.1,4.1,4.3,5.5c0.1,0-0.4,1.5-0.8,1.5c-3.8,0.6-1.8,3.6-2.4,5.6c-0.3,1.2-0.6,2.8-1.5,3.4
		c-6.3,4.4-12.6,8.6-19,12.8c-1.2,0.9-2.6,1.5-4,2c-2.1,0.6-4.1-0.7-3.9-2.7c0.3-2.6-1-2-2.4-1.7c-9.2,2.4-18.3,4.9-27.5,7.3
		c-4.4,1.1-8.9,2.1-13.3,3c-1.9,0.4-4,0.8-4.9-1.8c-0.1-0.4-1.3-0.6-1.9-0.6c-4,0.2-8-0.4-11.7-1.9c-2.3-1-5.1-0.7-7.7-1.1
		c-3-0.4-6.1-0.8-9.1-1.6c-1-0.2-1.8-1.3-2.6-2c0.7-0.8,1.4-1.6,2.2-2.3c0.2-0.2,0.5-0.4,0.8-0.6c-0.3-0.2-0.6-0.3-1-0.4
		c-4-1.8-8.2-2.8-12.6-1.4c-0.1,0-0.2,0.1-0.3,0c-2.4-1.6-4.9-2.9-7.6-4c-1.4-0.5,0.1-2,1.3-2.8c0.7-0.4,3-0.2,1.4-1.9
		c-1.1-1.1-1.3-4.8-4.3-2.3c-3.3,2.6-6.4,5.3-9.7,7.9c-0.6,0.3-1.2,0.5-1.8,0.6c0.1-0.7,0.1-1.5,0.5-2c1.4-1.5,2.9-2.9,4.4-4.3
		l0.7-0.4l0.6-1l-1.1,0.4l-0.7,0.5c-2.1,1.1-4.3,2.2-6.3,3.3c-1.1,0.6-2.1,1.1-2.3-0.8c1.8-1.2,3.6-2.3,5.4-3.5c0.2,0,0.4,0,0.5-0.1
		l1.2-0.9l1.1-0.6l0.8-0.2l-0.1-0.2l-0.7,0.4l-1.1,0.5l-1.1,0.6l-0.5,0.6l-5.6,2.6c-0.3,0.2-0.8,0.3-1,0.5c-0.9,1.3-2.6,1.9-4.1,1.3
		L1421.3,1595.1z M1452.1,1578.4l2.3-1c4.2-2.1,8.5-4.2,12.7-6.3c0.4-0.2,0.7-0.7,1-1.1c-0.5,0-1-0.2-1.4,0
		c-4.4,2.2-8.7,4.5-13.1,6.7l-1.7,1.6l-0.2,0.3L1452.1,1578.4z M1513.2,1570.2v0.2c-1.6,0-3.2-0.1-4.7,0
		c-17.6,1.1-34.7,4.6-50.7,12.2c-0.7,0.3-1.3,0.7-1.9,1.1c0.6,0,1.2,0.1,1.7,0.3c0.3,0.1,0.4,0.6,0.7,0.8c1,1.2,1.6,3.1,3.8,2.5
		c0.2,0,0.3,0.1,0.5,0.1c-0.2,0.3-0.5,0.5-0.8,0.7c-2.1,1.3-4.2,2.4-6.2,3.8c-0.8,0.6-1.6,1.6,0.2,2.2c2.6,0.8,5,2,7.6,2.4
		c5.4,0.9,10.8,1.5,16.2,1.8c12.2,0.4,24.4,0.8,36.5,0.4c7.4-0.4,14.6-1.6,21.7-3.7c8.3-2.4,16.2-6,24.3-9.1c0.5-0.3,0.9-0.6,1.2-1
		c-0.5-0.3-1-0.7-1.6-0.8c-3-0.2-6.1-0.1-9.1-0.3c-1.2-0.1-2.5-0.4-3.6-0.8c-1.2-0.4-2.2-1.4-3.4-1.7c-1.8-0.4-3.7-0.3-5.5-0.6
		c-0.5-0.1-1.3-0.6-1.3-0.9c-0.1-1.8-1.1-2.6-2.7-3c-0.4-0.1-0.6-1-0.8-1.5c0.4-0.2,0.9-0.3,1.4-0.4c3.3,0.3,6.5,0.6,9.7,1
		c5.3,0.7,10.5,1.5,15.7,2.3c0.4,0,0.9,0,1.3,0c-0.2-0.2-0.3-0.5-0.5-0.6c-3.4-1.9-6.6-3.9-10.8-4.2
		C1539.2,1572.5,1526.2,1571.3,1513.2,1570.2L1513.2,1570.2z M1469.6,1573.2c-0.5-0.4-0.7-0.8-0.8-0.7c-1,0.5-1.9,1-2.8,1.5
		c0.2,0.1,0.3,0.4,0.4,0.4C1467.3,1574,1468.3,1573.6,1469.6,1573.2L1469.6,1573.2z M1450.2,1588.6l0.6-0.5l-0.6-0.7
		c-0.2,0.2-0.4,0.3-0.4,0.5S1450,1588.3,1450.2,1588.6L1450.2,1588.6z M1437.7,1591.6l0.1-0.1h-0.2L1437.7,1591.6z"/>
	<path class="st4" d="M2438.9,1638.2c-2.4-1.6-4.7-3.3-7.1-4.8c-7.5-4.7-14.7-9.8-22.5-13.9c-14.3-7.4-28.8-14.7-43.6-21.2
		c-17.9-8-36.5-14.4-55.6-18.9c-0.7-0.2-1.3-0.5-1.9-0.9c0.6,0,1.3-0.1,1.9-0.1c7.6,0,15.1,0,22.6,0.1c4.5,0,9.1,0.4,13.6,0.4
		c1-0.1,1.9-0.4,2.8-0.8c-0.5-0.8-0.9-1.9-1.6-2.3c-5.2-3.3-10.3-6.7-15.6-9.7c-10.5-5.8-21.6-10.5-33.1-13.8
		c-12.2-3.6-24.3-7.7-36.6-10.6c-15.6-3.7-31.4-6.6-47.1-9.6c-11.3-2.2-22.6-4.1-33.9-6c-1.7-0.3-3.5-0.4-5.2-0.7
		c-0.3,0.4-0.9,0.4-1.3,0.1s-0.4-0.9-0.1-1.3c0.3-0.4,0.9-0.4,1.3-0.1c0.1,0.1,0.2,0.2,0.2,0.3c7.4,0,14.9,0,22.4,0
		c0.7,0.1,1.5,0.1,2.2,0c0.6-0.2,1.1-0.4,1.7-0.6c-0.4-0.6-0.7-1.4-1.2-1.6c-3-1.3-5.9-2.9-9-3.6c-9.9-2.2-19.8-4.1-29.7-5.9
		c-7.5-1.4-15-2.5-22.5-3.6c-8.1-1.2-16.1-2.2-24.2-3.1c-6.7-0.7-13.5-1.2-20.2-1.8c-0.6-0.1-1.1-0.7-1.7-1.1
		c0.1-6.1,0.1-6.2,6.3-5.5c6.8,0.8,13.7,1.6,20.5,2.5c0.6,0.1,1.1,0.1,1.6,0.2c-0.2-0.5-0.4-1-0.7-1.4c-1.1-1.8-0.3-3.2,1.2-4
		c1.2-0.7,2.6-1.1,3.9-1.1c4.4,0.4,8.9,0.9,13.3,1.6c10.6,1.8,21.3,3.6,31.8,5.6c4.1,0.9,8.1,2.1,12,3.4c0.9,0.2,1.7,0.8,2.1,1.6
		c0.8,2.6,2.6,2.7,4.8,2.4c0.7-0.1,1.5,0,2.1,0.5c1.9,2.4,4.5,1.9,6.9,1.8c4-0.1,7.9,0.4,12-0.6c3.8-0.9,8.2,0.7,12.4,1.1
		c14,1.6,27.4,5.5,41.1,8.7c7.6,1.8,15.3,3.1,22.9,4.5c2.9,0.5,5,1.8,5.8,4.8c0.1,0.6,0.5,1.2,1,1.5c4.9,2.3,9.7,4.7,14.6,6.7
		c1.5,0.6,3.3,0.2,5,0.3c0.8,0,1.6,0.1,2.4,0.4c6.1,3.1,12,6.7,18.3,9.5c7.7,3.5,15.7,6.4,23.5,9.6l0,0c0.8,0.6,1.5,1.2,2.3,1.7
		c3.2,2,7,3.2,7.9,7.6c0.1,0.6,1,1.1,1.6,1.5c3.2,2.4,6.3,4.9,9.5,7.3c1.6,1.3,3,2.8,5.6,2.4c1-0.2,2.4,0.9,3.4,1.6
		c1.8,1.4,3.6,3,5.2,4.6c1.5,1.5,2.6,2.7,5.2,2.2c1.4-0.3,3.4,0.8,4.8,1.8c10.4,8.2,19.6,17.8,27.4,28.4c2,2.6,2.9,6,4.4,9
		c1.1,2.3,2.3,4.6,3.6,6.9S2440.9,1636.4,2438.9,1638.2z"/>
	<path class="st4" d="M1907.2,1503.4l-9.1,1.1c-15.7,1.9-31.5,3.5-47.2,5.7c-15.1,2.2-30.3,4-45,8.9c-2.2,0.7-4.3,1.6-6.4,2.7
		c-0.6,0.3-0.9,1.3-1.3,1.9c0.7,0.4,1.4,0.7,2.2,0.9c7.9,0.1,15.8,0.1,23.7,0.1c0.4,0,0.8,0.1,1.2,0.3c-0.3,0.1-0.7,0.2-1,0.2
		c-12.7,2.2-25.4,4.3-38,6.6c-12,2.2-23.9,4.1-35.8,6.8s-23.7,6-35.5,9.4c-15.1,4.4-30.1,9.1-44,16.7c-5.9,3.3-11.6,7-17.3,10.6
		c-0.8,0.5-1.2,1.7-1.8,2.6c0.9,0.5,2,0.8,3,0.9c11.9-0.1,23.8-0.3,35.7-0.5c0.6,0,1.3,0.1,1.9,0.2c-0.5,0.4-1,0.6-1.6,0.9
		c-10.2,3.1-20.5,6-30.7,9.3c-20.7,6.7-40.1,16.3-59.6,25.7c-7.9,3.8-15.3,8.8-22.8,13.4c-5.2,3.3-10.1,6.9-15.1,10.4
		c-2.2-1.7-2.2-3.7-1.1-6c1.8-3.8,3.4-7.6,5.3-11.3c1-2.1,2.2-4.1,3.6-6c7.6-9.7,15.9-18.7,25.5-26.5c2.2-1.7,4.4-3.1,7.4-2.3
		c0.6,0.2,1.6-0.6,2.3-1.1c2.1-1.8,4-4,6.2-5.6c1.4-1,3.3-1.2,5-1.8c0.9-0.3,1.7-0.6,2.4-1.1c3.2-2.4,6.4-4.8,9.5-7.3
		c1.7-1.3,3.5-2.4,4.1-5c0.3-1.3,2-2.4,3.3-3.2c2-1.4,4.1-2.5,6.4-3.4c11.9-4.5,23.5-9.9,34.5-16.3c2.2-1.2,4.5-2.3,6.8-3.2
		c0.6-0.4,1.4-0.5,2.1-0.4c4,1.4,7.1-1,10.5-2.3c2.2-0.9,4.1-2.2,6.2-3.2s4.3-1.9,5.2-4.8c0.4-1.3,2.9-2.5,4.6-2.9
		c6.4-1.3,12.9-1.9,19.2-3.4c8.6-2,17-5,25.6-6.8c10.2-2.1,20.5-3.2,30.8-4.8c5.1,2.3,10.4,0.7,15.6,0.8c1.2,0,2.4-0.9,3.7-1.3
		c1.2-0.4,2.4-0.7,3.7-0.8c1.7-0.1,3.3,0,3.9-2.2c0.5-0.9,1.3-1.6,2.2-1.9c3.6-1.3,7.2-2.4,10.9-3.3c11.9-2.3,23.8-4.4,35.7-6.5
		c3.4-0.6,6.8-0.7,10.3-1c1-0.1,2,0.1,3,0.4c2.9,1,3.3,3.2,1.1,5.5c-3.4,0.6-6.9,1.2-10.4,1.8c-0.4,0.1-0.7,0.5-1,0.8
		c0.4,0.1,0.7,0.1,1.1,0.1c3.5-0.6,7-1.3,10.6-2c8.9-1.1,17.8-2.2,26.7-3.3c1.6-0.2,1.9,0.4,1.8,1.8
		C1906.9,1500.3,1907.1,1501.9,1907.2,1503.4z"/>
	<path class="st4" d="M2406.6,1569.3c2.5-0.2,5,0.5,5.5,3.1c0.3,1.7-0.2,3.5-1.3,4.9c-1.8,1.9-3.9,3.5-7.1,1.8
		c-4.2-2.3-8.6-4.3-13-6.4c-0.5-0.3-0.9-0.6-1.3-0.9c0.5-0.2,0.9-0.4,1.4-0.5C2396.1,1570.6,2401.4,1570,2406.6,1569.3z"/>
	<path class="st4" d="M1594.9,1569.5l15.3,2c0.3,0.1,0.6,0.2,0.9,0.4c-0.3,0.3-0.5,0.5-0.8,0.7c-4.7,2.3-9.3,4.7-14.1,6.8
		c-2.6,1.2-4.7-0.5-6.1-2.2c-1-1.5-1.4-3.3-1-5C1589.8,1569.8,1592.1,1569.3,1594.9,1569.5z"/>
	<path class="st5" d="M1527.5,1684.7c3.6-0.9,7.1-1.8,10.7-2.7c0.3,0,0.6,0,0.8,0.1c-0.2,0.2-0.5,0.3-0.7,0.4l-10.8,3.1
		L1527.5,1684.7z"/>
	<path class="st3" d="M1878.4,1500.3c-3.5,0.7-7,1.3-10.6,2c-0.4,0-0.7,0-1.1-0.1c0.3-0.3,0.7-0.7,1-0.8c3.4-0.7,6.9-1.2,10.4-1.8
		L1878.4,1500.3z"/>
	<path class="st6" d="M1546.5,1682.3l7.7-2c0,0.3,0,0.5,0,0.8l-7.8,2.3L1546.5,1682.3z"/>
	<path class="st6" d="M2574.7,1595.3l-5.5-3.5l0,0l5.6,2.6L2574.7,1595.3z"/>
	<path class="st6" d="M1431.9,1591.8c-1.8,1.2-3.6,2.3-5.4,3.5l-0.1-0.8L1431.9,1591.8L1431.9,1591.8z"/>
	<path class="st7" d="M2460.8,1651c-1,0.2-1.9,0.5-2.9,0.6c-0.9,0-1.8,0-2.7,0c0.9-0.4,1.8-0.8,2.7-1.2c0.4-0.1,0.7-0.1,1.1-0.1
		l0.5,0.4l0.2-0.4h-0.1L2460.8,1651z"/>
	<path class="st5" d="M1542.1,1686.2l3.5-0.3l-3.4,1.3c-0.1,0-0.2,0-0.3,0C1542,1686.8,1542.1,1686.5,1542.1,1686.2z"/>
	<path class="st5" d="M2471.4,1684.3l3.8,0.9c0,0.3,0.1,0.6,0.1,0.9l-3.9-1.2C2471.4,1684.8,2471.4,1684.6,2471.4,1684.3z"/>
	<path class="st5" d="M2449.6,1681.1l3.3,0.8c0,0.3,0,0.6,0.1,0.8l-4.2-1.6L2449.6,1681.1z"/>
	<path class="st5" d="M2359,1557.2c0-0.5,0-1,0.1-1.5l1.9,1.3L2359,1557.2L2359,1557.2z"/>
	<path class="st3" d="M2459.3,1687.1c-0.1,0-0.2,0.1-0.3,0.1c-1.1-0.4-2.2-0.8-3.3-1.3l3.2,0.3
		C2459.1,1686.5,2459.2,1686.8,2459.3,1687.1z"/>
	<path class="st6" d="M1642.6,1556.2c-0.5,0.3-1,0.5-1.6,0.7c-0.1,0-0.3-0.3-0.4-0.5c0.4-0.3,0.9-0.5,1.3-0.8
		C1642,1555.7,1642.3,1555.9,1642.6,1556.2z"/>
	<path class="st6" d="M1523,1687.3c0,0.4,0,0.8,0,1.2l-0.8-0.4L1523,1687.3z"/>
	<path class="st5" d="M2477.3,1685.2v-0.7V1685.2z"/>
	<path class="st7" d="M2002,1533.7c5.7,0,11.4-0.2,17,0c11.6,0.4,23.2,0.9,34.7,1.7c11,0.8,21.9,1.9,32.8,3.3
		c11.2,1.5,22.4,3.1,33.4,5.4c14.8,3,29.5,6.4,44.1,10.3c15.2,4.1,29.9,9.5,44.2,16.1c12.3,5.5,23.9,12.4,34.6,20.7
		c9.5,7.6,17.6,16.3,22,27.9c4.5,11.8,3.3,23.3-2.9,34.3c-7.8,13.8-19.8,23.2-32.9,31.3c-21.6,13.3-45.1,21.6-69.4,28.4
		c-18.7,5.1-37.6,9.2-56.7,12.1c-9.3,1.5-18.7,2.5-28.1,3.5c-8.8,0.9-17.7,1.6-26.6,2.2c-7.9,0.5-15.7,0.9-23.6,1.1
		c-13.4,0.3-26.8,0.7-40.2,0.5c-11.5-0.2-23-0.8-34.4-1.7c-11-0.8-21.9-1.9-32.8-3.3c-11.2-1.5-22.3-3.1-33.4-5.4
		c-14.8-3.1-29.5-6.4-44.1-10.3c-15.2-4.1-29.9-9.5-44.2-16.1c-12.3-5.5-23.9-12.5-34.6-20.7c-9.5-7.5-17.6-16.4-22-27.9
		c-3.8-9.4-3.6-20,0.5-29.3c5.4-12.8,14.9-22,25.8-30c15.2-11.1,32.1-18.9,49.7-25.4c15.3-5.7,31-10.4,46.9-13.9
		c13.6-2.9,27.4-5.4,41.2-7.7c11.3-1.8,22.7-3.3,34.1-4.4c9.6-1,19.2-1.3,28.8-1.8c12-0.6,23.9-1,35.9-1.5L2002,1533.7z
		 M1999.7,1556v-0.9c-10.4,0.5-20.8,0.9-31.1,1.5c-7.7,0.4-15.4,0.7-23,1.8c-13.3,1.9-26.7,4-39.9,6.6
		c-22.2,4.3-43.7,11.1-63.8,21.7c-11.2,5.9-21.6,12.8-29.4,22.9c-8.5,11-11.3,23.3-4.6,36.4c4.5,9,11.5,15.6,19.5,21.3
		c11.6,8.3,24.3,14.2,37.6,19.2c17.5,6.4,35.6,11.2,54,14.2c11.7,2,23.4,3.3,35.2,4.5c10.5,1.1,21,2,31.6,2.1
		c15.1,0.1,30.3-0.4,45.4-1.1c9.9-0.5,19.8-1.4,29.5-2.8c13.4-1.9,26.7-4,39.9-6.9c22-4.9,43.3-12,62.9-23.5
		c10.3-6.1,19.9-13.2,26.4-23.5c5.6-8.9,7.4-18.5,3.7-28.7c-3.6-9.9-10.6-17.2-18.7-23.4c-13.3-10.2-28.3-17-44-22.5
		c-20.1-7-40.9-11.9-62.1-14.6c-13.7-1.7-27.3-3.3-41.1-4.3C2018.3,1555.5,2009,1556,1999.7,1556L1999.7,1556z"/>
	<path class="st6" d="M2436.2,1671.1c0.4,0.8,0.7,1.6,1,2.5c0,0.2-0.6,0.8-0.8,0.7c-0.8-0.3-1.5-0.6-2.3-1L2436.2,1671.1z"/>
	<path class="st7" d="M2471.4,1684.3c0,0.2,0,0.4,0,0.7c-1.5-0.4-3-0.8-4.5-1.2c-0.4-0.2-0.7-0.4-1-0.7c0.4-0.1,0.7-0.1,1.1,0
		C2468.4,1683.5,2469.9,1683.9,2471.4,1684.3z"/>
	<path class="st3" d="M2449.6,1681.1l-0.8,0.1l-3.1-0.9c1,0.1,2,0.2,2.9,0.3C2448.9,1680.8,2449.3,1680.9,2449.6,1681.1z"/>
	<path class="st3" d="M1556.5,1683c-0.6,0.3-1,0.4-1.3,0.5c-2.5,0.8-4.9,1.6-7.4,2.3c-0.4,0-0.8,0-1.2-0.1c0.2-0.2,0.3-0.5,0.5-0.6
		c2.8-0.8,5.7-1.7,8.5-2.4C1555.8,1682.6,1556,1682.8,1556.5,1683z"/>
	<path class="st7" d="M1554.3,1681.1c0-0.3,0-0.5,0-0.8l2.9-0.4L1554.3,1681.1z"/>
	<path class="st3" d="M1558.9,1656.9c-0.1,0.1-0.3,0.2-0.4,0.3c-0.2,0-0.3,0-0.4-0.1c0.1-0.1,0.2-0.3,0.4-0.3
		S1558.7,1656.8,1558.9,1656.9z"/>
	<path class="st6" d="M2546.7,1577.4c-4.2-2.1-8.5-4.2-12.7-6.3c-0.4-0.2-0.7-0.7-1-1.1c0.5,0,1-0.2,1.4,0c4.4,2.2,8.7,4.5,13.1,6.7
		L2546.7,1577.4z"/>
	<path class="st7" d="M2536,1574.3c-1.1,0-1.4,0.1-1.7,0c-0.8-0.4-1.6-1-2.4-1.4c0.3-0.1,0.6-0.4,0.9-0.3
		C2533.7,1572.9,2534.5,1573.4,2536,1574.3z"/>
	<path class="st5" d="M2546.7,1577.4l0.7-0.7l1.7,1.6l-0.1,0.1L2546.7,1577.4z"/>
	<path class="st5" d="M2564.8,1592.8l-0.6-1l1.1,0.4L2564.8,1592.8z"/>
	<path class="st7" d="M2568.7,1591.7l-1.2-0.9l0.1-0.1l1.1,0.6C2568.7,1591.4,2568.7,1591.5,2568.7,1591.7z"/>
	<path class="st7" d="M2566.4,1590.1l1.1,0.5l-0.1,0.1L2566.4,1590.1L2566.4,1590.1z"/>
	<path class="st7" d="M2566.4,1590.1l-0.8-0.2l0.1-0.2L2566.4,1590.1L2566.4,1590.1z"/>
	<path class="st5" d="M2549.1,1578.3l0.2,0.3L2549.1,1578.3L2549.1,1578.3z"/>
	<path class="st6" d="M2568.7,1591.7c0-0.1,0-0.3,0-0.4l0.5,0.6l0,0C2569,1591.8,2568.8,1591.8,2568.7,1591.7z"/>
	<polygon class="st5" points="2563.4,1591.6 2563.3,1591.4 2563.5,1591.5 	"/>
	<path class="st6" d="M1453.7,1576.7c4.3-2.3,8.7-4.5,13.1-6.7c0.4-0.2,0.9,0,1.4,0c-0.3,0.4-0.6,0.9-1,1.1
		c-4.2,2.1-8.5,4.2-12.7,6.3L1453.7,1576.7z"/>
	<path class="st7" d="M1469.6,1573.2c-1.2,0.4-2.2,0.8-3.2,1.1c-0.1,0-0.3-0.3-0.4-0.4c0.9-0.5,1.9-1,2.8-1.5
		C1468.8,1572.4,1469.1,1572.8,1469.6,1573.2z"/>
	<path class="st5" d="M1453.7,1576.7l0.7,0.7l-2.3,1l-0.1-0.1L1453.7,1576.7z"/>
	<path class="st5" d="M1435.8,1592.3l1.1-0.4c-0.2,0.3-0.4,0.6-0.6,1L1435.8,1592.3z"/>
	<path class="st7" d="M1433.7,1590.8l-1.2,0.9c0-0.1,0-0.3,0-0.4l1.1-0.6L1433.7,1590.8z"/>
	<path class="st7" d="M1434.7,1590.1l-1.1,0.6l-0.1-0.1L1434.7,1590.1L1434.7,1590.1z"/>
	<path class="st7" d="M1434.7,1590.1l0.7-0.4l0.1,0.2L1434.7,1590.1L1434.7,1590.1z"/>
	<path class="st5" d="M1452.1,1578.4l-0.3,0.2L1452.1,1578.4L1452.1,1578.4z"/>
	<polygon class="st5" points="1437.7,1591.6 1437.6,1591.4 1437.8,1591.5 	"/>
	<path class="st6" d="M1432.5,1591.3c0,0.1,0,0.3,0,0.4c-0.2,0.1-0.4,0.1-0.5,0.1l0,0L1432.5,1591.3z"/>
	<path class="st5" d="M1999.7,1556c9.3,0,18.6-0.5,27.9,0.1c13.7,1,27.4,2.6,41.1,4.3c21.2,2.7,42,7.5,62.1,14.6
		c15.7,5.5,30.7,12.3,44,22.5c8.1,6.2,15.1,13.5,18.7,23.4c3.7,10.2,1.9,19.8-3.7,28.7c-6.5,10.3-16,17.4-26.4,23.5
		c-19.6,11.5-40.9,18.6-62.9,23.5c-13.2,2.9-26.5,5-39.9,6.9c-9.8,1.4-19.7,2.3-29.5,2.8c-15.1,0.7-30.3,1.2-45.4,1.1
		c-10.5-0.1-21.1-1.1-31.6-2.1c-11.8-1.2-23.5-2.6-35.2-4.5c-18.4-3-36.5-7.7-54-14.2c-13.3-5-26.1-10.9-37.6-19.2
		c-8-5.7-15-12.4-19.5-21.3c-6.6-13.1-3.8-25.4,4.6-36.4c7.8-10.1,18.3-17,29.4-22.9c20.1-10.6,41.6-17.4,63.8-21.7
		c13.2-2.6,26.6-4.7,39.9-6.6c7.6-1.1,15.3-1.3,23-1.8c10.4-0.6,20.8-1,31.1-1.5L1999.7,1556z M2000.2,1681c9-0.6,19.7-1.3,30.5-2.1
		c12.6-0.9,25.2-3,37.4-6.2c16.6-4.3,32.9-9.4,46.3-20.8c5.8-4.9,10.2-10.9,9.9-19.1c-0.3-7.3-4.4-12.8-9.5-17.3
		c-8.7-7.6-19.1-12.3-30-16.1c-13.2-4.7-26.9-7.9-40.8-9.4c-12.8-1.4-25.6-2.5-38.4-3.2c-7.6-0.4-15.2,0.2-22.8,0.5
		c-6.5,0.3-13,0.2-19.4,1.2c-13,2.1-26.1,4.2-38.9,7.3c-15.1,3.7-29.7,9.2-41.8,19.5c-5.7,4.9-10,10.8-9.8,18.8
		c0.2,7.5,4.4,13,9.7,17.5c8.8,7.6,19.1,12.3,30,16.1c18.4,6.4,37.4,9.7,56.7,11.5C1978.9,1680.4,1988.7,1680.5,2000.2,1681
		L2000.2,1681z"/>
	<path class="st6" d="M2540.5,1583.8c-0.4,0.2-0.6,0.4-0.8,0.5s-0.3-0.3-0.5-0.4c0.2-0.2,0.4-0.3,0.6-0.4
		C2540,1583.4,2540.2,1583.6,2540.5,1583.8z"/>
	<path class="st6" d="M1462.1,1584c-0.4,0.2-0.6,0.3-0.8,0.3s-0.4-0.3-0.5-0.5c0.2-0.1,0.4-0.3,0.6-0.3S1461.7,1583.7,1462.1,1584z"
		/>
	<path class="st6" d="M2000.2,1681c-11.5-0.6-21.3-0.7-30.9-1.6c-19.3-1.8-38.3-5.1-56.7-11.5c-10.9-3.8-21.3-8.5-30-16.1
		c-5.3-4.6-9.4-10.1-9.7-17.5c-0.2-8.1,4.1-14,9.8-18.8c12.1-10.4,26.7-15.8,41.8-19.5c12.8-3.2,25.9-5.3,38.9-7.3
		c6.4-1,12.9-1,19.4-1.2c7.6-0.3,15.3-0.9,22.8-0.5c12.8,0.7,25.6,1.8,38.4,3.2c13.9,1.6,27.6,4.8,40.8,9.4
		c10.9,3.8,21.3,8.5,30,16.1c5.2,4.5,9.3,10,9.5,17.3c0.3,8.2-4.1,14.1-9.9,19.1c-13.4,11.4-29.7,16.5-46.3,20.8
		c-12.3,3.2-24.8,5.3-37.4,6.2C2019.9,1679.8,2009.2,1680.4,2000.2,1681z"/>
	<rect x="2391.7" y="1671" class="st4" width="50.9" height="16.8"/>
	<rect x="1604.2" y="1554.1" class="st4" width="4.5" height="6.1"/>
	<rect x="2321.2" y="1553.9" class="st4" width="6.1" height="7"/>
	<ellipse class="st4" cx="1836" cy="1500" rx="11" ry="6"/>
	<path class="st8" d="M2498.1,1071.5c0.6,0.2,1.2,0.4,1.8,0.7c21,12.8,43.4,22.4,66.8,30.1c21.4,7.1,43.3,12.5,65.2,17.7
		c18.2,4.3,36.4,8.7,54.9,11.8c23.9,4,48.1,7,72.2,9.9c20.8,2.5,41.6,4.7,62.6,5.9c20.2,1.2,40.4,1.3,60.6,1.3
		c15.4,0,30.8-1,46.1-1.5c1.4,0,2.4,0.1,3.1,1.6c8.8,19.6,21,37.3,33.2,54.9c8.2,11.9,16,24.1,24.1,36.1
		c12.5,18.7,26.9,35.9,41.4,53c13,15.3,26.3,30.4,40.9,44.4c25,23.9,51.1,46.5,80.9,64.2c18.2,10.8,37,20.5,55.5,30.6
		c1.9,1,4,1.7,6.8,2.9c-2.7,0.8-4.7,1.5-6.7,2.1l-122.8,34.7c-10,2.8-20,5.6-30,8.5c-21.3,6.1-42.4,12.4-63.7,18.4
		c-19.7,5.6-39.5,10.9-59.3,16.3c-42.2,11.5-84.4,23-126.6,34.5c-17.5,4.8-35.1,9.5-52.6,14.3c-2.5,0.8-5.2,0.4-7.3-1.1
		c-16.5-10.4-30.6-23.6-44.7-37c-19.4-18.3-35.6-39.3-51.9-60.2c-11.1-14.1-21.1-28.9-30.1-44.4c-0.5-0.7-0.9-1.4-1.5-2
		c-0.9-1.8-1.8-3.6-2.8-5.4c-8.1-14.3-16.5-28.5-24.3-43c-4.8-9-8.9-18.3-13-27.6c-6.7-15.3-13.2-30.6-19.5-46
		c-4.6-11.3-8.9-22.7-13.1-34.2s-8.3-22.8-11.8-34.4c-5.6-18.3-10.6-36.8-15.8-55.2c-2.5-8.7-5.1-17.4-7.1-26.2
		c-2.4-11.1-4.3-22.3-6.3-33.4C2500.5,1099.8,2498.4,1085.7,2498.1,1071.5z"/>
	<path class="st9" d="M2498.1,1071.5c0.4,14.2,2.5,28.3,5,42.3c2,11.2,3.9,22.3,6.3,33.4c2,8.8,4.6,17.5,7.1,26.2
		c5.2,18.4,10.3,36.8,15.8,55.2c3.5,11.6,7.7,23,11.8,34.4s8.5,22.9,13.1,34.2c6.3,15.4,12.8,30.7,19.5,46c4.1,9.3,8.2,18.7,13,27.6
		c7.8,14.5,16.2,28.7,24.3,43c1,1.8,1.9,3.6,2.8,5.4c-6.2,0.7-12.3,1.4-18.5,2.1c-15.4,1.6-30.8,3.2-46.2,4.8
		c-13.5,1.4-26.9,2.8-40.4,4.1l-46.4,4.8l-45.1,4.6l-57.5,6c-15,1.6-30,3.1-45.1,4.6c-13.9,1.4-27.9,2.6-41.8,3.8
		c-2.2,0.2-4.5,0-6.6,0c5.6-2.9,11.5-5.8,17.3-8.9c19.2-10,36.1-23.3,52.3-37.4c22.2-19.3,40.9-41.7,56.7-66.3
		c11.5-17.8,22.9-35.8,32-55c11.5-24,21.8-48.5,30.9-73.5c5.9-16.6,11.9-33.1,17-50c4.8-16.1,8.6-32.6,12.5-49
		c3.2-13.1,5.9-26.4,8.9-39.6C2497.3,1073.3,2497.6,1072.4,2498.1,1071.5z"/>
	<path class="st9" d="M1706.8,1100.1l0.4-1.8h0.7c0.8,4.1,1.6,8.2,2.6,12.2c3.4,14.8,6.9,29.5,10.4,44.3s6.8,29.6,10.9,44.2
		c7.9,28.2,16.4,56.2,27.1,83.5c6.6,16.7,13.4,33.2,20.8,49.5c10.1,21.9,23,42.5,38.4,61c2.8,3.4,5.7,6.7,8.8,10.2
		c-2.7,0-5.2,0.2-7.6,0c-22.2-1.5-44.3-3.1-66.5-4.7l-66.5-4.7c-19.6-1.4-39.2-2.8-58.9-4.1c-2.9-0.2-5-1.1-6.4-3.7
		c-2.4-4.4-5-8.8-7.6-13.2c0.1-0.4,0.2-0.8,0.3-1.1c5.4-10.4,11.2-20.7,16.1-31.3c8.3-18.2,16.5-36.5,24-55.1
		c8.5-21,16.9-42.1,24.1-63.6c7.3-21.8,13.7-44,19.4-66.3c4.1-15.9,6.5-32.3,9.5-48.4C1707.3,1104.6,1706.8,1102.3,1706.8,1100.1z"
		/>
	<path class="st8" d="M1706.8,1100.1c0,2.2,0.5,4.6,0.1,6.7c-3,16.2-5.4,32.5-9.5,48.4c-5.7,22.3-12.1,44.5-19.4,66.3
		c-7.2,21.5-15.6,42.6-24.1,63.6c-7.5,18.6-15.7,36.9-24,55.1c-4.9,10.7-10.7,20.9-16.1,31.3c-0.1,0.4-0.2,0.7-0.3,1.1
		c-3.3,4.8-6.6,9.7-10,14.4c-6.8,9.1-13.7,18.1-20.5,27.2c-1.6,2.1-3.3,2.6-6,2c-31-6.8-62-13.5-93.3-20.2c0.4-0.6,0.8-1.1,1.3-1.6
		c14.3-12.6,26-27.4,36.9-42.8c15.1-21.4,28.2-44,38.1-68.4c3.1-7.6,6-15.3,8.7-23.1c0.8-2.5,2.5-4.6,4.7-6
		c14.3-9.2,27.8-19.7,40.4-31.3c14.9-13.7,29.1-28,41.4-44c10.1-13.2,20.7-26.2,29.9-40C1693.2,1126.4,1699.6,1113,1706.8,1100.1z"
		/>
	<path class="st8" d="M1296,1434.9c-1.4,1.3-2.9,2.6-4.2,4c-10.1,11.6-20,23.5-30.4,34.9c-7.3,8-15.1,15.6-22.7,23.3
		c-1,0.9-2.3,1.4-3.7,1.3c-17.1-1.3-34.1-2.8-51.2-4.2c-11.4-1-22.7-2-34.1-3c-22.7-2-45.3-4-67.9-6.1c-20-1.8-40.1-3.5-60.1-5.3
		c-21.9-1.9-43.8-4-65.7-5.9c-13.5-1.2-27-2.3-40.5-3.5c-17.4-1.5-34.9-3.1-52.3-4.6c-0.8-0.1-1.5-0.5-2-1.1
		c0.6-0.3,1.1-0.6,1.7-0.9c29.2-20.2,55.4-44,80.5-69c14.3-14.3,28.5-28.7,40.7-45c15.1-20.2,29.5-40.8,41.8-62.9
		c11.1-20,20.8-40.9,28.8-62.3c0.7-1.8,1.7-2.1,3.3-2.1c23.8-0.3,47.6-1.9,70.9-6.9c22.2-4.8,44.2-10.7,66-16.9
		c30-8.6,58.9-20.3,87.5-32.6c32.6-14.1,64.4-29.7,94.5-48.7c16.1-10.2,32.2-20.6,47.8-31.5c8.8-6.2,16.7-13.6,25-20.4
		c0.3-0.2,0.6-0.4,1.4-1.1v4.2c-0.3,0.4-1,0.7-1,1.1c-1,5.4-1.8,10.8-2.9,16.2c-3.7,18.7-6.9,37.5-11.3,56.1
		c-4.5,19.1-10.1,38-15.5,56.9c-3.5,12.1-7,24.2-11.3,36.1c-6,16.5-12.6,32.8-19.4,48.9c-5.3,12.6-10.8,25.1-17.2,37.1
		s-13.8,23.8-21.1,35.3c-8.4,13.2-17.2,26.2-26.2,39.1c-6.7,9.6-13.8,18.8-20.7,28.2L1296,1434.9z M1242.9,1489.3
		c-0.1-0.1-0.1-0.3-0.2-0.3c-0.2,0-0.3,0.1-0.4,0.2l0.3,0.5L1242.9,1489.3z"/>
	<path class="st9" d="M1296,1434.9l8.4-11.4c6.9-9.4,14.1-18.6,20.7-28.2c8.9-12.9,17.7-25.9,26.2-39.1
		c7.4-11.6,14.7-23.2,21.1-35.3s11.9-24.6,17.2-37.1c6.8-16.2,13.4-32.4,19.4-48.9c4.3-11.8,7.9-23.9,11.3-36.1
		c5.4-18.9,11-37.8,15.5-56.9c4.4-18.6,7.6-37.4,11.3-56.1c1-5.4,1.9-10.8,2.9-16.2c0.1-0.4,0.7-0.7,1-1.1c0.7,4.9,1.7,9.7,2.2,14.6
		c3.1,30.8,7.9,61.4,14.3,91.7c5.8,26.7,12.2,53.2,21.2,79.1c8.6,24.9,18.1,49.4,31.1,72.4c16.1,28.6,33.8,56.1,55.8,80.7
		c5.9,6.6,13,12.1,19.9,17.7c7.6,6.3,15.4,12.1,23.6,18.5c-2.5-0.1-4.7-0.3-6.8-0.3c-13.4-0.3-26.8-0.5-40.2-0.8
		c-16.1-0.4-32.2-0.8-48.3-1.2l-42.1-1.1l-46-1.2l-43.2-1.1l-44.3-1.1c-14.9-0.4-29.7-0.7-44.6-1.1
		C1301,1435.3,1298.5,1435,1296,1434.9z"/>
	<path class="st9" d="M1242.9,1489.3l-0.3,0.3l-0.3-0.5c0.1-0.1,0.3-0.2,0.4-0.2C1242.7,1489,1242.8,1489.2,1242.9,1489.3z"/>
	<path class="st1" d="M954.6,1462.9v15.7H939v-39.1h7.7v23.5L954.6,1462.9L954.6,1462.9z"/>
	<path class="st1" d="M2834.6,1533.3c0,5.2,0,10.4,0,15.7H2819v-23.5l0,0h7.8v7.8h8L2834.6,1533.3z"/>
	<path class="st1" d="M2422.2,1396.9v15.5h-7.8v-15.5H2422.2z"/>
	<path class="st1" d="M2977.7,1494.7h-7.8l0,0v-7.9h7.8L2977.7,1494.7z"/>
	<path class="st1" d="M1088.7,1474v15.5h-23.4V1474v0.1h7.7v-39h7.8v38.9L1088.7,1474L1088.7,1474z"/>
	<path class="st1" d="M2414.9,1428.3h7.7v-15.5h7.9v15.5h7.9v-0.1v15.5H2415v-15.5L2414.9,1428.3z"/>
	<path class="st1" d="M2946.4,1502.6h7.7v-23.3h7.9v15.5h7.9l0,0v15.5h-23.4v-7.7L2946.4,1502.6z"/>
	<path class="st1" d="M1096.5,1458.4v15.6h-7.8l0,0v-15.6L1096.5,1458.4L1096.5,1458.4z"/>
	<path class="st1" d="M2811.1,1509.9h7.8v15.7l0,0h-7.8V1509.9z"/>
	<path class="st1" d="M2834.6,1533.3v-15.5h7.6v15.4L2834.6,1533.3L2834.6,1533.3z"/>
	<path class="st1" d="M2407.1,1420.4h-7.7v-7.6h7.6L2407.1,1420.4L2407.1,1420.4z"/>
	<path class="st1" d="M2407.1,1420.4h7.8v7.8v-0.1h-7.8L2407.1,1420.4L2407.1,1420.4z"/>
	<path class="st1" d="M2438.4,1428.3v-7.7h7.6v7.6L2438.4,1428.3L2438.4,1428.3z"/>
	<path class="st1" d="M1096.6,1458.4v-7.7h7.6v7.6L1096.6,1458.4L1096.6,1458.4z"/>
	<path class="st1" d="M954.6,1462.9v-7.7h7.6v7.6L954.6,1462.9L954.6,1462.9z"/>
	<path class="st1" d="M1057.4,1466.2h-7.7v-7.6h7.6L1057.4,1466.2L1057.4,1466.2z"/>
	<path class="st1" d="M1057.4,1466.3h7.8v7.8l0,0h-7.8V1466.3z"/>
	<path class="st1" d="M2946.4,1502.5h-7.7v-7.6h7.6L2946.4,1502.5L2946.4,1502.5z"/>
	<path class="st1" d="M2811.2,1509.8h-7.7v-7.6h7.6L2811.2,1509.8L2811.2,1509.8z"/>
	<path class="st1" d="M3925.9,996.6h-10.4v10.6h-10.7v20.7h-10.2v20.7h-10.5v10.5h-10v10.1h20.3v10.5H3884v10.5h-10.3v10.2h-10.4
		v10.5h-9.9v20.3h10.1v-9.8h10.5v10.3h9.8v10.3h-10.1v10.3h-10.5v10.6H3853v10.1h-10.3v10.3h-10.3v10.4h21v-10h10.3v10h9.9v10.5
		h-10.3v10.5H3853v10.1h-10.3v10.3h-10.3v20.8l10.4,0.1V1246h10v10h-10.1v10.4h-10.3c-6.4,29.2,4.9,37,34.3,35.1
		c47.2-3.1,94.8-0.8,142.3-0.8V1287h-10.7v-20.7h-10.2V1256h-10v-10.5h9.8v-10.1h-10.3v-20.9h-10.2v-10.3h-10.1v-10h10v10.1h20.5
		v-21.1h-10.4v-20.7h-9.8v-10.3h9.8v-10.5h-10.2v-10.2H3957V1121h-10.2v-10.3h-10.2v-10h10v10.1h20.5v-21.1h-10.3v-10.3h-10.1v-31
		h-10.5v-31.2h-10.3L3925.9,996.6z M3957,1173.2h10.1v9.9h-10V1173H3947v-10h10L3957,1173.2z"/>
	<path class="st1" d="M3770.8,861h-11.5v23.4h-11.9v11.5h-11.3v23h-11.7v11.7h-11.7V942h-11.3v11.5h-11.1v23.1h11.2v-11.2h11.1v11.1
		h-11.3v34.9h-11.7v11.7h-11.5v11.3h-11v22.6h11.5v-10.9h11.3v11.4h11.1v11.7h-11.5v23h-11.3v11.5h-11.7v11.7h-11.5v22.8h-11v11.7
		h10.8v34.8h-11.3v11.3h-11.5v11.5h-11.4v23.1h11.8v11.9h11v11.3h-11.4v11.5h-11.4c0,29.8-0.1,59.7,0.2,89.5c0,1.4,2.5,3.9,3.9,3.9
		c81.9,0.2,163.7,0.2,245.6-0.4c1.4,0,2.7-7.9,4-12.2h-11.8v-34.8h-11v-11.5h10.9v-23.3h-11.3v-11.3h-11.5V1242h-11v-22.6h11.2v10.9
		h22.6v-23.1h-11.3v-11.3h-11.5v-11.7h-11.7v-46.2h-11.3v-11.5h-11.4v-23h-11.3v-11.1h11.1v11.3h22.7v-23.5h-11.3v-11.3h-11.5v-23.3
		h-11V1023h11.2v11.4h11.7v11h10.9v-22.9h-10.8V1011h10.8v-11.5h-11.1v-23.1h-11.7v-11.7h-11.7v-34.6h-11.3v-23.1h-11.5V861z"/>
	<path class="st1" d="M131.1,987.8v9.2h9.1v9.2h9v9.2h9.2v18.4h-8.9v-8.8h-8.9v18.1h8.9v18.7l0.1-0.1h-9v9.3h9l-0.1-0.1v9h9.3v-9
		l-0.1,0.1h9v27.6H159v9h18v9.4h9.4v9.4h9.2v18.3h9.1v18.8h-9v-9.2h-9.2v-9.3h-9.2v-9h-8.9v9h9v9.3h9.2v9.2h9.2v27.6h9.2v9.2h9.1
		v18.3h9.4v-8.9h9.2v-18.3h9.2v-9.4h9.2v-18.3H233v-18.6h8.8v-9.2h9v-9.2h9.5V1108h9v-8.9h-8.9v9h-9v-36.9h8.8v-9h9.2v-18.6h9.4
		v-36.9h9v8.8h9.4v27.9h9.2v9h9.2v18.6h9.4v9.2h8.9v18.4h-8.6v9.3h8.9v18.3h9.2v9.4h9.2v18.3h-17.9v9.4h8.8v9.2h9v18.4h9.4v9.4h9.2
		v18.3h-17.9v18.6h8.9v9.2h9.1v27.6h9.4v-18.1h9.2v-18.2h9.2v8.8h9.4v18.4h18.1v-8.9h-8.6v-18.5h8.7v-18.4h9.4v-27.7h9.2v8.7h9.2
		v18.6h9.4v18.5h9v27.7h-8.6v9.4h8.8v18.3h9.1v9.5H-7.5v-138.7h9v-9.2h-9v-64.7h9.2v-9.3h9v-8.9H1.8v9h-9.3v-46.3h9.1v-9.1h9.4v-9.4
		h9v-8.9H11v9H2v-36.9h8.9v-9.3H20v-9h-8.7v-18.6h18.2v-9.4l-0.1,0.1h9v-9.3h-9l0.1,0.1v-9.2h9.1v-9.4h9.2v-18.3H57v-18.6h9.3V831h9
		v27.3h9.3v18.6H94v9.2h9v18.4h9.3v9.4h9.2v9h9.1v18.6H122v9.4h8.8v18.3h18.3v18.8H131v-9h-8.9v8.9L131.1,987.8z M186.5,1200.4v9
		h8.9v-8.9h-9v-9.2H168v-9h-8.9v8.9h9v9.2H186.5z M103.5,978.4h8.8v-8.8h-8.8V978.4z"/>
	<path class="st1" d="M149.5,1061.9h9.2v9.2l0.1-0.1h-9.3l0.1,0.1L149.5,1061.9L149.5,1061.9z"/>
	<path class="st1" d="M29.5,932.4h-9v-9.2h9l-0.1-0.1L29.5,932.4L29.5,932.4z"/>
	<path class="st1" d="M666.7,1057.3h10.4v10.6h10.7v20.7H698v20.7h10.5v10.5h9.9v10.2h-20.3v10.5h10.3v10.5h10.3v10.1h10.3v10.5h9.9
		v20.3H729v-9.8h-10.5v10.3h-9.8v10.3h10.1v10.3h10.5v10.5h10.3v10.2h10.3v10.3h10.3v10.4h-21v-10h-10.3v10H719v10.5h10.3v10.5h10.3
		v10.1H750v10.3h10.3v20.8l-10.4,0.1v-10.1h-10v10H750v10.4h10.3c6.3,29.2-4.8,37-34.3,35.1c-47.2-3.1-94.8-0.8-142.3-0.8v-13.8
		h10.7V1327h10.2v-10.3h10v-10.5h-9.8V1296h10.3v-20.9h10.2v-10.3h10.2v-10h-10v10.2h-20.6v-21.1h10.4v-20.7h9.8v-10.3h-9.8v-10.5
		h10.2v-10.1h10.3v-10.5h10.2v-10.3H656v-10h-10v10.1h-20.5v-21.1h10.3v-10.3H646v-31.1h10.5v-31.2h10.3L666.7,1057.3z
		 M635.6,1233.8h-10.1v10h10v-10.1h10.2v-10h-10L635.6,1233.8z"/>
	<path class="st1" d="M3526.7,973.3h11.5v23.4h11.9v11.5h11.3v23h11.7v11.7h11.7v11.5h11.3v11.5h11.1v23.1h-11.2v-11.3h-11.1v11.1
		h11.3v34.9h11.7v11.7h11.5v11.3h11v22.6h-11.6v-10.9h-11.3v11.4h-11.1v11.7h11.5v23h11.3v11.5h11.7v11.7h11.5v22.8h11v11.7h-10.8
		v34.8h11.3v11.3h11.5v11.5h11.4v23.1h-11.8v11.9h-11v11.3h11.4v11.5h11.4c0,29.8,0.1,59.7-0.2,89.5c0,1.4-2.5,3.9-3.9,3.9
		c-81.9,0.2-163.7,0.2-245.6-0.4c-1.4,0-2.7-7.9-4-12.2h11.8v-34.8h11v-11.5h-10.9v-23.3h11.3v-11.3h11.5v-23.3h11v-22.6h-11.2v10.9
		h-22.6v-23.1h11.3v-11.3h11.5v-11.7h11.7v-46.2h11.3v-11.5h11.3v-23h11.3v-11.1h-11.1v11.2h-22.8v-23.5h11.3v-11.3h11.5V1158h11
		v-22.6h-11.1v11.4h-11.7v11h-10.9v-22.9h10.7v-11.5h-10.8v-11.5h11.1v-23.1h11.7v-11.7h11.7v-34.6h11.3v-23.1h11.5L3526.7,973.3z"
		/>
	<path class="st1" d="M3283.4,1027.9h10.4v10.6h10.7v20.7h10.2v20.7h10.5v10.5h9.9v10.2h-20.2v10.5h10.3v10.5h10.3v10.2h10.4v10.5
		h9.9v20.3h-10v-9.8h-10.5v10.3h-9.8v10.3h10.1v10.3h10.5v10.5h10.3v10.2h10.3v10.3h10.3v10.4h-21v-10h-10.3v10h-9.9v10.5h10.3v10.5
		h10.3v10.1h10.3v10.3h10.3v20.8l-10.4,0.1v-10.1h-10v10h10.1v10.4h10.3c6.3,29.2-4.9,37-34.3,35.1c-47.2-3.1-94.8-0.8-142.3-0.8
		v-13.7h10.7v-20.7h10.2v-10.3h10v-10.5h-9.8v-10.2h10.3v-20.9h10.2v-10.3h10.1v-10h-10v10.1h-20.5v-21.1h10.4v-20.7h9.8v-10.3h-9.8
		v-10.5h10.1v-10.1h10.3v-10.5h10.2V1142h10.1v-10h-10v10.1h-20.5v-21.1h10.4v-10.3h10.1v-31h10.5v-31.2h10.3L3283.4,1027.9z
		 M3252.3,1204.5h-10.1v10h10v-10.1h10.1v-10h-10L3252.3,1204.5z"/>
</g>
<g id="Layer_3">
	<rect x="-24.6" y="-67.2" class="st10" width="4144.8" height="617.8"/>
</g>
</svg>
