<svg xmlns="http://www.w3.org/2000/svg" viewBox="0 0 6654.11 1846.59"><defs><style>.cls-1{fill:#ccf2ff;}.cls-2{fill:#335767;}.cls-3{fill:#538da6;}.cls-4{fill:#345868;}.cls-5{fill:#816c61;}.cls-6{fill:#a68f7e;}.cls-7{fill:#538ca5;}.cls-8{fill:#75a3b7;}.cls-9{fill:#97bac9;}.cls-10{fill:#b6cfd9;}.cls-11{fill:#cbf2ff;}</style></defs><title>hero-no-logo</title><g id="Layer_1" data-name="Layer 1"><path class="cls-1" d="M836.36,1205.61q0-324.37.21-648.74c0-1.71,3.16-4.92,4.84-4.92q1095.72-.33,2191.44,0c1.68,0,4.83,3.21,4.84,4.92q.33,330.53.21,661a44.49,44.49,0,0,1-6.15-.61q-39.8-9.25-79.56-18.64l-3.77-.86-1.81-.46-2.8-.61-1.8-.49-2.79-.61-1.8-.47c-5.28-1.55-10.55-3.14-15.84-4.64-137.93-39.14-277.14-71.27-421.43-78.39-137.89-6.79-275-2.42-410.48,25.16-83.67,17-166.57,37.65-250.11,55.35-77,16.31-153.83,33.74-233.21,36-59.79,1.7-117.82-8.77-175.63-21.48-80-17.59-160.56-30.81-242.76-34.2C1069.13,1168.05,952.69,1185.81,836.36,1205.61Z" transform="translate(1373.22 87.19)"/><path class="cls-2" d="M2952.19,1198.66q39.78,9.33,79.56,18.64a44.49,44.49,0,0,0,6.15.61q0,268.24-.19,536.51c0,1.49-2.87,4.29-4.4,4.29q-1096.18.27-2192.36,0c-1.53,0-4.4-2.8-4.4-4.29q-.3-273.29-.19-546.57c27.1-2.71,54.15-7,81.31-7.82,65.84-1.93,131.92-5.74,197.55-2.3,83.45,4.38,164.44,25.59,244.7,47.6,75.53,20.72,151,43,229.78,45.51,67.1,2.14,134.48.28,201.58-2.89,78.61-3.72,154.65-22.46,230.63-41.85,105.67-27,211.59-53.28,318.27-76,99.1-21.13,200.39-24.2,301.22-16.36,74.46,5.79,148.42,18.08,222.5,28.15,24.66,3.35,49,8.8,73.52,13.29l1.8.47,2.79.61,1.8.49,2.8.61,1.81.46Z" transform="translate(1373.22 87.19)"/><path class="cls-3" d="M2937.42,1195.16c-24.5-4.49-48.86-9.94-73.52-13.29-74.08-10.07-148-22.36-222.5-28.15-100.83-7.84-202.12-4.77-301.22,16.36-106.68,22.74-212.6,49.06-318.27,76-76,19.39-152,38.13-230.63,41.85-67.1,3.17-134.48,5-201.58,2.89-78.82-2.5-154.25-24.79-229.78-45.51-80.26-22-161.25-43.22-244.7-47.6-65.63-3.44-131.71.37-197.55,2.3-27.16.8-54.21,5.11-81.31,7.82v-2.24c116.33-19.8,232.77-37.56,351.6-32.65,82.2,3.39,162.75,16.61,242.76,34.2,57.81,12.71,115.84,23.18,175.63,21.48,79.38-2.26,156.23-19.69,233.21-36,83.54-17.7,166.44-38.32,250.11-55.35,135.46-27.58,272.59-32,410.48-25.16,144.29,7.12,283.5,39.25,421.43,78.39C2926.87,1192,2932.14,1193.61,2937.42,1195.16Z" transform="translate(1373.22 87.19)"/><path class="cls-3" d="M2952.19,1198.66l-3.77-.86Z" transform="translate(1373.22 87.19)"/><path class="cls-3" d="M2942,1196.24l-2.79-.61Z" transform="translate(1373.22 87.19)"/><path class="cls-3" d="M2946.61,1197.34l-2.8-.61Z" transform="translate(1373.22 87.19)"/><path class="cls-1" d="M2962,1205.61q0-324.37.22-648.74c0-1.71,3.32-4.92,5.1-4.92q1154.1-.33,2308.22,0c1.77,0,5.09,3.21,5.09,4.92q.34,330.53.22,661a49.39,49.39,0,0,1-6.47-.61q-41.92-9.25-83.8-18.64l-4-.86-1.91-.46-2.94-.61-1.9-.49-2.94-.61-1.9-.47c-5.56-1.55-11.11-3.14-16.68-4.64-145.28-39.14-291.91-71.27-443.89-78.39-145.23-6.79-289.68-2.42-432.35,25.16-88.13,17-175.45,37.65-263.44,55.35-81.09,16.31-162,33.74-245.64,36-63,1.7-124.1-8.77-185-21.48-84.27-17.59-169.11-30.81-255.7-34.2C3207.21,1168.05,3084.56,1185.81,2962,1205.61Z" transform="translate(1373.22 87.19)"/><path class="cls-2" d="M5190.62,1198.66q41.9,9.33,83.8,18.64a49.39,49.39,0,0,0,6.47.61q0,268.24-.2,536.51c0,1.49-3,4.29-4.63,4.29q-1154.6.27-2309.19,0c-1.61,0-4.63-2.8-4.63-4.29q-.31-273.29-.2-546.57c28.54-2.71,57-7,85.64-7.82,69.35-1.93,139-5.74,208.08-2.3,87.89,4.38,173.2,25.59,257.74,47.6,79.55,20.72,159,43,242,45.51,70.68,2.14,141.65.28,212.32-2.89,82.8-3.72,162.9-22.46,242.93-41.85,111.29-27,222.87-53.28,335.23-76,104.38-21.13,211.07-24.2,317.26-16.36,78.44,5.79,156.33,18.08,234.37,28.15,26,3.35,51.63,8.8,77.43,13.29l1.9.47,2.94.61,1.9.49,2.94.61,1.91.46Z" transform="translate(1373.22 87.19)"/><path class="cls-3" d="M5175.06,1195.16c-25.8-4.49-51.46-9.94-77.43-13.29-78-10.07-155.93-22.36-234.37-28.15-106.19-7.84-212.88-4.77-317.26,16.36-112.36,22.74-223.94,49.06-335.23,76-80,19.39-160.13,38.13-242.93,41.85-70.67,3.17-141.64,5-212.32,2.89-83-2.5-162.47-24.79-242-45.51-84.54-22-169.85-43.22-257.74-47.6-69.13-3.44-138.73.37-208.08,2.3-28.61.8-57.1,5.11-85.64,7.82v-2.24c122.52-19.8,245.17-37.56,370.33-32.65,86.59,3.39,171.43,16.61,255.7,34.2,60.89,12.71,122,23.18,185,21.48,83.61-2.26,164.55-19.69,245.64-36,88-17.7,175.31-38.32,263.44-55.35,142.67-27.58,287.12-32,432.35-25.16,152,7.12,298.61,39.25,443.89,78.39C5164,1192,5169.5,1193.61,5175.06,1195.16Z" transform="translate(1373.22 87.19)"/><path class="cls-3" d="M5190.62,1198.66l-4-.86Z" transform="translate(1373.22 87.19)"/><path class="cls-3" d="M5179.9,1196.24l-2.94-.61Z" transform="translate(1373.22 87.19)"/><path class="cls-3" d="M5184.74,1197.34l-2.94-.61Z" transform="translate(1373.22 87.19)"/><path class="cls-1" d="M1321.28,1205.91q0-324.51-.26-649c0-1.71-3.87-4.92-5.93-4.92Q-26,551.62-1367,552c-2.06,0-5.92,3.21-5.92,4.93q-.4,330.66-.26,661.33a68.89,68.89,0,0,0,7.53-.6q48.7-9.27,97.37-18.65l4.61-.86,2.22-.47,3.42-.6,2.21-.49,3.41-.61,2.21-.47c6.46-1.55,12.9-3.14,19.38-4.65,168.82-39.16,339.2-71.3,515.8-78.42,168.76-6.8,336.6-2.42,502.39,25.17,102.41,17,203.87,37.67,306.12,55.37,94.22,16.32,188.27,33.76,285.43,36,73.17,1.7,144.19-8.77,215-21.49,97.92-17.6,196.51-30.82,297.12-34.21C1036.39,1168.34,1178.9,1186.1,1321.28,1205.91Z" transform="translate(1373.22 87.19)"/><path class="cls-2" d="M-1268.32,1199q-48.67,9.35-97.37,18.65a68.89,68.89,0,0,1-7.53.6q0,268.38.24,536.76c0,1.5,3.51,4.29,5.38,4.29q1341.63.29,2683.26,0c1.87,0,5.38-2.79,5.38-4.29q.38-273.4.24-546.82c-33.17-2.71-66.28-7-99.51-7.82-80.59-1.93-161.47-5.75-241.8-2.3-102.13,4.38-201.26,25.6-299.49,47.62-92.44,20.73-184.76,43-281.23,45.53-82.12,2.14-164.58.28-246.71-2.89-96.21-3.72-189.29-22.47-282.28-41.87-129.32-27-259-53.3-389.53-76.06-121.29-21.14-245.27-24.21-368.66-16.36-91.14,5.79-181.66,18.08-272.33,28.16-30.19,3.35-60,8.8-90,13.3l-2.21.47-3.41.61-2.21.49-3.42.6-2.22.47Z" transform="translate(1373.22 87.19)"/><path class="cls-3" d="M-1250.24,1195.46c30-4.5,59.79-10,90-13.3,90.67-10.08,181.19-22.37,272.33-28.16,123.39-7.85,247.37-4.78,368.66,16.36,130.56,22.76,260.21,49.09,389.53,76.06,93,19.4,186.07,38.15,282.28,41.87,82.13,3.17,164.59,5,246.71,2.89,96.47-2.5,188.79-24.8,281.23-45.53,98.23-22,197.36-43.24,299.49-47.62,80.33-3.45,161.21.37,241.8,2.3,33.23.8,66.34,5.11,99.51,7.82v-2.24c-142.38-19.81-284.89-37.57-430.33-32.66-100.61,3.39-199.2,16.61-297.12,34.21-70.76,12.72-141.78,23.19-215,21.49-97.16-2.26-191.21-19.7-285.43-36-102.25-17.7-203.71-38.34-306.12-55.37-165.79-27.59-333.63-32-502.39-25.17-176.6,7.12-347,39.26-515.8,78.42C-1237.34,1192.32-1243.78,1193.91-1250.24,1195.46Z" transform="translate(1373.22 87.19)"/><path class="cls-3" d="M-1268.32,1199l4.61-.86Z" transform="translate(1373.22 87.19)"/><path class="cls-3" d="M-1255.86,1196.54l3.41-.61Z" transform="translate(1373.22 87.19)"/><path class="cls-3" d="M-1261.49,1197.63l3.42-.6Z" transform="translate(1373.22 87.19)"/><rect class="cls-4" x="3764.94" y="1758.18" width="50.92" height="16.77"/><rect class="cls-4" x="2974.49" y="1839.25" width="29.69" height="6.29"/><rect class="cls-4" x="2977.4" y="1641.28" width="4.5" height="6.05"/><rect class="cls-4" x="3694.46" y="1641.13" width="6.05" height="6.99"/><ellipse class="cls-4" cx="3209.18" cy="1587.18" rx="11.02" ry="5.98"/><path class="cls-5" d="M2498.05,1071.5a10.45,10.45,0,0,1,1.77.68c21,12.77,43.45,22.36,66.78,30.09,21.41,7.1,43.26,12.51,65.16,17.74,18.2,4.35,36.44,8.72,54.88,11.79,23.94,4,48.06,7,72.17,9.89,20.79,2.46,41.65,4.69,62.55,5.93,20.16,1.21,40.4,1.35,60.61,1.35,15.38,0,30.76-1,46.13-1.53,1.43,0,2.37.07,3.05,1.6,8.83,19.64,21,37.27,33.16,54.91,8.21,11.91,16,24.09,24.09,36.09,12.54,18.65,26.9,35.89,41.44,53,13,15.33,26.34,30.44,40.9,44.37,25,23.88,51.05,46.49,80.88,64.18,18.16,10.78,37,20.47,55.52,30.59,1.91,1,4,1.71,6.81,2.88-2.7.84-4.67,1.52-6.67,2.08l-122.83,34.69c-10,2.83-20,5.61-30,8.48-21.25,6.12-42.45,12.4-63.74,18.41-19.71,5.56-39.49,10.89-59.25,16.27q-63.32,17.25-126.65,34.46c-17.54,4.77-35.08,9.49-52.59,14.34a8.37,8.37,0,0,1-7.31-1.11c-16.49-10.43-30.65-23.64-44.73-37-19.35-18.31-35.55-39.32-51.91-60.2a366,366,0,0,1-30.06-44.42,21.48,21.48,0,0,0-1.48-2c-.94-1.79-1.84-3.61-2.84-5.37-8.13-14.32-16.52-28.5-24.33-43-4.81-9-8.94-18.29-13-27.61q-10-22.89-19.46-46c-4.62-11.3-8.93-22.73-13.09-34.2s-8.28-22.81-11.8-34.4c-5.55-18.3-10.62-36.75-15.83-55.15-2.47-8.7-5.15-17.37-7.1-26.2-2.45-11.06-4.32-22.25-6.3-33.41C2500.53,1099.78,2498.44,1085.73,2498.05,1071.5Z" transform="translate(1373.22 87.19)"/><path class="cls-6" d="M2498.05,1071.5c.39,14.23,2.48,28.28,5,42.26,2,11.16,3.85,22.35,6.3,33.41,2,8.83,4.63,17.5,7.1,26.2,5.21,18.4,10.28,36.85,15.83,55.15,3.52,11.59,7.66,23,11.8,34.4s8.47,22.9,13.09,34.2q9.43,23.12,19.46,46c4.07,9.32,8.2,18.66,13,27.61,7.81,14.49,16.2,28.67,24.33,43,1,1.76,1.9,3.58,2.84,5.37-6.16.7-12.32,1.43-18.48,2.08q-23.09,2.44-46.16,4.81-20.18,2.08-40.36,4.12l-46.44,4.81-45.06,4.62-57.49,6c-15,1.55-30,3.14-45.07,4.61-13.92,1.36-27.85,2.61-41.78,3.84-2.24.2-4.51,0-6.59,0,5.64-2.9,11.47-5.85,17.26-8.87,19.21-10,36.05-23.29,52.34-37.45,22.22-19.33,40.87-41.65,56.74-66.33,11.48-17.85,22.86-35.8,32-55a786.2,786.2,0,0,0,30.86-73.54c5.91-16.58,11.94-33.14,17-50,4.82-16.14,8.58-32.6,12.52-49,3.17-13.14,5.92-26.38,8.89-39.57A15.91,15.91,0,0,1,2498.05,1071.5Z" transform="translate(1373.22 87.19)"/><path class="cls-6" d="M1706.79,1100.08l.42-1.84.66,0c.85,4.07,1.61,8.17,2.55,12.21,3.45,14.77,6.9,29.53,10.45,44.28s6.81,29.57,10.89,44.16c7.88,28.2,16.36,56.23,27.09,83.49,6.56,16.67,13.42,33.23,20.84,49.53a272.75,272.75,0,0,0,38.44,61c2.79,3.37,5.71,6.65,8.76,10.2-2.7,0-5.18.15-7.63,0q-33.24-2.29-66.48-4.67l-66.49-4.69c-19.62-1.38-39.24-2.79-58.87-4.1-2.86-.19-5-1.11-6.4-3.72-2.43-4.45-5-8.82-7.57-13.22a5.9,5.9,0,0,1,.32-1.11c5.38-10.43,11.19-20.66,16.07-31.31,8.35-18.21,16.49-36.53,24-55.09,8.52-21,16.93-42.09,24.14-63.56,7.33-21.83,13.69-44,19.41-66.32,4.09-15.91,6.47-32.25,9.48-48.43C1707.28,1104.63,1706.84,1102.32,1706.79,1100.08Z" transform="translate(1373.22 87.19)"/><path class="cls-5" d="M1706.79,1100.08c0,2.24.49,4.55.09,6.71-3,16.18-5.39,32.52-9.48,48.43-5.72,22.3-12.08,44.49-19.41,66.32-7.21,21.47-15.62,42.56-24.14,63.56-7.52,18.56-15.66,36.88-24,55.09-4.88,10.65-10.69,20.88-16.07,31.31a5.9,5.9,0,0,0-.32,1.11c-3.34,4.8-6.55,9.69-10,14.38-6.77,9.12-13.72,18.1-20.54,27.18-1.6,2.12-3.27,2.62-6,2-31-6.82-62-13.47-93.3-20.23a12.19,12.19,0,0,1,1.3-1.63c14.3-12.57,26-27.4,36.94-42.85,15.14-21.42,28.21-44,38.11-68.37,3.09-7.62,6-15.34,8.71-23.08a11.15,11.15,0,0,1,4.73-6,296.78,296.78,0,0,0,40.39-31.25c14.87-13.66,29.12-28,41.42-44,10.12-13.22,20.7-26.16,29.86-40C1693.16,1126.37,1699.61,1113,1706.79,1100.08Z" transform="translate(1373.22 87.19)"/><path class="cls-5" d="M1296,1434.86c-1.4,1.33-2.9,2.56-4.16,4-10.14,11.64-20,23.47-30.4,34.92-7.27,8-15.07,15.64-22.74,23.32a5.29,5.29,0,0,1-3.67,1.32c-17.07-1.33-34.12-2.79-51.18-4.24q-17.07-1.46-34.11-3-34-3-67.93-6.09c-20-1.78-40.08-3.47-60.12-5.26-21.89-1.95-43.78-4-65.68-5.94-13.51-1.21-27-2.35-40.54-3.54q-26.15-2.28-52.28-4.61a3.7,3.7,0,0,1-2-1.1,18.52,18.52,0,0,0,1.69-.93c29.2-20.23,55.39-44,80.46-69,14.31-14.31,28.55-28.74,40.66-45,15.06-20.16,29.46-40.81,41.78-62.86a466.71,466.71,0,0,0,28.83-62.35c.69-1.8,1.65-2.1,3.31-2.12,23.83-.3,47.61-1.91,70.88-6.93,22.2-4.78,44.2-10.68,66-16.93,30-8.57,58.87-20.26,87.51-32.63,32.63-14.1,64.43-29.68,94.49-48.66,16.14-10.18,32.17-20.57,47.81-31.49,8.8-6.15,16.71-13.56,25-20.4.27-.23.56-.43,1.42-1.1v4.24c-.35.36-1,.67-1,1.07-1,5.4-1.81,10.83-2.86,16.21-3.67,18.72-6.87,37.54-11.26,56.09-4.53,19.12-10.09,38-15.5,56.92-3.46,12.11-7,24.23-11.34,36.05-6,16.46-12.6,32.75-19.41,48.91-5.3,12.56-10.82,25.08-17.2,37.11s-13.75,23.76-21.13,35.31c-8.45,13.21-17.24,26.21-26.19,39.09-6.65,9.56-13.8,18.78-20.73,28.15Zm-53.12,54.48c-.07-.12-.13-.35-.2-.35a1.35,1.35,0,0,0-.43.19l.28.48Z" transform="translate(1373.22 87.19)"/><path class="cls-6" d="M1296,1434.86l8.45-11.41c6.93-9.37,14.08-18.59,20.73-28.15,8.95-12.88,17.74-25.88,26.19-39.09,7.38-11.55,14.72-23.2,21.13-35.31s11.9-24.55,17.2-37.11c6.81-16.16,13.37-32.45,19.41-48.91,4.33-11.82,7.88-23.94,11.34-36.05,5.41-18.9,11-37.8,15.5-56.92,4.39-18.55,7.59-37.37,11.26-56.09,1-5.38,1.87-10.81,2.86-16.21.07-.4.67-.71,1-1.07.74,4.87,1.67,9.71,2.2,14.6a855.34,855.34,0,0,0,14.34,91.69c5.83,26.7,12.24,53.24,21.17,79.09,8.58,24.87,18.14,49.39,31.06,72.4,16.08,28.62,33.85,56.14,55.78,80.68,5.88,6.58,13,12.06,19.87,17.72,7.55,6.25,15.41,12.13,23.58,18.53-2.52-.12-4.67-.27-6.82-.31-13.38-.27-26.77-.47-40.15-.77-16.09-.36-32.18-.79-48.27-1.19l-42.1-1.09-46-1.16-43.22-1.09-44.35-1.14c-14.87-.38-29.74-.73-44.62-1.14C1301,1435.29,1298.49,1435,1296,1434.86Z" transform="translate(1373.22 87.19)"/><path class="cls-6" d="M1242.86,1489.34l-.35.32-.28-.48a1.35,1.35,0,0,1,.43-.19C1242.73,1489,1242.79,1489.22,1242.86,1489.34Z" transform="translate(1373.22 87.19)"/><path class="cls-2" d="M954.57,1462.86v15.67H939v-39.12h7.73v23.51h7.94Z" transform="translate(1373.22 87.19)"/><path class="cls-2" d="M2834.6,1533.28q0,7.83,0,15.67H2819v-23.48l0,0h7.76v7.81h8Z" transform="translate(1373.22 87.19)"/><path class="cls-2" d="M2422.18,1396.94v15.47h-7.82v-15.47Z" transform="translate(1373.22 87.19)"/><path class="cls-2" d="M2977.7,1494.74h-7.84l0,0v-7.86h7.79Z" transform="translate(1373.22 87.19)"/><path class="cls-2" d="M1088.68,1474v15.5h-23.42v-15.48l0,.06H1073v-39h7.84v38.95h7.93Z" transform="translate(1373.22 87.19)"/><path class="cls-2" d="M2414.88,1428.28h7.74v-15.51h7.86v15.5h7.93l0-.06v15.49h-23.43v-15.48Z" transform="translate(1373.22 87.19)"/><path class="cls-2" d="M2946.37,1502.6h7.74v-23.32H2962v15.5h7.94l0,0v15.48h-23.43v-7.67Z" transform="translate(1373.22 87.19)"/><path class="cls-2" d="M1096.52,1458.39V1474h-7.84l0,0v-15.64h7.84Z" transform="translate(1373.22 87.19)"/><path class="cls-2" d="M2811.13,1509.86h7.81v15.66l0,0h-7.81v-15.66Z" transform="translate(1373.22 87.19)"/><path class="cls-2" d="M2834.65,1533.33v-15.48h7.62v15.43h-7.67Z" transform="translate(1373.22 87.19)"/><path class="cls-2" d="M2407.12,1420.38h-7.67v-7.62h7.61v7.68Z" transform="translate(1373.22 87.19)"/><path class="cls-2" d="M2407.06,1420.44h7.82v7.84l0-.06h-7.81v-7.84Z" transform="translate(1373.22 87.19)"/><path class="cls-2" d="M2438.41,1428.27v-7.67H2446v7.61h-7.68Z" transform="translate(1373.22 87.19)"/><path class="cls-2" d="M1096.57,1458.44v-7.66h7.63v7.61h-7.68Z" transform="translate(1373.22 87.19)"/><path class="cls-2" d="M954.62,1462.92v-7.67h7.62v7.61h-7.67Z" transform="translate(1373.22 87.19)"/><path class="cls-2" d="M1057.45,1466.21h-7.67v-7.62h7.62v7.67Z" transform="translate(1373.22 87.19)"/><path class="cls-2" d="M1057.4,1466.26h7.81v7.84l0,0h-7.81v-7.84Z" transform="translate(1373.22 87.19)"/><path class="cls-2" d="M2946.43,1502.54h-7.67v-7.62h7.61v7.68Z" transform="translate(1373.22 87.19)"/><path class="cls-2" d="M2811.18,1509.81h-7.67v-7.63h7.62v7.68Z" transform="translate(1373.22 87.19)"/><path class="cls-2" d="M3925.89,996.62H3915.5v10.62h-10.68v20.7h-10.16v20.72h-10.53v10.51h-10v10.14h20.25v10.52h-10.34v10.51h-10.33v10.15h-10.35V1111h-9.86v20.3h10.06v-9.84h10.52v10.33h9.8v10.32h-10.07v10.34h-10.52V1163H3853v10.14h-10.34v10.33H3832.4v10.38h21v-10h10.32v10h9.92v10.51h-10.33v10.5H3853V1225h-10.33v10.31H3832.4v20.76l10.44.08v-10.13h10v10h-10.14v10.44H3832.4c-6.35,29.17,4.85,37,34.33,35.08,47.24-3.07,94.83-.83,142.27-.83V1287h-10.69V1266.3h-10.16V1256h-10v-10.52H3988v-10.14h-10.25v-20.89h-10.21v-10.27h-10.15v-10h10v10.13h20.51v-21.12h-10.36V1162.5h-9.8v-10.33h9.76v-10.51h-10.2v-10.15H3957V1121h-10.21v-10.27H3936.6v-10h10v10.12h20.52v-21.07h-10.34V1079.5h-10.13v-31h-10.47v-31.23h-10.29Zm31.1,176.54h10.14v9.95h-10V1173H3947v-10h10Z" transform="translate(1373.22 87.19)"/><path class="cls-2" d="M3770.79,861h-11.52v23.37h-11.86v11.48h-11.25v23h-11.67v11.69h-11.66v11.49h-11.27v11.49h-11.1v23.06h11.23V965.34h11.08v11.12h-11.25v34.93h-11.7v11.7h-11.47v11.29h-11V1057h11.49v-10.9h11.26v11.41h11.11v11.71h-11.49v23h-11.27v11.5h-11.68v11.71h-11.46v22.83h-11V1150h10.81v34.79h-11.33v11.29h-11.47v11.48h-11.39v23.11h11.79v11.88h11v11.29h-11.4v11.48h-11.38c0,29.84-.06,59.69.17,89.53,0,1.36,2.51,3.87,3.86,3.87,81.85.19,163.7.24,245.55-.36,1.38,0,2.7-7.94,4-12.17h-11.79v-34.83h-11v-11.51h10.86v-23.27h-11.33v-11.31h-11.48V1242h-11v-22.61H3840v10.93h22.6v-23.08h-11.34v-11.3H3839.8v-11.72h-11.68v-46.16h-11.3v-11.52h-11.35v-23h-11.26v-11.1h11.1v11.27h22.74v-23.52h-11.32v-11.3h-11.47v-23.27h-11V1023h11.16v11.42h11.68v11H3828v-22.91h-10.75V1011H3828V999.5H3816.9V976.44h-11.69V964.73h-11.66v-34.6h-11.29V907.07h-11.47Z" transform="translate(1373.22 87.19)"/><path class="cls-2" d="M131.11,987.85V997h9.11v9.2h9v9.19h9.22v18.44h-8.9v-8.76h-8.94v18.08h8.86v18.72l.09-.09h-9v9.33h9l-.09-.09v9h9.32v-9l-.08.09h9v27.6H159v9h18v9.36h9.36v9.36h9.21v18.27h9.06v18.8h-9v-9.24h-9.23V1145H177.2v-9h-8.89V1145h9v9.26h9.21v9.24h9.24v27.63h9.17v9.21H214v18.32h9.36v-8.9h9.22v-18.28h9.2v-9.38h9.16v-18.3H233v-18.62h8.84v-9.21h9v-9.21h9.46V1108h9v-8.9h-8.91v9h-9v-36.95h8.79v-9h9.22v-18.62h9.36v-36.88h9v8.84h9.38v27.86h9.2v9h9.22V1071H325v9.21h8.94v18.45H325.3V1108h8.85v18.29h9.2v9.38h9.16V1154H334.6v9.37h8.83v9.21h9.05V1191h9.36v9.38H371v18.29H353.06v18.62h8.87v9.21H371v27.56h9.37v-18.12h9.21v-18.19h9.2v8.8h9.37v18.38H426.3v-8.88h-8.64v-18.46h8.71v-18.44h9.37v-27.69h9.2v8.72h9.22v18.61h9.36v18.46h9V1265h-8.61v9.38h8.82v18.28h9.06v9.49H-7.49V1163.48h9v-9.24H-7.49v-64.69H1.7v-9.28h9v-8.9H1.79v9l-9.28,0V1034.1H1.59V1025h9.35v-9.41h9v-8.9H11v9H2V978.8h8.86v-9.35H20v-9H11.3V941.85H29.5V932.4l-.09.09h9v-9.33h-9l.09.09V914.1h9.11v-9.36h9.2V886.48H57V867.87h9.34V831h9v27.27h9.35v18.61h9.35v9.2h9v18.44h9.35v9.36h9.19v9h9.09v18.61h-8.65v9.36h8.83v18.28h18.3v18.77H131v-9h-8.9v8.91Zm55.41,212.55v9h8.9v-8.91h-9v-9.24H168v-9h-8.89v8.91h9v9.24Zm-83-222h8.83v-8.75h-8.83Z" transform="translate(1373.22 87.19)"/><path class="cls-2" d="M149.49,1061.87h9.24v9.24l.08-.09h-9.32l.09.09v-9.33Z" transform="translate(1373.22 87.19)"/><path class="cls-2" d="M29.5,932.4h-9v-9.15h9l-.09-.09v9.33Z" transform="translate(1373.22 87.19)"/><path class="cls-2" d="M666.72,1057.28H677.1v10.62h10.69v20.7H698v20.72h10.53v10.51h9.94V1130H698.18v10.52h10.33V1151h10.34v10.14h10.34v10.52h9.86V1192H729v-9.84H718.48v10.33h-9.8v10.32h10.06v10.34h10.53v10.52h10.34v10.15h10.33v10.32h10.27v10.38h-21v-10H728.87v10H719v10.51h10.33v10.5h10.33v10.14H750V1296h10.26v20.75l-10.44.09v-10.14h-10v10h10.14v10.44h10.29c6.34,29.17-4.85,37-34.33,35.08-47.24-3.07-94.83-.82-142.27-.82v-13.75h10.68V1327h10.17v-10.33h10v-10.52h-9.81V1296h10.25v-20.89h10.21v-10.27h10.15v-10h-10V1265H604.72v-21.11h10.36v-20.69h9.8v-10.33h-9.76v-10.51h10.2v-10.14h10.33v-10.51h10.21V1171.4H656v-10H646v10.12H625.48v-21.07h10.35v-10.31H646v-31.05h10.47v-31.23h10.3Zm-31.1,176.54H625.48v10h10v-10.1h10.15v-10h-10Z" transform="translate(1373.22 87.19)"/><path class="cls-2" d="M3526.68,973.34h11.53v23.37h11.85v11.48h11.26v23H3573v11.69h11.67v11.49h11.26v11.49H3607V1089h-11.23v-11.28h-11.08v11.12H3596v34.93h11.7v11.7h11.46v11.29h11v22.63H3618.6v-10.91h-11.27v11.42h-11.11v11.71h11.49v23H3619v11.5h11.68v11.71h11.46v22.83h11v11.71h-10.8v34.79h11.33v11.28h11.47v11.49h11.39V1343h-11.79v11.88h-11v11.29h11.39v11.48h11.39c0,29.84.06,59.69-.17,89.53,0,1.36-2.52,3.87-3.86,3.87-81.85.19-163.71.23-245.55-.36-1.38,0-2.7-7.94-4-12.18h11.79V1423.7h11v-11.51h-10.86v-23.28h11.32v-11.3h11.49v-23.28h11v-22.61h-11.17v10.93h-22.6v-23.08h11.34v-11.3h11.48v-11.72h11.68v-46.17h11.3v-11.51H3492v-23h11.26v-11.1h-11.1V1216h-22.75v-23.52h11.33v-11.3h11.47V1158h11v-22.63h-11.15v11.42h-11.69v11H3469.5v-22.9h10.74v-11.51h-10.8v-11.51h11.14v-23.06h11.68v-11.71h11.67v-34.6h11.29V1019.4h11.46Z" transform="translate(1373.22 87.19)"/><path class="cls-2" d="M3283.37,1027.9h10.39v10.63h10.68v20.7h10.16v20.71h10.53v10.51h9.94v10.15h-20.24v10.51h10.33v10.52h10.34v10.15h10.35v10.52h9.85v20.3h-10v-9.84h-10.52v10.33h-9.8v10.32h10.07v10.34h10.52v10.51h10.34v10.15h10.34v10.32h10.26v10.38h-21v-10h-10.33v10h-9.91v10.51h10.33v10.51h10.33v10.14h10.33v10.31h10.26v20.76l-10.44.08v-10.14h-10v10h10.14v10.45h10.29c6.34,29.17-4.85,37-34.33,35.07-47.24-3.07-94.83-.82-142.27-.82v-13.74h10.68v-20.7h10.17v-10.33h10v-10.51h-9.81v-10.15h10.25V1245.7h10.21v-10.26h10.15v-10h-10v10.12h-20.51v-21.11h10.36v-20.68h9.8v-10.34h-9.76v-10.51H3242V1162.8h10.33v-10.51h10.21V1142h10.15v-10h-10v10.13h-20.53v-21.08h10.35v-10.31h10.12v-31h10.48V1048.5h10.29Zm-31.1,176.55h-10.14v10h10v-10.1h10.15v-10h-10Z" transform="translate(1373.22 87.19)"/><path class="cls-7" d="M1910.21,1502.75c22.56-1.17,45.12-2.73,67.74-3.34,20-.56,40-.39,60,.16,18.16.51,36.26,2,54.36,3.07a26.31,26.31,0,0,0,4-.5c.56.39,1.06,1,1.67,1.11,6.69.67,13.43,1.06,20.11,1.84,8.08.89,16.1,2,24.12,3.06,7.46,1.06,15,2.23,22.39,3.57,9.86,1.78,19.78,3.67,29.58,5.85,3.12.66,6.07,2.28,9,3.56.55.22.77,1.06,1.22,1.62a11.64,11.64,0,0,1-1.67.67,15.09,15.09,0,0,1-2.23,0c-7.41,0-14.82,0-22.28,0a9.79,9.79,0,0,0-1.73.39,9.15,9.15,0,0,0,1.56.61c1.73.28,3.51.39,5.24.67,11.25,2,22.56,3.85,33.76,6,15.65,3,31.36,5.85,46.9,9.58,12.31,2.9,24.34,7,36.48,10.58a161.13,161.13,0,0,1,33,13.76c5.35,3,10.42,6.35,15.6,9.64a8,8,0,0,1,1.61,2.34,11.08,11.08,0,0,1-2.78.83c-4.51-.05-9.08-.39-13.59-.44-7.52-.11-15-.06-22.56-.06-.67,0-1.29.06-1.95.11a8.55,8.55,0,0,0,1.83.89,318.31,318.31,0,0,1,55.37,18.83c14.71,6.52,29.14,13.71,43.4,21.11,7.8,4.07,15,9.14,22.45,13.82,2.39,1.5,4.73,3.17,7.07,4.73,2.23,2,4.4,4.07,6.63,6.08.78.78,1.5,1.61,2.28,2.39,1.79,2,1.45,3.9-.94,5.13a13.37,13.37,0,0,1-2.9.89c-5,1.11-10.08,2.34-15.15,3.34-7.8,1.56-15.6,3-23.4,4.51-9.52,1.84-19,3.73-28.52,5.63-2.78.55-5.62,1-8.41,1.5-.33.06-.61.5-.89.78a7,7,0,0,0,1,.39c6.9,1.34,13.87,2.34,20.66,4,11,2.61,21.89,5.29,32.7,8.52,6.35,1.89,6.63,4.62,1.62,9-.23.16-.39.39-.62.55a227.78,227.78,0,0,1-35.2,22.12,461.79,461.79,0,0,1-71.14,29.8,369,369,0,0,1-60.49,13.59,41.94,41.94,0,0,0-5.74,1.62H1754.13c-.44-.34-.83-1-1.34-1.06-7.46-1.23-15-2.23-22.44-3.51-23.34-4-45.85-11.25-67.85-19.72a370.85,370.85,0,0,1-60.83-29.8,224.69,224.69,0,0,1-21.17-15.21c-3.17-2.45-2.67-5,1.12-6.46a161,161,0,0,1,18.71-6c12-2.78,24.07-4.95,36.1-7.41a9.71,9.71,0,0,0,1.78-.66c-.61-.23-1.22-.51-1.84-.73a3.93,3.93,0,0,0-.83-.16c-10.64-2-21.22-3.85-31.86-5.91-11.42-2.23-22.79-4.62-34.21-7-3.34-.67-6.74-1.28-10-2.23-3.39-1-3.9-3.18-1.56-5.74l1.84-2c2.34-2,4.74-4,7.08-6,5-3.51,9.91-7.19,15.09-10.42,7.47-4.68,14.82-9.58,22.73-13.37,19.44-9.36,38.77-18.94,59.38-25.62,10.08-3.29,20.33-6.13,30.52-9.25a6.4,6.4,0,0,0,1.56-.89c-.61-.06-1.28-.17-1.89-.17-11.86.17-23.73.39-35.59.5a11.92,11.92,0,0,1-3-.89c.62-.83,1-2,1.84-2.56,5.68-3.62,11.37-7.3,17.27-10.53,13.81-7.63,28.74-12.31,43.78-16.65,11.7-3.4,23.51-6.69,35.37-9.42s23.73-4.62,35.66-6.79c12.64-2.29,25.28-4.4,37.93-6.63.33-.06.67-.17,1.06-.22a4.15,4.15,0,0,0-1.17-.28c-7.86-.06-15.71-.06-23.56-.11a7.77,7.77,0,0,1-2.23-.84c.44-.67.72-1.62,1.33-1.89a50.33,50.33,0,0,1,6.41-2.68c14.54-4.84,29.75-6.68,44.79-8.86,15.59-2.22,31.3-3.84,47-5.73C1904.2,1503.47,1907.21,1503.08,1910.21,1502.75Zm94.53,30.13v-.39c-11.92.51-23.84,1-35.76,1.51-9.58.44-19.22.83-28.74,1.78-11.37,1.12-22.67,2.56-34,4.4-13.7,2.23-27.41,4.74-41,7.63a333.54,333.54,0,0,0-46.73,13.82c-17.5,6.52-34.37,14.26-49.47,25.34-10.86,8-20.33,17.16-25.73,29.86a37.74,37.74,0,0,0-.51,29.13c4.4,11.48,12.37,20.28,21.9,27.74a167.8,167.8,0,0,0,34.42,20.61,277,277,0,0,0,44,16c14.48,3.9,29.18,7.24,43.89,10.25,11,2.28,22.12,3.9,33.26,5.34,10.86,1.45,21.78,2.51,32.69,3.35,11.42.83,22.9,1.5,34.32,1.67,13.31.16,26.68-.17,40-.5,7.86-.17,15.71-.56,23.51-1.12,8.8-.61,17.66-1.34,26.46-2.23,9.36-.94,18.72-1.95,28-3.45a489.1,489.1,0,0,0,56.49-12c24.12-6.8,47.62-15.15,69.07-28.36,13.09-8.07,25.06-17.49,32.81-31.19,6.18-10.92,7.35-22.39,2.84-34.15-4.4-11.47-12.42-20.22-21.89-27.74a166.11,166.11,0,0,0-34.43-20.61,284.22,284.22,0,0,0-44-16q-21.81-5.76-43.9-10.25c-11-2.28-22.11-3.9-33.25-5.35-10.87-1.44-21.78-2.5-32.7-3.34-11.53-.83-23.06-1.28-34.59-1.73C2016.05,1532.72,2010.37,1532.88,2004.74,1532.88Z" transform="translate(1373.22 87.19)"/><path class="cls-4" d="M2459.38,1647.07c-.17-.29-.33-.51-.43-.49-2.73.72-3.45-1-4.29-3a28.32,28.32,0,0,0-2.12-3.56,3,3,0,0,0-5.34.28,11.24,11.24,0,0,0-.73,2.67c.78.78,1.56,1.56,2.29,2.4,1.84,1.95,1.5,3.9-1,5.12a12.07,12.07,0,0,1-2.9.89c-5.07,1.12-10.08,2.34-15.15,3.34-7.8,1.56-15.6,3-23.39,4.52-9.53,1.89-19,3.78-28.52,5.62-2.79.56-5.63.95-8.42,1.51-.33.11-.61.5-.89.78a8.28,8.28,0,0,0,.95.39c6.91,1.28,13.87,2.34,20.67,4,11,2.62,21.89,5.35,32.69,8.52,6.41,1.9,6.63,4.63,1.62,9a2.94,2.94,0,0,1-.61.56,238,238,0,0,1-35.21,22.11,462.1,462.1,0,0,1-71.13,29.8,368.09,368.09,0,0,1-60.5,13.6,42.81,42.81,0,0,0-5.73,1.61q54.3,0,108.56-.11c7.91-3.34,15.88-6.52,23.62-10.14,6.41-3,12.65-6.51,18.83-10,2.31-1.35,3.18-2.61,3.29-4.5-.11-.29-.27-.56-.37-.85-2.21-6.85.76-13.43,5.83-17.68-.51-.72-1.17-1.4-1.73-2.1,1.17-.66,2.39-1.39,3.56-2.11a39.8,39.8,0,0,1,3.85-2.29,2.47,2.47,0,0,1,1.95.34,12.37,12.37,0,0,1,1.18,1l.37-.28.78-.77-.27-1.61c0-.06-.11-.12-.11-.23-.06-.61-.17-1.22-.23-1.83.56.27,1.17.55,1.73.83l1.11.56.16-.17.27-.39.89-1.29a7.15,7.15,0,0,0-.42-.77c-1.34-1.73-.9-2.79.89-3.68,1-.55,2.17-1,3.23-1.61,3.28-1.73,5.29-4,3.73-8.08a2.28,2.28,0,0,1,.78-1.84,2.31,2.31,0,0,1,1.84-.11c.33.11.66.26,1,.39a19.6,19.6,0,0,1-.21-15.2l-.28-.12c.18-.2.37-.41.64-.69,2.46-5.21,7.38-9.16,14.89-9.16a18.71,18.71,0,0,1,2.42.24c-.07-1.18-.13-2.36-.18-3.53a4.79,4.79,0,0,1,3.81-5.17c.34-1.07.68-2.14,1.06-3.2,0-.11.1-.2.14-.3l-1.72,0c.7-.26,1.4-.58,2.1-.88A22.17,22.17,0,0,1,2459.38,1647.07Z" transform="translate(1373.22 87.19)"/><path class="cls-4" d="M1652.73,1753.4c9.09,0,18.48.39,27.16,3.3h74.24c-.44-.39-.83-1-1.34-1.06-7.52-1.17-15-2.22-22.44-3.51-23.34-4-45.85-11.25-67.85-19.71a375.78,375.78,0,0,1-60.83-29.81c-7.41-4.51-14.32-9.91-21.17-15.2-3.17-2.45-2.67-5.07,1.12-6.46a148.16,148.16,0,0,1,18.71-6c12-2.73,24.07-5,36.1-7.41a11.73,11.73,0,0,0,1.78-.67c-.61-.28-1.22-.5-1.84-.72l-.83-.17c-10.64-2-21.28-3.84-31.86-5.9-11.42-2.23-22.84-4.63-34.21-7-3.34-.72-6.68-1.28-10-2.23s-3.9-3.17-1.56-5.73l1.84-2a6.08,6.08,0,0,0-.67-2.56,3,3,0,0,0-5.18-.5,21.63,21.63,0,0,0-2.78,4.79c-.62,1.73-1.28,2.56-3.29,2.12-1.11-.23-2.78.5-1.73,1.72,2.23,2.62-.44,1.17-.94,1.28s-1.17-.16-1.68,0a20.76,20.76,0,0,0-2.89,1.4c1,.67,1.78,1.61,2.78,1.83,1.9.45,3.9.34,5.8.78a6.94,6.94,0,0,1,3.12,1.84c2.67,2.68,1.22,6.24,1.11,9.25,0,.22,0,.4,0,.61a19.33,19.33,0,0,1,11.14,11.83,15.09,15.09,0,0,1-.63,10.82l2-.48c0-.11,0-.28,0-.39a1,1,0,0,0,.39.06l-.34.33c.5.34,1.17,1.06,1.56,1,1.4-.39,2.73-1.17,4.13-1.62.66-.22,1.78-.39,2.11,0a3.23,3.23,0,0,1,.73,2.34c-.67,3.79-.17,5.07,3.12,7.13,1.17.73,2.45,1.28,3.67,1.9,2.34,1.11,2.56,2.28,1,4.18a15.06,15.06,0,0,0-1.84,2.39,1.35,1.35,0,0,0,.11,1.23c.17.22.84.16,1.17,0a8,8,0,0,0,1.34-1c1-.72,2.06-1.39,3.06-2.06-.28,1.28-.61,2.56-.83,3.85a16,16,0,0,0-.23,2.34c.67-.51,1.56-.84,2-1.51,1-1.61,1.84-1.89,3.46-.72a64.2,64.2,0,0,0,6,3.56c1.11.67,1.28,1.12.11,1.9-2,1.33-3.18,3.51-2.17,5.51,1.56,3.23,3.9,6.07,5.9,9,.39.51,1.28,1.23,1.17,1.51-1.89,4.57,1.12,6.57,4.29,8.63,12.76,8.25,27,13.2,41,18.83h2A4,4,0,0,1,1652.73,1753.4Z" transform="translate(1373.22 87.19)"/><path class="cls-4" d="M1569.25,1673.43c.89-.62,1.51-1,2.12-1.45-.56-.39-1.17-1.06-1.67-1.06s-1.06.78-1.56,1.22A10.81,10.81,0,0,0,1569.25,1673.43Z" transform="translate(1373.22 87.19)"/><path class="cls-4" d="M1563.24,1655.6c-.17-.06-.34-.22-.45-.22s-.28.22-.39.33a1.53,1.53,0,0,0,.45.11A.6.6,0,0,0,1563.24,1655.6Z" transform="translate(1373.22 87.19)"/><path class="cls-4" d="M1548.7,1649.81c-.17.11-.28.16-.39.22a1.56,1.56,0,0,0,.5.17,1.8,1.8,0,0,0,.5-.11A5,5,0,0,0,1548.7,1649.81Z" transform="translate(1373.22 87.19)"/><path class="cls-4" d="M2440.57,1631c-1.28-2.23-2.45-4.51-3.57-6.85-1.44-3-2.39-6.3-4.34-8.92a147.47,147.47,0,0,0-27.24-28.29c-1.34-1-3.34-2.12-4.74-1.84-2.56.56-3.73-.67-5.18-2.12a51.43,51.43,0,0,0-5.18-4.57c-1-.72-2.39-1.78-3.39-1.61-2.57.5-4-1.06-5.57-2.34-2.05-1.54-4.07-3.1-6.1-4.66-.4-.18-.82-.33-1.21-.54-4.44-2.48-8.6-5.35-13-7.83a16.21,16.21,0,0,1-7.15-7.47c-5.73-2.25-11.46-4.5-17.07-7-3.12-1.39-6.15-3-9.17-4.58-2.51.16-5,.36-7.44.56-8.09.68-13.17-3.49-15.36-9.13-2.72-1.26-5.47-2.47-8.19-3.78a2.61,2.61,0,0,1-1-1.51c-.78-3-2.84-4.23-5.79-4.79-7.63-1.39-15.32-2.73-22.84-4.51-13.59-3.17-27-7.13-40.94-8.69-4.18-.44-8.52-2-12.37-1.11-4.12.94-8,.44-12,.55-2.4.06-5,.51-6.91-1.83a2.5,2.5,0,0,0-2.06-.45c-2.23.34-4,.22-4.85-2.39-.22-.73-1.28-1.34-2.11-1.62a101.5,101.5,0,0,0-12-3.45c-10.58-2-21.17-3.79-31.75-5.57-4.35-.73-8.8-1.23-13.2-1.62a7.09,7.09,0,0,0-3.9,1.06c-1.45.84-2.29,2.17-1.17,4a15.49,15.49,0,0,1,.72,1.4l-1.61-.17c-6.8-.84-13.6-1.67-20.39-2.45-6.18-.73-6.18-.67-6.24,5.46.56.39,1.06,1.06,1.67,1.11,6.69.67,13.42,1.12,20.11,1.84,8,.89,16.1,1.89,24.12,3.06,7.46,1.06,15,2.23,22.39,3.57,9.92,1.78,19.78,3.68,29.58,5.85,3.12.67,6.07,2.28,9,3.56.55.23.83,1.06,1.22,1.62a10.59,10.59,0,0,1-1.67.67,15.09,15.09,0,0,1-2.23,0c-7.46,0-14.87,0-22.28,0a6.35,6.35,0,0,0-1.73.39,7.77,7.77,0,0,0,1.56.61c1.73.28,3.51.39,5.24.67,11.25,2,22.5,3.85,33.76,6,15.65,3.06,31.41,5.9,46.9,9.58,12.31,3,24.34,7,36.48,10.58a161.13,161.13,0,0,1,33,13.76c5.35,3,10.47,6.35,15.6,9.64.72.45,1.06,1.56,1.61,2.34a10.5,10.5,0,0,1-2.78.83c-4.51-.11-9.08-.39-13.59-.44-7.52-.11-15-.06-22.56-.06-.67,0-1.29.06-1.95.11a11.5,11.5,0,0,0,1.83.9,311.17,311.17,0,0,1,55.37,18.82c14.71,6.52,29.14,13.71,43.4,21.12,7.8,4,15,9.13,22.45,13.81,2.39,1.5,4.73,3.12,7.07,4.73C2441.91,1635.16,2441.85,1633.15,2440.57,1631Z" transform="translate(1373.22 87.19)"/><path class="cls-4" d="M1910.05,1498.13c0-1.4-.23-2-1.84-1.79-7.56,1-15.15,1.88-22.72,2.81a15.74,15.74,0,0,1-13.21,6.35c-7.8,0-12.81-4.25-15.16-9.75-8.55,1.51-17.1,3-25.62,4.66a81.88,81.88,0,0,0-10.91,3.23,3.64,3.64,0,0,0-2.23,1.89c-.61,2.18-2.17,2.07-3.9,2.18a13.4,13.4,0,0,0-3.62.83c-1.28.39-2.45,1.34-3.68,1.28-5.18-.16-10.47,1.4-15.54-.83-10.25,1.56-20.55,2.73-30.69,4.79-8.64,1.73-16.94,4.73-25.51,6.74-6.3,1.5-12.82,2.12-19.17,3.4-1.72.33-4.23,1.5-4.62,2.84-.84,3-3,3.73-5.18,4.79s-4.07,2.34-6.18,3.17c-3.29,1.34-6.46,3.68-10.42,2.29a3.24,3.24,0,0,0-2.12.39c-2.28,1-4.62,1.95-6.79,3.17q-8.22,4.79-16.75,8.81a18.59,18.59,0,0,1-4.91,11.93c-5.63,6.13-15.57,6.41-22.21,1.86,0,.1-.12.19-.14.3-.56,2.5-2.34,3.62-4.06,5-3.18,2.46-6.35,4.91-9.53,7.3a8.67,8.67,0,0,1-2.4,1.12c-1.67.61-3.62.77-5,1.78-2.28,1.56-4.12,3.67-6.24,5.51-.61.5-1.61,1.28-2.23,1.12-3-.73-5.18.61-7.35,2.34-9.58,7.68-17.82,16.71-25.46,26.34a31.22,31.22,0,0,0-3.56,6c-1.84,3.68-3.51,7.52-5.29,11.26-1.06,2.28-1,4.29,1.11,6,5-3.51,9.92-7.19,15.1-10.42,7.46-4.68,14.81-9.58,22.72-13.37,19.45-9.36,38.83-18.94,59.38-25.62,10.09-3.29,20.34-6.19,30.53-9.25a8.61,8.61,0,0,0,1.56-.89c-.61-.06-1.28-.17-1.89-.17-11.87.17-23.73.39-35.6.5a8.33,8.33,0,0,1-3-.89c.61-.89,1-2.06,1.84-2.56,5.68-3.57,11.36-7.24,17.27-10.53,13.75-7.63,28.74-12.31,43.78-16.65,11.7-3.4,23.51-6.69,35.37-9.42s23.73-4.62,35.65-6.79c12.65-2.29,25.29-4.46,37.94-6.63.39-.06.72-.17,1.05-.23a4.5,4.5,0,0,0-1.17-.27c-7.85,0-15.7,0-23.56-.12a6.79,6.79,0,0,1-2.23-.83c.45-.67.73-1.62,1.34-1.89a52.88,52.88,0,0,1,6.41-2.68c14.53-4.84,29.69-6.68,44.78-8.86,15.6-2.22,31.31-3.84,47-5.73,3-.34,6-.73,9-1.06A32.74,32.74,0,0,1,1910.05,1498.13Z" transform="translate(1373.22 87.19)"/><path class="cls-8" d="M2004.74,1532.88c5.68,0,11.31-.16,17,.06,11.53.45,23.06.84,34.59,1.73,10.92.83,21.84,1.89,32.7,3.34,11.14,1.45,22.28,3.12,33.26,5.35q22,4.52,43.89,10.25a272.11,272.11,0,0,1,44,16,168.25,168.25,0,0,1,34.42,20.61c9.47,7.52,17.49,16.27,21.89,27.74,4.52,11.75,3.29,23.23-2.84,34.15-7.74,13.7-19.66,23.11-32.81,31.19-21.44,13.2-45,21.56-69.07,28.35a504.88,504.88,0,0,1-56.48,12c-9.25,1.44-18.61,2.45-28,3.45-8.8.89-17.6,1.61-26.45,2.23-7.86.55-15.66.94-23.51,1.11-13.31.28-26.68.67-40,.5-11.42-.16-22.89-.83-34.31-1.67-10.92-.83-21.84-1.89-32.7-3.34-11.14-1.45-22.28-3.12-33.25-5.35q-22.06-4.52-43.9-10.25a275,275,0,0,1-44-16,168.77,168.77,0,0,1-34.43-20.61c-9.52-7.52-17.49-16.32-21.89-27.74a37.52,37.52,0,0,1,.5-29.13c5.4-12.7,14.87-21.9,25.74-29.86,15.15-11.09,32-18.83,49.46-25.35a335.63,335.63,0,0,1,46.74-13.81c13.59-2.95,27.29-5.4,41-7.63,11.26-1.84,22.62-3.29,34-4.4,9.53-.95,19.17-1.28,28.75-1.79,11.92-.55,23.84-1,35.76-1.5C2004.69,1532.61,2004.69,1532.72,2004.74,1532.88Zm-2.34,22.29v-1c-10.36.5-20.66.89-31,1.5-7.64.45-15.32.73-22.9,1.79-13.31,1.89-26.57,4-39.77,6.57-22.17,4.29-43.56,11-63.61,21.61-11.14,5.85-21.56,12.7-29.36,22.84-8.47,10.92-11.2,23.28-4.62,36.32,4.51,8.91,11.47,15.54,19.49,21.28,11.53,8.24,24.23,14.15,37.49,19.1a289.66,289.66,0,0,0,53.76,14.1c11.58,2,23.34,3.34,35,4.51,10.48,1.06,20.95,2.06,31.48,2.12,15.09.11,30.19-.34,45.23-1.06q14.79-.68,29.41-2.79c13.31-1.89,26.62-3.95,39.71-6.85,22-4.9,43.18-12,62.67-23.39,10.31-6,19.78-13.09,26.24-23.4,5.57-8.91,7.41-18.38,3.67-28.58-3.56-9.91-10.52-17.15-18.6-23.34-13.2-10.13-28.19-16.93-43.84-22.39a302.4,302.4,0,0,0-61.89-14.48c-13.59-1.73-27.24-3.34-40.94-4.29C2021,1554.61,2011.65,1555.17,2002.4,1555.17Z" transform="translate(1373.22 87.19)"/><path class="cls-7" d="M1563.24,1655.6a1.21,1.21,0,0,1-.39.28,1.48,1.48,0,0,1-.45-.11c.11-.11.22-.34.39-.34S1563.07,1655.49,1563.24,1655.6Z" transform="translate(1373.22 87.19)"/><path class="cls-9" d="M2002.4,1555.17c9.25,0,18.55-.56,27.74.11,13.71.94,27.35,2.56,41,4.29a302.46,302.46,0,0,1,61.88,14.48c15.6,5.46,30.64,12.25,43.84,22.39,8.08,6.19,15,13.43,18.61,23.34,3.67,10.2,1.89,19.72-3.68,28.58-6.46,10.3-16,17.38-26.24,23.39-19.49,11.48-40.72,18.5-62.66,23.4-13.09,2.9-26.41,5-39.72,6.85-9.75,1.39-19.61,2.34-29.41,2.79-15,.72-30.14,1.17-45.23,1-10.47-.11-21-1-31.48-2.11-11.69-1.17-23.45-2.56-35-4.51a289.66,289.66,0,0,1-53.76-14.1c-13.25-4.95-26-10.86-37.49-19.1-8-5.69-15-12.37-19.49-21.28-6.57-13-3.85-25.35,4.62-36.32,7.8-10.08,18.22-17,29.36-22.84,20-10.53,41.44-17.32,63.61-21.61,13.2-2.56,26.46-4.68,39.77-6.58,7.58-1.05,15.27-1.33,22.9-1.78,10.36-.61,20.66-1,31-1.5A1.89,1.89,0,0,0,2002.4,1555.17Zm.45,124.49c9-.61,19.66-1.28,30.36-2.06a211.28,211.28,0,0,0,37.32-6.18c16.54-4.23,32.81-9.36,46.18-20.67,5.79-4.9,10.19-10.8,9.86-19-.28-7.3-4.35-12.7-9.53-17.21-8.69-7.58-19.05-12.31-29.86-16a185.43,185.43,0,0,0-40.6-9.41c-12.76-1.39-25.52-2.51-38.27-3.23-7.58-.39-15.15.17-22.73.44-6.46.28-13,.23-19.33,1.23-13,2.06-26,4.18-38.77,7.3-15,3.73-29.58,9.13-41.61,19.49-5.68,4.85-10,10.75-9.75,18.78.23,7.46,4.35,12.92,9.64,17.49,8.74,7.57,19,12.25,29.91,16,18.33,6.41,37.27,9.64,56.49,11.48C1981.68,1679,1991.43,1679.11,2002.85,1679.66Z" transform="translate(1373.22 87.19)"/><path class="cls-10" d="M2002.85,1679.66c-11.48-.55-21.17-.66-30.81-1.61-19.21-1.84-38.15-5.13-56.48-11.48-10.81-3.78-21.17-8.41-29.91-16-5.24-4.57-9.42-10-9.64-17.49-.22-8,4.12-13.87,9.75-18.78,12-10.36,26.57-15.76,41.61-19.49,12.76-3.18,25.79-5.24,38.77-7.3,6.35-1,12.87-1,19.33-1.23,7.58-.27,15.21-.89,22.73-.44,12.75.67,25.56,1.84,38.27,3.23a185.43,185.43,0,0,1,40.6,9.41c10.81,3.74,21.17,8.47,29.86,16,5.18,4.51,9.25,9.91,9.53,17.21.27,8.19-4.07,14.09-9.86,19-13.37,11.31-29.58,16.44-46.18,20.67a216,216,0,0,1-37.32,6.18C2022.51,1678.38,2011.82,1679.05,2002.85,1679.66Z" transform="translate(1373.22 87.19)"/></g><g id="Layer_3" data-name="Layer 3"><rect class="cls-11" x="1718.94" y="-1850.7" width="657.8" height="4184.83" transform="translate(3662.78 -1718.94) rotate(90)"/><rect class="cls-11" x="1.4" y="20" width="6651.5" height="617.8"/></g></svg>