<svg xmlns="http://www.w3.org/2000/svg" viewBox="0 0 4000 1750"><defs><style>.cls-1{fill:#ccf2ff;}.cls-2{fill:#335767;}.cls-3{fill:#538da6;}.cls-4{fill:#538ca5;}.cls-5{fill:#345868;}.cls-6{fill:#97bac9;}.cls-7{fill:#b6cfd9;}.cls-8{fill:#75a3b7;}.cls-9{fill:#816c61;}.cls-10{fill:#a68f7e;}.cls-11{fill:#cbf2ff;}</style></defs><title>hero-no-logo</title><g id="Layer_1" data-name="Layer 1"><path class="cls-1" d="M836.36,1205.61q0-324.37.21-648.74c0-1.71,3.16-4.92,4.84-4.92q1095.72-.33,2191.44,0c1.68,0,4.83,3.21,4.84,4.92q.33,330.53.21,661a44.49,44.49,0,0,1-6.15-.61q-39.8-9.25-79.56-18.64l-3.77-.86-1.81-.46-2.8-.61-1.8-.49-2.79-.61-1.8-.47c-5.28-1.55-10.55-3.14-15.84-4.64-137.93-39.14-277.14-71.27-421.43-78.39-137.89-6.79-275-2.42-410.48,25.16-83.67,17-166.57,37.65-250.11,55.35-77,16.31-153.83,33.74-233.21,36-59.79,1.7-117.82-8.77-175.63-21.48-80-17.59-160.56-30.81-242.76-34.2C1069.13,1168.05,952.69,1185.81,836.36,1205.61Z"/><path class="cls-2" d="M2952.19,1198.66q39.78,9.33,79.56,18.64a44.49,44.49,0,0,0,6.15.61q0,268.24-.19,536.51c0,1.49-2.87,4.29-4.4,4.29q-1096.18.27-2192.36,0c-1.53,0-4.4-2.8-4.4-4.29q-.3-273.29-.19-546.57c27.1-2.71,54.15-7,81.31-7.82,65.84-1.93,131.92-5.74,197.55-2.3,83.45,4.38,164.44,25.59,244.7,47.6,75.53,20.72,151,43,229.78,45.51,67.1,2.14,134.48.28,201.58-2.89,78.61-3.72,154.65-22.46,230.63-41.85,105.67-27,211.59-53.28,318.27-76,99.1-21.13,200.39-24.2,301.22-16.36,74.46,5.79,148.42,18.08,222.5,28.15,24.66,3.35,49,8.8,73.52,13.29l1.8.47,2.79.61,1.8.49,2.8.61,1.81.46Z"/><path class="cls-3" d="M2937.42,1195.16c-24.5-4.49-48.86-9.94-73.52-13.29-74.08-10.07-148-22.36-222.5-28.15-100.83-7.84-202.12-4.77-301.22,16.36-106.68,22.74-212.6,49.06-318.27,76-76,19.39-152,38.13-230.63,41.85-67.1,3.17-134.48,5-201.58,2.89-78.82-2.5-154.25-24.79-229.78-45.51-80.26-22-161.25-43.22-244.7-47.6-65.63-3.44-131.71.37-197.55,2.3-27.16.8-54.21,5.11-81.31,7.82v-2.24c116.33-19.8,232.77-37.56,351.6-32.65,82.2,3.39,162.75,16.61,242.76,34.2,57.81,12.71,115.84,23.18,175.63,21.48,79.38-2.26,156.23-19.69,233.21-36,83.54-17.7,166.44-38.32,250.11-55.35,135.46-27.58,272.59-32,410.48-25.16,144.29,7.12,283.5,39.25,421.43,78.39C2926.87,1192,2932.14,1193.61,2937.42,1195.16Z"/><path class="cls-3" d="M2952.19,1198.66l-3.77-.86Z"/><path class="cls-3" d="M2942,1196.24l-2.79-.61Z"/><path class="cls-3" d="M2946.61,1197.34l-2.8-.61Z"/><path class="cls-1" d="M2962,1205.61q0-324.37.22-648.74c0-1.71,3.32-4.92,5.1-4.92q1154.1-.33,2308.22,0c1.77,0,5.09,3.21,5.09,4.92q.34,330.53.22,661a49.39,49.39,0,0,1-6.47-.61q-41.92-9.25-83.8-18.64l-4-.86-1.91-.46-2.94-.61-1.9-.49-2.94-.61-1.9-.47c-5.56-1.55-11.11-3.14-16.68-4.64-145.28-39.14-291.91-71.27-443.89-78.39-145.23-6.79-289.68-2.42-432.35,25.16-88.13,17-175.45,37.65-263.44,55.35-81.09,16.31-162,33.74-245.64,36-63,1.7-124.1-8.77-185-21.48-84.27-17.59-169.11-30.81-255.7-34.2C3207.21,1168.05,3084.56,1185.81,2962,1205.61Z"/><path class="cls-2" d="M5190.62,1198.66q41.9,9.33,83.8,18.64a49.39,49.39,0,0,0,6.47.61q0,268.24-.2,536.51c0,1.49-3,4.29-4.63,4.29q-1154.6.27-2309.19,0c-1.61,0-4.63-2.8-4.63-4.29q-.31-273.29-.2-546.57c28.54-2.71,57-7,85.64-7.82,69.35-1.93,139-5.74,208.08-2.3,87.89,4.38,173.2,25.59,257.74,47.6,79.55,20.72,159,43,242,45.51,70.68,2.14,141.65.28,212.32-2.89,82.8-3.72,162.9-22.46,242.93-41.85,111.29-27,222.87-53.28,335.23-76,104.38-21.13,211.07-24.2,317.26-16.36,78.44,5.79,156.33,18.08,234.37,28.15,26,3.35,51.63,8.8,77.43,13.29l1.9.47,2.94.61,1.9.49,2.94.61,1.91.46Z"/><path class="cls-3" d="M5175.06,1195.16c-25.8-4.49-51.46-9.94-77.43-13.29-78-10.07-155.93-22.36-234.37-28.15-106.19-7.84-212.88-4.77-317.26,16.36-112.36,22.74-223.94,49.06-335.23,76-80,19.39-160.13,38.13-242.93,41.85-70.67,3.17-141.64,5-212.32,2.89-83-2.5-162.47-24.79-242-45.51-84.54-22-169.85-43.22-257.74-47.6-69.13-3.44-138.73.37-208.08,2.3-28.61.8-57.1,5.11-85.64,7.82v-2.24c122.52-19.8,245.17-37.56,370.33-32.65,86.59,3.39,171.43,16.61,255.7,34.2,60.89,12.71,122,23.18,185,21.48,83.61-2.26,164.55-19.69,245.64-36,88-17.7,175.31-38.32,263.44-55.35,142.67-27.58,287.12-32,432.35-25.16,152,7.12,298.61,39.25,443.89,78.39C5164,1192,5169.5,1193.61,5175.06,1195.16Z"/><path class="cls-1" d="M1321.28,1205.91q0-324.51-.26-649c0-1.71-3.87-4.92-5.93-4.92Q-26,551.62-1367,552c-2.06,0-5.92,3.21-5.92,4.93q-.4,330.66-.26,661.33a68.89,68.89,0,0,0,7.53-.6q48.7-9.27,97.37-18.65l4.61-.86,2.22-.47,3.42-.6,2.21-.49,3.41-.61,2.21-.47c6.46-1.55,12.9-3.14,19.38-4.65,168.82-39.16,339.2-71.3,515.8-78.42,168.76-6.8,336.6-2.42,502.39,25.17,102.41,17,203.87,37.67,306.12,55.37,94.22,16.32,188.27,33.76,285.43,36,73.17,1.7,144.19-8.77,215-21.49,97.92-17.6,196.51-30.82,297.12-34.21C1036.39,1168.34,1178.9,1186.1,1321.28,1205.91Z"/><path class="cls-2" d="M-1268.32,1199q-48.67,9.35-97.37,18.65a68.89,68.89,0,0,1-7.53.6q0,268.38.24,536.76c0,1.5,3.51,4.29,5.38,4.29q1341.63.29,2683.26,0c1.87,0,5.38-2.79,5.38-4.29q.38-273.4.24-546.82c-33.17-2.71-66.28-7-99.51-7.82-80.59-1.93-161.47-5.75-241.8-2.3-102.13,4.38-201.26,25.6-299.49,47.62-92.44,20.73-184.76,43-281.23,45.53-82.12,2.14-164.58.28-246.71-2.89-96.21-3.72-189.29-22.47-282.28-41.87-129.32-27-259-53.3-389.53-76.06-121.29-21.14-245.27-24.21-368.66-16.36-91.14,5.79-181.66,18.08-272.33,28.16-30.19,3.35-60,8.8-90,13.3l-2.21.47-3.41.61-2.21.49-3.42.6-2.22.47Z"/><path class="cls-3" d="M-1250.24,1195.46c30-4.5,59.79-10,90-13.3,90.67-10.08,181.19-22.37,272.33-28.16,123.39-7.85,247.37-4.78,368.66,16.36,130.56,22.76,260.21,49.09,389.53,76.06,93,19.4,186.07,38.15,282.28,41.87,82.13,3.17,164.59,5,246.71,2.89,96.47-2.5,188.79-24.8,281.23-45.53,98.23-22,197.36-43.24,299.49-47.62,80.33-3.45,161.21.37,241.8,2.3,33.23.8,66.34,5.11,99.51,7.82v-2.24c-142.38-19.81-284.89-37.57-430.33-32.66-100.61,3.39-199.2,16.61-297.12,34.21-70.76,12.72-141.78,23.19-215,21.49-97.16-2.26-191.21-19.7-285.43-36-102.25-17.7-203.71-38.34-306.12-55.37-165.79-27.59-333.63-32-502.39-25.17-176.6,7.12-347,39.26-515.8,78.42C-1237.34,1192.32-1243.78,1193.91-1250.24,1195.46Z"/><path class="cls-4" d="M1907.19,1503.44c22.66-1.15,45.3-2.72,68-3.33,20.08-.54,40.19-.4,60.27.17,18.21.51,36.39,2,54.59,3a20.78,20.78,0,0,0,3.95-.52c.56.39,1.08,1.07,1.67,1.13,6.73.65,13.49,1.08,20.21,1.82,8.09.89,16.16,1.94,24.22,3.09,7.52,1.07,15,2.22,22.48,3.58,9.93,1.8,19.84,3.71,29.69,5.87,3.13.69,6.07,2.3,9,3.61.54.23.81,1.06,1.21,1.62a8.55,8.55,0,0,1-1.67.64,15.08,15.08,0,0,1-2.23,0c-7.45,0-14.9,0-22.35,0a.92.92,0,1,0-.16,1c1.73.27,3.5.38,5.23.69,11.3,2,22.62,3.88,33.89,6,15.72,3,31.5,5.9,47.07,9.6,12.34,2.93,24.42,7,36.61,10.6A161.36,161.36,0,0,1,2332,1566c5.34,3,10.47,6.35,15.63,9.65.75.48,1.11,1.55,1.65,2.35a9.49,9.49,0,0,1-2.81.84c-4.55-.06-9.09-.37-13.63-.42-7.54-.09-15.08,0-22.63-.06-.64,0-1.29.08-1.94.12a9.44,9.44,0,0,0,1.87.9,313.39,313.39,0,0,1,55.56,18.91c14.76,6.55,29.24,13.76,43.57,21.21,7.8,4,15,9.19,22.51,13.88,2.41,1.52,4.74,3.18,7.11,4.77l6.63,6.1c.76.81,1.54,1.6,2.28,2.42,1.8,2,1.46,3.92-1,5.13a13.74,13.74,0,0,1-2.92.9c-5.06,1.14-10.1,2.33-15.19,3.35-7.81,1.57-15.65,3-23.47,4.51-9.55,1.85-19.09,3.76-28.63,5.62-2.82.55-5.65,1-8.47,1.52-.33.07-.6.5-.9.76a5.28,5.28,0,0,0,1,.4c6.91,1.32,13.89,2.36,20.74,4,11,2.61,22,5.34,32.8,8.54,6.4,1.89,6.66,4.67,1.61,9-.21.18-.42.37-.64.54a234.32,234.32,0,0,1-35.32,22.23,463.72,463.72,0,0,1-71.41,29.91,371.79,371.79,0,0,1-60.71,13.64,46,46,0,0,0-5.75,1.6H1750.47c-.45-.36-.86-.95-1.35-1-7.5-1.22-15-2.24-22.51-3.54-23.44-4-46-11.3-68.12-19.81a374.53,374.53,0,0,1-61-29.9,240.12,240.12,0,0,1-21.25-15.26c-3.17-2.46-2.68-5,1.12-6.47a152.29,152.29,0,0,1,18.8-6c12-2.78,24.14-5,36.21-7.46a13.55,13.55,0,0,0,1.81-.66c-.62-.24-1.23-.49-1.86-.71a4.54,4.54,0,0,0-.81-.19c-10.65-2-21.33-3.87-32-5.94-11.46-2.24-22.88-4.64-34.31-7-3.35-.69-6.75-1.27-10-2.22s-3.89-3.2-1.56-5.76c.62-.68,1.22-1.36,1.83-2l7.11-6c5-3.5,9.94-7.19,15.13-10.44,7.48-4.69,14.88-9.62,22.8-13.44,19.5-9.39,38.94-19,59.59-25.73,10.14-3.3,20.43-6.17,30.65-9.27a8.07,8.07,0,0,0,1.56-.88c-.63,0-1.27-.16-1.9-.15-11.9.16-23.81.37-35.71.48a10.44,10.44,0,0,1-3-.91c.6-.87,1-2,1.84-2.55,5.73-3.62,11.42-7.32,17.35-10.59,13.85-7.65,28.87-12.34,44-16.71,11.76-3.41,23.57-6.72,35.5-9.43s23.82-4.65,35.77-6.8c12.67-2.29,25.36-4.43,38-6.64.35-.06.69-.16,1-.24a5,5,0,0,0-1.16-.28c-7.89,0-15.77,0-23.65-.13a6.89,6.89,0,0,1-2.21-.86c.44-.65.73-1.6,1.34-1.9a49.92,49.92,0,0,1,6.41-2.69c14.61-4.85,29.84-6.72,45-8.89,15.67-2.24,31.44-3.86,47.16-5.74Zm94.85,30.24,0-.41c-12,.5-23.93.94-35.89,1.52-9.62.47-19.26.82-28.84,1.77-11.4,1.14-22.78,2.57-34.09,4.41-13.77,2.24-27.52,4.73-41.15,7.67a338.53,338.53,0,0,0-46.93,13.87c-17.56,6.53-34.48,14.31-49.68,25.43-10.91,8-20.42,17.21-25.82,30a37.86,37.86,0,0,0-.5,29.27c4.43,11.51,12.44,20.34,22,27.87a171.1,171.1,0,0,0,34.56,20.7,275,275,0,0,0,44.18,16.08c14.57,3.89,29.29,7.25,44.06,10.3,11,2.27,22.21,3.9,33.38,5.37q16.37,2.15,32.84,3.35c11.46.85,23,1.51,34.44,1.67,13.38.18,26.77-.18,40.16-.49,7.88-.18,15.75-.58,23.61-1.11,8.86-.6,17.72-1.32,26.55-2.24,9.38-1,18.76-2,28.07-3.46a497.29,497.29,0,0,0,56.71-12.07c24.22-6.82,47.8-15.19,69.35-28.44,13.16-8.1,25.15-17.54,32.91-31.32,6.19-11,7.41-22.48,2.88-34.3-4.42-11.52-12.48-20.31-22-27.86a167.26,167.26,0,0,0-34.55-20.7,276,276,0,0,0-44.18-16.09c-14.57-3.88-29.29-7.25-44.06-10.29-11-2.27-22.21-3.91-33.38-5.38q-16.36-2.15-32.84-3.34c-11.55-.86-23.14-1.29-34.72-1.73C2013.41,1533.5,2007.72,1533.68,2002,1533.68Z"/><path class="cls-5" d="M2249.53,1758.33a46,46,0,0,1,5.75-1.6,371.79,371.79,0,0,0,60.71-13.64,463.72,463.72,0,0,0,71.41-29.91,234.32,234.32,0,0,0,35.32-22.23c.22-.17.43-.36.64-.54,5-4.34,4.79-7.12-1.61-9-10.83-3.2-21.81-5.93-32.8-8.54-6.85-1.62-13.83-2.66-20.74-4a5.28,5.28,0,0,1-1-.4c.3-.26.57-.69.9-.76,2.82-.54,5.65-1,8.47-1.52,9.54-1.86,19.08-3.77,28.63-5.62,7.82-1.52,15.66-2.94,23.47-4.51,5.09-1,10.13-2.21,15.19-3.35a13.74,13.74,0,0,0,2.92-.9c2.43-1.21,2.77-3.16,1-5.13-.74-.82-1.52-1.61-2.28-2.42a13.9,13.9,0,0,1,.71-2.68,3,3,0,0,1,5.38-.28,24,24,0,0,1,2.11,3.58c.82,2,1.57,3.67,4.3,3,.29-.08,1,1.64,1.56,2.52l.07,0H2459a3.87,3.87,0,0,0-1.09.08c-.92.34-1.8.76-2.7,1.15a26.78,26.78,0,0,0,2.69,0c1-.12,1.93-.4,2.89-.61.1,0,.2,0,.28,0,1.27.45,2.53.91,3.79,1.38a19,19,0,0,1-3.61,1.92,27,27,0,0,1-4.7.62,5,5,0,0,0-4.65,5.43c.13,2.58.32,5.15.42,7.73.1,2.79-1.34,4.73-3.55,6.25a10.16,10.16,0,0,0-1.48,1.52c.67.19,1.35.39,2,.57,8.17,2.13,16.36,4.23,24.52,6.42a22.11,22.11,0,0,1,3.49,1.64l0,.72-2.09,0-3.84-.9c-1.47-.44-2.94-.89-4.42-1.29a3.25,3.25,0,0,0-1.07,0,4.76,4.76,0,0,0,1,.68c1.48.45,3,.83,4.47,1.24l3.92,1.16,3.21,2.07a20.73,20.73,0,0,1-3.71-.34c-7.32-1.93-14.62-3.94-21.93-5.93l-3.34-.85a3.71,3.71,0,0,0-1-.47c-1-.15-2-.21-2.95-.31l3.07.88,4.25,1.6c1.61.63,3.24,1.2,4.8,2,.5.24.78.94,1.16,1.43l-3.16-.34c1.09.44,2.19.87,3.29,1.29.06,0,.17-.05.25-.07,3.17,1.06,6.37,2.06,9.48,3.25.69.27,1.09,1.25,1.63,1.91a7,7,0,0,1-2.26.34c-1.74-.32-3.42-1-4.55,1.22-.14.28-1.39.15-2.06,0-1.87-.53-3.7-1.23-5.56-1.79-1.23-.37-2.44-1.37-3.74.2-.29.36-1.72-.14-2.6-.36-3.44-.85-6.88-1.75-10.31-2.64a.7.7,0,0,0,.14-.21s0-.12-.05-.18l-.06.36c-.58.33-1.26,1-1.71.92-1.43-.39-2.74-1.16-4.14-1.63a2.35,2.35,0,0,0-1.87.1,2.18,2.18,0,0,0-.76,1.84c1.56,4.06-.46,6.37-3.74,8.13-1.06.57-2.16,1.08-3.23,1.62-1.77.89-2.24,1.94-.88,3.72a22.47,22.47,0,0,1,2,4.06l-4-2-1.75-.85c.08.61.16,1.23.25,1.84,0,.08.1.16.12.25.23,1.31.45,2.63.67,3.94a27,27,0,0,0-2.74-2.29,2.52,2.52,0,0,0-2-.36,37.2,37.2,0,0,0-3.84,2.27l-3.58,2.15a13.62,13.62,0,0,1,2.17,2.74c.54,1.22,1.31,3,.82,3.9-1.75,3.25-4,6.22-6,9.3-.37.57-1.05,1.26-1,1.77.7,3.88.3,5.54-3.1,7.47-6.2,3.54-12.45,7-18.91,10.09-7.77,3.66-15.79,6.82-23.7,10.19Zm186.68-87.2-2.13,2.23a18.27,18.27,0,0,0,2.28,1c.21.06.88-.56.83-.73A17.79,17.79,0,0,0,2436.21,1671.13Z"/><path class="cls-5" d="M1555.45,1644.32c-.61.68-1.21,1.36-1.83,2-2.33,2.56-1.84,4.77,1.56,5.76s6.68,1.53,10,2.22c11.43,2.35,22.85,4.75,34.31,7,10.63,2.07,21.31,4,32,5.94a4.54,4.54,0,0,1,.81.19c.63.22,1.24.47,1.86.71a13.55,13.55,0,0,1-1.81.66c-12.07,2.47-24.21,4.68-36.21,7.46a152.29,152.29,0,0,0-18.8,6c-3.8,1.42-4.29,4-1.12,6.47a240.12,240.12,0,0,0,21.25,15.26,374.53,374.53,0,0,0,61,29.9c22.1,8.51,44.68,15.76,68.12,19.81,7.49,1.3,15,2.32,22.51,3.54.49.08.9.67,1.35,1h-89.42a15.2,15.2,0,0,0-2.63-.49c-5.27,0-10.53,0-15.8,0-14-5.67-28.33-10.63-41.16-18.9-3.21-2.07-6.18-4.08-4.3-8.67.12-.3-.79-1-1.16-1.54-2-3-4.38-5.82-6-9-1-2,.24-4.21,2.21-5.53,1.19-.8,1-1.24-.11-1.88a60.83,60.83,0,0,1-6-3.6c-1.62-1.19-2.5-.9-3.45.75-.38.66-1.3,1-2,1.51a23.38,23.38,0,0,1,.21-2.38c.23-1.29.56-2.57.85-3.86-1,.69-2.07,1.37-3.09,2.07a10.18,10.18,0,0,1-1.34,1c-.35.16-1,.2-1.2,0a1.27,1.27,0,0,1-.12-1.21,19.63,19.63,0,0,1,1.84-2.43c1.65-1.89,1.38-3.1-.93-4.2a38.15,38.15,0,0,1-3.7-1.93c-3.32-2-3.8-3.37-3.12-7.18a3.06,3.06,0,0,0-.75-2.35c-.36-.37-1.45-.23-2.12,0-1.41.45-2.73,1.21-4.15,1.6-.41.11-1.05-.63-1.58-1l.34-.34-.36,0,.08.41c-2.95.71-5.89,1.47-8.85,2.13-1.64.37-3.29,2-5,0-.2-.23-1.22.14-1.82.34-2.12.66-4.19,1.51-6.35,2-.77.18-1.72-.58-2.62-.71-1.37-.2-2.76-.22-4.14-.35-.68-.06-1.35-.18-2-.27.47-.57.83-1.43,1.43-1.66,3.2-1.21,6.45-2.27,9.69-3.37.09,0,.19.08.27,0l3.4-1.35-3.47.28,4.36-2.71,7.79-2.35,2.87-1.22-2.92.44-7.74,2-23.56,6.16c0-.38,0-.76,0-1.15l4.52-1.68,10.85-3.13a3.93,3.93,0,0,0,.7-.42,2.36,2.36,0,0,0-.85-.12c-3.56.9-7.11,1.82-10.67,2.73l-3.56,0a13.4,13.4,0,0,1,3-1.72c8.26-2.21,16.55-4.31,24.83-6.46.77-.2,1.51-.49,2.26-.75a10.7,10.7,0,0,0-1.51-1.5c-3-2-3.57-4.62-3.46-8.17.09-3,1.58-6.57-1.09-9.31a6.91,6.91,0,0,0-3.11-1.85c-1.88-.46-3.91-.34-5.79-.8-1-.25-1.87-1.19-2.8-1.82a28.2,28.2,0,0,1,2.93-1.42c.49-.18,1.14.14,1.66,0s3.16,1.36.95-1.27c-1.06-1.26.63-2,1.75-1.71,2,.45,2.68-.38,3.31-2.15a21.92,21.92,0,0,1,2.77-4.79,3,3,0,0,1,5.2.52A12.76,12.76,0,0,1,1555.45,1644.32Zm1.06,38.67c-.49-.21-.71-.4-.86-.35q-4.26,1.18-8.49,2.45c-.2.06-.32.37-.47.57a3.13,3.13,0,0,0,1.15.14c2.47-.73,4.93-1.52,7.39-2.3C1555.56,1683.4,1555.87,1683.25,1556.51,1683Zm8.41-8.22,2.13-1.43c-.56-.38-1.15-1.08-1.69-1s-1.06.79-1.58,1.23Zm-6-17.91c-.16-.08-.33-.23-.44-.2s-.26.23-.39.35a1.29,1.29,0,0,0,.45.11C1558.65,1657.1,1558.76,1657,1558.9,1656.86Zm-14.58-5.8-.39.24a2,2,0,0,0,.51.15,1.73,1.73,0,0,0,.52-.13Z"/><path class="cls-5" d="M2565.43,1593.27c1.48,1.41,3,2.77,4.41,4.27.4.44.34,1.29.49,2a5.45,5.45,0,0,1-1.83-.57c-3.27-2.61-6.45-5.33-9.73-7.92-.54-.43-1.83-.81-2.08-.55a33.6,33.6,0,0,0-2.75,3.76,9.28,9.28,0,0,1,1.85,1.06,18.58,18.58,0,0,1,1.78,2.16c-.77.52-1.55,1.48-2.32,1.48a3.86,3.86,0,0,0-3.64,1.86c-1.68,2.39-4.55,1.15-6.27.67-3.72-1-6,2-9.19,2.12-.13,0-.25.35-.37.54a2.47,2.47,0,0,1,.68.37c.74.76,1.45,1.55,2.17,2.34-.87.7-1.65,1.79-2.63,2-2.79.7-5.68,1-8.51,1.54-4,.76-7.93,1.74-11.93,2.38-2.65.42-5.36.38-8,.61-.67.05-1.78.18-1.92.55-1.09,3-3.44,2.25-5.41,1.76-10.3-2.52-20.56-5.19-30.84-7.81-3.24-.83-6.48-1.69-9.73-2.47-1.11-.27-2.3-.9-2.12,1.4s-1.83,3.72-4.15,3a16.06,16.06,0,0,1-3.71-1.9c-6.37-4.19-12.76-8.38-19-12.75-.88-.62-1.17-2.23-1.51-3.44-.56-2,1.47-5-2.38-5.59-.35-.06-.86-1.13-.74-1.58a2.38,2.38,0,0,1,1.35-1.54c1.29-.33,1.92-.63,1.54-2.22-.12-.49,1-1.67,1.79-1.92,1.75-.58,3.49.18,4.89-2.52,1.11-2.16,4.87-3.07,7.58-4.22a17.57,17.57,0,0,1,5.17-1c9.82-.92,19.63-2,29.47-2.55,6.76-.35,13.57.19,20.36.31.7,0,1.4-.11,2.1-.17a8.47,8.47,0,0,0-1.53-1.81,7.37,7.37,0,0,0-2.34-.86c-15.52-3.86-31.05-7.68-46.56-11.58a39.38,39.38,0,0,1-4.81-1.9,31.12,31.12,0,0,1,5.27-.19c3.87.47,7.7,1.42,11.58,1.78,2.49.23,5.18-.84,7.56-.31,9.89,2.16,19.74,4.53,29.49,7.25,2.56.71,3.15-.83,4.41-1.92a14.24,14.24,0,0,0-1.24-1.33c-.85-.71-1.76-1.36-2.64-2,1.13.1,2.46-.16,3.37.35,7.92,4.46,17,4.52,25.47,6.9,7.36,2.07,14.62,4.46,20.88,9.06,3.91,2.87,7.75,5.83,9.22,10.84.2.65,1.1,1.18,1.79,1.58q9.49,5.52,19,11c.11.06.41-.2.62-.31v1.12c-2.39,1.35-3.32-1.33-5-1.83l-5.61-2.62-.54-.56-1.1-.61-1.13-.54-.64-.41-.15.23.77.21,1.06.62,1.23.9a.82.82,0,0,0,.53.12l5.46,3.49c-.26,1.86-1.25,1.31-2.32.75-2.11-1.11-4.23-2.18-6.35-3.26l-.67-.5-1.14-.36.56,1Zm-16.4-14.83.33.23-.24-.32-1.7-1.63c-4.35-2.25-8.7-4.52-13.07-6.73-.38-.19-.94,0-1.42,0,.35.38.61.91,1,1.12,4.23,2.13,8.48,4.21,12.72,6.31Zm-44.51,20.41c10-.66,20.14-1.22,30.26-2.08,2.72-.23,5.39-1.31,8-2.2a15.85,15.85,0,0,0,3.08-1.94,16.6,16.6,0,0,0-1.9-1.94,36,36,0,0,0-3.12-1.84l-2.34-1.33c.69,0,1.53.14,2-.19a13.53,13.53,0,0,0,2.14-2.14,7.4,7.4,0,0,1,1.27-1.29c.33-.21.87-.09,1.31-.12a13.12,13.12,0,0,0-1.32-.93c-8.1-4.1-16.73-6.59-25.51-8.77a128.51,128.51,0,0,0-39.59-3.42c-8.62.56-17.2,1.75-25.82,2.42-5,.39-9.87.53-13.91,4-.44.38-.91.73-1.36,1.1.55,0,1.1,0,1.65-.09,8.2-1.08,16.4-2.17,24.61-3.21a6.36,6.36,0,0,1,1.86.38c-.49.54-1,1.09-1.46,1.62-.67.7-1.89,1.37-1.92,2.09-.05,1.71-1,1.64-2.16,1.73-1.94.15-3.89.32-5.83.58-.68.09-1.7.28-1.92.74-1,2.11-2.77,1.71-4.56,1.71-3,0-6.09.18-9.13.37-.42,0-.82.5-1.23.77a4.28,4.28,0,0,0,1,.86c9.81,3.92,19.29,8.78,30,10.2,5.53.73,11,2.39,16.49,2.83C2491.5,1599.23,2497.93,1598.85,2504.52,1598.85Zm31.48-24.58c-1.48-.82-2.31-1.33-3.19-1.73-.2-.09-.56.17-.85.28.79.48,1.56,1,2.37,1.43C2534.57,1574.38,2534.94,1574.27,2536,1574.27Zm15.5,13.78c-.23-.26-.37-.55-.55-.57s-.43.18-.65.29a3.48,3.48,0,0,0,.57.68C2550.93,1588.49,2551.22,1588.23,2551.5,1588.05Zm11.89,3.56.1-.14-.18,0Z"/><path class="cls-5" d="M1421.29,1595.14c.21.11.5.37.61.31q9.55-5.45,19-11a6.92,6.92,0,0,0,1.91-1.83c2.11-2.77,3.76-6,6.31-8.29,8.26-7.35,18.57-10.5,29.12-12.57,6.78-1.33,13.5-2.54,19.74-5.63a2.93,2.93,0,0,1,1.06-.34c.86-.06,1.73,0,2.6-.06-.63.56-1.25,1.14-1.89,1.69s-1.33,1.12-2,1.68c1.33.54,1.28,2.78,3.87,2.06,9.93-2.75,20-5,30-7.49,7.39,1.61,14.43-1.21,21.66-1.68a12,12,0,0,1,2.78.49,12.76,12.76,0,0,1-2.64,1.37c-3.87,1-7.79,1.79-11.67,2.76-12.27,3.06-24.53,6.18-36.79,9.27a4.7,4.7,0,0,0-1.59.49c-.91.68-1.71,1.5-2.55,2.26a17,17,0,0,0,2.93.13c13.26-1.75,26.35,1,39.52,1.62,3.62.18,7.37,0,10.82.89,4,1,8.47,2.26,11.2,5,1.93,1.91,3.9,1.71,5.55,2.79,1.83,1.18,2.13,4.14,4.26,5.49.06,0-.42,1.48-.76,1.54-3.82.64-1.85,3.62-2.39,5.58-.34,1.22-.62,2.84-1.5,3.45-6.25,4.38-12.63,8.56-19,12.75a15.2,15.2,0,0,1-4,2c-2.08.62-4.08-.67-3.88-2.72.25-2.55-1-2-2.39-1.65-9.17,2.44-18.32,4.94-27.5,7.32-4.42,1.14-8.87,2.12-13.34,3-1.88.38-4,.8-4.88-1.85-.13-.37-1.25-.59-1.9-.56a27,27,0,0,1-11.72-1.91c-2.31-1-5.12-.69-7.69-1.07-3-.44-6.09-.85-9.08-1.55-1-.24-1.76-1.33-2.64-2,.71-.78,1.42-1.58,2.15-2.35a6.69,6.69,0,0,1,.76-.63c-.32-.15-.63-.31-1-.45-4-1.79-8.18-2.8-12.58-1.44-.09,0-.21.07-.27,0a39.81,39.81,0,0,0-7.63-4c-1.4-.51.08-2,1.29-2.78.69-.41,3-.22,1.41-1.89-1.08-1.1-1.29-4.76-4.32-2.35-3.27,2.6-6.45,5.33-9.72,7.94a5.71,5.71,0,0,1-1.83.6c.14-.66.07-1.52.47-2,1.38-1.51,2.92-2.86,4.4-4.28l.69-.43.56-1-1.14.36-.67.5c-2.12,1.08-4.25,2.15-6.35,3.26-1.07.56-2.07,1.11-2.32-.75q2.73-1.74,5.45-3.49a.86.86,0,0,0,.54-.12l1.23-.9,1.06-.62.77-.21-.14-.22-.65.4-1.14.54-1.09.61-.54.56-5.61,2.63c-.32.16-.76.25-1,.51a3.41,3.41,0,0,1-4.08,1.31Zm30.8-16.7,2.34-1c4.24-2.1,8.49-4.18,12.72-6.31.42-.21.69-.74,1-1.12-.47,0-1-.19-1.41,0-4.37,2.21-8.72,4.48-13.07,6.73l-1.7,1.63-.24.32Zm61.13-8.24,0,.18c-1.58,0-3.17-.09-4.74,0-17.62,1.07-34.66,4.55-50.68,12.24-.65.31-1.26.71-1.89,1.08a8.92,8.92,0,0,1,1.74.31c.29.11.44.56.67.84,1,1.22,1.59,3.07,3.79,2.48.16,0,.35.07.53.11a4.94,4.94,0,0,1-.76.69c-2.06,1.25-4.19,2.38-6.17,3.75-.8.55-1.57,1.6.24,2.18,2.55.8,5,2,7.62,2.45a132.1,132.1,0,0,0,16.21,1.76c12.17.38,24.37.85,36.52.36a92.64,92.64,0,0,0,21.69-3.73c8.28-2.4,16.21-6,24.27-9.12a5.1,5.1,0,0,0,1.24-1c-.53-.27-1-.74-1.59-.77-3-.16-6.09-.14-9.13-.33a13.4,13.4,0,0,1-3.63-.84c-1.19-.44-2.23-1.38-3.43-1.65-1.8-.4-3.7-.35-5.54-.62-.51-.07-1.34-.56-1.35-.89-.06-1.84-1.07-2.59-2.72-3-.38-.1-.55-1-.82-1.52a4,4,0,0,1,1.37-.37c3.25.31,6.49.61,9.72,1,5.25.71,10.49,1.54,15.74,2.3a8.23,8.23,0,0,0,1.31,0c-.16-.21-.28-.5-.49-.62-3.37-1.93-6.6-3.88-10.76-4.15C1539.16,1572.47,1526.19,1571.26,1513.22,1570.2Zm-43.67,3c-.47-.45-.73-.78-.8-.74-1,.46-1.88,1-2.82,1.48.15.14.33.41.42.39C1467.34,1574,1468.31,1573.64,1469.55,1573.2Zm-19.37,15.39.64-.5-.61-.65c-.15.18-.4.35-.42.54S1450,1588.34,1450.18,1588.59Zm-12.47,3,.11-.14-.18,0Z"/><path class="cls-5" d="M2438.89,1638.17c-2.37-1.59-4.7-3.25-7.11-4.77-7.47-4.69-14.71-9.83-22.51-13.88-14.33-7.45-28.81-14.66-43.57-21.21a313.39,313.39,0,0,0-55.56-18.91,9.44,9.44,0,0,1-1.87-.9c.65,0,1.3-.12,1.94-.12,7.55,0,15.09,0,22.63.06,4.54,0,9.08.36,13.63.42a9.49,9.49,0,0,0,2.81-.84c-.54-.8-.9-1.87-1.65-2.35-5.16-3.3-10.29-6.67-15.63-9.65a161.36,161.36,0,0,0-33.11-13.81c-12.19-3.61-24.27-7.67-36.61-10.6-15.57-3.7-31.35-6.56-47.07-9.6-11.27-2.17-22.59-4.06-33.89-6-1.73-.31-3.5-.42-5.23-.69a.92.92,0,1,1,.16-1c7.45,0,14.9,0,22.35,0a15.08,15.08,0,0,0,2.23,0,8.55,8.55,0,0,0,1.67-.64c-.4-.56-.67-1.39-1.21-1.62-3-1.31-5.91-2.92-9-3.61-9.85-2.16-19.76-4.07-29.69-5.87-7.46-1.36-15-2.51-22.48-3.58-8.06-1.15-16.13-2.2-24.22-3.09-6.72-.74-13.48-1.17-20.21-1.82-.59-.06-1.11-.74-1.67-1.13.05-6.14.05-6.2,6.28-5.5,6.84.76,13.66,1.64,20.49,2.46.55.07,1.1.11,1.65.17-.24-.47-.44-1-.72-1.39-1.09-1.77-.3-3.15,1.18-4a7.47,7.47,0,0,1,3.94-1.07c4.43.38,8.87.9,13.26,1.63,10.63,1.77,21.26,3.58,31.84,5.62a108.78,108.78,0,0,1,12,3.44,3.46,3.46,0,0,1,2.14,1.62c.84,2.61,2.62,2.73,4.84,2.4a2.65,2.65,0,0,1,2.09.46c1.9,2.37,4.52,1.9,6.93,1.82,4-.12,7.9.4,12-.56,3.84-.89,8.24.65,12.39,1.13,14,1.59,27.45,5.51,41.08,8.74,7.58,1.8,15.26,3.14,22.93,4.52,2.95.54,5,1.78,5.83,4.78a2.49,2.49,0,0,0,1,1.52c4.85,2.33,9.69,4.69,14.65,6.74,1.46.6,3.32.2,5,.33a6.38,6.38,0,0,1,2.41.45c6.11,3.14,12,6.65,18.29,9.47,7.71,3.48,15.67,6.41,23.52,9.58h0c.76.56,1.48,1.17,2.27,1.66,3.19,2,7,3.16,7.85,7.62.11.58,1,1.06,1.57,1.51,3.16,2.44,6.34,4.86,9.51,7.29,1.65,1.26,3,2.83,5.58,2.36,1-.18,2.4.87,3.4,1.64a56.91,56.91,0,0,1,5.21,4.6c1.47,1.46,2.64,2.7,5.19,2.15,1.4-.3,3.43.81,4.75,1.84a146.15,146.15,0,0,1,27.35,28.42c2,2.62,2.92,6,4.39,9,1.15,2.32,2.32,4.63,3.56,6.9S2440.86,1636.37,2438.89,1638.17Z"/><path class="cls-5" d="M1907.19,1503.44l-9.09,1.09c-15.72,1.88-31.49,3.5-47.16,5.74-15.12,2.17-30.35,4-45,8.89a49.92,49.92,0,0,0-6.41,2.69c-.61.3-.9,1.25-1.34,1.9a6.89,6.89,0,0,0,2.21.86c7.88.09,15.76.09,23.65.13a5,5,0,0,1,1.16.28c-.35.08-.69.18-1,.24-12.69,2.21-25.38,4.35-38,6.64-12,2.15-23.94,4.11-35.77,6.8s-23.74,6-35.5,9.43c-15.1,4.37-30.12,9.06-44,16.71-5.93,3.27-11.62,7-17.35,10.59-.83.52-1.24,1.68-1.84,2.55a10.44,10.44,0,0,0,3,.91c11.9-.11,23.81-.32,35.71-.48.63,0,1.27.1,1.9.15a8.07,8.07,0,0,1-1.56.88c-10.22,3.1-20.51,6-30.65,9.27-20.65,6.72-40.09,16.34-59.59,25.73-7.92,3.82-15.32,8.75-22.8,13.44-5.19,3.25-10.1,6.94-15.13,10.44-2.15-1.66-2.15-3.71-1.09-6,1.77-3.77,3.45-7.58,5.31-11.31a33.6,33.6,0,0,1,3.56-6c7.64-9.65,15.91-18.72,25.54-26.46,2.15-1.73,4.39-3.09,7.41-2.33.62.16,1.62-.59,2.26-1.14,2.11-1.82,4-4,6.24-5.55,1.39-1,3.35-1.17,5-1.77a9,9,0,0,0,2.41-1.13c3.21-2.39,6.37-4.85,9.54-7.3,1.73-1.33,3.51-2.44,4.06-5,.28-1.27,2-2.39,3.29-3.23a33.58,33.58,0,0,1,6.39-3.42,225.43,225.43,0,0,0,34.49-16.31,62.11,62.11,0,0,1,6.82-3.17,3.37,3.37,0,0,1,2.14-.4c4,1.38,7.14-1,10.48-2.29,2.15-.86,4.1-2.19,6.19-3.21s4.35-1.87,5.22-4.8c.39-1.33,2.89-2.52,4.62-2.88,6.37-1.31,12.89-1.92,19.22-3.4,8.59-2,17-5,25.59-6.76,10.18-2.06,20.54-3.23,30.81-4.79,5.08,2.25,10.38.69,15.58.85,1.2,0,2.42-.89,3.66-1.26a15.71,15.71,0,0,1,3.65-.85c1.74-.09,3.29,0,3.94-2.2a3.77,3.77,0,0,1,2.23-1.9,86.11,86.11,0,0,1,10.93-3.25c11.86-2.32,23.77-4.45,35.68-6.51,3.38-.58,6.84-.74,10.28-1a7.8,7.8,0,0,1,3,.43c2.91,1,3.3,3.18,1.06,5.46-3.45.6-6.91,1.19-10.36,1.84-.38.07-.7.52-1,.79a3.71,3.71,0,0,0,1.08.13c3.53-.64,7-1.32,10.56-2,8.91-1.09,17.83-2.15,26.73-3.32,1.62-.21,1.89.37,1.85,1.77C1906.9,1500.31,1907.1,1501.88,1907.19,1503.44Z"/><path class="cls-5" d="M2406.64,1569.32c2.54-.15,5,.46,5.53,3.11a6.22,6.22,0,0,1-1.28,4.91c-1.78,1.88-3.95,3.54-7.11,1.78-4.2-2.35-8.65-4.25-13-6.37a11.8,11.8,0,0,1-1.34-.92,7.23,7.23,0,0,1,1.45-.53C2396.15,1570.62,2401.39,1570,2406.64,1569.32Z"/><path class="cls-5" d="M1594.93,1569.52l15.28,2a4.21,4.21,0,0,1,.94.38,5.25,5.25,0,0,1-.84.67c-4.68,2.29-9.33,4.66-14.07,6.82-2.58,1.18-4.7-.52-6.09-2.24a6.46,6.46,0,0,1-1-5C1589.78,1569.76,1592.14,1569.35,1594.93,1569.52Z"/><path class="cls-6" d="M1527.53,1684.73c3.56-.91,7.11-1.83,10.67-2.73a2.36,2.36,0,0,1,.85.12,3.93,3.93,0,0,1-.7.42l-10.85,3.13Z"/><path class="cls-4" d="M1878.36,1500.3c-3.52.67-7,1.35-10.56,2a3.71,3.71,0,0,1-1.08-.13c.34-.27.66-.72,1-.79,3.45-.65,6.91-1.24,10.36-1.84Z"/><path class="cls-7" d="M1546.49,1682.34l7.74-2c0,.26,0,.52,0,.78l-7.79,2.35Z"/><path class="cls-7" d="M2574.68,1595.26l-5.46-3.49,0,0,5.61,2.62Z"/><path class="cls-7" d="M1431.89,1591.77q-2.72,1.76-5.45,3.49l-.12-.82,5.61-2.63Z"/><path class="cls-8" d="M2460.75,1651c-1,.21-1.92.49-2.89.61a26.78,26.78,0,0,1-2.69,0c.9-.39,1.78-.81,2.7-1.15a3.87,3.87,0,0,1,1.09-.08l.52.36.17-.37-.07,0Z"/><path class="cls-6" d="M1542.13,1686.15l3.47-.28-3.4,1.35c-.08,0-.18,0-.27,0C1542,1686.83,1542.07,1686.49,1542.13,1686.15Z"/><path class="cls-6" d="M2471.39,1684.35l3.84.9c0,.31.07.62.1.94l-3.92-1.16C2471.4,1684.8,2471.4,1684.57,2471.39,1684.35Z"/><path class="cls-6" d="M2449.56,1681.14l3.34.85c0,.28,0,.56.07.85l-4.24-1.6Z"/><path class="cls-6" d="M2359,1557.19c0-.51,0-1,.05-1.53l1.95,1.25-2,.29Z"/><path class="cls-4" d="M2459.31,1687.1c-.08,0-.19.1-.25.07-1.1-.42-2.2-.85-3.29-1.29l3.16.34C2459.06,1686.52,2459.19,1686.81,2459.31,1687.1Z"/><path class="cls-7" d="M1642.59,1556.21a16.68,16.68,0,0,1-1.57.73c-.06,0-.26-.3-.39-.47a14.47,14.47,0,0,1,1.31-.77C1642,1555.66,1642.26,1555.94,1642.59,1556.21Z"/><path class="cls-7" d="M1523,1687.35c0,.39,0,.77,0,1.15l-.78-.45Z"/><path class="cls-6" d="M2477.32,1685.2l0-.72Z"/><path class="cls-8" d="M2002,1533.68c5.68,0,11.37-.18,17,0,11.58.44,23.17.87,34.72,1.73q16.45,1.21,32.84,3.34c11.17,1.47,22.35,3.11,33.38,5.38,14.77,3,29.49,6.41,44.06,10.29a276,276,0,0,1,44.18,16.09,167.26,167.26,0,0,1,34.55,20.7c9.51,7.55,17.57,16.34,22,27.86,4.53,11.82,3.31,23.33-2.88,34.3-7.76,13.78-19.75,23.22-32.91,31.32-21.55,13.25-45.13,21.62-69.35,28.44a497.29,497.29,0,0,1-56.71,12.07c-9.31,1.48-18.69,2.48-28.07,3.46-8.83.92-17.69,1.64-26.55,2.24-7.86.53-15.73.93-23.61,1.11-13.39.31-26.78.67-40.16.49-11.49-.16-23-.82-34.44-1.67q-16.45-1.23-32.84-3.35c-11.17-1.47-22.35-3.1-33.38-5.37-14.77-3.05-29.49-6.41-44.06-10.3a275,275,0,0,1-44.18-16.08,171.1,171.1,0,0,1-34.56-20.7c-9.54-7.53-17.55-16.36-22-27.87a37.86,37.86,0,0,1,.5-29.27c5.4-12.77,14.91-22,25.82-30,15.2-11.12,32.12-18.9,49.68-25.43a338.53,338.53,0,0,1,46.93-13.87c13.63-2.94,27.38-5.43,41.15-7.67,11.31-1.84,22.69-3.27,34.09-4.41,9.58-1,19.22-1.3,28.84-1.77,12-.58,23.93-1,35.89-1.52Zm-2.35,22.35v-.94c-10.38.49-20.77.91-31.14,1.5-7.67.44-15.38.71-23,1.78-13.35,1.89-26.68,4-39.92,6.6-22.23,4.32-43.7,11.09-63.82,21.68-11.18,5.88-21.62,12.78-29.45,22.92-8.48,11-11.25,23.35-4.64,36.43,4.52,9,11.53,15.62,19.54,21.35,11.58,8.27,24.35,14.2,37.64,19.17a293,293,0,0,0,54,14.15c11.65,2,23.42,3.34,35.19,4.54,10.49,1.06,21,2,31.58,2.13,15.13.12,30.28-.36,45.4-1.06,9.87-.46,19.76-1.38,29.54-2.78,13.35-1.92,26.72-4,39.88-6.9,22-4.9,43.32-12,62.89-23.48,10.32-6.06,19.86-13.16,26.35-23.51,5.61-8.94,7.43-18.47,3.72-28.71-3.6-9.93-10.57-17.19-18.69-23.41-13.26-10.17-28.31-17-44-22.46a303.86,303.86,0,0,0-62.1-14.56c-13.66-1.73-27.35-3.33-41.08-4.31C2018.31,1555.5,2009,1556,1999.69,1556Z"/><path class="cls-7" d="M2436.21,1671.13a17.79,17.79,0,0,1,1,2.49c0,.17-.62.79-.83.73a18.27,18.27,0,0,1-2.28-1Z"/><path class="cls-8" d="M2471.39,1684.35c0,.22,0,.45,0,.68-1.49-.41-3-.79-4.47-1.24a4.76,4.76,0,0,1-1-.68,3.25,3.25,0,0,1,1.07,0C2468.45,1683.46,2469.92,1683.91,2471.39,1684.35Z"/><path class="cls-4" d="M2449.56,1681.14l-.83.1-3.08-.88c1,.1,2,.16,2.95.31A3.71,3.71,0,0,1,2449.56,1681.14Z"/><path class="cls-4" d="M1556.51,1683c-.64.26-1,.41-1.28.51-2.46.78-4.92,1.57-7.39,2.3a3.13,3.13,0,0,1-1.15-.14c.15-.2.27-.51.47-.57q4.23-1.26,8.49-2.45C1555.8,1682.59,1556,1682.78,1556.51,1683Z"/><path class="cls-8" d="M1554.28,1681.09c0-.26,0-.52,0-.78l2.92-.44Z"/><path class="cls-4" d="M1558.9,1656.86c-.14.1-.25.24-.38.26a1.29,1.29,0,0,1-.45-.11c.13-.12.24-.31.39-.35S1558.74,1656.78,1558.9,1656.86Z"/><path class="cls-7" d="M2546.69,1577.42c-4.24-2.1-8.49-4.18-12.72-6.31-.43-.21-.69-.74-1-1.12.48,0,1-.19,1.42,0,4.37,2.21,8.72,4.48,13.07,6.73Z"/><path class="cls-8" d="M2536,1574.27c-1.06,0-1.43.11-1.67,0-.81-.43-1.58-1-2.37-1.43.29-.11.65-.37.85-.28C2533.69,1572.94,2534.52,1573.45,2536,1574.27Z"/><path class="cls-6" d="M2546.69,1577.42l.73-.7,1.7,1.63-.09.09Z"/><path class="cls-6" d="M2564.76,1592.85l-.56-1,1.14.36Z"/><path class="cls-8" d="M2568.69,1591.65l-1.23-.9.09-.11,1.1.61A.91.91,0,0,1,2568.69,1591.65Z"/><path class="cls-8" d="M2566.42,1590.1l1.13.54-.09.11-1.06-.62Z"/><path class="cls-8" d="M2566.4,1590.13l-.77-.21.15-.23.64.41Z"/><path class="cls-6" d="M2549.12,1578.35l.24.32-.33-.23Z"/><path class="cls-7" d="M2568.69,1591.65a.91.91,0,0,0,0-.4l.54.56,0,0A.82.82,0,0,1,2568.69,1591.65Z"/><polygon class="cls-6" points="2563.39 1591.61 2563.31 1591.45 2563.49 1591.47 2563.39 1591.61"/><path class="cls-7" d="M1453.7,1576.72c4.35-2.25,8.7-4.52,13.07-6.73.38-.19.94,0,1.41,0-.34.38-.61.91-1,1.12-4.23,2.13-8.48,4.21-12.72,6.31Z"/><path class="cls-8" d="M1469.55,1573.2c-1.24.44-2.21.81-3.2,1.13-.09,0-.27-.25-.42-.39.94-.5,1.87-1,2.82-1.48C1468.82,1572.42,1469.08,1572.75,1469.55,1573.2Z"/><path class="cls-6" d="M1453.7,1576.72l.73.7-2.34,1-.09-.09Z"/><path class="cls-6" d="M1435.78,1592.25l1.14-.36c-.19.32-.38.64-.56,1Z"/><path class="cls-8" d="M1433.66,1590.75l-1.23.9a.91.91,0,0,1,0-.4l1.1-.61Z"/><path class="cls-8" d="M1434.72,1590.13l-1.06.62-.09-.11,1.13-.54Z"/><path class="cls-8" d="M1434.7,1590.1l.65-.4.14.22-.77.21Z"/><path class="cls-6" d="M1452.09,1578.44l-.33.23.24-.32Z"/><polygon class="cls-6" points="1437.71 1591.61 1437.64 1591.44 1437.82 1591.47 1437.71 1591.61"/><path class="cls-7" d="M1432.47,1591.25a.91.91,0,0,0,0,.4.86.86,0,0,1-.54.12l0,0Z"/><path class="cls-6" d="M1999.69,1556c9.29,0,18.62-.53,27.87.13,13.73,1,27.42,2.58,41.08,4.31a303.86,303.86,0,0,1,62.1,14.56c15.68,5.48,30.73,12.29,44,22.46,8.12,6.22,15.09,13.48,18.69,23.41,3.71,10.24,1.89,19.77-3.72,28.71-6.49,10.35-16,17.45-26.35,23.51-19.57,11.49-40.89,18.58-62.89,23.48-13.16,2.93-26.53,5-39.88,6.9-9.78,1.4-19.67,2.32-29.54,2.78-15.12.7-30.27,1.18-45.4,1.06-10.54-.08-21.09-1.07-31.58-2.13-11.77-1.2-23.54-2.58-35.19-4.54a293,293,0,0,1-54-14.15c-13.29-5-26.06-10.9-37.64-19.17-8-5.73-15-12.39-19.54-21.35-6.61-13.08-3.84-25.45,4.64-36.43,7.83-10.14,18.27-17,29.45-22.92,20.12-10.59,41.59-17.36,63.82-21.68,13.24-2.57,26.57-4.71,39.92-6.6,7.6-1.07,15.31-1.34,23-1.78,10.37-.59,20.76-1,31.14-1.5Zm.49,125c9-.61,19.74-1.28,30.46-2.06a212.64,212.64,0,0,0,37.44-6.2c16.62-4.27,32.92-9.4,46.34-20.76,5.81-4.93,10.22-10.87,9.91-19.06-.27-7.33-4.37-12.77-9.54-17.3-8.72-7.63-19.11-12.34-30-16.11a184.65,184.65,0,0,0-40.78-9.45c-12.78-1.38-25.59-2.53-38.42-3.23-7.58-.41-15.23.17-22.84.47-6.47.25-13,.22-19.4,1.23-13,2.08-26.13,4.18-38.93,7.35-15.1,3.73-29.7,9.16-41.76,19.54-5.68,4.89-10,10.77-9.81,18.84.21,7.47,4.37,13,9.65,17.53,8.75,7.6,19.14,12.28,30,16.07,18.4,6.41,37.43,9.69,56.72,11.54C1978.93,1680.36,1988.69,1680.47,2000.18,1681Z"/><path class="cls-7" d="M2540.52,1583.8c-.36.23-.56.45-.77.46s-.31-.27-.46-.42a1.71,1.71,0,0,1,.58-.38C2540,1583.44,2540.22,1583.63,2540.52,1583.8Z"/><path class="cls-7" d="M1462.06,1584c-.37.15-.6.34-.76.29s-.36-.32-.54-.49c.2-.11.41-.31.6-.29S1461.73,1583.72,1462.06,1584Z"/><path class="cls-7" d="M2000.18,1681c-11.49-.57-21.25-.68-30.94-1.6-19.29-1.85-38.32-5.13-56.72-11.54-10.86-3.79-21.25-8.47-30-16.07-5.28-4.58-9.44-10.06-9.65-17.53-.23-8.07,4.13-14,9.81-18.84,12.06-10.38,26.66-15.81,41.76-19.54,12.8-3.17,25.89-5.27,38.93-7.35,6.37-1,12.93-1,19.4-1.23,7.61-.3,15.26-.88,22.84-.47,12.83.7,25.64,1.85,38.42,3.23a184.65,184.65,0,0,1,40.78,9.45c10.87,3.77,21.26,8.48,30,16.11,5.17,4.53,9.27,10,9.54,17.3.31,8.19-4.1,14.13-9.91,19.06-13.42,11.36-29.72,16.49-46.34,20.76a212.64,212.64,0,0,1-37.44,6.2C2019.92,1679.76,2009.19,1680.43,2000.18,1681Z"/><rect class="cls-5" x="2391.72" y="1670.99" width="50.92" height="16.77"/><rect class="cls-5" x="1604.18" y="1554.1" width="4.5" height="6.05"/><rect class="cls-5" x="2321.24" y="1553.94" width="6.05" height="6.99"/><ellipse class="cls-5" cx="1835.96" cy="1499.99" rx="11.02" ry="5.98"/><path class="cls-9" d="M2498.05,1071.5a10.45,10.45,0,0,1,1.77.68c21,12.77,43.45,22.36,66.78,30.09,21.41,7.1,43.26,12.51,65.16,17.74,18.2,4.35,36.44,8.72,54.88,11.79,23.94,4,48.06,7,72.17,9.89,20.79,2.46,41.65,4.69,62.55,5.93,20.16,1.21,40.4,1.35,60.61,1.35,15.38,0,30.76-1,46.13-1.53,1.43,0,2.37.07,3.05,1.6,8.83,19.64,21,37.27,33.16,54.91,8.21,11.91,16,24.09,24.09,36.09,12.54,18.65,26.9,35.89,41.44,53,13,15.33,26.34,30.44,40.9,44.37,25,23.88,51.05,46.49,80.88,64.18,18.16,10.78,37,20.47,55.52,30.59,1.91,1,4,1.71,6.81,2.88-2.7.84-4.67,1.52-6.67,2.08l-122.83,34.69c-10,2.83-20,5.61-30,8.48-21.25,6.12-42.45,12.4-63.74,18.41-19.71,5.56-39.49,10.89-59.25,16.27q-63.32,17.25-126.65,34.46c-17.54,4.77-35.08,9.49-52.59,14.34a8.37,8.37,0,0,1-7.31-1.11c-16.49-10.43-30.65-23.64-44.73-37-19.35-18.31-35.55-39.32-51.91-60.2a366,366,0,0,1-30.06-44.42,21.48,21.48,0,0,0-1.48-2c-.94-1.79-1.84-3.61-2.84-5.37-8.13-14.32-16.52-28.5-24.33-43-4.81-9-8.94-18.29-13-27.61q-10-22.89-19.46-46c-4.62-11.3-8.93-22.73-13.09-34.2s-8.28-22.81-11.8-34.4c-5.55-18.3-10.62-36.75-15.83-55.15-2.47-8.7-5.15-17.37-7.1-26.2-2.45-11.06-4.32-22.25-6.3-33.41C2500.53,1099.78,2498.44,1085.73,2498.05,1071.5Z"/><path class="cls-10" d="M2498.05,1071.5c.39,14.23,2.48,28.28,5,42.26,2,11.16,3.85,22.35,6.3,33.41,2,8.83,4.63,17.5,7.1,26.2,5.21,18.4,10.28,36.85,15.83,55.15,3.52,11.59,7.66,23,11.8,34.4s8.47,22.9,13.09,34.2q9.43,23.12,19.46,46c4.07,9.32,8.2,18.66,13,27.61,7.81,14.49,16.2,28.67,24.33,43,1,1.76,1.9,3.58,2.84,5.37-6.16.7-12.32,1.43-18.48,2.08q-23.09,2.44-46.16,4.81-20.18,2.08-40.36,4.12l-46.44,4.81-45.06,4.62-57.49,6c-15,1.55-30,3.14-45.07,4.61-13.92,1.36-27.85,2.61-41.78,3.84-2.24.2-4.51,0-6.59,0,5.64-2.9,11.47-5.85,17.26-8.87,19.21-10,36.05-23.29,52.34-37.45,22.22-19.33,40.87-41.65,56.74-66.33,11.48-17.85,22.86-35.8,32-55a786.2,786.2,0,0,0,30.86-73.54c5.91-16.58,11.94-33.14,17-50,4.82-16.14,8.58-32.6,12.52-49,3.17-13.14,5.92-26.38,8.89-39.57A15.91,15.91,0,0,1,2498.05,1071.5Z"/><path class="cls-10" d="M1706.79,1100.08l.42-1.84.66,0c.85,4.07,1.61,8.17,2.55,12.21,3.45,14.77,6.9,29.53,10.45,44.28s6.81,29.57,10.89,44.16c7.88,28.2,16.36,56.23,27.09,83.49,6.56,16.67,13.42,33.23,20.84,49.53a272.75,272.75,0,0,0,38.44,61c2.79,3.37,5.71,6.65,8.76,10.2-2.7,0-5.18.15-7.63,0q-33.24-2.29-66.48-4.67l-66.49-4.69c-19.62-1.38-39.24-2.79-58.87-4.1-2.86-.19-5-1.11-6.4-3.72-2.43-4.45-5-8.82-7.57-13.22a5.9,5.9,0,0,1,.32-1.11c5.38-10.43,11.19-20.66,16.07-31.31,8.35-18.21,16.49-36.53,24-55.09,8.52-21,16.93-42.09,24.14-63.56,7.33-21.83,13.69-44,19.41-66.32,4.09-15.91,6.47-32.25,9.48-48.43C1707.28,1104.63,1706.84,1102.32,1706.79,1100.08Z"/><path class="cls-9" d="M1706.79,1100.08c0,2.24.49,4.55.09,6.71-3,16.18-5.39,32.52-9.48,48.43-5.72,22.3-12.08,44.49-19.41,66.32-7.21,21.47-15.62,42.56-24.14,63.56-7.52,18.56-15.66,36.88-24,55.09-4.88,10.65-10.69,20.88-16.07,31.31a5.9,5.9,0,0,0-.32,1.11c-3.34,4.8-6.55,9.69-10,14.38-6.77,9.12-13.72,18.1-20.54,27.18-1.6,2.12-3.27,2.62-6,2-31-6.82-62-13.47-93.3-20.23a12.19,12.19,0,0,1,1.3-1.63c14.3-12.57,26-27.4,36.94-42.85,15.14-21.42,28.21-44,38.11-68.37,3.09-7.62,6-15.34,8.71-23.08a11.15,11.15,0,0,1,4.73-6,296.78,296.78,0,0,0,40.39-31.25c14.87-13.66,29.12-28,41.42-44,10.12-13.22,20.7-26.16,29.86-40C1693.16,1126.37,1699.61,1113,1706.79,1100.08Z"/><path class="cls-9" d="M1296,1434.86c-1.4,1.33-2.9,2.56-4.16,4-10.14,11.64-20,23.47-30.4,34.92-7.27,8-15.07,15.64-22.74,23.32a5.29,5.29,0,0,1-3.67,1.32c-17.07-1.33-34.12-2.79-51.18-4.24q-17.07-1.46-34.11-3-34-3-67.93-6.09c-20-1.78-40.08-3.47-60.12-5.26-21.89-1.95-43.78-4-65.68-5.94-13.51-1.21-27-2.35-40.54-3.54q-26.15-2.28-52.28-4.61a3.7,3.7,0,0,1-2-1.1,18.52,18.52,0,0,0,1.69-.93c29.2-20.23,55.39-44,80.46-69,14.31-14.31,28.55-28.74,40.66-45,15.06-20.16,29.46-40.81,41.78-62.86a466.71,466.71,0,0,0,28.83-62.35c.69-1.8,1.65-2.1,3.31-2.12,23.83-.3,47.61-1.91,70.88-6.93,22.2-4.78,44.2-10.68,66-16.93,30-8.57,58.87-20.26,87.51-32.63,32.63-14.1,64.43-29.68,94.49-48.66,16.14-10.18,32.17-20.57,47.81-31.49,8.8-6.15,16.71-13.56,25-20.4.27-.23.56-.43,1.42-1.1v4.24c-.35.36-1,.67-1,1.07-1,5.4-1.81,10.83-2.86,16.21-3.67,18.72-6.87,37.54-11.26,56.09-4.53,19.12-10.09,38-15.5,56.92-3.46,12.11-7,24.23-11.34,36.05-6,16.46-12.6,32.75-19.41,48.91-5.3,12.56-10.82,25.08-17.2,37.11s-13.75,23.76-21.13,35.31c-8.45,13.21-17.24,26.21-26.19,39.09-6.65,9.56-13.8,18.78-20.73,28.15Zm-53.12,54.48c-.07-.12-.13-.35-.2-.35a1.35,1.35,0,0,0-.43.19l.28.48Z"/><path class="cls-10" d="M1296,1434.86l8.45-11.41c6.93-9.37,14.08-18.59,20.73-28.15,8.95-12.88,17.74-25.88,26.19-39.09,7.38-11.55,14.72-23.2,21.13-35.31s11.9-24.55,17.2-37.11c6.81-16.16,13.37-32.45,19.41-48.91,4.33-11.82,7.88-23.94,11.34-36.05,5.41-18.9,11-37.8,15.5-56.92,4.39-18.55,7.59-37.37,11.26-56.09,1-5.38,1.87-10.81,2.86-16.21.07-.4.67-.71,1-1.07.74,4.87,1.67,9.71,2.2,14.6a855.34,855.34,0,0,0,14.34,91.69c5.83,26.7,12.24,53.24,21.17,79.09,8.58,24.87,18.14,49.39,31.06,72.4,16.08,28.62,33.85,56.14,55.78,80.68,5.88,6.58,13,12.06,19.87,17.72,7.55,6.25,15.41,12.13,23.58,18.53-2.52-.12-4.67-.27-6.82-.31-13.38-.27-26.77-.47-40.15-.77-16.09-.36-32.18-.79-48.27-1.19l-42.1-1.09-46-1.16-43.22-1.09-44.35-1.14c-14.87-.38-29.74-.73-44.62-1.14C1301,1435.29,1298.49,1435,1296,1434.86Z"/><path class="cls-10" d="M1242.86,1489.34l-.35.32-.28-.48a1.35,1.35,0,0,1,.43-.19C1242.73,1489,1242.79,1489.22,1242.86,1489.34Z"/><path class="cls-2" d="M954.57,1462.86v15.67H939v-39.12h7.73v23.51h7.94Z"/><path class="cls-2" d="M2834.6,1533.28q0,7.83,0,15.67H2819v-23.48l0,0h7.76v7.81h8Z"/><path class="cls-2" d="M2422.18,1396.94v15.47h-7.82v-15.47Z"/><path class="cls-2" d="M2977.7,1494.74h-7.84l0,0v-7.86h7.79Z"/><path class="cls-2" d="M1088.68,1474v15.5h-23.42v-15.48l0,.06H1073v-39h7.84v38.95h7.93Z"/><path class="cls-2" d="M2414.88,1428.28h7.74v-15.51h7.86v15.5h7.93l0-.06v15.49h-23.43v-15.48Z"/><path class="cls-2" d="M2946.37,1502.6h7.74v-23.32H2962v15.5h7.94l0,0v15.48h-23.43v-7.67Z"/><path class="cls-2" d="M1096.52,1458.39V1474h-7.84l0,0v-15.64h7.84Z"/><path class="cls-2" d="M2811.13,1509.86h7.81v15.66l0,0h-7.81v-15.66Z"/><path class="cls-2" d="M2834.65,1533.33v-15.48h7.62v15.43h-7.67Z"/><path class="cls-2" d="M2407.12,1420.38h-7.67v-7.62h7.61v7.68Z"/><path class="cls-2" d="M2407.06,1420.44h7.82v7.84l0-.06h-7.81v-7.84Z"/><path class="cls-2" d="M2438.41,1428.27v-7.67H2446v7.61h-7.68Z"/><path class="cls-2" d="M1096.57,1458.44v-7.66h7.63v7.61h-7.68Z"/><path class="cls-2" d="M954.62,1462.92v-7.67h7.62v7.61h-7.67Z"/><path class="cls-2" d="M1057.45,1466.21h-7.67v-7.62h7.62v7.67Z"/><path class="cls-2" d="M1057.4,1466.26h7.81v7.84l0,0h-7.81v-7.84Z"/><path class="cls-2" d="M2946.43,1502.54h-7.67v-7.62h7.61v7.68Z"/><path class="cls-2" d="M2811.18,1509.81h-7.67v-7.63h7.62v7.68Z"/><path class="cls-2" d="M3925.89,996.62H3915.5v10.62h-10.68v20.7h-10.16v20.72h-10.53v10.51h-10v10.14h20.25v10.52h-10.34v10.51h-10.33v10.15h-10.35V1111h-9.86v20.3h10.06v-9.84h10.52v10.33h9.8v10.32h-10.07v10.34h-10.52V1163H3853v10.14h-10.34v10.33H3832.4v10.38h21v-10h10.32v10h9.92v10.51h-10.33v10.5H3853V1225h-10.33v10.31H3832.4v20.76l10.44.08v-10.13h10v10h-10.14v10.44H3832.4c-6.35,29.17,4.85,37,34.33,35.08,47.24-3.07,94.83-.83,142.27-.83V1287h-10.69V1266.3h-10.16V1256h-10v-10.52H3988v-10.14h-10.25v-20.89h-10.21v-10.27h-10.15v-10h10v10.13h20.51v-21.12h-10.36V1162.5h-9.8v-10.33h9.76v-10.51h-10.2v-10.15H3957V1121h-10.21v-10.27H3936.6v-10h10v10.12h20.52v-21.07h-10.34V1079.5h-10.13v-31h-10.47v-31.23h-10.29Zm31.1,176.54h10.14v9.95h-10V1173H3947v-10h10Z"/><path class="cls-2" d="M3770.79,861h-11.52v23.37h-11.86v11.48h-11.25v23h-11.67v11.69h-11.66v11.49h-11.27v11.49h-11.1v23.06h11.23V965.34h11.08v11.12h-11.25v34.93h-11.7v11.7h-11.47v11.29h-11V1057h11.49v-10.9h11.26v11.41h11.11v11.71h-11.49v23h-11.27v11.5h-11.68v11.71h-11.46v22.83h-11V1150h10.81v34.79h-11.33v11.29h-11.47v11.48h-11.39v23.11h11.79v11.88h11v11.29h-11.4v11.48h-11.38c0,29.84-.06,59.69.17,89.53,0,1.36,2.51,3.87,3.86,3.87,81.85.19,163.7.24,245.55-.36,1.38,0,2.7-7.94,4-12.17h-11.79v-34.83h-11v-11.51h10.86v-23.27h-11.33v-11.31h-11.48V1242h-11v-22.61H3840v10.93h22.6v-23.08h-11.34v-11.3H3839.8v-11.72h-11.68v-46.16h-11.3v-11.52h-11.35v-23h-11.26v-11.1h11.1v11.27h22.74v-23.52h-11.32v-11.3h-11.47v-23.27h-11V1023h11.16v11.42h11.68v11H3828v-22.91h-10.75V1011H3828V999.5H3816.9V976.44h-11.69V964.73h-11.66v-34.6h-11.29V907.07h-11.47Z"/><path class="cls-2" d="M131.11,987.85V997h9.11v9.2h9v9.19h9.22v18.44h-8.9v-8.76h-8.94v18.08h8.86v18.72l.09-.09h-9v9.33h9l-.09-.09v9h9.32v-9l-.08.09h9v27.6H159v9h18v9.36h9.36v9.36h9.21v18.27h9.06v18.8h-9v-9.24h-9.23V1145H177.2v-9h-8.89V1145h9v9.26h9.21v9.24h9.24v27.63h9.17v9.21H214v18.32h9.36v-8.9h9.22v-18.28h9.2v-9.38h9.16v-18.3H233v-18.62h8.84v-9.21h9v-9.21h9.46V1108h9v-8.9h-8.91v9h-9v-36.95h8.79v-9h9.22v-18.62h9.36v-36.88h9v8.84h9.38v27.86h9.2v9h9.22V1071H325v9.21h8.94v18.45H325.3V1108h8.85v18.29h9.2v9.38h9.16V1154H334.6v9.37h8.83v9.21h9.05V1191h9.36v9.38H371v18.29H353.06v18.62h8.87v9.21H371v27.56h9.37v-18.12h9.21v-18.19h9.2v8.8h9.37v18.38H426.3v-8.88h-8.64v-18.46h8.71v-18.44h9.37v-27.69h9.2v8.72h9.22v18.61h9.36v18.46h9V1265h-8.61v9.38h8.82v18.28h9.06v9.49H-7.49V1163.48h9v-9.24H-7.49v-64.69H1.7v-9.28h9v-8.9H1.79v9l-9.28,0V1034.1H1.59V1025h9.35v-9.41h9v-8.9H11v9H2V978.8h8.86v-9.35H20v-9H11.3V941.85H29.5V932.4l-.09.09h9v-9.33h-9l.09.09V914.1h9.11v-9.36h9.2V886.48H57V867.87h9.34V831h9v27.27h9.35v18.61h9.35v9.2h9v18.44h9.35v9.36h9.19v9h9.09v18.61h-8.65v9.36h8.83v18.28h18.3v18.77H131v-9h-8.9v8.91Zm55.41,212.55v9h8.9v-8.91h-9v-9.24H168v-9h-8.89v8.91h9v9.24Zm-83-222h8.83v-8.75h-8.83Z"/><path class="cls-2" d="M149.49,1061.87h9.24v9.24l.08-.09h-9.32l.09.09v-9.33Z"/><path class="cls-2" d="M29.5,932.4h-9v-9.15h9l-.09-.09v9.33Z"/><path class="cls-2" d="M666.72,1057.28H677.1v10.62h10.69v20.7H698v20.72h10.53v10.51h9.94V1130H698.18v10.52h10.33V1151h10.34v10.14h10.34v10.52h9.86V1192H729v-9.84H718.48v10.33h-9.8v10.32h10.06v10.34h10.53v10.52h10.34v10.15h10.33v10.32h10.27v10.38h-21v-10H728.87v10H719v10.51h10.33v10.5h10.33v10.14H750V1296h10.26v20.75l-10.44.09v-10.14h-10v10h10.14v10.44h10.29c6.34,29.17-4.85,37-34.33,35.08-47.24-3.07-94.83-.82-142.27-.82v-13.75h10.68V1327h10.17v-10.33h10v-10.52h-9.81V1296h10.25v-20.89h10.21v-10.27h10.15v-10h-10V1265H604.72v-21.11h10.36v-20.69h9.8v-10.33h-9.76v-10.51h10.2v-10.14h10.33v-10.51h10.21V1171.4H656v-10H646v10.12H625.48v-21.07h10.35v-10.31H646v-31.05h10.47v-31.23h10.3Zm-31.1,176.54H625.48v10h10v-10.1h10.15v-10h-10Z"/><path class="cls-2" d="M3526.68,973.34h11.53v23.37h11.85v11.48h11.26v23H3573v11.69h11.67v11.49h11.26v11.49H3607V1089h-11.23v-11.28h-11.08v11.12H3596v34.93h11.7v11.7h11.46v11.29h11v22.63H3618.6v-10.91h-11.27v11.42h-11.11v11.71h11.49v23H3619v11.5h11.68v11.71h11.46v22.83h11v11.71h-10.8v34.79h11.33v11.28h11.47v11.49h11.39V1343h-11.79v11.88h-11v11.29h11.39v11.48h11.39c0,29.84.06,59.69-.17,89.53,0,1.36-2.52,3.87-3.86,3.87-81.85.19-163.71.23-245.55-.36-1.38,0-2.7-7.94-4-12.18h11.79V1423.7h11v-11.51h-10.86v-23.28h11.32v-11.3h11.49v-23.28h11v-22.61h-11.17v10.93h-22.6v-23.08h11.34v-11.3h11.48v-11.72h11.68v-46.17h11.3v-11.51H3492v-23h11.26v-11.1h-11.1V1216h-22.75v-23.52h11.33v-11.3h11.47V1158h11v-22.63h-11.15v11.42h-11.69v11H3469.5v-22.9h10.74v-11.51h-10.8v-11.51h11.14v-23.06h11.68v-11.71h11.67v-34.6h11.29V1019.4h11.46Z"/><path class="cls-2" d="M3283.37,1027.9h10.39v10.63h10.68v20.7h10.16v20.71h10.53v10.51h9.94v10.15h-20.24v10.51h10.33v10.52h10.34v10.15h10.35v10.52h9.85v20.3h-10v-9.84h-10.52v10.33h-9.8v10.32h10.07v10.34h10.52v10.51h10.34v10.15h10.34v10.32h10.26v10.38h-21v-10h-10.33v10h-9.91v10.51h10.33v10.51h10.33v10.14h10.33v10.31h10.26v20.76l-10.44.08v-10.14h-10v10h10.14v10.45h10.29c6.34,29.17-4.85,37-34.33,35.07-47.24-3.07-94.83-.82-142.27-.82v-13.74h10.68v-20.7h10.17v-10.33h10v-10.51h-9.81v-10.15h10.25V1245.7h10.21v-10.26h10.15v-10h-10v10.12h-20.51v-21.11h10.36v-20.68h9.8v-10.34h-9.76v-10.51H3242V1162.8h10.33v-10.51h10.21V1142h10.15v-10h-10v10.13h-20.53v-21.08h10.35v-10.31h10.12v-31h10.48V1048.5h10.29Zm-31.1,176.55h-10.14v10h10v-10.1h10.15v-10h-10Z"/></g><g id="Layer_3" data-name="Layer 3"><rect class="cls-11" x="-24.57" y="-67.19" width="4144.83" height="617.8"/></g></svg>