<?xml version="1.0" encoding="utf-8"?>
<!-- Generator: Adobe Illustrator 23.0.1, SVG Export Plug-In . SVG Version: 6.00 Build 0)  -->
<svg version="1.1" id="Layer_1" xmlns="http://www.w3.org/2000/svg" xmlns:xlink="http://www.w3.org/1999/xlink" x="0px" y="0px"
	 viewBox="0 0 4000 1750" style="enable-background:new 0 0 4000 1750;" xml:space="preserve">
<style type="text/css">
	.st0{fill:#CCF2FF;}
	.st1{fill:#335767;}
	.st2{fill:#538DA6;}
	.st3{fill:#345868;}
	.st4{fill:#816C61;}
	.st5{fill:#A68F7E;}
	.st6{fill:#538CA5;}
	.st7{fill:#75A3B7;}
	.st8{fill:#97BAC9;}
	.st9{fill:#B6CFD9;}
	.st10{display:none;}
	.st11{display:inline;}
	.st12{fill:#CBF2FF;}
	.st13{display:inline;fill:#816C61;}
	.st14{display:inline;fill:#A68F7E;}
</style>
<g>
	<g>
		<g>
			<path class="st0" d="M836.4,1205.6c0-216.2,0-432.5,0.2-648.7c0-1.7,3.2-4.9,4.8-4.9c730.5-0.2,1461-0.2,2191.4,0
				c1.7,0,4.8,3.2,4.8,4.9c0.2,220.3,0.2,440.7,0.2,661c-2.1-0.2-4.2-0.1-6.1-0.6c-26.5-6.2-53-12.4-79.6-18.6
				c-1.3-0.3-2.5-0.6-3.8-0.9c-0.6-0.2-1.2-0.3-1.8-0.5c-0.9-0.2-1.9-0.4-2.8-0.6c-0.6-0.2-1.2-0.3-1.8-0.5
				c-0.9-0.2-1.9-0.4-2.8-0.6c-0.6-0.2-1.2-0.3-1.8-0.5c-5.3-1.5-10.5-3.1-15.8-4.6c-137.9-39.1-277.1-71.3-421.4-78.4
				c-137.9-6.8-275-2.4-410.5,25.2c-83.7,17-166.6,37.7-250.1,55.4c-77,16.3-153.8,33.7-233.2,36c-59.8,1.7-117.8-8.8-175.6-21.5
				c-80-17.6-160.6-30.8-242.8-34.2C1069.1,1168.1,952.7,1185.8,836.4,1205.6z"/>
			<path class="st1" d="M2952.2,1198.7c26.5,6.2,53,12.5,79.6,18.6c2,0.5,4.1,0.4,6.1,0.6c0,178.8,0,357.7-0.2,536.5
				c0,1.5-2.9,4.3-4.4,4.3c-730.8,0.2-1461.6,0.2-2192.4,0c-1.5,0-4.4-2.8-4.4-4.3c-0.2-182.2-0.2-364.4-0.2-546.6
				c27.1-2.7,54.1-7,81.3-7.8c65.8-1.9,131.9-5.7,197.6-2.3c83.4,4.4,164.4,25.6,244.7,47.6c75.5,20.7,151,43,229.8,45.5
				c67.1,2.1,134.5,0.3,201.6-2.9c78.6-3.7,154.7-22.5,230.6-41.8c105.7-27,211.6-53.3,318.3-76c99.1-21.1,200.4-24.2,301.2-16.4
				c74.5,5.8,148.4,18.1,222.5,28.1c24.7,3.4,49,8.8,73.5,13.3c0.6,0.2,1.2,0.3,1.8,0.5c0.9,0.2,1.9,0.4,2.8,0.6
				c0.6,0.2,1.2,0.3,1.8,0.5c0.9,0.2,1.9,0.4,2.8,0.6c0.6,0.2,1.2,0.3,1.8,0.5C2949.7,1198.1,2950.9,1198.4,2952.2,1198.7z"/>
			<path class="st2" d="M1649.7,1295.8c-20.7,0-40.9-0.3-60.1-0.9c-73.6-2.3-145.2-22.1-214.5-41.2c-5.4-1.5-10.8-3-16.3-4.5
				c-85.6-23.4-163-43.2-243.9-47.5c-17.6-0.9-36.2-1.4-56.7-1.4c-33,0-66.7,1.2-99.2,2.3c-13.5,0.5-27.5,1-41.3,1.4
				c-18.5,0.5-37.3,2.8-55.4,4.9c-8.4,1-17,2-25.6,2.9l-4.4,0.4v-10l3.3-0.6c99.8-17,206.1-33.6,311.8-33.6
				c13.7,0,27.4,0.3,40.6,0.8c73.6,3,151,13.9,243.5,34.3c51,11.2,106,21.6,161.9,21.6c4.3,0,8.5-0.1,12.7-0.2
				c73.6-2.1,146.4-17.6,216.8-32.6c5.2-1.1,10.5-2.2,15.7-3.3c37.7-8,75.9-16.7,112.9-25.2c44.9-10.3,91.3-20.9,137.2-30.2
				c92.7-18.9,191.4-28.1,301.8-28.1c35.3,0,71.2,0.9,109.7,2.8c155.6,7.7,300.8,44,422.3,78.5c4.6,1.3,9.1,2.6,13.5,4l2.5,0.8
				l-1.9,7.8c-7.6-1.4-15.4-2.9-22.9-4.4c-16.5-3.2-33.6-6.6-50.5-8.9c-18.5-2.5-37.4-5.2-55.6-7.9c-54.5-7.8-110.9-16-166.7-20.2
				c-33.6-2.6-66.6-3.9-98-3.9c-71.3,0-139.3,6.8-202,20.2c-110.6,23.5-222.2,51.5-318.2,76c-81.5,20.8-155.2,38.3-231.4,41.9
				C1737,1294.6,1691.9,1295.8,1649.7,1295.8z"/>
			<path class="st2" d="M2937.4,1195.2c-24.5-4.5-48.9-9.9-73.5-13.3c-74.1-10.1-148-22.4-222.5-28.1
				c-100.8-7.8-202.1-4.8-301.2,16.4c-106.7,22.7-212.6,49.1-318.3,76c-76,19.4-152,38.1-230.6,41.8c-67.1,3.2-134.5,5-201.6,2.9
				c-78.8-2.5-154.3-24.8-229.8-45.5c-80.3-22-161.3-43.2-244.7-47.6c-65.6-3.4-131.7,0.4-197.6,2.3c-27.2,0.8-54.2,5.1-81.3,7.8
				c0-0.7,0-1.5,0-2.2c116.3-19.8,232.8-37.6,351.6-32.7c82.2,3.4,162.8,16.6,242.8,34.2c57.8,12.7,115.8,23.2,175.6,21.5
				c79.4-2.3,156.2-19.7,233.2-36c83.5-17.7,166.4-38.3,250.1-55.4c135.5-27.6,272.6-31.9,410.5-25.2
				c144.3,7.1,283.5,39.2,421.4,78.4C2926.9,1192,2932.1,1193.6,2937.4,1195.2z"/>
			<path class="st2" d="M2952.2,1198.7c-1.3-0.3-2.5-0.6-3.8-0.9C2949.7,1198.1,2950.9,1198.4,2952.2,1198.7z"/>
			<path class="st2" d="M2942,1196.2c-0.9-0.2-1.9-0.4-2.8-0.6C2940.2,1195.8,2941.1,1196,2942,1196.2z"/>
			<path class="st2" d="M2946.6,1197.3c-0.9-0.2-1.9-0.4-2.8-0.6C2944.7,1196.9,2945.7,1197.1,2946.6,1197.3z"/>
		</g>
	</g>
	<g>
		<g>
			<path class="st0" d="M2962,1205.6c0-216.2,0-432.5,0.2-648.7c0-1.7,3.3-4.9,5.1-4.9c769.4-0.2,1538.8-0.2,2308.2,0
				c1.8,0,5.1,3.2,5.1,4.9c0.2,220.3,0.2,440.7,0.2,661c-2.2-0.2-4.4-0.1-6.5-0.6c-27.9-6.2-55.9-12.4-83.8-18.6
				c-1.3-0.3-2.6-0.6-4-0.9c-0.6-0.2-1.3-0.3-1.9-0.5c-1-0.2-2-0.4-2.9-0.6c-0.6-0.2-1.3-0.3-1.9-0.5c-1-0.2-2-0.4-2.9-0.6
				c-0.6-0.2-1.3-0.3-1.9-0.5c-5.6-1.5-11.1-3.1-16.7-4.6c-145.3-39.1-291.9-71.3-443.9-78.4c-145.2-6.8-289.7-2.4-432.3,25.2
				c-88.1,17-175.5,37.7-263.4,55.4c-81.1,16.3-162,33.7-245.6,36c-63,1.7-124.1-8.8-185-21.5c-84.3-17.6-169.1-30.8-255.7-34.2
				C3207.2,1168.1,3084.6,1185.8,2962,1205.6z"/>
			<path class="st1" d="M5190.6,1198.7c27.9,6.2,55.9,12.5,83.8,18.6c2.1,0.5,4.3,0.4,6.5,0.6c0,178.8,0,357.7-0.2,536.5
				c0,1.5-3,4.3-4.6,4.3c-769.7,0.2-1539.5,0.2-2309.2,0c-1.6,0-4.6-2.8-4.6-4.3c-0.2-182.2-0.2-364.4-0.2-546.6
				c28.5-2.7,57-7,85.6-7.8c69.3-1.9,139-5.7,208.1-2.3c87.9,4.4,173.2,25.6,257.7,47.6c79.6,20.7,159,43,242,45.5
				c70.7,2.1,141.6,0.3,212.3-2.9c82.8-3.7,162.9-22.5,242.9-41.8c111.3-27,222.9-53.3,335.2-76c104.4-21.1,211.1-24.2,317.3-16.4
				c78.4,5.8,156.3,18.1,234.4,28.1c26,3.4,51.6,8.8,77.4,13.3c0.6,0.2,1.3,0.3,1.9,0.5c1,0.2,2,0.4,2.9,0.6
				c0.6,0.2,1.3,0.3,1.9,0.5c1,0.2,2,0.4,2.9,0.6c0.6,0.2,1.3,0.3,1.9,0.5C5188,1198.1,5189.3,1198.4,5190.6,1198.7z"/>
			<path class="st2" d="M3818.8,1295.8c-21.7,0-43-0.3-63.3-0.9c-77.5-2.3-152.9-22.1-225.8-41.2c-5.7-1.5-11.4-3-17.1-4.5
				c-90.1-23.4-171.6-43.2-256.9-47.5c-18.6-0.9-38.1-1.4-59.8-1.4c-34.8,0-70.2,1.2-104.5,2.3c-14.3,0.5-29,1-43.5,1.4
				c-19.5,0.5-39.3,2.8-58.5,4.9c-8.8,1-17.9,2-26.8,2.9l-4.4,0.4v-10l3.4-0.5c105.1-17,217-33.6,328.3-33.6
				c14.4,0,28.8,0.3,42.8,0.8c77.4,3,158.9,13.9,256.4,34.3c53.8,11.2,111.7,21.6,170.6,21.6c4.5,0,9-0.1,13.4-0.2
				c77.8-2.1,154.6-17.7,228.9-32.7c5.3-1.1,10.7-2.2,16-3.2c39.9-8,80.3-16.8,119.4-25.3c47.1-10.2,95.8-20.8,144-30.1
				c97.6-18.9,201.5-28.1,317.7-28.1c37.1,0,74.9,0.9,115.5,2.8c163.8,7.6,316.7,44,444.8,78.5c4.6,1.2,9.3,2.6,13.8,3.9l3,0.9
				l-1.8,7.8c-8-1.4-16.2-2.9-24.1-4.4c-17.4-3.2-35.4-6.6-53.2-8.9c-19.4-2.5-39.1-5.2-58.2-7.8c-57.6-7.9-117.1-16-175.9-20.3
				c-35.4-2.6-70.2-3.9-103.3-3.9c-75.1,0-146.8,6.8-212.9,20.2c-116.4,23.5-234,51.5-335.1,76c-85.8,20.8-163.4,38.3-243.7,41.9
				C3910.7,1294.6,3863.2,1295.8,3818.8,1295.8z"/>
			<path class="st2" d="M5175.1,1195.2c-25.8-4.5-51.5-9.9-77.4-13.3c-78-10.1-155.9-22.4-234.4-28.1
				c-106.2-7.8-212.9-4.8-317.3,16.4c-112.4,22.7-223.9,49.1-335.2,76c-80,19.4-160.1,38.1-242.9,41.8c-70.7,3.2-141.6,5-212.3,2.9
				c-83-2.5-162.5-24.8-242-45.5c-84.5-22-169.8-43.2-257.7-47.6c-69.1-3.4-138.7,0.4-208.1,2.3c-28.6,0.8-57.1,5.1-85.6,7.8
				c0-0.7,0-1.5,0-2.2c122.5-19.8,245.2-37.6,370.3-32.7c86.6,3.4,171.4,16.6,255.7,34.2c60.9,12.7,122,23.2,185,21.5
				c83.6-2.3,164.6-19.7,245.6-36c88-17.7,175.3-38.3,263.4-55.4c142.7-27.6,287.1-31.9,432.3-25.2c152,7.1,298.6,39.2,443.9,78.4
				C5164,1192,5169.5,1193.6,5175.1,1195.2z"/>
			<path class="st2" d="M5190.6,1198.7c-1.3-0.3-2.6-0.6-4-0.9C5188,1198.1,5189.3,1198.4,5190.6,1198.7z"/>
			<path class="st2" d="M5179.9,1196.2c-1-0.2-2-0.4-2.9-0.6C5177.9,1195.8,5178.9,1196,5179.9,1196.2z"/>
			<path class="st2" d="M5184.7,1197.3c-1-0.2-2-0.4-2.9-0.6C5182.8,1196.9,5183.8,1197.1,5184.7,1197.3z"/>
		</g>
	</g>
	<g>
		<g>
			<path class="st0" d="M1321.3,1205.9c0-216.3,0-432.7-0.3-649c0-1.7-3.9-4.9-5.9-4.9c-894-0.2-1788.1-0.2-2682.1,0
				c-2.1,0-5.9,3.2-5.9,4.9c-0.3,220.4-0.3,440.9-0.3,661.3c2.5-0.2,5.1-0.1,7.5-0.6c32.5-6.2,64.9-12.4,97.4-18.7
				c1.5-0.3,3.1-0.6,4.6-0.9c0.7-0.2,1.5-0.3,2.2-0.5c1.1-0.2,2.3-0.4,3.4-0.6c0.7-0.2,1.5-0.3,2.2-0.5c1.1-0.2,2.3-0.4,3.4-0.6
				c0.7-0.2,1.5-0.3,2.2-0.5c6.5-1.6,12.9-3.1,19.4-4.6c168.8-39.2,339.2-71.3,515.8-78.4c168.8-6.8,336.6-2.4,502.4,25.2
				c102.4,17,203.9,37.7,306.1,55.4c94.2,16.3,188.3,33.8,285.4,36c73.2,1.7,144.2-8.8,215-21.5c97.9-17.6,196.5-30.8,297.1-34.2
				C1036.4,1168.3,1178.9,1186.1,1321.3,1205.9z"/>
			<path class="st1" d="M-1268.3,1199c-32.5,6.2-64.9,12.5-97.4,18.7c-2.4,0.5-5,0.4-7.5,0.6c0,178.9,0,357.8,0.2,536.8
				c0,1.5,3.5,4.3,5.4,4.3c894.4,0.2,1788.8,0.2,2683.3,0c1.9,0,5.4-2.8,5.4-4.3c0.2-182.3,0.2-364.6,0.2-546.8
				c-33.2-2.7-66.3-7-99.5-7.8c-80.6-1.9-161.5-5.8-241.8-2.3c-102.1,4.4-201.3,25.6-299.5,47.6c-92.4,20.7-184.8,43-281.2,45.5
				c-82.1,2.1-164.6,0.3-246.7-2.9c-96.2-3.7-189.3-22.5-282.3-41.9c-129.3-27-259-53.3-389.5-76.1
				c-121.3-21.1-245.3-24.2-368.7-16.4c-91.1,5.8-181.7,18.1-272.3,28.2c-30.2,3.4-60,8.8-90,13.3c-0.7,0.2-1.5,0.3-2.2,0.5
				c-1.1,0.2-2.3,0.4-3.4,0.6c-0.7,0.2-1.5,0.3-2.2,0.5c-1.1,0.2-2.3,0.4-3.4,0.6c-0.7,0.2-1.5,0.3-2.2,0.5
				C-1265.2,1198.4-1266.8,1198.7-1268.3,1199z"/>
			<path class="st2" d="M325.9,1296.2c-51.7,0-106.8-1.2-173.5-3.8c-93.2-3.7-183.3-21.2-283-42c-122.9-25.7-255.1-52.6-389.4-76.1
				c-77-13.4-160.3-20.3-247.6-20.3c-38.5,0-79,1.3-120.1,3.9c-68,4.3-136.8,12.4-203.3,20.2c-22.5,2.6-45.8,5.4-68.8,7.9
				c-20.7,2.3-41.5,5.6-61.7,8.9c-9.2,1.5-18.8,3-28.2,4.4l-1.6-7.8c6.2-1.6,12.8-3.2,19.5-4.6c149.1-34.5,327.1-70.9,516.5-78.5
				c46.6-1.9,91.8-2.8,134.5-2.8c134.6,0,255.2,9.2,368.7,28.1c56.1,9.4,112.9,20,167.7,30.2c45.3,8.5,92.2,17.2,138.4,25.2
				c6.4,1.1,12.7,2.2,19.1,3.3c86.2,15,175.4,30.5,265.7,32.6c5.1,0.1,10.4,0.2,15.6,0.2c68.6,0,136-10.4,198.6-21.6
				c113.1-20.3,207.7-31.2,297.7-34.3c16.2-0.5,32.9-0.8,49.7-0.8c129.2,0,254.1,15.9,381.3,33.6l3.4,0.5v10l-4.3-0.4
				c-10.5-0.9-21.1-1.9-31.3-2.9c-22.3-2.2-45.3-4.4-67.9-4.9c-16.8-0.4-33.9-0.9-50.4-1.4c-39.9-1.1-81.1-2.3-121.6-2.3
				c-25.2,0-47.9,0.4-69.5,1.4c-99.3,4.3-194.1,24-298.8,47.5c-6.7,1.5-13.4,3-20.1,4.5c-84.6,19-172,38.7-261.9,41.1
				C375.9,1295.9,351.2,1296.2,325.9,1296.2z"/>
			<path class="st2" d="M-1250.2,1195.5c30-4.5,59.8-10,90-13.3c90.7-10.1,181.2-22.4,272.3-28.2c123.4-7.8,247.4-4.8,368.7,16.4
				c130.6,22.8,260.2,49.1,389.5,76.1c93,19.4,186.1,38.1,282.3,41.9c82.1,3.2,164.6,5,246.7,2.9c96.5-2.5,188.8-24.8,281.2-45.5
				c98.2-22,197.4-43.2,299.5-47.6c80.3-3.4,161.2,0.4,241.8,2.3c33.2,0.8,66.3,5.1,99.5,7.8c0-0.7,0-1.5,0-2.2
				c-142.4-19.8-284.9-37.6-430.3-32.7c-100.6,3.4-199.2,16.6-297.1,34.2c-70.8,12.7-141.8,23.2-215,21.5
				c-97.2-2.3-191.2-19.7-285.4-36c-102.2-17.7-203.7-38.3-306.1-55.4c-165.8-27.6-333.6-32-502.4-25.2
				c-176.6,7.1-347,39.3-515.8,78.4C-1237.3,1192.3-1243.8,1193.9-1250.2,1195.5z"/>
			<path class="st2" d="M-1268.3,1199c1.5-0.3,3.1-0.6,4.6-0.9C-1265.2,1198.4-1266.8,1198.7-1268.3,1199z"/>
			<path class="st2" d="M-1255.9,1196.5c1.1-0.2,2.3-0.4,3.4-0.6C-1253.6,1196.1-1254.7,1196.3-1255.9,1196.5z"/>
			<path class="st2" d="M-1261.5,1197.6c1.1-0.2,2.3-0.4,3.4-0.6C-1259.2,1197.2-1260.4,1197.4-1261.5,1197.6z"/>
		</g>
	</g>
	<rect x="2391.7" y="1671" class="st3" width="50.9" height="16.8"/>
	<rect x="1601.3" y="1752.1" class="st3" width="29.7" height="6.3"/>
	<rect x="1604.2" y="1554.1" class="st3" width="4.5" height="6.1"/>
	<rect x="2321.2" y="1553.9" class="st3" width="6.1" height="7"/>
	<ellipse class="st3" cx="1836" cy="1500" rx="11" ry="6"/>
	<g>
		<g>
			<path class="st4" d="M2498,1071.5c0.6,0.2,1.2,0.4,1.8,0.7c21,12.8,43.4,22.4,66.8,30.1c21.4,7.1,43.3,12.5,65.2,17.7
				c18.2,4.3,36.4,8.7,54.9,11.8c23.9,4,48.1,7,72.2,9.9c20.8,2.5,41.7,4.7,62.5,5.9c20.2,1.2,40.4,1.3,60.6,1.3
				c15.4,0,30.8-0.9,46.1-1.5c1.4-0.1,2.4,0.1,3.1,1.6c8.8,19.6,21,37.3,33.2,54.9c8.2,11.9,16,24.1,24.1,36.1
				c12.5,18.7,26.9,35.9,41.4,53c13,15.3,26.3,30.4,40.9,44.4c25,23.9,51,46.5,80.9,64.2c18.2,10.8,37,20.5,55.5,30.6
				c1.9,1,4,1.7,6.8,2.9c-2.7,0.8-4.7,1.5-6.7,2.1c-40.9,11.6-81.9,23.1-122.8,34.7c-10,2.8-20,5.6-30,8.5
				c-21.3,6.1-42.5,12.4-63.7,18.4c-19.7,5.6-39.5,10.9-59.2,16.3c-42.2,11.5-84.4,23-126.7,34.5c-17.5,4.8-35.1,9.5-52.6,14.3
				c-2.7,0.8-4.9,0.4-7.3-1.1c-16.5-10.4-30.7-23.6-44.7-37c-19.4-18.3-35.5-39.3-51.9-60.2c-11.1-14.1-21.2-28.8-30.1-44.4
				c-0.4-0.7-1-1.3-1.5-2c-0.9-1.8-1.8-3.6-2.8-5.4c-8.1-14.3-16.5-28.5-24.3-43c-4.8-8.9-8.9-18.3-13-27.6
				c-6.7-15.3-13.2-30.6-19.5-46c-4.6-11.3-8.9-22.7-13.1-34.2c-4.1-11.4-8.3-22.8-11.8-34.4c-5.6-18.3-10.6-36.7-15.8-55.2
				c-2.5-8.7-5.2-17.4-7.1-26.2c-2.4-11.1-4.3-22.3-6.3-33.4C2500.5,1099.8,2498.4,1085.7,2498,1071.5z"/>
			<path class="st5" d="M2498,1071.5c0.4,14.2,2.5,28.3,5,42.3c2,11.2,3.9,22.4,6.3,33.4c2,8.8,4.6,17.5,7.1,26.2
				c5.2,18.4,10.3,36.9,15.8,55.2c3.5,11.6,7.7,23,11.8,34.4c4.2,11.5,8.5,22.9,13.1,34.2c6.3,15.4,12.8,30.7,19.5,46
				c4.1,9.3,8.2,18.7,13,27.6c7.8,14.5,16.2,28.7,24.3,43c1,1.8,1.9,3.6,2.8,5.4c-6.2,0.7-12.3,1.4-18.5,2.1
				c-15.4,1.6-30.8,3.2-46.2,4.8c-13.5,1.4-26.9,2.7-40.4,4.1c-15.5,1.6-31,3.2-46.4,4.8c-15,1.5-30,3.1-45.1,4.6
				c-19.2,2-38.3,4-57.5,6c-15,1.6-30,3.1-45.1,4.6c-13.9,1.4-27.9,2.6-41.8,3.8c-2.2,0.2-4.5,0-6.6,0c5.6-2.9,11.5-5.9,17.3-8.9
				c19.2-10,36.1-23.3,52.3-37.5c22.2-19.3,40.9-41.6,56.7-66.3c11.5-17.8,22.9-35.8,32-55c11.4-24,21.9-48.5,30.9-73.5
				c5.9-16.6,11.9-33.1,17-50c4.8-16.1,8.6-32.6,12.5-49c3.2-13.1,5.9-26.4,8.9-39.6C2497.1,1073.3,2497.7,1072.4,2498,1071.5z"/>
		</g>
	</g>
	<g>
		<g>
			<path class="st5" d="M1706.8,1100.1c0.1-0.6,0.3-1.2,0.4-1.8c0.2,0,0.4,0,0.7-0.1c0.8,4.1,1.6,8.2,2.6,12.2
				c3.4,14.8,6.9,29.5,10.4,44.3c3.5,14.7,6.8,29.6,10.9,44.2c7.9,28.2,16.4,56.2,27.1,83.5c6.6,16.7,13.4,33.2,20.8,49.5
				c10,22,23,42.3,38.4,61c2.8,3.4,5.7,6.7,8.8,10.2c-2.7,0-5.2,0.1-7.6,0c-22.2-1.5-44.3-3.1-66.5-4.7s-44.3-3.1-66.5-4.7
				c-19.6-1.4-39.2-2.8-58.9-4.1c-2.9-0.2-5-1.1-6.4-3.7c-2.4-4.5-5-8.8-7.6-13.2c0.1-0.4,0.1-0.8,0.3-1.1
				c5.4-10.4,11.2-20.7,16.1-31.3c8.3-18.2,16.5-36.5,24-55.1c8.5-21,16.9-42.1,24.1-63.6c7.3-21.8,13.7-44,19.4-66.3
				c4.1-15.9,6.5-32.3,9.5-48.4C1707.3,1104.6,1706.8,1102.3,1706.8,1100.1z"/>
			<path class="st4" d="M1706.8,1100.1c0,2.2,0.5,4.5,0.1,6.7c-3,16.2-5.4,32.5-9.5,48.4c-5.7,22.3-12.1,44.5-19.4,66.3
				c-7.2,21.5-15.6,42.6-24.1,63.6c-7.5,18.6-15.7,36.9-24,55.1c-4.9,10.7-10.7,20.9-16.1,31.3c-0.2,0.3-0.2,0.7-0.3,1.1
				c-3.3,4.8-6.6,9.7-10,14.4c-6.8,9.1-13.7,18.1-20.5,27.2c-1.6,2.1-3.3,2.6-6,2c-31-6.8-62-13.5-93.3-20.2
				c0.5-0.6,0.8-1.2,1.3-1.6c14.3-12.6,26-27.4,36.9-42.9c15.1-21.4,28.2-44,38.1-68.4c3.1-7.6,6-15.3,8.7-23.1
				c0.9-2.6,2.4-4.5,4.7-6.1c14.4-9.2,27.8-19.7,40.4-31.2c14.9-13.7,29.1-28,41.4-44.1c10.1-13.2,20.7-26.2,29.9-40
				C1693.2,1126.4,1699.6,1113,1706.8,1100.1z"/>
		</g>
	</g>
	<g>
		<g>
			<path class="st4" d="M1296,1434.9c-1.4,1.3-2.9,2.6-4.2,4c-10.1,11.6-20.1,23.5-30.4,34.9c-7.3,8.1-15.1,15.6-22.7,23.3
				c-0.8,0.8-2.5,1.4-3.7,1.3c-17.1-1.3-34.1-2.8-51.2-4.2c-11.4-1-22.7-2-34.1-3c-22.6-2-45.3-4.1-67.9-6.1
				c-20-1.8-40.1-3.5-60.1-5.3c-21.9-1.9-43.8-4-65.7-5.9c-13.5-1.2-27-2.4-40.5-3.5c-17.4-1.5-34.9-3.1-52.3-4.6
				c-0.5,0-1-0.3-2-1.1c0.6-0.3,1.2-0.6,1.7-0.9c29.2-20.2,55.4-44,80.5-69c14.3-14.3,28.6-28.7,40.7-44.9
				c15.1-20.2,29.5-40.8,41.8-62.9c11.2-20.1,20.7-40.9,28.8-62.4c0.7-1.8,1.7-2.1,3.3-2.1c23.8-0.3,47.6-1.9,70.9-6.9
				c22.2-4.8,44.2-10.7,66-16.9c30-8.6,58.9-20.3,87.5-32.6c32.6-14.1,64.4-29.7,94.5-48.7c16.1-10.2,32.2-20.6,47.8-31.5
				c8.8-6.1,16.7-13.6,25-20.4c0.3-0.2,0.6-0.4,1.4-1.1c0,1.7,0,3,0,4.2c-0.4,0.4-1,0.7-1,1.1c-1,5.4-1.8,10.8-2.9,16.2
				c-3.7,18.7-6.9,37.5-11.3,56.1c-4.5,19.1-10.1,38-15.5,56.9c-3.5,12.1-7,24.2-11.3,36c-6,16.5-12.6,32.8-19.4,48.9
				c-5.3,12.6-10.8,25.1-17.2,37.1c-6.4,12.1-13.7,23.8-21.1,35.3c-8.4,13.2-17.2,26.2-26.2,39.1c-6.7,9.6-13.8,18.8-20.7,28.2
				C1301.6,1427.3,1298.8,1431.1,1296,1434.9z M1242.9,1489.3c-0.1-0.1-0.1-0.3-0.2-0.3s-0.3,0.1-0.4,0.2c0.1,0.2,0.2,0.3,0.3,0.5
				C1242.6,1489.6,1242.7,1489.5,1242.9,1489.3z"/>
			<path class="st5" d="M1296,1434.9c2.8-3.8,5.6-7.6,8.5-11.4c6.9-9.4,14.1-18.6,20.7-28.2c9-12.9,17.7-25.9,26.2-39.1
				c7.4-11.6,14.7-23.2,21.1-35.3c6.4-12,11.9-24.6,17.2-37.1c6.8-16.2,13.4-32.4,19.4-48.9c4.3-11.8,7.9-23.9,11.3-36
				c5.4-18.9,11-37.8,15.5-56.9c4.4-18.5,7.6-37.4,11.3-56.1c1.1-5.4,1.9-10.8,2.9-16.2c0.1-0.4,0.7-0.7,1-1.1
				c0.7,4.9,1.7,9.7,2.2,14.6c3.3,30.8,7.7,61.4,14.3,91.7c5.8,26.7,12.2,53.2,21.2,79.1c8.6,24.9,18.1,49.4,31.1,72.4
				c16.1,28.6,33.8,56.1,55.8,80.7c5.9,6.6,13,12.1,19.9,17.7c7.6,6.3,15.4,12.1,23.6,18.5c-2.5-0.1-4.7-0.3-6.8-0.3
				c-13.4-0.3-26.8-0.5-40.1-0.8c-16.1-0.4-32.2-0.8-48.3-1.2c-14-0.4-28.1-0.7-42.1-1.1c-15.3-0.4-30.7-0.8-46-1.2
				c-14.4-0.4-28.8-0.7-43.2-1.1c-14.8-0.4-29.6-0.8-44.3-1.1c-14.9-0.4-29.7-0.7-44.6-1.1C1301,1435.3,1298.5,1435,1296,1434.9z"/>
			<path class="st5" d="M1242.9,1489.3c-0.1,0.1-0.2,0.2-0.4,0.3c-0.1-0.2-0.2-0.3-0.3-0.5c0.1-0.1,0.3-0.2,0.4-0.2
				C1242.7,1489,1242.8,1489.2,1242.9,1489.3z"/>
		</g>
	</g>
	<g>
		<g>
			<path class="st1" d="M954.6,1462.9c0,5.1,0,10.2,0,15.7c-5.3,0-10.5,0-15.6,0c0-13,0-26.1,0-39.1c2.5,0,5,0,7.7,0
				c0,7.8,0,15.5,0,23.5C949.5,1462.9,952.1,1462.9,954.6,1462.9L954.6,1462.9z"/>
			<path class="st1" d="M2834.6,1533.3c0,5.2,0,10.4,0,15.7c-5.2,0-10.4,0-15.6,0c0-7.8,0-15.7,0-23.5l-0.1,0.1c2.5,0,5,0,7.8,0
				c0,2.5,0,5,0,7.8C2829.5,1533.3,2832.1,1533.3,2834.6,1533.3L2834.6,1533.3z"/>
			<path class="st1" d="M2422.2,1396.9c0,5.1,0,10.2,0,15.5c-2.6,0-5,0-7.8,0c0-5.1,0-10.3,0-15.5
				C2417,1396.9,2419.6,1396.9,2422.2,1396.9z"/>
			<path class="st1" d="M2977.7,1494.7c-2.6,0-5.2,0-7.8,0l0.1,0.1c0-2.5,0-5,0-7.9c2.7,0,5.2,0,7.8,0
				C2977.7,1489.5,2977.7,1492.1,2977.7,1494.7z"/>
			<path class="st1" d="M1088.7,1474c0,5.1,0,10.2,0,15.5c-7.8,0-15.4,0-23.4,0c0-5.1,0-10.3,0-15.5l-0.1,0.1c2.5,0,5,0,7.7,0
				c0-13,0-25.9,0-39c2.7,0,5.1,0,7.8,0c0,12.8,0,25.7,0,38.9C1083.6,1474.1,1086.2,1474.1,1088.7,1474
				C1088.7,1474.1,1088.7,1474,1088.7,1474z"/>
			<path class="st1" d="M2414.9,1428.3c2.5,0,5,0,7.7,0c0-5.2,0-10.3,0-15.5c2.7,0,5.1,0,7.9,0c0,5,0,10.1,0,15.5c2.8,0,5.4,0,7.9,0
				l-0.1-0.1c0,5.1,0,10.2,0,15.5c-7.8,0-15.4,0-23.4,0C2414.9,1438.6,2414.9,1433.4,2414.9,1428.3
				C2414.9,1428.2,2414.9,1428.3,2414.9,1428.3z"/>
			<path class="st1" d="M2946.4,1502.6c2.5,0,5,0,7.7,0c0-7.8,0-15.5,0-23.3c2.7,0,5.1,0,7.9,0c0,5,0,10.1,0,15.5c2.8,0,5.4,0,7.9,0
				l-0.1-0.1c0,5.1,0,10.2,0,15.5c-7.8,0-15.5,0-23.4,0C2946.4,1507.7,2946.4,1505.1,2946.4,1502.6L2946.4,1502.6z"/>
			<path class="st1" d="M1096.5,1458.4c0,5.1,0,10.3,0,15.6c-2.7,0-5.3,0-7.8,0l0.1,0.1c0-5.1,0-10.2,0-15.6
				C1091.4,1458.4,1094,1458.4,1096.5,1458.4L1096.5,1458.4z"/>
			<path class="st1" d="M2811.1,1509.9c2.5,0,5,0,7.8,0c0,5.3,0,10.5,0,15.7l0.1-0.1c-2.5,0-5,0-7.8,0
				C2811.2,1520.2,2811.2,1515,2811.1,1509.9L2811.1,1509.9z"/>
			<path class="st1" d="M2834.7,1533.3c0-5.1,0-10.2,0-15.5c2.5,0,5,0,7.6,0c0,5,0,10.1,0,15.4
				C2839.7,1533.3,2837.2,1533.3,2834.7,1533.3C2834.6,1533.3,2834.7,1533.3,2834.7,1533.3z"/>
			<path class="st1" d="M2407.1,1420.4c-2.5,0-5,0-7.7,0c0-2.5,0-5,0-7.6c2.4,0,4.9,0,7.6,0
				C2407.1,1415.3,2407.1,1417.9,2407.1,1420.4L2407.1,1420.4z"/>
			<path class="st1" d="M2407.1,1420.4c2.5,0,4.9,0,7.8,0c0,2.6,0,5.2,0,7.8l0.1-0.1c-2.5,0-5,0-7.8,0
				C2407.1,1425.5,2407.1,1423,2407.1,1420.4L2407.1,1420.4z"/>
			<path class="st1" d="M2438.4,1428.3c0-2.5,0-5,0-7.7c2.5,0,5,0,7.6,0c0,2.4,0,4.9,0,7.6
				C2443.5,1428.2,2440.9,1428.2,2438.4,1428.3C2438.4,1428.2,2438.4,1428.3,2438.4,1428.3z"/>
			<path class="st1" d="M1096.6,1458.4c0-2.5,0-5,0-7.7c2.5,0,5,0,7.6,0c0,2.4,0,4.9,0,7.6
				C1101.6,1458.4,1099.1,1458.4,1096.6,1458.4C1096.5,1458.4,1096.6,1458.4,1096.6,1458.4z"/>
			<path class="st1" d="M954.6,1462.9c0-2.5,0-5,0-7.7c2.5,0,5,0,7.6,0c0,2.4,0,4.9,0,7.6C959.7,1462.9,957.1,1462.9,954.6,1462.9
				L954.6,1462.9z"/>
			<path class="st1" d="M1057.4,1466.2c-2.5,0-5,0-7.7,0c0-2.5,0-5,0-7.6c2.4,0,4.9,0,7.6,0
				C1057.4,1461.1,1057.4,1463.7,1057.4,1466.2L1057.4,1466.2z"/>
			<path class="st1" d="M1057.4,1466.3c2.5,0,4.9,0,7.8,0c0,2.6,0,5.2,0,7.8l0.1-0.1c-2.5,0-5,0-7.8,0
				C1057.4,1471.3,1057.4,1468.8,1057.4,1466.3C1057.4,1466.2,1057.4,1466.3,1057.4,1466.3z"/>
			<path class="st1" d="M2946.4,1502.5c-2.5,0-5,0-7.7,0c0-2.6,0-5,0-7.6c2.4,0,4.9,0,7.6,0
				C2946.4,1497.5,2946.4,1500,2946.4,1502.5C2946.4,1502.6,2946.4,1502.5,2946.4,1502.5z"/>
			<path class="st1" d="M2811.2,1509.8c-2.5,0-5,0-7.7,0c0-2.6,0-5,0-7.6c2.4,0,4.9,0,7.6,0
				C2811.1,1504.7,2811.1,1507.3,2811.2,1509.8C2811.1,1509.9,2811.2,1509.8,2811.2,1509.8z"/>
		</g>
	</g>
	<g>
		<g>
			<g>
				<path class="st1" d="M3925.9,996.6c-3.5,0-6.9,0-10.4,0c0,3.4,0,6.8,0,10.6c-3.8,0-7,0-10.7,0c0,7.1,0,13.8,0,20.7
					c-3.6,0-6.6,0-10.2,0c0,6.9,0,13.6,0,20.7c-3.7,0-6.9,0-10.5,0c0,3.7,0,6.9,0,10.5c-3.7,0-6.9,0-9.9,0c0,3.5,0,6.6,0,10.1
					c6.9,0,13.5,0,20.2,0c0,3.7,0,6.9,0,10.5c-3.5,0-6.7,0-10.3,0c0,3.7,0,6.9,0,10.5c-3.7,0-6.9,0-10.3,0c0,3.6,0,6.6,0,10.1
					c-3.5,0-6.7,0-10.3,0c0,3.7,0,6.9,0,10.5c-3.7,0-6.8,0-9.9,0c0,7.1,0,13.8,0,20.3c3.4,0,6.5,0,10.1,0c0-3.4,0-6.6,0-9.8
					c3.7,0,6.9,0,10.5,0c0,3.5,0,6.7,0,10.3c3.7,0,6.9,0,9.8,0c0,3.7,0,6.9,0,10.3c-3.5,0-6.5,0-10.1,0c0,3.5,0,6.7,0,10.3
					c-3.7,0-6.9,0-10.5,0c0,3.7,0,6.9,0,10.5c-3.7,0-6.9,0-10.3,0c0,3.6,0,6.6,0,10.1c-3.5,0-6.7,0-10.3,0c0,3.7,0,6.9,0,10.3
					c-3.7,0-7,0-10.3,0c0,3.5,0,6.9,0,10.4c6.8,0,13.7,0,21,0c0-3.8,0-7,0-10c3.7,0,6.9,0,10.3,0c0,3.4,0,6.5,0,10
					c3.5,0,6.7,0,9.9,0c0,3.7,0,6.8,0,10.5c-3.5,0-6.7,0-10.3,0c0,3.7,0,6.9,0,10.5c-3.7,0-6.9,0-10.3,0c0,3.5,0,6.6,0,10.1
					c-3.5,0-6.7,0-10.3,0c0,3.7,0,6.9,0,10.3c-3.7,0-7,0-10.3,0c0,6.9,0,13.8,0,20.8c3.5,0,7,0.1,10.4,0.1c0-3.4,0-6.8,0-10.1
					c3.7,0,6.9,0,10,0c0,3.5,0,6.7,0,10c-3.6,0-6.9,0-10.1,0c0,3.4,0,6.8,0,10.4c-3.8,0-7,0-10.3,0c-6.3,29.2,4.9,37,34.3,35.1
					c47.2-3.1,94.8-0.8,142.3-0.8c0-4.4,0-8.8,0-13.7c-3.8,0-7,0-10.7,0c0-7.1,0-13.8,0-20.7c-3.6,0-6.6,0-10.2,0
					c0-3.5,0-6.7,0-10.3c-3.7,0-6.9,0-10,0c0-3.7,0-6.9,0-10.5c3.5,0,6.7,0,9.8,0c0-3.5,0-6.6,0-10.1c-3.4,0-6.6,0-10.3,0
					c0-7.1,0-13.8,0-20.9c-3.7,0-6.9,0-10.2,0c0-3.7,0-7,0-10.3c-3.4,0-6.8,0-10.1,0c0-3.7,0-6.9,0-10c3.5,0,6.7,0,10,0
					c0,3.6,0,6.9,0,10.1c6.8,0,13.7,0,20.5,0c0-7.4,0-14,0-21.1c-3.5,0-6.7,0-10.4,0c0-7.1,0-13.8,0-20.7c-3.6,0-6.6,0-9.8,0
					c0-3.5,0-6.7,0-10.3c3.5,0,6.6,0,9.8,0c0-3.7,0-6.9,0-10.5c-3.5,0-6.7,0-10.2,0c0-3.5,0-6.6,0-10.1c-3.5,0-6.7,0-10.3,0
					c0-3.7,0-6.9,0-10.5c-3.7,0-6.9,0-10.2,0c0-3.7,0-7,0-10.3c-3.4,0-6.8,0-10.1,0c0-3.7,0-6.9,0-10c3.5,0,6.7,0,10,0
					c0,3.6,0,6.9,0,10.1c6.8,0,13.7,0,20.5,0c0-7.3,0-14,0-21.1c-3.5,0-6.7,0-10.3,0c0-3.7,0-6.8,0-10.3c-3.5,0-6.6,0-10.1,0
					c0-10.4,0-20.5,0-31c-3.6,0-6.8,0-10.5,0c0-10.6,0-20.7,0-31.2c-3.7,0-6.8,0-10.3,0C3925.9,1010,3925.9,1003.3,3925.9,996.6z
					 M3957,1173.2c3.4,0,6.8,0,10.1,0c0,3.7,0,6.8,0,10c-3.5,0-6.7,0-10,0c0-3.6,0-6.8,0-10.1c-3.4,0-6.8,0-10.1,0c0-3.7,0-6.9,0-10
					c3.5,0,6.7,0,10,0C3957,1166.6,3957,1169.9,3957,1173.2z"/>
			</g>
		</g>
	</g>
	<g>
		<g>
			<g>
				<path class="st1" d="M3770.8,861c-3.8,0-7.7,0-11.5,0c0,7.6,0,15.2,0,23.4c-4.3,0-7.8,0-11.9,0c0,4.1,0,7.6,0,11.5
					c-3.9,0-7.3,0-11.3,0c0,7.7,0,15.1,0,23c-4.1,0-7.6,0-11.7,0c0,4.1,0,7.6,0,11.7c-4.1,0-7.6,0-11.7,0c0,4.1,0,7.6,0,11.5
					c-3.9,0-7.3,0-11.3,0c0,3.9,0,7.4,0,11.5c-4.1,0-7.6,0-11.1,0c0,7.9,0,15.3,0,23.1c4,0,7.6,0,11.2,0c0-3.8,0-7.5,0-11.3
					c4.1,0,7.6,0,11.1,0c0,3.9,0,7.4,0,11.1c-4,0-7.6,0-11.2,0c0,11.5,0,22.9,0,34.9c-4.1,0-7.6,0-11.7,0c0,4.1,0,7.6,0,11.7
					c-4.1,0-7.6,0-11.5,0c0,4,0,7.4,0,11.3c-3.9,0-7.4,0-11,0c0,7.9,0,15.3,0,22.6c3.9,0,7.4,0,11.5,0c0-3.9,0-7.5,0-10.9
					c3.9,0,7.3,0,11.3,0c0,3.8,0,7.3,0,11.4c4.1,0,7.6,0,11.1,0c0,4.1,0,7.6,0,11.7c-3.9,0-7.4,0-11.5,0c0,7.9,0,15.3,0,23
					c-4,0-7.4,0-11.3,0c0,3.9,0,7.4,0,11.5c-4.1,0-7.6,0-11.7,0c0,4.1,0,7.6,0,11.7c-4.1,0-7.6,0-11.5,0c0,7.8,0,15,0,22.8
					c-3.9,0-7.4,0-11,0c0,4.1,0,7.6,0,11.7c3.9,0,7.4,0,10.8,0c0,11.8,0,23,0,34.8c-3.9,0-7.5,0-11.3,0c0,3.9,0,7.3,0,11.3
					c-3.9,0-7.4,0-11.5,0c0,4.1,0,7.6,0,11.5c-4.2,0-7.8,0-11.4,0c0,7.7,0,15.4,0,23.1c3.8,0,7.5,0,11.8,0c0,4.3,0,7.8,0,11.9
					c4.1,0,7.6,0,11,0c0,4,0,7.4,0,11.3c-3.8,0-7.3,0-11.4,0c0,4.1,0,7.6,0,11.5c-4.2,0-7.8,0-11.4,0c0,29.8-0.1,59.7,0.2,89.5
					c0,1.4,2.5,3.9,3.9,3.9c81.9,0.2,163.7,0.2,245.6-0.4c1.4,0,2.7-7.9,4-12.2c-3.8,0-7.5,0-11.8,0c0-12,0-23.3,0-34.8
					c-4,0-7.4,0-11,0c0-3.9,0-7.4,0-11.5c3.8,0,7.4,0,10.9,0c0-8,0-15.3,0-23.3c-3.9,0-7.5,0-11.3,0c0-4,0-7.4,0-11.3
					c-3.9,0-7.4,0-11.5,0c0-7.9,0-15.3,0-23.3c-4.1,0-7.6,0-11,0c0-8,0-15.3,0-22.6c3.8,0,7.2,0,11.2,0c0,3.8,0,7.3,0,10.9
					c7.9,0,15.3,0,22.6,0c0-7.8,0-15.1,0-23.1c-3.9,0-7.5,0-11.3,0c0-4,0-7.4,0-11.3c-3.9,0-7.4,0-11.5,0c0-4.1,0-7.6,0-11.7
					c-4.1,0-7.6,0-11.7,0c0-15.6,0-30.7,0-46.2c-4,0-7.4,0-11.3,0c0-3.9,0-7.4,0-11.5c-4.1,0-7.6,0-11.4,0c0-8,0-15.5,0-23
					c-3.8,0-7.5,0-11.3,0c0-4.1,0-7.7,0-11.1c3.9,0,7.4,0,11.1,0c0,4,0,7.6,0,11.3c7.6,0,15.2,0,22.7,0c0-8.2,0-15.6,0-23.5
					c-3.9,0-7.5,0-11.3,0c0-3.9,0-7.4,0-11.3c-3.9,0-7.4,0-11.5,0c0-7.9,0-15.3,0-23.3c-4.1,0-7.6,0-11,0c0-7.9,0-15.3,0-22.6
					c3.8,0,7.2,0,11.2,0c0,3.8,0,7.3,0,11.4c4.1,0,7.6,0,11.7,0c0,4.1,0,7.6,0,11c4.1,0,7.6,0,10.9,0c0-7.8,0-15.2,0-22.9
					c-3.9,0-7.2,0-10.7,0c0-3.9,0-7.4,0-11.5c3.9,0,7.4,0,10.8,0c0-4.1,0-7.6,0-11.5c-3.8,0-7.2,0-11.1,0c0-7.7,0-15.1,0-23.1
					c-4.1,0-7.6,0-11.7,0c0-4.1,0-7.6,0-11.7c-4.1,0-7.6,0-11.7,0c0-11.8,0-23,0-34.6c-4,0-7.3,0-11.3,0c0-7.7,0-15.1,0-23.1
					c-4.1,0-7.6,0-11.5,0C3770.8,891.4,3770.8,876.2,3770.8,861z"/>
			</g>
		</g>
	</g>
	<g>
		<g>
			<g>
				<path class="st1" d="M131.1,987.9c0,2.9,0,5.8,0,9.1c3,0,5.8,0,9.1,0c0,3.3,0,6.1,0,9.2c3.1,0,5.9,0,9,0c0,3.1,0,5.9,0,9.2
					c3.3,0,6.1,0,9.2,0c0,6.3,0,12.2,0,18.4c-2.8,0-5.6,0-8.9,0c0-2.9,0-5.7,0-8.8c-3.2,0-5.9,0-8.9,0c0,5.8,0,11.7,0,18.1
					c2.7,0,5.5,0,8.9,0c0,6.5,0,12.6,0,18.7l0.1-0.1c-3,0-6,0-9,0c0,3.4,0,6.3,0,9.3c3.2,0,6.1,0,9,0l-0.1-0.1c0,3,0,6,0,9
					c3.4,0,6.2,0,9.3,0c0-3.2,0-6.1,0-9l-0.1,0.1c2.9,0,5.8,0,9,0c0,9.2,0,18.2,0,27.6c-2.8,0-5.7,0-8.7,0c0,3.2,0,5.9,0,9
					c5.8,0,11.7,0,18,0c0,3.3,0,6.1,0,9.4c3.3,0,6.1,0,9.4,0c0,3.3,0,6.1,0,9.4c3.3,0,6.1,0,9.2,0c0,6.2,0,12,0,18.3
					c3.1,0,5.9,0,9.1,0c0,6.3,0,12.3,0,18.8c-3,0-6,0-9,0c0-3,0-5.9,0-9.2c-3.3,0-6.3,0-9.2,0c0-3.1,0-6.1,0-9.3c-3.5,0-6.4,0-9.2,0
					c0-3,0-6,0-9c-3.3,0-6.1,0-8.9,0c0,3.1,0,5.9,0,8.9c3.2,0,6.1,0,9,0c0,3,0,6,0,9.3c3.4,0,6.3,0,9.2,0c0,3,0,6,0,9.2
					c3.4,0,6.3,0,9.2,0c0,9.1,0,18.1,0,27.6c3.1,0,5.9,0,9.2,0c0,3.3,0,6.1,0,9.2c3.2,0,5.9,0,9.1,0c0,6.2,0,12.1,0,18.3
					c3.3,0,6.1,0,9.4,0c0-2.8,0-5.6,0-8.9c3.3,0,6.1,0,9.2,0c0-6.2,0-12,0-18.3c3.1,0,5.9,0,9.2,0c0-3.3,0-6.1,0-9.4
					c3.3,0,6.1,0,9.2,0c0-6.2,0-12,0-18.3c-5.8,0-11.7,0-17.9,0c0-6.4,0-12.3,0-18.6c2.7,0,5.6,0,8.8,0c0-3.3,0-6.1,0-9.2
					c3.2,0,5.9,0,9,0c0-3.1,0-5.9,0-9.2c3.3,0,6.1,0,9.5,0c0-6.5,0-12.6,0-18.7c3,0,6,0,9,0c0-3.3,0-6.1,0-8.9c-3.1,0-5.9,0-8.9,0
					c0,3.2,0,6.1,0,9c-2.9,0-5.8,0-9,0c0-12.3,0-24.4,0-36.9c2.9,0,5.7,0,8.8,0c0-3.2,0-5.9,0-9c3.1,0,5.9,0,9.2,0
					c0-6.3,0-12.3,0-18.6c3.3,0,6.1,0,9.4,0c0-12.5,0-24.6,0-36.9c3.2,0,5.9,0,9,0c0,2.7,0,5.6,0,8.8c3.3,0,6.1,0,9.4,0
					c0,9.4,0,18.4,0,27.9c3.3,0,6.1,0,9.2,0c0,3.2,0,5.9,0,9c3.1,0,5.9,0,9.2,0c0,6.3,0,12.3,0,18.6c3.3,0,6.1,0,9.4,0
					c0,3.3,0,6.1,0,9.2c3.2,0,5.9,0,8.9,0c0,6.2,0,12.1,0,18.5c-2.7,0-5.5,0-8.6,0c0,3.3,0,6.1,0,9.4c2.9,0,5.7,0,8.8,0
					c0,6.2,0,12,0,18.3c3.1,0,5.9,0,9.2,0c0,3.3,0,6.1,0,9.4c3.3,0,6.1,0,9.2,0c0,6.2,0,12,0,18.3c-5.8,0-11.7,0-17.9,0
					c0,3.3,0,6.1,0,9.4c2.7,0,5.6,0,8.8,0c0,3.3,0,6.1,0,9.2c3.2,0,5.9,0,9.1,0c0,6.2,0,12.1,0,18.4c3.3,0,6.1,0,9.4,0
					c0,3.3,0,6.1,0,9.4c3.3,0,6.1,0,9.1,0c0,6.2,0,12,0,18.3c-5.8,0-11.7,0-17.9,0c0,6.4,0,12.3,0,18.6c2.8,0,5.6,0,8.9,0
					c0,3.3,0,6.1,0,9.2c3.2,0,5.9,0,9.1,0c0,9.3,0,18.3,0,27.6c3.3,0,6.1,0,9.4,0c0-5.9,0-11.8,0-18.1c3.3,0,6.1,0,9.2,0
					c0-6.2,0-12,0-18.2c3.1,0,5.9,0,9.2,0c0,2.7,0,5.5,0,8.8c3.3,0,6.1,0,9.4,0c0,6.3,0,12.3,0,18.4c6.2,0,12,0,18.2,0
					c0-2.8,0-5.6,0-8.9c-2.7,0-5.5,0-8.6,0c0-6.3,0-12.3,0-18.5c2.8,0,5.5,0,8.7,0c0-6.2,0-12.1,0-18.4c3.3,0,6.1,0,9.4,0
					c0-9.4,0-18.4,0-27.7c3.3,0,6.1,0,9.2,0c0,2.8,0,5.6,0,8.7c3.1,0,5.9,0,9.2,0c0,6.3,0,12.3,0,18.6c3.3,0,6.1,0,9.4,0
					c0,6.4,0,12.3,0,18.5c3.2,0,5.9,0,8.9,0c0,9.3,0,18.3,0,27.7c-2.7,0-5.5,0-8.6,0c0,3.3,0,6.1,0,9.4c2.9,0,5.7,0,8.8,0
					c0,6.2,0,12,0,18.3c3.1,0,5.9,0,9.1,0c0,3.3,0,6.1,0,9.5c-163,0-326.1,0-489.2,0c0-46.2,0-92.4,0-138.6c3,0,6,0,8.9,0
					c0-3.4,0-6.2,0-9.2c-3.2,0-6.1,0-8.9,0c0-21.6,0-43.1,0-64.7c3,0,6,0,9.2,0c0-3.5,0-6.4,0-9.3c3,0,6,0,9,0c0-3.3,0-6.1,0-8.9
					c-3.1,0-5.9,0-8.9,0c0,3.2,0,6.1,0,9c-3.1,0-6.2,0-9.3,0c0-15.4,0-30.8,0-46.2c2.9,0,5.8,0,9.1,0c0-3,0-5.9,0-9.1
					c3.2,0,6,0,9.3,0c0-3.4,0-6.4,0-9.4c3,0,6,0,9,0c0-3.3,0-6.1,0-8.9c-3.1,0-5.9,0-8.9,0c0,3.2,0,6.1,0,9c-2.9,0-5.8,0-9,0
					c0-12.3,0-24.4,0-36.9c2.8,0,5.6,0,8.9,0c0-3.3,0-6.1,0-9.4c3.3,0,6.1,0,9.1,0c0-3.1,0-5.9,0-9c-2.7,0-5.6,0-8.7,0
					c0-6.3,0-12.2,0-18.6c5.8,0,11.7,0,18.2,0c0-3.4,0-6.4,0-9.4l-0.1,0.1c3,0,6,0,9,0c0-3.4,0-6.3,0-9.3c-3.2,0-6.1,0-9,0l0.1,0.1
					c0-2.9,0-5.8,0-9.1c3,0,5.8,0,9.1,0c0-3.3,0-6.1,0-9.4c3.3,0,6.1,0,9.2,0c0-6.2,0-12,0-18.3c3.1,0,5.9,0,9.2,0
					c0-6.3,0-12.3,0-18.6c3.3,0,6.1,0,9.3,0c0-12.5,0-24.6,0-36.9c3.1,0,5.9,0,9,0c0,8.9,0,17.8,0,27.3c3.3,0,6.1,0,9.4,0
					c0,6.3,0,12.3,0,18.6c3.3,0,6.1,0,9.3,0c0,3.3,0,6.1,0,9.2c3.2,0,5.9,0,9,0c0,6.2,0,12.1,0,18.4c3.3,0,6.1,0,9.3,0
					c0,3.3,0,6.1,0,9.4c3.3,0,6.1,0,9.2,0c0,3.1,0,5.9,0,9c3.1,0,5.9,0,9.1,0c0,6.3,0,12.2,0,18.6c-2.7,0-5.6,0-8.6,0
					c0,3.3,0,6.1,0,9.4c2.9,0,5.7,0,8.8,0c0,6.2,0,12,0,18.3c6.2,0,12.1,0,18.3,0c0,6.3,0,12.2,0,18.8
					C143.2,987.9,137.1,987.9,131.1,987.9C131,985,131,982,131,979c-3.3,0-6.1,0-8.9,0c0,3.1,0,5.9,0,8.9
					C125.3,987.9,128.2,987.9,131.1,987.9z M186.5,1200.4c0,3,0,6,0,9c3.3,0,6.1,0,8.9,0c0-3.1,0-5.9,0-8.9
					C192.2,1200.5,189.3,1200.5,186.5,1200.4c-0.1-2.9-0.1-5.9-0.1-9.1c-6.5,0-12.5,0-18.5,0c0-3,0-6,0-9c-3.3,0-6.1,0-8.9,0
					c0,3.1,0,5.9,0,8.9c3.2,0,6.1,0,9,0c0,3,0,6,0,9.2C174.6,1200.4,180.5,1200.4,186.5,1200.4z M103.5,978.4c3.1,0,5.9,0,8.8,0
					c0-3.1,0-5.9,0-8.8c-3.1,0-5.9,0-8.8,0C103.5,972.6,103.5,975.3,103.5,978.4z"/>
				<path class="st1" d="M149.5,1061.9c3,0,5.9,0,9.2,0c0,3.3,0,6.3,0,9.2l0.1-0.1c-3.1,0-6.2,0-9.3,0l0.1,0.1
					C149.6,1068,149.6,1064.9,149.5,1061.9L149.5,1061.9z"/>
				<path class="st1" d="M29.5,932.4c-2.9,0-5.8,0-9,0c0-3,0-5.8,0-9.2c3,0,6,0,9,0l-0.1-0.1C29.4,926.3,29.4,929.4,29.5,932.4
					L29.5,932.4z"/>
			</g>
		</g>
	</g>
	<g>
		<g>
			<g>
				<path class="st1" d="M666.7,1057.3c3.5,0,6.9,0,10.4,0c0,3.4,0,6.8,0,10.6c3.8,0,7,0,10.7,0c0,7.1,0,13.8,0,20.7
					c3.6,0,6.6,0,10.2,0c0,6.9,0,13.6,0,20.7c3.7,0,6.9,0,10.5,0c0,3.7,0,6.9,0,10.5c3.7,0,6.9,0,9.9,0c0,3.5,0,6.6,0,10.1
					c-6.9,0-13.5,0-20.2,0c0,3.7,0,6.9,0,10.5c3.5,0,6.7,0,10.3,0c0,3.7,0,6.9,0,10.5c3.7,0,6.9,0,10.3,0c0,3.6,0,6.6,0,10.1
					c3.5,0,6.7,0,10.3,0c0,3.7,0,6.9,0,10.5c3.7,0,6.8,0,9.9,0c0,7.1,0,13.8,0,20.3c-3.4,0-6.5,0-10.1,0c0-3.4,0-6.6,0-9.8
					c-3.7,0-6.9,0-10.5,0c0,3.5,0,6.7,0,10.3c-3.7,0-6.9,0-9.8,0c0,3.7,0,6.9,0,10.3c3.5,0,6.5,0,10.1,0c0,3.5,0,6.7,0,10.3
					c3.7,0,6.9,0,10.5,0c0,3.7,0,6.9,0,10.5c3.7,0,6.9,0,10.3,0c0,3.6,0,6.6,0,10.1c3.5,0,6.7,0,10.3,0c0,3.7,0,6.9,0,10.3
					c3.7,0,7,0,10.3,0c0,3.5,0,6.9,0,10.4c-6.8,0-13.7,0-21,0c0-3.8,0-7,0-10c-3.7,0-6.9,0-10.3,0c0,3.4,0,6.5,0,10
					c-3.5,0-6.7,0-9.9,0c0,3.7,0,6.8,0,10.5c3.5,0,6.7,0,10.3,0c0,3.7,0,6.9,0,10.5c3.7,0,6.9,0,10.3,0c0,3.5,0,6.6,0,10.1
					c3.5,0,6.7,0,10.3,0c0,3.7,0,6.9,0,10.3c3.7,0,7,0,10.3,0c0,6.9,0,13.8,0,20.8c-3.5,0-7,0.1-10.4,0.1c0-3.4,0-6.8,0-10.1
					c-3.7,0-6.9,0-10,0c0,3.5,0,6.7,0,10c3.6,0,6.9,0,10.1,0c0,3.4,0,6.8,0,10.4c3.8,0,7,0,10.3,0c6.3,29.2-4.9,37-34.3,35.1
					c-47.2-3.1-94.8-0.8-142.3-0.8c0-4.4,0-8.8,0-13.7c3.8,0,7,0,10.7,0c0-7.1,0-13.8,0-20.7c3.6,0,6.6,0,10.2,0c0-3.5,0-6.7,0-10.3
					c3.7,0,6.9,0,10,0c0-3.7,0-6.9,0-10.5c-3.5,0-6.7,0-9.8,0c0-3.5,0-6.6,0-10.1c3.4,0,6.6,0,10.3,0c0-7.1,0-13.8,0-20.9
					c3.7,0,6.9,0,10.2,0c0-3.7,0-7,0-10.3c3.4,0,6.8,0,10.1,0c0-3.7,0-6.9,0-10c-3.5,0-6.7,0-10,0c0,3.6,0,6.9,0,10.1
					c-6.8,0-13.7,0-20.5,0c0-7.4,0-14,0-21.1c3.5,0,6.7,0,10.4,0c0-7.1,0-13.8,0-20.7c3.6,0,6.6,0,9.8,0c0-3.5,0-6.7,0-10.3
					c-3.5,0-6.6,0-9.8,0c0-3.7,0-6.9,0-10.5c3.5,0,6.7,0,10.2,0c0-3.5,0-6.6,0-10.1c3.5,0,6.7,0,10.3,0c0-3.7,0-6.9,0-10.5
					c3.7,0,6.9,0,10.2,0c0-3.7,0-7,0-10.3c3.4,0,6.8,0,10.1,0c0-3.7,0-6.9,0-10c-3.5,0-6.7,0-10,0c0,3.6,0,6.9,0,10.1
					c-6.8,0-13.7,0-20.5,0c0-7.3,0-14,0-21.1c3.5,0,6.7,0,10.3,0c0-3.7,0-6.8,0-10.3c3.5,0,6.6,0,10.1,0c0-10.4,0-20.5,0-31
					c3.6,0,6.8,0,10.5,0c0-10.6,0-20.7,0-31.2c3.7,0,6.8,0,10.3,0C666.7,1070.7,666.7,1064,666.7,1057.3z M635.6,1233.8
					c-3.4,0-6.8,0-10.1,0c0,3.7,0,6.8,0,10c3.5,0,6.7,0,10,0C635.5,1240.2,635.5,1237,635.6,1233.8c3.3-0.1,6.7-0.1,10-0.1
					c0-3.7,0-6.9,0-10c-3.5,0-6.7,0-10,0C635.6,1227.3,635.6,1230.6,635.6,1233.8z"/>
			</g>
		</g>
	</g>
	<g>
		<g>
			<g>
				<path class="st1" d="M3526.7,973.3c3.8,0,7.7,0,11.5,0c0,7.6,0,15.2,0,23.4c4.3,0,7.8,0,11.9,0c0,4.1,0,7.6,0,11.5
					c3.9,0,7.3,0,11.3,0c0,7.7,0,15.1,0,23c4.1,0,7.6,0,11.7,0c0,4.1,0,7.6,0,11.7c4.1,0,7.6,0,11.7,0c0,4.1,0,7.6,0,11.5
					c3.9,0,7.3,0,11.3,0c0,3.9,0,7.4,0,11.5c4.1,0,7.6,0,11.1,0c0,7.9,0,15.3,0,23.1c-4,0-7.6,0-11.2,0c0-3.8,0-7.5,0-11.3
					c-4.1,0-7.6,0-11.1,0c0,3.9,0,7.4,0,11.1c4,0,7.6,0,11.2,0c0,11.5,0,22.9,0,34.9c4.1,0,7.6,0,11.7,0c0,4.1,0,7.6,0,11.7
					c4.1,0,7.6,0,11.5,0c0,4,0,7.4,0,11.3c3.9,0,7.4,0,11,0c0,7.9,0,15.3,0,22.6c-3.9,0-7.4,0-11.5,0c0-3.9,0-7.5,0-10.9
					c-3.9,0-7.3,0-11.3,0c0,3.8,0,7.3,0,11.4c-4.1,0-7.6,0-11.1,0c0,4.1,0,7.6,0,11.7c3.9,0,7.4,0,11.5,0c0,7.9,0,15.3,0,23
					c4,0,7.4,0,11.3,0c0,3.9,0,7.4,0,11.5c4.1,0,7.6,0,11.7,0c0,4.1,0,7.6,0,11.7c4.1,0,7.6,0,11.5,0c0,7.8,0,15,0,22.8
					c3.9,0,7.4,0,11,0c0,4.1,0,7.6,0,11.7c-3.9,0-7.4,0-10.8,0c0,11.8,0,23,0,34.8c3.9,0,7.5,0,11.3,0c0,3.9,0,7.3,0,11.3
					c3.9,0,7.4,0,11.5,0c0,4.1,0,7.6,0,11.5c4.2,0,7.8,0,11.4,0c0,7.7,0,15.4,0,23.1c-3.8,0-7.5,0-11.8,0c0,4.3,0,7.8,0,11.9
					c-4.1,0-7.6,0-11,0c0,4,0,7.4,0,11.3c3.8,0,7.3,0,11.4,0c0,4.1,0,7.6,0,11.5c4.2,0,7.8,0,11.4,0c0,29.8,0.1,59.7-0.2,89.5
					c0,1.4-2.5,3.9-3.9,3.9c-81.9,0.2-163.7,0.2-245.6-0.4c-1.4,0-2.7-7.9-4-12.2c3.8,0,7.5,0,11.8,0c0-12,0-23.3,0-34.8
					c4,0,7.4,0,11,0c0-3.9,0-7.4,0-11.5c-3.8,0-7.4,0-10.9,0c0-8,0-15.3,0-23.3c3.9,0,7.5,0,11.3,0c0-4,0-7.4,0-11.3
					c3.9,0,7.4,0,11.5,0c0-7.9,0-15.3,0-23.3c4.1,0,7.6,0,11,0c0-8,0-15.3,0-22.6c-3.8,0-7.2,0-11.2,0c0,3.8,0,7.3,0,10.9
					c-7.9,0-15.3,0-22.6,0c0-7.8,0-15.1,0-23.1c3.9,0,7.5,0,11.3,0c0-4,0-7.4,0-11.3c3.9,0,7.4,0,11.5,0c0-4.1,0-7.6,0-11.7
					c4.1,0,7.6,0,11.7,0c0-15.6,0-30.7,0-46.2c4,0,7.4,0,11.3,0c0-3.9,0-7.4,0-11.5c4.1,0,7.6,0,11.4,0c0-8,0-15.5,0-23
					c3.8,0,7.5,0,11.3,0c0-4.1,0-7.7,0-11.1c-3.9,0-7.4,0-11.1,0c0,4,0,7.6,0,11.3c-7.6,0-15.2,0-22.7,0c0-8.2,0-15.6,0-23.5
					c3.9,0,7.5,0,11.3,0c0-3.9,0-7.4,0-11.3c3.9,0,7.4,0,11.5,0c0-7.9,0-15.3,0-23.3c4.1,0,7.6,0,11,0c0-7.9,0-15.3,0-22.6
					c-3.8,0-7.2,0-11.2,0c0,3.8,0,7.3,0,11.4c-4.1,0-7.6,0-11.7,0c0,4.1,0,7.6,0,11c-4.1,0-7.6,0-10.9,0c0-7.8,0-15.2,0-22.9
					c3.9,0,7.2,0,10.7,0c0-3.9,0-7.4,0-11.5c-3.9,0-7.4,0-10.8,0c0-4.1,0-7.6,0-11.5c3.8,0,7.2,0,11.1,0c0-7.7,0-15.1,0-23.1
					c4.1,0,7.6,0,11.7,0c0-4.1,0-7.6,0-11.7c4.1,0,7.6,0,11.7,0c0-11.8,0-23,0-34.6c4,0,7.3,0,11.3,0c0-7.7,0-15.1,0-23.1
					c4.1,0,7.6,0,11.5,0C3526.7,1003.7,3526.7,988.5,3526.7,973.3z"/>
			</g>
		</g>
	</g>
	<g>
		<g>
			<g>
				<path class="st1" d="M3283.4,1027.9c3.5,0,6.9,0,10.4,0c0,3.4,0,6.8,0,10.6c3.8,0,7,0,10.7,0c0,7.1,0,13.8,0,20.7
					c3.6,0,6.6,0,10.2,0c0,6.9,0,13.6,0,20.7c3.7,0,6.9,0,10.5,0c0,3.7,0,6.9,0,10.5c3.7,0,6.9,0,9.9,0c0,3.5,0,6.6,0,10.1
					c-6.9,0-13.5,0-20.2,0c0,3.7,0,6.9,0,10.5c3.5,0,6.7,0,10.3,0c0,3.7,0,6.9,0,10.5c3.7,0,6.9,0,10.3,0c0,3.6,0,6.6,0,10.1
					c3.5,0,6.7,0,10.3,0c0,3.7,0,6.9,0,10.5c3.7,0,6.8,0,9.9,0c0,7.1,0,13.8,0,20.3c-3.4,0-6.5,0-10.1,0c0-3.4,0-6.6,0-9.8
					c-3.7,0-6.9,0-10.5,0c0,3.5,0,6.7,0,10.3c-3.7,0-6.9,0-9.8,0c0,3.7,0,6.9,0,10.3c3.5,0,6.5,0,10.1,0c0,3.5,0,6.7,0,10.3
					c3.7,0,6.9,0,10.5,0c0,3.7,0,6.9,0,10.5c3.7,0,6.9,0,10.3,0c0,3.6,0,6.6,0,10.1c3.5,0,6.7,0,10.3,0c0,3.7,0,6.9,0,10.3
					c3.7,0,7,0,10.3,0c0,3.5,0,6.9,0,10.4c-6.8,0-13.7,0-21,0c0-3.8,0-7,0-10c-3.7,0-6.9,0-10.3,0c0,3.4,0,6.5,0,10
					c-3.5,0-6.7,0-9.9,0c0,3.7,0,6.8,0,10.5c3.5,0,6.7,0,10.3,0c0,3.7,0,6.9,0,10.5c3.7,0,6.9,0,10.3,0c0,3.5,0,6.6,0,10.1
					c3.5,0,6.7,0,10.3,0c0,3.7,0,6.9,0,10.3c3.7,0,7,0,10.3,0c0,6.9,0,13.8,0,20.8c-3.5,0-7,0.1-10.4,0.1c0-3.4,0-6.8,0-10.1
					c-3.7,0-6.9,0-10,0c0,3.5,0,6.7,0,10c3.6,0,6.9,0,10.1,0c0,3.4,0,6.8,0,10.4c3.8,0,7,0,10.3,0c6.3,29.2-4.9,37-34.3,35.1
					c-47.2-3.1-94.8-0.8-142.3-0.8c0-4.4,0-8.8,0-13.7c3.8,0,7,0,10.7,0c0-7.1,0-13.8,0-20.7c3.6,0,6.6,0,10.2,0c0-3.5,0-6.7,0-10.3
					c3.7,0,6.9,0,10,0c0-3.7,0-6.9,0-10.5c-3.5,0-6.7,0-9.8,0c0-3.5,0-6.6,0-10.1c3.4,0,6.6,0,10.3,0c0-7.1,0-13.8,0-20.9
					c3.7,0,6.9,0,10.2,0c0-3.7,0-7,0-10.3c3.4,0,6.8,0,10.1,0c0-3.7,0-6.9,0-10c-3.5,0-6.7,0-10,0c0,3.6,0,6.9,0,10.1
					c-6.8,0-13.7,0-20.5,0c0-7.4,0-14,0-21.1c3.5,0,6.7,0,10.4,0c0-7.1,0-13.8,0-20.7c3.6,0,6.6,0,9.8,0c0-3.5,0-6.7,0-10.3
					c-3.5,0-6.6,0-9.8,0c0-3.7,0-6.9,0-10.5c3.5,0,6.7,0,10.2,0c0-3.5,0-6.6,0-10.1c3.5,0,6.7,0,10.3,0c0-3.7,0-6.9,0-10.5
					c3.7,0,6.9,0,10.2,0c0-3.7,0-7,0-10.3c3.4,0,6.8,0,10.1,0c0-3.7,0-6.9,0-10c-3.5,0-6.7,0-10,0c0,3.6,0,6.9,0,10.1
					c-6.8,0-13.7,0-20.5,0c0-7.3,0-14,0-21.1c3.5,0,6.7,0,10.3,0c0-3.7,0-6.8,0-10.3c3.5,0,6.6,0,10.1,0c0-10.4,0-20.5,0-31
					c3.6,0,6.8,0,10.5,0c0-10.6,0-20.7,0-31.2c3.7,0,6.8,0,10.3,0C3283.4,1041.3,3283.4,1034.6,3283.4,1027.9z M3252.3,1204.4
					c-3.4,0-6.8,0-10.1,0c0,3.7,0,6.8,0,10c3.5,0,6.7,0,10,0c0-3.6,0-6.8,0-10.1c3.4,0,6.8,0,10.1,0c0-3.7,0-6.9,0-10
					c-3.5,0-6.7,0-10,0C3252.3,1197.9,3252.3,1201.2,3252.3,1204.4z"/>
			</g>
		</g>
	</g>
	<g>
		<g>
			<path class="st6" d="M1910.2,1502.7c22.6-1.2,45.1-2.7,67.7-3.3c20-0.6,40.1-0.4,60,0.2c18.2,0.5,36.3,2,54.4,3.1
				c1.3,0.1,2.6-0.3,4-0.5c0.6,0.4,1.1,1.1,1.7,1.1c6.7,0.7,13.4,1.1,20.1,1.8c8.1,0.9,16.1,1.9,24.1,3.1c7.5,1.1,15,2.2,22.4,3.6
				c9.9,1.8,19.8,3.7,29.6,5.8c3.1,0.7,6.1,2.3,9,3.6c0.6,0.2,0.8,1.1,1.2,1.6c-0.6,0.2-1.1,0.6-1.7,0.7c-0.7,0.1-1.5,0-2.2,0
				c-7.4,0-14.8,0-22.3,0.1c-0.6,0-1.2,0.3-1.7,0.4c0.5,0.2,1.1,0.5,1.6,0.6c1.7,0.3,3.5,0.4,5.2,0.7c11.3,2,22.6,3.8,33.8,6
				c15.7,3,31.4,5.8,46.9,9.6c12.3,2.9,24.3,7,36.5,10.6c11.5,3.4,22.5,7.9,33,13.8c5.3,3,10.4,6.4,15.6,9.6
				c0.7,0.5,1.1,1.6,1.6,2.3c-0.9,0.3-1.9,0.8-2.8,0.8c-4.5-0.1-9.1-0.4-13.6-0.4c-7.5-0.1-15-0.1-22.6-0.1c-0.7,0-1.3,0.1-1.9,0.1
				c0.6,0.3,1.2,0.7,1.8,0.9c19.1,4.5,37.5,10.9,55.4,18.8c14.7,6.5,29.1,13.7,43.4,21.1c7.8,4.1,15,9.1,22.4,13.8
				c2.4,1.5,4.7,3.2,7.1,4.7c2.2,2,4.4,4.1,6.6,6.1c0.8,0.8,1.5,1.6,2.3,2.4c1.8,1.9,1.4,3.9-0.9,5.1c-0.9,0.4-1.9,0.7-2.9,0.9
				c-5,1.1-10.1,2.3-15.2,3.3c-7.8,1.6-15.6,3-23.4,4.5c-9.5,1.8-19,3.7-28.5,5.6c-2.8,0.6-5.6,1-8.4,1.5c-0.3,0.1-0.6,0.5-0.9,0.8
				c0.3,0.1,0.6,0.3,0.9,0.4c6.9,1.3,13.9,2.3,20.7,4c11,2.6,21.9,5.3,32.7,8.5c6.4,1.9,6.6,4.6,1.6,9c-0.2,0.2-0.4,0.4-0.6,0.6
				c-11,8.5-22.8,15.8-35.2,22.1c-22.9,11.8-46.5,21.9-71.1,29.8c-19.8,6.3-39.9,10.7-60.5,13.6c-1.9,0.3-3.8,1.1-5.7,1.6
				c-165.7,0-331.4,0-497.2,0c-0.4-0.3-0.8-0.9-1.3-1.1c-7.5-1.2-15-2.2-22.4-3.5c-23.3-4-45.8-11.3-67.8-19.7
				c-21.1-8.1-41.5-17.9-60.8-29.8c-7.4-4.5-14.3-9.9-21.2-15.2c-3.2-2.5-2.7-5,1.1-6.5c6.1-2.3,12.4-4.5,18.7-6
				c12-2.8,24.1-5,36.1-7.4c0.6-0.1,1.2-0.4,1.8-0.7c-0.6-0.2-1.2-0.5-1.8-0.7c-0.3-0.1-0.6-0.1-0.8-0.2
				c-10.6-1.9-21.2-3.8-31.9-5.9c-11.4-2.2-22.8-4.6-34.2-7c-3.3-0.7-6.7-1.3-10-2.2c-3.4-1-3.9-3.2-1.6-5.7c0.6-0.7,1.2-1.3,1.8-2
				c2.3-2,4.7-4,7.1-6c5-3.5,9.9-7.2,15.1-10.4c7.5-4.7,14.8-9.6,22.7-13.4c19.4-9.4,38.8-18.9,59.4-25.6
				c10.1-3.3,20.3-6.1,30.5-9.2c0.6-0.2,1.1-0.6,1.6-0.9c-0.6-0.1-1.3-0.2-1.9-0.2c-11.9,0.2-23.7,0.4-35.6,0.5c-1,0-1.9-0.6-3-0.9
				c0.6-0.8,1-2,1.8-2.6c5.7-3.6,11.4-7.3,17.3-10.5c13.8-7.6,28.7-12.3,43.8-16.7c11.7-3.4,23.5-6.7,35.4-9.4
				c11.8-2.7,23.7-4.6,35.7-6.8c12.6-2.3,25.3-4.4,37.9-6.6c0.3-0.1,0.7-0.2,1.1-0.2c-0.4-0.1-0.8-0.3-1.2-0.3
				c-7.9-0.1-15.7-0.1-23.6-0.1c-0.7,0-1.4-0.6-2.2-0.8c0.4-0.7,0.7-1.6,1.3-1.9c2.1-1,4.2-1.9,6.4-2.7c14.5-4.8,29.7-6.7,44.8-8.9
				c15.6-2.2,31.3-3.8,47-5.7C1904.2,1503.5,1907.2,1503.1,1910.2,1502.7z M2004.7,1532.9c0-0.1,0-0.3,0-0.4
				c-11.9,0.5-23.8,0.9-35.8,1.5c-9.6,0.4-19.2,0.8-28.7,1.8c-11.4,1.1-22.7,2.6-34,4.4c-13.7,2.2-27.4,4.7-41,7.6
				c-15.9,3.4-31.5,8.1-46.7,13.8c-17.5,6.5-34.4,14.3-49.5,25.3c-10.9,8-20.3,17.2-25.7,29.9c-4.1,9.7-4.2,19.4-0.5,29.1
				c4.4,11.5,12.4,20.3,21.9,27.7c10.6,8.4,22.2,15,34.4,20.6c14.3,6.6,28.9,12,44,16c14.5,3.9,29.2,7.2,43.9,10.2
				c11,2.3,22.1,3.9,33.3,5.3c10.9,1.4,21.8,2.5,32.7,3.3c11.4,0.8,22.9,1.5,34.3,1.7c13.3,0.2,26.7-0.2,40-0.5
				c7.9-0.2,15.7-0.6,23.5-1.1c8.8-0.6,17.7-1.3,26.5-2.2c9.4-0.9,18.7-1.9,28-3.5c19.1-3,37.9-6.8,56.5-12
				c24.1-6.8,47.6-15.2,69.1-28.4c13.1-8.1,25.1-17.5,32.8-31.2c6.2-10.9,7.4-22.4,2.8-34.1c-4.4-11.5-12.4-20.2-21.9-27.7
				c-10.6-8.4-22.2-15-34.4-20.6c-14.3-6.5-28.9-12-44-16c-14.5-3.8-29.2-7.2-43.9-10.2c-11-2.3-22.1-3.9-33.3-5.3
				c-10.9-1.4-21.8-2.5-32.7-3.3c-11.5-0.8-23.1-1.3-34.6-1.7C2016.1,1532.7,2010.4,1532.9,2004.7,1532.9z"/>
			<path class="st3" d="M2459.4,1647.1c-0.2-0.3-0.3-0.5-0.4-0.5c-2.7,0.7-3.5-1-4.3-3c-0.6-1.3-1.4-2.4-2.1-3.6
				c-1.3-2.2-4.2-2.1-5.3,0.3c-0.4,0.8-0.5,1.8-0.7,2.7c0.8,0.8,1.6,1.6,2.3,2.4c1.8,1.9,1.5,3.9-0.9,5.1c-0.9,0.4-1.9,0.7-2.9,0.9
				c-5.1,1.1-10.1,2.3-15.2,3.3c-7.8,1.6-15.6,3-23.4,4.5c-9.5,1.9-19,3.8-28.5,5.6c-2.8,0.6-5.6,0.9-8.4,1.5
				c-0.3,0.1-0.6,0.5-0.9,0.8c0.3,0.1,0.6,0.3,0.9,0.4c6.9,1.3,13.9,2.3,20.7,4c11,2.6,21.9,5.3,32.7,8.5c6.4,1.9,6.6,4.6,1.6,9
				c-0.2,0.2-0.4,0.4-0.6,0.6c-11.1,8.4-22.8,15.8-35.2,22.1c-23,11.8-46.5,21.9-71.1,29.8c-19.8,6.3-39.9,10.7-60.5,13.6
				c-1.9,0.3-3.8,1.1-5.7,1.6c36.2,0,72.4,0,108.6-0.1c7.9-3.3,15.9-6.5,23.6-10.1c6.4-3,12.6-6.5,18.8-10c2.3-1.3,3.2-2.6,3.3-4.5
				c-0.1-0.3-0.3-0.6-0.4-0.8c-2.2-6.8,0.8-13.4,5.8-17.7c-0.5-0.7-1.2-1.4-1.7-2.1c1.2-0.7,2.4-1.4,3.6-2.1
				c1.3-0.8,2.5-1.7,3.8-2.3c0.5-0.2,1.4,0,1.9,0.3c0.4,0.3,0.8,0.7,1.2,1c0.1-0.1,0.3-0.2,0.4-0.3c0.1,0,0.4-0.4,0.8-0.8
				c-0.1-0.5-0.2-1.1-0.3-1.6c0-0.1-0.1-0.1-0.1-0.2c-0.1-0.6-0.2-1.2-0.2-1.8c0.6,0.3,1.2,0.6,1.7,0.8c0.4,0.2,0.7,0.4,1.1,0.6
				c0-0.1,0.1-0.1,0.2-0.2c0.1-0.1,0.1-0.2,0.3-0.4c0.3-0.4,0.6-0.9,0.9-1.3c-0.1-0.3-0.2-0.5-0.4-0.8c-1.3-1.7-0.9-2.8,0.9-3.7
				c1.1-0.6,2.2-1.1,3.2-1.6c3.3-1.7,5.3-4,3.7-8.1c-0.2-0.5,0.3-1.4,0.8-1.8c0.4-0.3,1.3-0.3,1.8-0.1c0.3,0.1,0.7,0.3,1,0.4
				c-2.1-4.7-2.2-10.4-0.2-15.2c-0.1,0-0.2-0.1-0.3-0.1c0.2-0.2,0.4-0.4,0.6-0.7c2.5-5.2,7.4-9.2,14.9-9.2c0.9,0,1.6,0.1,2.4,0.2
				c-0.1-1.2-0.1-2.4-0.2-3.5c-0.1-2.7,1.4-4.6,3.8-5.2c0.3-1.1,0.7-2.1,1.1-3.2c0-0.1,0.1-0.2,0.1-0.3c-0.6,0-1.1,0-1.7,0
				c0.7-0.3,1.4-0.6,2.1-0.9C2458.6,1648.6,2459,1647.8,2459.4,1647.1z"/>
			<path class="st3" d="M1652.7,1753.4c9.1,0,18.5,0.4,27.2,3.3h74.2c-0.4-0.4-0.8-1-1.3-1.1c-7.5-1.2-15-2.2-22.4-3.5
				c-23.3-4-45.8-11.3-67.8-19.7c-21.1-8.1-41.5-18-60.8-29.8c-7.4-4.5-14.3-9.9-21.2-15.2c-3.2-2.5-2.7-5.1,1.1-6.5
				c6.1-2.3,12.4-4.6,18.7-6c12-2.7,24.1-5,36.1-7.4c0.6-0.1,1.2-0.4,1.8-0.7c-0.6-0.3-1.2-0.5-1.8-0.7c-0.3-0.1-0.6-0.1-0.8-0.2
				c-10.6-1.9-21.3-3.8-31.9-5.9c-11.4-2.2-22.8-4.6-34.2-7c-3.3-0.7-6.7-1.3-10-2.2c-3.4-1-3.9-3.2-1.6-5.7c0.6-0.7,1.2-1.3,1.8-2
				c-0.2-0.9-0.2-1.9-0.7-2.6c-0.9-2.2-3.8-2.5-5.2-0.5c-1.1,1.6-2.2,3.1-2.8,4.8c-0.6,1.7-1.3,2.6-3.3,2.1
				c-1.1-0.2-2.8,0.5-1.7,1.7c2.2,2.6-0.4,1.2-0.9,1.3c-0.6,0.2-1.2-0.2-1.7,0c-1,0.3-1.9,0.9-2.9,1.4c0.9,0.7,1.8,1.6,2.8,1.8
				c1.9,0.4,3.9,0.3,5.8,0.8c1.2,0.3,2.3,1,3.1,1.8c2.7,2.7,1.2,6.2,1.1,9.2c0,0.2,0,0.4,0,0.6c5.2,2,9.4,6.6,11.1,11.8
				c1.2,3.8,0.8,7.5-0.6,10.8c0.7-0.2,1.3-0.3,2-0.5c0-0.1-0.1-0.3-0.1-0.4c0.2,0.1,0.3,0.1,0.4,0.1l-0.3,0.3
				c0.5,0.3,1.2,1.1,1.6,0.9c1.4-0.4,2.7-1.2,4.1-1.6c0.7-0.2,1.8-0.4,2.1,0c0.5,0.5,0.8,1.6,0.7,2.3c-0.7,3.8-0.2,5.1,3.1,7.1
				c1.2,0.7,2.5,1.3,3.7,1.9c2.3,1.1,2.6,2.3,0.9,4.2c-0.7,0.7-1.3,1.6-1.8,2.4c-0.2,0.3-0.1,1,0.1,1.2s0.8,0.2,1.2,0
				c0.5-0.2,0.9-0.7,1.3-1c1-0.7,2.1-1.4,3.1-2.1c-0.3,1.3-0.6,2.6-0.8,3.8c-0.2,0.7-0.2,1.6-0.2,2.3c0.7-0.5,1.6-0.8,1.9-1.5
				c0.9-1.6,1.8-1.9,3.5-0.7c1.9,1.3,4,2.5,6,3.6c1.1,0.7,1.3,1.1,0.1,1.9c-1.9,1.3-3.2,3.5-2.2,5.5c1.6,3.2,3.9,6.1,5.9,9
				c0.4,0.5,1.3,1.2,1.2,1.5c-1.9,4.6,1.1,6.6,4.3,8.6c12.8,8.2,27,13.2,41,18.8c0.7,0,1.4,0,2,0
				C1649.3,1754.6,1650.6,1753.4,1652.7,1753.4z"/>
			<path class="st3" d="M1569.3,1673.4c0.9-0.6,1.5-1,2.1-1.4c-0.6-0.4-1.2-1.1-1.7-1.1c-0.6,0.1-1.1,0.8-1.6,1.2
				C1568.4,1672.5,1568.8,1672.9,1569.3,1673.4z"/>
			<path class="st3" d="M1563.2,1655.6c-0.2-0.1-0.3-0.2-0.4-0.2c-0.2,0.1-0.3,0.2-0.4,0.3c0.2,0.1,0.3,0.1,0.4,0.1
				C1563,1655.8,1563.1,1655.7,1563.2,1655.6z"/>
			<path class="st3" d="M1548.7,1649.8c-0.2,0.1-0.3,0.2-0.4,0.2c0.2,0.1,0.3,0.2,0.5,0.2s0.3-0.1,0.5-0.1
				C1549.1,1650,1548.9,1649.9,1548.7,1649.8z"/>
			<path class="st3" d="M2440.6,1631c-1.3-2.2-2.5-4.5-3.6-6.9c-1.4-3-2.4-6.3-4.3-8.9c-7.9-10.5-16.8-20.2-27.2-28.3
				c-1.3-1-3.3-2.1-4.7-1.8c-2.6,0.6-3.7-0.7-5.2-2.1c-1.6-1.6-3.3-3.2-5.2-4.6c-1-0.7-2.4-1.8-3.4-1.6c-2.6,0.5-4-1.1-5.6-2.3
				c-2-1.5-4.1-3.1-6.1-4.7c-0.4-0.2-0.8-0.3-1.2-0.5c-4.4-2.5-8.6-5.3-13-7.8c-3.5-2-5.8-4.6-7.1-7.5c-5.7-2.2-11.5-4.5-17.1-7
				c-3.1-1.4-6.2-3-9.2-4.6c-2.5,0.2-5,0.4-7.4,0.6c-8.1,0.7-13.2-3.5-15.4-9.1c-2.7-1.3-5.5-2.5-8.2-3.8c-0.4-0.2-0.8-0.9-0.9-1.5
				c-0.8-3-2.8-4.2-5.8-4.8c-7.6-1.4-15.3-2.7-22.8-4.5c-13.6-3.2-27-7.1-40.9-8.7c-4.2-0.4-8.5-2-12.4-1.1c-4.1,0.9-8,0.4-12,0.6
				c-2.4,0.1-5,0.5-6.9-1.8c-0.3-0.4-1.4-0.6-2.1-0.4c-2.2,0.3-4,0.2-4.8-2.4c-0.2-0.7-1.3-1.3-2.1-1.6c-4-1.3-7.9-2.7-12-3.5
				c-10.6-2-21.2-3.8-31.8-5.6c-4.3-0.7-8.8-1.2-13.2-1.6c-1.3-0.1-2.7,0.4-3.9,1.1c-1.4,0.8-2.3,2.2-1.2,4c0.3,0.4,0.5,0.9,0.7,1.4
				c-0.5-0.1-1.1-0.1-1.6-0.2c-6.8-0.8-13.6-1.7-20.4-2.5c-6.2-0.7-6.2-0.7-6.2,5.5c0.6,0.4,1.1,1.1,1.7,1.1
				c6.7,0.7,13.4,1.1,20.1,1.8c8,0.9,16.1,1.9,24.1,3.1c7.5,1.1,15,2.2,22.4,3.6c9.9,1.8,19.8,3.7,29.6,5.8c3.1,0.7,6.1,2.3,9,3.6
				c0.6,0.2,0.8,1.1,1.2,1.6c-0.6,0.2-1.1,0.6-1.7,0.7c-0.7,0.1-1.5,0-2.2,0c-7.5,0-14.9,0-22.3,0.1c-0.6,0-1.2,0.2-1.7,0.4
				c0.5,0.2,1,0.5,1.6,0.6c1.7,0.3,3.5,0.4,5.2,0.7c11.3,1.9,22.5,3.8,33.8,6c15.7,3.1,31.4,5.9,46.9,9.6c12.3,3,24.3,7,36.5,10.6
				c11.5,3.4,22.5,7.9,33,13.8c5.3,3,10.5,6.4,15.6,9.6c0.7,0.4,1.1,1.6,1.6,2.3c-0.9,0.3-1.8,0.8-2.8,0.8
				c-4.5-0.1-9.1-0.4-13.6-0.4c-7.5-0.1-15-0.1-22.6-0.1c-0.7,0-1.3,0.1-1.9,0.1c0.6,0.3,1.2,0.7,1.8,0.9
				c19.1,4.5,37.5,10.9,55.4,18.8c14.7,6.5,29.1,13.7,43.4,21.1c7.8,4,15,9.1,22.4,13.8c2.4,1.5,4.7,3.1,7.1,4.7
				C2441.9,1635.2,2441.8,1633.2,2440.6,1631z"/>
			<path class="st3" d="M1910,1498.1c0.1-1.4-0.2-2-1.8-1.8c-7.6,1-15.2,1.9-22.7,2.8c-2.8,3.7-7.1,6.4-13.2,6.4
				c-7.8,0-12.8-4.3-15.2-9.8c-8.6,1.5-17.1,3-25.6,4.7c-3.7,0.7-7.4,2-10.9,3.2c-0.9,0.3-2,1.1-2.2,1.9c-0.6,2.2-2.2,2.1-3.9,2.2
				c-1.2,0.1-2.5,0.4-3.6,0.8c-1.3,0.4-2.5,1.3-3.7,1.3c-5.2-0.2-10.5,1.4-15.5-0.8c-10.2,1.6-20.6,2.7-30.7,4.8
				c-8.6,1.7-16.9,4.7-25.5,6.7c-6.3,1.5-12.8,2.1-19.2,3.4c-1.7,0.3-4.2,1.5-4.6,2.8c-0.8,3-3,3.7-5.2,4.8c-2.1,1-4.1,2.3-6.2,3.2
				c-3.3,1.3-6.5,3.7-10.4,2.3c-0.6-0.2-1.4,0.1-2.1,0.4c-2.3,1-4.6,1.9-6.8,3.2c-5.5,3.2-11.1,6.1-16.7,8.8
				c-0.1,4.3-1.8,8.6-4.9,11.9c-5.6,6.1-15.6,6.4-22.2,1.9c0,0.1-0.1,0.2-0.1,0.3c-0.6,2.5-2.3,3.6-4.1,5c-3.2,2.5-6.3,4.9-9.5,7.3
				c-0.7,0.5-1.6,0.8-2.4,1.1c-1.7,0.6-3.6,0.8-5,1.8c-2.3,1.6-4.1,3.7-6.2,5.5c-0.6,0.5-1.6,1.3-2.2,1.1c-3-0.7-5.2,0.6-7.4,2.3
				c-9.6,7.7-17.8,16.7-25.5,26.3c-1.4,1.8-2.6,3.9-3.6,6c-1.8,3.7-3.5,7.5-5.3,11.3c-1.1,2.3-1,4.3,1.1,6c5-3.5,9.9-7.2,15.1-10.4
				c7.5-4.7,14.8-9.6,22.7-13.4c19.4-9.4,38.8-18.9,59.4-25.6c10.1-3.3,20.3-6.2,30.5-9.2c0.6-0.2,1.1-0.6,1.6-0.9
				c-0.6-0.1-1.3-0.2-1.9-0.2c-11.9,0.2-23.7,0.4-35.6,0.5c-1,0.1-1.9-0.6-3-0.9c0.6-0.9,1-2.1,1.8-2.6c5.7-3.6,11.4-7.2,17.3-10.5
				c13.8-7.6,28.7-12.3,43.8-16.7c11.7-3.4,23.5-6.7,35.4-9.4c11.8-2.7,23.7-4.6,35.7-6.8c12.6-2.3,25.3-4.5,37.9-6.6
				c0.4-0.1,0.7-0.2,1.1-0.2c-0.4-0.1-0.8-0.3-1.2-0.3c-7.9,0-15.7,0-23.6-0.1c-0.8,0-1.5-0.6-2.2-0.8c0.4-0.7,0.7-1.6,1.3-1.9
				c2.1-1,4.2-1.9,6.4-2.7c14.5-4.8,29.7-6.7,44.8-8.9c15.6-2.2,31.3-3.8,47-5.7c3-0.3,6-0.7,9-1.1
				C1910.1,1501.2,1909.9,1499.6,1910,1498.1z"/>
			<path class="st7" d="M2004.7,1532.9c5.7,0,11.3-0.2,17,0.1c11.5,0.4,23.1,0.8,34.6,1.7c10.9,0.8,21.8,1.9,32.7,3.3
				c11.1,1.4,22.3,3.1,33.3,5.3c14.7,3,29.4,6.4,43.9,10.2c15.1,4,29.7,9.5,44,16c12.3,5.6,23.8,12.3,34.4,20.6
				c9.5,7.5,17.5,16.3,21.9,27.7c4.5,11.8,3.3,23.2-2.8,34.1c-7.7,13.7-19.7,23.1-32.8,31.2c-21.4,13.2-45,21.6-69.1,28.4
				c-18.6,5.2-37.5,9-56.5,12c-9.2,1.4-18.6,2.5-28,3.5c-8.8,0.9-17.6,1.6-26.5,2.2c-7.9,0.6-15.7,0.9-23.5,1.1
				c-13.3,0.3-26.7,0.7-40,0.5c-11.4-0.2-22.9-0.8-34.3-1.7c-10.9-0.8-21.8-1.9-32.7-3.3c-11.1-1.4-22.3-3.1-33.3-5.3
				c-14.7-3-29.4-6.4-43.9-10.2c-15.1-4.1-29.8-9.5-44-16c-12.3-5.6-23.8-12.3-34.4-20.6c-9.5-7.5-17.5-16.3-21.9-27.7
				c-3.7-9.7-3.6-19.5,0.5-29.1c5.4-12.7,14.9-21.9,25.7-29.9c15.2-11.1,32-18.8,49.5-25.3c15.3-5.7,30.9-10.4,46.7-13.8
				c13.6-3,27.3-5.4,41-7.6c11.3-1.8,22.6-3.3,34-4.4c9.5-0.9,19.2-1.3,28.7-1.8c11.9-0.6,23.8-1,35.8-1.5
				C2004.7,1532.6,2004.7,1532.7,2004.7,1532.9z M2002.4,1555.2c0-0.3,0-0.6,0-0.9c-10.4,0.5-20.7,0.9-31,1.5
				c-7.6,0.4-15.3,0.7-22.9,1.8c-13.3,1.9-26.6,4-39.8,6.6c-22.2,4.3-43.6,11-63.6,21.6c-11.1,5.8-21.6,12.7-29.4,22.8
				c-8.5,10.9-11.2,23.3-4.6,36.3c4.5,8.9,11.5,15.5,19.5,21.3c11.5,8.2,24.2,14.1,37.5,19.1c17.4,6.5,35.4,11,53.8,14.1
				c11.6,1.9,23.3,3.3,35,4.5c10.5,1.1,20.9,2.1,31.5,2.1c15.1,0.1,30.2-0.3,45.2-1.1c9.9-0.4,19.7-1.4,29.4-2.8
				c13.3-1.9,26.6-4,39.7-6.9c21.9-4.9,43.2-12,62.7-23.4c10.3-6,19.8-13.1,26.2-23.4c5.6-8.9,7.4-18.4,3.7-28.6
				c-3.6-9.9-10.5-17.2-18.6-23.3c-13.2-10.1-28.2-16.9-43.8-22.4c-20.1-7-40.8-11.8-61.9-14.5c-13.6-1.7-27.2-3.3-40.9-4.3
				C2021,1554.6,2011.7,1555.2,2002.4,1555.2z"/>
			<path class="st6" d="M1563.2,1655.6c-0.1,0.1-0.2,0.2-0.4,0.3c-0.2,0-0.3-0.1-0.4-0.1c0.1-0.1,0.2-0.3,0.4-0.3
				C1562.9,1655.4,1563.1,1655.5,1563.2,1655.6z"/>
			<path class="st8" d="M2002.4,1555.2c9.2,0,18.5-0.6,27.7,0.1c13.7,0.9,27.4,2.6,40.9,4.3c21.1,2.7,41.8,7.5,61.9,14.5
				c15.6,5.5,30.6,12.3,43.8,22.4c8.1,6.2,15,13.4,18.6,23.3c3.7,10.2,1.9,19.7-3.7,28.6c-6.5,10.3-16,17.4-26.2,23.4
				c-19.5,11.5-40.7,18.5-62.7,23.4c-13.1,2.9-26.4,5-39.7,6.9c-9.7,1.4-19.6,2.3-29.4,2.8c-15,0.7-30.1,1.2-45.2,1.1
				c-10.5-0.1-21-1.1-31.5-2.1c-11.7-1.2-23.5-2.6-35-4.5c-18.3-3.1-36.3-7.6-53.8-14.1c-13.3-5-26-10.9-37.5-19.1
				c-8-5.7-15-12.4-19.5-21.3c-6.6-13-3.8-25.3,4.6-36.3c7.8-10.1,18.2-17,29.4-22.8c20.1-10.5,41.4-17.3,63.6-21.6
				c13.2-2.6,26.5-4.7,39.8-6.6c7.6-1.1,15.3-1.3,22.9-1.8c10.4-0.6,20.7-1,31-1.5C2002.3,1554.5,2002.3,1554.8,2002.4,1555.2z
				 M2002.8,1679.7c9-0.6,19.7-1.3,30.4-2.1c12.6-0.9,25.1-3,37.3-6.2c16.5-4.2,32.8-9.4,46.2-20.7c5.8-4.9,10.2-10.8,9.9-19
				c-0.3-7.3-4.3-12.7-9.5-17.2c-8.7-7.6-19.1-12.3-29.9-16c-13.2-4.6-26.7-7.9-40.6-9.4c-12.8-1.4-25.5-2.5-38.3-3.2
				c-7.6-0.4-15.2,0.2-22.7,0.4c-6.5,0.3-13,0.2-19.3,1.2c-13,2.1-26,4.2-38.8,7.3c-15,3.7-29.6,9.1-41.6,19.5
				c-5.7,4.8-10,10.8-9.7,18.8c0.2,7.5,4.3,12.9,9.6,17.5c8.7,7.6,19.1,12.3,29.9,16c18.3,6.4,37.3,9.6,56.5,11.5
				C1981.7,1679,1991.4,1679.1,2002.8,1679.7z"/>
			<path class="st9" d="M2002.8,1679.7c-11.5-0.6-21.2-0.7-30.8-1.6c-19.2-1.8-38.2-5.1-56.5-11.5c-10.8-3.8-21.2-8.4-29.9-16
				c-5.2-4.6-9.4-10-9.6-17.5c-0.2-8,4.1-13.9,9.7-18.8c12-10.4,26.6-15.8,41.6-19.5c12.8-3.2,25.8-5.2,38.8-7.3
				c6.4-1,12.9-1,19.3-1.2c7.6-0.3,15.2-0.9,22.7-0.4c12.8,0.7,25.6,1.8,38.3,3.2c13.9,1.5,27.4,4.8,40.6,9.4
				c10.8,3.7,21.2,8.5,29.9,16c5.2,4.5,9.2,9.9,9.5,17.2c0.3,8.2-4.1,14.1-9.9,19c-13.4,11.3-29.6,16.4-46.2,20.7
				c-12.3,3.1-24.7,5.2-37.3,6.2C2022.5,1678.4,2011.8,1679.1,2002.8,1679.7z"/>
		</g>
	</g>
</g>
<g id="Layer_4" class="st10">
	<g class="st11">
		<g>
			<path class="st6" d="M1907.2,1503.4c22.7-1.2,45.3-2.7,68-3.3c20.1-0.5,40.2-0.4,60.3,0.2c18.2,0.5,36.4,2,54.6,3.1
				c1.3,0.1,2.6-0.3,4-0.5c0.6,0.4,1.1,1.1,1.7,1.1c6.7,0.7,13.5,1.1,20.2,1.8c8.1,0.9,16.2,1.9,24.2,3.1c7.5,1.1,15,2.2,22.5,3.6
				c9.9,1.8,19.8,3.7,29.7,5.9c3.1,0.7,6.1,2.3,9,3.6c0.5,0.2,0.8,1.1,1.2,1.6c-0.6,0.2-1.1,0.6-1.7,0.6c-0.7,0.1-1.5,0-2.2,0
				c-7.4,0-14.9,0-22.3,0.1c-0.6,0-1.2,0.3-1.7,0.4c0.5,0.2,1,0.5,1.6,0.6c1.7,0.3,3.5,0.4,5.2,0.7c11.3,2,22.6,3.9,33.9,6.1
				c15.7,3,31.5,5.9,47.1,9.6c12.3,2.9,24.4,7,36.6,10.6c11.5,3.4,22.6,7.9,33.1,13.8c5.3,3,10.5,6.4,15.6,9.7
				c0.7,0.5,1.1,1.6,1.6,2.4c-0.9,0.3-1.9,0.9-2.8,0.8c-4.5-0.1-9.1-0.4-13.6-0.4c-7.5-0.1-15.1-0.1-22.6-0.1
				c-0.6,0-1.3,0.1-1.9,0.1c0.6,0.3,1.2,0.8,1.9,0.9c19.1,4.5,37.6,10.9,55.6,18.9c14.8,6.6,29.2,13.8,43.6,21.2
				c7.8,4.1,15,9.2,22.5,13.9c2.4,1.5,4.7,3.2,7.1,4.8c2.2,2,4.4,4.1,6.6,6.1c0.8,0.8,1.5,1.6,2.3,2.4c1.8,2,1.5,3.9-1,5.1
				c-0.9,0.4-1.9,0.7-2.9,0.9c-5.1,1.1-10.1,2.3-15.2,3.4c-7.8,1.6-15.7,3-23.5,4.5c-9.5,1.9-19.1,3.8-28.6,5.6
				c-2.8,0.5-5.6,1-8.5,1.5c-0.3,0.1-0.6,0.5-0.9,0.8c0.3,0.1,0.6,0.3,1,0.4c6.9,1.3,13.9,2.4,20.7,4c11,2.6,22,5.3,32.8,8.5
				c6.4,1.9,6.7,4.7,1.6,9c-0.2,0.2-0.4,0.4-0.6,0.5c-11.1,8.5-22.9,15.8-35.3,22.2c-23,11.9-46.7,22-71.4,29.9
				c-19.9,6.3-40.1,10.7-60.7,13.6c-2,0.3-3.8,1.1-5.7,1.6c-166.4,0-332.7,0-499.1,0c-0.4-0.4-0.9-1-1.3-1c-7.5-1.2-15-2.2-22.5-3.5
				c-23.4-4.1-46-11.3-68.1-19.8c-21.2-8.2-41.7-18-61-29.9c-7.4-4.5-14.4-9.9-21.2-15.3c-3.2-2.5-2.7-5.1,1.1-6.5
				c6.2-2.3,12.4-4.5,18.8-6c12-2.8,24.1-5,36.2-7.5c0.6-0.1,1.2-0.4,1.8-0.7c-0.6-0.2-1.2-0.5-1.9-0.7c-0.3-0.1-0.5-0.1-0.8-0.2
				c-10.7-2-21.3-3.9-32-5.9c-11.5-2.2-22.9-4.6-34.3-7c-3.4-0.7-6.7-1.3-10-2.2c-3.4-1-3.9-3.2-1.6-5.8c0.6-0.7,1.2-1.4,1.8-2
				c2.4-2,4.7-4,7.1-6c5-3.5,9.9-7.2,15.1-10.4c7.5-4.7,14.9-9.6,22.8-13.4c19.5-9.4,38.9-19,59.6-25.7c10.1-3.3,20.4-6.2,30.7-9.3
				c0.6-0.2,1-0.6,1.6-0.9c-0.6-0.1-1.3-0.2-1.9-0.2c-11.9,0.2-23.8,0.4-35.7,0.5c-1,0-2-0.6-3-0.9c0.6-0.9,1-2,1.8-2.5
				c5.7-3.6,11.4-7.3,17.4-10.6c13.8-7.6,28.9-12.3,44-16.7c11.8-3.4,23.6-6.7,35.5-9.4c11.8-2.7,23.8-4.6,35.8-6.8
				c12.7-2.3,25.4-4.4,38.1-6.6c0.3-0.1,0.7-0.2,1-0.2c-0.4-0.1-0.8-0.3-1.2-0.3c-7.9,0-15.8,0-23.6-0.1c-0.7,0-1.5-0.6-2.2-0.9
				c0.4-0.7,0.7-1.6,1.3-1.9c2.1-1,4.2-2,6.4-2.7c14.6-4.8,29.8-6.7,45-8.9c15.7-2.2,31.4-3.9,47.2-5.7
				C1901.1,1504.2,1904.2,1503.8,1907.2,1503.4z M2002,1533.7c0-0.1,0-0.3,0-0.4c-12,0.5-23.9,0.9-35.9,1.5
				c-9.6,0.5-19.3,0.8-28.8,1.8c-11.4,1.1-22.8,2.6-34.1,4.4c-13.8,2.2-27.5,4.7-41.2,7.7c-16,3.4-31.6,8.2-46.9,13.9
				c-17.6,6.5-34.5,14.3-49.7,25.4c-10.9,8-20.4,17.2-25.8,30c-4.1,9.7-4.2,19.5-0.5,29.3c4.4,11.5,12.4,20.3,22,27.9
				c10.6,8.4,22.3,15,34.6,20.7c14.3,6.6,29,12,44.2,16.1c14.6,3.9,29.3,7.3,44.1,10.3c11,2.3,22.2,3.9,33.4,5.4
				c10.9,1.4,21.9,2.5,32.8,3.3c11.5,0.9,23,1.5,34.4,1.7c13.4,0.2,26.8-0.2,40.2-0.5c7.9-0.2,15.8-0.6,23.6-1.1
				c8.9-0.6,17.7-1.3,26.5-2.2c9.4-1,18.8-2,28.1-3.5c19.1-3,38.1-6.8,56.7-12.1c24.2-6.8,47.8-15.2,69.4-28.4
				c13.2-8.1,25.1-17.5,32.9-31.3c6.2-11,7.4-22.5,2.9-34.3c-4.4-11.5-12.5-20.3-22-27.9c-10.6-8.4-22.3-15.1-34.6-20.7
				c-14.3-6.6-29-12-44.2-16.1c-14.6-3.9-29.3-7.3-44.1-10.3c-11-2.3-22.2-3.9-33.4-5.4c-10.9-1.4-21.9-2.5-32.8-3.3
				c-11.6-0.9-23.1-1.3-34.7-1.7C2013.4,1533.5,2007.7,1533.7,2002,1533.7z"/>
			<path class="st3" d="M2249.5,1758.3c1.9-0.5,3.8-1.3,5.7-1.6c20.6-2.9,40.8-7.3,60.7-13.6c24.7-7.9,48.4-18.1,71.4-29.9
				c12.4-6.4,24.2-13.7,35.3-22.2c0.2-0.2,0.4-0.4,0.6-0.5c5.1-4.3,4.8-7.1-1.6-9c-10.8-3.2-21.8-5.9-32.8-8.5
				c-6.8-1.6-13.8-2.7-20.7-4c-0.3-0.1-0.6-0.3-1-0.4c0.3-0.3,0.6-0.7,0.9-0.8c2.8-0.5,5.6-1,8.5-1.5c9.5-1.9,19.1-3.8,28.6-5.6
				c7.8-1.5,15.7-2.9,23.5-4.5c5.1-1,10.1-2.2,15.2-3.4c1-0.2,2-0.5,2.9-0.9c2.4-1.2,2.8-3.2,1-5.1c-0.7-0.8-1.5-1.6-2.3-2.4
				c0.2-0.9,0.3-1.9,0.7-2.7c1.1-2.3,4-2.5,5.4-0.3c0.7,1.2,1.6,2.3,2.1,3.6c0.8,2,1.6,3.7,4.3,3c0.3-0.1,1,1.6,1.6,2.5h0.1
				c-0.2,0-0.5,0-0.7,0c-0.4,0-0.8,0-1.1,0.1c-0.9,0.3-1.8,0.8-2.7,1.1c0.9,0,1.8,0.1,2.7,0c1-0.1,1.9-0.4,2.9-0.6
				c0.1,0,0.2,0,0.3,0c1.3,0.5,2.5,0.9,3.8,1.4c-1.2,0.7-2.3,1.6-3.6,1.9c-1.5,0.4-3.1,0.4-4.7,0.6c-2.9,0.3-4.8,2.5-4.7,5.4
				c0.1,2.6,0.3,5.2,0.4,7.7c0.1,2.8-1.3,4.7-3.5,6.2c-0.6,0.4-1,1-1.5,1.5c0.7,0.2,1.4,0.4,2,0.6c8.2,2.1,16.4,4.2,24.5,6.4
				c1.2,0.3,2.3,1.1,3.5,1.6c0,0.2,0,0.5,0,0.7c-0.7,0-1.4,0-2.1,0c-1.3-0.3-2.6-0.6-3.8-0.9c-1.5-0.4-2.9-0.9-4.4-1.3
				c-0.3-0.1-0.7,0-1.1,0c0.3,0.2,0.7,0.6,1,0.7c1.5,0.5,3,0.8,4.5,1.2c1.3,0.4,2.6,0.8,3.9,1.2c1.1,0.7,2.1,1.4,3.2,2.1
				c-1.2-0.1-2.5,0-3.7-0.3c-7.3-1.9-14.6-3.9-21.9-5.9c-1.1-0.3-2.2-0.6-3.3-0.8c-0.3-0.2-0.6-0.4-1-0.5c-1-0.1-2-0.2-2.9-0.3
				c1,0.3,2,0.6,3.1,0.9c1.4,0.5,2.8,1.1,4.3,1.6c1.6,0.6,3.2,1.2,4.8,2c0.5,0.2,0.8,0.9,1.2,1.4c-1.1-0.1-2.1-0.2-3.2-0.3
				c1.1,0.4,2.2,0.9,3.3,1.3c0.1,0,0.2,0,0.3-0.1c3.2,1.1,6.4,2.1,9.5,3.3c0.7,0.3,1.1,1.3,1.6,1.9c-0.8,0.1-1.6,0.5-2.3,0.3
				c-1.7-0.3-3.4-1-4.6,1.2c-0.1,0.3-1.4,0.2-2.1,0c-1.9-0.5-3.7-1.2-5.6-1.8c-1.2-0.4-2.4-1.4-3.7,0.2c-0.3,0.4-1.7-0.1-2.6-0.4
				c-3.4-0.9-6.9-1.8-10.3-2.6c0.1-0.1,0.1-0.1,0.1-0.2c0,0,0-0.1,0-0.2c0,0.1,0,0.2-0.1,0.4c-0.6,0.3-1.3,1-1.7,0.9
				c-1.4-0.4-2.7-1.2-4.1-1.6c-0.6-0.2-1.5-0.2-1.9,0.1c-0.5,0.4-0.9,1.4-0.8,1.8c1.6,4.1-0.5,6.4-3.7,8.1c-1.1,0.6-2.2,1.1-3.2,1.6
				c-1.8,0.9-2.2,1.9-0.9,3.7c0.9,1.2,1.3,2.7,2,4.1c-1.3-0.7-2.6-1.3-4-2c-0.6-0.3-1.2-0.6-1.8-0.9c0.1,0.6,0.2,1.2,0.3,1.8
				c0,0.1,0.1,0.2,0.1,0.2c0.2,1.3,0.4,2.6,0.7,3.9c-0.9-0.8-1.8-1.6-2.7-2.3c-0.5-0.3-1.4-0.6-2-0.4c-1.3,0.6-2.6,1.5-3.8,2.3
				c-1.2,0.7-2.4,1.4-3.6,2.1c0.7,0.9,1.7,1.7,2.2,2.7c0.5,1.2,1.3,3,0.8,3.9c-1.8,3.2-4,6.2-6.1,9.3c-0.4,0.6-1,1.3-1,1.8
				c0.7,3.9,0.3,5.5-3.1,7.5c-6.2,3.5-12.5,7.1-18.9,10.1c-7.8,3.7-15.8,6.8-23.7,10.2C2322.2,1758.3,2285.9,1758.3,2249.5,1758.3z
				 M2436.2,1671.1c-1.3,1.4-1.7,1.8-2.1,2.2c0.8,0.3,1.5,0.8,2.3,1c0.2,0.1,0.9-0.6,0.8-0.7
				C2437,1672.8,2436.6,1672.1,2436.2,1671.1z"/>
			<path class="st3" d="M1555.4,1644.3c-0.6,0.7-1.2,1.4-1.8,2c-2.3,2.6-1.8,4.8,1.6,5.8c3.3,1,6.7,1.5,10,2.2
				c11.4,2.3,22.9,4.8,34.3,7c10.6,2.1,21.3,4,32,5.9c0.3,0.1,0.6,0.1,0.8,0.2c0.6,0.2,1.2,0.5,1.9,0.7c-0.6,0.2-1.2,0.5-1.8,0.7
				c-12.1,2.5-24.2,4.7-36.2,7.5c-6.4,1.5-12.6,3.7-18.8,6c-3.8,1.4-4.3,4-1.1,6.5c6.9,5.3,13.8,10.7,21.2,15.3
				c19.4,11.9,39.9,21.7,61,29.9c22.1,8.5,44.7,15.8,68.1,19.8c7.5,1.3,15,2.3,22.5,3.5c0.5,0.1,0.9,0.7,1.3,1
				c-29.8,0-59.6,0-89.4,0c-0.9-0.2-1.7-0.5-2.6-0.5c-5.3,0-10.5,0-15.8,0c-14-5.7-28.3-10.6-41.2-18.9c-3.2-2.1-6.2-4.1-4.3-8.7
				c0.1-0.3-0.8-1-1.2-1.5c-2-3-4.4-5.8-6-9c-1-2,0.2-4.2,2.2-5.5c1.2-0.8,1-1.2-0.1-1.9c-2-1.1-4.1-2.2-6-3.6
				c-1.6-1.2-2.5-0.9-3.4,0.8c-0.4,0.7-1.3,1-2,1.5c0.1-0.8,0.1-1.6,0.2-2.4c0.2-1.3,0.6-2.6,0.9-3.9c-1,0.7-2.1,1.4-3.1,2.1
				c-0.5,0.3-0.8,0.8-1.3,1c-0.3,0.2-1,0.2-1.2,0s-0.3-0.9-0.1-1.2c0.5-0.9,1.2-1.7,1.8-2.4c1.6-1.9,1.4-3.1-0.9-4.2
				c-1.3-0.6-2.5-1.2-3.7-1.9c-3.3-2-3.8-3.4-3.1-7.2c0.1-0.7-0.2-1.8-0.8-2.4c-0.4-0.4-1.5-0.2-2.1,0c-1.4,0.5-2.7,1.2-4.1,1.6
				c-0.4,0.1-1-0.6-1.6-1c0.1-0.1,0.2-0.2,0.3-0.3c-0.1,0-0.2,0-0.4,0c0,0.1,0.1,0.3,0.1,0.4c-3,0.7-5.9,1.5-8.9,2.1
				c-1.6,0.4-3.3,2-5,0c-0.2-0.2-1.2,0.1-1.8,0.3c-2.1,0.7-4.2,1.5-6.3,2c-0.8,0.2-1.7-0.6-2.6-0.7c-1.4-0.2-2.8-0.2-4.1-0.3
				c-0.7-0.1-1.4-0.2-2-0.3c0.5-0.6,0.8-1.4,1.4-1.7c3.2-1.2,6.5-2.3,9.7-3.4c0.1,0,0.2,0.1,0.3,0.1c1.1-0.4,2.3-0.9,3.4-1.4
				c-1.2,0.1-2.3,0.2-3.5,0.3c1.5-0.9,2.9-1.8,4.4-2.7c2.6-0.8,5.2-1.6,7.8-2.4c1-0.4,1.9-0.8,2.9-1.2c-1,0.1-1.9,0.3-2.9,0.4
				c-2.6,0.7-5.2,1.4-7.7,2c-7.9,2.1-15.7,4.1-23.6,6.2c0-0.4,0-0.8,0-1.1c1.5-0.6,3-1.1,4.5-1.7c3.6-1,7.2-2.1,10.9-3.1
				c0.3-0.1,0.5-0.3,0.7-0.4c-0.3,0-0.6-0.2-0.8-0.1c-3.6,0.9-7.1,1.8-10.7,2.7c-1.2,0-2.4,0-3.6,0c1-0.6,1.9-1.4,3-1.7
				c8.3-2.2,16.6-4.3,24.8-6.5c0.8-0.2,1.5-0.5,2.3-0.7c-0.5-0.5-0.9-1.1-1.5-1.5c-3-2-3.6-4.6-3.5-8.2c0.1-3,1.6-6.6-1.1-9.3
				c-0.8-0.8-2-1.6-3.1-1.9c-1.9-0.5-3.9-0.3-5.8-0.8c-1-0.2-1.9-1.2-2.8-1.8c1-0.5,1.9-1.1,2.9-1.4c0.5-0.2,1.1,0.1,1.7,0
				c0.5-0.1,3.2,1.4,1-1.3c-1.1-1.3,0.6-2,1.7-1.7c2,0.4,2.7-0.4,3.3-2.1c0.6-1.7,1.7-3.3,2.8-4.8c1.4-2,4.2-1.7,5.2,0.5
				C1555.2,1642.4,1555.3,1643.4,1555.4,1644.3z M1556.5,1683c-0.5-0.2-0.7-0.4-0.9-0.4c-2.8,0.8-5.7,1.6-8.5,2.5
				c-0.2,0.1-0.3,0.4-0.5,0.6c0.4,0.1,0.8,0.2,1.2,0.1c2.5-0.7,4.9-1.5,7.4-2.3C1555.6,1683.4,1555.9,1683.2,1556.5,1683z
				 M1564.9,1674.8c0.9-0.6,1.5-1,2.1-1.4c-0.6-0.4-1.2-1.1-1.7-1c-0.5,0-1.1,0.8-1.6,1.2
				C1564.1,1673.9,1564.5,1674.3,1564.9,1674.8z M1558.9,1656.9c-0.2-0.1-0.3-0.2-0.4-0.2c-0.2,0-0.3,0.2-0.4,0.3
				c0.2,0,0.3,0.1,0.5,0.1C1558.7,1657.1,1558.8,1657,1558.9,1656.9z M1544.3,1651.1c-0.2,0.1-0.3,0.2-0.4,0.2
				c0.2,0.1,0.3,0.2,0.5,0.2s0.3-0.1,0.5-0.1C1544.7,1651.2,1544.5,1651.1,1544.3,1651.1z"/>
			<path class="st3" d="M2565.4,1593.3c1.5,1.4,3,2.8,4.4,4.3c0.4,0.4,0.3,1.3,0.5,2c-0.6-0.2-1.4-0.2-1.8-0.6
				c-3.3-2.6-6.5-5.3-9.7-7.9c-0.5-0.4-1.8-0.8-2.1-0.6c-1.1,1.1-1.9,2.5-2.8,3.8c0.6,0.3,1.3,0.6,1.9,1.1c0.7,0.6,1.2,1.4,1.8,2.2
				c-0.8,0.5-1.5,1.5-2.3,1.5c-1.6,0-2.7,0.5-3.6,1.9c-1.7,2.4-4.6,1.2-6.3,0.7c-3.7-1-6,2-9.2,2.1c-0.1,0-0.2,0.4-0.4,0.5
				c0.2,0.1,0.5,0.2,0.7,0.4c0.7,0.8,1.4,1.6,2.2,2.3c-0.9,0.7-1.6,1.8-2.6,2c-2.8,0.7-5.7,1-8.5,1.5c-4,0.8-7.9,1.7-11.9,2.4
				c-2.6,0.4-5.4,0.4-8,0.6c-0.7,0.1-1.8,0.2-1.9,0.6c-1.1,3-3.4,2.2-5.4,1.8c-10.3-2.5-20.6-5.2-30.8-7.8c-3.2-0.8-6.5-1.7-9.7-2.5
				c-1.1-0.3-2.3-0.9-2.1,1.4c0.2,2.4-1.8,3.7-4.2,3c-1.3-0.4-2.6-1.1-3.7-1.9c-6.4-4.2-12.8-8.4-19-12.8c-0.9-0.6-1.2-2.2-1.5-3.4
				c-0.6-2,1.5-5-2.4-5.6c-0.4-0.1-0.9-1.1-0.7-1.6c0.2-0.6,0.8-1.4,1.3-1.5c1.3-0.3,1.9-0.6,1.5-2.2c-0.1-0.5,1-1.7,1.8-1.9
				c1.8-0.6,3.5,0.2,4.9-2.5c1.1-2.2,4.9-3.1,7.6-4.2c1.6-0.7,3.4-0.9,5.2-1c9.8-0.9,19.6-2,29.5-2.5c6.8-0.3,13.6,0.2,20.4,0.3
				c0.7,0,1.4-0.1,2.1-0.2c-0.5-0.6-0.9-1.4-1.5-1.8c-0.7-0.5-1.5-0.7-2.3-0.9c-15.5-3.9-31.1-7.7-46.6-11.6
				c-1.7-0.4-3.2-1.3-4.8-1.9c1.8-0.1,3.5-0.4,5.3-0.2c3.9,0.5,7.7,1.4,11.6,1.8c2.5,0.2,5.2-0.8,7.6-0.3c9.9,2.2,19.7,4.5,29.5,7.3
				c2.6,0.7,3.2-0.8,4.4-1.9c-0.4-0.4-0.8-0.9-1.2-1.3c-0.9-0.7-1.8-1.4-2.6-2c1.1,0.1,2.5-0.2,3.4,0.3c7.9,4.5,17,4.5,25.5,6.9
				c7.4,2.1,14.6,4.5,20.9,9.1c3.9,2.9,7.8,5.8,9.2,10.8c0.2,0.6,1.1,1.2,1.8,1.6c6.3,3.7,12.7,7.3,19,11c0.1,0.1,0.4-0.2,0.6-0.3
				c0,0.4,0,0.7,0,1.1c-2.4,1.3-3.3-1.3-5-1.8c-1.9-0.9-3.7-1.7-5.6-2.6c-0.2-0.2-0.4-0.4-0.5-0.6c-0.4-0.2-0.7-0.4-1.1-0.6
				c-0.4-0.2-0.8-0.4-1.1-0.5c-0.2-0.1-0.4-0.3-0.6-0.4c0,0.1-0.1,0.2-0.1,0.2c0.3,0.1,0.5,0.1,0.8,0.2c0.4,0.2,0.7,0.4,1.1,0.6
				c0.4,0.3,0.8,0.6,1.2,0.9c0.2,0.1,0.3,0.1,0.5,0.1c1.8,1.2,3.6,2.3,5.5,3.5c-0.3,1.9-1.3,1.3-2.3,0.8c-2.1-1.1-4.2-2.2-6.3-3.3
				c-0.2-0.2-0.4-0.3-0.7-0.5c-0.4-0.1-0.8-0.2-1.1-0.4c0.2,0.3,0.4,0.6,0.6,1C2565,1593,2565.2,1593.1,2565.4,1593.3z M2549,1578.4
				c0.1,0.1,0.2,0.2,0.3,0.2C2549.3,1578.6,2549.2,1578.5,2549,1578.4c-0.5-0.6-1-1.2-1.6-1.7c-4.4-2.3-8.7-4.5-13.1-6.7
				c-0.4-0.2-0.9,0-1.4,0c0.3,0.4,0.6,0.9,1,1.1c4.2,2.1,8.5,4.2,12.7,6.3C2547.5,1577.8,2548.2,1578.1,2549,1578.4z M2504.5,1598.8
				c10-0.7,20.1-1.2,30.3-2.1c2.7-0.2,5.4-1.3,8-2.2c1.1-0.4,2.1-1.3,3.1-1.9c-0.6-0.7-1.2-1.4-1.9-1.9c-1-0.7-2.1-1.2-3.1-1.8
				c-0.8-0.4-1.6-0.9-2.3-1.3c0.7,0,1.5,0.1,2-0.2c0.8-0.5,1.4-1.4,2.1-2.1c0.4-0.4,0.8-1,1.3-1.3c0.3-0.2,0.9-0.1,1.3-0.1
				c-0.4-0.3-0.9-0.7-1.3-0.9c-8.1-4.1-16.7-6.6-25.5-8.8c-13-3.2-26.2-4.3-39.6-3.4c-8.6,0.6-17.2,1.8-25.8,2.4
				c-4.9,0.4-9.9,0.5-13.9,4c-0.4,0.4-0.9,0.7-1.4,1.1c0.6,0,1.1,0,1.7-0.1c8.2-1.1,16.4-2.2,24.6-3.2c0.6-0.1,1.2,0.2,1.9,0.4
				c-0.5,0.5-1,1.1-1.5,1.6c-0.7,0.7-1.9,1.4-1.9,2.1c-0.1,1.7-1,1.6-2.2,1.7c-1.9,0.2-3.9,0.3-5.8,0.6c-0.7,0.1-1.7,0.3-1.9,0.7
				c-1,2.1-2.8,1.7-4.6,1.7c-3,0-6.1,0.2-9.1,0.4c-0.4,0-0.8,0.5-1.2,0.8c0.3,0.3,0.6,0.7,1,0.9c9.8,3.9,19.3,8.8,30,10.2
				c5.5,0.7,10.9,2.4,16.5,2.8C2491.5,1599.2,2497.9,1598.8,2504.5,1598.8z M2536,1574.3c-1.5-0.8-2.3-1.3-3.2-1.7
				c-0.2-0.1-0.6,0.2-0.8,0.3c0.8,0.5,1.6,1,2.4,1.4C2534.6,1574.4,2534.9,1574.3,2536,1574.3z M2551.5,1588.1
				c-0.2-0.3-0.4-0.6-0.5-0.6c-0.2,0-0.4,0.2-0.7,0.3c0.2,0.2,0.3,0.5,0.6,0.7C2550.9,1588.5,2551.2,1588.2,2551.5,1588.1z
				 M2563.4,1591.6l0.1-0.1L2563.4,1591.6L2563.4,1591.6z"/>
			<path class="st3" d="M1421.3,1595.1c0.2,0.1,0.5,0.4,0.6,0.3c6.4-3.6,12.7-7.3,19-11c0.7-0.4,1.4-1.1,1.9-1.8
				c2.1-2.8,3.8-6,6.3-8.3c8.3-7.4,18.6-10.5,29.1-12.6c6.8-1.3,13.5-2.5,19.7-5.6c0.3-0.2,0.7-0.3,1.1-0.3c0.9-0.1,1.7-0.1,2.6-0.1
				c-0.6,0.6-1.2,1.1-1.9,1.7c-0.7,0.6-1.3,1.1-2,1.7c1.3,0.5,1.3,2.8,3.9,2.1c9.9-2.8,20-5,30-7.5c7.4,1.6,14.4-1.2,21.7-1.7
				c0.9-0.1,1.9,0.3,2.8,0.5c-0.9,0.5-1.7,1.1-2.6,1.4c-3.9,1-7.8,1.8-11.7,2.8c-12.3,3.1-24.5,6.2-36.8,9.3
				c-0.5,0.1-1.2,0.2-1.6,0.5c-0.9,0.7-1.7,1.5-2.6,2.3c1,0,2,0.2,2.9,0.1c13.3-1.7,26.4,1,39.5,1.6c3.6,0.2,7.4,0,10.8,0.9
				c4,1,8.5,2.3,11.2,5c1.9,1.9,3.9,1.7,5.5,2.8c1.8,1.2,2.1,4.1,4.3,5.5c0.1,0-0.4,1.5-0.8,1.5c-3.8,0.6-1.8,3.6-2.4,5.6
				c-0.3,1.2-0.6,2.8-1.5,3.4c-6.2,4.4-12.6,8.6-19,12.7c-1.2,0.8-2.6,1.5-4,2c-2.1,0.6-4.1-0.7-3.9-2.7c0.3-2.5-1-2-2.4-1.6
				c-9.2,2.4-18.3,4.9-27.5,7.3c-4.4,1.1-8.9,2.1-13.3,3c-1.9,0.4-4,0.8-4.9-1.9c-0.1-0.4-1.3-0.6-1.9-0.6c-4,0.2-7.9-0.3-11.7-1.9
				c-2.3-1-5.1-0.7-7.7-1.1c-3-0.4-6.1-0.9-9.1-1.6c-1-0.2-1.8-1.3-2.6-2c0.7-0.8,1.4-1.6,2.1-2.4c0.2-0.2,0.5-0.4,0.8-0.6
				c-0.3-0.2-0.6-0.3-0.9-0.5c-4-1.8-8.2-2.8-12.6-1.4c-0.1,0-0.2,0.1-0.3,0c-2.4-1.6-4.9-3-7.6-4c-1.4-0.5,0.1-2.1,1.3-2.8
				c0.7-0.4,3-0.2,1.4-1.9c-1.1-1.1-1.3-4.8-4.3-2.4c-3.3,2.6-6.5,5.3-9.7,7.9c-0.5,0.4-1.2,0.4-1.8,0.6c0.1-0.7,0.1-1.5,0.5-2
				c1.4-1.5,2.9-2.9,4.4-4.3c0.2-0.1,0.5-0.3,0.7-0.4c0.2-0.3,0.4-0.6,0.6-1c-0.4,0.1-0.8,0.2-1.1,0.4c-0.2,0.2-0.4,0.3-0.7,0.5
				c-2.1,1.1-4.2,2.2-6.3,3.3c-1.1,0.6-2.1,1.1-2.3-0.7c1.8-1.2,3.6-2.3,5.5-3.5c0.2,0,0.4,0,0.5-0.1c0.4-0.3,0.8-0.6,1.2-0.9
				c0.4-0.2,0.7-0.4,1.1-0.6c0.3-0.1,0.5-0.1,0.8-0.2c0-0.1-0.1-0.2-0.1-0.2c-0.2,0.1-0.4,0.3-0.6,0.4c-0.4,0.2-0.8,0.4-1.1,0.5
				c-0.4,0.2-0.7,0.4-1.1,0.6c-0.2,0.2-0.4,0.4-0.5,0.6c-1.9,0.9-3.7,1.8-5.6,2.6c-0.3,0.2-0.8,0.3-1,0.5c-1.1,1.5-2.4,1.8-4.1,1.3
				C1421.3,1595.9,1421.3,1595.5,1421.3,1595.1z M1452.1,1578.4c0.8-0.3,1.6-0.7,2.3-1c4.2-2.1,8.5-4.2,12.7-6.3
				c0.4-0.2,0.7-0.7,1-1.1c-0.5,0-1-0.2-1.4,0c-4.4,2.2-8.7,4.5-13.1,6.7C1453.1,1577.3,1452.6,1577.8,1452.1,1578.4
				c-0.2,0-0.3,0.1-0.3,0.2C1451.9,1578.6,1452,1578.5,1452.1,1578.4z M1513.2,1570.2c0,0.1,0,0.1,0,0.2c-1.6,0-3.2-0.1-4.7,0
				c-17.6,1.1-34.7,4.6-50.7,12.2c-0.7,0.3-1.3,0.7-1.9,1.1c0.6,0.1,1.2,0.1,1.7,0.3c0.3,0.1,0.4,0.6,0.7,0.8c1,1.2,1.6,3.1,3.8,2.5
				c0.2,0,0.4,0.1,0.5,0.1c-0.3,0.2-0.5,0.5-0.8,0.7c-2.1,1.2-4.2,2.4-6.2,3.7c-0.8,0.6-1.6,1.6,0.2,2.2c2.5,0.8,5,2.1,7.6,2.5
				c5.4,0.8,10.8,1.6,16.2,1.8c12.2,0.4,24.4,0.8,36.5,0.4c7.3-0.3,14.7-1.7,21.7-3.7c8.3-2.4,16.2-6,24.3-9.1
				c0.5-0.2,0.8-0.7,1.2-1c-0.5-0.3-1-0.7-1.6-0.8c-3-0.2-6.1-0.1-9.1-0.3c-1.2-0.1-2.5-0.4-3.6-0.8c-1.2-0.4-2.2-1.4-3.4-1.6
				c-1.8-0.4-3.7-0.4-5.5-0.6c-0.5-0.1-1.3-0.6-1.3-0.9c-0.1-1.8-1.1-2.6-2.7-3c-0.4-0.1-0.6-1-0.8-1.5c0.5-0.1,0.9-0.4,1.4-0.4
				c3.2,0.3,6.5,0.6,9.7,1.1c5.3,0.7,10.5,1.5,15.7,2.3c0.4,0.1,0.9,0,1.3,0c-0.2-0.2-0.3-0.5-0.5-0.6c-3.4-1.9-6.6-3.9-10.8-4.1
				C1539.2,1572.5,1526.2,1571.3,1513.2,1570.2z M1469.6,1573.2c-0.5-0.4-0.7-0.8-0.8-0.7c-1,0.5-1.9,1-2.8,1.5
				c0.1,0.1,0.3,0.4,0.4,0.4C1467.3,1574,1468.3,1573.6,1469.6,1573.2z M1450.2,1588.6c0.3-0.2,0.5-0.4,0.6-0.5
				c-0.2-0.2-0.4-0.4-0.6-0.6c-0.2,0.2-0.4,0.3-0.4,0.5C1449.8,1588.1,1450,1588.3,1450.2,1588.6z M1437.7,1591.6L1437.7,1591.6
				L1437.7,1591.6L1437.7,1591.6z"/>
			<path class="st6" d="M1642.6,1757.8c5.3,0,10.5,0,15.8,0c0.9,0,1.8,0.3,2.6,0.5c-6.1,0-12.3,0-18.4,0
				C1642.6,1758.2,1642.7,1758,1642.6,1757.8z"/>
			<path class="st3" d="M2438.9,1638.2c-2.4-1.6-4.7-3.3-7.1-4.8c-7.5-4.7-14.7-9.8-22.5-13.9c-14.3-7.4-28.8-14.7-43.6-21.2
				c-17.9-8-36.4-14.4-55.6-18.9c-0.7-0.2-1.2-0.6-1.9-0.9c0.6,0,1.3-0.1,1.9-0.1c7.5,0,15.1,0,22.6,0.1c4.5,0.1,9.1,0.4,13.6,0.4
				c0.9,0,1.9-0.5,2.8-0.8c-0.5-0.8-0.9-1.9-1.6-2.4c-5.2-3.3-10.3-6.7-15.6-9.7c-10.5-5.9-21.6-10.4-33.1-13.8
				c-12.2-3.6-24.3-7.7-36.6-10.6c-15.6-3.7-31.3-6.6-47.1-9.6c-11.3-2.2-22.6-4.1-33.9-6.1c-1.7-0.3-3.5-0.4-5.2-0.7
				c-0.5-0.1-1.1-0.4-1.6-0.6c0.6-0.1,1.2-0.4,1.7-0.4c7.4,0,14.9,0,22.3-0.1c0.7,0,1.5,0.1,2.2,0c0.6-0.1,1.1-0.4,1.7-0.6
				c-0.4-0.6-0.7-1.4-1.2-1.6c-3-1.3-5.9-2.9-9-3.6c-9.9-2.2-19.8-4.1-29.7-5.9c-7.5-1.4-15-2.5-22.5-3.6
				c-8.1-1.1-16.1-2.2-24.2-3.1c-6.7-0.7-13.5-1.2-20.2-1.8c-0.6-0.1-1.1-0.7-1.7-1.1c0-6.1,0.1-6.2,6.3-5.5
				c6.8,0.8,13.7,1.6,20.5,2.5c0.5,0.1,1.1,0.1,1.6,0.2c-0.2-0.5-0.4-0.9-0.7-1.4c-1.1-1.8-0.3-3.2,1.2-4c1.2-0.7,2.6-1.2,3.9-1.1
				c4.4,0.4,8.9,0.9,13.3,1.6c10.6,1.8,21.3,3.6,31.8,5.6c4.1,0.8,8,2.2,12,3.4c0.8,0.3,1.9,0.9,2.1,1.6c0.8,2.6,2.6,2.7,4.8,2.4
				c0.7-0.1,1.7,0,2.1,0.5c1.9,2.4,4.5,1.9,6.9,1.8c4-0.1,7.9,0.4,12-0.6c3.8-0.9,8.2,0.7,12.4,1.1c14,1.6,27.4,5.5,41.1,8.7
				c7.6,1.8,15.3,3.1,22.9,4.5c3,0.5,5,1.8,5.8,4.8c0.2,0.6,0.5,1.3,1,1.5c4.8,2.3,9.7,4.7,14.6,6.7c1.5,0.6,3.3,0.2,5,0.3
				c0.8,0.1,1.7,0.1,2.4,0.5c6.1,3.1,12,6.6,18.3,9.5c7.7,3.5,15.7,6.4,23.5,9.6l0,0c0.8,0.6,1.5,1.2,2.3,1.7c3.2,2,7,3.2,7.9,7.6
				c0.1,0.6,1,1.1,1.6,1.5c3.2,2.4,6.3,4.9,9.5,7.3c1.6,1.3,3,2.8,5.6,2.4c1-0.2,2.4,0.9,3.4,1.6c1.8,1.4,3.6,3,5.2,4.6
				c1.5,1.5,2.6,2.7,5.2,2.1c1.4-0.3,3.4,0.8,4.7,1.8c10.5,8.1,19.4,17.8,27.4,28.4c2,2.6,2.9,6,4.4,9c1.1,2.3,2.3,4.6,3.6,6.9
				C2440.8,1634.4,2440.9,1636.4,2438.9,1638.2z"/>
			<path class="st3" d="M1907.2,1503.4c-3,0.4-6.1,0.7-9.1,1.1c-15.7,1.9-31.5,3.5-47.2,5.7c-15.1,2.2-30.4,4-45,8.9
				c-2.2,0.7-4.3,1.7-6.4,2.7c-0.6,0.3-0.9,1.3-1.3,1.9c0.7,0.3,1.5,0.8,2.2,0.9c7.9,0.1,15.8,0.1,23.6,0.1c0.4,0,0.8,0.2,1.2,0.3
				c-0.3,0.1-0.7,0.2-1,0.2c-12.7,2.2-25.4,4.3-38.1,6.6c-11.9,2.2-23.9,4.1-35.8,6.8c-11.9,2.7-23.7,6-35.5,9.4
				c-15.1,4.4-30.1,9.1-44,16.7c-5.9,3.3-11.6,7-17.4,10.6c-0.8,0.5-1.2,1.7-1.8,2.5c1,0.3,2,0.9,3,0.9c11.9-0.1,23.8-0.3,35.7-0.5
				c0.6,0,1.3,0.1,1.9,0.2c-0.5,0.3-1,0.7-1.6,0.9c-10.2,3.1-20.5,6-30.7,9.3c-20.6,6.7-40.1,16.3-59.6,25.7
				c-7.9,3.8-15.3,8.7-22.8,13.4c-5.2,3.2-10.1,6.9-15.1,10.4c-2.1-1.7-2.2-3.7-1.1-6c1.8-3.8,3.5-7.6,5.3-11.3c1-2.1,2.1-4.2,3.6-6
				c7.6-9.6,15.9-18.7,25.5-26.5c2.2-1.7,4.4-3.1,7.4-2.3c0.6,0.2,1.6-0.6,2.3-1.1c2.1-1.8,4-4,6.2-5.6c1.4-1,3.4-1.2,5-1.8
				c0.8-0.3,1.7-0.6,2.4-1.1c3.2-2.4,6.4-4.9,9.5-7.3c1.7-1.3,3.5-2.4,4.1-5c0.3-1.3,2-2.4,3.3-3.2c2-1.3,4.1-2.6,6.4-3.4
				c12-4.5,23.5-9.9,34.5-16.3c2.2-1.3,4.5-2.2,6.8-3.2c0.7-0.3,1.5-0.6,2.1-0.4c4,1.4,7.1-1,10.5-2.3c2.1-0.9,4.1-2.2,6.2-3.2
				c2.2-1.1,4.3-1.9,5.2-4.8c0.4-1.3,2.9-2.5,4.6-2.9c6.4-1.3,12.9-1.9,19.2-3.4c8.6-2,17-5,25.6-6.8c10.2-2.1,20.5-3.2,30.8-4.8
				c5.1,2.2,10.4,0.7,15.6,0.8c1.2,0,2.4-0.9,3.7-1.3c1.2-0.4,2.4-0.8,3.7-0.8c1.7-0.1,3.3,0,3.9-2.2c0.2-0.8,1.3-1.6,2.2-1.9
				c3.6-1.2,7.2-2.5,10.9-3.3c11.9-2.3,23.8-4.4,35.7-6.5c3.4-0.6,6.8-0.7,10.3-1c1-0.1,2.1,0.1,3,0.4c2.9,1,3.3,3.2,1.1,5.5
				c-3.5,0.6-6.9,1.2-10.4,1.8c-0.4,0.1-0.7,0.5-1,0.8c0.4,0,0.7,0.2,1.1,0.1c3.5-0.6,7-1.3,10.6-2c8.9-1.1,17.8-2.2,26.7-3.3
				c1.6-0.2,1.9,0.4,1.9,1.8C1906.9,1500.3,1907.1,1501.9,1907.2,1503.4z"/>
			<path class="st3" d="M2406.6,1569.3c2.5-0.1,5,0.5,5.5,3.1c0.3,1.5-0.2,3.8-1.3,4.9c-1.8,1.9-4,3.5-7.1,1.8
				c-4.2-2.3-8.6-4.3-13-6.4c-0.5-0.2-0.9-0.6-1.3-0.9c0.5-0.2,0.9-0.5,1.4-0.5C2396.1,1570.6,2401.4,1570,2406.6,1569.3z"/>
			<path class="st3" d="M1594.9,1569.5c4.8,0.6,10,1.3,15.3,2c0.3,0,0.6,0.3,0.9,0.4c-0.3,0.2-0.5,0.5-0.8,0.7
				c-4.7,2.3-9.3,4.7-14.1,6.8c-2.6,1.2-4.7-0.5-6.1-2.2c-1-1.2-1.4-3.5-1-5C1589.8,1569.8,1592.1,1569.4,1594.9,1569.5z"/>
			<path class="st8" d="M1527.5,1684.7c3.6-0.9,7.1-1.8,10.7-2.7c0.3-0.1,0.6,0.1,0.8,0.1c-0.2,0.1-0.4,0.3-0.7,0.4
				c-3.6,1.1-7.2,2.1-10.9,3.1C1527.5,1685.4,1527.5,1685,1527.5,1684.7z"/>
			<path class="st6" d="M1878.4,1500.3c-3.5,0.7-7,1.3-10.6,2c-0.3,0.1-0.7-0.1-1.1-0.1c0.3-0.3,0.7-0.7,1-0.8
				c3.4-0.7,6.9-1.2,10.4-1.8C1878.2,1499.8,1878.3,1500,1878.4,1500.3z"/>
			<path class="st9" d="M1546.5,1682.3c2.6-0.7,5.2-1.4,7.7-2c0,0.3,0,0.5,0,0.8c-2.6,0.8-5.2,1.6-7.8,2.4
				C1546.5,1683.1,1546.5,1682.7,1546.5,1682.3z"/>
			<path class="st9" d="M2574.7,1595.3c-1.8-1.2-3.6-2.3-5.5-3.5l0,0c1.9,0.9,3.7,1.7,5.6,2.6
				C2574.8,1594.7,2574.7,1595,2574.7,1595.3z"/>
			<path class="st9" d="M1431.9,1591.8c-1.8,1.2-3.6,2.3-5.5,3.5c0-0.3-0.1-0.5-0.1-0.8C1428.2,1593.6,1430.1,1592.7,1431.9,1591.8
				L1431.9,1591.8z"/>
			<path class="st7" d="M2460.8,1651c-1,0.2-1.9,0.5-2.9,0.6c-0.9,0.1-1.8,0-2.7,0c0.9-0.4,1.8-0.8,2.7-1.1c0.3-0.1,0.7-0.1,1.1-0.1
				c0.2,0.1,0.3,0.2,0.5,0.4c0.1-0.1,0.1-0.2,0.2-0.4h-0.1C2460,1650.6,2460.4,1650.8,2460.8,1651z"/>
			<path class="st8" d="M1542.1,1686.2c1.2-0.1,2.3-0.2,3.5-0.3c-1.1,0.5-2.3,0.9-3.4,1.4c-0.1,0-0.2,0-0.3-0.1
				C1542,1686.8,1542.1,1686.5,1542.1,1686.2z"/>
			<path class="st8" d="M2471.4,1684.3c1.3,0.3,2.6,0.6,3.8,0.9c0,0.3,0.1,0.6,0.1,0.9c-1.3-0.4-2.6-0.8-3.9-1.2
				C2471.4,1684.8,2471.4,1684.6,2471.4,1684.3z"/>
			<path class="st8" d="M2449.6,1681.1c1.1,0.3,2.2,0.6,3.3,0.8c0,0.3,0.1,0.6,0.1,0.8c-1.4-0.5-2.8-1.1-4.2-1.6
				C2449,1681.2,2449.3,1681.2,2449.6,1681.1z"/>
			<path class="st8" d="M2359,1557.2c0-0.5,0-1,0.1-1.5c0.7,0.4,1.3,0.8,2,1.3C2360.4,1557,2359.7,1557.1,2359,1557.2L2359,1557.2z"
				/>
			<path class="st6" d="M2459.3,1687.1c-0.1,0-0.2,0.1-0.3,0.1c-1.1-0.4-2.2-0.9-3.3-1.3c1.1,0.1,2.1,0.2,3.2,0.3
				C2459.1,1686.5,2459.2,1686.8,2459.3,1687.1z"/>
			<path class="st9" d="M1642.6,1556.2c-0.6,0.3-1.1,0.6-1.6,0.7c-0.1,0-0.3-0.3-0.4-0.5c0.4-0.3,0.9-0.6,1.3-0.8
				C1642,1555.7,1642.3,1555.9,1642.6,1556.2z"/>
			<path class="st9" d="M1523,1687.4c0,0.4,0,0.8,0,1.1c-0.3-0.2-0.5-0.3-0.8-0.5C1522.4,1687.8,1522.7,1687.6,1523,1687.4z"/>
			<path class="st8" d="M2477.3,1685.2c0-0.2,0-0.5,0-0.7C2477.3,1684.7,2477.3,1685,2477.3,1685.2z"/>
			<path class="st7" d="M2002,1533.7c5.7,0,11.4-0.2,17,0c11.6,0.4,23.2,0.9,34.7,1.7c11,0.8,21.9,1.9,32.8,3.3
				c11.2,1.5,22.4,3.1,33.4,5.4c14.8,3,29.5,6.4,44.1,10.3c15.2,4,29.9,9.5,44.2,16.1c12.3,5.6,24,12.3,34.6,20.7
				c9.5,7.5,17.6,16.3,22,27.9c4.5,11.8,3.3,23.3-2.9,34.3c-7.8,13.8-19.8,23.2-32.9,31.3c-21.6,13.3-45.1,21.6-69.4,28.4
				c-18.6,5.3-37.6,9-56.7,12.1c-9.3,1.5-18.7,2.5-28.1,3.5c-8.8,0.9-17.7,1.6-26.5,2.2c-7.9,0.5-15.7,0.9-23.6,1.1
				c-13.4,0.3-26.8,0.7-40.2,0.5c-11.5-0.2-23-0.8-34.4-1.7c-11-0.8-21.9-1.9-32.8-3.3c-11.2-1.5-22.4-3.1-33.4-5.4
				c-14.8-3-29.5-6.4-44.1-10.3c-15.2-4.1-29.9-9.5-44.2-16.1c-12.3-5.7-23.9-12.3-34.6-20.7c-9.5-7.5-17.6-16.4-22-27.9
				c-3.7-9.7-3.6-19.6,0.5-29.3c5.4-12.8,14.9-22,25.8-30c15.2-11.1,32.1-18.9,49.7-25.4c15.3-5.7,31-10.4,46.9-13.9
				c13.6-2.9,27.4-5.4,41.2-7.7c11.3-1.8,22.7-3.3,34.1-4.4c9.6-1,19.2-1.3,28.8-1.8c12-0.6,23.9-1,35.9-1.5
				C2002,1533.4,2002,1533.5,2002,1533.7z M1999.7,1556c0-0.3,0-0.6,0-0.9c-10.4,0.5-20.8,0.9-31.1,1.5c-7.7,0.4-15.4,0.7-23,1.8
				c-13.4,1.9-26.7,4-39.9,6.6c-22.2,4.3-43.7,11.1-63.8,21.7c-11.2,5.9-21.6,12.8-29.4,22.9c-8.5,11-11.2,23.4-4.6,36.4
				c4.5,9,11.5,15.6,19.5,21.3c11.6,8.3,24.3,14.2,37.6,19.2c17.5,6.5,35.6,11.1,54,14.2c11.7,2,23.4,3.3,35.2,4.5
				c10.5,1.1,21,2,31.6,2.1c15.1,0.1,30.3-0.4,45.4-1.1c9.9-0.5,19.8-1.4,29.5-2.8c13.4-1.9,26.7-4,39.9-6.9
				c22-4.9,43.3-12,62.9-23.5c10.3-6.1,19.9-13.2,26.4-23.5c5.6-8.9,7.4-18.5,3.7-28.7c-3.6-9.9-10.6-17.2-18.7-23.4
				c-13.3-10.2-28.3-17-44-22.5c-20.2-7.1-40.9-11.9-62.1-14.6c-13.7-1.7-27.4-3.3-41.1-4.3C2018.3,1555.5,2009,1556,1999.7,1556z"
				/>
			<path class="st9" d="M2436.2,1671.1c0.4,1,0.8,1.7,1,2.5c0,0.2-0.6,0.8-0.8,0.7c-0.8-0.2-1.5-0.6-2.3-1
				C2434.5,1672.9,2434.9,1672.5,2436.2,1671.1z"/>
			<path class="st7" d="M2471.4,1684.3c0,0.2,0,0.5,0,0.7c-1.5-0.4-3-0.8-4.5-1.2c-0.4-0.1-0.7-0.4-1-0.7c0.4,0,0.7-0.1,1.1,0
				C2468.5,1683.5,2469.9,1683.9,2471.4,1684.3z"/>
			<path class="st6" d="M2449.6,1681.1c-0.3,0-0.6,0.1-0.8,0.1c-1-0.3-2-0.6-3.1-0.9c1,0.1,2,0.2,2.9,0.3
				C2448.9,1680.7,2449.2,1681,2449.6,1681.1z"/>
			<path class="st6" d="M1556.5,1683c-0.6,0.3-1,0.4-1.3,0.5c-2.5,0.8-4.9,1.6-7.4,2.3c-0.3,0.1-0.8-0.1-1.2-0.1
				c0.2-0.2,0.3-0.5,0.5-0.6c2.8-0.8,5.7-1.7,8.5-2.5C1555.8,1682.6,1556,1682.8,1556.5,1683z"/>
			<path class="st7" d="M1554.3,1681.1c0-0.3,0-0.5,0-0.8c1-0.1,1.9-0.3,2.9-0.4C1556.2,1680.3,1555.2,1680.7,1554.3,1681.1z"/>
			<path class="st6" d="M1558.9,1656.9c-0.1,0.1-0.2,0.2-0.4,0.3c-0.1,0-0.3-0.1-0.5-0.1c0.1-0.1,0.2-0.3,0.4-0.3
				C1558.6,1656.6,1558.7,1656.8,1558.9,1656.9z"/>
			<path class="st9" d="M2546.7,1577.4c-4.2-2.1-8.5-4.2-12.7-6.3c-0.4-0.2-0.7-0.7-1-1.1c0.5,0,1-0.2,1.4,0
				c4.4,2.2,8.7,4.5,13.1,6.7C2547.2,1577,2546.9,1577.2,2546.7,1577.4z"/>
			<path class="st7" d="M2536,1574.3c-1.1,0-1.4,0.1-1.7,0c-0.8-0.4-1.6-0.9-2.4-1.4c0.3-0.1,0.6-0.4,0.8-0.3
				C2533.7,1572.9,2534.5,1573.4,2536,1574.3z"/>
			<path class="st8" d="M2546.7,1577.4c0.2-0.2,0.5-0.5,0.7-0.7c0.6,0.5,1.1,1.1,1.7,1.6l-0.1,0.1
				C2548.2,1578.1,2547.5,1577.8,2546.7,1577.4z"/>
			<path class="st8" d="M2564.8,1592.8c-0.2-0.3-0.4-0.6-0.6-1c0.4,0.1,0.8,0.2,1.1,0.4C2565.1,1592.5,2565,1592.6,2564.8,1592.8z"
				/>
			<path class="st7" d="M2568.7,1591.7c-0.4-0.3-0.8-0.6-1.2-0.9l0.1-0.1c0.4,0.2,0.7,0.4,1.1,0.6
				C2568.7,1591.4,2568.7,1591.5,2568.7,1591.7z"/>
			<path class="st7" d="M2566.4,1590.1c0.4,0.2,0.8,0.4,1.1,0.5l-0.1,0.1C2567.1,1590.5,2566.8,1590.3,2566.4,1590.1L2566.4,1590.1z
				"/>
			<path class="st7" d="M2566.4,1590.1c-0.3-0.1-0.5-0.1-0.8-0.2c0-0.1,0.1-0.2,0.1-0.2C2566,1589.8,2566.2,1590,2566.4,1590.1
				L2566.4,1590.1z"/>
			<path class="st8" d="M2549.1,1578.3c0.1,0.1,0.2,0.2,0.2,0.3C2549.2,1578.6,2549.1,1578.5,2549.1,1578.3
				C2549,1578.4,2549.1,1578.3,2549.1,1578.3z"/>
			<path class="st9" d="M2568.7,1591.7c0-0.1,0-0.3,0-0.4c0.2,0.2,0.4,0.4,0.5,0.6l0,0C2569,1591.8,2568.9,1591.7,2568.7,1591.7z"/>
			<polygon class="st8" points="2563.4,1591.6 2563.3,1591.5 2563.5,1591.5 			"/>
			<path class="st9" d="M1453.7,1576.7c4.4-2.3,8.7-4.5,13.1-6.7c0.4-0.2,0.9,0,1.4,0c-0.3,0.4-0.6,0.9-1,1.1
				c-4.2,2.1-8.5,4.2-12.7,6.3C1454.2,1577.2,1453.9,1577,1453.7,1576.7z"/>
			<path class="st7" d="M1469.6,1573.2c-1.2,0.4-2.2,0.8-3.2,1.1c-0.1,0-0.3-0.2-0.4-0.4c0.9-0.5,1.9-1,2.8-1.5
				C1468.8,1572.4,1469.1,1572.8,1469.6,1573.2z"/>
			<path class="st8" d="M1453.7,1576.7c0.2,0.2,0.5,0.5,0.7,0.7c-0.8,0.3-1.6,0.7-2.3,1l-0.1-0.1
				C1452.6,1577.8,1453.1,1577.3,1453.7,1576.7z"/>
			<path class="st8" d="M1435.8,1592.3c0.4-0.1,0.8-0.2,1.1-0.4c-0.2,0.3-0.4,0.6-0.6,1C1436.2,1592.6,1436,1592.5,1435.8,1592.3z"
				/>
			<path class="st7" d="M1433.7,1590.8c-0.4,0.3-0.8,0.6-1.2,0.9c0-0.1,0-0.3,0-0.4C1432.9,1591.1,1433.2,1590.9,1433.7,1590.8
				C1433.6,1590.6,1433.7,1590.8,1433.7,1590.8z"/>
			<path class="st7" d="M1434.7,1590.1c-0.4,0.2-0.7,0.4-1.1,0.6l-0.1-0.1C1433.9,1590.5,1434.3,1590.3,1434.7,1590.1L1434.7,1590.1
				z"/>
			<path class="st7" d="M1434.7,1590.1c0.2-0.1,0.4-0.3,0.6-0.4c0,0,0.1,0.1,0.1,0.2C1435.2,1590,1435,1590.1,1434.7,1590.1
				L1434.7,1590.1z"/>
			<path class="st8" d="M1452.1,1578.4c-0.1,0.1-0.2,0.2-0.3,0.2C1451.8,1578.6,1451.9,1578.5,1452.1,1578.4
				C1452,1578.3,1452.1,1578.4,1452.1,1578.4z"/>
			<polygon class="st8" points="1437.7,1591.6 1437.6,1591.4 1437.8,1591.5 			"/>
			<path class="st9" d="M1432.5,1591.3c0,0.1-0.1,0.3,0,0.4c-0.2,0.1-0.3,0.1-0.5,0.1l0,0
				C1432.1,1591.6,1432.3,1591.4,1432.5,1591.3z"/>
			<path class="st8" d="M1999.7,1556c9.3,0,18.6-0.5,27.9,0.1c13.7,1,27.4,2.6,41.1,4.3c21.2,2.7,41.9,7.5,62.1,14.6
				c15.7,5.5,30.7,12.3,44,22.5c8.1,6.2,15.1,13.5,18.7,23.4c3.7,10.2,1.9,19.8-3.7,28.7c-6.5,10.3-16,17.4-26.4,23.5
				c-19.6,11.5-40.9,18.6-62.9,23.5c-13.2,2.9-26.5,5-39.9,6.9c-9.8,1.4-19.7,2.3-29.5,2.8c-15.1,0.7-30.3,1.2-45.4,1.1
				c-10.5-0.1-21.1-1.1-31.6-2.1c-11.8-1.2-23.5-2.6-35.2-4.5c-18.4-3.1-36.4-7.6-54-14.2c-13.3-5-26.1-10.9-37.6-19.2
				c-8-5.7-15-12.4-19.5-21.3c-6.6-13.1-3.8-25.4,4.6-36.4c7.8-10.1,18.3-17,29.4-22.9c20.1-10.6,41.6-17.4,63.8-21.7
				c13.2-2.6,26.6-4.7,39.9-6.6c7.6-1.1,15.3-1.3,23-1.8c10.4-0.6,20.8-1,31.1-1.5C1999.7,1555.4,1999.7,1555.7,1999.7,1556z
				 M2000.2,1681c9-0.6,19.7-1.3,30.5-2.1c12.7-0.9,25.2-3,37.4-6.2c16.6-4.3,32.9-9.4,46.3-20.8c5.8-4.9,10.2-10.9,9.9-19.1
				c-0.3-7.3-4.4-12.8-9.5-17.3c-8.7-7.6-19.1-12.3-30-16.1c-13.3-4.6-26.8-8-40.8-9.5c-12.8-1.4-25.6-2.5-38.4-3.2
				c-7.6-0.4-15.2,0.2-22.8,0.5c-6.5,0.3-13,0.2-19.4,1.2c-13,2.1-26.1,4.2-38.9,7.3c-15.1,3.7-29.7,9.2-41.8,19.5
				c-5.7,4.9-10,10.8-9.8,18.8c0.2,7.5,4.4,12.9,9.6,17.5c8.8,7.6,19.1,12.3,30,16.1c18.4,6.4,37.4,9.7,56.7,11.5
				C1978.9,1680.4,1988.7,1680.5,2000.2,1681z"/>
			<path class="st9" d="M2540.5,1583.8c-0.4,0.2-0.6,0.4-0.8,0.5c-0.1,0-0.3-0.3-0.5-0.4c0.2-0.1,0.4-0.3,0.6-0.4
				C2540,1583.4,2540.2,1583.6,2540.5,1583.8z"/>
			<path class="st9" d="M1462.1,1584c-0.4,0.1-0.6,0.3-0.8,0.3c-0.2-0.1-0.4-0.3-0.5-0.5c0.2-0.1,0.4-0.3,0.6-0.3
				C1461.6,1583.5,1461.7,1583.7,1462.1,1584z"/>
			<path class="st9" d="M2000.2,1681c-11.5-0.6-21.3-0.7-30.9-1.6c-19.3-1.8-38.3-5.1-56.7-11.5c-10.9-3.8-21.3-8.5-30-16.1
				c-5.3-4.6-9.4-10.1-9.6-17.5c-0.2-8.1,4.1-13.9,9.8-18.8c12.1-10.4,26.7-15.8,41.8-19.5c12.8-3.2,25.9-5.3,38.9-7.3
				c6.4-1,12.9-1,19.4-1.2c7.6-0.3,15.3-0.9,22.8-0.5c12.8,0.7,25.6,1.9,38.4,3.2c13.9,1.5,27.5,4.9,40.8,9.5
				c10.9,3.8,21.3,8.5,30,16.1c5.2,4.5,9.3,10,9.5,17.3c0.3,8.2-4.1,14.1-9.9,19.1c-13.4,11.4-29.7,16.5-46.3,20.8
				c-12.3,3.2-24.8,5.3-37.4,6.2C2019.9,1679.8,2009.2,1680.4,2000.2,1681z"/>
		</g>
	</g>
</g>
<g id="Layer_5">
</g>
<g id="Layer_3">
	<rect x="-1381.8" y="-77.2" class="st12" width="6671.5" height="637.8"/>
	<rect x="-1371.8" y="-67.2" class="st12" width="6651.5" height="617.8"/>
</g>
<g class="st10">
	<circle class="st13" cx="2148.7" cy="1545.7" r="41"/>
	<circle class="st14" cx="1779.7" cy="1545.7" r="41"/>
	
		<rect x="1775" y="1548.1" transform="matrix(0.9735 -0.2285 0.2285 0.9735 -311.1313 490.9548)" class="st13" width="379" height="81.9"/>
	<circle class="st14" cx="1779.7" cy="1632.4" r="41"/>
	
		<rect x="1923.4" y="1399.4" transform="matrix(0.2285 -0.9735 0.9735 0.2285 -31.4098 3138.2444)" class="st14" width="81.9" height="379"/>
	<circle class="st13" cx="2148.7" cy="1632.4" r="41"/>
</g>
</svg>
