<?xml version="1.0" encoding="utf-8"?>
<!-- Generator: Adobe Illustrator 22.0.1, SVG Export Plug-In . SVG Version: 6.00 Build 0)  -->
<svg version="1.1" id="Layer_1" xmlns="http://www.w3.org/2000/svg" xmlns:xlink="http://www.w3.org/1999/xlink" x="0px" y="0px"
	 viewBox="0 0 11880 2160" style="enable-background:new 0 0 11880 2160;" xml:space="preserve">
<style type="text/css">
	.st0{fill:#CCF2FF;}
	.st1{fill:#335767;}
	.st2{fill:#538DA6;}
	.st3{fill:#538CA5;}
	.st4{fill:#345868;}
	.st5{fill:#97BAC9;}
	.st6{fill:#B6CFD9;}
	.st7{fill:#75A3B7;}
	.st8{fill:#816C61;}
	.st9{fill:#A68F7E;}
</style>
<g>
	<g>
		<path class="st0" d="M3931.4,1170.5c0-387.1,0-774.2,0.4-1161.3c0-3.1,5.7-8.8,8.7-8.8C5248.1,0,6555.7,0,7863.4,0.4
			c3,0,8.7,5.7,8.7,8.8c0.4,394.4,0.4,788.9,0.4,1183.3c-3.7-0.3-7.5-0.3-11-1.1c-47.5-11.1-94.9-22.2-142.4-33.4
			c-2.3-0.5-4.5-1-6.8-1.5c-1.1-0.3-2.2-0.6-3.2-0.8c-1.7-0.4-3.3-0.7-5-1.1c-1.1-0.3-2.1-0.6-3.2-0.9c-1.7-0.4-3.3-0.7-5-1.1
			c-1.1-0.3-2.1-0.6-3.2-0.8c-9.5-2.8-18.9-5.6-28.4-8.3c-246.9-70.1-496.1-127.6-754.4-140.3c-246.8-12.2-492.3-4.3-734.8,45
			c-149.8,30.5-298.2,67.4-447.7,99.1c-137.8,29.2-275.4,60.4-417.5,64.5c-107,3-210.9-15.7-314.4-38.5
			c-143.2-31.5-287.4-55.1-434.6-61.2C4348.1,1103.3,4139.6,1135.1,3931.4,1170.5z"/>
		<path class="st1" d="M7719,1158.1c47.5,11.1,94.9,22.3,142.4,33.4c3.6,0.8,7.3,0.7,11,1.1c0,320.1,0,640.3-0.3,960.4
			c0,2.7-5.1,7.7-7.9,7.7c-1308.2,0.3-2616.4,0.3-3924.6,0c-2.7,0-7.9-5-7.9-7.7c-0.4-326.1-0.3-652.3-0.3-978.4
			c48.5-4.9,96.9-12.6,145.5-14c117.9-3.5,236.2-10.3,353.6-4.1c149.4,7.8,294.4,45.8,438,85.2c135.2,37.1,270.2,77,411.3,81.5
			c120.1,3.8,240.7,0.5,360.8-5.2c140.7-6.7,276.9-40.2,412.9-74.9c189.2-48.3,378.8-95.4,569.7-136.1
			c177.4-37.8,358.7-43.3,539.2-29.3c133.3,10.4,265.7,32.4,398.3,50.4c44.1,6,87.8,15.8,131.6,23.8c1.1,0.3,2.2,0.6,3.2,0.8
			c1.7,0.4,3.3,0.7,5,1.1c1.1,0.3,2.1,0.6,3.2,0.9c1.7,0.4,3.3,0.7,5,1.1c1.1,0.3,2.2,0.6,3.2,0.8
			C7714.5,1157,7716.8,1157.6,7719,1158.1z"/>
		<path class="st2" d="M7692.6,1151.8c-43.9-8-87.5-17.8-131.6-23.8c-132.6-18-265-40-398.3-50.4c-180.5-14-361.8-8.5-539.2,29.3
			c-191,40.7-380.6,87.8-569.7,136.1c-136,34.7-272.1,68.3-412.9,74.9c-120.1,5.7-240.7,9-360.8,5.2
			c-141.1-4.5-276.1-44.4-411.3-81.5c-143.7-39.4-288.7-77.4-438-85.2c-117.5-6.2-235.8,0.7-353.6,4.1c-48.6,1.4-97,9.1-145.5,14
			c0-1.3,0-2.7,0-4c208.2-35.4,416.7-67.2,629.4-58.4c147.1,6.1,291.3,29.7,434.6,61.2c103.5,22.8,207.4,41.5,314.4,38.5
			c142.1-4,279.7-35.3,417.5-64.5c149.5-31.7,298-68.6,447.7-99.1c242.5-49.4,488-57.2,734.8-45c258.3,12.7,507.5,70.2,754.4,140.3
			C7673.7,1146.2,7683.1,1149,7692.6,1151.8z"/>
		<path class="st2" d="M7719,1158.1c-2.3-0.5-4.5-1-6.8-1.5C7714.5,1157,7716.8,1157.6,7719,1158.1z"/>
		<path class="st2" d="M7700.8,1153.7c-1.7-0.4-3.3-0.7-5-1.1C7697.5,1153,7699.1,1153.4,7700.8,1153.7z"/>
		<path class="st2" d="M7709,1155.7c-1.7-0.4-3.3-0.7-5-1.1C7705.7,1155,7707.3,1155.3,7709,1155.7z"/>
	</g>
</g>
<g>
	<g>
		<path class="st0" d="M7736.6,1170.5c0-387.1,0-774.2,0.4-1161.3c0-3.1,6-8.8,9.1-8.8c1377.3-0.4,2754.7-0.4,4132,0
			c3.2,0,9.1,5.7,9.1,8.8c0.4,394.4,0.4,788.9,0.4,1183.3c-3.9-0.3-7.8-0.3-11.6-1.1c-50-11.1-100-22.2-150-33.4
			c-2.4-0.5-4.7-1-7.1-1.5c-1.1-0.3-2.3-0.6-3.4-0.8c-1.8-0.4-3.5-0.7-5.3-1.1c-1.1-0.3-2.3-0.6-3.4-0.9c-1.8-0.4-3.5-0.7-5.3-1.1
			c-1.1-0.3-2.3-0.6-3.4-0.8c-10-2.8-19.9-5.6-29.9-8.3c-260.1-70.1-522.5-127.6-794.6-140.3c-260-12.2-518.6-4.3-774,45
			c-157.8,30.5-314.1,67.4-471.6,99.1c-145.1,29.2-290,60.4-439.7,64.5c-112.7,3-222.1-15.7-331.2-38.5
			c-150.9-31.5-302.7-55.1-457.7-61.2C8175.5,1103.3,7956,1135.1,7736.6,1170.5z"/>
		<path class="st1" d="M11726.1,1158.1c50,11.1,100,22.3,150,33.4c3.7,0.8,7.7,0.7,11.6,1.1c0,320.1,0,640.3-0.4,960.4
			c0,2.7-5.4,7.7-8.3,7.7c-1377.9,0.3-2755.8,0.3-4133.7,0c-2.9,0-8.3-5-8.3-7.7c-0.4-326.1-0.4-652.3-0.4-978.4
			c51.1-4.9,102.1-12.6,153.3-14c124.1-3.5,248.8-10.3,372.5-4.1c157.3,7.8,310.1,45.8,461.4,85.2c142.4,37.1,284.6,77,433.3,81.5
			c126.5,3.8,253.6,0.5,380.1-5.2c148.2-6.7,291.6-40.2,434.9-74.9c199.2-48.3,399-95.4,600.1-136.1
			c186.9-37.8,377.8-43.3,567.9-29.3c140.4,10.4,279.8,32.4,419.5,50.4c46.5,6,92.4,15.8,138.6,23.8c1.1,0.3,2.3,0.6,3.4,0.8
			c1.8,0.4,3.5,0.7,5.3,1.1c1.1,0.3,2.3,0.6,3.4,0.9c1.8,0.4,3.5,0.7,5.3,1.1c1.1,0.3,2.3,0.6,3.4,0.8
			C11721.3,1157,11723.7,1157.6,11726.1,1158.1z"/>
		<path class="st2" d="M11698.2,1151.8c-46.2-8-92.1-17.8-138.6-23.8c-139.7-18-279.1-40-419.5-50.4c-190.1-14-381.1-8.5-567.9,29.3
			c-201.1,40.7-400.9,87.8-600.1,136.1c-143.3,34.7-286.6,68.3-434.9,74.9c-126.5,5.7-253.6,9-380.1,5.2
			c-148.6-4.5-290.8-44.4-433.3-81.5c-151.3-39.4-304-77.4-461.4-85.2c-123.7-6.2-248.4,0.7-372.5,4.1c-51.2,1.4-102.2,9.1-153.3,14
			c0-1.3,0-2.7,0-4c219.3-35.4,438.9-67.2,662.9-58.4c155,6.1,306.9,29.7,457.7,61.2c109,22.8,218.4,41.5,331.2,38.5
			c149.7-4,294.6-35.3,439.7-64.5c157.5-31.7,313.8-68.6,471.6-99.1c255.4-49.4,514-57.2,774-45c272.1,12.7,534.6,70.2,794.6,140.3
			C11678.3,1146.2,11688.3,1149,11698.2,1151.8z"/>
		<path class="st2" d="M11726.1,1158.1c-2.4-0.5-4.7-1-7.1-1.5C11721.3,1157,11723.7,1157.6,11726.1,1158.1z"/>
		<path class="st2" d="M11706.9,1153.7c-1.8-0.4-3.5-0.7-5.3-1.1C11703.4,1153,11705.1,1153.4,11706.9,1153.7z"/>
		<path class="st2" d="M11715.6,1155.7c-1.8-0.4-3.5-0.7-5.3-1.1C11712,1155,11713.8,1155.3,11715.6,1155.7z"/>
	</g>
</g>
<g>
	<g>
		<path class="st0" d="M4799.5,1171.1c0-387.3,0-774.6-0.5-1161.9c0-3.1-6.9-8.8-10.6-8.8C3187.9,0,1587.5,0-13,0.4
			c-3.7,0-10.6,5.8-10.6,8.8C-24,403.8-24,798.5-24,1193.1c4.5-0.3,9.1-0.3,13.5-1.1c58.1-11.1,116.2-22.2,174.3-33.4
			c2.8-0.5,5.5-1,8.3-1.5c1.3-0.3,2.6-0.6,4-0.8c2-0.4,4.1-0.7,6.1-1.1c1.3-0.3,2.6-0.6,3.9-0.9c2-0.4,4.1-0.7,6.1-1.1
			c1.3-0.3,2.6-0.6,3.9-0.8c11.6-2.8,23.1-5.6,34.7-8.3c302.2-70.1,607.2-127.6,923.3-140.4c302.1-12.2,602.6-4.3,899.3,45
			c183.3,30.5,365,67.4,548,99.1c168.7,29.2,337,60.4,511,64.5c131,3,258.1-15.7,384.8-38.5c175.3-31.5,351.8-55.2,531.9-61.3
			C4289.5,1103.8,4544.6,1135.6,4799.5,1171.1z"/>
		<path class="st1" d="M163.8,1158.6c-58.1,11.2-116.2,22.3-174.3,33.4c-4.3,0.8-9,0.7-13.5,1.1c0,320.3,0,640.6,0.4,960.9
			c0,2.7,6.3,7.7,9.6,7.7c1601.1,0.3,3202.3,0.3,4803.4,0c3.4,0,9.6-5,9.6-7.7c0.4-326.3,0.4-652.6,0.4-978.9
			c-59.4-4.9-118.6-12.6-178.1-14c-144.3-3.5-289-10.3-432.8-4.1c-182.8,7.8-360.3,45.8-536.1,85.3c-165.5,37.1-330.7,77-503.4,81.5
			c-147,3.8-294.6,0.5-441.6-5.2c-172.2-6.7-338.9-40.2-505.3-74.9c-231.5-48.3-463.6-95.4-697.3-136.2
			c-217.1-37.8-439.1-43.3-659.9-29.3c-163.2,10.4-325.2,32.4-487.5,50.4c-54,6-107.4,15.8-161.1,23.8c-1.3,0.3-2.6,0.6-3.9,0.8
			c-2,0.4-4.1,0.7-6.1,1.1c-1.3,0.3-2.6,0.6-3.9,0.9c-2,0.4-4.1,0.7-6.1,1.1c-1.3,0.3-2.6,0.6-4,0.8
			C169.3,1157.6,166.5,1158.1,163.8,1158.6z"/>
		<path class="st2" d="M196.1,1152.3c53.7-8,107-17.8,161.1-23.8c162.3-18,324.3-40,487.5-50.4c220.9-14,442.8-8.5,659.9,29.3
			c233.7,40.7,465.8,87.9,697.3,136.2c166.5,34.7,333.1,68.3,505.3,74.9c147,5.7,294.6,9,441.6,5.2c172.7-4.5,338-44.4,503.4-81.5
			c175.8-39.4,353.3-77.4,536.1-85.3c143.8-6.2,288.6,0.7,432.8,4.1c59.5,1.4,118.8,9.1,178.1,14c0-1.3,0-2.7,0-4
			c-254.9-35.5-510-67.3-770.3-58.5c-180.1,6.1-356.6,29.7-531.9,61.3c-126.7,22.8-253.8,41.5-384.8,38.5
			c-173.9-4-342.3-35.3-511-64.5c-183-31.7-364.7-68.6-548-99.1c-296.8-49.4-597.2-57.2-899.3-45C838,1016.4,533,1073.9,230.8,1144
			C219.2,1146.7,207.7,1149.6,196.1,1152.3z"/>
		<path class="st2" d="M163.8,1158.6c2.8-0.5,5.5-1,8.3-1.5C169.3,1157.6,166.5,1158.1,163.8,1158.6z"/>
		<path class="st2" d="M186.1,1154.3c2-0.4,4.1-0.7,6.1-1.1C190.1,1153.5,188.1,1153.9,186.1,1154.3z"/>
		<path class="st2" d="M176,1156.2c2-0.4,4.1-0.7,6.1-1.1C180.1,1155.5,178,1155.9,176,1156.2z"/>
	</g>
</g>
<g>
	<g>
		<path class="st3" d="M5783.5,1704.1c40.5-2.1,81-4.9,121.6-6c35.9-1,71.9-0.7,107.8,0.3c32.6,0.9,65.1,3.6,97.6,5.5
			c2.3,0.1,4.7-0.6,7.1-0.9c1,0.7,1.9,1.9,3,2c12,1.2,24.1,1.9,36.1,3.3c14.5,1.6,28.9,3.5,43.3,5.5c13.4,1.9,26.9,4,40.2,6.4
			c17.7,3.2,35.5,6.6,53.1,10.5c5.6,1.2,10.9,4.1,16.2,6.4c1,0.4,1.4,1.9,2.2,2.9c-1,0.4-2,1-3,1.2c-1.3,0.2-2.7,0-4,0
			c-13.3,0-26.6,0-40,0.1c-1,0-2.1,0.5-3.1,0.7c0.9,0.4,1.9,0.9,2.8,1.1c3.1,0.5,6.3,0.7,9.4,1.2c20.2,3.6,40.5,6.9,60.6,10.8
			c28.1,5.4,56.3,10.5,84.2,17.2c22.1,5.2,43.7,12.5,65.5,19c20.6,6.1,40.4,14.2,59.2,24.7c9.6,5.3,18.7,11.4,28,17.3
			c1.3,0.9,2,2.8,2.9,4.2c-1.7,0.5-3.4,1.5-5,1.5c-8.1-0.1-16.3-0.7-24.4-0.8c-13.5-0.2-27-0.1-40.5-0.1c-1.2,0-2.3,0.1-3.5,0.2
			c1.1,0.6,2.2,1.3,3.3,1.6c34.2,8.1,67.3,19.6,99.4,33.8c26.4,11.7,52.3,24.6,77.9,37.9c14,7.3,26.9,16.4,40.3,24.8
			c4.3,2.7,8.5,5.7,12.7,8.5c4,3.6,7.9,7.3,11.9,10.9c1.4,1.4,2.7,2.9,4.1,4.3c3.2,3.5,2.6,7-1.7,9.2c-1.6,0.8-3.4,1.2-5.2,1.6
			c-9,2-18.1,4.2-27.2,6c-14,2.8-28,5.3-42,8.1c-17.1,3.3-34.1,6.7-51.2,10.1c-5,1-10.1,1.8-15.1,2.7c-0.6,0.1-1.1,0.9-1.6,1.4
			c0.6,0.2,1.1,0.6,1.7,0.7c12.4,2.4,24.9,4.2,37.1,7.1c19.7,4.7,39.3,9.5,58.7,15.3c11.4,3.4,11.9,8.3,2.9,16.1
			c-0.4,0.3-0.7,0.7-1.1,1c-19.8,15.2-40.9,28.3-63.2,39.7c-41.2,21.2-83.5,39.4-127.7,53.5c-35.5,11.3-71.7,19.2-108.6,24.4
			c-3.5,0.5-6.9,1.9-10.3,2.9c-297.5,0-595,0-892.6,0c-0.8-0.6-1.5-1.7-2.4-1.9c-13.4-2.2-26.9-4-40.3-6.3
			c-41.9-7.2-82.3-20.2-121.8-35.4c-37.9-14.6-74.5-32.2-109.2-53.5c-13.3-8.1-25.7-17.7-38-27.3c-5.7-4.4-4.8-9,2-11.6
			c11-4.1,22.2-8.1,33.6-10.8c21.5-5,43.2-8.9,64.8-13.3c1.1-0.2,2.2-0.8,3.2-1.2c-1.1-0.4-2.2-0.9-3.3-1.3c-0.5-0.2-1-0.2-1.5-0.3
			c-19.1-3.5-38.1-6.9-57.2-10.6c-20.5-4-40.9-8.3-61.4-12.5c-6-1.2-12.1-2.3-17.9-4c-6.1-1.8-7-5.7-2.8-10.3
			c1.1-1.2,2.2-2.4,3.3-3.6c4.2-3.6,8.5-7.2,12.7-10.7c9-6.3,17.8-12.9,27.1-18.7c13.4-8.4,26.6-17.2,40.8-24
			c34.9-16.8,69.6-34,106.6-46c18.1-5.9,36.5-11,54.8-16.6c1-0.3,1.9-1,2.8-1.6c-1.1-0.1-2.3-0.3-3.4-0.3
			c-21.3,0.3-42.6,0.7-63.9,0.9c-1.8,0-3.5-1.1-5.3-1.6c1.1-1.5,1.8-3.6,3.3-4.6c10.2-6.5,20.4-13.1,31-18.9
			c24.8-13.7,51.6-22.1,78.6-29.9c21-6.1,42.2-12,63.5-16.9c21.2-4.8,42.6-8.3,64-12.2c22.7-4.1,45.4-7.9,68.1-11.9
			c0.6-0.1,1.2-0.3,1.9-0.4c-0.7-0.2-1.4-0.5-2.1-0.5c-14.1-0.1-28.2-0.1-42.3-0.2c-1.3,0-2.6-1-4-1.5c0.8-1.2,1.3-2.9,2.4-3.4
			c3.7-1.8,7.5-3.5,11.5-4.8c26.1-8.7,53.4-12,80.4-15.9c28-4,56.2-6.9,84.3-10.3C5772.7,1705.4,5778.1,1704.7,5783.5,1704.1z
			 M5953.2,1758.2c0-0.2,0-0.5,0-0.7c-21.4,0.9-42.8,1.7-64.2,2.7c-17.2,0.8-34.5,1.5-51.6,3.2c-20.4,2-40.7,4.6-61,7.9
			c-24.6,4-49.2,8.5-73.6,13.7c-28.6,6.1-56.5,14.6-83.9,24.8c-31.4,11.7-61.7,25.6-88.8,45.5c-19.5,14.3-36.5,30.8-46.2,53.6
			c-7.3,17.4-7.6,34.9-0.9,52.3c7.9,20.6,22.2,36.4,39.3,49.8c19,15,39.8,26.9,61.8,37c25.6,11.8,51.9,21.5,79,28.8
			c26,7,52.4,13,78.8,18.4c19.7,4.1,39.7,7,59.7,9.6c19.5,2.6,39.1,4.5,58.7,6c20.5,1.5,41.1,2.7,61.6,3c23.9,0.3,47.9-0.3,71.8-0.9
			c14.1-0.3,28.2-1,42.2-2c15.8-1.1,31.7-2.4,47.5-4c16.8-1.7,33.6-3.5,50.2-6.2c34.2-5.4,68.1-12.2,101.4-21.6
			c43.3-12.2,85.5-27.2,124-50.9c23.5-14.5,45-31.4,58.9-56c11.1-19.6,13.2-40.2,5.1-61.3c-7.9-20.6-22.3-36.3-39.3-49.8
			c-19-15.1-39.8-26.9-61.8-37c-25.6-11.7-51.9-21.5-79-28.8c-26.1-6.9-52.4-13-78.8-18.4c-19.7-4.1-39.7-7-59.7-9.6
			c-19.5-2.6-39.1-4.5-58.7-6c-20.7-1.5-41.4-2.3-62.1-3.1C5973.5,1757.9,5963.3,1758.2,5953.2,1758.2z"/>
		<path class="st4" d="M6395.8,2160c3.4-1,6.8-2.4,10.3-2.9c36.9-5.2,73.1-13.1,108.6-24.4c44.2-14.1,86.5-32.3,127.7-53.5
			c22.2-11.4,43.3-24.6,63.2-39.7c0.4-0.3,0.8-0.6,1.1-1c9-7.8,8.6-12.7-2.9-16.1c-19.4-5.7-39-10.6-58.7-15.3
			c-12.2-2.9-24.7-4.8-37.1-7.1c-0.6-0.1-1.1-0.5-1.7-0.7c0.5-0.5,1-1.2,1.6-1.4c5-1,10.1-1.7,15.1-2.7c17.1-3.3,34.1-6.7,51.2-10.1
			c14-2.7,28-5.3,42-8.1c9.1-1.8,18.1-4,27.2-6c1.8-0.4,3.6-0.8,5.2-1.6c4.4-2.2,5-5.7,1.7-9.2c-1.3-1.5-2.7-2.9-4.1-4.3
			c0.4-1.6,0.5-3.3,1.3-4.8c2-4.2,7.2-4.4,9.6-0.5c1.3,2.1,2.8,4.1,3.8,6.4c1.5,3.5,2.8,6.6,7.7,5.3c0.5-0.1,1.8,2.9,2.8,4.5
			c0,0,0.1,0,0.1,0c-0.4,0-0.8,0-1.2,0c-0.7,0-1.4-0.1-1.9,0.1c-1.6,0.6-3.2,1.4-4.8,2c1.6,0,3.2,0.1,4.8-0.1
			c1.7-0.2,3.5-0.7,5.2-1.1c0.2,0,0.4-0.1,0.5,0c2.3,0.8,4.5,1.6,6.8,2.5c-2.1,1.2-4.2,2.8-6.5,3.4c-2.7,0.8-5.6,0.8-8.4,1.1
			c-5.3,0.6-8.6,4.4-8.3,9.7c0.2,4.6,0.6,9.2,0.7,13.8c0.2,5-2.4,8.5-6.3,11.2c-1,0.7-1.8,1.8-2.7,2.7c1.2,0.3,2.4,0.7,3.6,1
			c14.6,3.8,29.3,7.6,43.9,11.5c2.2,0.6,4.2,1.9,6.2,2.9c0,0.4,0,0.9,0.1,1.3c-1.2,0-2.5,0.1-3.7,0.1c-2.3-0.5-4.6-1.1-6.9-1.6
			c-2.6-0.8-5.3-1.6-7.9-2.3c-0.6-0.2-1.3,0-1.9,0.1c0.6,0.4,1.2,1,1.9,1.2c2.6,0.8,5.3,1.5,8,2.2c2.3,0.7,4.7,1.4,7,2.1
			c1.9,1.2,3.8,2.5,5.7,3.7c-2.2-0.2-4.5,0-6.6-0.6c-13.1-3.5-26.2-7.1-39.2-10.6c-2-0.5-4-1-6-1.5c-0.6-0.3-1.1-0.7-1.7-0.8
			c-1.7-0.3-3.5-0.4-5.3-0.6c1.8,0.5,3.7,1.1,5.5,1.6c2.5,0.9,5.1,1.9,7.6,2.8c2.9,1.1,5.8,2.2,8.6,3.5c0.9,0.4,1.4,1.7,2.1,2.6
			c-1.9-0.2-3.8-0.4-5.7-0.6c2,0.8,3.9,1.6,5.9,2.3c0.1,0,0.3-0.1,0.5-0.1c5.7,1.9,11.4,3.7,16.9,5.8c1.2,0.5,2,2.2,2.9,3.4
			c-1.4,0.2-2.8,0.9-4,0.6c-3.1-0.6-6.1-1.7-8.1,2.2c-0.3,0.5-2.5,0.3-3.7-0.1c-3.4-1-6.6-2.2-10-3.2c-2.2-0.7-4.4-2.5-6.7,0.4
			c-0.5,0.6-3.1-0.2-4.6-0.6c-6.2-1.5-12.3-3.1-18.5-4.7c0.1-0.1,0.2-0.2,0.3-0.4c0-0.1-0.1-0.2-0.1-0.3c0,0.2-0.1,0.4-0.1,0.7
			c-1,0.6-2.2,1.9-3.1,1.6c-2.5-0.7-4.9-2.1-7.4-2.9c-1-0.3-2.6-0.4-3.3,0.2c-0.8,0.7-1.7,2.4-1.4,3.3c2.8,7.3-0.8,11.4-6.7,14.5
			c-1.9,1-3.9,1.9-5.8,2.9c-3.2,1.6-4,3.5-1.6,6.6c1.6,2.1,2.4,4.8,3.5,7.3c-2.4-1.2-4.7-2.4-7.1-3.6c-1-0.5-2.1-1-3.1-1.5
			c0.1,1.1,0.3,2.2,0.4,3.3c0,0.2,0.2,0.3,0.2,0.4c0.4,2.4,0.8,4.7,1.2,7.1c-1.6-1.4-3.1-2.9-4.9-4.1c-0.9-0.6-2.6-1-3.5-0.6
			c-2.4,1.1-4.6,2.7-6.9,4.1c-2.1,1.3-4.3,2.6-6.4,3.8c1.3,1.6,3.1,3.1,3.9,4.9c1,2.2,2.4,5.4,1.5,7c-3.1,5.8-7.2,11.1-10.8,16.6
			c-0.7,1-1.9,2.2-1.7,3.2c1.3,6.9,0.5,9.9-5.5,13.4c-11.1,6.3-22.3,12.6-33.8,18c-13.9,6.5-28.2,12.2-42.4,18.2
			C6525.7,2160,6460.8,2160,6395.8,2160z M6729.6,2004c-2.4,2.5-3.1,3.2-3.8,4c1.4,0.6,2.7,1.4,4.1,1.8c0.4,0.1,1.6-1,1.5-1.3
			C6731.1,2007.1,6730.4,2005.8,6729.6,2004z"/>
		<path class="st4" d="M5154.4,1956.1c-1.1,1.2-2.2,2.4-3.3,3.6c-4.2,4.6-3.3,8.5,2.8,10.3c5.9,1.7,11.9,2.7,17.9,4
			c20.4,4.2,40.9,8.5,61.4,12.5c19,3.7,38.1,7.1,57.2,10.6c0.5,0.1,1,0.2,1.5,0.3c1.1,0.4,2.2,0.8,3.3,1.3c-1.1,0.4-2.1,1-3.2,1.2
			c-21.6,4.4-43.3,8.4-64.8,13.3c-11.4,2.6-22.6,6.7-33.6,10.8c-6.8,2.5-7.7,7.2-2,11.6c12.3,9.5,24.7,19.2,38,27.3
			c34.7,21.2,71.3,38.9,109.2,53.5c39.5,15.2,79.9,28.2,121.8,35.4c13.4,2.3,26.8,4.2,40.3,6.3c0.9,0.1,1.6,1.2,2.4,1.9
			c-53.3,0-106.6,0-159.9,0c-1.6-0.3-3.1-0.9-4.7-0.9c-9.4-0.1-18.8,0-28.3,0c-25.1-10.1-50.7-19-73.6-33.8
			c-5.7-3.7-11.1-7.3-7.7-15.5c0.2-0.5-1.4-1.8-2.1-2.7c-3.6-5.3-7.8-10.4-10.6-16.2c-1.8-3.6,0.4-7.5,3.9-9.9
			c2.1-1.4,1.8-2.2-0.2-3.4c-3.6-2-7.3-4-10.7-6.4c-2.9-2.1-4.5-1.6-6.2,1.3c-0.7,1.2-2.3,1.8-3.5,2.7c0.1-1.4,0.1-2.9,0.4-4.2
			c0.4-2.3,1-4.6,1.5-6.9c-1.8,1.2-3.7,2.4-5.5,3.7c-0.8,0.6-1.5,1.4-2.4,1.8c-0.6,0.3-1.8,0.4-2.1,0c-0.4-0.4-0.5-1.6-0.2-2.2
			c0.9-1.5,2.1-3,3.3-4.3c2.9-3.4,2.5-5.5-1.7-7.5c-2.2-1.1-4.5-2.1-6.6-3.4c-5.9-3.7-6.8-6-5.6-12.8c0.2-1.3-0.4-3.3-1.3-4.2
			c-0.6-0.7-2.6-0.4-3.8,0c-2.5,0.8-4.9,2.2-7.4,2.9c-0.7,0.2-1.9-1.1-2.8-1.7c0.2-0.2,0.4-0.4,0.6-0.6c-0.2,0-0.4,0-0.7-0.1
			c0,0.2,0.1,0.5,0.1,0.7c-5.3,1.3-10.5,2.6-15.8,3.8c-2.9,0.7-5.9,3.6-9,0c-0.4-0.4-2.2,0.3-3.3,0.6c-3.8,1.2-7.5,2.7-11.3,3.6
			c-1.4,0.3-3.1-1-4.7-1.3c-2.4-0.4-4.9-0.4-7.4-0.6c-1.2-0.1-2.4-0.3-3.6-0.5c0.8-1,1.5-2.6,2.6-3c5.7-2.2,11.5-4.1,17.3-6
			c0.2,0,0.4,0.1,0.5,0.1c2-0.8,4.1-1.6,6.1-2.4c-2.1,0.2-4.1,0.3-6.2,0.5c2.6-1.6,5.2-3.2,7.8-4.8c4.6-1.4,9.3-2.8,13.9-4.2
			c1.7-0.7,3.4-1.5,5.1-2.2c-1.7,0.3-3.5,0.5-5.2,0.8c-4.6,1.2-9.2,2.4-13.9,3.6c-14,3.7-28.1,7.4-42.1,11c0-0.7,0.1-1.4,0.1-2.1
			c2.7-1,5.4-2,8.1-3c6.5-1.9,12.9-3.7,19.4-5.6c0.4-0.1,0.8-0.5,1.2-0.7c-0.5-0.1-1.1-0.3-1.5-0.2c-6.4,1.6-12.7,3.2-19.1,4.9
			c-2.1,0-4.2,0.1-6.4,0.1c1.8-1,3.4-2.5,5.4-3.1c14.8-4,29.6-7.7,44.4-11.6c1.4-0.4,2.7-0.9,4-1.3c-0.9-0.9-1.7-2-2.7-2.7
			c-5.4-3.5-6.4-8.3-6.2-14.6c0.2-5.4,2.8-11.8-2-16.6c-1.5-1.5-3.5-2.8-5.6-3.3c-3.4-0.8-7-0.6-10.4-1.4c-1.8-0.4-3.3-2.1-5-3.3
			c1.7-0.9,3.4-1.9,5.2-2.5c0.9-0.3,2,0.3,3,0c0.9-0.2,5.7,2.4,1.7-2.3c-1.9-2.2,1.1-3.5,3.1-3.1c3.6,0.8,4.8-0.7,5.9-3.8
			c1.1-3.1,3.1-5.8,5-8.6c2.4-3.5,7.6-3,9.3,0.9C5154.1,1952.7,5154.1,1954.4,5154.4,1956.1z M5156.3,2025.2
			c-0.9-0.4-1.3-0.7-1.5-0.6c-5.1,1.4-10.1,2.9-15.2,4.4c-0.4,0.1-0.6,0.7-0.9,1c0.7,0.1,1.5,0.4,2.1,0.3c4.4-1.3,8.8-2.7,13.2-4.1
			C5154.6,2025.9,5155.2,2025.7,5156.3,2025.2z M5171.4,2010.5c1.6-1.1,2.7-1.8,3.8-2.6c-1-0.7-2.1-1.9-3-1.9
			c-1,0.1-1.9,1.4-2.8,2.2C5169.9,2008.9,5170.5,2009.6,5171.4,2010.5z M5160.6,1978.5c-0.3-0.1-0.6-0.4-0.8-0.4
			c-0.3,0.1-0.5,0.4-0.7,0.6c0.3,0.1,0.6,0.2,0.8,0.2C5160.2,1978.9,5160.4,1978.7,5160.6,1978.5z M5134.5,1968.1
			c-0.3,0.2-0.5,0.3-0.7,0.4c0.3,0.1,0.6,0.3,0.9,0.3c0.3,0,0.6-0.1,0.9-0.2C5135.3,1968.4,5134.9,1968.3,5134.5,1968.1z"/>
		<path class="st4" d="M6960.8,1864.8c2.7,2.5,5.4,4.9,7.9,7.6c0.7,0.8,0.6,2.3,0.9,3.5c-1.1-0.3-2.4-0.4-3.3-1
			c-5.8-4.7-11.5-9.5-17.4-14.2c-1-0.8-3.3-1.4-3.7-1c-1.9,2-3.3,4.4-4.9,6.7c1.1,0.6,2.4,1,3.3,1.9c1.2,1.1,2.1,2.6,3.2,3.9
			c-1.4,0.9-2.8,2.6-4.2,2.6c-3,0-4.8,0.8-6.5,3.3c-3,4.3-8.1,2.1-11.2,1.2c-6.7-1.9-10.8,3.5-16.4,3.8c-0.2,0-0.4,0.6-0.7,1
			c0.4,0.2,0.9,0.3,1.2,0.7c1.3,1.4,2.6,2.8,3.9,4.2c-1.6,1.3-2.9,3.2-4.7,3.6c-5,1.2-10.2,1.8-15.2,2.7c-7.1,1.4-14.2,3.1-21.3,4.3
			c-4.7,0.8-9.6,0.7-14.4,1.1c-1.2,0.1-3.2,0.3-3.4,1c-2,5.3-6.2,4-9.7,3.1c-18.4-4.5-36.8-9.3-55.1-14c-5.8-1.5-11.6-3-17.4-4.4
			c-2-0.5-4.1-1.6-3.8,2.5c0.3,4.3-3.3,6.6-7.4,5.3c-2.3-0.8-4.6-2-6.6-3.4c-11.4-7.5-22.8-15-34-22.8c-1.6-1.1-2.1-4-2.7-6.2
			c-1-3.5,2.6-8.9-4.2-10c-0.6-0.1-1.5-2-1.3-2.8c0.3-1.1,1.4-2.5,2.4-2.8c2.3-0.6,3.4-1.1,2.8-4c-0.2-0.9,1.8-3,3.2-3.4
			c3.1-1,6.2,0.3,8.7-4.5c2-3.8,8.7-5.5,13.6-7.5c2.8-1.2,6.1-1.5,9.2-1.8c17.6-1.6,35.1-3.6,52.7-4.5c12.1-0.6,24.3,0.3,36.4,0.6
			c1.3,0,2.5-0.2,3.8-0.3c-0.9-1.1-1.6-2.5-2.7-3.2c-1.2-0.8-2.7-1.2-4.2-1.5c-27.8-6.9-55.5-13.7-83.3-20.7c-3-0.7-5.7-2.2-8.6-3.4
			c3.1-0.1,6.3-0.7,9.4-0.3c6.9,0.9,13.8,2.6,20.7,3.2c4.5,0.4,9.3-1.5,13.5-0.6c17.7,3.9,35.3,8.1,52.7,13c4.6,1.3,5.6-1.5,7.9-3.4
			c-0.7-0.8-1.4-1.7-2.2-2.4c-1.5-1.3-3.1-2.4-4.7-3.7c2,0.2,4.4-0.3,6,0.6c14.2,8,30.4,8.1,45.6,12.3c13.2,3.7,26.1,8,37.3,16.2
			c7,5.1,13.9,10.4,16.5,19.4c0.3,1.2,2,2.1,3.2,2.8c11.3,6.6,22.7,13.1,34.1,19.6c0.2,0.1,0.7-0.4,1.1-0.6c0,0.7,0,1.3,0,2
			c-4.3,2.4-5.9-2.4-9-3.3c-3.3-1.6-6.7-3.1-10-4.7c-0.3-0.3-0.6-0.7-1-1c-0.7-0.4-1.3-0.7-2-1.1c-0.7-0.3-1.4-0.6-2-1
			c-0.4-0.2-0.8-0.5-1.1-0.7c-0.1,0.1-0.2,0.3-0.3,0.4c0.5,0.1,0.9,0.2,1.4,0.4c0.6,0.4,1.3,0.7,1.9,1.1c0.7,0.5,1.5,1.1,2.2,1.6
			c0.3,0.2,0.6,0.2,1,0.2c3.3,2.1,6.5,4.2,9.8,6.2c-0.5,3.3-2.2,2.4-4.2,1.3c-3.8-2-7.6-3.9-11.3-5.8c-0.4-0.3-0.8-0.6-1.2-0.9
			c-0.7-0.2-1.4-0.4-2-0.6c0.3,0.6,0.7,1.1,1,1.7C6960,1864.2,6960.4,1864.5,6960.8,1864.8z M6931.4,1838.2c0.2,0.1,0.4,0.3,0.6,0.4
			c-0.1-0.2-0.3-0.4-0.4-0.6c-1-1-2-1.9-3-2.9c-7.8-4-15.6-8.1-23.4-12c-0.7-0.3-1.7,0-2.5,0c0.6,0.7,1.1,1.6,1.9,2
			c7.6,3.8,15.2,7.5,22.7,11.3C6928.6,1837,6930,1837.6,6931.4,1838.2z M6851.8,1874.7c17.9-1.2,36-2.2,54.1-3.7
			c4.9-0.4,9.6-2.3,14.3-3.9c2-0.7,3.7-2.3,5.5-3.5c-1.1-1.2-2.1-2.5-3.4-3.5c-1.7-1.3-3.7-2.2-5.6-3.3c-1.4-0.8-2.8-1.6-4.2-2.4
			c1.2-0.1,2.7,0.2,3.6-0.3c1.5-1,2.6-2.5,3.8-3.8c0.7-0.8,1.4-1.8,2.3-2.3c0.6-0.4,1.6-0.2,2.4-0.2c-0.8-0.6-1.5-1.2-2.4-1.7
			c-14.5-7.3-29.9-11.8-45.6-15.7c-23.3-5.8-46.9-7.7-70.8-6.1c-15.4,1-30.8,3.1-46.2,4.3c-8.9,0.7-17.6,0.9-24.9,7.1
			c-0.8,0.7-1.6,1.3-2.4,2c1-0.1,2,0,3-0.2c14.7-1.9,29.3-3.9,44-5.7c1.1-0.1,2.2,0.4,3.3,0.7c-0.9,1-1.7,1.9-2.6,2.9
			c-1.2,1.3-3.4,2.5-3.4,3.7c-0.1,3.1-1.8,2.9-3.9,3.1c-3.5,0.3-7,0.6-10.4,1c-1.2,0.2-3,0.5-3.4,1.3c-1.8,3.8-4.9,3.1-8.1,3
			c-5.4,0-10.9,0.3-16.3,0.7c-0.8,0-1.5,0.9-2.2,1.4c0.6,0.5,1.1,1.3,1.8,1.5c17.5,7,34.5,15.7,53.6,18.2c9.9,1.3,19.6,4.3,29.5,5.1
			C6828.5,1875.4,6840,1874.7,6851.8,1874.7z M6908.1,1830.8c-2.6-1.5-4.1-2.4-5.7-3.1c-0.4-0.2-1,0.3-1.5,0.5
			c1.4,0.9,2.8,1.8,4.2,2.6C6905.6,1831,6906.2,1830.8,6908.1,1830.8z M6935.8,1855.4c-0.4-0.5-0.7-1-1-1c-0.4,0-0.8,0.3-1.2,0.5
			c0.3,0.4,0.6,0.9,1,1.2C6934.8,1856.2,6935.3,1855.7,6935.8,1855.4z M6957.1,1861.8l0.2-0.3l-0.3,0L6957.1,1861.8z"/>
		<path class="st4" d="M4914.5,1868.1c0.4,0.2,0.9,0.7,1.1,0.6c11.4-6.5,22.7-13,34.1-19.6c1.3-0.8,2.5-2,3.4-3.3
			c3.8-4.9,6.7-10.8,11.3-14.8c14.8-13.1,33.2-18.8,52.1-22.5c12.1-2.4,24.1-4.5,35.3-10.1c0.6-0.3,1.3-0.5,1.9-0.6
			c1.5-0.1,3.1-0.1,4.6-0.1c-1.1,1-2.2,2-3.4,3c-1.2,1-2.4,2-3.6,3c2.4,1,2.3,5,6.9,3.7c17.8-4.9,35.8-9,53.7-13.4
			c13.2,2.9,25.8-2.2,38.7-3c1.6-0.1,3.3,0.6,5,0.9c-1.6,0.8-3,2-4.7,2.4c-6.9,1.8-13.9,3.2-20.9,4.9c-21.9,5.5-43.9,11.1-65.8,16.6
			c-1,0.2-2.1,0.3-2.8,0.9c-1.6,1.2-3.1,2.7-4.6,4c1.7,0.1,3.5,0.4,5.2,0.2c23.7-3.1,47.1,1.7,70.7,2.9c6.5,0.3,13.2,0,19.4,1.6
			c7.1,1.8,15.1,4.1,20,8.9c3.4,3.4,7,3.1,9.9,5c3.3,2.1,3.8,7.4,7.6,9.8c0.1,0.1-0.7,2.6-1.4,2.8c-6.8,1.1-3.3,6.5-4.3,10
			c-0.6,2.2-1.1,5.1-2.7,6.2c-11.2,7.8-22.6,15.3-34,22.8c-2.2,1.4-4.6,2.8-7.1,3.5c-3.7,1.1-7.3-1.2-6.9-4.9
			c0.4-4.5-1.8-3.6-4.3-2.9c-16.4,4.4-32.8,8.8-49.2,13.1c-7.9,2-15.9,3.8-23.8,5.4c-3.4,0.7-7.1,1.4-8.7-3.3c-0.2-0.7-2.2-1-3.4-1
			c-7.2,0.3-14.1-0.6-21-3.4c-4.1-1.7-9.2-1.2-13.8-1.9c-5.4-0.8-10.9-1.5-16.2-2.8c-1.8-0.4-3.2-2.4-4.7-3.6
			c1.3-1.4,2.5-2.8,3.8-4.2c0.4-0.4,0.9-0.7,1.4-1.1c-0.6-0.3-1.1-0.6-1.7-0.8c-7.2-3.2-14.6-5-22.5-2.6c-0.2,0-0.4,0.1-0.5,0.1
			c-4.3-2.8-8.7-5.3-13.6-7.1c-2.5-0.9,0.2-3.7,2.3-5c1.2-0.7,5.4-0.4,2.5-3.4c-1.9-2-2.3-8.5-7.7-4.2c-5.9,4.7-11.5,9.5-17.4,14.2
			c-0.8,0.7-2.2,0.7-3.3,1.1c0.3-1.2,0.1-2.7,0.8-3.5c2.5-2.7,5.2-5.1,7.9-7.6c0.4-0.3,0.8-0.5,1.2-0.8c0.3-0.6,0.7-1.1,1-1.7
			c-0.7,0.2-1.4,0.4-2,0.6c-0.4,0.3-0.8,0.6-1.2,0.9c-3.8,1.9-7.6,3.8-11.3,5.8c-1.9,1-3.7,2-4.2-1.3c3.3-2.1,6.5-4.2,9.8-6.2
			c0.3,0,0.7-0.1,1-0.2c0.7-0.5,1.5-1.1,2.2-1.6c0.6-0.4,1.3-0.7,1.9-1.1c0.5-0.1,0.9-0.3,1.4-0.4c-0.1-0.1-0.2-0.4-0.3-0.4
			c-0.4,0.2-0.8,0.5-1.2,0.7c-0.7,0.3-1.4,0.6-2,1c-0.7,0.4-1.3,0.7-2,1.1c-0.3,0.3-0.6,0.7-1,1c-3.3,1.6-6.7,3.1-10,4.7
			c-0.6,0.3-1.4,0.5-1.7,0.9c-1.9,2.6-4.3,3.2-7.3,2.3C4914.5,1869.4,4914.5,1868.8,4914.5,1868.1z M4969.6,1838.2
			c1.4-0.6,2.8-1.2,4.2-1.8c7.6-3.7,15.2-7.5,22.7-11.3c0.8-0.4,1.2-1.3,1.9-2c-0.9,0-1.9-0.3-2.5,0c-7.8,4-15.6,8-23.4,12
			c-1,1-2,1.9-3,2.9c-0.1,0.2-0.3,0.4-0.4,0.6C4969.2,1838.5,4969.4,1838.4,4969.6,1838.2z M5078.9,1823.5c0,0.1,0,0.2,0,0.3
			c-2.8,0-5.7-0.1-8.5,0c-31.5,1.9-62,8.1-90.6,21.9c-1.2,0.6-2.3,1.3-3.4,1.9c1,0.2,2.1,0.2,3.1,0.6c0.5,0.2,0.8,1,1.2,1.5
			c1.8,2.2,2.8,5.5,6.8,4.4c0.3-0.1,0.6,0.1,1,0.2c-0.5,0.4-0.9,0.9-1.4,1.2c-3.7,2.2-7.5,4.3-11,6.7c-1.4,1-2.8,2.9,0.4,3.9
			c4.6,1.4,9,3.7,13.6,4.4c9.6,1.5,19.3,2.8,29,3.1c21.8,0.7,43.6,1.5,65.3,0.6c13-0.5,26.2-3,38.8-6.7c14.8-4.3,29-10.7,43.4-16.3
			c0.8-0.3,1.5-1.2,2.2-1.8c-0.9-0.5-1.9-1.3-2.8-1.4c-5.4-0.3-10.9-0.3-16.3-0.6c-2.2-0.1-4.4-0.7-6.5-1.5c-2.1-0.8-4-2.5-6.1-2.9
			c-3.2-0.7-6.6-0.6-9.9-1.1c-0.9-0.1-2.4-1-2.4-1.6c-0.1-3.3-1.9-4.6-4.9-5.4c-0.7-0.2-1-1.8-1.5-2.7c0.8-0.2,1.7-0.7,2.5-0.7
			c5.8,0.6,11.6,1.1,17.4,1.9c9.4,1.3,18.8,2.8,28.2,4.1c0.8,0.1,1.6,0,2.3-0.1c-0.3-0.4-0.5-0.9-0.9-1.1c-6-3.5-11.8-6.9-19.2-7.4
			C5125.3,1827.5,5102.1,1825.4,5078.9,1823.5z M5000.8,1828.9c-0.8-0.8-1.3-1.4-1.4-1.3c-1.7,0.8-3.4,1.8-5,2.7
			c0.3,0.2,0.6,0.7,0.8,0.7C4996.9,1830.3,4998.6,1829.6,5000.8,1828.9z M4966.2,1856.4c0.5-0.4,0.8-0.6,1.1-0.9
			c-0.4-0.4-0.7-0.8-1.1-1.2c-0.3,0.3-0.7,0.6-0.8,1C4965.4,1855.6,4965.9,1855.9,4966.2,1856.4z M4943.9,1861.8l0.2-0.2l-0.3-0.1
			L4943.9,1861.8z"/>
		<path class="st3" d="M5310.3,2159c9.4,0,18.8,0,28.3,0c1.6,0,3.1,0.6,4.7,0.9c-11,0-22,0-33,0
			C5310.4,2159.7,5310.4,2159.4,5310.3,2159z"/>
		<path class="st4" d="M6734.4,1945.1c-4.2-2.9-8.4-5.8-12.7-8.5c-13.4-8.4-26.3-17.6-40.3-24.8c-25.6-13.3-51.5-26.2-77.9-37.9
			c-32-14.2-65.2-25.8-99.4-33.8c-1.2-0.3-2.2-1.1-3.3-1.6c1.2-0.1,2.3-0.2,3.5-0.2c13.5,0,27-0.1,40.5,0.1
			c8.1,0.1,16.3,0.6,24.4,0.8c1.7,0,3.3-1,5-1.5c-1-1.4-1.6-3.4-2.9-4.2c-9.2-5.9-18.4-11.9-28-17.3c-18.8-10.5-38.6-18.6-59.2-24.7
			c-21.8-6.4-43.4-13.7-65.5-19c-27.8-6.6-56.1-11.7-84.2-17.2c-20.2-3.9-40.4-7.3-60.6-10.8c-3.1-0.5-6.3-0.7-9.4-1.2
			c-1-0.2-1.9-0.7-2.8-1.1c1-0.3,2.1-0.7,3.1-0.7c13.3-0.1,26.6-0.1,40-0.1c1.3,0,2.7,0.2,4,0c1-0.2,2-0.8,3-1.2
			c-0.7-1-1.2-2.5-2.2-2.9c-5.3-2.3-10.6-5.2-16.2-6.4c-17.6-3.9-35.3-7.3-53.1-10.5c-13.3-2.4-26.8-4.5-40.2-6.4
			c-14.4-2.1-28.9-3.9-43.3-5.5c-12-1.3-24.1-2.1-36.1-3.3c-1.1-0.1-2-1.3-3-2c0.1-11,0.1-11.1,11.2-9.8c12.2,1.4,24.4,2.9,36.6,4.4
			c1,0.1,2,0.2,2.9,0.3c-0.4-0.8-0.8-1.7-1.3-2.5c-2-3.2-0.5-5.6,2.1-7.1c2.1-1.2,4.7-2.1,7-1.9c7.9,0.7,15.9,1.6,23.7,2.9
			c19,3.2,38,6.4,57,10c7.3,1.4,14.4,3.9,21.5,6.2c1.5,0.5,3.4,1.6,3.8,2.9c1.5,4.7,4.7,4.9,8.7,4.3c1.2-0.2,3.1,0,3.7,0.8
			c3.4,4.2,8.1,3.4,12.4,3.3c7.1-0.2,14.1,0.7,21.5-1c6.9-1.6,14.7,1.2,22.2,2c25,2.8,49.1,9.9,73.5,15.6c13.5,3.2,27.3,5.6,41,8.1
			c5.3,1,9,3.2,10.4,8.6c0.3,1,0.9,2.3,1.7,2.7c8.7,4.2,17.3,8.4,26.2,12.1c2.6,1.1,5.9,0.4,8.9,0.6c1.5,0.1,3.1,0.2,4.3,0.8
			c10.9,5.6,21.5,11.9,32.7,16.9c13.8,6.2,28,11.5,42.1,17.1c0,0,0,0,0,0c1.3,1,2.6,2.1,4.1,3c5.7,3.5,12.6,5.7,14,13.6
			c0.2,1,1.8,1.9,2.8,2.7c5.7,4.4,11.3,8.7,17,13c2.9,2.3,5.4,5.1,10,4.2c1.8-0.3,4.3,1.6,6.1,2.9c3.3,2.5,6.4,5.3,9.3,8.2
			c2.6,2.6,4.7,4.8,9.3,3.8c2.5-0.5,6.1,1.5,8.5,3.3c18.7,14.6,34.8,31.9,48.9,50.8c3.5,4.7,5.2,10.7,7.8,16c2,4.2,4.1,8.3,6.4,12.3
			C6737.9,1938.2,6738,1941.8,6734.4,1945.1z"/>
		<path class="st4" d="M5783.5,1704.1c-5.4,0.6-10.8,1.3-16.2,1.9c-28.1,3.4-56.3,6.3-84.3,10.3c-27.1,3.9-54.3,7.2-80.4,15.9
			c-3.9,1.3-7.8,3-11.5,4.8c-1.1,0.5-1.6,2.2-2.4,3.4c1.3,0.5,2.6,1.5,4,1.5c14.1,0.2,28.2,0.2,42.3,0.2c0.7,0,1.4,0.3,2.1,0.5
			c-0.6,0.1-1.2,0.3-1.9,0.4c-22.7,3.9-45.4,7.8-68.1,11.9c-21.4,3.9-42.8,7.4-64,12.2c-21.3,4.9-42.5,10.8-63.5,16.9
			c-27,7.8-53.9,16.2-78.6,29.9c-10.6,5.9-20.8,12.5-31,18.9c-1.5,0.9-2.2,3-3.3,4.6c1.8,0.6,3.5,1.7,5.3,1.6
			c21.3-0.2,42.6-0.6,63.9-0.9c1.1,0,2.3,0.2,3.4,0.3c-0.9,0.5-1.8,1.3-2.8,1.6c-18.3,5.5-36.7,10.7-54.8,16.6
			c-36.9,12-71.7,29.2-106.6,46c-14.2,6.8-27.4,15.6-40.8,24c-9.3,5.8-18.1,12.4-27.1,18.7c-3.8-3-3.9-6.6-2-10.7
			c3.2-6.7,6.2-13.6,9.5-20.2c1.8-3.7,3.8-7.5,6.4-10.7c13.7-17.3,28.5-33.5,45.7-47.3c3.9-3.1,7.8-5.5,13.2-4.2
			c1.1,0.3,2.9-1.1,4-2c3.8-3.3,7.1-7.1,11.2-9.9c2.5-1.8,6-2.1,9-3.2c1.5-0.5,3.1-1.1,4.3-2c5.7-4.3,11.4-8.7,17.1-13.1
			c3.1-2.4,6.3-4.4,7.3-8.9c0.5-2.3,3.6-4.3,5.9-5.8c3.6-2.3,7.4-4.6,11.4-6.1c21.4-8,41.9-17.7,61.7-29.2c3.9-2.2,8.1-3.9,12.2-5.7
			c1.2-0.5,2.7-1.1,3.8-0.7c7.1,2.5,12.8-1.7,18.7-4.1c3.8-1.5,7.3-3.9,11.1-5.7c4-1.9,7.8-3.3,9.3-8.6c0.7-2.4,5.2-4.5,8.3-5.1
			c11.4-2.3,23.1-3.4,34.4-6.1c15.4-3.6,30.3-9,45.8-12.1c18.2-3.7,36.7-5.8,55.1-8.6c9.1,4,18.6,1.2,27.9,1.5
			c2.2,0.1,4.3-1.6,6.6-2.3c2.1-0.7,4.3-1.4,6.5-1.5c3.1-0.2,5.9,0,7-3.9c0.4-1.4,2.4-2.9,4-3.4c6.4-2.2,12.9-4.5,19.6-5.8
			c21.2-4.1,42.5-8,63.8-11.6c6.1-1,12.2-1.3,18.4-1.7c1.8-0.1,3.7,0.2,5.4,0.8c5.2,1.8,5.9,5.7,1.9,9.8c-6.2,1.1-12.4,2.1-18.5,3.3
			c-0.7,0.1-1.2,0.9-1.9,1.4c0.6,0.1,1.3,0.3,1.9,0.2c6.3-1.2,12.6-2.4,18.9-3.6c15.9-2,31.9-3.8,47.8-5.9c2.9-0.4,3.4,0.7,3.3,3.2
			C5783,1698.5,5783.3,1701.3,5783.5,1704.1z"/>
		<path class="st4" d="M6676.8,1821.9c4.5-0.3,8.9,0.8,9.9,5.6c0.6,2.7-0.4,6.8-2.3,8.8c-3.2,3.4-7.1,6.3-12.7,3.2
			c-7.5-4.2-15.5-7.6-23.2-11.4c-0.9-0.4-1.6-1.1-2.4-1.6c0.9-0.3,1.7-0.8,2.6-0.9C6658,1824.2,6667.4,1823.1,6676.8,1821.9z"/>
		<path class="st4" d="M5225,1822.3c8.5,1.1,17.9,2.3,27.3,3.6c0.6,0.1,1.1,0.4,1.7,0.7c-0.5,0.4-0.9,0.9-1.5,1.2
			c-8.4,4.1-16.7,8.3-25.1,12.2c-4.6,2.1-8.4-0.9-10.9-4c-1.7-2.1-2.5-6.2-1.8-8.9C5215.8,1822.7,5220.1,1822,5225,1822.3z"/>
		<path class="st5" d="M5104.5,2028.3c6.4-1.6,12.7-3.3,19.1-4.9c0.5-0.1,1,0.1,1.5,0.2c-0.4,0.3-0.8,0.6-1.2,0.7
			c-6.5,1.9-12.9,3.7-19.4,5.6C5104.5,2029.4,5104.5,2028.9,5104.5,2028.3z"/>
		<path class="st3" d="M5732,1698.5c-6.3,1.2-12.6,2.4-18.9,3.6c-0.6,0.1-1.3-0.1-1.9-0.2c0.6-0.5,1.2-1.3,1.9-1.4
			c6.2-1.2,12.3-2.2,18.5-3.3C5731.7,1697.6,5731.8,1698,5732,1698.5z"/>
		<path class="st6" d="M5138.4,2024c4.6-1.2,9.2-2.4,13.8-3.6c0,0.5,0.1,0.9,0.1,1.4c-4.6,1.4-9.3,2.8-13.9,4.2
			C5138.4,2025.4,5138.4,2024.7,5138.4,2024z"/>
		<path class="st6" d="M6977.3,1868.3c-3.3-2.1-6.5-4.2-9.8-6.2c0,0-0.1,0.1-0.1,0.1c3.3,1.6,6.7,3.1,10,4.7
			C6977.4,1867.3,6977.4,1867.8,6977.3,1868.3z"/>
		<path class="st6" d="M4933.5,1862.1c-3.3,2.1-6.5,4.2-9.8,6.2c-0.1-0.5-0.1-1-0.2-1.5C4926.8,1865.3,4930.2,1863.7,4933.5,1862.1
			C4933.5,1862.1,4933.5,1862.1,4933.5,1862.1z"/>
		<path class="st7" d="M6773.5,1968c-1.7,0.4-3.4,0.9-5.2,1.1c-1.6,0.2-3.2,0.1-4.8,0.1c1.6-0.7,3.2-1.4,4.8-2
			c0.6-0.2,1.3-0.1,2-0.1c0.3,0.2,0.6,0.4,0.9,0.6c0.1-0.2,0.2-0.4,0.3-0.7c0,0-0.1,0-0.1,0
			C6772.1,1967.3,6772.8,1967.7,6773.5,1968z"/>
		<path class="st5" d="M5130.6,2030.9c2.1-0.2,4.1-0.3,6.2-0.5c-2,0.8-4.1,1.6-6.1,2.4c-0.1,0-0.3-0.1-0.5-0.1
			C5130.4,2032.1,5130.5,2031.5,5130.6,2030.9z"/>
		<path class="st5" d="M6792.6,2027.6c2.3,0.5,4.6,1.1,6.9,1.6c0.1,0.6,0.1,1.1,0.2,1.7c-2.3-0.7-4.7-1.4-7-2.1
			C6792.6,2028.4,6792.6,2028,6792.6,2027.6z"/>
		<path class="st5" d="M6753.5,2021.9c2,0.5,4,1,6,1.5c0,0.5,0.1,1,0.1,1.5c-2.5-0.9-5.1-1.9-7.6-2.8
			C6752.5,2022,6753,2022,6753.5,2021.9z"/>
		<path class="st5" d="M6591.6,1800.2c0-0.9,0.1-1.8,0.1-2.7c1.2,0.7,2.3,1.5,3.5,2.2C6594,1799.9,6592.8,1800.1,6591.6,1800.2
			C6591.6,1800.2,6591.6,1800.2,6591.6,1800.2z"/>
		<path class="st3" d="M6771,2032.6c-0.2,0-0.3,0.2-0.5,0.1c-2-0.8-3.9-1.5-5.9-2.3c1.9,0.2,3.8,0.4,5.7,0.6
			C6770.5,2031.5,6770.7,2032,6771,2032.6z"/>
		<path class="st6" d="M5310.3,1798.5c-1.2,0.6-2,1-2.8,1.3c-0.1,0-0.5-0.5-0.7-0.8c0.8-0.5,1.5-1,2.4-1.4
			C5309.3,1797.5,5309.7,1798,5310.3,1798.5z"/>
		<path class="st6" d="M5096.4,2033c0,0.7-0.1,1.4-0.1,2.1c-0.5-0.3-0.9-0.5-1.4-0.8C5095.4,2033.8,5095.9,2033.4,5096.4,2033z"/>
		<path class="st5" d="M6803.2,2029.2c0-0.4,0-0.9-0.1-1.3C6803.1,2028.3,6803.2,2028.7,6803.2,2029.2z"/>
		<path class="st7" d="M5953.2,1758.2c10.2,0,20.3-0.3,30.5,0.1c20.7,0.8,41.4,1.5,62.1,3.1c19.6,1.5,39.2,3.4,58.7,6
			c20,2.6,40,5.6,59.7,9.6c26.4,5.4,52.7,11.5,78.8,18.4c27.1,7.2,53.4,17,79,28.8c22,10.1,42.8,22,61.8,37
			c17,13.5,31.4,29.2,39.3,49.8c8.1,21.1,5.9,41.7-5.1,61.3c-13.9,24.6-35.3,41.5-58.9,56c-38.5,23.7-80.7,38.7-124,50.9
			c-33.4,9.4-67.3,16.1-101.4,21.6c-16.6,2.6-33.4,4.4-50.2,6.2c-15.8,1.6-31.6,2.9-47.5,4c-14.1,1-28.1,1.7-42.2,2
			c-23.9,0.5-47.9,1.2-71.8,0.9c-20.5-0.3-41.1-1.5-61.6-3c-19.6-1.5-39.2-3.4-58.7-6c-20-2.6-40-5.6-59.7-9.6
			c-26.4-5.4-52.7-11.5-78.8-18.4c-27.1-7.3-53.5-17-79-28.8c-22-10.1-42.8-22-61.8-37c-17.1-13.5-31.4-29.3-39.3-49.8
			c-6.7-17.4-6.5-35,0.9-52.3c9.7-22.8,26.7-39.3,46.2-53.6c27.2-19.9,57.4-33.8,88.8-45.5c27.4-10.2,55.4-18.7,83.9-24.8
			c24.4-5.3,49-9.7,73.6-13.7c20.2-3.3,40.6-5.9,61-7.9c17.1-1.7,34.4-2.3,51.6-3.2c21.4-1,42.8-1.8,64.2-2.7
			C5953.1,1757.7,5953.1,1757.9,5953.2,1758.2z M5949,1798.2c0-0.6,0-1.1,0-1.7c-18.6,0.9-37.1,1.6-55.7,2.7
			c-13.7,0.8-27.5,1.3-41.1,3.2c-23.9,3.4-47.7,7.2-71.4,11.8c-39.8,7.7-78.2,19.8-114.2,38.8c-20,10.5-38.7,22.8-52.7,41
			c-15.2,19.6-20.1,41.8-8.3,65.2c8.1,16,20.6,27.9,35,38.2c20.7,14.8,43.5,25.4,67.3,34.3c31.3,11.7,63.6,19.8,96.5,25.3
			c20.8,3.5,41.9,6,62.9,8.1c18.8,1.9,37.6,3.7,56.5,3.8c27.1,0.2,54.2-0.6,81.2-1.9c17.7-0.8,35.3-2.5,52.8-5
			c23.9-3.4,47.8-7.1,71.3-12.3c39.4-8.8,77.5-21.5,112.5-42c18.5-10.8,35.5-23.5,47.1-42c10-16,13.3-33,6.6-51.3
			c-6.4-17.8-18.9-30.8-33.4-41.9c-23.7-18.2-50.6-30.4-78.7-40.2c-36.1-12.6-73.2-21.2-111.1-26c-24.4-3.1-48.9-6-73.5-7.7
			C5982.3,1797.2,5965.6,1798.2,5949,1798.2z"/>
		<path class="st6" d="M6729.6,2004c0.7,1.8,1.4,3.1,1.8,4.4c0.1,0.3-1.1,1.4-1.5,1.3c-1.4-0.4-2.7-1.2-4.1-1.8
			C6726.6,2007.2,6727.3,2006.5,6729.6,2004z"/>
		<path class="st7" d="M6792.6,2027.6c0,0.4,0,0.8,0,1.2c-2.7-0.7-5.4-1.4-8-2.2c-0.7-0.2-1.2-0.8-1.9-1.2c0.6,0,1.3-0.2,1.9-0.1
			C6787.3,2026,6789.9,2026.9,6792.6,2027.6z"/>
		<path class="st3" d="M6753.5,2021.9c-0.5,0.1-1,0.1-1.5,0.2c-1.8-0.5-3.7-1.1-5.5-1.6c1.8,0.2,3.5,0.3,5.3,0.6
			C6752.4,2021.2,6752.9,2021.6,6753.5,2021.9z"/>
		<path class="st3" d="M5156.3,2025.2c-1.1,0.5-1.7,0.7-2.3,0.9c-4.4,1.4-8.8,2.8-13.2,4.1c-0.6,0.2-1.4-0.2-2.1-0.3
			c0.3-0.4,0.5-0.9,0.9-1c5-1.5,10.1-3,15.2-4.4C5155.1,2024.5,5155.5,2024.8,5156.3,2025.2z"/>
		<path class="st7" d="M5152.3,2021.8c0-0.5-0.1-0.9-0.1-1.4c1.7-0.3,3.5-0.5,5.2-0.8C5155.8,2020.4,5154.1,2021.1,5152.3,2021.8z"
			/>
		<path class="st3" d="M5160.6,1978.5c-0.2,0.2-0.4,0.4-0.7,0.5c-0.3,0-0.5-0.1-0.8-0.2c0.2-0.2,0.4-0.6,0.7-0.6
			C5160,1978.1,5160.3,1978.3,5160.6,1978.5z"/>
		<path class="st6" d="M6927.2,1836.4c-7.6-3.7-15.2-7.5-22.7-11.3c-0.8-0.4-1.2-1.3-1.9-2c0.9,0,1.9-0.3,2.5,0
			c7.8,4,15.6,8,23.4,12C6928.1,1835.6,6927.7,1836,6927.2,1836.4z"/>
		<path class="st7" d="M6908.1,1830.8c-1.9,0-2.6,0.2-3,0c-1.5-0.8-2.8-1.7-4.2-2.6c0.5-0.2,1.2-0.7,1.5-0.5
			C6904,1828.4,6905.5,1829.3,6908.1,1830.8z"/>
		<path class="st5" d="M6927.2,1836.4c0.4-0.4,0.9-0.8,1.3-1.2c1,1,2,1.9,3,2.9c0,0-0.2,0.2-0.2,0.2
			C6930,1837.6,6928.6,1837,6927.2,1836.4z"/>
		<path class="st5" d="M6959.6,1864c-0.3-0.6-0.7-1.1-1-1.7c0.7,0.2,1.4,0.4,2,0.6C6960.2,1863.3,6959.9,1863.6,6959.6,1864z"/>
		<path class="st7" d="M6966.6,1861.9c-0.7-0.5-1.5-1.1-2.2-1.6c0,0,0.2-0.2,0.2-0.2c0.7,0.4,1.3,0.7,2,1.1
			C6966.6,1861.4,6966.6,1861.6,6966.6,1861.9z"/>
		<path class="st7" d="M6962.5,1859.1c0.7,0.3,1.4,0.6,2,1c0,0-0.2,0.2-0.2,0.2C6963.8,1859.9,6963.1,1859.5,6962.5,1859.1
			C6962.5,1859.1,6962.5,1859.1,6962.5,1859.1z"/>
		<path class="st7" d="M6962.5,1859.1c-0.5-0.1-0.9-0.2-1.4-0.4c0.1-0.1,0.2-0.3,0.3-0.4C6961.8,1858.6,6962.1,1858.8,6962.5,1859.1
			C6962.5,1859.1,6962.5,1859.1,6962.5,1859.1z"/>
		<path class="st5" d="M6931.6,1838.1c0.1,0.2,0.3,0.4,0.4,0.6c-0.2-0.1-0.4-0.3-0.6-0.4C6931.4,1838.2,6931.6,1838.1,6931.6,1838.1
			z"/>
		<path class="st6" d="M6966.6,1861.9c0-0.2,0-0.5-0.1-0.7c0.3,0.3,0.6,0.7,1,1c0,0,0.1-0.1,0.1-0.1
			C6967.2,1862.1,6966.9,1862,6966.6,1861.9z"/>
		<polygon class="st5" points="6957.1,1861.8 6957,1861.5 6957.3,1861.5 		"/>
		<path class="st6" d="M4972.5,1835.2c7.8-4,15.6-8.1,23.4-12c0.7-0.3,1.7,0,2.5,0c-0.6,0.7-1.1,1.6-1.9,2
			c-7.6,3.8-15.2,7.5-22.7,11.3C4973.3,1836,4972.9,1835.6,4972.5,1835.2z"/>
		<path class="st7" d="M5000.8,1828.9c-2.2,0.8-4,1.5-5.7,2c-0.2,0.1-0.5-0.4-0.8-0.7c1.7-0.9,3.3-1.8,5-2.7
			C4999.5,1827.5,5000,1828.1,5000.8,1828.9z"/>
		<path class="st5" d="M4972.5,1835.2c0.4,0.4,0.9,0.8,1.3,1.2c-1.4,0.6-2.8,1.2-4.2,1.8l-0.2-0.2
			C4970.4,1837.1,4971.4,1836.1,4972.5,1835.2z"/>
		<path class="st5" d="M4940.4,1862.9c0.7-0.2,1.4-0.4,2-0.6c-0.3,0.6-0.7,1.1-1,1.7C4941.1,1863.6,4940.8,1863.3,4940.4,1862.9z"/>
		<path class="st7" d="M4936.6,1860.2c-0.7,0.5-1.5,1.1-2.2,1.6c0-0.2,0-0.5,0.1-0.7c0.7-0.4,1.3-0.7,2-1.1
			C4936.5,1860,4936.6,1860.2,4936.6,1860.2z"/>
		<path class="st7" d="M4938.5,1859.1c-0.6,0.4-1.3,0.7-1.9,1.1c0,0-0.2-0.2-0.2-0.2C4937.1,1859.7,4937.8,1859.4,4938.5,1859.1
			L4938.5,1859.1z"/>
		<path class="st7" d="M4938.5,1859.1c0.4-0.2,0.8-0.5,1.2-0.7c0,0,0.2,0.3,0.3,0.4C4939.4,1858.9,4939,1859,4938.5,1859.1
			C4938.5,1859.1,4938.5,1859.1,4938.5,1859.1z"/>
		<path class="st5" d="M4969.6,1838.2c-0.2,0.1-0.4,0.3-0.6,0.4c0.1-0.2,0.3-0.4,0.4-0.6C4969.4,1838.1,4969.6,1838.2,4969.6,1838.2
			z"/>
		<polygon class="st5" points="4943.9,1861.8 4943.7,1861.5 4944.1,1861.5 		"/>
		<path class="st6" d="M4934.5,1861.1c-0.1,0.2-0.1,0.5-0.1,0.7c-0.3,0.2-0.6,0.2-1,0.2c0,0,0.1,0.1,0.1,0.1
			C4933.8,1861.8,4934.2,1861.5,4934.5,1861.1z"/>
		<path class="st5" d="M5949,1798.2c16.6,0,33.3-1,49.8,0.2c24.6,1.7,49.1,4.6,73.5,7.7c37.9,4.8,75,13.4,111.1,26
			c28,9.8,55,22,78.7,40.2c14.5,11.1,27,24.1,33.4,41.9c6.6,18.3,3.4,35.4-6.6,51.3c-11.6,18.5-28.7,31.2-47.1,42
			c-35,20.6-73.1,33.2-112.5,42c-23.5,5.2-47.4,8.9-71.3,12.3c-17.5,2.5-35.2,4.2-52.8,5c-27,1.3-54.1,2.1-81.2,1.9
			c-18.8-0.2-37.7-1.9-56.5-3.8c-21-2.1-42.1-4.6-62.9-8.1c-32.9-5.5-65.2-13.6-96.5-25.3c-23.8-8.9-46.6-19.5-67.3-34.3
			c-14.3-10.2-26.9-22.2-35-38.2c-11.8-23.4-6.9-45.5,8.3-65.2c14-18.1,32.7-30.5,52.7-41c36-18.9,74.4-31.1,114.2-38.8
			c23.7-4.6,47.5-8.4,71.4-11.8c13.6-1.9,27.4-2.4,41.1-3.2c18.6-1.1,37.1-1.8,55.7-2.7C5948.9,1797,5948.9,1797.6,5949,1798.2z
			 M5949.8,2021.7c16.1-1.1,35.3-2.3,54.5-3.7c22.7-1.7,45-5.4,67-11.1c29.7-7.6,58.9-16.8,82.9-37.1c10.4-8.8,18.3-19.4,17.7-34.1
			c-0.5-13.1-7.8-22.8-17.1-30.9c-15.6-13.6-34.2-22.1-53.6-28.8c-23.7-8.2-48-14.2-72.9-16.9c-22.9-2.5-45.8-4.5-68.7-5.8
			c-13.6-0.7-27.2,0.3-40.8,0.8c-11.6,0.5-23.3,0.4-34.7,2.2c-23.3,3.7-46.7,7.5-69.6,13.1c-27,6.7-53.1,16.4-74.7,35
			c-10.2,8.7-18,19.3-17.5,33.7c0.4,13.4,7.8,23.2,17.3,31.4c15.7,13.6,34.2,22,53.7,28.7c32.9,11.5,66.9,17.3,101.4,20.6
			C5911.8,2020.5,5929.3,2020.7,5949.8,2021.7z"/>
		<path class="st6" d="M6916.2,1847.8c-0.6,0.4-1,0.8-1.4,0.8c-0.3,0-0.5-0.5-0.8-0.8c0.3-0.2,0.7-0.6,1-0.7
			C6915.3,1847.2,6915.7,1847.5,6916.2,1847.8z"/>
		<path class="st6" d="M4987.4,1848.1c-0.7,0.3-1.1,0.6-1.4,0.5c-0.4-0.1-0.6-0.6-1-0.9c0.4-0.2,0.7-0.5,1.1-0.5
			C4986.5,1847.3,4986.8,1847.7,4987.4,1848.1z"/>
		<path class="st6" d="M5949.8,2021.7c-20.6-1-38-1.2-55.3-2.9c-34.5-3.3-68.5-9.2-101.4-20.6c-19.4-6.8-38-15.1-53.7-28.7
			c-9.4-8.2-16.9-18-17.3-31.4c-0.4-14.4,7.4-24.9,17.5-33.7c21.6-18.6,47.7-28.3,74.7-35c22.9-5.7,46.3-9.4,69.6-13.1
			c11.4-1.8,23.1-1.8,34.7-2.2c13.6-0.5,27.3-1.6,40.8-0.8c22.9,1.2,45.9,3.3,68.7,5.8c24.9,2.7,49.2,8.7,72.9,16.9
			c19.4,6.7,38,15.2,53.6,28.8c9.3,8.1,16.6,17.8,17.1,30.9c0.5,14.7-7.3,25.3-17.7,34.1c-24,20.3-53.1,29.5-82.9,37.1
			c-22,5.6-44.3,9.4-67,11.1C5985.1,2019.4,5965.9,2020.6,5949.8,2021.7z"/>
	</g>
</g>
<rect x="6715" y="2003.8" class="st4" width="91.1" height="30"/>
<rect x="6761.9" y="1795.8" class="st4" width="216.6" height="190.5"/>
<rect x="4917" y="1821.4" class="st4" width="216.6" height="190.5"/>
<rect x="5084.4" y="1975" class="st4" width="79.1" height="71.8"/>
<rect x="5301.3" y="2148.8" class="st4" width="53.1" height="11.2"/>
<rect x="5306.5" y="1794.7" class="st4" width="8.1" height="10.8"/>
<rect x="6588.9" y="1794.4" class="st4" width="10.8" height="12.5"/>
<ellipse class="st4" cx="5721" cy="1697.9" rx="19.7" ry="10.7"/>
<g>
	<g>
		<path class="st8" d="M6905.1,931.6c1.1,0.4,2.2,0.6,3.2,1.2c37.6,22.8,77.7,40,119.4,53.8c38.3,12.7,77.4,22.4,116.5,31.7
			c32.5,7.8,65.2,15.6,98.2,21.1c42.8,7.1,85.9,12.6,129.1,17.7c37.2,4.4,74.5,8.4,111.9,10.6c36.1,2.2,72.3,2.4,108.4,2.4
			c27.5,0,55-1.7,82.5-2.7c2.5-0.1,4.2,0.1,5.5,2.9c15.8,35.1,37.6,66.7,59.3,98.2c14.7,21.3,28.6,43.1,43.1,64.5
			c22.4,33.4,48.1,64.2,74.1,94.8c23.3,27.4,47.1,54.4,73.1,79.3c44.7,42.7,91.3,83.2,144.6,114.8c32.5,19.3,66.1,36.6,99.3,54.7
			c3.4,1.9,7.2,3.1,12.2,5.1c-4.8,1.5-8.4,2.7-11.9,3.7c-73.2,20.7-146.4,41.4-219.7,62c-17.9,5-35.7,10-53.6,15.2
			c-38,10.9-75.9,22.2-114,32.9c-35.3,10-70.6,19.5-106,29.1c-75.5,20.6-151,41.1-226.5,61.6c-31.4,8.5-62.7,17-94,25.7
			c-4.9,1.4-8.8,0.7-13.1-2c-29.5-18.6-54.8-42.3-80-66.1c-34.6-32.7-63.6-70.3-92.8-107.7c-19.8-25.2-37.9-51.6-53.8-79.4
			c-0.7-1.3-1.8-2.4-2.6-3.6c-1.7-3.2-3.3-6.5-5.1-9.6c-14.5-25.6-29.6-51-43.5-76.9c-8.6-16-16-32.7-23.3-49.4
			c-11.9-27.3-23.6-54.7-34.8-82.2c-8.3-20.2-16-40.6-23.4-61.2c-7.4-20.4-14.8-40.8-21.1-61.5c-9.9-32.7-19-65.7-28.3-98.6
			c-4.4-15.6-9.2-31.1-12.7-46.9c-4.4-19.8-7.7-39.8-11.3-59.8C6909.6,982.2,6905.8,957,6905.1,931.6z"/>
		<path class="st9" d="M6905.1,931.6c0.7,25.5,4.4,50.6,8.9,75.6c3.5,20,6.9,40,11.3,59.8c3.5,15.8,8.3,31.3,12.7,46.9
			c9.3,32.9,18.4,65.9,28.3,98.6c6.3,20.7,13.7,41.1,21.1,61.5c7.5,20.5,15.2,41,23.4,61.2c11.3,27.6,22.9,55,34.8,82.2
			c7.3,16.7,14.7,33.4,23.3,49.4c14,25.9,29,51.3,43.5,76.9c1.8,3.1,3.4,6.4,5.1,9.6c-11,1.2-22,2.6-33.1,3.7
			c-27.5,2.9-55,5.8-82.5,8.6c-24.1,2.5-48.1,4.9-72.2,7.4c-27.7,2.8-55.4,5.7-83.1,8.6c-26.9,2.8-53.7,5.5-80.6,8.3
			c-34.3,3.5-68.5,7.1-102.8,10.7c-26.9,2.8-53.7,5.6-80.6,8.2c-24.9,2.4-49.8,4.7-74.7,6.9c-4,0.4-8.1,0-11.8,0
			c10.1-5.2,20.5-10.5,30.9-15.9c34.4-17.9,64.5-41.7,93.6-67c39.8-34.6,73.1-74.5,101.5-118.6c20.5-31.9,40.9-64,57.2-98.4
			c20.4-43,39.2-86.7,55.2-131.5c10.6-29.7,21.4-59.3,30.4-89.4c8.6-28.9,15.3-58.3,22.4-87.6c5.7-23.5,10.6-47.2,15.9-70.8
			C6903.5,934.7,6904.4,933.2,6905.1,931.6z"/>
	</g>
</g>
<g>
	<g>
		<path class="st9" d="M5490,982.7c0.2-1.1,0.5-2.2,0.7-3.3c0.4,0,0.8-0.1,1.2-0.1c1.5,7.3,2.9,14.6,4.6,21.8
			c6.2,26.4,12.3,52.8,18.7,79.2c6.3,26.4,12.2,52.9,19.5,79c14.1,50.4,29.3,100.6,48.5,149.3c11.7,29.8,24,59.4,37.3,88.6
			c17.9,39.4,41.1,75.7,68.7,109c5,6,10.2,11.9,15.7,18.3c-4.8,0-9.3,0.3-13.6,0c-39.6-2.7-79.3-5.6-118.9-8.4
			c-39.6-2.8-79.3-5.6-118.9-8.4c-35.1-2.5-70.2-5-105.3-7.3c-5.1-0.3-8.9-2-11.4-6.7c-4.4-8-9-15.8-13.5-23.6
			c0.2-0.7,0.3-1.4,0.6-2c9.6-18.6,20-36.9,28.7-56c14.9-32.6,29.5-65.3,42.9-98.5c15.2-37.6,30.3-75.3,43.2-113.7
			c13.1-39,24.5-78.7,34.7-118.6c7.3-28.5,11.6-57.7,16.9-86.6C5490.9,990.8,5490.1,986.7,5490,982.7z"/>
		<path class="st8" d="M5490,982.7c0.1,4,0.9,8.1,0.1,12c-5.4,28.9-9.6,58.2-16.9,86.6c-10.2,39.9-21.6,79.6-34.7,118.6
			c-12.9,38.4-27.9,76.1-43.2,113.7c-13.5,33.2-28,66-42.9,98.5c-8.7,19.1-19.1,37.4-28.7,56c-0.3,0.6-0.4,1.3-0.6,2
			c-6,8.6-11.7,17.3-18,25.7c-12.1,16.3-24.5,32.4-36.7,48.6c-2.9,3.8-5.8,4.7-10.7,3.6c-55.4-12.2-110.9-24.1-166.9-36.2
			c0.9-1.2,1.5-2.2,2.3-2.9c25.6-22.5,46.5-49,66.1-76.7c27.1-38.3,50.5-78.7,68.2-122.3c5.5-13.6,10.7-27.4,15.6-41.3
			c1.7-4.7,4.3-8.1,8.5-10.8c25.7-16.5,49.8-35.2,72.2-55.9c26.6-24.4,52.1-50,74.1-78.8c18.1-23.6,37-46.8,53.4-71.6
			C5465.6,1029.7,5477.1,1005.8,5490,982.7z"/>
	</g>
</g>
<g>
	<g>
		<path class="st8" d="M4755.3,1581.4c-2.5,2.4-5.2,4.6-7.4,7.2c-18.1,20.8-35.9,42-54.4,62.4c-13,14.4-27,28-40.7,41.7
			c-1.5,1.5-4.4,2.5-6.6,2.4c-30.5-2.4-61-5-91.5-7.6c-20.3-1.7-40.7-3.5-61-5.3c-40.5-3.6-81-7.3-121.5-10.9
			c-35.8-3.2-71.7-6.2-107.5-9.4c-39.2-3.5-78.3-7.1-117.5-10.6c-24.2-2.2-48.3-4.2-72.5-6.3c-31.2-2.7-62.3-5.5-93.5-8.3
			c-0.9-0.1-1.8-0.5-3.6-2c1-0.6,2.1-1,3-1.7c52.2-36.2,99.1-78.6,143.9-123.4c25.6-25.6,51.1-51.4,72.7-80.4
			c26.9-36.1,52.7-73,74.7-112.4c20.1-35.9,37-73.2,51.6-111.5c1.2-3.2,3-3.8,5.9-3.8c42.6-0.5,85.1-3.4,126.8-12.4
			c39.7-8.6,79.1-19.1,118.1-30.3c53.6-15.3,105.3-36.2,156.5-58.4c58.4-25.2,115.2-53.1,169-87c28.9-18.2,57.5-36.8,85.5-56.3
			c15.7-11,29.9-24.2,44.7-36.5c0.5-0.4,1-0.8,2.5-2c0,3.1,0,5.4,0,7.6c-0.6,0.6-1.7,1.2-1.8,1.9c-1.8,9.7-3.2,19.4-5.1,29
			c-6.6,33.5-12.3,67.1-20.1,100.3c-8.1,34.2-18,68-27.7,101.8c-6.2,21.7-12.5,43.3-20.3,64.5c-10.8,29.4-22.5,58.6-34.7,87.5
			c-9.5,22.5-19.3,44.9-30.7,66.4c-11.5,21.7-24.6,42.5-37.8,63.1c-15.1,23.6-30.8,46.9-46.8,69.9c-11.9,17.1-24.7,33.6-37.1,50.4
			C4765.3,1567.8,4760.3,1574.6,4755.3,1581.4z M4660.3,1678.9c-0.1-0.2-0.2-0.6-0.4-0.6c-0.3,0-0.5,0.2-0.8,0.3
			c0.2,0.3,0.3,0.6,0.5,0.9C4659.8,1679.3,4660.1,1679.1,4660.3,1678.9z"/>
		<path class="st9" d="M4755.3,1581.4c5-6.8,10.1-13.6,15.1-20.4c12.4-16.8,25.2-33.2,37.1-50.4c16-23,31.7-46.3,46.8-69.9
			c13.2-20.7,26.3-41.5,37.8-63.1c11.4-21.5,21.3-43.9,30.7-66.4c12.2-28.9,23.9-58,34.7-87.5c7.8-21.1,14.1-42.8,20.3-64.5
			c9.7-33.8,19.6-67.6,27.7-101.8c7.9-33.2,13.6-66.8,20.1-100.3c1.9-9.6,3.3-19.3,5.1-29c0.1-0.7,1.2-1.3,1.8-1.9
			c1.3,8.7,3,17.4,3.9,26.1c5.9,55.1,13.8,109.8,25.7,164c10.4,47.8,21.9,95.2,37.9,141.5c15.4,44.5,32.5,88.3,55.6,129.5
			c28.7,51.2,60.5,100.4,99.8,144.3c10.5,11.8,23.3,21.6,35.5,31.7c13.5,11.2,27.6,21.7,42.2,33.1c-4.5-0.2-8.4-0.5-12.2-0.5
			c-23.9-0.5-47.9-0.8-71.8-1.4c-28.8-0.6-57.6-1.4-86.3-2.1c-25.1-0.6-50.2-1.3-75.3-1.9c-27.4-0.7-54.9-1.4-82.3-2.1
			c-25.8-0.7-51.5-1.3-77.3-2c-26.4-0.7-52.9-1.4-79.3-2c-26.6-0.7-53.2-1.3-79.8-2C4764.3,1582.2,4759.8,1581.7,4755.3,1581.4z"/>
		<path class="st9" d="M4660.3,1678.9c-0.2,0.2-0.4,0.4-0.6,0.6c-0.2-0.3-0.3-0.6-0.5-0.9c0.3-0.1,0.5-0.3,0.8-0.3
			C4660,1678.3,4660.1,1678.7,4660.3,1678.9z"/>
	</g>
</g>
<g>
	<g>
		<path class="st1" d="M4144.7,1631.5c0,9.1,0,18.3,0,28c-9.4,0-18.7,0-27.9,0c0-23.3,0-46.6,0-70c4.5,0,8.9,0,13.8,0
			c0,14,0,27.7,0,42C4135.6,1631.6,4140.2,1631.6,4144.7,1631.5L4144.7,1631.5z"/>
		<path class="st1" d="M7507,1757.5c0,9.3,0,18.7,0,28c-9.3,0-18.7,0-28,0c0-14,0-28,0-42c0,0-0.1,0.1-0.1,0.1c4.5,0,8.9,0,13.9,0
			c0,4.5,0,8.9,0,14C7498,1757.6,7502.5,1757.6,7507,1757.5L7507,1757.5z"/>
		<path class="st1" d="M6769.4,1513.6c0,9.1,0,18.2,0,27.7c-4.6,0-9,0-14,0c0-9.2,0-18.4,0-27.7
			C6760.1,1513.6,6764.8,1513.6,6769.4,1513.6z"/>
		<path class="st1" d="M7763,1688.5c-4.7,0-9.3,0-14,0c0,0,0.1,0.1,0.1,0.1c0-4.5,0-8.9,0-14.1c4.7,0,9.3,0,13.9,0
			C7763,1679.2,7763,1683.9,7763,1688.5z"/>
		<path class="st1" d="M4384.5,1651.5c0,9.1,0,18.3,0,27.7c-13.9,0-27.6,0-41.9,0c0-9.2,0-18.4,0-27.7c0,0-0.1,0.1-0.1,0.1
			c4.5,0,8.9,0,13.8,0c0-23.3,0-46.3,0-69.7c4.8,0,9.2,0,14,0c0,23,0,46,0,69.7C4375.4,1651.6,4380,1651.6,4384.5,1651.5
			C4384.6,1651.6,4384.5,1651.5,4384.5,1651.5z"/>
		<path class="st1" d="M6756.4,1569.7c4.5,0,8.9,0,13.9,0c0-9.3,0-18.4,0-27.7c4.8,0,9.2,0,14.1,0c0,9,0,18,0,27.7c5,0,9.6,0,14.2,0
			l-0.1-0.1c0,9.1,0,18.3,0,27.7c-13.9,0-27.6,0-41.9,0C6756.5,1588.1,6756.5,1578.8,6756.4,1569.7
			C6756.5,1569.6,6756.4,1569.7,6756.4,1569.7z"/>
		<path class="st1" d="M7706.9,1702.6c4.5,0,8.9,0,13.8,0c0-14,0-27.7,0-41.7c4.8,0,9.2,0,14.1,0c0,9,0,18,0,27.7c5,0,9.6,0,14.2,0
			c0,0-0.1-0.1-0.1-0.1c0,9.1,0,18.2,0,27.7c-13.9,0-27.6,0-41.9,0C7707,1711.7,7707,1707.1,7706.9,1702.6L7706.9,1702.6z"/>
		<path class="st1" d="M4398.5,1623.5c0,9.2,0,18.4,0,28c-4.9,0-9.5,0-14,0c0,0,0.1,0.1,0.1,0.1c0-9.1,0-18.3,0-28
			C4389.4,1623.6,4394,1623.6,4398.5,1623.5L4398.5,1623.5z"/>
		<path class="st1" d="M7465.1,1715.6c4.4,0,8.9,0,14,0c0,9.4,0,18.7,0,28c0,0,0.1-0.1,0.1-0.1c-4.5,0-8.9,0-14,0
			C7465.2,1734,7465.2,1724.7,7465.1,1715.6L7465.1,1715.6z"/>
		<path class="st1" d="M7507.1,1757.6c0-9.1,0-18.2,0-27.7c4.5,0,8.9,0,13.6,0c0,9,0,18,0,27.6
			C7516.2,1757.5,7511.6,1757.5,7507.1,1757.6C7507,1757.5,7507.1,1757.6,7507.1,1757.6z"/>
		<path class="st1" d="M6742.5,1555.5c-4.5,0-8.9,0-13.7,0c0-4.5,0-8.9,0-13.6c4.3,0,8.7,0,13.6,0
			C6742.4,1546.5,6742.4,1551.1,6742.5,1555.5L6742.5,1555.5z"/>
		<path class="st1" d="M6742.4,1555.6c4.4,0,8.8,0,14,0c0,4.7,0,9.4,0,14c0,0,0.1-0.1,0.1-0.1c-4.5,0-8.9,0-14,0
			C6742.5,1564.7,6742.5,1560.1,6742.4,1555.6C6742.5,1555.5,6742.4,1555.6,6742.4,1555.6z"/>
		<path class="st1" d="M6798.5,1569.6c0-4.5,0-8.9,0-13.7c4.6,0,8.9,0,13.6,0c0,4.3,0,8.7,0,13.6
			C6807.5,1569.6,6803,1569.6,6798.5,1569.6C6798.4,1569.6,6798.5,1569.6,6798.5,1569.6z"/>
		<path class="st1" d="M4398.6,1623.6c0-4.5,0-8.9,0-13.7c4.6,0,8.9,0,13.6,0c0,4.3,0,8.7,0,13.6
			C4407.7,1623.5,4403.1,1623.5,4398.6,1623.6C4398.5,1623.5,4398.6,1623.6,4398.6,1623.6z"/>
		<path class="st1" d="M4144.8,1631.6c0-4.5,0-8.9,0-13.7c4.6,0,8.9,0,13.6,0c0,4.3,0,8.7,0,13.6
			C4153.8,1631.5,4149.2,1631.5,4144.8,1631.6C4144.7,1631.5,4144.8,1631.6,4144.8,1631.6z"/>
		<path class="st1" d="M4328.7,1637.5c-4.5,0-8.9,0-13.7,0c0-4.6,0-8.9,0-13.6c4.3,0,8.7,0,13.6,0
			C4328.6,1628.4,4328.6,1633,4328.7,1637.5L4328.7,1637.5z"/>
		<path class="st1" d="M4328.6,1637.6c4.4,0,8.8,0,14,0c0,4.7,0,9.4,0,14c0,0,0.1-0.1,0.1-0.1c-4.5,0-8.9,0-14,0
			C4328.7,1646.7,4328.7,1642.1,4328.6,1637.6C4328.7,1637.5,4328.6,1637.6,4328.6,1637.6z"/>
		<path class="st1" d="M7707,1702.5c-4.5,0-8.9,0-13.7,0c0-4.6,0-8.9,0-13.6c4.3,0,8.7,0,13.6,0
			C7706.9,1693.4,7706.9,1698,7707,1702.5C7706.9,1702.6,7707,1702.5,7707,1702.5z"/>
		<path class="st1" d="M7465.2,1715.5c-4.5,0-8.9,0-13.7,0c0-4.6,0-8.9,0-13.6c4.3,0,8.7,0,13.6,0
			C7465.1,1706.4,7465.1,1711,7465.2,1715.5C7465.1,1715.6,7465.2,1715.5,7465.2,1715.5z"/>
	</g>
</g>
<g>
	<g>
		<g>
			<path class="st1" d="M11725.1,732.5c-6.2,0-12.4,0-18.6,0c0,6,0,12.1,0,19c-6.9,0-12.6,0-19.1,0c0,12.8,0,24.6,0,37
				c-6.4,0-11.8,0-18.2,0c0,12.4,0,24.3,0,37c-6.6,0-12.3,0-18.8,0c0,6.6,0,12.3,0,18.8c-6.6,0-12.3,0-17.8,0c0,6.3,0,11.8,0,18.1
				c12.3,0,24.2,0,36.2,0c0,6.6,0,12.3,0,18.8c-6.2,0-11.9,0-18.5,0c0,6.6,0,12.3,0,18.8c-6.6,0-12.3,0-18.5,0c0,6.4,0,11.8,0,18.1
				c-6.2,0-11.9,0-18.5,0c0,6.6,0,12.3,0,18.8c-6.6,0-12.2,0-17.6,0c0,12.8,0,24.6,0,36.3c6.2,0,11.6,0,18,0c0-6.1,0-11.8,0-17.6
				c6.6,0,12.3,0,18.8,0c0,6.2,0,11.9,0,18.5c6.6,0,12.3,0,17.5,0c0,6.6,0,12.3,0,18.5c-6.2,0-11.7,0-18,0c0,6.2,0,11.9,0,18.5
				c-6.6,0-12.3,0-18.8,0c0,6.6,0,12.3,0,18.8c-6.6,0-12.3,0-18.5,0c0,6.3,0,11.8,0,18.1c-6.2,0-11.9,0-18.5,0c0,6.6,0,12.3,0,18.5
				c-6.7,0-12.5,0-18.4,0c0,6.2,0,12.4,0,18.6c12.2,0,24.5,0,37.6,0c0-6.9,0-12.6,0-17.9c6.6,0,12.3,0,18.5,0c0,6.2,0,11.6,0,18
				c6.2,0,11.9,0,17.7,0c0,6.6,0,12.2,0,18.8c-6.2,0-11.9,0-18.5,0c0,6.6,0,12.3,0,18.8c-6.6,0-12.3,0-18.5,0c0,6.3,0,11.8,0,18.1
				c-6.2,0-11.9,0-18.5,0c0,6.6,0,12.3,0,18.4c-6.7,0-12.5,0-18.4,0c0,12.4,0,24.8,0,37.1c6.2,0,12.5,0.1,18.7,0.1
				c0-6,0-12.1,0-18.1c6.6,0,12.3,0,17.9,0c0,6.3,0,11.9,0,17.9c-6.5,0-12.3,0-18.1,0c0,6.1,0,12.1,0,18.7c-6.8,0-12.6,0-18.4,0
				c-11.3,52.2,8.7,66.2,61.4,62.7c84.5-5.5,169.6-1.5,254.4-1.5c0-7.9,0-15.8,0-24.6c-6.9,0-12.6,0-19.1,0c0-12.8,0-24.6,0-37
				c-6.4,0-11.8,0-18.2,0c0-6.2,0-11.9,0-18.5c-6.6,0-12.3,0-17.8,0c0-6.6,0-12.3,0-18.8c6.3,0,12,0,17.5,0c0-6.3,0-11.8,0-18.1
				c-6.1,0-11.8,0-18.3,0c0-12.7,0-24.6,0-37.4c-6.6,0-12.3,0-18.3,0c0-6.7,0-12.5,0-18.4c-6.1,0-12.1,0-18.1,0c0-6.6,0-12.3,0-17.8
				c6.3,0,12,0,17.9,0c0,6.4,0,12.3,0,18.1c12.2,0,24.5,0,36.7,0c0-13.2,0-25,0-37.8c-6.3,0-12,0-18.5,0c0-12.7,0-24.6,0-37
				c-6.4,0-11.8,0-17.5,0c0-6.2,0-11.9,0-18.5c6.2,0,11.9,0,17.5,0c0-6.6,0-12.3,0-18.8c-6.3,0-12,0-18.2,0c0-6.3,0-11.8,0-18.1
				c-6.2,0-11.9,0-18.5,0c0-6.6,0-12.3,0-18.8c-6.6,0-12.3,0-18.3,0c0-6.7,0-12.5,0-18.4c-6.1,0-12.1,0-18.1,0c0-6.6,0-12.3,0-17.8
				c6.3,0,12,0,17.9,0c0,6.4,0,12.3,0,18.1c12.2,0,24.5,0,36.7,0c0-13.1,0-25,0-37.7c-6.3,0-12,0-18.5,0c0-6.6,0-12.2,0-18.4
				c-6.3,0-11.8,0-18.1,0c0-18.6,0-36.6,0-55.5c-6.5,0-12.2,0-18.7,0c0-18.9,0-37,0-55.9c-6.5,0-12.2,0-18.4,0
				C11725.1,756.5,11725.1,744.5,11725.1,732.5z M11780.7,1048.3c6,0,12.1,0,18.1,0c0,6.6,0,12.2,0,17.8c-6.3,0-11.9,0-17.9,0
				c0-6.4,0-12.2,0-18.1c-6.1,0-12.1,0-18.1,0c0-6.6,0-12.3,0-17.8c6.3,0,12,0,17.9,0C11780.7,1036.6,11780.7,1042.5,11780.7,1048.3
				z"/>
		</g>
	</g>
</g>
<g>
	<g>
		<g>
			<path class="st1" d="M11394.1,386.7c-6.9,0-13.7,0-20.6,0c0,13.6,0,27.2,0,41.8c-7.6,0-13.9,0-21.2,0c0,7.3,0,13.6,0,20.5
				c-7,0-13.1,0-20.1,0c0,13.8,0,27,0,41.2c-7.3,0-13.6,0-20.9,0c0,7.3,0,13.6,0,20.9c-7.3,0-13.6,0-20.9,0c0,7.3,0,13.6,0,20.5
				c-7,0-13.1,0-20.1,0c0,6.9,0,13.3,0,20.6c-7.3,0-13.6,0-19.9,0c0,14.2,0,27.4,0,41.2c7.1,0,13.6,0,20.1,0c0-6.7,0-13.5,0-20.2
				c7.4,0,13.7,0,19.8,0c0,7,0,13.3,0,19.9c-7.2,0-13.6,0-20.1,0c0,20.5,0,41,0,62.5c-7.3,0-13.7,0-20.9,0c0,7.3,0,13.6,0,20.9
				c-7.3,0-13.6,0-20.5,0c0,7.1,0,13.2,0,20.2c-6.9,0-13.2,0-19.6,0c0,14.2,0,27.4,0,40.5c7,0,13.3,0,20.5,0c0-7,0-13.4,0-19.5
				c7.1,0,13.1,0,20.2,0c0,6.8,0,13.1,0,20.4c7.3,0,13.6,0,19.9,0c0,7.3,0,13.6,0,20.9c-7,0-13.3,0-20.5,0c0,14.2,0,27.4,0,41.2
				c-7.1,0-13.1,0-20.2,0c0,6.9,0,13.3,0,20.6c-7.3,0-13.6,0-20.9,0c0,7.3,0,13.6,0,20.9c-7.3,0-13.6,0-20.5,0c0,14,0,26.9,0,40.8
				c-6.9,0-13.3,0-19.7,0c0,7.3,0,13.6,0,20.9c6.9,0,13.2,0,19.3,0c0,21.1,0,41.2,0,62.2c-7,0-13.4,0-20.3,0c0,7.1,0,13.1,0,20.2
				c-6.9,0-13.2,0-20.5,0c0,7.3,0,13.6,0,20.5c-7.4,0-13.9,0-20.4,0c0,13.8,0,27.5,0,41.3c6.7,0,13.4,0,21.1,0c0,7.7,0,14,0,21.3
				c7.3,0,13.6,0,19.7,0c0,7.1,0,13.1,0,20.2c-6.8,0-13.1,0-20.4,0c0,7.3,0,13.6,0,20.5c-7.4,0-13.9,0-20.4,0
				c0,53.4-0.1,106.7,0.3,160.1c0,2.4,4.5,6.9,6.9,6.9c146.4,0.3,292.8,0.4,439.2-0.6c2.5,0,4.8-14.2,7.2-21.8c-6.7,0-13.4,0-21.1,0
				c0-21.5,0-41.6,0-62.3c-7.1,0-13.2,0-19.6,0c0-6.9,0-13.3,0-20.6c6.8,0,13.2,0,19.4,0c0-14.2,0-27.4,0-41.6c-7,0-13.3,0-20.2,0
				c0-7.1,0-13.2,0-20.2c-6.9,0-13.2,0-20.5,0c0-14.2,0-27.4,0-41.6c-7.3,0-13.6,0-19.6,0c0-14.2,0-27.4,0-40.4c6.8,0,12.9,0,20,0
				c0,6.8,0,13.1,0,19.5c14.2,0,27.4,0,40.4,0c0-13.9,0-27.1,0-41.3c-7,0-13.4,0-20.3,0c0-7.1,0-13.2,0-20.2c-6.9,0-13.3,0-20.5,0
				c0-7.3,0-13.7,0-21c-7.3,0-13.6,0-20.9,0c0-28,0-55,0-82.6c-7.1,0-13.2,0-20.2,0c0-6.9,0-13.3,0-20.6c-7.3,0-13.6,0-20.3,0
				c0-14.4,0-27.7,0-41.1c-6.7,0-13.4,0-20.1,0c0-7.4,0-13.7,0-19.9c7,0,13.3,0,19.8,0c0,7.2,0,13.7,0,20.2c13.6,0,27.2,0,40.7,0
				c0-14.7,0-27.9,0-42.1c-7,0-13.3,0-20.3,0c0-7.1,0-13.1,0-20.2c-6.9,0-13.2,0-20.5,0c0-14.2,0-27.4,0-41.6c-7.3,0-13.6,0-19.7,0
				c0-14.2,0-27.4,0-40.5c6.8,0,12.9,0,19.9,0c0,6.8,0,13.1,0,20.4c7.3,0,13.6,0,20.9,0c0,7.3,0,13.6,0,19.7c7.3,0,13.6,0,19.5,0
				c0-14,0-27.2,0-41c-6.9,0-13,0-19.2,0c0-7,0-13.3,0-20.6c6.9,0,13.2,0,19.3,0c0-7.3,0-13.7,0-20.6c-6.8,0-12.9,0-19.9,0
				c0-13.8,0-27.1,0-41.2c-7.3,0-13.6,0-20.9,0c0-7.3,0-13.6,0-21c-7.3,0-13.6,0-20.9,0c0-21.1,0-41.2,0-61.9c-7.1,0-13.1,0-20.2,0
				c0-13.8,0-27.1,0-41.2c-7.3,0-13.6,0-20.5,0C11394.1,441,11394.1,413.9,11394.1,386.7z"/>
		</g>
	</g>
</g>
<g>
	<g>
		<g>
			<path class="st1" d="M229.2,630c0,5.2,0,10.4,0,16.4c5.4,0,10.5,0,16.3,0c0,5.8,0,10.9,0,16.5c5.6,0,10.5,0,16.1,0
				c0,5.5,0,10.6,0,16.4c5.8,0,10.9,0,16.5,0c0,11.3,0,21.9,0,33c-5,0-10.1,0-15.9,0c0-5.2,0-10.2,0-15.7c-5.6,0-10.5,0-16,0
				c0,10.4,0,21,0,32.3c4.8,0,9.9,0,15.8,0c0,11.7,0,22.6,0,33.5l0.2-0.2c-5.4,0-10.8,0-16.1,0c0,6.1,0,11.2,0,16.7
				c5.7,0,10.9,0,16.1,0l-0.2-0.2c0,5.4,0,10.8,0,16.1c6.1,0,11.2,0,16.7,0c0-5.7,0-10.9,0-16.1l-0.2,0.2c5.2,0,10.4,0,16.1,0
				c0,16.4,0,32.5,0,49.4c-5.1,0-10.1,0-15.6,0c0,5.6,0,10.5,0,16.2c10.3,0,20.9,0,32.2,0c0,5.8,0,10.9,0,16.7c5.8,0,10.9,0,16.8,0
				c0,5.8,0,10.9,0,16.8c5.8,0,10.9,0,16.5,0c0,11.1,0,21.5,0,32.7c5.5,0,10.6,0,16.2,0c0,11.3,0,21.9,0,33.6c-5.3,0-10.7,0-16.1,0
				c0-5.3,0-10.6,0-16.5c-5.9,0-11.2,0-16.5,0c0-5.5,0-11,0-16.6c-6.3,0-11.4,0-16.5,0c0-5.4,0-10.8,0-16.1c-5.9,0-11,0-15.9,0
				c0,5.6,0,10.6,0,15.9c5.7,0,10.9,0,16.1,0c0,5.4,0,10.8,0,16.6c6.1,0,11.3,0,16.5,0c0,5.4,0,10.8,0,16.5c6.1,0,11.3,0,16.5,0
				c0,16.2,0,32.4,0,49.4c5.5,0,10.6,0,16.4,0c0,5.8,0,10.9,0,16.5c5.6,0,10.5,0,16.2,0c0,11,0,21.6,0,32.8c5.8,0,10.9,0,16.7,0
				c0-5,0-10.1,0-15.9c5.8,0,10.9,0,16.5,0c0-11.2,0-21.5,0-32.7c5.5,0,10.6,0,16.5,0c0-5.8,0-10.9,0-16.8c5.8,0,10.9,0,16.4,0
				c0-11.2,0-21.5,0-32.7c-10.3,0-20.9,0-32,0c0-11.4,0-21.9,0-33.3c4.9,0,10,0,15.8,0c0-5.8,0-10.9,0-16.5c5.6,0,10.5,0,16.2,0
				c0-5.5,0-10.6,0-16.5c5.8,0,10.9,0,16.9,0c0-11.7,0-22.6,0-33.5c5.4,0,10.7,0,16.1,0c0-5.9,0-11,0-15.9c-5.6,0-10.6,0-15.9,0
				c0,5.7,0,10.9,0,16.1c-5.2,0-10.4,0-16.1,0c0-22.1,0-43.7,0-66.1c5.1,0,10.2,0,15.7,0c0-5.6,0-10.5,0-16.2c5.5,0,10.6,0,16.5,0
				c0-11.3,0-21.9,0-33.3c5.8,0,10.9,0,16.7,0c0-22.4,0-44,0-66c5.6,0,10.5,0,16.2,0c0,4.9,0,10,0,15.8c5.8,0,10.9,0,16.8,0
				c0,16.9,0,33,0,49.8c5.8,0,10.9,0,16.5,0c0,5.6,0,10.5,0,16.2c5.5,0,10.6,0,16.5,0c0,11.3,0,21.9,0,33.3c5.8,0,10.9,0,16.7,0
				c0,5.8,0,10.9,0,16.5c5.6,0,10.5,0,16,0c0,11,0,21.6,0,33c-4.8,0-9.9,0-15.4,0c0,5.9,0,10.9,0,16.8c5.2,0,10.3,0,15.8,0
				c0,11.2,0,21.5,0,32.7c5.5,0,10.6,0,16.5,0c0,5.8,0,10.9,0,16.8c5.8,0,10.9,0,16.4,0c0,11.2,0,21.5,0,32.7c-10.3,0-20.9,0-32,0
				c0,5.8,0,10.9,0,16.8c4.9,0,9.9,0,15.8,0c0,5.8,0,10.9,0,16.5c5.6,0,10.5,0,16.2,0c0,11,0,21.6,0,33c5.8,0,10.9,0,16.7,0
				c0,5.8,0,10.9,0,16.8c5.8,0,10.9,0,16.4,0c0,11.2,0,21.5,0,32.7c-10.4,0-20.9,0-32.1,0c0,11.4,0,21.9,0,33.3c5,0,10,0,15.9,0
				c0,5.8,0,10.9,0,16.5c5.6,0,10.5,0,16.2,0c0,16.6,0,32.6,0,49.3c5.8,0,10.9,0,16.7,0c0-10.5,0-21.1,0-32.4c5.8,0,10.9,0,16.5,0
				c0-11.2,0-21.5,0-32.5c5.6,0,10.6,0,16.5,0c0,4.8,0,9.9,0,15.7c5.8,0,10.9,0,16.8,0c0,11.3,0,21.9,0,32.9c11.2,0,21.5,0,32.5,0
				c0-5,0-10,0-15.9c-4.8,0-9.9,0-15.5,0c0-11.4,0-21.9,0-33c5,0,9.9,0,15.6,0c0-11,0-21.6,0-33c5.8,0,10.9,0,16.8,0
				c0-16.9,0-33,0-49.5c5.8,0,10.9,0,16.5,0c0,5.1,0,9.9,0,15.6c5.5,0,10.6,0,16.5,0c0,11.3,0,21.9,0,33.3c5.8,0,10.9,0,16.8,0
				c0,11.4,0,21.9,0,33c5.7,0,10.5,0,16,0c0,16.6,0,32.6,0,49.5c-4.8,0-9.8,0-15.4,0c0,5.9,0,10.9,0,16.8c5.1,0,10.2,0,15.8,0
				c0,11.2,0,21.5,0,32.7c5.5,0,10.6,0,16.2,0c0,5.8,0,10.9,0,17c-291.6,0-583.3,0-875,0c0-82.6,0-165.3,0-247.9c5.4,0,10.7,0,16,0
				c0-6.1,0-11.1,0-16.5c-5.7,0-10.8,0-16,0c0-38.6,0-77.1,0-115.7c5.4,0,10.8,0,16.4,0c0-6.2,0-11.4,0-16.6c5.4,0,10.7,0,16.1,0
				c0-5.9,0-11,0-15.9c-5.6,0-10.6,0-15.9,0c0,5.7,0,10.9,0,16.1c-5.5,0-11.1-0.1-16.6-0.1c0-27.5,0-55.1,0-82.6
				c5.2,0,10.3,0,16.2,0c0-5.4,0-10.5,0-16.3c5.8,0,10.8,0,16.7,0c0-6.1,0-11.5,0-16.8c5.4,0,10.7,0,16.1,0c0-5.9,0-11,0-15.9
				c-5.6,0-10.6,0-15.9,0c0,5.7,0,10.9,0,16.1c-5.2,0-10.4,0-16.1,0c0-22,0-43.6,0-65.9c5,0,10,0,15.8,0c0-5.8,0-10.9,0-16.7
				c5.8,0,10.9,0,16.3,0c0-5.6,0-10.5,0-16.1c-4.9,0-9.9,0-15.6,0c0-11.3,0-21.9,0-33.2c10.4,0,20.9,0,32.6,0c0-6.1,0-11.5,0-16.9
				l-0.2,0.2c5.4,0,10.8,0,16.1,0c0-6.1,0-11.2,0-16.7c-5.7,0-10.9,0-16.1,0l0.2,0.2c0-5.2,0-10.4,0-16.4c5.4,0,10.4,0,16.3,0
				c0-5.8,0-10.9,0-16.7c5.8,0,10.9,0,16.5,0c0-11.1,0-21.5,0-32.7c5.5,0,10.6,0,16.4,0c0-11.3,0-21.9,0-33.3c5.8,0,10.9,0,16.7,0
				c0-22.4,0-43.9,0-65.9c5.6,0,10.5,0,16.1,0c0,15.8,0,31.9,0,48.8c5.8,0,10.9,0,16.7,0c0,11.3,0,21.9,0,33.3c5.8,0,10.9,0,16.7,0
				c0,5.8,0,10.9,0,16.4c5.6,0,10.5,0,16.2,0c0,11,0,21.6,0,33c5.8,0,10.9,0,16.7,0c0,5.8,0,10.9,0,16.8c5.8,0,10.9,0,16.4,0
				c0,5.6,0,10.5,0,16.1c5.5,0,10.6,0,16.2,0c0,11.3,0,21.9,0,33.3c-4.9,0-9.9,0-15.5,0c0,5.8,0,10.9,0,16.8c5.2,0,10.2,0,15.8,0
				c0,11.1,0,21.5,0,32.7c11,0,21.6,0,32.7,0c0,11.3,0,21.9,0,33.6c-10.8,0-21.7,0-32.5,0c0-5.4,0-10.8,0-16.1c-5.9,0-11,0-15.9,0
				c0,5.6,0,10.6,0,15.9C218.9,630,224,630,229.2,630z M328.3,1010.1c0,5.4,0,10.8,0,16.1c5.9,0,11,0,15.9,0c0-5.6,0-10.6,0-15.9
				c-5.7,0-10.9,0-16.1,0c0-5.4,0-10.8,0-16.5c-11.6,0-22.3,0-33,0c0-5.4,0-10.8,0-16.1c-5.9,0-11,0-15.9,0c0,5.6,0,10.6,0,15.9
				c5.7,0,10.9,0,16.1,0c0,5.4,0,10.8,0,16.5C306.9,1010.1,317.6,1010.1,328.3,1010.1z M179.9,613.1c5.6,0,10.6,0,15.8,0
				c0-5.5,0-10.5,0-15.7c-5.5,0-10.5,0-15.8,0C179.9,602.7,179.9,607.5,179.9,613.1z"/>
			<path class="st1" d="M262.1,762.4c5.3,0,10.6,0,16.5,0c0,5.9,0,11.2,0,16.5l0.2-0.2c-5.6,0-11.1,0-16.7,0l0.2,0.2
				c0-5.6,0-11.1,0-16.7L262.1,762.4z"/>
			<path class="st1" d="M47.5,530.8c-5.2,0-10.4,0-16.1,0c0-5.3,0-10.4,0-16.4c5.3,0,10.7,0,16.1,0l-0.2-0.2c0,5.6,0,11.1,0,16.7
				L47.5,530.8z"/>
		</g>
	</g>
</g>
<g>
	<g>
		<g>
			<path class="st1" d="M1187.1,754.1c6.2,0,12.4,0,18.6,0c0,6,0,12.1,0,19c6.9,0,12.6,0,19.1,0c0,12.8,0,24.6,0,37
				c6.4,0,11.8,0,18.2,0c0,12.4,0,24.3,0,37c6.6,0,12.3,0,18.8,0c0,6.6,0,12.3,0,18.8c6.6,0,12.3,0,17.8,0c0,6.3,0,11.8,0,18.1
				c-12.3,0-24.2,0-36.2,0c0,6.6,0,12.3,0,18.8c6.2,0,11.9,0,18.5,0c0,6.6,0,12.3,0,18.8c6.6,0,12.3,0,18.5,0c0,6.4,0,11.8,0,18.1
				c6.2,0,11.9,0,18.5,0c0,6.6,0,12.3,0,18.8c6.6,0,12.2,0,17.6,0c0,12.8,0,24.6,0,36.3c-6.2,0-11.6,0-18,0c0-6.1,0-11.8,0-17.6
				c-6.6,0-12.3,0-18.8,0c0,6.2,0,11.9,0,18.5c-6.6,0-12.3,0-17.5,0c0,6.6,0,12.3,0,18.5c6.2,0,11.7,0,18,0c0,6.2,0,11.9,0,18.5
				c6.6,0,12.3,0,18.8,0c0,6.6,0,12.3,0,18.8c6.6,0,12.3,0,18.5,0c0,6.3,0,11.8,0,18.1c6.2,0,11.9,0,18.5,0c0,6.6,0,12.3,0,18.5
				c6.7,0,12.5,0,18.4,0c0,6.2,0,12.4,0,18.6c-12.2,0-24.5,0-37.6,0c0-6.9,0-12.6,0-17.9c-6.6,0-12.3,0-18.5,0c0,6.2,0,11.6,0,18
				c-6.2,0-11.9,0-17.7,0c0,6.6,0,12.2,0,18.8c6.2,0,11.9,0,18.5,0c0,6.6,0,12.3,0,18.8c6.6,0,12.3,0,18.5,0c0,6.3,0,11.8,0,18.1
				c6.2,0,11.9,0,18.5,0c0,6.6,0,12.3,0,18.4c6.7,0,12.5,0,18.4,0c0,12.4,0,24.8,0,37.1c-6.2,0-12.5,0.1-18.7,0.1c0-6,0-12.1,0-18.1
				c-6.6,0-12.3,0-17.9,0c0,6.3,0,11.9,0,17.9c6.5,0,12.3,0,18.1,0c0,6.1,0,12.1,0,18.7c6.8,0,12.6,0,18.4,0
				c11.3,52.2-8.7,66.2-61.4,62.7c-84.5-5.5-169.6-1.5-254.4-1.5c0-7.9,0-15.8,0-24.6c6.9,0,12.6,0,19.1,0c0-12.8,0-24.6,0-37
				c6.4,0,11.8,0,18.2,0c0-6.2,0-11.9,0-18.5c6.6,0,12.3,0,17.8,0c0-6.6,0-12.3,0-18.8c-6.3,0-12,0-17.5,0c0-6.3,0-11.8,0-18.1
				c6.1,0,11.8,0,18.3,0c0-12.7,0-24.6,0-37.4c6.6,0,12.3,0,18.3,0c0-6.7,0-12.5,0-18.4c6.1,0,12.1,0,18.1,0c0-6.6,0-12.3,0-17.8
				c-6.3,0-12,0-17.9,0c0,6.4,0,12.3,0,18.1c-12.2,0-24.5,0-36.7,0c0-13.2,0-25,0-37.8c6.3,0,12,0,18.5,0c0-12.7,0-24.6,0-37
				c6.4,0,11.8,0,17.5,0c0-6.2,0-11.9,0-18.5c-6.2,0-11.9,0-17.5,0c0-6.6,0-12.3,0-18.8c6.3,0,12,0,18.2,0c0-6.3,0-11.8,0-18.1
				c6.2,0,11.9,0,18.5,0c0-6.6,0-12.3,0-18.8c6.6,0,12.3,0,18.3,0c0-6.7,0-12.5,0-18.4c6.1,0,12.1,0,18.1,0c0-6.6,0-12.3,0-17.8
				c-6.3,0-12,0-17.9,0c0,6.4,0,12.3,0,18.1c-12.2,0-24.5,0-36.7,0c0-13.1,0-25,0-37.7c6.3,0,12,0,18.5,0c0-6.6,0-12.2,0-18.4
				c6.3,0,11.8,0,18.1,0c0-18.6,0-36.6,0-55.5c6.5,0,12.2,0,18.7,0c0-18.9,0-37,0-55.9c6.5,0,12.2,0,18.4,0
				C1187.1,778.1,1187.1,766.1,1187.1,754.1z M1131.5,1069.9c-6,0-12.1,0-18.1,0c0,6.6,0,12.2,0,17.8c6.3,0,11.9,0,17.9,0
				c0-6.4,0-12.2,0-18.1c6.1,0,12.1,0,18.1,0c0-6.6,0-12.3,0-17.8c-6.3,0-12,0-17.9,0C1131.5,1058.2,1131.5,1064.1,1131.5,1069.9z"
				/>
		</g>
	</g>
</g>
<g>
	<g>
		<g>
			<path class="st1" d="M10961.9,559.5c6.9,0,13.7,0,20.6,0c0,13.6,0,27.2,0,41.8c7.6,0,13.9,0,21.2,0c0,7.3,0,13.6,0,20.5
				c7,0,13.1,0,20.1,0c0,13.8,0,27,0,41.2c7.3,0,13.6,0,20.9,0c0,7.3,0,13.6,0,20.9c7.3,0,13.6,0,20.9,0c0,7.3,0,13.6,0,20.5
				c7,0,13.1,0,20.1,0c0,6.9,0,13.3,0,20.6c7.3,0,13.6,0,19.9,0c0,14.2,0,27.4,0,41.2c-7.1,0-13.6,0-20.1,0c0-6.7,0-13.5,0-20.2
				c-7.4,0-13.7,0-19.8,0c0,7,0,13.3,0,19.9c7.2,0,13.6,0,20.1,0c0,20.5,0,41,0,62.5c7.3,0,13.7,0,20.9,0c0,7.3,0,13.6,0,20.9
				c7.3,0,13.6,0,20.5,0c0,7.1,0,13.2,0,20.2c6.9,0,13.2,0,19.6,0c0,14.2,0,27.4,0,40.5c-7,0-13.3,0-20.5,0c0-7,0-13.4,0-19.5
				c-7.1,0-13.1,0-20.2,0c0,6.8,0,13.1,0,20.4c-7.3,0-13.6,0-19.9,0c0,7.3,0,13.6,0,20.9c7,0,13.3,0,20.5,0c0,14.2,0,27.4,0,41.2
				c7.1,0,13.1,0,20.2,0c0,6.9,0,13.3,0,20.6c7.3,0,13.6,0,20.9,0c0,7.3,0,13.6,0,20.9c7.3,0,13.6,0,20.5,0c0,14,0,26.9,0,40.8
				c6.9,0,13.3,0,19.7,0c0,7.3,0,13.6,0,20.9c-6.9,0-13.2,0-19.3,0c0,21.1,0,41.2,0,62.2c7,0,13.4,0,20.3,0c0,7.1,0,13.1,0,20.2
				c6.9,0,13.2,0,20.5,0c0,7.3,0,13.6,0,20.5c7.4,0,13.9,0,20.4,0c0,13.8,0,27.5,0,41.3c-6.7,0-13.4,0-21.1,0c0,7.7,0,14,0,21.3
				c-7.3,0-13.6,0-19.7,0c0,7.1,0,13.1,0,20.2c6.8,0,13.1,0,20.4,0c0,7.3,0,13.6,0,20.5c7.4,0,13.9,0,20.4,0
				c0,53.4,0.1,106.7-0.3,160.1c0,2.4-4.5,6.9-6.9,6.9c-146.4,0.3-292.8,0.4-439.2-0.6c-2.5,0-4.8-14.2-7.2-21.8
				c6.7,0,13.4,0,21.1,0c0-21.5,0-41.6,0-62.3c7.1,0,13.2,0,19.6,0c0-6.9,0-13.3,0-20.6c-6.8,0-13.2,0-19.4,0c0-14.2,0-27.4,0-41.6
				c7,0,13.3,0,20.2,0c0-7.1,0-13.2,0-20.2c6.9,0,13.2,0,20.5,0c0-14.2,0-27.4,0-41.6c7.3,0,13.6,0,19.6,0c0-14.2,0-27.4,0-40.4
				c-6.8,0-12.9,0-20,0c0,6.8,0,13.1,0,19.5c-14.2,0-27.4,0-40.4,0c0-13.9,0-27.1,0-41.3c7,0,13.4,0,20.3,0c0-7.1,0-13.2,0-20.2
				c6.9,0,13.3,0,20.5,0c0-7.3,0-13.7,0-21c7.3,0,13.6,0,20.9,0c0-28,0-55,0-82.6c7.1,0,13.2,0,20.2,0c0-6.9,0-13.3,0-20.6
				c7.3,0,13.6,0,20.3,0c0-14.4,0-27.7,0-41.1c6.7,0,13.4,0,20.1,0c0-7.4,0-13.7,0-19.9c-7,0-13.3,0-19.8,0c0,7.2,0,13.7,0,20.2
				c-13.6,0-27.2,0-40.7,0c0-14.7,0-27.9,0-42.1c7,0,13.3,0,20.3,0c0-7.1,0-13.1,0-20.2c6.9,0,13.2,0,20.5,0c0-14.2,0-27.4,0-41.6
				c7.3,0,13.6,0,19.7,0c0-14.2,0-27.4,0-40.5c-6.8,0-12.9,0-19.9,0c0,6.8,0,13.1,0,20.4c-7.3,0-13.6,0-20.9,0c0,7.3,0,13.6,0,19.7
				c-7.3,0-13.6,0-19.5,0c0-14,0-27.2,0-41c6.9,0,13,0,19.2,0c0-7,0-13.3,0-20.6c-6.9,0-13.2,0-19.3,0c0-7.3,0-13.7,0-20.6
				c6.8,0,12.9,0,19.9,0c0-13.8,0-27.1,0-41.2c7.3,0,13.6,0,20.9,0c0-7.3,0-13.6,0-21c7.3,0,13.6,0,20.9,0c0-21.1,0-41.2,0-61.9
				c7.1,0,13.1,0,20.2,0c0-13.8,0-27.1,0-41.2c7.3,0,13.6,0,20.5,0C10961.9,613.8,10961.9,586.7,10961.9,559.5z"/>
		</g>
	</g>
</g>
<g>
	<g>
		<g>
			<path class="st1" d="M10451.8,862.1c6.2,0,12.4,0,18.6,0c0,6,0,12.1,0,19c6.9,0,12.6,0,19.1,0c0,12.8,0,24.6,0,37
				c6.4,0,11.8,0,18.2,0c0,12.4,0,24.3,0,37c6.6,0,12.3,0,18.8,0c0,6.6,0,12.3,0,18.8c6.6,0,12.3,0,17.8,0c0,6.3,0,11.8,0,18.1
				c-12.3,0-24.2,0-36.2,0c0,6.6,0,12.3,0,18.8c6.2,0,11.9,0,18.5,0c0,6.6,0,12.3,0,18.8c6.6,0,12.3,0,18.5,0c0,6.4,0,11.8,0,18.1
				c6.2,0,11.9,0,18.5,0c0,6.6,0,12.3,0,18.8c6.6,0,12.2,0,17.6,0c0,12.8,0,24.6,0,36.3c-6.2,0-11.6,0-18,0c0-6.1,0-11.8,0-17.6
				c-6.6,0-12.3,0-18.8,0c0,6.2,0,11.9,0,18.5c-6.6,0-12.3,0-17.5,0c0,6.6,0,12.3,0,18.5c6.2,0,11.7,0,18,0c0,6.2,0,11.9,0,18.5
				c6.6,0,12.3,0,18.8,0c0,6.6,0,12.3,0,18.8c6.6,0,12.3,0,18.5,0c0,6.3,0,11.8,0,18.1c6.2,0,11.9,0,18.5,0c0,6.6,0,12.3,0,18.5
				c6.7,0,12.5,0,18.4,0c0,6.2,0,12.4,0,18.6c-12.2,0-24.5,0-37.6,0c0-6.9,0-12.6,0-17.9c-6.6,0-12.3,0-18.5,0c0,6.2,0,11.6,0,18
				c-6.2,0-11.9,0-17.7,0c0,6.6,0,12.2,0,18.8c6.2,0,11.9,0,18.5,0c0,6.6,0,12.3,0,18.8c6.6,0,12.3,0,18.5,0c0,6.3,0,11.8,0,18.1
				c6.2,0,11.9,0,18.5,0c0,6.6,0,12.3,0,18.4c6.7,0,12.5,0,18.4,0c0,12.4,0,24.8,0,37.1c-6.2,0-12.5,0.1-18.7,0.1c0-6,0-12.1,0-18.1
				c-6.7,0-12.3,0-17.9,0c0,6.3,0,11.9,0,17.9c6.5,0,12.3,0,18.1,0c0,6.1,0,12.1,0,18.7c6.8,0,12.6,0,18.4,0
				c11.3,52.2-8.7,66.2-61.4,62.7c-84.5-5.5-169.6-1.5-254.4-1.5c0-7.9,0-15.8,0-24.6c6.9,0,12.6,0,19.1,0c0-12.8,0-24.6,0-37
				c6.4,0,11.8,0,18.2,0c0-6.2,0-11.9,0-18.5c6.6,0,12.3,0,17.8,0c0-6.6,0-12.3,0-18.8c-6.3,0-12,0-17.5,0c0-6.3,0-11.8,0-18.1
				c6.1,0,11.8,0,18.3,0c0-12.7,0-24.6,0-37.4c6.6,0,12.3,0,18.3,0c0-6.7,0-12.5,0-18.4c6.1,0,12.1,0,18.1,0c0-6.6,0-12.3,0-17.8
				c-6.3,0-12,0-17.9,0c0,6.4,0,12.3,0,18.1c-12.2,0-24.5,0-36.7,0c0-13.2,0-25,0-37.8c6.3,0,12,0,18.5,0c0-12.7,0-24.6,0-37
				c6.4,0,11.8,0,17.5,0c0-6.2,0-11.9,0-18.5c-6.2,0-11.9,0-17.5,0c0-6.6,0-12.3,0-18.8c6.3,0,12,0,18.2,0c0-6.3,0-11.8,0-18.1
				c6.2,0,11.9,0,18.5,0c0-6.6,0-12.3,0-18.8c6.6,0,12.3,0,18.3,0c0-6.7,0-12.5,0-18.4c6.1,0,12.1,0,18.1,0c0-6.6,0-12.3,0-17.8
				c-6.3,0-12,0-17.9,0c0,6.4,0,12.3,0,18.1c-12.2,0-24.5,0-36.7,0c0-13.1,0-25,0-37.7c6.3,0,12,0,18.5,0c0-6.6,0-12.2,0-18.4
				c6.3,0,11.8,0,18.1,0c0-18.6,0-36.6,0-55.5c6.5,0,12.2,0,18.7,0c0-18.9,0-37,0-55.9c6.5,0,12.2,0,18.4,0
				C10451.8,886.1,10451.8,874.1,10451.8,862.1z M10396.2,1177.9c-6,0-12.1,0-18.1,0c0,6.6,0,12.2,0,17.8c6.3,0,11.9,0,17.9,0
				c0-6.4,0-12.2,0-18.1c6.1,0,12.1,0,18.1,0c0-6.6,0-12.3,0-17.8c-6.3,0-12,0-17.9,0C10396.2,1166.2,10396.2,1172.1,10396.2,1177.9
				z"/>
		</g>
	</g>
</g>
</svg>
