<svg version="1.1" xmlns="http://www.w3.org/2000/svg" xmlns:xlink="http://www.w3.org/1999/xlink" x="0px" y="0px" viewBox="-27 0 8307.5 2440.1015625" style="enable-background:new 0 0 8192 2770;" xml:space="preserve"><style type="text/css">	.st0{fill:#CBF2FF;}	.st1{fill:#CCF2FF;}	.st2{fill:#335767;}	.st3{fill:#538DA6;}	.st4{fill:#538CA5;}	.st5{fill:#345868;}	.st6{fill:#97BAC9;}	.st7{fill:#B6CFD9;}	.st8{fill:#75A3B7;}	.st9{fill:#816C61;}	.st10{fill:#A68F7E;}	.st11{fill:#FF7040;}	.st12{fill:#FF4046;}	.st13{fill:#FFAF40;}	.st14{fill:#FFEF40;}	.st15{fill:#FFFFFF;}	.st16{fill:#806D60;}	.st17{fill:#A68E7C;}</style><g id="Layer_3">	<rect x="-27" class="st0" width="8307.5" height="941.4"></rect></g><g id="Layer_1">	<g>		<g>			<path class="st1" d="M3645.8,1785.1c-70.3,0-138.6-12.9-201.9-26.9c-113.6-25-208.6-38.4-299-42.1c-16.3-0.7-33.2-1-50.1-1				c-129.9,0-255.4,19.5-383.2,41.2l-4.7,0.8v-4.7c0-262.5,0-533.9,0.3-800.8c0-4.3,5.7-10.1,10-10.1				c448.5-0.1,903.3-0.2,1351.7-0.2c449.1,0,904.4,0.1,1353.4,0.2c4.3,0,10,5.7,10,10.1c0.3,272,0.3,548.5,0.3,816v4.3l-4.3-0.4				c-0.7-0.1-1.3-0.1-2-0.1c-2-0.1-4.1-0.2-6.1-0.7c-27-6.3-62.6-14.6-98.2-23c-0.7-0.2-4.7-1-4.7-1l-0.1,0				c-0.7-0.2-1.4-0.4-1.9-0.5l-0.1,0c-0.6-0.1-1.1-0.2-1.6-0.4c-0.6-0.1-1.2-0.3-1.8-0.4l-0.1,0c-0.4-0.1-0.8-0.2-1.1-0.3				c-0.3-0.1-0.6-0.2-1-0.3c-0.5-0.1-1.1-0.2-1.6-0.3c-0.6-0.1-1.2-0.3-1.8-0.4l-0.6-0.2c-0.5-0.1-1-0.3-1.4-0.4l-0.2,0l-3.9-1.1				c-5.2-1.5-10.6-3.1-15.9-4.6c-149.7-42.5-328.5-87.2-519.3-96.6c-46.8-2.3-92.4-3.5-135.4-3.5c-135.2,0-256.3,11.3-370.3,34.4				c-57,11.6-114.6,24.8-170.4,37.5c-45.3,10.3-92.1,21-138.3,30.8c-6.4,1.4-12.9,2.7-19.3,4.1c-87.3,18.6-177.6,37.8-269.3,40.5				C3656.4,1785.1,3651.1,1785.1,3645.8,1785.1z"></path>			<path class="st1" d="M2710.9,1752.4c0-266.9,0-533.9,0.3-800.8c0-2.1,3.9-6.1,6-6.1c901.7-0.3,1803.3-0.3,2705.1,0				c2.1,0,6,3.9,6,6.1c0.3,272,0.3,544,0.3,816c-2.6-0.2-5.2-0.2-7.6-0.8c-32.8-7.7-65.4-15.3-98.2-23c-1.6-0.3-3.1-0.7-4.7-1				c-0.8-0.2-1.5-0.4-2.2-0.6c-1.2-0.3-2.3-0.5-3.4-0.8c-0.8-0.2-1.4-0.4-2.2-0.6c-1.2-0.3-2.3-0.5-3.4-0.8				c-0.8-0.2-1.4-0.4-2.2-0.6c-6.6-1.9-13-3.9-19.6-5.7c-170.3-48.3-342.1-88-520.2-96.7c-170.2-8.4-339.5-3-506.7,31				c-103.3,21-205.6,46.5-308.7,68.3c-95,20.1-189.9,41.6-287.9,44.5c-73.8,2.1-145.4-10.8-216.8-26.5				c-98.7-21.7-198.2-38-299.7-42.2C2998.3,1706.1,2854.5,1728,2710.9,1752.4z"></path>			<path class="st2" d="M4069.7,2439.4c-448.9,0-904.2-0.1-1353.1-0.2c-4.1,0-9.4-5.2-9.4-9.3c-0.2-187.4-0.2-377.9-0.2-562.2				l0-116.1l3.6-0.4c10.3-1,20.7-2.3,30.8-3.5c22.8-2.7,46.4-5.5,69.8-6.2c16.4-0.5,33.1-1.1,49.3-1.6c40.5-1.4,82.5-2.9,123.6-2.9				c25.8,0,49.1,0.6,71.2,1.7c100.8,5.3,196.8,29.8,302.9,58.9c6.7,1.8,13.3,3.7,20,5.5c85,23.4,172.8,47.7,262.7,50.6				c23.5,0.7,48.3,1.1,73.7,1.1c51.6,0,107.2-1.5,174.8-4.7c93.2-4.4,183.7-26,283.9-51.5c124.6-31.8,258.5-65.2,393-93.9				c78.3-16.7,162.9-25.1,251.4-25.1c39,0,79.9,1.6,121.5,4.9c68.5,5.3,137.8,15.3,204.8,24.9c23,3.3,46.7,6.7,70.1,9.9				c20.8,2.8,41.8,6.9,62,10.9c9.5,1.9,19.3,3.8,28.9,5.5l0.2,0l0.2,0c0.7,0.2,1.4,0.4,1.9,0.5l0.1,0c0.6,0.1,1.1,0.2,1.7,0.4				c0.6,0.1,1.2,0.3,1.8,0.4l0.1,0c0.4,0.1,1.8,0.5,2.1,0.6c0.5,0.1,1.1,0.2,1.6,0.3c0.6,0.1,1.2,0.3,1.8,0.4l0.1,0				c0.7,0.2,1.3,0.4,1.9,0.5c1.5,0.2,2.9,0.6,4.1,0.8l1,0.2c16.3,3.8,32.6,7.6,48.9,11.5c16.4,3.9,32.9,7.7,49.4,11.6				c1.2,0.3,2.7,0.4,4.2,0.5c0.9,0.1,1.9,0.1,2.9,0.2l3.6,0.4v3.6c0,217.1,0,441.5-0.2,662.3c0,4.1-5.3,9.3-9.4,9.3				C4973.9,2439.3,4518.7,2439.4,4069.7,2439.4z"></path>			<path class="st2" d="M5322.7,1743.9c32.8,7.7,65.4,15.4,98.2,23c2.5,0.6,5,0.5,7.6,0.8c0,220.7,0,441.5-0.2,662.3				c0,1.9-3.5,5.3-5.4,5.3c-902.1,0.2-1804.2,0.2-2706.3,0c-1.9,0-5.4-3.4-5.4-5.3c-0.3-224.9-0.2-449.8-0.2-674.7				c33.4-3.4,66.8-8.7,100.3-9.7c81.3-2.4,162.9-7.1,243.8-2.8c103,5.4,203,31.6,302,58.8c93.2,25.6,186.3,53.1,283.6,56.2				c82.8,2.6,166,0.3,248.8-3.6c97-4.6,190.9-27.7,284.7-51.6c130.5-33.3,261.2-65.8,392.8-93.8c122.3-26.1,247.3-29.9,371.8-20.2				c91.9,7.2,183.2,22.3,274.7,34.8c30.4,4.1,60.5,10.9,90.7,16.4c0.8,0.2,1.5,0.4,2.2,0.6c1.2,0.3,2.3,0.5,3.4,0.8				c0.8,0.2,1.4,0.4,2.2,0.6c1.2,0.3,2.3,0.5,3.4,0.8c0.8,0.2,1.5,0.4,2.2,0.6C5319.6,1743.1,5321.2,1743.5,5322.7,1743.9z"></path>			<path class="st3" d="M3714.8,1862.8c-25.4,0-50.3-0.4-73.9-1.1c-90.8-2.9-179.1-27.3-264.6-50.8c-6.7-1.8-13.3-3.7-20-5.5				c-105.7-29-201.3-53.4-301.2-58.6c-21.9-1.2-44.9-1.7-70.4-1.7c-40.5,0-81.9,1.4-121.8,2.9c-16.8,0.6-34.2,1.2-51.3,1.7				c-23,0.7-46.4,3.4-69.1,6.1c-10.1,1.2-20.6,2.5-30.9,3.5l-4.4,0.4v-10.6l3.3-0.6c123.1-20.9,254.1-41.3,384.5-41.3				c17,0,33.9,0.3,50.4,1c90.8,3.8,186.2,17.2,300.4,42.3c62.9,13.9,130.7,26.7,200.2,26.7c5.2,0,10.5-0.1,15.6-0.2				c90.7-2.6,180.4-21.7,267.1-40.1c6.7-1.4,13.4-2.9,20.1-4.3c46.2-9.8,93.1-20.5,138.4-30.8c55.7-12.7,113.4-25.9,170.4-37.5				c114.3-23.3,235.9-34.6,371.6-34.6c43.8,0,88.3,1.1,136.1,3.5c83.5,4.1,169.7,15.1,263.6,33.6c77.1,15.2,158.9,35.3,257.5,63.3				c3.7,1.1,7.4,2.2,11.1,3.3c2.8,0.8,5.5,1.6,8.3,2.5l-1.8,7.8c-9.8-1.8-19.7-3.7-29.3-5.6c-20-3.9-40.8-8-61.2-10.8				c-23.4-3.2-47.2-6.6-70.1-9.9c-66.9-9.6-136-19.5-204.3-24.8c-41.4-3.2-82.1-4.8-120.9-4.8c-88,0-172,8.4-249.8,25				c-134.7,28.7-268.3,62.1-392.7,93.8c-104.4,26.6-191.8,47.4-285.5,51.8C3822.2,1861.3,3766.5,1862.8,3714.8,1862.8z"></path>			<path class="st3" d="M5304.5,1739.5c-30.3-5.5-60.3-12.3-90.7-16.4c-91.4-12.4-182.7-27.6-274.7-34.8				c-124.5-9.7-249.5-5.9-371.8,20.2c-131.7,28.1-262.4,60.5-392.8,93.8c-93.8,23.9-187.6,47.1-284.7,51.6				c-82.8,3.9-166,6.2-248.8,3.6c-97.3-3.1-190.4-30.6-283.6-56.2c-99.1-27.2-199.1-53.4-302-58.8c-81-4.3-162.6,0.5-243.8,2.8				c-33.5,1-66.9,6.3-100.3,9.7c0-0.9,0-1.9,0-2.8c143.6-24.4,287.3-46.3,434-40.3c101.4,4.2,200.9,20.5,299.7,42.2				c71.4,15.7,143,28.6,216.8,26.5c98-2.8,192.9-24.3,287.9-44.5c103.1-21.9,205.5-47.3,308.7-68.3c167.2-34.1,336.5-39.4,506.7-31				c178.1,8.8,350,48.4,520.2,96.7C5291.5,1735.7,5298,1737.6,5304.5,1739.5z"></path>			<path class="st3" d="M5317.2,1746.8l1.5-7.8c1.3,0.2,2.5,0.5,3.7,0.8c0.4,0.1,0.8,0.2,1.2,0.3l-1.7,7.8				C5321.1,1747.6,5318,1746.9,5317.2,1746.8z"></path>			<path class="st3" d="M5322.7,1743.9c-1.6-0.3-3.1-0.7-4.7-1C5319.6,1743.1,5321.2,1743.5,5322.7,1743.9z"></path>			<path class="st3" d="M5309.5,1744.8c-1.1-0.2-2.1-0.4-3.1-0.7l-0.6-0.1l1.8-7.8c0.6,0.1,1.1,0.2,1.6,0.4c0.6,0.1,1.2,0.3,1.8,0.4				L5309.5,1744.8z"></path>			<path class="st3" d="M5310.2,1740.9c-1.2-0.3-2.3-0.5-3.4-0.8C5307.9,1740.4,5309,1740.6,5310.2,1740.9z"></path>			<path class="st3" d="M5314.9,1746.1c-0.6-0.1-1.1-0.2-1.7-0.4c-0.6-0.1-1.2-0.3-1.8-0.4l1.8-7.8c0.6,0.1,1.1,0.2,1.6,0.4				c0.6,0.1,1.2,0.3,1.8,0.4L5314.9,1746.1z"></path>			<path class="st3" d="M5315.8,1742.2c-1.2-0.3-2.3-0.5-3.4-0.8C5313.6,1741.8,5314.7,1742,5315.8,1742.2z"></path>		</g>	</g>	<g>		<g>			<path class="st1" d="M6319.3,1785.1c-74,0-145.9-12.9-212.6-26.9c-119.7-25-219.8-38.4-315-42.1c-17.2-0.7-34.9-1-52.7-1				c-136.6,0-268.9,19.5-403.6,41.2l-4.6,0.7v-4.7c0-262.5,0-533.9,0.3-800.8c0-4.3,5.9-10.1,10.3-10.1				c472.6-0.1,952-0.2,1424.6-0.2c472.7,0,952,0.1,1424.6,0.2c4.4,0,10.3,5.7,10.3,10.1c0.3,272,0.3,548.5,0.3,816v4.3l-4.3-0.3				c-0.7-0.1-1.4-0.1-2.1-0.1c-2.1-0.1-4.2-0.2-6.4-0.7l-0.4-0.1c-33.8-7.5-68.7-15.3-103.1-23c-0.8-0.2-5-1-5-1l-0.1,0				c-0.8-0.2-1.5-0.4-2-0.5l-0.2,0c-0.6-0.1-1.2-0.2-1.8-0.4c-0.6-0.1-1.3-0.3-1.9-0.4l-0.2,0c-0.4-0.1-0.8-0.2-1.1-0.3				c-0.4-0.1-0.7-0.2-1.1-0.3c-0.6-0.1-1.1-0.2-1.7-0.3c-0.6-0.1-1.3-0.3-1.9-0.4l-0.2,0c-0.8-0.2-1.5-0.4-2-0.5l-0.2,0l-3.9-1.1				c-5.5-1.6-11.2-3.2-16.9-4.7c-157.7-42.5-346.1-87.2-547.1-96.6c-49.4-2.3-97.4-3.5-142.7-3.5c-142.4,0-270,11.3-390.1,34.5				c-60,11.6-120.7,24.8-179.4,37.5c-47.7,10.3-97,21-145.8,30.8c-6.8,1.4-13.5,2.7-20.3,4.1c-91.9,18.6-187,37.8-283.6,40.5				C6330.5,1785.1,6324.9,1785.1,6319.3,1785.1z"></path>			<path class="st1" d="M5334.9,1752.4c0-266.9,0-533.9,0.3-800.8c0-2.1,4.1-6.1,6.3-6.1c949.7-0.3,1899.5-0.3,2849.3,0				c2.2,0,6.3,3.9,6.3,6.1c0.3,272,0.3,544,0.3,816c-2.7-0.2-5.4-0.2-8-0.8c-34.5-7.7-69-15.3-103.4-23c-1.7-0.3-3.2-0.7-4.9-1				c-0.8-0.2-1.6-0.4-2.3-0.6c-1.2-0.3-2.4-0.5-3.7-0.8c-0.8-0.2-1.6-0.4-2.3-0.6c-1.2-0.3-2.4-0.5-3.7-0.8				c-0.8-0.2-1.6-0.4-2.3-0.6c-6.9-1.9-13.7-3.9-20.6-5.7c-179.4-48.3-360.3-88-547.9-96.7c-179.3-8.4-357.6-3-533.7,31				c-108.8,21-216.6,46.5-325.2,68.3c-100.1,20.1-200,41.6-303.2,44.5c-77.7,2.1-153.2-10.8-228.4-26.5				c-104.1-21.7-208.7-38-315.6-42.2C5637.5,1706.1,5486.2,1728,5334.9,1752.4z"></path>			<path class="st2" d="M6766.1,2439.4c-472.9,0-952.4-0.1-1425.2-0.2c-3.9,0-9.7-4.9-9.7-9.3c-0.3-224.9-0.3-453.5-0.3-674.7v-3.6				l3.6-0.3c10.8-1,21.8-2.3,32.5-3.5c24.1-2.7,48.9-5.5,73.5-6.2c17.3-0.5,34.8-1.1,51.8-1.6c42.7-1.4,86.9-2.9,130.3-2.9				c27.2,0,51.7,0.6,75,1.7c106.1,5.3,207.2,29.8,319,58.9c7,1.8,14,3.7,21,5.5c89.5,23.5,182.1,47.7,276.9,50.6				c24.8,0.7,50.9,1.1,77.6,1.1c54.4,0,112.9-1.5,184.2-4.7c106.1-4.8,213.1-30.7,299.1-51.5c130.9-31.7,271.7-65.1,414-93.9				c82.5-16.7,171.5-25.1,264.8-25.1c41.1,0,84.2,1.6,127.9,4.9c72.1,5.3,145,15.3,215.5,24.9c24.2,3.3,49.3,6.7,74,9.9				c21.9,2.8,43.8,6.9,65.1,10.9c10.1,1.9,20.4,3.8,30.7,5.6l0.2,0l0.2,0.1c0.8,0.2,1.5,0.4,2,0.5l0.2,0c0.6,0.1,1.2,0.2,1.8,0.4				c0.6,0.1,1.3,0.3,1.9,0.4l0.2,0c0.4,0.1,0.8,0.2,1.1,0.3c0.4,0.1,0.7,0.2,1.1,0.3c0.6,0.1,1.1,0.2,1.7,0.3				c0.6,0.1,1.3,0.3,1.9,0.4l0.2,0c0.8,0.2,1.5,0.4,2,0.5c1.1,0.2,2.2,0.4,3.3,0.7c0.6,0.1,1.2,0.3,1.7,0.4				c17.2,3.8,34.3,7.6,51.4,11.4c17.4,3.9,34.7,7.7,52.1,11.6c1.3,0.3,2.9,0.4,4.5,0.5c1,0.1,2,0.1,3.1,0.2l3.6,0.4v3.6				c0,217.1,0,441.5-0.3,662.3c0,4.4-5.8,9.3-9.7,9.3C7718.5,2439.3,7238.9,2439.4,6766.1,2439.4z"></path>			<path class="st2" d="M8085.9,1743.9c34.5,7.7,69,15.4,103.4,23c2.6,0.6,5.3,0.5,8,0.8c0,220.7,0,441.5-0.3,662.3				c0,1.9-3.7,5.3-5.7,5.3c-950.1,0.2-1900.3,0.2-2850.4,0c-2,0-5.7-3.4-5.7-5.3c-0.3-224.9-0.3-449.8-0.3-674.7				c35.2-3.4,70.4-8.7,105.7-9.7c85.6-2.4,171.6-7.1,256.9-2.8c108.5,5.4,213.8,31.6,318.2,58.8c98.2,25.6,196.2,53.1,298.8,56.2				c87.2,2.6,174.9,0.3,262.1-3.6c102.2-4.6,201.1-27.7,299.9-51.6c137.4-33.3,275.1-65.8,413.8-93.8				c128.9-26.1,260.5-29.9,391.6-20.2c96.8,7.2,192.9,22.3,289.3,34.8c32.1,4.1,63.7,10.9,95.6,16.4c0.8,0.2,1.6,0.4,2.3,0.6				c1.2,0.3,2.4,0.5,3.7,0.8c0.8,0.2,1.6,0.4,2.3,0.6c1.2,0.3,2.4,0.5,3.7,0.8c0.8,0.2,1.6,0.4,2.3,0.6				C8082.6,1743.1,8084.2,1743.5,8085.9,1743.9z"></path>			<path class="st3" d="M6392.1,1862.8c-26.8,0-53-0.4-77.9-1.1c-95.5-2.9-188.5-27.2-278.4-50.8c-7.1-1.9-14.2-3.7-21.2-5.5				c-111.3-29-212-53.4-317.4-58.6c-23-1.2-47.3-1.7-74.1-1.7c-42.7,0-86.3,1.4-128.4,2.9c-17.7,0.6-36,1.2-54.1,1.7				c-24.3,0.7-49,3.5-72.8,6.1c-10.7,1.2-21.7,2.4-32.6,3.5l-4.4,0.4V1749l3.4-0.5c129.6-20.9,267.6-41.3,404.9-41.3				c17.9,0,35.7,0.3,53,1c95.7,3.8,196.2,17.2,316.3,42.3c66.2,13.9,137.7,26.7,211,26.7c5.5,0,11.1-0.1,16.5-0.2				c95.6-2.6,190.1-21.7,281.4-40.1c7-1.4,14.1-2.8,21.1-4.3c48.6-9.8,97.9-20.5,145.6-30.8c58.8-12.7,119.5-25.9,179.6-37.5				c120.4-23.3,248.4-34.6,391.3-34.6c46.1,0,93,1.1,143.4,3.5c88,4.1,178.8,15.1,277.6,33.6c81.2,15.2,167.3,35.3,271.1,63.3				c7.5,2,15,4.1,20.7,5.7l-1.8,7.8c-10.3-1.8-20.7-3.7-30.8-5.6c-21.1-3.9-43-8-64.6-10.8c-24.7-3.2-49.8-6.6-74-9.9				c-70.4-9.6-143.1-19.5-215-24.8c-43.6-3.2-86.4-4.8-127.4-4.8c-92.7,0-181.3,8.4-263.1,25c-142.1,28.8-282.8,62.1-413.7,93.8				c-110,26.6-202,47.4-300.7,51.8C6505.3,1861.3,6446.7,1862.8,6392.1,1862.8z"></path>			<path class="st3" d="M8066.6,1739.5c-31.9-5.5-63.5-12.3-95.6-16.4c-96.3-12.4-192.5-27.6-289.3-34.8				c-131.1-9.7-262.8-5.9-391.6,20.2c-138.7,28.1-276.4,60.5-413.8,93.8c-98.8,23.9-197.6,47.1-299.9,51.6				c-87.2,3.9-174.9,6.2-262.1,3.6c-102.5-3.1-200.5-30.6-298.8-56.2c-104.3-27.2-209.6-53.4-318.2-58.8				c-85.3-4.3-171.3,0.5-256.9,2.8c-35.3,1-70.5,6.3-105.7,9.7c0-0.9,0-1.9,0-2.8c151.2-24.4,302.6-46.3,457.1-40.3				c106.9,4.2,211.6,20.5,315.6,42.2c75.2,15.7,150.6,28.6,228.4,26.5c103.2-2.8,203.1-24.3,303.2-44.5				c108.6-21.9,216.4-47.3,325.2-68.3c176.1-34.1,354.4-39.4,533.7-31c187.6,8.8,368.6,48.4,547.9,96.7				C8052.9,1735.7,8059.8,1737.6,8066.6,1739.5z"></path>			<path class="st3" d="M8080.2,1746.8l1.5-7.9c1.1,0.2,2.2,0.4,3.3,0.7c0.6,0.1,1.2,0.3,1.7,0.4l-1.6,7.8				C8084.2,1747.6,8081,1746.9,8080.2,1746.8z"></path>			<path class="st3" d="M8085.9,1743.9c-1.7-0.3-3.2-0.7-4.9-1C8082.6,1743.1,8084.2,1743.5,8085.9,1743.9z"></path>			<path class="st3" d="M8072,1744.8c-1.2-0.2-2.2-0.4-3.3-0.7l-0.6-0.1l1.7-7.8c0.6,0.1,1.2,0.2,1.7,0.4c0.6,0.1,1.3,0.3,1.9,0.4				L8072,1744.8z"></path>			<path class="st3" d="M8072.6,1740.9c-1.2-0.3-2.4-0.5-3.7-0.8C8070.2,1740.4,8071.4,1740.6,8072.6,1740.9z"></path>			<path class="st3" d="M8077.8,1746.1c-0.5-0.1-1.1-0.2-1.6-0.3c-0.7-0.1-1.4-0.3-2.1-0.4l1.8-7.8c0.6,0.1,1.2,0.2,1.7,0.4				c0.6,0.1,1.3,0.3,1.9,0.4L8077.8,1746.1z"></path>			<path class="st3" d="M8078.6,1742.2c-1.2-0.3-2.4-0.5-3.7-0.8C8076.2,1741.8,8077.4,1742,8078.6,1742.2z"></path>		</g>	</g>	<g>		<g>			<path class="st1" d="M2165.4,1785.5c-6.5,0-13-0.1-19.3-0.2c-112.1-2.6-222.4-21.8-329-40.4c-8-1.4-15.9-2.8-23.9-4.2				c-56.6-9.8-114-20.5-169.4-30.9c-68.2-12.7-138.7-25.9-208.4-37.5c-139.6-23.2-287.9-34.5-453.5-34.5				c-52.7,0-108.4,1.2-165.8,3.5c-233.8,9.5-452.7,54.2-635.9,96.7c-6.7,1.6-13.5,3.2-20.1,4.8l-3.9,1l-0.2,0				c-0.8,0.1-1.6,0.3-2.4,0.5l-0.1,0c-0.7,0.1-1.5,0.3-2.2,0.4c-0.6,0.1-1.3,0.2-1.9,0.3l-2.8,0.6c-0.7,0.1-1.5,0.3-2.2,0.4				c-0.7,0.1-1.3,0.2-2,0.4l-0.2,0c-0.8,0.1-1.6,0.3-2.4,0.5l-0.2,0l-5.7,1c-40.2,7.8-80.8,15.5-120.1,23c-2.5,0.5-4.9,0.6-7.3,0.7				c-0.8,0-1.7,0.1-2.5,0.1l-4.3,0.3v-4.3c0-267.6,0-544.3,0.3-816.4c0-4.7,6.8-10.1,11.3-10.1c549.4-0.1,1106.6-0.2,1656.1-0.2				c548.9,0,1105.7,0.1,1654.8,0.2c4.5,0,11.3,5.4,11.3,10.1c0.3,267.1,0.3,538.6,0.3,801.2v4.6l-4.6-0.6				c-150.3-20.9-310.4-41.4-469.8-41.4c-20.5,0-40.9,0.3-60.7,1c-110.4,3.7-226.8,17.2-366.2,42.2				C2334.8,1772.6,2251.3,1785.5,2165.4,1785.5C2165.5,1785.5,2165.5,1785.5,2165.4,1785.5z"></path>			<path class="st1" d="M3309.6,1752.9c0-267.1,0-534.1-0.3-801.2c0-2.1-4.8-6.1-7.3-6.1c-1103.6-0.3-2207.2-0.3-3310.9,0				c-2.6,0-7.3,4-7.3,6.1c-0.3,272.1-0.3,544.3-0.3,816.4c3.1-0.2,6.3-0.2,9.3-0.8c40.1-7.7,80.1-15.3,120.2-23				c1.9-0.3,3.8-0.7,5.7-1c0.9-0.2,1.8-0.4,2.8-0.6c1.4-0.3,2.8-0.5,4.2-0.8c0.9-0.2,1.8-0.4,2.7-0.6c1.4-0.3,2.8-0.5,4.2-0.8				c0.9-0.2,1.8-0.4,2.7-0.6c8-1.9,15.9-3.9,23.9-5.7c208.4-48.3,418.7-88,636.7-96.8c208.3-8.4,415.5-3,620.1,31				c126.4,21,251.7,46.5,377.9,68.3c116.3,20.1,232.4,41.6,352.4,44.5c90.3,2.1,178-10.8,265.3-26.5				c120.9-21.7,242.6-38.1,366.8-42.3C2957.9,1706.4,3133.8,1728.4,3309.6,1752.9z"></path>			<path class="st2" d="M1646.5,2440.1c-549.5,0-1106.7-0.1-1656.1-0.2c-3.9,0-10.6-4.6-10.6-9.3c-0.3-220.9-0.3-445.4-0.3-662.6				v-3.7l3.6-0.3c1.2-0.1,2.4-0.2,3.5-0.2c1.9-0.1,3.8-0.2,5.4-0.5l0.3,0c39.3-7.5,79.9-15.3,119.9-23c1.9-0.4,3.9-0.7,6-1.1				c0.9-0.1,1.7-0.3,2.5-0.5l0.1,0c0.7-0.1,1.5-0.3,2.2-0.4c0.6-0.1,1.3-0.2,1.9-0.3l2.8-0.6c0.7-0.1,1.5-0.3,2.2-0.4				c0.7-0.1,1.3-0.2,2-0.4l0.2,0c0.7-0.1,1.5-0.3,2.4-0.5l0.2,0l0.2,0c11.9-1.8,24-3.7,35.7-5.6c24.7-4,50.2-8,75.6-10.9				c28.6-3.2,57.7-6.6,85.8-9.9c81.9-9.6,166.7-19.5,250.5-24.9c50.8-3.2,100.8-4.9,148.6-4.9c108.3,0,211.7,8.4,307.4,25.1				c165.3,28.9,328.8,62.2,481,93.9c122.7,25.6,233.5,47.1,347.8,51.6c82.8,3.2,150.8,4.7,214,4.7c31.1,0,61.4-0.4,90.2-1.1				c110.2-2.9,217.7-27.1,321.8-50.6c8.2-1.8,16.4-3.7,24.6-5.5c129.6-29.1,246.9-53.6,370.4-58.9c27.1-1.2,55.6-1.7,87.1-1.7				c50.4,0,101.6,1.5,151.2,2.9c19.8,0.6,40.2,1.2,60.3,1.6c28.5,0.7,57.4,3.5,85.3,6.2c12.4,1.2,25.2,2.4,37.8,3.5l3.7,0.3v3.7				c0,221.2,0,450-0.3,675c0,4.4-6.3,9.3-10.6,9.3C2753.1,2440,2195.9,2440.1,1646.5,2440.1z"></path>			<path class="st2" d="M113,1744.2c-40.1,7.7-80.1,15.4-120.2,23c-3,0.6-6.2,0.5-9.3,0.8c0,220.9,0,441.7,0.3,662.6				c0,1.9,4.3,5.3,6.6,5.3c1104.1,0.2,2208.2,0.2,3312.2,0c2.3,0,6.6-3.4,6.6-5.3c0.3-225,0.3-450,0.3-675				c-41-3.4-81.8-8.7-122.8-9.7c-99.5-2.4-199.3-7.1-298.4-2.8c-126.1,5.4-248.4,31.6-369.7,58.8c-114.1,25.6-228,53.1-347.1,56.2				c-101.4,2.6-203.1,0.3-304.5-3.6c-118.7-4.6-233.7-27.7-348.4-51.6c-159.6-33.3-319.7-65.8-480.8-93.9				c-149.7-26.1-302.8-29.9-455-20.2c-112.5,7.2-224.2,22.3-336.2,34.8c-37.2,4.1-74.1,10.9-111.1,16.4c-0.9,0.2-1.8,0.4-2.7,0.6				c-1.4,0.3-2.8,0.5-4.2,0.8c-0.9,0.2-1.8,0.4-2.7,0.6c-1.4,0.3-2.8,0.5-4.2,0.8c-0.9,0.2-1.8,0.4-2.8,0.6				C116.7,1743.5,114.8,1743.9,113,1744.2z"></path>			<path class="st3" d="M2081,1863.2c-63.3,0-131.4-1.5-214.3-4.7c-114.5-4.4-221.3-25.1-349.1-51.7				c-153.3-32-317.6-65.5-480.7-93.9c-95.3-16.6-198.2-25-306-25c-47.6,0-97.4,1.6-148.1,4.8c-83.6,5.3-168.3,15.3-250.1,24.8				c-28.1,3.3-57.2,6.7-85.9,9.9c-25.2,2.8-50.6,6.9-75.2,10.8c-11.7,1.9-23.8,3.8-35.7,5.6l-1.5-7.9c4-0.9,8-1.9,11.9-2.9				c4-1,8-1.9,12-2.9c120.6-28,220.7-48.1,315-63.3c114.8-18.5,220.2-29.5,322.3-33.6c58.5-2.4,112.9-3.5,166.5-3.5				c165.9,0,314.6,11.3,454.4,34.6c69.8,11.6,140.3,24.8,208.6,37.5c55.4,10.3,112.8,21,169.3,30.8c8.2,1.4,16.5,2.9,24.7,4.3				c106.2,18.5,216,37.6,327.1,40.1c6.3,0.1,12.8,0.2,19.2,0.2c85.3,0,168.3-12.8,245.4-26.7c139.3-25.1,256-38.6,367.4-42.3				c20.1-0.7,40.8-1,61.6-1c159.7,0,319.9,20.5,470.3,41.4l3.4,0.5v10.6l-4.3-0.4c-12.6-1-25.4-2.3-37.7-3.5				c-27.8-2.7-56.6-5.5-84.8-6.2c-20.9-0.5-42.2-1.1-62.8-1.7c-48.9-1.4-99.5-2.9-149.1-2.9c-31.2,0-59.4,0.6-86.2,1.7				c-122.5,5.3-239.6,29.7-369,58.7c-8.1,1.8-16.1,3.6-24.2,5.4c-104.5,23.6-212.6,48-323.7,50.8				C2142.5,1862.8,2112.1,1863.2,2081,1863.2z"></path>			<path class="st3" d="M135.2,1739.9c37-5.5,73.8-12.3,111.1-16.4c111.9-12.4,223.6-27.6,336.2-34.8c152.3-9.7,305.3-5.9,455,20.2				c161.2,28.1,321.2,60.6,480.8,93.9c114.8,23.9,229.7,47.1,348.4,51.6c101.4,3.9,203.1,6.2,304.5,3.6				c119.1-3.1,233.1-30.6,347.1-56.2c121.2-27.2,243.6-53.4,369.7-58.8c99.2-4.3,199,0.5,298.4,2.8c41,1,81.9,6.3,122.8,9.7				c0-0.9,0-1.9,0-2.8c-175.8-24.5-351.7-46.4-531.2-40.3c-124.2,4.2-245.9,20.5-366.8,42.3c-87.4,15.7-175,28.6-265.3,26.5				c-119.9-2.8-236-24.3-352.4-44.5c-126.2-21.9-251.5-47.3-377.9-68.3c-204.7-34.1-411.8-39.4-620.1-31				c-217.8,8.8-428.1,48.4-636.5,96.7C151.2,1736,143.2,1738,135.2,1739.9z"></path>			<path class="st3" d="M112.2,1740.3c1.9-0.3,3.8-0.7,5.7-1l1.4,7.9l-5.7,1L112.2,1740.3z"></path>			<path class="st3" d="M113,1744.2c1.9-0.3,3.8-0.7,5.7-1C116.7,1743.5,114.8,1743.9,113,1744.2z"></path>			<path class="st3" d="M128.3,1741.3l-0.7-3.9c1.4-0.3,2.8-0.6,4.4-0.8l1.4,7.9c-0.7,0.1-1.5,0.3-2.2,0.4c-0.7,0.1-1.3,0.2-2,0.4				L128.3,1741.3z"></path>			<path class="st3" d="M128.3,1741.3c1.4-0.3,2.8-0.5,4.2-0.8C131.1,1740.7,129.7,1741,128.3,1741.3z"></path>			<path class="st3" d="M120.6,1738.7c0.7-0.1,1.5-0.3,2.2-0.4c0.7-0.1,1.3-0.2,2-0.4l1.6,7.8c-1.3,0.3-2.9,0.6-4.4,0.8				L120.6,1738.7z"></path>			<path class="st3" d="M121.4,1742.6c1.4-0.3,2.8-0.5,4.2-0.8C124.2,1742.1,122.7,1742.4,121.4,1742.6z"></path>		</g>	</g>	<g>		<g>			<path class="st4" d="M3988.1,2120.4c27.9-1.4,55.9-3.4,83.9-4.1c24.8-0.7,49.6-0.5,74.3,0.2c22.5,0.6,44.9,2.5,67.3,3.8				c1.6,0.1,3.2-0.4,4.9-0.6c0.7,0.5,1.3,1.3,2.1,1.4c8.3,0.8,16.6,1.3,24.9,2.3c10,1.1,19.9,2.4,29.9,3.8				c9.2,1.3,18.5,2.8,27.7,4.4c12.2,2.2,24.5,4.6,36.6,7.2c3.9,0.8,7.5,2.8,11.2,4.4c0.7,0.3,1,1.3,1.5,2c-0.7,0.3-1.4,0.7-2.1,0.8				c-0.9,0.1-1.9,0-2.8,0c-9.2,0-18.3,0-27.6,0.1c-0.7,0-1.4,0.3-2.1,0.5c0.6,0.3,1.3,0.6,1.9,0.8c2.1,0.3,4.3,0.5,6.5,0.8				c13.9,2.5,27.9,4.8,41.8,7.4c19.4,3.7,38.8,7.2,58.1,11.9c15.2,3.6,30.1,8.6,45.2,13.1c14.2,4.2,27.9,9.8,40.8,17				c6.6,3.7,12.9,7.9,19.3,11.9c0.9,0.6,1.4,1.9,2,2.9c-1.2,0.3-2.3,1-3.4,1c-5.6-0.1-11.2-0.5-16.8-0.6c-9.3-0.1-18.6-0.1-27.9-0.1				c-0.8,0-1.6,0.1-2.4,0.1c0.8,0.4,1.5,0.9,2.3,1.1c23.6,5.6,46.4,13.5,68.5,23.3c18.2,8.1,36.1,17,53.7,26.1				c9.7,5,18.5,11.3,27.8,17.1c3,1.9,5.9,3.9,8.8,5.9c2.8,2.5,5.4,5,8.2,7.5c1,1,1.9,2,2.8,3c2.2,2.4,1.8,4.8-1.2,6.3				c-1.1,0.6-2.3,0.8-3.6,1.1c-6.2,1.4-12.5,2.9-18.8,4.1c-9.7,1.9-19.3,3.7-29,5.6c-11.8,2.3-23.5,4.6-35.3,7				c-3.4,0.7-7,1.2-10.4,1.9c-0.4,0.1-0.8,0.6-1.1,1c0.4,0.1,0.8,0.4,1.2,0.5c8.6,1.7,17.2,2.9,25.6,4.9				c13.6,3.2,27.1,6.6,40.5,10.6c7.9,2.3,8.2,5.7,2,11.1c-0.3,0.2-0.5,0.5-0.8,0.7c-13.7,10.5-28.2,19.5-43.6,27.4				c-28.4,14.6-57.6,27.2-88.1,36.9c-24.5,7.8-49.4,13.2-74.9,16.8c-2.4,0.3-4.8,1.3-7.1,2c-205.1,0-410.3,0-615.5,0				c-0.6-0.4-1-1.2-1.7-1.3c-9.2-1.5-18.5-2.8-27.8-4.3c-28.9-5-56.8-13.9-84-24.4c-26.1-10.1-51.4-22.2-75.3-36.9				c-9.2-5.6-17.7-12.2-26.2-18.8c-3.9-3-3.3-6.2,1.4-8c7.6-2.8,15.3-5.6,23.2-7.4c14.8-3.4,29.8-6.1,44.7-9.2				c0.8-0.1,1.5-0.6,2.2-0.8c-0.8-0.3-1.5-0.6-2.3-0.9c-0.3-0.1-0.7-0.1-1-0.2c-13.2-2.4-26.3-4.8-39.4-7.3				c-14.1-2.8-28.2-5.7-42.3-8.6c-4.1-0.8-8.3-1.6-12.3-2.8c-4.2-1.2-4.8-3.9-1.9-7.1c0.8-0.8,1.5-1.7,2.3-2.5				c2.9-2.5,5.9-5,8.8-7.4c6.2-4.3,12.3-8.9,18.7-12.9c9.2-5.8,18.3-11.9,28.1-16.5c24.1-11.6,48-23.4,73.5-31.7				c12.5-4.1,25.2-7.6,37.8-11.4c0.7-0.2,1.3-0.7,1.9-1.1c-0.8-0.1-1.6-0.2-2.3-0.2c-14.7,0.2-29.4,0.5-44.1,0.6				c-1.2,0-2.4-0.8-3.7-1.1c0.8-1,1.2-2.5,2.3-3.2c7-4.5,14.1-9,21.4-13c17.1-9.4,35.6-15.2,54.2-20.6c14.5-4.2,29.1-8.3,43.8-11.7				c14.6-3.3,29.4-5.7,44.1-8.4c15.7-2.8,31.3-5.4,47-8.2c0.4-0.1,0.8-0.2,1.3-0.3c-0.5-0.1-1-0.3-1.4-0.3				c-9.7-0.1-19.4-0.1-29.2-0.1c-0.9,0-1.8-0.7-2.8-1c0.6-0.8,0.9-2,1.7-2.3c2.6-1.2,5.2-2.4,7.9-3.3c18-6,36.8-8.3,55.4-11				c19.3-2.8,38.8-4.8,58.1-7.1C3980.6,2121.3,3984.4,2120.8,3988.1,2120.4z M4105.1,2157.7c0-0.1,0-0.3,0-0.5				c-14.8,0.6-29.5,1.2-44.3,1.9c-11.9,0.6-23.8,1-35.6,2.2c-14.1,1.4-28.1,3.2-42.1,5.4c-17,2.8-33.9,5.9-50.8,9.4				c-19.7,4.2-39,10.1-57.9,17.1c-21.7,8.1-42.5,17.7-61.2,31.4c-13.4,9.9-25.2,21.2-31.9,37c-5,12-5.2,24.1-0.6,36.1				c5.4,14.2,15.3,25.1,27.1,34.3c13.1,10.3,27.4,18.5,42.6,25.5c17.7,8.1,35.8,14.8,54.5,19.9c17.9,4.8,36.1,9,54.3,12.7				c13.6,2.8,27.4,4.8,41.2,6.6c13.4,1.8,27,3.1,40.5,4.1c14.1,1,28.3,1.9,42.5,2.1c16.5,0.2,33-0.2,49.5-0.6				c9.7-0.2,19.4-0.7,29.1-1.4c10.9-0.8,21.9-1.7,32.8-2.8c11.6-1.2,23.2-2.4,34.6-4.3c23.6-3.7,47-8.4,69.9-14.9				c29.9-8.4,59-18.8,85.5-35.1c16.2-10,31-21.7,40.6-38.6c7.7-13.5,9.1-27.7,3.5-42.3c-5.4-14.2-15.4-25-27.1-34.3				c-13.1-10.4-27.4-18.5-42.6-25.5c-17.7-8.1-35.8-14.8-54.5-19.9c-18-4.8-36.1-9-54.3-12.7c-13.6-2.8-27.4-4.8-41.2-6.6				c-13.4-1.8-27-3.1-40.5-4.1c-14.3-1-28.5-1.6-42.8-2.1C4119.1,2157.5,4112.1,2157.7,4105.1,2157.7z"></path>			<path class="st5" d="M4410.3,2434.8c2.3-0.7,4.7-1.7,7.1-2c25.4-3.6,50.4-9,74.9-16.8c30.5-9.7,59.6-22.3,88.1-36.9				c15.3-7.9,29.9-17,43.6-27.4c0.3-0.2,0.6-0.4,0.8-0.7c6.2-5.4,5.9-8.8-2-11.1c-13.4-3.9-26.9-7.3-40.5-10.6				c-8.4-2-17-3.3-25.6-4.9c-0.4-0.1-0.8-0.3-1.2-0.5c0.3-0.3,0.7-0.8,1.1-1c3.4-0.7,7-1.2,10.4-1.9c11.8-2.3,23.5-4.6,35.3-7				c9.7-1.9,19.3-3.7,29-5.6c6.3-1.2,12.5-2.8,18.8-4.1c1.2-0.3,2.5-0.6,3.6-1.1c3-1.5,3.4-3.9,1.2-6.3c-0.9-1-1.9-2-2.8-3				c0.3-1.1,0.3-2.3,0.9-3.3c1.4-2.9,5-3,6.6-0.3c0.9,1.4,1.9,2.8,2.6,4.4c1,2.4,1.9,4.6,5.3,3.7c0.3-0.1,1.2,2,1.9,3.1h0.1				c-0.3,0-0.6,0-0.8,0c-0.5,0-1-0.1-1.3,0.1c-1.1,0.4-2.2,1-3.3,1.4c1.1,0,2.2,0.1,3.3-0.1c1.2-0.1,2.4-0.5,3.6-0.8				c0.1,0,0.3-0.1,0.3,0c1.6,0.6,3.1,1.1,4.7,1.7c-1.4,0.8-2.9,1.9-4.5,2.3c-1.9,0.6-3.9,0.6-5.8,0.8c-3.7,0.4-5.9,3-5.7,6.7				c0.1,3.2,0.4,6.3,0.5,9.5c0.1,3.4-1.7,5.9-4.3,7.7c-0.7,0.5-1.2,1.2-1.9,1.9c0.8,0.2,1.7,0.5,2.5,0.7c10.1,2.6,20.2,5.2,30.3,7.9				c1.5,0.4,2.9,1.3,4.3,2c0,0.3,0,0.6,0.1,0.9c-0.8,0-1.7,0.1-2.6,0.1c-1.6-0.3-3.2-0.8-4.8-1.1c-1.8-0.6-3.7-1.1-5.4-1.6				c-0.4-0.1-0.9,0-1.3,0.1c0.4,0.3,0.8,0.7,1.3,0.8c1.8,0.6,3.7,1,5.5,1.5c1.6,0.5,3.2,1,4.8,1.4c1.3,0.8,2.6,1.7,3.9,2.6				c-1.5-0.1-3.1,0-4.6-0.4c-9-2.4-18.1-4.9-27-7.3c-1.4-0.3-2.8-0.7-4.1-1c-0.4-0.2-0.8-0.5-1.2-0.6c-1.2-0.2-2.4-0.3-3.7-0.4				c1.2,0.3,2.6,0.8,3.8,1.1c1.7,0.6,3.5,1.3,5.2,1.9c2,0.8,4,1.5,5.9,2.4c0.6,0.3,1,1.2,1.4,1.8c-1.3-0.1-2.6-0.3-3.9-0.4				c1.4,0.6,2.7,1.1,4.1,1.6c0.1,0,0.2-0.1,0.3-0.1c3.9,1.3,7.9,2.6,11.7,4c0.8,0.3,1.4,1.5,2,2.3c-1,0.1-1.9,0.6-2.8,0.4				c-2.1-0.4-4.2-1.2-5.6,1.5c-0.2,0.3-1.7,0.2-2.6-0.1c-2.3-0.7-4.6-1.5-6.9-2.2c-1.5-0.5-3-1.7-4.6,0.3c-0.3,0.4-2.1-0.1-3.2-0.4				c-4.3-1-8.5-2.1-12.8-3.2c0.1-0.1,0.1-0.1,0.2-0.3c0-0.1-0.1-0.1-0.1-0.2c0,0.1-0.1,0.3-0.1,0.5c-0.7,0.4-1.5,1.3-2.1,1.1				c-1.7-0.5-3.4-1.4-5.1-2c-0.7-0.2-1.8-0.3-2.3,0.1c-0.6,0.5-1.2,1.7-1,2.3c1.9,5-0.6,7.9-4.6,10c-1.3,0.7-2.7,1.3-4,2				c-2.2,1.1-2.8,2.4-1.1,4.6c1.1,1.4,1.7,3.3,2.4,5c-1.7-0.8-3.2-1.7-4.9-2.5c-0.7-0.3-1.4-0.7-2.1-1c0.1,0.8,0.2,1.5,0.3,2.3				c0,0.1,0.1,0.2,0.1,0.3c0.3,1.7,0.6,3.2,0.8,4.9c-1.1-1-2.1-2-3.4-2.8c-0.6-0.4-1.8-0.7-2.4-0.4c-1.7,0.8-3.2,1.9-4.8,2.8				c-1.4,0.9-3,1.8-4.4,2.6c0.9,1.1,2.1,2.1,2.7,3.4c0.7,1.5,1.7,3.7,1,4.8c-2.1,4-5,7.7-7.4,11.4c-0.5,0.7-1.3,1.5-1.2,2.2				c0.9,4.8,0.3,6.8-3.8,9.2c-7.7,4.3-15.4,8.7-23.3,12.4c-9.6,4.5-19.4,8.4-29.2,12.6C4499.9,2434.8,4455.1,2434.8,4410.3,2434.8z				 M4640.5,2327.2c-1.7,1.7-2.1,2.2-2.6,2.8c1,0.4,1.9,1,2.8,1.2c0.3,0.1,1.1-0.7,1-0.9C4641.5,2329.3,4641,2328.4,4640.5,2327.2z"></path>			<path class="st5" d="M3554.3,2294.2c-0.8,0.8-1.5,1.7-2.3,2.5c-2.9,3.2-2.3,5.9,1.9,7.1c4.1,1.2,8.2,1.9,12.3,2.8				c14.1,2.9,28.2,5.9,42.3,8.6c13.1,2.6,26.3,4.9,39.4,7.3c0.3,0.1,0.7,0.1,1,0.2c0.8,0.3,1.5,0.6,2.3,0.9				c-0.8,0.3-1.4,0.7-2.2,0.8c-14.9,3-29.9,5.8-44.7,9.2c-7.9,1.8-15.6,4.6-23.2,7.4c-4.7,1.7-5.3,5-1.4,8				c8.5,6.6,17,13.2,26.2,18.8c23.9,14.6,49.2,26.8,75.3,36.9c27.2,10.5,55.1,19.4,84,24.4c9.2,1.6,18.5,2.9,27.8,4.3				c0.6,0.1,1.1,0.8,1.7,1.3c-36.8,0-73.5,0-110.3,0c-1.1-0.2-2.1-0.6-3.2-0.6c-6.5-0.1-13,0-19.5,0c-17.3-7-35-13.1-50.8-23.3				c-3.9-2.6-7.7-5-5.3-10.7c0.1-0.3-1-1.2-1.4-1.9c-2.5-3.7-5.4-7.2-7.3-11.2c-1.2-2.5,0.3-5.2,2.7-6.8c1.4-1,1.2-1.5-0.1-2.3				c-2.5-1.4-5-2.8-7.4-4.4c-2-1.4-3.1-1.1-4.3,0.9c-0.5,0.8-1.6,1.2-2.4,1.9c0.1-1,0.1-2,0.3-2.9c0.3-1.6,0.7-3.2,1-4.8				c-1.2,0.8-2.6,1.7-3.8,2.6c-0.6,0.4-1,1-1.7,1.2c-0.4,0.2-1.2,0.3-1.4,0c-0.3-0.3-0.3-1.1-0.1-1.5c0.6-1,1.4-2.1,2.3-3				c2-2.3,1.7-3.8-1.2-5.2c-1.5-0.8-3.1-1.4-4.6-2.3c-4.1-2.6-4.7-4.1-3.9-8.8c0.1-0.9-0.3-2.3-0.9-2.9c-0.4-0.5-1.8-0.3-2.6,0				c-1.7,0.6-3.4,1.5-5.1,2c-0.5,0.1-1.3-0.8-1.9-1.2c0.1-0.1,0.3-0.3,0.4-0.4c-0.1,0-0.3,0-0.5-0.1c0,0.1,0.1,0.3,0.1,0.5				c-3.7,0.9-7.2,1.8-10.9,2.6c-2,0.5-4.1,2.5-6.2,0c-0.3-0.3-1.5,0.2-2.3,0.4c-2.6,0.8-5.2,1.9-7.8,2.5c-1,0.2-2.1-0.7-3.2-0.9				c-1.7-0.3-3.4-0.3-5.1-0.4c-0.8-0.1-1.7-0.2-2.5-0.3c0.6-0.7,1-1.8,1.8-2.1c3.9-1.5,7.9-2.8,11.9-4.1c0.1,0,0.3,0.1,0.3,0.1				c1.4-0.6,2.8-1.1,4.2-1.7c-1.4,0.1-2.8,0.2-4.3,0.3c1.8-1.1,3.6-2.2,5.4-3.3c3.2-1,6.4-1.9,9.6-2.9c1.2-0.5,2.3-1,3.5-1.5				c-1.2,0.2-2.4,0.3-3.6,0.6c-3.2,0.8-6.3,1.7-9.6,2.5c-9.7,2.6-19.4,5.1-29,7.6c0-0.5,0.1-1,0.1-1.4c1.9-0.7,3.7-1.4,5.6-2.1				c4.5-1.3,8.9-2.6,13.4-3.9c0.3-0.1,0.6-0.3,0.8-0.5c-0.3-0.1-0.8-0.2-1-0.1c-4.4,1.1-8.8,2.2-13.2,3.4c-1.4,0-2.9,0.1-4.4,0.1				c1.2-0.7,2.3-1.7,3.7-2.1c10.2-2.8,20.4-5.3,30.6-8c1-0.3,1.9-0.6,2.8-0.9c-0.6-0.6-1.2-1.4-1.9-1.9c-3.7-2.4-4.4-5.7-4.3-10.1				c0.1-3.7,1.9-8.1-1.4-11.4c-1-1-2.4-1.9-3.9-2.3c-2.3-0.6-4.8-0.4-7.2-1c-1.2-0.3-2.3-1.4-3.4-2.3c1.2-0.6,2.3-1.3,3.6-1.7				c0.6-0.2,1.4,0.2,2.1,0c0.6-0.1,3.9,1.7,1.2-1.6c-1.3-1.5,0.8-2.4,2.1-2.1c2.5,0.6,3.3-0.5,4.1-2.6s2.1-4,3.4-5.9				c1.7-2.4,5.2-2.1,6.4,0.6C3554.1,2291.8,3554.1,2293,3554.3,2294.2z M3555.6,2341.8c-0.6-0.3-0.9-0.5-1-0.4c-3.5,1-7,2-10.5,3				c-0.3,0.1-0.4,0.5-0.6,0.7c0.5,0.1,1,0.3,1.4,0.2c3-0.9,6.1-1.9,9.1-2.8C3554.4,2342.3,3554.8,2342.2,3555.6,2341.8z				 M3566,2331.7c1.1-0.8,1.9-1.2,2.6-1.8c-0.7-0.5-1.4-1.3-2.1-1.3c-0.7,0.1-1.3,1-1.9,1.5C3565,2330.6,3565.4,2331.1,3566,2331.7z				 M3558.6,2309.6c-0.2-0.1-0.4-0.3-0.6-0.3c-0.2,0.1-0.3,0.3-0.5,0.4c0.2,0.1,0.4,0.1,0.6,0.1				C3558.3,2309.9,3558.4,2309.7,3558.6,2309.6z M3540.6,2302.4c-0.2,0.1-0.3,0.2-0.5,0.3c0.2,0.1,0.4,0.2,0.6,0.2				c0.2,0,0.4-0.1,0.6-0.1C3541.1,2302.6,3540.8,2302.6,3540.6,2302.4z"></path>			<path class="st5" d="M4799.9,2231.2c1.9,1.7,3.7,3.4,5.4,5.2c0.5,0.6,0.4,1.6,0.6,2.4c-0.8-0.2-1.7-0.3-2.3-0.7				c-4-3.2-7.9-6.6-12-9.8c-0.7-0.6-2.3-1-2.6-0.7c-1.3,1.4-2.3,3-3.4,4.6c0.8,0.4,1.7,0.7,2.3,1.3c0.8,0.8,1.4,1.8,2.2,2.7				c-1,0.6-1.9,1.8-2.9,1.8c-2.1,0-3.3,0.6-4.5,2.3c-2.1,3-5.6,1.4-7.7,0.8c-4.6-1.3-7.4,2.4-11.3,2.6c-0.1,0-0.3,0.4-0.5,0.7				c0.3,0.1,0.6,0.2,0.8,0.5c0.9,1,1.8,1.9,2.7,2.9c-1.1,0.9-2,2.2-3.2,2.5c-3.4,0.8-7,1.2-10.5,1.9c-4.9,1-9.8,2.1-14.7,3				c-3.2,0.6-6.6,0.5-9.9,0.8c-0.8,0.1-2.2,0.2-2.3,0.7c-1.4,3.7-4.3,2.8-6.7,2.1c-12.7-3.1-25.4-6.4-38-9.7c-4-1-8-2.1-12-3				c-1.4-0.3-2.8-1.1-2.6,1.7c0.2,3-2.3,4.6-5.1,3.7c-1.6-0.6-3.2-1.4-4.6-2.3c-7.9-5.2-15.7-10.3-23.4-15.7				c-1.1-0.8-1.4-2.8-1.9-4.3c-0.7-2.4,1.8-6.1-2.9-6.9c-0.4-0.1-1-1.4-0.9-1.9c0.2-0.8,1-1.7,1.7-1.9c1.6-0.4,2.3-0.8,1.9-2.8				c-0.1-0.6,1.2-2.1,2.2-2.3c2.1-0.7,4.3,0.2,6-3.1c1.4-2.6,6-3.8,9.4-5.2c1.9-0.8,4.2-1,6.3-1.2c12.1-1.1,24.2-2.5,36.3-3.1				c8.3-0.4,16.8,0.2,25.1,0.4c0.9,0,1.7-0.1,2.6-0.2c-0.6-0.8-1.1-1.7-1.9-2.2c-0.8-0.6-1.9-0.8-2.9-1				c-19.2-4.8-38.3-9.4-57.4-14.3c-2.1-0.5-3.9-1.5-5.9-2.3c2.1-0.1,4.3-0.5,6.5-0.2c4.8,0.6,9.5,1.8,14.3,2.2				c3.1,0.3,6.4-1,9.3-0.4c12.2,2.7,24.3,5.6,36.3,9c3.2,0.9,3.9-1,5.4-2.3c-0.5-0.6-1-1.2-1.5-1.7c-1-0.9-2.1-1.7-3.2-2.6				c1.4,0.1,3-0.2,4.1,0.4c9.8,5.5,21,5.6,31.4,8.5c9.1,2.6,18,5.5,25.7,11.2c4.8,3.5,9.6,7.2,11.4,13.4c0.2,0.8,1.4,1.4,2.2,1.9				c7.8,4.6,15.7,9,23.5,13.5c0.1,0.1,0.5-0.3,0.8-0.4c0,0.5,0,0.9,0,1.4c-3,1.7-4.1-1.7-6.2-2.3c-2.3-1.1-4.6-2.1-6.9-3.2				c-0.2-0.2-0.4-0.5-0.7-0.7c-0.5-0.3-0.9-0.5-1.4-0.8c-0.5-0.2-1-0.4-1.4-0.7c-0.3-0.1-0.6-0.3-0.8-0.5c-0.1,0.1-0.1,0.2-0.2,0.3				c0.3,0.1,0.6,0.1,1,0.3c0.4,0.3,0.9,0.5,1.3,0.8c0.5,0.3,1,0.8,1.5,1.1c0.2,0.1,0.4,0.1,0.7,0.1c2.3,1.4,4.5,2.9,6.8,4.3				c-0.3,2.3-1.5,1.7-2.9,0.9c-2.6-1.4-5.2-2.7-7.8-4c-0.3-0.2-0.6-0.4-0.8-0.6c-0.5-0.1-1-0.3-1.4-0.4c0.2,0.4,0.5,0.8,0.7,1.2				C4799.4,2230.8,4799.6,2231,4799.9,2231.2z M4779.6,2212.9c0.1,0.1,0.3,0.2,0.4,0.3c-0.1-0.1-0.2-0.3-0.3-0.4				c-0.7-0.7-1.4-1.3-2.1-2c-5.4-2.8-10.8-5.6-16.1-8.3c-0.5-0.2-1.2,0-1.7,0c0.4,0.5,0.8,1.1,1.3,1.4c5.2,2.6,10.5,5.2,15.7,7.8				C4777.7,2212,4778.7,2212.4,4779.6,2212.9z M4724.7,2238c12.3-0.8,24.8-1.5,37.3-2.6c3.4-0.3,6.6-1.6,9.9-2.7				c1.4-0.5,2.6-1.6,3.8-2.4c-0.8-0.8-1.4-1.7-2.3-2.4c-1.2-0.9-2.6-1.5-3.9-2.3c-1-0.6-1.9-1.1-2.9-1.7c0.8-0.1,1.9,0.1,2.5-0.2				c1-0.7,1.8-1.7,2.6-2.6c0.5-0.6,1-1.2,1.6-1.6c0.4-0.3,1.1-0.1,1.7-0.1c-0.6-0.4-1-0.8-1.7-1.2c-10-5-20.6-8.1-31.4-10.8				c-16.1-4-32.3-5.3-48.8-4.2c-10.6,0.7-21.2,2.1-31.9,3c-6.1,0.5-12.1,0.6-17.2,4.9c-0.6,0.5-1.1,0.9-1.7,1.4				c0.7-0.1,1.4,0,2.1-0.1c10.1-1.3,20.2-2.7,30.3-3.9c0.8-0.1,1.5,0.3,2.3,0.5c-0.6,0.7-1.2,1.3-1.8,2c-0.8,0.9-2.3,1.7-2.3,2.6				c-0.1,2.1-1.2,2-2.7,2.1c-2.4,0.2-4.8,0.4-7.2,0.7c-0.8,0.1-2.1,0.3-2.3,0.9c-1.2,2.6-3.4,2.1-5.6,2.1c-3.7,0-7.5,0.2-11.2,0.5				c-0.6,0-1,0.6-1.5,1c0.4,0.3,0.8,0.9,1.2,1c12.1,4.8,23.8,10.8,37,12.6c6.8,0.9,13.5,3,20.3,3.5				C4708.7,2238.5,4716.6,2238,4724.7,2238z M4763.6,2207.8c-1.8-1-2.8-1.7-3.9-2.1c-0.3-0.1-0.7,0.2-1,0.3c1,0.6,1.9,1.2,2.9,1.8				C4761.8,2207.9,4762.3,2207.8,4763.6,2207.8z M4782.7,2224.7c-0.3-0.3-0.5-0.7-0.7-0.7c-0.3,0-0.6,0.2-0.8,0.3				c0.2,0.3,0.4,0.6,0.7,0.8C4782,2225.3,4782.3,2224.9,4782.7,2224.7z M4797.4,2229.1l0.1-0.2h-0.2L4797.4,2229.1z"></path>			<path class="st5" d="M3388.9,2233.5c0.3,0.1,0.6,0.5,0.8,0.4c7.9-4.5,15.7-9,23.5-13.5c0.9-0.6,1.7-1.4,2.3-2.3				c2.6-3.4,4.6-7.4,7.8-10.2c10.2-9,22.9-13,35.9-15.5c8.3-1.7,16.6-3.1,24.3-7c0.4-0.2,0.9-0.3,1.3-0.4c1-0.1,2.1-0.1,3.2-0.1				c-0.8,0.7-1.5,1.4-2.3,2.1c-0.8,0.7-1.7,1.4-2.5,2.1c1.7,0.7,1.6,3.4,4.8,2.6c12.3-3.4,24.7-6.2,37-9.2c9.1,2,17.8-1.5,26.7-2.1				c1.1-0.1,2.3,0.4,3.4,0.6c-1.1,0.6-2.1,1.4-3.2,1.7c-4.8,1.2-9.6,2.2-14.4,3.4c-15.1,3.8-30.3,7.7-45.4,11.4				c-0.7,0.1-1.4,0.2-1.9,0.6c-1.1,0.8-2.1,1.9-3.2,2.8c1.2,0.1,2.4,0.3,3.6,0.1c16.3-2.1,32.5,1.2,48.8,2c4.5,0.2,9.1,0,13.4,1.1				c4.9,1.2,10.4,2.8,13.8,6.1c2.3,2.3,4.8,2.1,6.8,3.4c2.3,1.4,2.6,5.1,5.2,6.8c0.1,0.1-0.5,1.8-1,1.9c-4.7,0.8-2.3,4.5-3,6.9				c-0.4,1.5-0.8,3.5-1.9,4.3c-7.7,5.4-15.6,10.6-23.4,15.7c-1.5,1-3.2,1.9-4.9,2.4c-2.6,0.8-5-0.8-4.8-3.4c0.3-3.1-1.2-2.5-3-2				c-11.3,3-22.6,6.1-33.9,9c-5.4,1.4-11,2.6-16.4,3.7c-2.3,0.5-4.9,1-6-2.3c-0.1-0.5-1.5-0.7-2.3-0.7c-5,0.2-9.7-0.4-14.5-2.3				c-2.8-1.2-6.3-0.8-9.5-1.3c-3.7-0.6-7.5-1-11.2-1.9c-1.2-0.3-2.2-1.7-3.2-2.5c0.9-1,1.7-1.9,2.6-2.9c0.3-0.3,0.6-0.5,1-0.8				c-0.4-0.2-0.8-0.4-1.2-0.6c-5-2.2-10.1-3.4-15.5-1.8c-0.1,0-0.3,0.1-0.3,0.1c-3-1.9-6-3.7-9.4-4.9c-1.7-0.6,0.1-2.6,1.6-3.4				c0.8-0.5,3.7-0.3,1.7-2.3c-1.3-1.4-1.6-5.9-5.3-2.9c-4.1,3.2-7.9,6.6-12,9.8c-0.6,0.5-1.5,0.5-2.3,0.8c0.2-0.8,0.1-1.9,0.6-2.4				c1.7-1.9,3.6-3.5,5.4-5.2c0.3-0.2,0.6-0.3,0.8-0.6c0.2-0.4,0.5-0.8,0.7-1.2c-0.5,0.1-1,0.3-1.4,0.4c-0.3,0.2-0.6,0.4-0.8,0.6				c-2.6,1.3-5.2,2.6-7.8,4c-1.3,0.7-2.6,1.4-2.9-0.9c2.3-1.4,4.5-2.9,6.8-4.3c0.2,0,0.5-0.1,0.7-0.1c0.5-0.3,1-0.8,1.5-1.1				c0.4-0.3,0.9-0.5,1.3-0.8c0.3-0.1,0.6-0.2,1-0.3c-0.1-0.1-0.1-0.3-0.2-0.3c-0.3,0.1-0.6,0.3-0.8,0.5c-0.5,0.2-1,0.4-1.4,0.7				c-0.5,0.3-0.9,0.5-1.4,0.8c-0.2,0.2-0.4,0.5-0.7,0.7c-2.3,1.1-4.6,2.1-6.9,3.2c-0.4,0.2-1,0.3-1.2,0.6c-1.3,1.8-3,2.2-5,1.6				C3388.9,2234.4,3388.9,2234,3388.9,2233.5z M3426.8,2212.9c1-0.4,1.9-0.8,2.9-1.2c5.2-2.6,10.5-5.2,15.7-7.8				c0.6-0.3,0.8-0.9,1.3-1.4c-0.6,0-1.3-0.2-1.7,0c-5.4,2.8-10.8,5.5-16.1,8.3c-0.7,0.7-1.4,1.3-2.1,2c-0.1,0.1-0.2,0.3-0.3,0.4				C3426.6,2213.1,3426.7,2213,3426.8,2212.9z M3502.2,2202.7c0,0.1,0,0.1,0,0.2c-1.9,0-3.9-0.1-5.9,0c-21.7,1.3-42.8,5.6-62.5,15.1				c-0.8,0.4-1.6,0.9-2.3,1.3c0.7,0.1,1.4,0.1,2.1,0.4c0.3,0.1,0.6,0.7,0.8,1c1.2,1.5,1.9,3.8,4.7,3c0.2-0.1,0.4,0.1,0.7,0.1				c-0.3,0.3-0.6,0.6-1,0.8c-2.6,1.5-5.2,3-7.6,4.6c-1,0.7-1.9,2,0.3,2.7c3.2,1,6.2,2.6,9.4,3c6.6,1,13.3,1.9,20,2.1				c15,0.5,30.1,1,45,0.4c9-0.3,18.1-2.1,26.8-4.6c10.2-3,20-7.4,29.9-11.2c0.6-0.2,1-0.8,1.5-1.2c-0.6-0.3-1.3-0.9-1.9-1				c-3.7-0.2-7.5-0.2-11.2-0.4c-1.5-0.1-3-0.5-4.5-1c-1.4-0.6-2.8-1.7-4.2-2c-2.2-0.5-4.6-0.4-6.8-0.8c-0.6-0.1-1.7-0.7-1.7-1.1				c-0.1-2.3-1.3-3.2-3.4-3.7c-0.5-0.1-0.7-1.2-1-1.9c0.6-0.1,1.2-0.5,1.7-0.5c4,0.4,8,0.8,12,1.3c6.5,0.9,13,1.9,19.4,2.8				c0.6,0.1,1.1,0,1.6-0.1c-0.2-0.3-0.3-0.6-0.6-0.8c-4.1-2.4-8.1-4.8-13.2-5.1C3534.2,2205.5,3518.2,2204,3502.2,2202.7z				 M3448.4,2206.4c-0.6-0.6-0.9-1-1-0.9c-1.2,0.6-2.3,1.2-3.4,1.9c0.2,0.1,0.4,0.5,0.6,0.5				C3445.7,2207.4,3446.8,2206.9,3448.4,2206.4z M3424.5,2225.4c0.3-0.3,0.6-0.4,0.8-0.6c-0.3-0.3-0.5-0.6-0.8-0.8				c-0.2,0.2-0.5,0.4-0.6,0.7C3424,2224.9,3424.3,2225.1,3424.5,2225.4z M3409.1,2229.1l0.1-0.1l-0.2-0.1L3409.1,2229.1z"></path>			<path class="st4" d="M3661.8,2434.1c6.5,0,13,0,19.5,0c1.1,0,2.1,0.4,3.2,0.6c-7.6,0-15.2,0-22.8,0				C3661.9,2434.6,3661.9,2434.3,3661.8,2434.1z"></path>			<path class="st5" d="M4643.8,2286.6c-2.9-2-5.8-4-8.8-5.9c-9.2-5.8-18.1-12.1-27.8-17.1c-17.7-9.2-35.5-18.1-53.7-26.1				c-22.1-9.8-45-17.8-68.5-23.3c-0.8-0.2-1.5-0.8-2.3-1.1c0.8-0.1,1.6-0.1,2.4-0.1c9.3,0,18.6-0.1,27.9,0.1				c5.6,0.1,11.2,0.4,16.8,0.6c1.2,0,2.3-0.7,3.4-1c-0.7-1-1.1-2.3-2-2.9c-6.3-4.1-12.7-8.2-19.3-11.9c-13-7.2-26.6-12.8-40.8-17				c-15-4.4-29.9-9.4-45.2-13.1c-19.2-4.6-38.7-8.1-58.1-11.9c-13.9-2.7-27.9-5-41.8-7.4c-2.1-0.3-4.3-0.5-6.5-0.8				c-0.7-0.1-1.3-0.5-1.9-0.8c0.7-0.2,1.4-0.5,2.1-0.5c9.2-0.1,18.3-0.1,27.6-0.1c0.9,0,1.9,0.1,2.8,0c0.7-0.1,1.4-0.6,2.1-0.8				c-0.5-0.7-0.8-1.7-1.5-2c-3.7-1.6-7.3-3.6-11.2-4.4c-12.1-2.7-24.3-5-36.6-7.2c-9.2-1.7-18.5-3.1-27.7-4.4				c-9.9-1.4-19.9-2.7-29.9-3.8c-8.3-0.9-16.6-1.4-24.9-2.3c-0.8-0.1-1.4-0.9-2.1-1.4c0.1-7.6,0.1-7.7,7.7-6.8c8.4,1,16.8,2,25.2,3				c0.7,0.1,1.4,0.1,2,0.2c-0.3-0.6-0.6-1.2-0.9-1.7c-1.4-2.2-0.3-3.9,1.4-4.9c1.4-0.8,3.2-1.4,4.8-1.3c5.4,0.5,11,1.1,16.3,2				c13.1,2.2,26.2,4.4,39.3,6.9c5,1,9.9,2.7,14.8,4.3c1,0.3,2.3,1.1,2.6,2c1,3.2,3.2,3.4,6,3c0.8-0.1,2.1,0,2.6,0.6				c2.3,2.9,5.6,2.3,8.6,2.3c4.9-0.1,9.7,0.5,14.8-0.7c4.8-1.1,10.1,0.8,15.3,1.4c17.2,1.9,33.9,6.8,50.7,10.8				c9.3,2.2,18.8,3.9,28.3,5.6c3.7,0.7,6.2,2.2,7.2,5.9c0.2,0.7,0.6,1.6,1.2,1.9c6,2.9,11.9,5.8,18.1,8.3c1.8,0.8,4.1,0.3,6.1,0.4				c1,0.1,2.1,0.1,3,0.6c7.5,3.9,14.8,8.2,22.5,11.7c9.5,4.3,19.3,7.9,29,11.8l0,0c0.9,0.7,1.8,1.4,2.8,2.1c3.9,2.4,8.7,3.9,9.7,9.4				c0.1,0.7,1.2,1.3,1.9,1.9c3.9,3,7.8,6,11.7,9c2,1.6,3.7,3.5,6.9,2.9c1.2-0.2,3,1.1,4.2,2c2.3,1.7,4.4,3.7,6.4,5.7				c1.8,1.8,3.2,3.3,6.4,2.6c1.7-0.3,4.2,1,5.9,2.3c12.9,10.1,24,22,33.7,35c2.4,3.2,3.6,7.4,5.4,11c1.4,2.9,2.8,5.7,4.4,8.5				C4646.2,2281.8,4646.3,2284.3,4643.8,2286.6z"></path>			<path class="st5" d="M3988.1,2120.4c-3.7,0.4-7.4,0.9-11.2,1.3c-19.4,2.3-38.8,4.3-58.1,7.1c-18.7,2.7-37.4,5-55.4,11				c-2.7,0.9-5.4,2.1-7.9,3.3c-0.8,0.3-1.1,1.5-1.7,2.3c0.9,0.3,1.8,1,2.8,1c9.7,0.1,19.4,0.1,29.2,0.1c0.5,0,1,0.2,1.4,0.3				c-0.4,0.1-0.8,0.2-1.3,0.3c-15.7,2.7-31.3,5.4-47,8.2c-14.8,2.7-29.5,5.1-44.1,8.4c-14.7,3.4-29.3,7.4-43.8,11.7				c-18.6,5.4-37.2,11.2-54.2,20.6c-7.3,4.1-14.3,8.6-21.4,13c-1,0.6-1.5,2.1-2.3,3.2c1.2,0.4,2.4,1.2,3.7,1.1				c14.7-0.1,29.4-0.4,44.1-0.6c0.8,0,1.6,0.1,2.3,0.2c-0.6,0.3-1.2,0.9-1.9,1.1c-12.6,3.8-25.3,7.4-37.8,11.4				c-25.4,8.3-49.4,20.1-73.5,31.7c-9.8,4.7-18.9,10.8-28.1,16.5c-6.4,4-12.5,8.6-18.7,12.9c-2.6-2.1-2.7-4.6-1.4-7.4				c2.2-4.6,4.3-9.4,6.6-13.9c1.2-2.6,2.6-5.2,4.4-7.4c9.4-11.9,19.7-23.1,31.5-32.6c2.7-2.1,5.4-3.8,9.1-2.9c0.8,0.2,2-0.8,2.8-1.4				c2.6-2.3,4.9-4.9,7.7-6.8c1.7-1.2,4.1-1.4,6.2-2.2c1-0.3,2.1-0.8,3-1.4c3.9-3,7.9-6,11.8-9c2.1-1.7,4.3-3,5-6.1				c0.3-1.6,2.5-3,4.1-4c2.5-1.6,5.1-3.2,7.9-4.2c14.8-5.5,28.9-12.2,42.5-20.1c2.7-1.5,5.6-2.7,8.4-3.9c0.8-0.3,1.9-0.8,2.6-0.5				c4.9,1.7,8.8-1.2,12.9-2.8c2.6-1,5-2.7,7.7-3.9c2.8-1.3,5.4-2.3,6.4-5.9c0.5-1.7,3.6-3.1,5.7-3.5c7.9-1.6,15.9-2.3,23.7-4.2				c10.6-2.5,20.9-6.2,31.6-8.3c12.6-2.6,25.3-4,38-5.9c6.3,2.8,12.8,0.8,19.2,1c1.5,0.1,3-1.1,4.6-1.6c1.4-0.5,3-1,4.5-1				c2.1-0.1,4.1,0,4.8-2.7c0.3-1,1.7-2,2.8-2.3c4.4-1.5,8.9-3.1,13.5-4c14.6-2.8,29.3-5.5,44-8c4.2-0.7,8.4-0.9,12.7-1.2				c1.2-0.1,2.6,0.1,3.7,0.6c3.6,1.2,4.1,3.9,1.3,6.8c-4.3,0.8-8.6,1.4-12.8,2.3c-0.5,0.1-0.8,0.6-1.3,1c0.4,0.1,0.9,0.2,1.3,0.1				c4.3-0.8,8.7-1.7,13-2.5c11-1.4,22-2.6,33-4.1c2-0.3,2.3,0.5,2.3,2.2C3987.7,2116.5,3987.9,2118.5,3988.1,2120.4z"></path>			<path class="st5" d="M4604.1,2201.6c3.1-0.2,6.1,0.6,6.8,3.9c0.4,1.9-0.3,4.7-1.6,6.1c-2.2,2.3-4.9,4.3-8.8,2.2				c-5.2-2.9-10.7-5.2-16-7.9c-0.6-0.3-1.1-0.8-1.7-1.1c0.6-0.2,1.2-0.6,1.8-0.6C4591.1,2203.2,4597.6,2202.4,4604.1,2201.6z"></path>			<path class="st5" d="M3603,2201.9c5.9,0.8,12.3,1.6,18.8,2.5c0.4,0.1,0.8,0.3,1.2,0.5c-0.3,0.3-0.6,0.6-1,0.8				c-5.8,2.8-11.5,5.7-17.3,8.4c-3.2,1.4-5.8-0.6-7.5-2.8c-1.2-1.4-1.7-4.3-1.2-6.1C3596.6,2202.2,3599.6,2201.7,3603,2201.9z"></path>			<path class="st6" d="M3519.9,2343.9c4.4-1.1,8.8-2.3,13.2-3.4c0.3-0.1,0.7,0.1,1,0.1c-0.3,0.2-0.6,0.4-0.8,0.5				c-4.5,1.3-8.9,2.6-13.4,3.9C3519.9,2344.7,3519.9,2344.4,3519.9,2343.9z"></path>			<path class="st4" d="M3952.6,2116.5c-4.3,0.8-8.7,1.7-13,2.5c-0.4,0.1-0.9-0.1-1.3-0.1c0.4-0.3,0.8-0.9,1.3-1				c4.3-0.8,8.5-1.5,12.8-2.3C3952.4,2115.9,3952.4,2116.2,3952.6,2116.5z"></path>			<path class="st7" d="M3543.2,2341c3.2-0.8,6.3-1.7,9.5-2.5c0,0.3,0.1,0.6,0.1,1c-3.2,1-6.4,1.9-9.6,2.9				C3543.2,2341.9,3543.2,2341.5,3543.2,2341z"></path>			<path class="st7" d="M4811.3,2233.6c-2.3-1.4-4.5-2.9-6.8-4.3l-0.1,0.1c2.3,1.1,4.6,2.1,6.9,3.2				C4811.4,2232.9,4811.4,2233.3,4811.3,2233.6z"></path>			<path class="st7" d="M3402,2229.3c-2.3,1.4-4.5,2.9-6.8,4.3c-0.1-0.3-0.1-0.7-0.1-1C3397.3,2231.5,3399.7,2230.4,3402,2229.3				L3402,2229.3z"></path>			<path class="st8" d="M4670.8,2302.4c-1.2,0.3-2.3,0.6-3.6,0.8c-1.1,0.1-2.2,0.1-3.3,0.1c1.1-0.5,2.2-1,3.3-1.4				c0.4-0.1,0.9-0.1,1.4-0.1c0.2,0.1,0.4,0.3,0.6,0.4c0.1-0.1,0.1-0.3,0.2-0.5h-0.1C4669.8,2301.9,4670.3,2302.2,4670.8,2302.4z"></path>			<path class="st6" d="M3537.9,2345.7c1.4-0.1,2.8-0.2,4.3-0.3c-1.4,0.6-2.8,1.1-4.2,1.7c-0.1,0-0.2-0.1-0.3-0.1				C3537.7,2346.6,3537.8,2346.2,3537.9,2345.7z"></path>			<path class="st6" d="M4683.9,2343.5c1.6,0.3,3.2,0.8,4.8,1.1c0.1,0.4,0.1,0.8,0.1,1.2c-1.6-0.5-3.2-1-4.8-1.4				C4683.9,2344,4683.9,2343.7,4683.9,2343.5z"></path>			<path class="st6" d="M4657,2339.5c1.4,0.3,2.8,0.7,4.1,1c0,0.3,0.1,0.7,0.1,1c-1.7-0.6-3.5-1.3-5.2-1.9				C4656.3,2339.6,4656.6,2339.6,4657,2339.5z"></path>			<path class="st6" d="M4545.3,2186.7c0-0.6,0.1-1.2,0.1-1.9c0.8,0.5,1.6,1,2.4,1.5C4547,2186.4,4546.1,2186.6,4545.3,2186.7				L4545.3,2186.7z"></path>			<path class="st4" d="M4669,2346.9c-0.1,0-0.2,0.1-0.3,0.1c-1.4-0.6-2.7-1-4.1-1.6c1.3,0.1,2.6,0.3,3.9,0.4				C4668.7,2346.2,4668.8,2346.5,4669,2346.9z"></path>			<path class="st7" d="M3661.8,2185.5c-0.8,0.4-1.4,0.7-1.9,0.9c-0.1,0-0.3-0.3-0.5-0.6c0.6-0.3,1-0.7,1.7-1				C3661.1,2184.8,3661.4,2185.1,3661.8,2185.5z"></path>			<path class="st7" d="M3514.3,2347.2c0,0.5-0.1,1-0.1,1.4c-0.3-0.2-0.6-0.3-1-0.6C3513.6,2347.7,3513.9,2347.5,3514.3,2347.2z"></path>			<path class="st6" d="M4691.2,2344.6c0-0.3,0-0.6-0.1-0.9C4691.2,2343.9,4691.2,2344.2,4691.2,2344.6z"></path>			<path class="st8" d="M4105.1,2157.7c7,0,14-0.2,21,0.1c14.3,0.6,28.5,1,42.8,2.1c13.5,1,27,2.3,40.5,4.1				c13.8,1.8,27.6,3.9,41.2,6.6c18.2,3.7,36.3,7.9,54.3,12.7c18.7,5,36.8,11.7,54.5,19.9c15.2,7,29.5,15.2,42.6,25.5				c11.7,9.3,21.7,20.1,27.1,34.3c5.6,14.5,4.1,28.8-3.5,42.3c-9.6,17-24.3,28.6-40.6,38.6c-26.5,16.3-55.6,26.7-85.5,35.1				c-23,6.5-46.4,11.1-69.9,14.9c-11.4,1.8-23,3-34.6,4.3c-10.9,1.1-21.8,2-32.8,2.8c-9.7,0.7-19.4,1.2-29.1,1.4				c-16.5,0.3-33,0.8-49.5,0.6c-14.1-0.2-28.3-1-42.5-2.1c-13.5-1-27-2.3-40.5-4.1c-13.8-1.8-27.6-3.9-41.2-6.6				c-18.2-3.7-36.3-7.9-54.3-12.7c-18.7-5-36.9-11.7-54.5-19.9c-15.2-7-29.5-15.2-42.6-25.5c-11.8-9.3-21.7-20.2-27.1-34.3				c-4.6-12-4.5-24.1,0.6-36.1c6.7-15.7,18.4-27.1,31.9-37c18.8-13.7,39.6-23.3,61.2-31.4c18.9-7,38.2-12.9,57.9-17.1				c16.8-3.7,33.8-6.7,50.8-9.4c13.9-2.3,28-4.1,42.1-5.4c11.8-1.2,23.7-1.6,35.6-2.2c14.8-0.7,29.5-1.2,44.3-1.9				C4105,2157.4,4105,2157.5,4105.1,2157.7z M4102.2,2185.3c0-0.4,0-0.8,0-1.2c-12.8,0.6-25.6,1.1-38.4,1.9				c-9.4,0.6-19,0.9-28.3,2.2c-16.5,2.3-32.9,5-49.2,8.1c-27.4,5.3-53.9,13.7-78.7,26.8c-13.8,7.2-26.7,15.7-36.3,28.3				c-10.5,13.5-13.9,28.8-5.7,45c5.6,11,14.2,19.2,24.1,26.3c14.3,10.2,30,17.5,46.4,23.7c21.6,8.1,43.9,13.7,66.5,17.4				c14.3,2.4,28.9,4.1,43.4,5.6c13,1.3,25.9,2.6,39,2.6c18.7,0.1,37.4-0.4,56-1.3c12.2-0.6,24.3-1.7,36.4-3.4				c16.5-2.3,33-4.9,49.2-8.5c27.2-6.1,53.4-14.8,77.6-29c12.8-7.4,24.5-16.2,32.5-29c6.9-11,9.2-22.8,4.6-35.4				c-4.4-12.3-13-21.2-23-28.9c-16.3-12.5-34.9-21-54.3-27.7c-24.9-8.7-50.5-14.6-76.6-17.9c-16.8-2.1-33.7-4.1-50.7-5.3				C4125.2,2184.6,4113.7,2185.3,4102.2,2185.3z"></path>			<path class="st7" d="M4640.5,2327.2c0.5,1.2,1,2.1,1.2,3c0.1,0.2-0.8,1-1,0.9c-1-0.3-1.9-0.8-2.8-1.2				C4638.4,2329.4,4638.9,2328.9,4640.5,2327.2z"></path>			<path class="st8" d="M4683.9,2343.5c0,0.3,0,0.6,0,0.8c-1.9-0.5-3.7-1-5.5-1.5c-0.5-0.1-0.8-0.6-1.3-0.8c0.4,0,0.9-0.1,1.3-0.1				C4680.3,2342.4,4682.1,2343,4683.9,2343.5z"></path>			<path class="st4" d="M4657,2339.5c-0.3,0.1-0.7,0.1-1,0.1c-1.2-0.3-2.6-0.8-3.8-1.1c1.2,0.1,2.4,0.2,3.7,0.4				C4656.2,2339,4656.5,2339.3,4657,2339.5z"></path>			<path class="st4" d="M3555.6,2341.8c-0.8,0.3-1.2,0.5-1.6,0.6c-3,1-6.1,1.9-9.1,2.8c-0.4,0.1-1-0.1-1.4-0.2				c0.2-0.3,0.3-0.6,0.6-0.7c3.4-1,7-2.1,10.5-3C3554.8,2341.3,3555,2341.5,3555.6,2341.8z"></path>			<path class="st8" d="M3552.8,2339.5c0-0.3-0.1-0.6-0.1-1c1.2-0.2,2.4-0.3,3.6-0.6C3555.2,2338.5,3554.1,2339,3552.8,2339.5z"></path>			<path class="st4" d="M3558.6,2309.6c-0.1,0.1-0.3,0.3-0.5,0.3c-0.2,0-0.3-0.1-0.6-0.1c0.1-0.1,0.3-0.4,0.5-0.4				C3558.1,2309.3,3558.3,2309.5,3558.6,2309.6z"></path>			<path class="st7" d="M4776.7,2211.6c-5.2-2.6-10.5-5.2-15.7-7.8c-0.6-0.3-0.8-0.9-1.3-1.4c0.6,0,1.3-0.2,1.7,0				c5.4,2.8,10.8,5.5,16.1,8.3C4777.4,2211.1,4777.1,2211.3,4776.7,2211.6z"></path>			<path class="st8" d="M4763.6,2207.8c-1.3,0-1.8,0.1-2.1,0c-1-0.6-1.9-1.2-2.9-1.8c0.3-0.1,0.8-0.5,1-0.3				C4760.7,2206.1,4761.8,2206.7,4763.6,2207.8z"></path>			<path class="st6" d="M4776.7,2211.6c0.3-0.3,0.6-0.6,0.9-0.8c0.7,0.7,1.4,1.3,2.1,2l-0.1,0.1				C4778.7,2212.4,4777.7,2212,4776.7,2211.6z"></path>			<path class="st6" d="M4799.1,2230.7c-0.2-0.4-0.5-0.8-0.7-1.2c0.5,0.1,1,0.3,1.4,0.4C4799.5,2230.2,4799.3,2230.4,4799.1,2230.7z				"></path>			<path class="st8" d="M4803.9,2229.2c-0.5-0.3-1-0.8-1.5-1.1l0.1-0.1c0.5,0.3,0.9,0.5,1.4,0.8				C4803.9,2228.9,4803.9,2229,4803.9,2229.2z"></path>			<path class="st8" d="M4801.1,2227.3c0.5,0.2,1,0.4,1.4,0.7l-0.1,0.1C4802,2227.8,4801.5,2227.5,4801.1,2227.3L4801.1,2227.3z"></path>			<path class="st8" d="M4801.1,2227.3c-0.3-0.1-0.6-0.1-1-0.3c0.1-0.1,0.1-0.2,0.2-0.3C4800.6,2226.9,4800.8,2227.1,4801.1,2227.3				L4801.1,2227.3z"></path>			<path class="st6" d="M4779.8,2212.8c0.1,0.1,0.2,0.3,0.3,0.4c-0.1-0.1-0.3-0.2-0.4-0.3				C4779.6,2212.9,4779.8,2212.8,4779.8,2212.8z"></path>			<path class="st7" d="M4803.9,2229.2c0-0.1,0-0.3-0.1-0.5c0.2,0.2,0.4,0.5,0.7,0.7l0.1-0.1				C4804.3,2229.3,4804.1,2229.3,4803.9,2229.2z"></path>			<polygon class="st6" points="4797.4,2229.1 4797.3,2228.9 4797.5,2228.9 			"></polygon>			<path class="st7" d="M3428.8,2210.8c5.4-2.8,10.8-5.6,16.1-8.3c0.5-0.2,1.2,0,1.7,0c-0.4,0.5-0.8,1.1-1.3,1.4				c-5.2,2.6-10.5,5.2-15.7,7.8C3429.4,2211.3,3429.1,2211.1,3428.8,2210.8z"></path>			<path class="st8" d="M3448.4,2206.4c-1.5,0.6-2.8,1-3.9,1.4c-0.1,0.1-0.3-0.3-0.6-0.5c1.2-0.6,2.3-1.2,3.4-1.9				C3447.5,2205.5,3447.8,2205.9,3448.4,2206.4z"></path>			<path class="st6" d="M3428.8,2210.8c0.3,0.3,0.6,0.6,0.9,0.8c-1,0.4-1.9,0.8-2.9,1.2l-0.1-0.1				C3427.4,2212.1,3428.1,2211.4,3428.8,2210.8z"></path>			<path class="st6" d="M3406.7,2229.9c0.5-0.1,1-0.3,1.4-0.4c-0.2,0.4-0.5,0.8-0.7,1.2C3407.2,2230.4,3407,2230.2,3406.7,2229.9z"></path>			<path class="st8" d="M3404.1,2228c-0.5,0.3-1,0.8-1.5,1.1c0-0.1,0-0.3,0.1-0.5c0.5-0.3,0.9-0.5,1.4-0.8L3404.1,2228z"></path>			<path class="st8" d="M3405.4,2227.3c-0.4,0.3-0.9,0.5-1.3,0.8l-0.1-0.1C3404.4,2227.7,3404.9,2227.5,3405.4,2227.3L3405.4,2227.3				z"></path>			<path class="st8" d="M3405.4,2227.3c0.3-0.1,0.6-0.3,0.8-0.5c0,0,0.1,0.2,0.2,0.3C3406,2227.1,3405.7,2227.2,3405.4,2227.3				L3405.4,2227.3z"></path>			<path class="st6" d="M3426.8,2212.9c-0.1,0.1-0.3,0.2-0.4,0.3c0.1-0.1,0.2-0.3,0.3-0.4				C3426.7,2212.8,3426.8,2212.9,3426.8,2212.9z"></path>			<polygon class="st6" points="3409.1,2229.1 3409,2228.9 3409.3,2228.9 			"></polygon>			<path class="st7" d="M3402.6,2228.7c-0.1,0.1-0.1,0.3-0.1,0.5c-0.2,0.1-0.4,0.1-0.7,0.1l0.1,0.1				C3402.2,2229.1,3402.4,2228.9,3402.6,2228.7z"></path>			<path class="st6" d="M4102.2,2185.3c11.4,0,23-0.7,34.3,0.1c17,1.2,33.9,3.2,50.7,5.3c26.1,3.3,51.7,9.2,76.6,17.9				c19.3,6.8,37.9,15.2,54.3,27.7c10,7.7,18.6,16.6,23,28.9c4.6,12.6,2.3,24.4-4.6,35.4c-8,12.8-19.8,21.5-32.5,29				c-24.1,14.2-50.4,22.9-77.6,29c-16.2,3.6-32.7,6.1-49.2,8.5c-12.1,1.7-24.3,2.9-36.4,3.4c-18.6,0.9-37.3,1.4-56,1.3				c-13-0.1-26-1.3-39-2.6c-14.5-1.4-29-3.2-43.4-5.6c-22.7-3.8-45-9.4-66.5-17.4c-16.4-6.1-32.1-13.4-46.4-23.7				c-9.9-7-18.5-15.3-24.1-26.3c-8.1-16.1-4.8-31.4,5.7-45c9.7-12.5,22.5-21,36.3-28.3c24.8-13,51.3-21.4,78.7-26.8				c16.3-3.2,32.8-5.8,49.2-8.1c9.4-1.3,18.9-1.7,28.3-2.2c12.8-0.8,25.6-1.2,38.4-1.9C4102.1,2184.4,4102.1,2184.9,4102.2,2185.3z				 M4102.8,2339.4c11.1-0.8,24.3-1.6,37.6-2.6c15.7-1.2,31-3.7,46.2-7.7c20.5-5.2,40.6-11.6,57.2-25.6c7.2-6.1,12.6-13.4,12.2-23.5				c-0.3-9-5.4-15.7-11.8-21.3c-10.8-9.4-23.6-15.2-37-19.9c-16.3-5.7-33.1-9.8-50.3-11.7c-15.8-1.7-31.6-3.1-47.4-4				c-9.4-0.5-18.8,0.2-28.1,0.6c-8,0.3-16.1,0.3-23.9,1.5c-16.1,2.6-32.2,5.2-48,9c-18.6,4.6-36.6,11.3-51.5,24.1				c-7,6-12.4,13.3-12.1,23.2c0.3,9.2,5.4,16,11.9,21.7c10.8,9.4,23.6,15.2,37,19.8c22.7,7.9,46.1,11.9,69.9,14.2				C4076.6,2338.6,4088.6,2338.7,4102.8,2339.4z"></path>			<path class="st7" d="M4769.2,2219.5c-0.4,0.3-0.7,0.6-1,0.6c-0.2,0-0.3-0.3-0.6-0.6c0.2-0.1,0.5-0.4,0.7-0.5				C4768.5,2219.1,4768.8,2219.3,4769.2,2219.5z"></path>			<path class="st7" d="M3439.1,2219.7c-0.5,0.2-0.8,0.4-1,0.3c-0.3-0.1-0.4-0.4-0.7-0.6c0.3-0.1,0.5-0.3,0.8-0.3				C3438.5,2219.1,3438.7,2219.4,3439.1,2219.7z"></path>			<path class="st7" d="M4102.8,2339.4c-14.2-0.7-26.2-0.8-38.1-2c-23.8-2.3-47.2-6.3-69.9-14.2c-13.4-4.7-26.2-10.4-37-19.8				c-6.5-5.7-11.7-12.4-11.9-21.7c-0.3-9.9,5.1-17.2,12.1-23.2c14.9-12.8,32.9-19.5,51.5-24.1c15.8-3.9,31.9-6.5,48-9				c7.9-1.2,15.9-1.2,23.9-1.5c9.4-0.3,18.8-1.1,28.1-0.6c15.8,0.8,31.7,2.3,47.4,4c17.2,1.9,33.9,6,50.3,11.7				c13.4,4.6,26.2,10.5,37,19.9c6.4,5.6,11.4,12.3,11.8,21.3c0.3,10.1-5,17.4-12.2,23.5c-16.5,14-36.6,20.3-57.2,25.6				c-15.2,3.9-30.5,6.5-46.2,7.7C4127.1,2337.8,4113.9,2338.6,4102.8,2339.4z"></path>		</g>	</g>	<rect x="4630.4" y="2327.1" class="st5" width="62.8" height="20.7"></rect>	<rect x="4662.8" y="2183.6" class="st5" width="149.4" height="131.4"></rect>	<rect x="3390.6" y="2201.3" class="st5" width="149.4" height="131.4"></rect>	<rect x="3506" y="2307.2" class="st5" width="54.5" height="49.5"></rect>	<rect x="3655.6" y="2427" class="st5" width="36.6" height="7.7"></rect>	<rect x="3659.2" y="2182.9" class="st5" width="5.6" height="7.4"></rect>	<rect x="4543.5" y="2182.7" class="st5" width="7.4" height="8.6"></rect>	<ellipse class="st5" cx="3945" cy="2116.1" rx="13.6" ry="7.4"></ellipse>	<g>		<g>			<path class="st9" d="M4761.5,1587.7c0.8,0.3,1.5,0.4,2.2,0.8c25.9,15.7,53.6,27.6,82.3,37.1c26.4,8.8,53.4,15.4,80.3,21.9				c22.4,5.4,45,10.8,67.7,14.5c29.5,4.9,59.2,8.7,89,12.2c25.7,3,51.4,5.8,77.2,7.3c24.9,1.5,49.9,1.7,74.7,1.7				c19,0,37.9-1.2,56.9-1.9c1.7-0.1,2.9,0.1,3.8,2c10.9,24.2,25.9,46,40.9,67.7c10.1,14.7,19.7,29.7,29.7,44.5				c15.4,23,33.2,44.3,51.1,65.4c16.1,18.9,32.5,37.5,50.4,54.7c30.8,29.4,63,57.4,99.7,79.2c22.4,13.3,45.6,25.2,68.5,37.7				c2.3,1.3,5,2.1,8.4,3.5c-3.3,1-5.8,1.9-8.2,2.6c-50.5,14.3-101,28.5-151.5,42.8c-12.3,3.4-24.6,6.9-37,10.5				c-26.2,7.5-52.3,15.3-78.6,22.7c-24.3,6.9-48.7,13.4-73.1,20.1c-52.1,14.2-104.1,28.3-156.2,42.5c-21.7,5.9-43.2,11.7-64.8,17.7				c-3.4,1-6.1,0.5-9-1.4c-20.3-12.8-37.8-29.2-55.2-45.6c-23.9-22.5-43.9-48.5-64-74.3c-13.7-17.4-26.1-35.6-37.1-54.8				c-0.5-0.9-1.2-1.7-1.8-2.5c-1.2-2.2-2.3-4.5-3.5-6.6c-10-17.7-20.4-35.2-30-53c-5.9-11-11-22.5-16.1-34.1				c-8.2-18.8-16.3-37.7-24-56.7c-5.7-13.9-11-28-16.1-42.2c-5.1-14.1-10.2-28.1-14.5-42.4c-6.8-22.5-13.1-45.3-19.5-68				c-3-10.8-6.3-21.4-8.8-32.3c-3-13.7-5.3-27.4-7.8-41.2C4764.6,1622.6,4762,1605.2,4761.5,1587.7z"></path>			<path class="st10" d="M4761.5,1587.7c0.5,17.6,3,34.9,6.1,52.1c2.4,13.8,4.8,27.6,7.8,41.2c2.4,10.9,5.7,21.6,8.8,32.3				c6.4,22.7,12.7,45.4,19.5,68c4.3,14.3,9.4,28.3,14.5,42.4c5.2,14.1,10.5,28.3,16.1,42.2c7.8,19,15.8,37.9,24,56.7				c5,11.5,10.1,23,16.1,34.1c9.7,17.9,20,35.4,30,53c1.2,2.1,2.3,4.4,3.5,6.6c-7.6,0.8-15.2,1.8-22.8,2.6c-19,2-37.9,4-56.9,5.9				c-16.6,1.7-33.2,3.4-49.8,5.1c-19.1,1.9-38.2,3.9-57.3,5.9c-18.5,1.9-37,3.8-55.6,5.7c-23.7,2.4-47.2,4.9-70.9,7.4				c-18.5,1.9-37,3.9-55.6,5.7c-17.2,1.7-34.3,3.2-51.5,4.8c-2.8,0.3-5.6,0-8.1,0c7-3.6,14.1-7.2,21.3-11				c23.7-12.3,44.5-28.8,64.5-46.2c27.4-23.9,50.4-51.4,70-81.8c14.1-22,28.2-44.1,39.4-67.9c14.1-29.7,27-59.8,38.1-90.7				c7.3-20.5,14.8-40.9,21-61.6c5.9-19.9,10.6-40.2,15.4-60.4c3.9-16.2,7.3-32.5,11-48.8C4760.4,1589.8,4761,1588.8,4761.5,1587.7z"></path>		</g>	</g>	<g>		<g>			<path class="st10" d="M3785.7,1622.9c0.1-0.8,0.3-1.5,0.5-2.3c0.3,0,0.6-0.1,0.8-0.1c1,5,2,10.1,3.2,15				c4.3,18.2,8.5,36.4,12.9,54.6c4.3,18.2,8.4,36.5,13.4,54.5c9.7,34.8,20.2,69.4,33.4,103c8.1,20.5,16.5,41,25.7,61.1				c12.3,27.2,28.3,52.2,47.4,75.2c3.4,4.1,7,8.2,10.8,12.6c-3.3,0-6.4,0.2-9.4,0c-27.3-1.9-54.7-3.9-82-5.8s-54.7-3.9-82-5.8				c-24.2-1.7-48.4-3.4-72.6-5c-3.5-0.2-6.1-1.4-7.9-4.6c-3-5.5-6.2-10.9-9.3-16.3c0.1-0.5,0.2-1,0.4-1.4				c6.6-12.8,13.8-25.4,19.8-38.6c10.3-22.5,20.3-45,29.6-67.9c10.5-25.9,20.9-51.9,29.8-78.4c9-26.9,16.9-54.3,23.9-81.8				c5-19.7,8-39.8,11.7-59.7C3786.3,1628.5,3785.8,1625.7,3785.7,1622.9z"></path>			<path class="st9" d="M3785.7,1622.9c0.1,2.8,0.6,5.6,0.1,8.3c-3.7,19.9-6.6,40.1-11.7,59.7c-7,27.5-14.9,54.9-23.9,81.8				c-8.9,26.5-19.2,52.5-29.8,78.4c-9.3,22.9-19.3,45.5-29.6,67.9c-6,13.2-13.2,25.8-19.8,38.6c-0.2,0.4-0.3,0.9-0.4,1.4				c-4.1,5.9-8.1,11.9-12.4,17.7c-8.3,11.2-16.9,22.3-25.3,33.5c-2,2.6-4,3.2-7.4,2.5c-38.2-8.4-76.5-16.6-115.1-25				c0.6-0.8,1-1.5,1.6-2c17.7-15.5,32.1-33.8,45.6-52.9c18.7-26.4,34.8-54.3,47-84.3c3.8-9.4,7.4-18.9,10.8-28.5				c1.2-3.2,3-5.6,5.9-7.4c17.7-11.4,34.3-24.3,49.8-38.5c18.3-16.8,35.9-34.5,51.1-54.3c12.5-16.3,25.5-32.3,36.8-49.4				C3768.9,1655.3,3776.8,1638.9,3785.7,1622.9z"></path>		</g>	</g>	<g>		<g>			<path class="st9" d="M3279.1,2035.8c-1.7,1.7-3.6,3.2-5.1,5c-12.5,14.3-24.8,29-37.5,43c-9,9.9-18.6,19.3-28.1,28.8				c-1,1-3,1.7-4.6,1.7c-21-1.7-42.1-3.4-63.1-5.2c-14-1.2-28.1-2.4-42.1-3.7c-27.9-2.5-55.9-5-83.8-7.5				c-24.7-2.2-49.4-4.3-74.1-6.5c-27-2.4-54-4.9-81-7.3c-16.7-1.5-33.3-2.9-50-4.3c-21.5-1.9-43-3.8-64.5-5.7				c-0.6-0.1-1.2-0.3-2.5-1.4c0.7-0.4,1.4-0.7,2.1-1.2c36-25,68.3-54.2,99.2-85.1c17.7-17.7,35.2-35.4,50.1-55.4				c18.5-24.9,36.3-50.3,51.5-77.5c13.9-24.8,25.5-50.5,35.6-76.9c0.8-2.2,2.1-2.6,4.1-2.6c29.4-0.3,58.7-2.3,87.4-8.6				c27.4-5.9,54.5-13.2,81.4-20.9c37-10.6,72.6-25,107.9-40.3c40.3-17.4,79.4-36.6,116.5-60c19.9-12.5,39.6-25.4,59-38.8				c10.8-7.6,20.6-16.7,30.8-25.2c0.3-0.3,0.7-0.6,1.7-1.4c0,2.1,0,3.7,0,5.2c-0.4,0.4-1.2,0.8-1.2,1.3c-1.2,6.7-2.2,13.4-3.5,20				c-4.6,23.1-8.5,46.3-13.9,69.2c-5.6,23.6-12.4,46.9-19.1,70.2c-4.3,15-8.6,29.9-14,44.5c-7.4,20.3-15.5,40.4-23.9,60.3				c-6.6,15.5-13.3,31-21.2,45.8c-7.9,15-17,29.3-26.1,43.5c-10.4,16.3-21.2,32.3-32.3,48.2c-8.2,11.8-17,23.2-25.6,34.8				C3286,2026.4,3282.5,2031.1,3279.1,2035.8z M3213.6,2103c-0.1-0.1-0.1-0.4-0.3-0.4c-0.2,0-0.3,0.1-0.6,0.2				c0.1,0.2,0.2,0.4,0.3,0.6C3213.2,2103.3,3213.4,2103.2,3213.6,2103z"></path>			<path class="st10" d="M3279.1,2035.8c3.4-4.7,7-9.4,10.4-14.1c8.6-11.6,17.4-22.9,25.6-34.8c11-15.9,21.9-31.9,32.3-48.2				c9.1-14.3,18.1-28.6,26.1-43.5c7.9-14.8,14.7-30.3,21.2-45.8c8.4-19.9,16.5-40,23.9-60.3c5.4-14.5,9.7-29.5,14-44.5				c6.7-23.3,13.5-46.6,19.1-70.2c5.4-22.9,9.4-46.1,13.9-69.2c1.3-6.6,2.3-13.3,3.5-20c0.1-0.5,0.8-0.9,1.2-1.3				c0.9,6,2.1,12,2.7,18c4.1,38,9.5,75.7,17.7,113.1c7.2,33,15.1,65.6,26.1,97.6c10.6,30.7,22.4,60.9,38.3,89.3				c19.8,35.3,41.7,69.2,68.8,99.5c7.2,8.1,16.1,14.9,24.5,21.9c9.3,7.7,19,15,29.1,22.8c-3.1-0.1-5.8-0.3-8.4-0.3				c-16.5-0.3-33-0.6-49.5-1c-19.9-0.4-39.7-1-59.5-1.4c-17.3-0.4-34.6-0.9-51.9-1.3c-18.9-0.5-37.9-1-56.8-1.4				c-17.8-0.5-35.5-0.9-53.3-1.4c-18.2-0.5-36.5-1-54.7-1.4c-18.3-0.5-36.7-0.9-55-1.4C3285.3,2036.3,3282.2,2036,3279.1,2035.8z"></path>			<path class="st10" d="M3213.6,2103c-0.1,0.1-0.3,0.3-0.4,0.4c-0.1-0.2-0.2-0.4-0.3-0.6c0.2-0.1,0.3-0.2,0.6-0.2				C3213.4,2102.6,3213.4,2102.9,3213.6,2103z"></path>		</g>	</g>	<g>		<g>			<path class="st2" d="M2858,2070.3c0,6.3,0,12.6,0,19.3c-6.5,0-12.9,0-19.2,0c0-16.1,0-32.1,0-48.3c3.1,0,6.1,0,9.5,0				c0,9.7,0,19.1,0,29C2851.8,2070.4,2854.9,2070.4,2858,2070.3L2858,2070.3z"></path>			<path class="st2" d="M5176.5,2157.2c0,6.4,0,12.9,0,19.3c-6.4,0-12.9,0-19.3,0c0-9.7,0-19.3,0-29l-0.1,0.1c3.1,0,6.1,0,9.6,0				c0,3.1,0,6.1,0,9.7C5170.3,2157.3,5173.4,2157.3,5176.5,2157.2L5176.5,2157.2z"></path>			<path class="st2" d="M4667.9,1989c0,6.3,0,12.6,0,19.1c-3.2,0-6.2,0-9.7,0c0-6.3,0-12.7,0-19.1				C4661.5,1989,4664.8,1989,4667.9,1989z"></path>			<path class="st2" d="M5353.1,2109.6c-3.2,0-6.4,0-9.7,0l0.1,0.1c0-3.1,0-6.1,0-9.7c3.2,0,6.4,0,9.6,0				C5353.1,2103.2,5353.1,2106.5,5353.1,2109.6z"></path>			<path class="st2" d="M3023.4,2084.1c0,6.3,0,12.6,0,19.1c-9.6,0-19,0-28.9,0c0-6.3,0-12.7,0-19.1l-0.1,0.1c3.1,0,6.1,0,9.5,0				c0-16.1,0-31.9,0-48.1c3.3,0,6.3,0,9.7,0c0,15.9,0,31.7,0,48.1C3017.1,2084.2,3020.3,2084.2,3023.4,2084.1				C3023.5,2084.2,3023.4,2084.1,3023.4,2084.1z"></path>			<path class="st2" d="M4659,2027.7c3.1,0,6.1,0,9.6,0c0-6.4,0-12.7,0-19.1c3.3,0,6.3,0,9.7,0c0,6.2,0,12.4,0,19.1				c3.4,0,6.6,0,9.8,0l-0.1-0.1c0,6.3,0,12.6,0,19.1c-9.6,0-19,0-28.9,0C4659,2040.4,4659,2034,4659,2027.7				C4659,2027.6,4659,2027.7,4659,2027.7z"></path>			<path class="st2" d="M5314.4,2119.4c3.1,0,6.1,0,9.5,0c0-9.7,0-19.1,0-28.8c3.3,0,6.3,0,9.7,0c0,6.2,0,12.4,0,19.1				c3.4,0,6.6,0,9.8,0l-0.1-0.1c0,6.3,0,12.6,0,19.1c-9.6,0-19,0-28.9,0C5314.5,2125.6,5314.5,2122.5,5314.4,2119.4L5314.4,2119.4z"></path>			<path class="st2" d="M3033,2064.8c0,6.3,0,12.7,0,19.3c-3.4,0-6.6,0-9.7,0l0.1,0.1c0-6.3,0-12.6,0-19.3				C3026.8,2064.9,3029.9,2064.9,3033,2064.8L3033,2064.8z"></path>			<path class="st2" d="M5147.7,2128.3c3,0,6.1,0,9.7,0c0,6.5,0,12.9,0,19.3l0.1-0.1c-3.1,0-6.1,0-9.7,0				C5147.7,2141,5147.7,2134.6,5147.7,2128.3L5147.7,2128.3z"></path>			<path class="st2" d="M5176.6,2157.3c0-6.3,0-12.6,0-19.1c3.1,0,6.1,0,9.4,0c0,6.2,0,12.4,0,19				C5182.9,2157.2,5179.7,2157.2,5176.6,2157.3C5176.5,2157.2,5176.6,2157.3,5176.6,2157.3z"></path>			<path class="st2" d="M4649.4,2017.9c-3.1,0-6.1,0-9.4,0c0-3.1,0-6.1,0-9.4c3,0,6,0,9.4,0				C4649.3,2011.7,4649.3,2014.9,4649.4,2017.9L4649.4,2017.9z"></path>			<path class="st2" d="M4649.3,2018c3,0,6.1,0,9.7,0c0,3.2,0,6.5,0,9.7l0.1-0.1c-3.1,0-6.1,0-9.7,0				C4649.4,2024.3,4649.4,2021.1,4649.3,2018C4649.4,2017.9,4649.3,2018,4649.3,2018z"></path>			<path class="st2" d="M4688,2027.6c0-3.1,0-6.1,0-9.4c3.2,0,6.1,0,9.4,0c0,3,0,6,0,9.4C4694.2,2027.6,4691.1,2027.6,4688,2027.6				C4687.9,2027.6,4688,2027.6,4688,2027.6z"></path>			<path class="st2" d="M3033.1,2064.9c0-3.1,0-6.1,0-9.4c3.2,0,6.1,0,9.4,0c0,3,0,6,0,9.4				C3039.4,2064.8,3036.2,2064.8,3033.1,2064.9C3033,2064.8,3033.1,2064.9,3033.1,2064.9z"></path>			<path class="st2" d="M2858.1,2070.4c0-3.1,0-6.1,0-9.4c3.2,0,6.1,0,9.4,0c0,3,0,6,0,9.4				C2864.3,2070.3,2861.1,2070.3,2858.1,2070.4C2858,2070.3,2858.1,2070.4,2858.1,2070.4z"></path>			<path class="st2" d="M2984.9,2074.5c-3.1,0-6.1,0-9.4,0c0-3.2,0-6.1,0-9.4c3,0,6,0,9.4,0				C2984.8,2068.2,2984.8,2071.4,2984.9,2074.5L2984.9,2074.5z"></path>			<path class="st2" d="M2984.8,2074.5c3,0,6.1,0,9.7,0c0,3.2,0,6.5,0,9.7l0.1-0.1c-3.1,0-6.1,0-9.7,0				C2984.9,2080.8,2984.9,2077.6,2984.8,2074.5C2984.9,2074.5,2984.8,2074.5,2984.8,2074.5z"></path>			<path class="st2" d="M5314.5,2119.3c-3.1,0-6.1,0-9.4,0c0-3.2,0-6.1,0-9.4c3,0,6,0,9.4,0				C5314.4,2113,5314.4,2116.2,5314.5,2119.3C5314.4,2119.4,5314.5,2119.3,5314.5,2119.3z"></path>			<path class="st2" d="M5147.7,2128.3c-3.1,0-6.1,0-9.4,0c0-3.2,0-6.1,0-9.4c3,0,6,0,9.4,0				C5147.7,2122,5147.7,2125.1,5147.7,2128.3C5147.7,2128.3,5147.7,2128.3,5147.7,2128.3z"></path>		</g>	</g>	<g>		<g>			<g>				<path class="st2" d="M8085.2,1450.4c-4.3,0-8.6,0-12.8,0c0,4.1,0,8.3,0,13.1c-4.8,0-8.7,0-13.2,0c0,8.8,0,17,0,25.5					c-4.4,0-8.1,0-12.6,0c0,8.6,0,16.8,0,25.5c-4.6,0-8.5,0-13,0c0,4.6,0,8.5,0,13c-4.6,0-8.5,0-12.3,0c0,4.3,0,8.1,0,12.5					c8.5,0,16.7,0,25,0c0,4.6,0,8.5,0,13c-4.3,0-8.2,0-12.8,0c0,4.6,0,8.5,0,13c-4.6,0-8.5,0-12.8,0c0,4.4,0,8.1,0,12.5					c-4.3,0-8.2,0-12.8,0c0,4.6,0,8.5,0,13c-4.6,0-8.4,0-12.1,0c0,8.8,0,17,0,25c4.3,0,8,0,12.4,0c0-4.2,0-8.1,0-12.1					c4.6,0,8.5,0,13,0c0,4.3,0,8.2,0,12.8c4.6,0,8.5,0,12.1,0c0,4.6,0,8.5,0,12.8c-4.3,0-8.1,0-12.4,0c0,4.3,0,8.2,0,12.8					c-4.6,0-8.5,0-13,0c0,4.6,0,8.5,0,13c-4.6,0-8.5,0-12.8,0c0,4.3,0,8.1,0,12.5c-4.3,0-8.2,0-12.8,0c0,4.6,0,8.5,0,12.8					c-4.6,0-8.6,0-12.7,0c0,4.3,0,8.6,0,12.8c8.4,0,16.9,0,25.9,0c0-4.8,0-8.7,0-12.3c4.6,0,8.5,0,12.8,0c0,4.3,0,8,0,12.4					c4.3,0,8.2,0,12.2,0c0,4.6,0,8.4,0,13c-4.3,0-8.2,0-12.8,0c0,4.6,0,8.5,0,13c-4.6,0-8.5,0-12.8,0c0,4.3,0,8.1,0,12.5					c-4.3,0-8.2,0-12.8,0c0,4.6,0,8.5,0,12.7c-4.6,0-8.6,0-12.7,0c0,8.6,0,17.1,0,25.6c4.3,0,8.6,0.1,12.9,0.1c0-4.1,0-8.3,0-12.5					c4.6,0,8.5,0,12.3,0c0,4.3,0,8.2,0,12.3c-4.5,0-8.5,0-12.5,0c0,4.2,0,8.3,0,12.9c-4.7,0-8.7,0-12.7,0c-7.8,36,6,45.6,42.3,43.2					c58.3-3.8,116.9-1,175.4-1c0-5.4,0-10.9,0-17c-4.8,0-8.7,0-13.2,0c0-8.8,0-17,0-25.5c-4.4,0-8.1,0-12.6,0c0-4.3,0-8.2,0-12.8					c-4.6,0-8.5,0-12.3,0c0-4.6,0-8.5,0-13c4.3,0,8.3,0,12.1,0c0-4.3,0-8.1,0-12.5c-4.2,0-8.1,0-12.6,0c0-8.8,0-17,0-25.8					c-4.6,0-8.5,0-12.6,0c0-4.6,0-8.6,0-12.7c-4.2,0-8.3,0-12.5,0c0-4.6,0-8.5,0-12.3c4.3,0,8.3,0,12.3,0c0,4.4,0,8.5,0,12.5					c8.4,0,16.9,0,25.3,0c0-9.1,0-17.2,0-26.1c-4.3,0-8.3,0-12.8,0c0-8.8,0-17,0-25.5c-4.4,0-8.1,0-12.1,0c0-4.3,0-8.2,0-12.8					c4.3,0,8.2,0,12.1,0c0-4.6,0-8.5,0-13c-4.3,0-8.3,0-12.5,0c0-4.3,0-8.1,0-12.5c-4.3,0-8.2,0-12.8,0c0-4.6,0-8.5,0-13					c-4.6,0-8.5,0-12.6,0c0-4.6,0-8.6,0-12.7c-4.2,0-8.3,0-12.5,0c0-4.6,0-8.5,0-12.3c4.3,0,8.3,0,12.3,0c0,4.4,0,8.5,0,12.5					c8.4,0,16.9,0,25.3,0c0-9,0-17.2,0-26c-4.3,0-8.3,0-12.8,0c0-4.6,0-8.4,0-12.7c-4.3,0-8.1,0-12.5,0c0-12.8,0-25.2,0-38.3					c-4.5,0-8.4,0-12.9,0c0-13,0-25.5,0-38.5c-4.5,0-8.4,0-12.7,0C8085.2,1467,8085.2,1458.7,8085.2,1450.4z M8123.5,1668.2					c4.1,0,8.3,0,12.5,0c0,4.6,0,8.4,0,12.3c-4.3,0-8.2,0-12.3,0c0-4.4,0-8.4,0-12.5c-4.2,0-8.3,0-12.5,0c0-4.6,0-8.5,0-12.3					c4.3,0,8.3,0,12.3,0C8123.5,1660.1,8123.5,1664.2,8123.5,1668.2z"></path>			</g>		</g>	</g>	<g>		<g>			<g>				<path class="st2" d="M7856.9,1212c-4.8,0-9.4,0-14.2,0c0,9.4,0,18.8,0,28.8c-5.2,0-9.6,0-14.6,0c0,5,0,9.4,0,14.1					c-4.8,0-9,0-13.9,0c0,9.5,0,18.6,0,28.4c-5,0-9.4,0-14.4,0c0,5,0,9.4,0,14.4c-5,0-9.4,0-14.4,0c0,5,0,9.4,0,14.1					c-4.8,0-9,0-13.9,0c0,4.8,0,9.2,0,14.2c-5,0-9.4,0-13.7,0c0,9.8,0,18.9,0,28.4c4.9,0,9.4,0,13.9,0c0-4.6,0-9.3,0-13.9					c5.1,0,9.4,0,13.7,0c0,4.8,0,9.2,0,13.7c-5,0-9.4,0-13.9,0c0,14.1,0,28.3,0,43.1c-5,0-9.4,0-14.4,0c0,5,0,9.4,0,14.4					c-5,0-9.4,0-14.1,0c0,4.9,0,9.1,0,13.9c-4.8,0-9.1,0-13.5,0c0,9.8,0,18.9,0,27.9c4.8,0,9.2,0,14.1,0c0-4.8,0-9.2,0-13.4					c4.9,0,9,0,13.9,0c0,4.7,0,9,0,14.1c5,0,9.4,0,13.7,0c0,5,0,9.4,0,14.4c-4.8,0-9.2,0-14.1,0c0,9.8,0,18.9,0,28.4					c-4.9,0-9,0-13.9,0c0,4.8,0,9.2,0,14.2c-5,0-9.4,0-14.4,0c0,5,0,9.4,0,14.4c-5,0-9.4,0-14.1,0c0,9.7,0,18.5,0,28.1					c-4.8,0-9.2,0-13.6,0c0,5,0,9.4,0,14.4c4.8,0,9.1,0,13.3,0c0,14.5,0,28.4,0,42.9c-4.8,0-9.2,0-14,0c0,4.9,0,9,0,13.9					c-4.8,0-9.1,0-14.1,0c0,5,0,9.4,0,14.1c-5.1,0-9.6,0-14.1,0c0,9.5,0,19,0,28.5c4.6,0,9.2,0,14.5,0c0,5.3,0,9.7,0,14.7					c5,0,9.4,0,13.6,0c0,4.9,0,9,0,13.9c-4.7,0-9,0-14.1,0c0,5,0,9.4,0,14.1c-5.1,0-9.6,0-14.1,0c0,36.8-0.1,73.6,0.2,110.4					c0,1.7,3.1,4.8,4.8,4.8c101,0.2,201.9,0.3,302.9-0.4c1.7,0,3.3-9.8,5-15c-4.6,0-9.2,0-14.5,0c0-14.8,0-28.7,0-43					c-4.9,0-9.1,0-13.5,0c0-4.8,0-9.2,0-14.2c4.7,0,9.1,0,13.4,0c0-9.8,0-18.9,0-28.7c-4.8,0-9.2,0-13.9,0c0-4.9,0-9.1,0-13.9					c-4.8,0-9.1,0-14.1,0c0-9.8,0-18.9,0-28.7c-5,0-9.4,0-13.5,0c0-9.8,0-18.9,0-27.9c4.7,0,8.9,0,13.8,0c0,4.7,0,9,0,13.4					c9.8,0,18.9,0,27.9,0c0-9.6,0-18.7,0-28.5c-4.8,0-9.2,0-14,0c0-4.9,0-9.1,0-13.9c-4.8,0-9.2,0-14.1,0c0-5,0-9.4,0-14.5					c-5,0-9.4,0-14.4,0c0-19.3,0-37.9,0-57c-4.9,0-9.1,0-13.9,0c0-4.8,0-9.2,0-14.2c-5,0-9.4,0-14,0c0-9.9,0-19.1,0-28.3					c-4.6,0-9.2,0-13.9,0c0-5.1,0-9.4,0-13.7c4.8,0,9.2,0,13.7,0c0,5,0,9.4,0,13.9c9.4,0,18.8,0,28.1,0c0-10.1,0-19.2,0-29					c-4.8,0-9.2,0-14,0c0-4.9,0-9,0-13.9c-4.8,0-9.1,0-14.1,0c0-9.8,0-18.9,0-28.7c-5,0-9.4,0-13.6,0c0-9.8,0-18.9,0-27.9					c4.7,0,8.9,0,13.7,0c0,4.7,0,9,0,14.1c5,0,9.4,0,14.4,0c0,5,0,9.4,0,13.6c5,0,9.4,0,13.4,0c0-9.7,0-18.8,0-28.3					c-4.8,0-9,0-13.2,0c0-4.8,0-9.2,0-14.2c4.8,0,9.1,0,13.3,0c0-5,0-9.4,0-14.2c-4.7,0-8.9,0-13.7,0c0-9.5,0-18.7,0-28.4					c-5,0-9.4,0-14.4,0c0-5,0-9.4,0-14.5c-5,0-9.4,0-14.4,0c0-14.5,0-28.4,0-42.7c-4.9,0-9,0-13.9,0c0-9.5,0-18.7,0-28.4					c-5,0-9.4,0-14.1,0C7856.9,1249.4,7856.9,1230.7,7856.9,1212z"></path>			</g>		</g>	</g>	<g>		<g>			<g>				<path class="st2" d="M158,1379.7c0,3.6,0,7.2,0,11.3c3.7,0,7.2,0,11.2,0c0,4,0,7.5,0,11.4c3.9,0,7.2,0,11.1,0					c0,3.8,0,7.3,0,11.3c4,0,7.5,0,11.4,0c0,7.8,0,15.1,0,22.8c-3.4,0-7,0-11,0c0-3.6,0-7,0-10.8c-3.9,0-7.2,0-11,0					c0,7.2,0,14.5,0,22.3c3.3,0,6.8,0,10.9,0c0,8.1,0,15.6,0,23.1l0.1-0.1c-3.7,0-7.4,0-11.1,0c0,4.2,0,7.7,0,11.5					c3.9,0,7.5,0,11.1,0l-0.1-0.1c0,3.7,0,7.4,0,11.1c4.2,0,7.7,0,11.5,0c0-3.9,0-7.5,0-11.1l-0.1,0.1c3.6,0,7.2,0,11.1,0					c0,11.3,0,22.4,0,34.1c-3.5,0-7,0-10.8,0c0,3.9,0,7.2,0,11.2c7.1,0,14.4,0,22.2,0c0,4,0,7.5,0,11.5c4,0,7.5,0,11.6,0					c0,4,0,7.5,0,11.6c4,0,7.5,0,11.4,0c0,7.7,0,14.8,0,22.5c3.8,0,7.3,0,11.2,0c0,7.8,0,15.1,0,23.2c-3.7,0-7.4,0-11.1,0					c0-3.7,0-7.3,0-11.4c-4.1,0-7.7,0-11.4,0c0-3.8,0-7.6,0-11.4c-4.3,0-7.9,0-11.4,0c0-3.7,0-7.4,0-11.1c-4.1,0-7.6,0-11,0					c0,3.9,0,7.3,0,11c3.9,0,7.5,0,11.1,0c0,3.7,0,7.4,0,11.4c4.2,0,7.8,0,11.4,0c0,3.7,0,7.4,0,11.4c4.2,0,7.8,0,11.4,0					c0,11.2,0,22.3,0,34.1c3.8,0,7.3,0,11.3,0c0,4,0,7.5,0,11.4c3.9,0,7.2,0,11.2,0c0,7.6,0,14.9,0,22.6c4,0,7.5,0,11.5,0					c0-3.4,0-7,0-11c4,0,7.5,0,11.4,0c0-7.7,0-14.8,0-22.5c3.8,0,7.3,0,11.4,0c0-4,0-7.5,0-11.6c4,0,7.5,0,11.3,0					c0-7.7,0-14.8,0-22.5c-7.1,0-14.4,0-22.1,0c0-7.9,0-15.1,0-23c3.4,0,6.9,0,10.9,0c0-4,0-7.5,0-11.4c3.9,0,7.2,0,11.2,0					c0-3.8,0-7.3,0-11.4c4,0,7.5,0,11.7,0c0-8.1,0-15.6,0-23.1c3.7,0,7.4,0,11.1,0c0-4.1,0-7.6,0-11c-3.9,0-7.3,0-11,0					c0,3.9,0,7.5,0,11.1c-3.6,0-7.2,0-11.1,0c0-15.2,0-30.1,0-45.6c3.5,0,7,0,10.8,0c0-3.9,0-7.2,0-11.2c3.8,0,7.3,0,11.4,0					c0-7.8,0-15.1,0-23c4,0,7.5,0,11.5,0c0-15.4,0-30.3,0-45.5c3.9,0,7.2,0,11.2,0c0,3.4,0,6.9,0,10.9c4,0,7.5,0,11.6,0					c0,11.7,0,22.8,0,34.3c4,0,7.5,0,11.4,0c0,3.9,0,7.2,0,11.2c3.8,0,7.3,0,11.4,0c0,7.8,0,15.1,0,23c4,0,7.5,0,11.5,0					c0,4,0,7.5,0,11.4c3.9,0,7.2,0,11,0c0,7.6,0,14.9,0,22.8c-3.3,0-6.8,0-10.6,0c0,4.1,0,7.5,0,11.6c3.6,0,7.1,0,10.9,0					c0,7.7,0,14.8,0,22.5c3.8,0,7.3,0,11.4,0c0,4,0,7.5,0,11.6c4,0,7.5,0,11.3,0c0,7.7,0,14.8,0,22.5c-7.1,0-14.4,0-22.1,0					c0,4,0,7.5,0,11.6c3.4,0,6.8,0,10.9,0c0,4,0,7.5,0,11.4c3.9,0,7.2,0,11.2,0c0,7.6,0,14.9,0,22.8c4,0,7.5,0,11.5,0					c0,4,0,7.5,0,11.6c4,0,7.5,0,11.3,0c0,7.7,0,14.8,0,22.5c-7.2,0-14.4,0-22.1,0c0,7.9,0,15.1,0,23c3.4,0,6.9,0,11,0					c0,4,0,7.5,0,11.4c3.9,0,7.2,0,11.2,0c0,11.4,0,22.5,0,34c4,0,7.5,0,11.5,0c0-7.2,0-14.5,0-22.3c4,0,7.5,0,11.4,0					c0-7.7,0-14.8,0-22.4c3.9,0,7.3,0,11.4,0c0,3.3,0,6.8,0,10.8c4,0,7.5,0,11.6,0c0,7.8,0,15.1,0,22.7c7.7,0,14.8,0,22.4,0					c0-3.4,0-6.9,0-11c-3.3,0-6.8,0-10.7,0c0-7.9,0-15.1,0-22.8c3.4,0,6.8,0,10.8,0c0-7.6,0-14.9,0-22.8c4,0,7.5,0,11.6,0					c0-11.7,0-22.8,0-34.1c4,0,7.5,0,11.4,0c0,3.5,0,6.8,0,10.8c3.8,0,7.3,0,11.4,0c0,7.8,0,15.1,0,23c4,0,7.5,0,11.6,0					c0,7.9,0,15.1,0,22.8c3.9,0,7.2,0,11,0c0,11.4,0,22.5,0,34.1c-3.3,0-6.8,0-10.6,0c0,4.1,0,7.5,0,11.6c3.5,0,7,0,10.9,0					c0,7.7,0,14.8,0,22.5c3.8,0,7.3,0,11.2,0c0,4,0,7.5,0,11.7c-201.1,0-402.2,0-603.4,0c0-57,0-114,0-170.9c3.7,0,7.4,0,11,0					c0-4.2,0-7.7,0-11.4c-3.9,0-7.4,0-11,0c0-26.6,0-53.2,0-79.8c3.7,0,7.4,0,11.3,0c0-4.3,0-7.9,0-11.4c3.7,0,7.4,0,11.1,0					c0-4.1,0-7.6,0-11c-3.9,0-7.3,0-11,0c0,3.9,0,7.5,0,11.1c-3.8,0-7.7-0.1-11.4-0.1c0-19,0-38,0-57c3.6,0,7.1,0,11.2,0					c0-3.7,0-7.2,0-11.2c4,0,7.4,0,11.5,0c0-4.2,0-7.9,0-11.6c3.7,0,7.4,0,11.1,0c0-4.1,0-7.6,0-11c-3.9,0-7.3,0-11,0					c0,3.9,0,7.5,0,11.1c-3.6,0-7.2,0-11.1,0c0-15.2,0-30.1,0-45.4c3.4,0,6.9,0,10.9,0c0-4,0-7.5,0-11.5c4,0,7.5,0,11.2,0					c0-3.9,0-7.2,0-11.1c-3.4,0-6.8,0-10.8,0c0-7.8,0-15.1,0-22.9c7.2,0,14.4,0,22.5,0c0-4.2,0-7.9,0-11.7l-0.1,0.1					c3.7,0,7.4,0,11.1,0c0-4.2,0-7.7,0-11.5c-3.9,0-7.5,0-11.1,0l0.1,0.1c0-3.6,0-7.2,0-11.3c3.7,0,7.2,0,11.2,0c0-4,0-7.5,0-11.5					c4,0,7.5,0,11.4,0c0-7.7,0-14.8,0-22.5c3.8,0,7.3,0,11.3,0c0-7.8,0-15.1,0-23c4,0,7.5,0,11.5,0c0-15.4,0-30.3,0-45.4					c3.9,0,7.2,0,11.1,0c0,10.9,0,22,0,33.7c4,0,7.5,0,11.5,0c0,7.8,0,15.1,0,23c4,0,7.5,0,11.5,0c0,4,0,7.5,0,11.3					c3.9,0,7.2,0,11.2,0c0,7.6,0,14.9,0,22.8c4,0,7.5,0,11.5,0c0,4,0,7.5,0,11.6c4,0,7.5,0,11.3,0c0,3.9,0,7.2,0,11.1					c3.8,0,7.3,0,11.2,0c0,7.8,0,15.1,0,23c-3.4,0-6.8,0-10.7,0c0,4,0,7.5,0,11.6c3.6,0,7,0,10.9,0c0,7.7,0,14.8,0,22.5					c7.6,0,14.9,0,22.5,0c0,7.8,0,15.1,0,23.2c-7.4,0-15,0-22.4,0c0-3.7,0-7.4,0-11.1c-4.1,0-7.6,0-11,0c0,3.9,0,7.3,0,11					C150.9,1379.7,154.5,1379.7,158,1379.7z M226.4,1641.8c0,3.7,0,7.4,0,11.1c4.1,0,7.6,0,11,0c0-3.9,0-7.3,0-11					c-3.9,0-7.5,0-11.1,0c0-3.7,0-7.4,0-11.4c-8,0-15.4,0-22.8,0c0-3.7,0-7.4,0-11.1c-4.1,0-7.6,0-11,0c0,3.9,0,7.3,0,11					c3.9,0,7.5,0,11.1,0c0,3.7,0,7.4,0,11.4C211.6,1641.8,219,1641.8,226.4,1641.8z M124.1,1368.1c3.9,0,7.3,0,10.9,0					c0-3.8,0-7.2,0-10.8c-3.8,0-7.2,0-10.9,0C124.1,1360.9,124.1,1364.2,124.1,1368.1z"></path>				<path class="st2" d="M180.7,1471c3.7,0,7.3,0,11.4,0c0,4.1,0,7.7,0,11.4l0.1-0.1c-3.9,0-7.7,0-11.5,0l0.1,0.1					c0-3.9,0-7.7,0-11.5L180.7,1471z"></path>				<path class="st2" d="M32.8,1311.3c-3.6,0-7.2,0-11.1,0c0-3.7,0-7.2,0-11.3c3.7,0,7.4,0,11.1,0l-0.1-0.1c0,3.9,0,7.7,0,11.5					L32.8,1311.3z"></path>			</g>		</g>	</g>	<g>		<g>			<g>				<path class="st2" d="M818.6,1465.3c4.3,0,8.6,0,12.8,0c0,4.1,0,8.3,0,13.1c4.8,0,8.7,0,13.2,0c0,8.8,0,17,0,25.5					c4.4,0,8.1,0,12.5,0c0,8.6,0,16.8,0,25.5c4.6,0,8.5,0,13,0c0,4.6,0,8.5,0,13c4.6,0,8.5,0,12.3,0c0,4.3,0,8.1,0,12.5					c-8.5,0-16.7,0-25,0c0,4.6,0,8.5,0,13c4.3,0,8.2,0,12.8,0c0,4.6,0,8.5,0,13c4.6,0,8.5,0,12.8,0c0,4.4,0,8.1,0,12.5					c4.3,0,8.2,0,12.8,0c0,4.6,0,8.5,0,13c4.6,0,8.4,0,12.1,0c0,8.8,0,17,0,25c-4.3,0-8,0-12.4,0c0-4.2,0-8.1,0-12.1					c-4.6,0-8.5,0-13,0c0,4.3,0,8.2,0,12.8c-4.6,0-8.5,0-12.1,0c0,4.6,0,8.5,0,12.8c4.3,0,8.1,0,12.4,0c0,4.3,0,8.2,0,12.8					c4.6,0,8.5,0,13,0c0,4.6,0,8.5,0,13c4.6,0,8.5,0,12.8,0c0,4.3,0,8.1,0,12.5c4.3,0,8.2,0,12.8,0c0,4.6,0,8.5,0,12.8					c4.6,0,8.6,0,12.7,0c0,4.3,0,8.6,0,12.8c-8.4,0-16.9,0-25.9,0c0-4.8,0-8.7,0-12.3c-4.6,0-8.5,0-12.8,0c0,4.3,0,8,0,12.4					c-4.3,0-8.2,0-12.2,0c0,4.6,0,8.4,0,13c4.3,0,8.2,0,12.8,0c0,4.6,0,8.5,0,13c4.6,0,8.5,0,12.8,0c0,4.3,0,8.1,0,12.5					c4.3,0,8.2,0,12.8,0c0,4.6,0,8.5,0,12.7c4.6,0,8.6,0,12.7,0c0,8.6,0,17.1,0,25.6c-4.3,0-8.6,0.1-12.9,0.1c0-4.1,0-8.3,0-12.5					c-4.6,0-8.5,0-12.3,0c0,4.3,0,8.2,0,12.3c4.5,0,8.5,0,12.5,0c0,4.2,0,8.3,0,12.9c4.7,0,8.7,0,12.7,0c7.8,36-6,45.6-42.3,43.2					c-58.3-3.8-116.9-1-175.4-1c0-5.4,0-10.9,0-17c4.8,0,8.7,0,13.2,0c0-8.8,0-17,0-25.5c4.4,0,8.1,0,12.5,0c0-4.3,0-8.2,0-12.8					c4.6,0,8.5,0,12.3,0c0-4.6,0-8.5,0-13c-4.3,0-8.3,0-12.1,0c0-4.3,0-8.1,0-12.5c4.2,0,8.1,0,12.6,0c0-8.8,0-17,0-25.8					c4.6,0,8.5,0,12.6,0c0-4.6,0-8.6,0-12.7c4.2,0,8.3,0,12.5,0c0-4.6,0-8.5,0-12.3c-4.3,0-8.3,0-12.3,0c0,4.4,0,8.5,0,12.5					c-8.4,0-16.9,0-25.3,0c0-9.1,0-17.2,0-26.1c4.3,0,8.3,0,12.8,0c0-8.8,0-17,0-25.5c4.4,0,8.1,0,12.1,0c0-4.3,0-8.2,0-12.8					c-4.3,0-8.2,0-12.1,0c0-4.6,0-8.5,0-13c4.3,0,8.3,0,12.6,0c0-4.3,0-8.1,0-12.5c4.3,0,8.2,0,12.8,0c0-4.6,0-8.5,0-13					c4.6,0,8.5,0,12.6,0c0-4.6,0-8.6,0-12.7c4.2,0,8.3,0,12.5,0c0-4.6,0-8.5,0-12.3c-4.3,0-8.3,0-12.3,0c0,4.4,0,8.5,0,12.5					c-8.4,0-16.9,0-25.3,0c0-9,0-17.2,0-26c4.3,0,8.3,0,12.8,0c0-4.6,0-8.4,0-12.7c4.3,0,8.1,0,12.5,0c0-12.8,0-25.2,0-38.3					c4.5,0,8.4,0,12.9,0c0-13,0-25.5,0-38.5c4.5,0,8.4,0,12.7,0C818.6,1481.9,818.6,1473.6,818.6,1465.3z M780.2,1683.1					c-4.1,0-8.3,0-12.5,0c0,4.6,0,8.4,0,12.3c4.3,0,8.2,0,12.3,0c0-4.4,0-8.4,0-12.5c4.2,0,8.3,0,12.5,0c0-4.6,0-8.5,0-12.3					c-4.3,0-8.3,0-12.3,0C780.2,1675,780.2,1679.1,780.2,1683.1z"></path>			</g>		</g>	</g>	<g>		<g>			<g>				<path class="st2" d="M7558.9,1331.1c4.8,0,9.4,0,14.2,0c0,9.4,0,18.8,0,28.8c5.2,0,9.6,0,14.6,0c0,5,0,9.4,0,14.1					c4.8,0,9,0,13.9,0c0,9.5,0,18.6,0,28.4c5,0,9.4,0,14.4,0c0,5,0,9.4,0,14.4c5,0,9.4,0,14.4,0c0,5,0,9.4,0,14.1c4.8,0,9,0,13.9,0					c0,4.8,0,9.2,0,14.2c5,0,9.4,0,13.7,0c0,9.8,0,18.9,0,28.4c-4.9,0-9.4,0-13.9,0c0-4.6,0-9.3,0-13.9c-5.1,0-9.4,0-13.7,0					c0,4.8,0,9.2,0,13.7c5,0,9.4,0,13.9,0c0,14.1,0,28.3,0,43.1c5,0,9.4,0,14.4,0c0,5,0,9.4,0,14.4c5,0,9.4,0,14.1,0					c0,4.9,0,9.1,0,13.9c4.8,0,9.1,0,13.5,0c0,9.8,0,18.9,0,27.9c-4.8,0-9.2,0-14.1,0c0-4.8,0-9.2,0-13.4c-4.9,0-9,0-13.9,0					c0,4.7,0,9,0,14.1c-5,0-9.4,0-13.7,0c0,5,0,9.4,0,14.4c4.8,0,9.2,0,14.1,0c0,9.8,0,18.9,0,28.4c4.9,0,9,0,13.9,0					c0,4.8,0,9.2,0,14.2c5,0,9.4,0,14.4,0c0,5,0,9.4,0,14.4c5,0,9.4,0,14.1,0c0,9.7,0,18.5,0,28.1c4.8,0,9.2,0,13.6,0					c0,5,0,9.4,0,14.4c-4.8,0-9.1,0-13.3,0c0,14.5,0,28.4,0,42.9c4.8,0,9.2,0,14,0c0,4.9,0,9,0,13.9c4.8,0,9.1,0,14.1,0					c0,5,0,9.4,0,14.1c5.1,0,9.6,0,14.1,0c0,9.5,0,19,0,28.5c-4.6,0-9.2,0-14.5,0c0,5.3,0,9.7,0,14.7c-5,0-9.4,0-13.6,0					c0,4.9,0,9,0,13.9c4.7,0,9,0,14.1,0c0,5,0,9.4,0,14.1c5.1,0,9.6,0,14.1,0c0,36.8,0.1,73.6-0.2,110.4c0,1.7-3.1,4.8-4.8,4.8					c-101,0.2-201.9,0.3-302.9-0.4c-1.7,0-3.3-9.8-5-15c4.6,0,9.2,0,14.5,0c0-14.8,0-28.7,0-43c4.9,0,9.1,0,13.5,0					c0-4.8,0-9.2,0-14.2c-4.7,0-9.1,0-13.4,0c0-9.8,0-18.9,0-28.7c4.8,0,9.2,0,13.9,0c0-4.9,0-9.1,0-13.9c4.8,0,9.1,0,14.1,0					c0-9.8,0-18.9,0-28.7c5,0,9.4,0,13.5,0c0-9.8,0-18.9,0-27.9c-4.7,0-8.9,0-13.8,0c0,4.7,0,9,0,13.4c-9.8,0-18.9,0-27.9,0					c0-9.6,0-18.7,0-28.5c4.8,0,9.2,0,14,0c0-4.9,0-9.1,0-13.9c4.8,0,9.2,0,14.1,0c0-5,0-9.4,0-14.5c5,0,9.4,0,14.4,0					c0-19.3,0-37.9,0-57c4.9,0,9.1,0,13.9,0c0-4.8,0-9.2,0-14.2c5,0,9.4,0,14,0c0-9.9,0-19.1,0-28.3c4.6,0,9.2,0,13.9,0					c0-5.1,0-9.4,0-13.7c-4.8,0-9.2,0-13.7,0c0,5,0,9.4,0,13.9c-9.4,0-18.8,0-28.1,0c0-10.1,0-19.2,0-29c4.8,0,9.2,0,14,0					c0-4.9,0-9,0-13.9c4.8,0,9.1,0,14.1,0c0-9.8,0-18.9,0-28.7c5,0,9.4,0,13.6,0c0-9.8,0-18.9,0-27.9c-4.7,0-8.9,0-13.7,0					c0,4.7,0,9,0,14.1c-5,0-9.4,0-14.4,0c0,5,0,9.4,0,13.6c-5,0-9.4,0-13.4,0c0-9.7,0-18.8,0-28.3c4.8,0,9,0,13.2,0					c0-4.8,0-9.2,0-14.2c-4.8,0-9.1,0-13.3,0c0-5,0-9.4,0-14.2c4.7,0,8.9,0,13.7,0c0-9.5,0-18.7,0-28.4c5,0,9.4,0,14.4,0					c0-5,0-9.4,0-14.5c5,0,9.4,0,14.4,0c0-14.5,0-28.4,0-42.7c4.9,0,9,0,13.9,0c0-9.5,0-18.7,0-28.4c5,0,9.4,0,14.1,0					C7558.9,1368.6,7558.9,1349.9,7558.9,1331.1z"></path>			</g>		</g>	</g>	<g>		<g>			<g>				<path class="st2" d="M7207.2,1539.8c4.3,0,8.6,0,12.8,0c0,4.1,0,8.3,0,13.1c4.8,0,8.7,0,13.2,0c0,8.8,0,17,0,25.5					c4.4,0,8.1,0,12.5,0c0,8.6,0,16.8,0,25.5c4.6,0,8.5,0,13,0c0,4.6,0,8.5,0,13c4.6,0,8.5,0,12.3,0c0,4.3,0,8.1,0,12.5					c-8.5,0-16.7,0-25,0c0,4.6,0,8.5,0,13c4.3,0,8.2,0,12.8,0c0,4.6,0,8.5,0,13c4.6,0,8.5,0,12.8,0c0,4.4,0,8.1,0,12.5					c4.3,0,8.2,0,12.8,0c0,4.6,0,8.5,0,13c4.6,0,8.4,0,12.1,0c0,8.8,0,17,0,25c-4.3,0-8,0-12.4,0c0-4.2,0-8.1,0-12.1					c-4.6,0-8.5,0-13,0c0,4.3,0,8.2,0,12.8c-4.6,0-8.5,0-12.1,0c0,4.6,0,8.5,0,12.8c4.3,0,8.1,0,12.4,0c0,4.3,0,8.2,0,12.8					c4.6,0,8.5,0,13,0c0,4.6,0,8.5,0,13c4.6,0,8.5,0,12.8,0c0,4.3,0,8.1,0,12.5c4.3,0,8.2,0,12.8,0c0,4.6,0,8.5,0,12.8					c4.6,0,8.6,0,12.7,0c0,4.3,0,8.6,0,12.8c-8.4,0-16.9,0-25.9,0c0-4.8,0-8.7,0-12.3c-4.6,0-8.5,0-12.8,0c0,4.3,0,8,0,12.4					c-4.3,0-8.2,0-12.2,0c0,4.6,0,8.4,0,13c4.3,0,8.2,0,12.8,0c0,4.6,0,8.5,0,13c4.6,0,8.5,0,12.8,0c0,4.3,0,8.1,0,12.5					c4.3,0,8.2,0,12.8,0c0,4.6,0,8.5,0,12.7c4.6,0,8.6,0,12.7,0c0,8.6,0,17.1,0,25.6c-4.3,0-8.6,0.1-12.9,0.1c0-4.1,0-8.3,0-12.5					c-4.6,0-8.5,0-12.3,0c0,4.3,0,8.2,0,12.3c4.5,0,8.5,0,12.5,0c0,4.2,0,8.3,0,12.9c4.7,0,8.7,0,12.7,0c7.8,36-6,45.6-42.3,43.2					c-58.3-3.8-116.9-1-175.4-1c0-5.4,0-10.9,0-17c4.8,0,8.7,0,13.2,0c0-8.8,0-17,0-25.5c4.4,0,8.1,0,12.6,0c0-4.3,0-8.2,0-12.8					c4.6,0,8.5,0,12.3,0c0-4.6,0-8.5,0-13c-4.3,0-8.3,0-12.1,0c0-4.3,0-8.1,0-12.5c4.2,0,8.1,0,12.6,0c0-8.8,0-17,0-25.8					c4.6,0,8.5,0,12.6,0c0-4.6,0-8.6,0-12.7c4.2,0,8.3,0,12.5,0c0-4.6,0-8.5,0-12.3c-4.3,0-8.3,0-12.3,0c0,4.4,0,8.5,0,12.5					c-8.4,0-16.9,0-25.3,0c0-9.1,0-17.2,0-26.1c4.3,0,8.3,0,12.8,0c0-8.8,0-17,0-25.5c4.4,0,8.1,0,12.1,0c0-4.3,0-8.2,0-12.8					c-4.3,0-8.2,0-12.1,0c0-4.6,0-8.5,0-13c4.3,0,8.3,0,12.6,0c0-4.3,0-8.1,0-12.5c4.3,0,8.2,0,12.8,0c0-4.6,0-8.5,0-13					c4.6,0,8.5,0,12.6,0c0-4.6,0-8.6,0-12.7c4.2,0,8.3,0,12.5,0c0-4.6,0-8.5,0-12.3c-4.3,0-8.3,0-12.3,0c0,4.4,0,8.5,0,12.5					c-8.4,0-16.9,0-25.3,0c0-9,0-17.2,0-26c4.3,0,8.3,0,12.8,0c0-4.6,0-8.4,0-12.7c4.3,0,8.1,0,12.5,0c0-12.8,0-25.2,0-38.3					c4.5,0,8.4,0,12.9,0c0-13,0-25.5,0-38.5c4.5,0,8.4,0,12.7,0C7207.2,1556.3,7207.2,1548.1,7207.2,1539.8z M7168.8,1757.5					c-4.1,0-8.3,0-12.5,0c0,4.6,0,8.4,0,12.3c4.3,0,8.2,0,12.3,0c0-4.4,0-8.4,0-12.5c4.2,0,8.3,0,12.5,0c0-4.6,0-8.5,0-12.3					c-4.3,0-8.3,0-12.3,0C7168.8,1749.5,7168.8,1753.5,7168.8,1757.5z"></path>			</g>		</g>	</g></g><g id="Layer_2">	<g>		<g>			<g>				<polygon class="st11" points="4068.3,1919.5 4068.3,1884.8 4033.7,1884.8 4033.7,1919.5 3964.5,1919.5 3964.5,2057.8 					3999.1,2057.8 3999.1,1954.1 4102.9,1954.1 4102.9,1919.5 				"></polygon>				<polygon class="st12" points="4033.7,1815.5 4033.7,1850.1 3999.1,1850.1 3999.1,1884.8 3964.5,1884.8 3964.5,1919.5 					4033.7,1919.5 4033.7,1884.8 4068.3,1884.8 4068.3,1815.5 				"></polygon>				<rect x="4068.3" y="1780.9" class="st12" width="34.6" height="34.6"></rect>				<rect x="4172" y="1884.8" class="st12" width="34.6" height="34.7"></rect>				<rect x="4137.5" y="1850.1" class="st12" width="34.6" height="34.6"></rect>				<polygon class="st11" points="4206.6,1954.1 4206.6,1919.5 4137.5,1919.5 4137.5,1954.1 4172,1954.1 4172,1988.7 4206.6,1988.7 					4206.6,2057.8 4241.2,2057.8 4241.2,1954.1 				"></polygon>				<polygon class="st13" points="4172,1988.7 4172,1954.1 3999.1,1954.1 3999.1,2092.4 4033.7,2092.4 4033.7,1988.7 4137.5,1988.7 					4137.5,2023.3 4172,2023.3 4172,2092.4 4206.6,2092.4 4206.6,1988.7 				"></polygon>				<path class="st14" d="M4137.5,2023.3v-34.6h-103.8V2127H4172v-103.8H4137.5z M4137.5,2092.4h-69.2v-69.2h34.6v34.6h34.6V2092.4z					"></path>				<polygon class="st15" points="4102.9,2057.8 4102.9,2023.3 4068.3,2023.3 4068.3,2092.4 4137.5,2092.4 4137.5,2057.8 				"></polygon>			</g>			<g>				<path class="st16" d="M4379.8,2282.9c0,28.7-23.2,51.9-51.9,51.9l0,0c-28.7,0-51.9-23.2-51.9-51.9l0,0c0-28.7,23.3-52,51.9-52					l0,0C4356.5,2230.9,4379.8,2254.2,4379.8,2282.9L4379.8,2282.9z"></path>				<path class="st16" d="M3863.4,2232.9L3863.4,2232.9c0.5-0.1,1.1-0.2,1.7-0.4L3863.4,2232.9z"></path>				<path class="st16" d="M4379.8,2178.9c0-28.7-23.2-51.9-51.9-51.9c-4.7,0-9.1,0.7-13.4,1.8l0-0.1l-446.2,103					c3.1-0.6,6.4-0.9,9.7-0.9c28.7,0,51.9,23.3,51.9,52c0,24-16.3,44.1-38.5,50.1l0,0.1l450.2-103.9l0-0.1					C4363.6,2223,4379.8,2202.9,4379.8,2178.9z"></path>				<path class="st17" d="M3929.8,2282.9c0,28.7-23.2,51.9-51.9,51.9l0,0c-28.7,0-51.9-23.2-51.9-51.9l0,0c0-28.7,23.2-52,51.9-52					l0,0C3906.6,2230.9,3929.8,2254.2,3929.8,2282.9L3929.8,2282.9z"></path>				<path class="st17" d="M4275.9,2282.9c0-28.7,23.3-52,51.9-52c3.3,0,6.5,0.3,9.6,0.9l-446.2-103l0,0c-4.3-1-8.7-1.8-13.5-1.8					c-28.7,0-50.6,23.2-50.6,51.9c0,23.7,17.8,43.7,38.6,49.9l-0.2,0.2c1.4,0.4,2,0.8,3.4,0.9l445.3,103.1l0-0.1					C4292.3,2327,4275.9,2306.9,4275.9,2282.9z"></path>				<path class="st17" d="M4342.3,2233L4342.3,2233l-1.5-0.4C4341.3,2232.7,4341.8,2232.8,4342.3,2233z"></path>			</g>		</g>	</g></g></svg>