<?xml version="1.0" encoding="utf-8"?>
<!-- Generator: Adobe Illustrator 23.0.1, SVG Export Plug-In . SVG Version: 6.00 Build 0)  -->
<svg version="1.1" xmlns="http://www.w3.org/2000/svg" xmlns:xlink="http://www.w3.org/1999/xlink" x="0px" y="0px"
	 viewBox="0 0 8192 2160" style="enable-background:new 0 0 8192 2160;" xml:space="preserve">
<style type="text/css">
	.st0{fill:#CCF2FF;}
	.st1{fill:#335767;}
	.st2{fill:#538DA6;}
	.st3{fill:#538CA5;}
	.st4{fill:#345868;}
	.st5{fill:#97BAC9;}
	.st6{fill:#B6CFD9;}
	.st7{fill:#75A3B7;}
	.st8{fill:#816C61;}
	.st9{fill:#A68F7E;}
	.st10{fill:#FF7040;}
	.st11{fill:#FF4046;}
	.st12{fill:#FFAF40;}
	.st13{fill:#FFEF40;}
	.st14{fill:#FFFFFF;}
	.st15{fill:#806D60;}
	.st16{fill:#A68E7C;}
</style>
<g id="Layer_1">
	<g>
		<g>
			<path class="st0" d="M2710.9,1142.4c0-266.9,0-533.9,0.3-800.8c0-2.1,3.9-6.1,6-6.1c901.7-0.3,1803.3-0.3,2705.1,0
				c2.1,0,6,3.9,6,6.1c0.3,272,0.3,544,0.3,816c-2.6-0.2-5.2-0.2-7.6-0.8c-32.8-7.7-65.4-15.3-98.2-23c-1.6-0.3-3.1-0.7-4.7-1
				c-0.8-0.2-1.5-0.4-2.2-0.6c-1.2-0.3-2.3-0.5-3.4-0.8c-0.8-0.2-1.4-0.4-2.2-0.6c-1.2-0.3-2.3-0.5-3.4-0.8
				c-0.8-0.2-1.4-0.4-2.2-0.6c-6.6-1.9-13-3.9-19.6-5.7c-170.3-48.3-342.1-88-520.2-96.7c-170.2-8.4-339.5-3-506.7,31
				c-103.3,21-205.6,46.5-308.7,68.3c-95,20.1-189.9,41.6-287.9,44.5c-73.8,2.1-145.4-10.8-216.8-26.5
				c-98.7-21.7-198.2-38-299.7-42.2C2998.3,1096.1,2854.5,1118,2710.9,1142.4z"/>
			<path class="st1" d="M5322.7,1133.9c32.8,7.7,65.4,15.4,98.2,23c2.5,0.6,5,0.5,7.6,0.8c0,220.7,0,441.5-0.2,662.3
				c0,1.9-3.5,5.3-5.4,5.3c-902.1,0.2-1804.2,0.2-2706.3,0c-1.9,0-5.4-3.4-5.4-5.3c-0.3-224.9-0.2-449.8-0.2-674.7
				c33.4-3.4,66.8-8.7,100.3-9.7c81.3-2.4,162.9-7.1,243.8-2.8c103,5.4,203,31.6,302,58.8c93.2,25.6,186.3,53.1,283.6,56.2
				c82.8,2.6,166,0.3,248.8-3.6c97-4.6,190.9-27.7,284.7-51.6c130.5-33.3,261.2-65.8,392.8-93.8c122.3-26.1,247.3-29.9,371.8-20.2
				c91.9,7.2,183.2,22.3,274.7,34.8c30.4,4.1,60.5,10.9,90.7,16.4c0.8,0.2,1.5,0.4,2.2,0.6c1.2,0.3,2.3,0.5,3.4,0.8
				c0.8,0.2,1.4,0.4,2.2,0.6c1.2,0.3,2.3,0.5,3.4,0.8c0.8,0.2,1.5,0.4,2.2,0.6C5319.6,1133.1,5321.2,1133.5,5322.7,1133.9z"/>
			<path class="st2" d="M5304.5,1129.5c-30.3-5.5-60.3-12.3-90.7-16.4c-91.4-12.4-182.7-27.6-274.7-34.8
				c-124.5-9.7-249.5-5.9-371.8,20.2c-131.7,28.1-262.4,60.5-392.8,93.8c-93.8,23.9-187.6,47.1-284.7,51.6
				c-82.8,3.9-166,6.2-248.8,3.6c-97.3-3.1-190.4-30.6-283.6-56.2c-99.1-27.2-199.1-53.4-302-58.8c-81-4.3-162.6,0.5-243.8,2.8
				c-33.5,1-66.9,6.3-100.3,9.7c0-0.9,0-1.9,0-2.8c143.6-24.4,287.3-46.3,434-40.3c101.4,4.2,200.9,20.5,299.7,42.2
				c71.4,15.7,143,28.6,216.8,26.5c98-2.8,192.9-24.3,287.9-44.5c103.1-21.9,205.5-47.3,308.7-68.3c167.2-34.1,336.5-39.4,506.7-31
				c178.1,8.8,350,48.4,520.2,96.7C5291.5,1125.6,5298,1127.6,5304.5,1129.5z"/>
			<path class="st2" d="M5322.7,1133.9c-1.6-0.3-3.1-0.7-4.7-1C5319.6,1133.1,5321.2,1133.5,5322.7,1133.9z"/>
			<path class="st2" d="M5310.2,1130.8c-1.2-0.3-2.3-0.5-3.4-0.8C5307.9,1130.3,5309,1130.6,5310.2,1130.8z"/>
			<path class="st2" d="M5315.8,1132.2c-1.2-0.3-2.3-0.5-3.4-0.8C5313.6,1131.7,5314.7,1131.9,5315.8,1132.2z"/>
		</g>
	</g>
	<g>
		<g>
			<path class="st0" d="M5334.9,1142.4c0-266.9,0-533.9,0.3-800.8c0-2.1,4.1-6.1,6.3-6.1c949.7-0.3,1899.5-0.3,2849.3,0
				c2.2,0,6.3,3.9,6.3,6.1c0.3,272,0.3,544,0.3,816c-2.7-0.2-5.4-0.2-8-0.8c-34.5-7.7-69-15.3-103.4-23c-1.7-0.3-3.2-0.7-4.9-1
				c-0.8-0.2-1.6-0.4-2.3-0.6c-1.2-0.3-2.4-0.5-3.7-0.8c-0.8-0.2-1.6-0.4-2.3-0.6c-1.2-0.3-2.4-0.5-3.7-0.8
				c-0.8-0.2-1.6-0.4-2.3-0.6c-6.9-1.9-13.7-3.9-20.6-5.7c-179.4-48.3-360.3-88-547.9-96.7c-179.3-8.4-357.6-3-533.7,31
				c-108.8,21-216.6,46.5-325.2,68.3c-100.1,20.1-200,41.6-303.2,44.5c-77.7,2.1-153.2-10.8-228.4-26.5
				c-104.1-21.7-208.7-38-315.6-42.2C5637.5,1096.1,5486.2,1118,5334.9,1142.4z"/>
			<path class="st1" d="M8085.9,1133.9c34.5,7.7,69,15.4,103.4,23c2.6,0.6,5.3,0.5,8,0.8c0,220.7,0,441.5-0.3,662.3
				c0,1.9-3.7,5.3-5.7,5.3c-950.1,0.2-1900.3,0.2-2850.4,0c-2,0-5.7-3.4-5.7-5.3c-0.3-224.9-0.3-449.8-0.3-674.7
				c35.2-3.4,70.4-8.7,105.7-9.7c85.6-2.4,171.6-7.1,256.9-2.8c108.5,5.4,213.8,31.6,318.2,58.8c98.2,25.6,196.2,53.1,298.8,56.2
				c87.2,2.6,174.9,0.3,262.1-3.6c102.2-4.6,201.1-27.7,299.9-51.6c137.4-33.3,275.1-65.8,413.8-93.8
				c128.9-26.1,260.5-29.9,391.6-20.2c96.8,7.2,192.9,22.3,289.3,34.8c32.1,4.1,63.7,10.9,95.6,16.4c0.8,0.2,1.6,0.4,2.3,0.6
				c1.2,0.3,2.4,0.5,3.7,0.8c0.8,0.2,1.6,0.4,2.3,0.6c1.2,0.3,2.4,0.5,3.7,0.8c0.8,0.2,1.6,0.4,2.3,0.6
				C8082.6,1133.1,8084.2,1133.5,8085.9,1133.9z"/>
			<path class="st2" d="M8066.6,1129.5c-31.9-5.5-63.5-12.3-95.6-16.4c-96.3-12.4-192.5-27.6-289.3-34.8
				c-131.1-9.7-262.8-5.9-391.6,20.2c-138.7,28.1-276.4,60.5-413.8,93.8c-98.8,23.9-197.6,47.1-299.9,51.6
				c-87.2,3.9-174.9,6.2-262.1,3.6c-102.5-3.1-200.5-30.6-298.8-56.2c-104.3-27.2-209.6-53.4-318.2-58.8
				c-85.3-4.3-171.3,0.5-256.9,2.8c-35.3,1-70.5,6.3-105.7,9.7c0-0.9,0-1.9,0-2.8c151.2-24.4,302.6-46.3,457.1-40.3
				c106.9,4.2,211.6,20.5,315.6,42.2c75.2,15.7,150.6,28.6,228.4,26.5c103.2-2.8,203.1-24.3,303.2-44.5
				c108.6-21.9,216.4-47.3,325.2-68.3c176.1-34.1,354.4-39.4,533.7-31c187.6,8.8,368.6,48.4,547.9,96.7
				C8052.9,1125.6,8059.8,1127.6,8066.6,1129.5z"/>
			<path class="st2" d="M8085.9,1133.9c-1.7-0.3-3.2-0.7-4.9-1C8082.6,1133.1,8084.2,1133.5,8085.9,1133.9z"/>
			<path class="st2" d="M8072.6,1130.8c-1.2-0.3-2.4-0.5-3.7-0.8C8070.2,1130.3,8071.4,1130.6,8072.6,1130.8z"/>
			<path class="st2" d="M8078.6,1132.2c-1.2-0.3-2.4-0.5-3.7-0.8C8076.2,1131.7,8077.4,1131.9,8078.6,1132.2z"/>
		</g>
	</g>
	<g>
		<g>
			<path class="st0" d="M3309.6,1142.8c0-267.1,0-534.1-0.3-801.2c0-2.1-4.8-6.1-7.3-6.1c-1103.6-0.3-2207.2-0.3-3310.9,0
				c-2.6,0-7.3,4-7.3,6.1c-0.3,272.1-0.3,544.3-0.3,816.4c3.1-0.2,6.3-0.2,9.3-0.8c40.1-7.7,80.1-15.3,120.2-23
				c1.9-0.3,3.8-0.7,5.7-1c0.9-0.2,1.8-0.4,2.8-0.6c1.4-0.3,2.8-0.5,4.2-0.8c0.9-0.2,1.8-0.4,2.7-0.6c1.4-0.3,2.8-0.5,4.2-0.8
				c0.9-0.2,1.8-0.4,2.7-0.6c8-1.9,15.9-3.9,23.9-5.7c208.4-48.3,418.7-88,636.7-96.8c208.3-8.4,415.5-3,620.1,31
				c126.4,21,251.7,46.5,377.9,68.3c116.3,20.1,232.4,41.6,352.4,44.5c90.3,2.1,178-10.8,265.3-26.5
				c120.9-21.7,242.6-38.1,366.8-42.3C2957.9,1096.4,3133.8,1118.3,3309.6,1142.8z"/>
			<path class="st1" d="M113,1134.2c-40.1,7.7-80.1,15.4-120.2,23c-3,0.6-6.2,0.5-9.3,0.8c0,220.9,0,441.7,0.3,662.6
				c0,1.9,4.3,5.3,6.6,5.3c1104.1,0.2,2208.2,0.2,3312.2,0c2.3,0,6.6-3.4,6.6-5.3c0.3-225,0.3-450,0.3-675
				c-41-3.4-81.8-8.7-122.8-9.7c-99.5-2.4-199.3-7.1-298.4-2.8c-126.1,5.4-248.4,31.6-369.7,58.8c-114.1,25.6-228,53.1-347.1,56.2
				c-101.4,2.6-203.1,0.3-304.5-3.6c-118.7-4.6-233.7-27.7-348.4-51.6c-159.6-33.3-319.7-65.8-480.8-93.9
				c-149.7-26.1-302.8-29.9-455-20.2c-112.5,7.2-224.2,22.3-336.2,34.8c-37.2,4.1-74.1,10.9-111.1,16.4c-0.9,0.2-1.8,0.4-2.7,0.6
				c-1.4,0.3-2.8,0.5-4.2,0.8c-0.9,0.2-1.8,0.4-2.7,0.6c-1.4,0.3-2.8,0.5-4.2,0.8c-0.9,0.2-1.8,0.4-2.8,0.6
				C116.7,1133.5,114.8,1133.9,113,1134.2z"/>
			<path class="st2" d="M135.2,1129.9c37-5.5,73.8-12.3,111.1-16.4c111.9-12.4,223.6-27.6,336.2-34.8c152.3-9.7,305.3-5.9,455,20.2
				c161.2,28.1,321.2,60.6,480.8,93.9c114.8,23.9,229.7,47.1,348.4,51.6c101.4,3.9,203.1,6.2,304.5,3.6
				c119.1-3.1,233.1-30.6,347.1-56.2c121.2-27.2,243.6-53.4,369.7-58.8c99.2-4.3,199,0.5,298.4,2.8c41,1,81.9,6.3,122.8,9.7
				c0-0.9,0-1.9,0-2.8c-175.8-24.5-351.7-46.4-531.2-40.3c-124.2,4.2-245.9,20.5-366.8,42.3c-87.4,15.7-175,28.6-265.3,26.5
				c-119.9-2.8-236-24.3-352.4-44.5c-126.2-21.9-251.5-47.3-377.9-68.3c-204.7-34.1-411.8-39.4-620.1-31
				c-217.8,8.8-428.1,48.4-636.5,96.7C151.2,1126,143.2,1128,135.2,1129.9z"/>
			<path class="st2" d="M113,1134.2c1.9-0.3,3.8-0.7,5.7-1C116.7,1133.5,114.8,1133.9,113,1134.2z"/>
			<path class="st2" d="M128.3,1131.2c1.4-0.3,2.8-0.5,4.2-0.8C131.1,1130.7,129.7,1131,128.3,1131.2z"/>
			<path class="st2" d="M121.4,1132.5c1.4-0.3,2.8-0.5,4.2-0.8C124.2,1132.1,122.7,1132.3,121.4,1132.5z"/>
		</g>
	</g>
	<g>
		<g>
			<path class="st3" d="M3988.1,1510.4c27.9-1.4,55.9-3.4,83.9-4.1c24.8-0.7,49.6-0.5,74.3,0.2c22.5,0.6,44.9,2.5,67.3,3.8
				c1.6,0.1,3.2-0.4,4.9-0.6c0.7,0.5,1.3,1.3,2.1,1.4c8.3,0.8,16.6,1.3,24.9,2.3c10,1.1,19.9,2.4,29.9,3.8
				c9.2,1.3,18.5,2.8,27.7,4.4c12.2,2.2,24.5,4.6,36.6,7.2c3.9,0.8,7.5,2.8,11.2,4.4c0.7,0.3,1,1.3,1.5,2c-0.7,0.3-1.4,0.7-2.1,0.8
				c-0.9,0.1-1.9,0-2.8,0c-9.2,0-18.3,0-27.6,0.1c-0.7,0-1.4,0.3-2.1,0.5c0.6,0.3,1.3,0.6,1.9,0.8c2.1,0.3,4.3,0.5,6.5,0.8
				c13.9,2.5,27.9,4.8,41.8,7.4c19.4,3.7,38.8,7.2,58.1,11.9c15.2,3.6,30.1,8.6,45.2,13.1c14.2,4.2,27.9,9.8,40.8,17
				c6.6,3.7,12.9,7.9,19.3,11.9c0.9,0.6,1.4,1.9,2,2.9c-1.2,0.3-2.3,1-3.4,1c-5.6-0.1-11.2-0.5-16.8-0.6c-9.3-0.1-18.6-0.1-27.9-0.1
				c-0.8,0-1.6,0.1-2.4,0.1c0.8,0.4,1.5,0.9,2.3,1.1c23.6,5.6,46.4,13.5,68.5,23.3c18.2,8.1,36.1,17,53.7,26.1
				c9.7,5,18.5,11.3,27.8,17.1c3,1.9,5.9,3.9,8.8,5.9c2.8,2.5,5.4,5,8.2,7.5c1,1,1.9,2,2.8,3c2.2,2.4,1.8,4.8-1.2,6.3
				c-1.1,0.6-2.3,0.8-3.6,1.1c-6.2,1.4-12.5,2.9-18.8,4.1c-9.7,1.9-19.3,3.7-29,5.6c-11.8,2.3-23.5,4.6-35.3,7
				c-3.4,0.7-7,1.2-10.4,1.9c-0.4,0.1-0.8,0.6-1.1,1c0.4,0.1,0.8,0.4,1.2,0.5c8.6,1.7,17.2,2.9,25.6,4.9
				c13.6,3.2,27.1,6.6,40.5,10.6c7.9,2.3,8.2,5.7,2,11.1c-0.3,0.2-0.5,0.5-0.8,0.7c-13.7,10.5-28.2,19.5-43.6,27.4
				c-28.4,14.6-57.6,27.2-88.1,36.9c-24.5,7.8-49.4,13.2-74.9,16.8c-2.4,0.3-4.8,1.3-7.1,2c-205.1,0-410.3,0-615.5,0
				c-0.6-0.4-1-1.2-1.7-1.3c-9.2-1.5-18.5-2.8-27.8-4.3c-28.9-5-56.8-13.9-84-24.4c-26.1-10.1-51.4-22.2-75.3-36.9
				c-9.2-5.6-17.7-12.2-26.2-18.8c-3.9-3-3.3-6.2,1.4-8c7.6-2.8,15.3-5.6,23.2-7.4c14.8-3.4,29.8-6.1,44.7-9.2
				c0.8-0.1,1.5-0.6,2.2-0.8c-0.8-0.3-1.5-0.6-2.3-0.9c-0.3-0.1-0.7-0.1-1-0.2c-13.2-2.4-26.3-4.8-39.4-7.3
				c-14.1-2.8-28.2-5.7-42.3-8.6c-4.1-0.8-8.3-1.6-12.3-2.8c-4.2-1.2-4.8-3.9-1.9-7.1c0.8-0.8,1.5-1.7,2.3-2.5
				c2.9-2.5,5.9-5,8.8-7.4c6.2-4.3,12.3-8.9,18.7-12.9c9.2-5.8,18.3-11.9,28.1-16.5c24.1-11.6,48-23.4,73.5-31.7
				c12.5-4.1,25.2-7.6,37.8-11.4c0.7-0.2,1.3-0.7,1.9-1.1c-0.8-0.1-1.6-0.2-2.3-0.2c-14.7,0.2-29.4,0.5-44.1,0.6
				c-1.2,0-2.4-0.8-3.7-1.1c0.8-1,1.2-2.5,2.3-3.2c7-4.5,14.1-9,21.4-13c17.1-9.4,35.6-15.2,54.2-20.6c14.5-4.2,29.1-8.3,43.8-11.7
				c14.6-3.3,29.4-5.7,44.1-8.4c15.7-2.8,31.3-5.4,47-8.2c0.4-0.1,0.8-0.2,1.3-0.3c-0.5-0.1-1-0.3-1.4-0.3
				c-9.7-0.1-19.4-0.1-29.2-0.1c-0.9,0-1.8-0.7-2.8-1c0.6-0.8,0.9-2,1.7-2.3c2.6-1.2,5.2-2.4,7.9-3.3c18-6,36.8-8.3,55.4-11
				c19.3-2.8,38.8-4.8,58.1-7.1C3980.6,1511.3,3984.4,1510.8,3988.1,1510.4z M4105.1,1547.7c0-0.1,0-0.3,0-0.5
				c-14.8,0.6-29.5,1.2-44.3,1.9c-11.9,0.6-23.8,1-35.6,2.2c-14.1,1.4-28.1,3.2-42.1,5.4c-17,2.8-33.9,5.9-50.8,9.4
				c-19.7,4.2-39,10.1-57.9,17.1c-21.7,8.1-42.5,17.7-61.2,31.4c-13.4,9.9-25.2,21.2-31.9,37c-5,12-5.2,24.1-0.6,36.1
				c5.4,14.2,15.3,25.1,27.1,34.3c13.1,10.3,27.4,18.5,42.6,25.5c17.7,8.1,35.8,14.8,54.5,19.9c17.9,4.8,36.1,9,54.3,12.7
				c13.6,2.8,27.4,4.8,41.2,6.6c13.4,1.8,27,3.1,40.5,4.1c14.1,1,28.3,1.9,42.5,2.1c16.5,0.2,33-0.2,49.5-0.6
				c9.7-0.2,19.4-0.7,29.1-1.4c10.9-0.8,21.9-1.7,32.8-2.8c11.6-1.2,23.2-2.4,34.6-4.3c23.6-3.7,47-8.4,69.9-14.9
				c29.9-8.4,59-18.8,85.5-35.1c16.2-10,31-21.7,40.6-38.6c7.7-13.5,9.1-27.7,3.5-42.3c-5.4-14.2-15.4-25-27.1-34.3
				c-13.1-10.4-27.4-18.5-42.6-25.5c-17.7-8.1-35.8-14.8-54.5-19.9c-18-4.8-36.1-9-54.3-12.7c-13.6-2.8-27.4-4.8-41.2-6.6
				c-13.4-1.8-27-3.1-40.5-4.1c-14.3-1-28.5-1.6-42.8-2.1C4119.1,1547.5,4112.1,1547.7,4105.1,1547.7z"/>
			<path class="st4" d="M4410.3,1824.7c2.3-0.7,4.7-1.7,7.1-2c25.4-3.6,50.4-9,74.9-16.8c30.5-9.7,59.6-22.3,88.1-36.9
				c15.3-7.9,29.9-17,43.6-27.4c0.3-0.2,0.6-0.4,0.8-0.7c6.2-5.4,5.9-8.8-2-11.1c-13.4-3.9-26.9-7.3-40.5-10.6
				c-8.4-2-17-3.3-25.6-4.9c-0.4-0.1-0.8-0.3-1.2-0.5c0.3-0.3,0.7-0.8,1.1-1c3.4-0.7,7-1.2,10.4-1.9c11.8-2.3,23.5-4.6,35.3-7
				c9.7-1.9,19.3-3.7,29-5.6c6.3-1.2,12.5-2.8,18.8-4.1c1.2-0.3,2.5-0.6,3.6-1.1c3-1.5,3.4-3.9,1.2-6.3c-0.9-1-1.9-2-2.8-3
				c0.3-1.1,0.3-2.3,0.9-3.3c1.4-2.9,5-3,6.6-0.3c0.9,1.4,1.9,2.8,2.6,4.4c1,2.4,1.9,4.6,5.3,3.7c0.3-0.1,1.2,2,1.9,3.1h0.1
				c-0.3,0-0.6,0-0.8,0c-0.5,0-1-0.1-1.3,0.1c-1.1,0.4-2.2,1-3.3,1.4c1.1,0,2.2,0.1,3.3-0.1c1.2-0.1,2.4-0.5,3.6-0.8
				c0.1,0,0.3-0.1,0.3,0c1.6,0.6,3.1,1.1,4.7,1.7c-1.4,0.8-2.9,1.9-4.5,2.3c-1.9,0.6-3.9,0.6-5.8,0.8c-3.7,0.4-5.9,3-5.7,6.7
				c0.1,3.2,0.4,6.3,0.5,9.5c0.1,3.4-1.7,5.9-4.3,7.7c-0.7,0.5-1.2,1.2-1.9,1.9c0.8,0.2,1.7,0.5,2.5,0.7c10.1,2.6,20.2,5.2,30.3,7.9
				c1.5,0.4,2.9,1.3,4.3,2c0,0.3,0,0.6,0.1,0.9c-0.8,0-1.7,0.1-2.6,0.1c-1.6-0.3-3.2-0.8-4.8-1.1c-1.8-0.6-3.7-1.1-5.4-1.6
				c-0.4-0.1-0.9,0-1.3,0.1c0.4,0.3,0.8,0.7,1.3,0.8c1.8,0.6,3.7,1,5.5,1.5c1.6,0.5,3.2,1,4.8,1.4c1.3,0.8,2.6,1.7,3.9,2.6
				c-1.5-0.1-3.1,0-4.6-0.4c-9-2.4-18.1-4.9-27-7.3c-1.4-0.3-2.8-0.7-4.1-1c-0.4-0.2-0.8-0.5-1.2-0.6c-1.2-0.2-2.4-0.3-3.7-0.4
				c1.2,0.3,2.6,0.8,3.8,1.1c1.7,0.6,3.5,1.3,5.2,1.9c2,0.8,4,1.5,5.9,2.4c0.6,0.3,1,1.2,1.4,1.8c-1.3-0.1-2.6-0.3-3.9-0.4
				c1.4,0.6,2.7,1.1,4.1,1.6c0.1,0,0.2-0.1,0.3-0.1c3.9,1.3,7.9,2.6,11.7,4c0.8,0.3,1.4,1.5,2,2.3c-1,0.1-1.9,0.6-2.8,0.4
				c-2.1-0.4-4.2-1.2-5.6,1.5c-0.2,0.3-1.7,0.2-2.6-0.1c-2.3-0.7-4.6-1.5-6.9-2.2c-1.5-0.5-3-1.7-4.6,0.3c-0.3,0.4-2.1-0.1-3.2-0.4
				c-4.3-1-8.5-2.1-12.8-3.2c0.1-0.1,0.1-0.1,0.2-0.3c0-0.1-0.1-0.1-0.1-0.2c0,0.1-0.1,0.3-0.1,0.5c-0.7,0.4-1.5,1.3-2.1,1.1
				c-1.7-0.5-3.4-1.4-5.1-2c-0.7-0.2-1.8-0.3-2.3,0.1c-0.6,0.5-1.2,1.7-1,2.3c1.9,5-0.6,7.9-4.6,10c-1.3,0.7-2.7,1.3-4,2
				c-2.2,1.1-2.8,2.4-1.1,4.6c1.1,1.4,1.7,3.3,2.4,5c-1.7-0.8-3.2-1.7-4.9-2.5c-0.7-0.3-1.4-0.7-2.1-1c0.1,0.8,0.2,1.5,0.3,2.3
				c0,0.1,0.1,0.2,0.1,0.3c0.3,1.7,0.6,3.2,0.8,4.9c-1.1-1-2.1-2-3.4-2.8c-0.6-0.4-1.8-0.7-2.4-0.4c-1.7,0.8-3.2,1.9-4.8,2.8
				c-1.4,0.9-3,1.8-4.4,2.6c0.9,1.1,2.1,2.1,2.7,3.4c0.7,1.5,1.7,3.7,1,4.8c-2.1,4-5,7.7-7.4,11.4c-0.5,0.7-1.3,1.5-1.2,2.2
				c0.9,4.8,0.3,6.8-3.8,9.2c-7.7,4.3-15.4,8.7-23.3,12.4c-9.6,4.5-19.4,8.4-29.2,12.5C4499.9,1824.7,4455.1,1824.7,4410.3,1824.7z
				 M4640.5,1717.2c-1.7,1.7-2.1,2.2-2.6,2.8c1,0.4,1.9,1,2.8,1.2c0.3,0.1,1.1-0.7,1-0.9C4641.5,1719.3,4641,1718.4,4640.5,1717.2z"
				/>
			<path class="st4" d="M3554.3,1684.1c-0.8,0.8-1.5,1.7-2.3,2.5c-2.9,3.2-2.3,5.9,1.9,7.1c4.1,1.2,8.2,1.9,12.3,2.8
				c14.1,2.9,28.2,5.9,42.3,8.6c13.1,2.6,26.3,4.9,39.4,7.3c0.3,0.1,0.7,0.1,1,0.2c0.8,0.3,1.5,0.6,2.3,0.9
				c-0.8,0.3-1.4,0.7-2.2,0.8c-14.9,3-29.9,5.8-44.7,9.2c-7.9,1.8-15.6,4.6-23.2,7.4c-4.7,1.7-5.3,5-1.4,8
				c8.5,6.6,17,13.2,26.2,18.8c23.9,14.6,49.2,26.8,75.3,36.9c27.2,10.5,55.1,19.4,84,24.4c9.2,1.6,18.5,2.9,27.8,4.3
				c0.6,0.1,1.1,0.8,1.7,1.3c-36.8,0-73.5,0-110.3,0c-1.1-0.2-2.1-0.6-3.2-0.6c-6.5-0.1-13,0-19.5,0c-17.3-7-35-13.1-50.8-23.3
				c-3.9-2.6-7.7-5-5.3-10.7c0.1-0.3-1-1.2-1.4-1.9c-2.5-3.7-5.4-7.2-7.3-11.2c-1.2-2.5,0.3-5.2,2.7-6.8c1.4-1,1.2-1.5-0.1-2.3
				c-2.5-1.4-5-2.8-7.4-4.4c-2-1.4-3.1-1.1-4.3,0.9c-0.5,0.8-1.6,1.2-2.4,1.9c0.1-1,0.1-2,0.3-2.9c0.3-1.6,0.7-3.2,1-4.8
				c-1.2,0.8-2.6,1.7-3.8,2.6c-0.6,0.4-1,1-1.7,1.2c-0.4,0.2-1.2,0.3-1.4,0c-0.3-0.3-0.3-1.1-0.1-1.5c0.6-1,1.4-2.1,2.3-3
				c2-2.3,1.7-3.8-1.2-5.2c-1.5-0.8-3.1-1.4-4.6-2.3c-4.1-2.6-4.7-4.1-3.9-8.8c0.1-0.9-0.3-2.3-0.9-2.9c-0.4-0.5-1.8-0.3-2.6,0
				c-1.7,0.6-3.4,1.5-5.1,2c-0.5,0.1-1.3-0.8-1.9-1.2c0.1-0.1,0.3-0.3,0.4-0.4c-0.1,0-0.3,0-0.5-0.1c0,0.1,0.1,0.3,0.1,0.5
				c-3.7,0.9-7.2,1.8-10.9,2.6c-2,0.5-4.1,2.5-6.2,0c-0.3-0.3-1.5,0.2-2.3,0.4c-2.6,0.8-5.2,1.9-7.8,2.5c-1,0.2-2.1-0.7-3.2-0.9
				c-1.7-0.3-3.4-0.3-5.1-0.4c-0.8-0.1-1.7-0.2-2.5-0.3c0.6-0.7,1-1.8,1.8-2.1c3.9-1.5,7.9-2.8,11.9-4.1c0.1,0,0.3,0.1,0.3,0.1
				c1.4-0.6,2.8-1.1,4.2-1.7c-1.4,0.1-2.8,0.2-4.3,0.3c1.8-1.1,3.6-2.2,5.4-3.3c3.2-1,6.4-1.9,9.6-2.9c1.2-0.5,2.3-1,3.5-1.5
				c-1.2,0.2-2.4,0.3-3.6,0.6c-3.2,0.8-6.3,1.7-9.6,2.5c-9.7,2.6-19.4,5.1-29,7.6c0-0.5,0.1-1,0.1-1.4c1.9-0.7,3.7-1.4,5.6-2.1
				c4.5-1.3,8.9-2.6,13.4-3.9c0.3-0.1,0.6-0.3,0.8-0.5c-0.3-0.1-0.8-0.2-1-0.1c-4.4,1.1-8.8,2.2-13.2,3.4c-1.4,0-2.9,0.1-4.4,0.1
				c1.2-0.7,2.3-1.7,3.7-2.1c10.2-2.8,20.4-5.3,30.6-8c1-0.3,1.9-0.6,2.8-0.9c-0.6-0.6-1.2-1.4-1.9-1.9c-3.7-2.4-4.4-5.7-4.3-10.1
				c0.1-3.7,1.9-8.1-1.4-11.4c-1-1-2.4-1.9-3.9-2.3c-2.3-0.6-4.8-0.4-7.2-1c-1.2-0.3-2.3-1.4-3.4-2.3c1.2-0.6,2.3-1.3,3.6-1.7
				c0.6-0.2,1.4,0.2,2.1,0c0.6-0.1,3.9,1.7,1.2-1.6c-1.3-1.5,0.8-2.4,2.1-2.1c2.5,0.6,3.3-0.5,4.1-2.6c0.8-2.1,2.1-4,3.4-5.9
				c1.7-2.4,5.2-2.1,6.4,0.6C3554.1,1681.8,3554.1,1683,3554.3,1684.1z M3555.6,1731.8c-0.6-0.3-0.9-0.5-1-0.4c-3.5,1-7,2-10.5,3
				c-0.3,0.1-0.4,0.5-0.6,0.7c0.5,0.1,1,0.3,1.4,0.2c3-0.9,6.1-1.9,9.1-2.8C3554.4,1732.3,3554.8,1732.1,3555.6,1731.8z
				 M3566,1721.6c1.1-0.8,1.9-1.2,2.6-1.8c-0.7-0.5-1.4-1.3-2.1-1.3c-0.7,0.1-1.3,1-1.9,1.5C3565,1720.5,3565.4,1721,3566,1721.6z
				 M3558.6,1699.6c-0.2-0.1-0.4-0.3-0.6-0.3c-0.2,0.1-0.3,0.3-0.5,0.4c0.2,0.1,0.4,0.1,0.6,0.1
				C3558.3,1699.8,3558.4,1699.7,3558.6,1699.6z M3540.6,1692.4c-0.2,0.1-0.3,0.2-0.5,0.3c0.2,0.1,0.4,0.2,0.6,0.2
				c0.2,0,0.4-0.1,0.6-0.1C3541.1,1692.6,3540.8,1692.5,3540.6,1692.4z"/>
			<path class="st4" d="M4799.9,1621.2c1.9,1.7,3.7,3.4,5.4,5.2c0.5,0.6,0.4,1.6,0.6,2.4c-0.8-0.2-1.7-0.3-2.3-0.7
				c-4-3.2-7.9-6.6-12-9.8c-0.7-0.6-2.3-1-2.6-0.7c-1.3,1.4-2.3,3-3.4,4.6c0.8,0.4,1.7,0.7,2.3,1.3c0.8,0.8,1.4,1.8,2.2,2.7
				c-1,0.6-1.9,1.8-2.9,1.8c-2.1,0-3.3,0.6-4.5,2.3c-2.1,3-5.6,1.4-7.7,0.8c-4.6-1.3-7.4,2.4-11.3,2.6c-0.1,0-0.3,0.4-0.5,0.7
				c0.3,0.1,0.6,0.2,0.8,0.5c0.9,1,1.8,1.9,2.7,2.9c-1.1,0.9-2,2.2-3.2,2.5c-3.4,0.8-7,1.2-10.5,1.9c-4.9,1-9.8,2.1-14.7,3
				c-3.2,0.6-6.6,0.5-9.9,0.8c-0.8,0.1-2.2,0.2-2.3,0.7c-1.4,3.7-4.3,2.8-6.7,2.1c-12.7-3.1-25.4-6.4-38-9.7c-4-1-8-2.1-12-3
				c-1.4-0.3-2.8-1.1-2.6,1.7c0.2,3-2.3,4.6-5.1,3.7c-1.6-0.6-3.2-1.4-4.6-2.3c-7.9-5.2-15.7-10.3-23.4-15.7
				c-1.1-0.8-1.4-2.8-1.9-4.3c-0.7-2.4,1.8-6.1-2.9-6.9c-0.4-0.1-1-1.4-0.9-1.9c0.2-0.8,1-1.7,1.7-1.9c1.6-0.4,2.3-0.8,1.9-2.8
				c-0.1-0.6,1.2-2.1,2.2-2.3c2.1-0.7,4.3,0.2,6-3.1c1.4-2.6,6-3.8,9.4-5.2c1.9-0.8,4.2-1,6.3-1.2c12.1-1.1,24.2-2.5,36.3-3.1
				c8.3-0.4,16.8,0.2,25.1,0.4c0.9,0,1.7-0.1,2.6-0.2c-0.6-0.8-1.1-1.7-1.9-2.2c-0.8-0.6-1.9-0.8-2.9-1
				c-19.2-4.8-38.3-9.4-57.4-14.3c-2.1-0.5-3.9-1.5-5.9-2.3c2.1-0.1,4.3-0.5,6.5-0.2c4.8,0.6,9.5,1.8,14.3,2.2
				c3.1,0.3,6.4-1,9.3-0.4c12.2,2.7,24.3,5.6,36.3,9c3.2,0.9,3.9-1,5.4-2.3c-0.5-0.6-1-1.2-1.5-1.7c-1-0.9-2.1-1.7-3.2-2.6
				c1.4,0.1,3-0.2,4.1,0.4c9.8,5.5,21,5.6,31.4,8.5c9.1,2.6,18,5.5,25.7,11.2c4.8,3.5,9.6,7.2,11.4,13.4c0.2,0.8,1.4,1.4,2.2,1.9
				c7.8,4.6,15.7,9,23.5,13.5c0.1,0.1,0.5-0.3,0.8-0.4c0,0.5,0,0.9,0,1.4c-3,1.7-4.1-1.7-6.2-2.3c-2.3-1.1-4.6-2.1-6.9-3.2
				c-0.2-0.2-0.4-0.5-0.7-0.7c-0.5-0.3-0.9-0.5-1.4-0.8c-0.5-0.2-1-0.4-1.4-0.7c-0.3-0.1-0.6-0.3-0.8-0.5c-0.1,0.1-0.1,0.2-0.2,0.3
				c0.3,0.1,0.6,0.1,1,0.3c0.4,0.3,0.9,0.5,1.3,0.8c0.5,0.3,1,0.8,1.5,1.1c0.2,0.1,0.4,0.1,0.7,0.1c2.3,1.4,4.5,2.9,6.8,4.3
				c-0.3,2.3-1.5,1.7-2.9,0.9c-2.6-1.4-5.2-2.7-7.8-4c-0.3-0.2-0.6-0.4-0.8-0.6c-0.5-0.1-1-0.3-1.4-0.4c0.2,0.4,0.5,0.8,0.7,1.2
				C4799.4,1620.8,4799.6,1621,4799.9,1621.2z M4779.6,1602.8c0.1,0.1,0.3,0.2,0.4,0.3c-0.1-0.1-0.2-0.3-0.3-0.4
				c-0.7-0.7-1.4-1.3-2.1-2c-5.4-2.8-10.8-5.6-16.1-8.3c-0.5-0.2-1.2,0-1.7,0c0.4,0.5,0.8,1.1,1.3,1.4c5.2,2.6,10.5,5.2,15.7,7.8
				C4777.7,1602,4778.7,1602.4,4779.6,1602.8z M4724.7,1628c12.3-0.8,24.8-1.5,37.3-2.6c3.4-0.3,6.6-1.6,9.9-2.7
				c1.4-0.5,2.6-1.6,3.8-2.4c-0.8-0.8-1.4-1.7-2.3-2.4c-1.2-0.9-2.6-1.5-3.9-2.3c-1-0.6-1.9-1.1-2.9-1.7c0.8-0.1,1.9,0.1,2.5-0.2
				c1-0.7,1.8-1.7,2.6-2.6c0.5-0.6,1-1.2,1.6-1.6c0.4-0.3,1.1-0.1,1.7-0.1c-0.6-0.4-1-0.8-1.7-1.2c-10-5-20.6-8.1-31.4-10.8
				c-16.1-4-32.3-5.3-48.8-4.2c-10.6,0.7-21.2,2.1-31.9,3c-6.1,0.5-12.1,0.6-17.2,4.9c-0.6,0.5-1.1,0.9-1.7,1.4
				c0.7-0.1,1.4,0,2.1-0.1c10.1-1.3,20.2-2.7,30.3-3.9c0.8-0.1,1.5,0.3,2.3,0.5c-0.6,0.7-1.2,1.3-1.8,2c-0.8,0.9-2.3,1.7-2.3,2.6
				c-0.1,2.1-1.2,2-2.7,2.1c-2.4,0.2-4.8,0.4-7.2,0.7c-0.8,0.1-2.1,0.3-2.3,0.9c-1.2,2.6-3.4,2.1-5.6,2.1c-3.7,0-7.5,0.2-11.2,0.5
				c-0.6,0-1,0.6-1.5,1c0.4,0.3,0.8,0.9,1.2,1c12.1,4.8,23.8,10.8,37,12.6c6.8,0.9,13.5,3,20.3,3.5
				C4708.7,1628.5,4716.6,1628,4724.7,1628z M4763.6,1597.7c-1.8-1-2.8-1.7-3.9-2.1c-0.3-0.1-0.7,0.2-1,0.3c1,0.6,1.9,1.2,2.9,1.8
				C4761.8,1597.9,4762.3,1597.7,4763.6,1597.7z M4782.7,1614.7c-0.3-0.3-0.5-0.7-0.7-0.7c-0.3,0-0.6,0.2-0.8,0.3
				c0.2,0.3,0.4,0.6,0.7,0.8C4782,1615.2,4782.3,1614.9,4782.7,1614.7z M4797.4,1619.1l0.1-0.2h-0.2L4797.4,1619.1z"/>
			<path class="st4" d="M3388.9,1623.4c0.3,0.1,0.6,0.5,0.8,0.4c7.9-4.5,15.7-9,23.5-13.5c0.9-0.6,1.7-1.4,2.3-2.3
				c2.6-3.4,4.6-7.4,7.8-10.2c10.2-9,22.9-13,35.9-15.5c8.3-1.7,16.6-3.1,24.3-7c0.4-0.2,0.9-0.3,1.3-0.4c1-0.1,2.1-0.1,3.2-0.1
				c-0.8,0.7-1.5,1.4-2.3,2.1c-0.8,0.7-1.7,1.4-2.5,2.1c1.7,0.7,1.6,3.4,4.8,2.6c12.3-3.4,24.7-6.2,37-9.2c9.1,2,17.8-1.5,26.7-2.1
				c1.1-0.1,2.3,0.4,3.4,0.6c-1.1,0.6-2.1,1.4-3.2,1.7c-4.8,1.2-9.6,2.2-14.4,3.4c-15.1,3.8-30.3,7.7-45.4,11.4
				c-0.7,0.1-1.4,0.2-1.9,0.6c-1.1,0.8-2.1,1.9-3.2,2.8c1.2,0.1,2.4,0.3,3.6,0.1c16.3-2.1,32.5,1.2,48.8,2c4.5,0.2,9.1,0,13.4,1.1
				c4.9,1.2,10.4,2.8,13.8,6.1c2.3,2.3,4.8,2.1,6.8,3.4c2.3,1.4,2.6,5.1,5.2,6.8c0.1,0.1-0.5,1.8-1,1.9c-4.7,0.8-2.3,4.5-3,6.9
				c-0.4,1.5-0.8,3.5-1.9,4.3c-7.7,5.4-15.6,10.6-23.4,15.7c-1.5,1-3.2,1.9-4.9,2.4c-2.6,0.8-5-0.8-4.8-3.4c0.3-3.1-1.2-2.5-3-2
				c-11.3,3-22.6,6.1-33.9,9c-5.4,1.4-11,2.6-16.4,3.7c-2.3,0.5-4.9,1-6-2.3c-0.1-0.5-1.5-0.7-2.3-0.7c-5,0.2-9.7-0.4-14.5-2.3
				c-2.8-1.2-6.3-0.8-9.5-1.3c-3.7-0.6-7.5-1-11.2-1.9c-1.2-0.3-2.2-1.7-3.2-2.5c0.9-1,1.7-1.9,2.6-2.9c0.3-0.3,0.6-0.5,1-0.8
				c-0.4-0.2-0.8-0.4-1.2-0.6c-5-2.2-10.1-3.4-15.5-1.8c-0.1,0-0.3,0.1-0.3,0.1c-3-1.9-6-3.7-9.4-4.9c-1.7-0.6,0.1-2.6,1.6-3.4
				c0.8-0.5,3.7-0.3,1.7-2.3c-1.3-1.4-1.6-5.9-5.3-2.9c-4.1,3.2-7.9,6.6-12,9.8c-0.6,0.5-1.5,0.5-2.3,0.8c0.2-0.8,0.1-1.9,0.6-2.4
				c1.7-1.9,3.6-3.5,5.4-5.2c0.3-0.2,0.6-0.3,0.8-0.6c0.2-0.4,0.5-0.8,0.7-1.2c-0.5,0.1-1,0.3-1.4,0.4c-0.3,0.2-0.6,0.4-0.8,0.6
				c-2.6,1.3-5.2,2.6-7.8,4c-1.3,0.7-2.6,1.4-2.9-0.9c2.3-1.4,4.5-2.9,6.8-4.3c0.2,0,0.5-0.1,0.7-0.1c0.5-0.3,1-0.8,1.5-1.1
				c0.4-0.3,0.9-0.5,1.3-0.8c0.3-0.1,0.6-0.2,1-0.3c-0.1-0.1-0.1-0.3-0.2-0.3c-0.3,0.1-0.6,0.3-0.8,0.5c-0.5,0.2-1,0.4-1.4,0.7
				c-0.5,0.3-0.9,0.5-1.4,0.8c-0.2,0.2-0.4,0.5-0.7,0.7c-2.3,1.1-4.6,2.1-6.9,3.2c-0.4,0.2-1,0.3-1.2,0.6c-1.3,1.8-3,2.2-5,1.6
				C3388.9,1624.3,3388.9,1623.9,3388.9,1623.4z M3426.8,1602.8c1-0.4,1.9-0.8,2.9-1.2c5.2-2.6,10.5-5.2,15.7-7.8
				c0.6-0.3,0.8-0.9,1.3-1.4c-0.6,0-1.3-0.2-1.7,0c-5.4,2.8-10.8,5.5-16.1,8.3c-0.7,0.7-1.4,1.3-2.1,2c-0.1,0.1-0.2,0.3-0.3,0.4
				C3426.6,1603,3426.7,1603,3426.8,1602.8z M3502.2,1592.7c0,0.1,0,0.1,0,0.2c-1.9,0-3.9-0.1-5.9,0c-21.7,1.3-42.8,5.6-62.5,15.1
				c-0.8,0.4-1.6,0.9-2.3,1.3c0.7,0.1,1.4,0.1,2.1,0.4c0.3,0.1,0.6,0.7,0.8,1c1.2,1.5,1.9,3.8,4.7,3c0.2-0.1,0.4,0.1,0.7,0.1
				c-0.3,0.3-0.6,0.6-1,0.8c-2.6,1.5-5.2,3-7.6,4.6c-1,0.7-1.9,2,0.3,2.7c3.2,1,6.2,2.6,9.4,3c6.6,1,13.3,1.9,20,2.1
				c15,0.5,30.1,1,45,0.4c9-0.3,18.1-2.1,26.8-4.6c10.2-3,20-7.4,29.9-11.2c0.6-0.2,1-0.8,1.5-1.2c-0.6-0.3-1.3-0.9-1.9-1
				c-3.7-0.2-7.5-0.2-11.2-0.4c-1.5-0.1-3-0.5-4.5-1c-1.4-0.6-2.8-1.7-4.2-2c-2.2-0.5-4.6-0.4-6.8-0.8c-0.6-0.1-1.7-0.7-1.7-1.1
				c-0.1-2.3-1.3-3.2-3.4-3.7c-0.5-0.1-0.7-1.2-1-1.9c0.6-0.1,1.2-0.5,1.7-0.5c4,0.4,8,0.8,12,1.3c6.5,0.9,13,1.9,19.4,2.8
				c0.6,0.1,1.1,0,1.6-0.1c-0.2-0.3-0.3-0.6-0.6-0.8c-4.1-2.4-8.1-4.8-13.2-5.1C3534.2,1595.4,3518.2,1594,3502.2,1592.7z
				 M3448.4,1596.4c-0.6-0.6-0.9-1-1-0.9c-1.2,0.6-2.3,1.2-3.4,1.9c0.2,0.1,0.4,0.5,0.6,0.5
				C3445.7,1597.4,3446.8,1596.9,3448.4,1596.4z M3424.5,1615.4c0.3-0.3,0.6-0.4,0.8-0.6c-0.3-0.3-0.5-0.6-0.8-0.8
				c-0.2,0.2-0.5,0.4-0.6,0.7C3424,1614.8,3424.3,1615,3424.5,1615.4z M3409.1,1619.1l0.1-0.1l-0.2-0.1L3409.1,1619.1z"/>
			<path class="st3" d="M3661.8,1824c6.5,0,13,0,19.5,0c1.1,0,2.1,0.4,3.2,0.6c-7.6,0-15.2,0-22.8,0
				C3661.9,1824.5,3661.9,1824.3,3661.8,1824z"/>
			<path class="st4" d="M4643.8,1676.5c-2.9-2-5.8-4-8.8-5.9c-9.2-5.8-18.1-12.1-27.8-17.1c-17.7-9.2-35.5-18.1-53.7-26.1
				c-22.1-9.8-45-17.8-68.5-23.3c-0.8-0.2-1.5-0.8-2.3-1.1c0.8-0.1,1.6-0.1,2.4-0.1c9.3,0,18.6-0.1,27.9,0.1
				c5.6,0.1,11.2,0.4,16.8,0.6c1.2,0,2.3-0.7,3.4-1c-0.7-1-1.1-2.3-2-2.9c-6.3-4.1-12.7-8.2-19.3-11.9c-13-7.2-26.6-12.8-40.8-17
				c-15-4.4-29.9-9.4-45.2-13.1c-19.2-4.6-38.7-8.1-58.1-11.9c-13.9-2.7-27.9-5-41.8-7.4c-2.1-0.3-4.3-0.5-6.5-0.8
				c-0.7-0.1-1.3-0.5-1.9-0.8c0.7-0.2,1.4-0.5,2.1-0.5c9.2-0.1,18.3-0.1,27.6-0.1c0.9,0,1.9,0.1,2.8,0c0.7-0.1,1.4-0.6,2.1-0.8
				c-0.5-0.7-0.8-1.7-1.5-2c-3.7-1.6-7.3-3.6-11.2-4.4c-12.1-2.7-24.3-5-36.6-7.2c-9.2-1.7-18.5-3.1-27.7-4.4
				c-9.9-1.4-19.9-2.7-29.9-3.8c-8.3-0.9-16.6-1.4-24.9-2.3c-0.8-0.1-1.4-0.9-2.1-1.4c0.1-7.6,0.1-7.7,7.7-6.8c8.4,1,16.8,2,25.2,3
				c0.7,0.1,1.4,0.1,2,0.2c-0.3-0.6-0.6-1.2-0.9-1.7c-1.4-2.2-0.3-3.9,1.4-4.9c1.4-0.8,3.2-1.4,4.8-1.3c5.4,0.5,11,1.1,16.3,2
				c13.1,2.2,26.2,4.4,39.3,6.9c5,1,9.9,2.7,14.8,4.3c1,0.3,2.3,1.1,2.6,2c1,3.2,3.2,3.4,6,3c0.8-0.1,2.1,0,2.6,0.6
				c2.3,2.9,5.6,2.3,8.6,2.3c4.9-0.1,9.7,0.5,14.8-0.7c4.8-1.1,10.1,0.8,15.3,1.4c17.2,1.9,33.9,6.8,50.7,10.8
				c9.3,2.2,18.8,3.9,28.3,5.6c3.7,0.7,6.2,2.2,7.2,5.9c0.2,0.7,0.6,1.6,1.2,1.9c6,2.9,11.9,5.8,18.1,8.3c1.8,0.8,4.1,0.3,6.1,0.4
				c1,0.1,2.1,0.1,3,0.6c7.5,3.9,14.8,8.2,22.5,11.7c9.5,4.3,19.3,7.9,29,11.8l0,0c0.9,0.7,1.8,1.4,2.8,2.1c3.9,2.4,8.7,3.9,9.7,9.4
				c0.1,0.7,1.2,1.3,1.9,1.9c3.9,3,7.8,6,11.7,9c2,1.6,3.7,3.5,6.9,2.9c1.2-0.2,3,1.1,4.2,2c2.3,1.7,4.4,3.7,6.4,5.7
				c1.8,1.8,3.2,3.3,6.4,2.6c1.7-0.3,4.2,1,5.9,2.3c12.9,10.1,24,22,33.7,35c2.4,3.2,3.6,7.4,5.4,11c1.4,2.9,2.8,5.7,4.4,8.5
				C4646.2,1671.8,4646.3,1674.3,4643.8,1676.5z"/>
			<path class="st4" d="M3988.1,1510.4c-3.7,0.4-7.4,0.9-11.2,1.3c-19.4,2.3-38.8,4.3-58.1,7.1c-18.7,2.7-37.4,5-55.4,11
				c-2.7,0.9-5.4,2.1-7.9,3.3c-0.8,0.3-1.1,1.5-1.7,2.3c0.9,0.3,1.8,1,2.8,1c9.7,0.1,19.4,0.1,29.2,0.1c0.5,0,1,0.2,1.4,0.3
				c-0.4,0.1-0.8,0.2-1.3,0.3c-15.7,2.7-31.3,5.4-47,8.2c-14.8,2.7-29.5,5.1-44.1,8.4c-14.7,3.4-29.3,7.4-43.8,11.7
				c-18.6,5.4-37.2,11.2-54.2,20.6c-7.3,4.1-14.3,8.6-21.4,13c-1,0.6-1.5,2.1-2.3,3.2c1.2,0.4,2.4,1.2,3.7,1.1
				c14.7-0.1,29.4-0.4,44.1-0.6c0.8,0,1.6,0.1,2.3,0.2c-0.6,0.3-1.2,0.9-1.9,1.1c-12.6,3.8-25.3,7.4-37.8,11.4
				c-25.4,8.3-49.4,20.1-73.5,31.7c-9.8,4.7-18.9,10.8-28.1,16.5c-6.4,4-12.5,8.6-18.7,12.9c-2.6-2.1-2.7-4.6-1.4-7.4
				c2.2-4.6,4.3-9.4,6.6-13.9c1.2-2.6,2.6-5.2,4.4-7.4c9.4-11.9,19.7-23.1,31.5-32.6c2.7-2.1,5.4-3.8,9.1-2.9c0.8,0.2,2-0.8,2.8-1.4
				c2.6-2.3,4.9-4.9,7.7-6.8c1.7-1.2,4.1-1.4,6.2-2.2c1-0.3,2.1-0.8,3-1.4c3.9-3,7.9-6,11.8-9c2.1-1.7,4.3-3,5-6.1
				c0.3-1.6,2.5-3,4.1-4c2.5-1.6,5.1-3.2,7.9-4.2c14.8-5.5,28.9-12.2,42.5-20.1c2.7-1.5,5.6-2.7,8.4-3.9c0.8-0.3,1.9-0.8,2.6-0.5
				c4.9,1.7,8.8-1.2,12.9-2.8c2.6-1,5-2.7,7.7-3.9c2.8-1.3,5.4-2.3,6.4-5.9c0.5-1.7,3.6-3.1,5.7-3.5c7.9-1.6,15.9-2.3,23.7-4.2
				c10.6-2.5,20.9-6.2,31.6-8.3c12.6-2.6,25.3-4,38-5.9c6.3,2.8,12.8,0.8,19.2,1c1.5,0.1,3-1.1,4.6-1.6c1.4-0.5,3-1,4.5-1
				c2.1-0.1,4.1,0,4.8-2.7c0.3-1,1.7-2,2.8-2.3c4.4-1.5,8.9-3.1,13.5-4c14.6-2.8,29.3-5.5,44-8c4.2-0.7,8.4-0.9,12.7-1.2
				c1.2-0.1,2.6,0.1,3.7,0.6c3.6,1.2,4.1,3.9,1.3,6.8c-4.3,0.8-8.6,1.4-12.8,2.3c-0.5,0.1-0.8,0.6-1.3,1c0.4,0.1,0.9,0.2,1.3,0.1
				c4.3-0.8,8.7-1.7,13-2.5c11-1.4,22-2.6,33-4.1c2-0.3,2.3,0.5,2.3,2.2C3987.7,1506.5,3987.9,1508.4,3988.1,1510.4z"/>
			<path class="st4" d="M4604.1,1591.6c3.1-0.2,6.1,0.6,6.8,3.9c0.4,1.9-0.3,4.7-1.6,6.1c-2.2,2.3-4.9,4.3-8.8,2.2
				c-5.2-2.9-10.7-5.2-16-7.9c-0.6-0.3-1.1-0.8-1.7-1.1c0.6-0.2,1.2-0.6,1.8-0.6C4591.1,1593.2,4597.6,1592.4,4604.1,1591.6z"/>
			<path class="st4" d="M3603,1591.9c5.9,0.8,12.3,1.6,18.8,2.5c0.4,0.1,0.8,0.3,1.2,0.5c-0.3,0.3-0.6,0.6-1,0.8
				c-5.8,2.8-11.5,5.7-17.3,8.4c-3.2,1.4-5.8-0.6-7.5-2.8c-1.2-1.4-1.7-4.3-1.2-6.1C3596.6,1592.1,3599.6,1591.7,3603,1591.9z"/>
			<path class="st5" d="M3519.9,1733.9c4.4-1.1,8.8-2.3,13.2-3.4c0.3-0.1,0.7,0.1,1,0.1c-0.3,0.2-0.6,0.4-0.8,0.5
				c-4.5,1.3-8.9,2.6-13.4,3.9C3519.9,1734.7,3519.9,1734.3,3519.9,1733.9z"/>
			<path class="st3" d="M3952.6,1506.5c-4.3,0.8-8.7,1.7-13,2.5c-0.4,0.1-0.9-0.1-1.3-0.1c0.4-0.3,0.8-0.9,1.3-1
				c4.3-0.8,8.5-1.5,12.8-2.3C3952.4,1505.9,3952.4,1506.1,3952.6,1506.5z"/>
			<path class="st6" d="M3543.2,1730.9c3.2-0.8,6.3-1.7,9.5-2.5c0,0.3,0.1,0.6,0.1,1c-3.2,1-6.4,1.9-9.6,2.9
				C3543.2,1731.9,3543.2,1731.4,3543.2,1730.9z"/>
			<path class="st6" d="M4811.3,1623.6c-2.3-1.4-4.5-2.9-6.8-4.3l-0.1,0.1c2.3,1.1,4.6,2.1,6.9,3.2
				C4811.4,1622.9,4811.4,1623.2,4811.3,1623.6z"/>
			<path class="st6" d="M3402,1619.3c-2.3,1.4-4.5,2.9-6.8,4.3c-0.1-0.3-0.1-0.7-0.1-1C3397.3,1621.5,3399.7,1620.4,3402,1619.3
				L3402,1619.3z"/>
			<path class="st7" d="M4670.8,1692.3c-1.2,0.3-2.3,0.6-3.6,0.8c-1.1,0.1-2.2,0.1-3.3,0.1c1.1-0.5,2.2-1,3.3-1.4
				c0.4-0.1,0.9-0.1,1.4-0.1c0.2,0.1,0.4,0.3,0.6,0.4c0.1-0.1,0.1-0.3,0.2-0.5h-0.1C4669.8,1691.8,4670.3,1692.1,4670.8,1692.3z"/>
			<path class="st5" d="M3537.9,1735.7c1.4-0.1,2.8-0.2,4.3-0.3c-1.4,0.6-2.8,1.1-4.2,1.7c-0.1,0-0.2-0.1-0.3-0.1
				C3537.7,1736.5,3537.8,1736.1,3537.9,1735.7z"/>
			<path class="st5" d="M4683.9,1733.4c1.6,0.3,3.2,0.8,4.8,1.1c0.1,0.4,0.1,0.8,0.1,1.2c-1.6-0.5-3.2-1-4.8-1.4
				C4683.9,1734,4683.9,1733.7,4683.9,1733.4z"/>
			<path class="st5" d="M4657,1729.5c1.4,0.3,2.8,0.7,4.1,1c0,0.3,0.1,0.7,0.1,1c-1.7-0.6-3.5-1.3-5.2-1.9
				C4656.3,1729.6,4656.6,1729.6,4657,1729.5z"/>
			<path class="st5" d="M4545.3,1576.6c0-0.6,0.1-1.2,0.1-1.9c0.8,0.5,1.6,1,2.4,1.5C4547,1576.4,4546.1,1576.6,4545.3,1576.6
				L4545.3,1576.6z"/>
			<path class="st3" d="M4669,1736.9c-0.1,0-0.2,0.1-0.3,0.1c-1.4-0.6-2.7-1-4.1-1.6c1.3,0.1,2.6,0.3,3.9,0.4
				C4668.7,1736.1,4668.8,1736.5,4669,1736.9z"/>
			<path class="st6" d="M3661.8,1575.5c-0.8,0.4-1.4,0.7-1.9,0.9c-0.1,0-0.3-0.3-0.5-0.6c0.6-0.3,1-0.7,1.7-1
				C3661.1,1574.8,3661.4,1575.1,3661.8,1575.5z"/>
			<path class="st6" d="M3514.3,1737.2c0,0.5-0.1,1-0.1,1.4c-0.3-0.2-0.6-0.3-1-0.6C3513.6,1737.7,3513.9,1737.4,3514.3,1737.2z"/>
			<path class="st5" d="M4691.2,1734.5c0-0.3,0-0.6-0.1-0.9C4691.2,1733.9,4691.2,1734.2,4691.2,1734.5z"/>
			<path class="st7" d="M4105.1,1547.7c7,0,14-0.2,21,0.1c14.3,0.6,28.5,1,42.8,2.1c13.5,1,27,2.3,40.5,4.1
				c13.8,1.8,27.6,3.9,41.2,6.6c18.2,3.7,36.3,7.9,54.3,12.7c18.7,5,36.8,11.7,54.5,19.9c15.2,7,29.5,15.2,42.6,25.5
				c11.7,9.3,21.7,20.1,27.1,34.3c5.6,14.5,4.1,28.8-3.5,42.3c-9.6,17-24.3,28.6-40.6,38.6c-26.5,16.3-55.6,26.7-85.5,35.1
				c-23,6.5-46.4,11.1-69.9,14.9c-11.4,1.8-23,3-34.6,4.3c-10.9,1.1-21.8,2-32.8,2.8c-9.7,0.7-19.4,1.2-29.1,1.4
				c-16.5,0.3-33,0.8-49.5,0.6c-14.1-0.2-28.3-1-42.5-2.1c-13.5-1-27-2.3-40.5-4.1c-13.8-1.8-27.6-3.9-41.2-6.6
				c-18.2-3.7-36.3-7.9-54.3-12.7c-18.7-5-36.9-11.7-54.5-19.9c-15.2-7-29.5-15.2-42.6-25.5c-11.8-9.3-21.7-20.2-27.1-34.3
				c-4.6-12-4.5-24.1,0.6-36.1c6.7-15.7,18.4-27.1,31.9-37c18.8-13.7,39.6-23.3,61.2-31.4c18.9-7,38.2-12.9,57.9-17.1
				c16.8-3.7,33.8-6.7,50.8-9.4c13.9-2.3,28-4.1,42.1-5.4c11.8-1.2,23.7-1.6,35.6-2.2c14.8-0.7,29.5-1.2,44.3-1.9
				C4105,1547.3,4105,1547.5,4105.1,1547.7z M4102.2,1575.2c0-0.4,0-0.8,0-1.2c-12.8,0.6-25.6,1.1-38.4,1.9
				c-9.4,0.6-19,0.9-28.3,2.2c-16.5,2.3-32.9,5-49.2,8.1c-27.4,5.3-53.9,13.7-78.7,26.8c-13.8,7.2-26.7,15.7-36.3,28.3
				c-10.5,13.5-13.9,28.8-5.7,45c5.6,11,14.2,19.2,24.1,26.3c14.3,10.2,30,17.5,46.4,23.7c21.6,8.1,43.9,13.7,66.5,17.4
				c14.3,2.4,28.9,4.1,43.4,5.6c13,1.3,25.9,2.6,39,2.6c18.7,0.1,37.4-0.4,56-1.3c12.2-0.6,24.3-1.7,36.4-3.4
				c16.5-2.3,33-4.9,49.2-8.5c27.2-6.1,53.4-14.8,77.6-29c12.8-7.4,24.5-16.2,32.5-29c6.9-11,9.2-22.8,4.6-35.4
				c-4.4-12.3-13-21.2-23-28.9c-16.3-12.5-34.9-21-54.3-27.7c-24.9-8.7-50.5-14.6-76.6-17.9c-16.8-2.1-33.7-4.1-50.7-5.3
				C4125.2,1574.6,4113.7,1575.2,4102.2,1575.2z"/>
			<path class="st6" d="M4640.5,1717.2c0.5,1.2,1,2.1,1.2,3c0.1,0.2-0.8,1-1,0.9c-1-0.3-1.9-0.8-2.8-1.2
				C4638.4,1719.4,4638.9,1718.9,4640.5,1717.2z"/>
			<path class="st7" d="M4683.9,1733.4c0,0.3,0,0.6,0,0.8c-1.9-0.5-3.7-1-5.5-1.5c-0.5-0.1-0.8-0.6-1.3-0.8c0.4,0,0.9-0.1,1.3-0.1
				C4680.3,1732.3,4682.1,1732.9,4683.9,1733.4z"/>
			<path class="st3" d="M4657,1729.5c-0.3,0.1-0.7,0.1-1,0.1c-1.2-0.3-2.6-0.8-3.8-1.1c1.2,0.1,2.4,0.2,3.7,0.4
				C4656.2,1729,4656.5,1729.3,4657,1729.5z"/>
			<path class="st3" d="M3555.6,1731.8c-0.8,0.3-1.2,0.5-1.6,0.6c-3,1-6.1,1.9-9.1,2.8c-0.4,0.1-1-0.1-1.4-0.2
				c0.2-0.3,0.3-0.6,0.6-0.7c3.4-1,7-2.1,10.5-3C3554.8,1731.3,3555,1731.5,3555.6,1731.8z"/>
			<path class="st7" d="M3552.8,1729.4c0-0.3-0.1-0.6-0.1-1c1.2-0.2,2.4-0.3,3.6-0.6C3555.2,1728.5,3554.1,1728.9,3552.8,1729.4z"/>
			<path class="st3" d="M3558.6,1699.6c-0.1,0.1-0.3,0.3-0.5,0.3c-0.2,0-0.3-0.1-0.6-0.1c0.1-0.1,0.3-0.4,0.5-0.4
				C3558.1,1699.3,3558.3,1699.4,3558.6,1699.6z"/>
			<path class="st6" d="M4776.7,1601.6c-5.2-2.6-10.5-5.2-15.7-7.8c-0.6-0.3-0.8-0.9-1.3-1.4c0.6,0,1.3-0.2,1.7,0
				c5.4,2.8,10.8,5.5,16.1,8.3C4777.4,1601,4777.1,1601.3,4776.7,1601.6z"/>
			<path class="st7" d="M4763.6,1597.7c-1.3,0-1.8,0.1-2.1,0c-1-0.6-1.9-1.2-2.9-1.8c0.3-0.1,0.8-0.5,1-0.3
				C4760.7,1596.1,4761.8,1596.7,4763.6,1597.7z"/>
			<path class="st5" d="M4776.7,1601.6c0.3-0.3,0.6-0.6,0.9-0.8c0.7,0.7,1.4,1.3,2.1,2l-0.1,0.1
				C4778.7,1602.4,4777.7,1602,4776.7,1601.6z"/>
			<path class="st5" d="M4799.1,1620.6c-0.2-0.4-0.5-0.8-0.7-1.2c0.5,0.1,1,0.3,1.4,0.4C4799.5,1620.1,4799.3,1620.3,4799.1,1620.6z
				"/>
			<path class="st7" d="M4803.9,1619.2c-0.5-0.3-1-0.8-1.5-1.1l0.1-0.1c0.5,0.3,0.9,0.5,1.4,0.8
				C4803.9,1618.8,4803.9,1619,4803.9,1619.2z"/>
			<path class="st7" d="M4801.1,1617.2c0.5,0.2,1,0.4,1.4,0.7l-0.1,0.1C4802,1617.8,4801.5,1617.5,4801.1,1617.2L4801.1,1617.2z"/>
			<path class="st7" d="M4801.1,1617.2c-0.3-0.1-0.6-0.1-1-0.3c0.1-0.1,0.1-0.2,0.2-0.3C4800.6,1616.9,4800.8,1617,4801.1,1617.2
				L4801.1,1617.2z"/>
			<path class="st5" d="M4779.8,1602.8c0.1,0.1,0.2,0.3,0.3,0.4c-0.1-0.1-0.3-0.2-0.4-0.3
				C4779.6,1602.8,4779.8,1602.8,4779.8,1602.8z"/>
			<path class="st6" d="M4803.9,1619.2c0-0.1,0-0.3-0.1-0.5c0.2,0.2,0.4,0.5,0.7,0.7l0.1-0.1
				C4804.3,1619.3,4804.1,1619.2,4803.9,1619.2z"/>
			<polygon class="st5" points="4797.4,1619.1 4797.3,1618.9 4797.5,1618.9 			"/>
			<path class="st6" d="M3428.8,1600.8c5.4-2.8,10.8-5.6,16.1-8.3c0.5-0.2,1.2,0,1.7,0c-0.4,0.5-0.8,1.1-1.3,1.4
				c-5.2,2.6-10.5,5.2-15.7,7.8C3429.4,1601.3,3429.1,1601,3428.8,1600.8z"/>
			<path class="st7" d="M3448.4,1596.4c-1.5,0.6-2.8,1-3.9,1.4c-0.1,0.1-0.3-0.3-0.6-0.5c1.2-0.6,2.3-1.2,3.4-1.9
				C3447.5,1595.4,3447.8,1595.9,3448.4,1596.4z"/>
			<path class="st5" d="M3428.8,1600.8c0.3,0.3,0.6,0.6,0.9,0.8c-1,0.4-1.9,0.8-2.9,1.2l-0.1-0.1
				C3427.4,1602.1,3428.1,1601.4,3428.8,1600.8z"/>
			<path class="st5" d="M3406.7,1619.9c0.5-0.1,1-0.3,1.4-0.4c-0.2,0.4-0.5,0.8-0.7,1.2C3407.2,1620.3,3407,1620.1,3406.7,1619.9z"
				/>
			<path class="st7" d="M3404.1,1618c-0.5,0.3-1,0.8-1.5,1.1c0-0.1,0-0.3,0.1-0.5c0.5-0.3,0.9-0.5,1.4-0.8L3404.1,1618z"/>
			<path class="st7" d="M3405.4,1617.2c-0.4,0.3-0.9,0.5-1.3,0.8l-0.1-0.1C3404.4,1617.7,3404.9,1617.4,3405.4,1617.2L3405.4,1617.2
				z"/>
			<path class="st7" d="M3405.4,1617.2c0.3-0.1,0.6-0.3,0.8-0.5c0,0,0.1,0.2,0.2,0.3C3406,1617.1,3405.7,1617.2,3405.4,1617.2
				L3405.4,1617.2z"/>
			<path class="st5" d="M3426.8,1602.8c-0.1,0.1-0.3,0.2-0.4,0.3c0.1-0.1,0.2-0.3,0.3-0.4
				C3426.7,1602.8,3426.8,1602.8,3426.8,1602.8z"/>
			<polygon class="st5" points="3409.1,1619.1 3409,1618.9 3409.3,1618.9 			"/>
			<path class="st6" d="M3402.6,1618.6c-0.1,0.1-0.1,0.3-0.1,0.5c-0.2,0.1-0.4,0.1-0.7,0.1l0.1,0.1
				C3402.2,1619.1,3402.4,1618.9,3402.6,1618.6z"/>
			<path class="st5" d="M4102.2,1575.2c11.4,0,23-0.7,34.3,0.1c17,1.2,33.9,3.2,50.7,5.3c26.1,3.3,51.7,9.2,76.6,17.9
				c19.3,6.8,37.9,15.2,54.3,27.7c10,7.7,18.6,16.6,23,28.9c4.6,12.6,2.3,24.4-4.6,35.4c-8,12.8-19.8,21.5-32.5,29
				c-24.1,14.2-50.4,22.9-77.6,29c-16.2,3.6-32.7,6.1-49.2,8.5c-12.1,1.7-24.3,2.9-36.4,3.4c-18.6,0.9-37.3,1.4-56,1.3
				c-13-0.1-26-1.3-39-2.6c-14.5-1.4-29-3.2-43.4-5.6c-22.7-3.8-45-9.4-66.5-17.4c-16.4-6.1-32.1-13.4-46.4-23.7
				c-9.9-7-18.5-15.3-24.1-26.3c-8.1-16.1-4.8-31.4,5.7-45c9.7-12.5,22.5-21,36.3-28.3c24.8-13,51.3-21.4,78.7-26.8
				c16.3-3.2,32.8-5.8,49.2-8.1c9.4-1.3,18.9-1.7,28.3-2.2c12.8-0.8,25.6-1.2,38.4-1.9C4102.1,1574.4,4102.1,1574.8,4102.2,1575.2z
				 M4102.8,1729.4c11.1-0.8,24.3-1.6,37.6-2.6c15.7-1.2,31-3.7,46.2-7.7c20.5-5.2,40.6-11.6,57.2-25.6c7.2-6.1,12.6-13.4,12.2-23.5
				c-0.3-9-5.4-15.7-11.8-21.3c-10.8-9.4-23.6-15.2-37-19.9c-16.3-5.7-33.1-9.8-50.3-11.7c-15.8-1.7-31.6-3.1-47.4-4
				c-9.4-0.5-18.8,0.2-28.1,0.6c-8,0.3-16.1,0.3-23.9,1.5c-16.1,2.6-32.2,5.2-48,9c-18.6,4.6-36.6,11.3-51.5,24.1
				c-7,6-12.4,13.3-12.1,23.2c0.3,9.2,5.4,16,11.9,21.7c10.8,9.4,23.6,15.2,37,19.8c22.7,7.9,46.1,11.9,69.9,14.2
				C4076.6,1728.5,4088.6,1728.7,4102.8,1729.4z"/>
			<path class="st6" d="M4769.2,1609.4c-0.4,0.3-0.7,0.6-1,0.6c-0.2,0-0.3-0.3-0.6-0.6c0.2-0.1,0.5-0.4,0.7-0.5
				C4768.5,1609,4768.8,1609.2,4769.2,1609.4z"/>
			<path class="st6" d="M3439.1,1609.7c-0.5,0.2-0.8,0.4-1,0.3c-0.3-0.1-0.4-0.4-0.7-0.6c0.3-0.1,0.5-0.3,0.8-0.3
				C3438.5,1609.1,3438.7,1609.4,3439.1,1609.7z"/>
			<path class="st6" d="M4102.8,1729.4c-14.2-0.7-26.2-0.8-38.1-2c-23.8-2.3-47.2-6.3-69.9-14.2c-13.4-4.7-26.2-10.4-37-19.8
				c-6.5-5.7-11.7-12.4-11.9-21.7c-0.3-9.9,5.1-17.2,12.1-23.2c14.9-12.8,32.9-19.5,51.5-24.1c15.8-3.9,31.9-6.5,48-9
				c7.9-1.2,15.9-1.2,23.9-1.5c9.4-0.3,18.8-1.1,28.1-0.6c15.8,0.8,31.7,2.3,47.4,4c17.2,1.9,33.9,6,50.3,11.7
				c13.4,4.6,26.2,10.5,37,19.9c6.4,5.6,11.4,12.3,11.8,21.3c0.3,10.1-5,17.4-12.2,23.5c-16.5,14-36.6,20.3-57.2,25.6
				c-15.2,3.9-30.5,6.5-46.2,7.7C4127.1,1727.8,4113.9,1728.6,4102.8,1729.4z"/>
		</g>
	</g>
	<rect x="4630.4" y="1717" class="st4" width="62.8" height="20.7"/>
	<rect x="4662.8" y="1573.6" class="st4" width="149.4" height="131.4"/>
	<rect x="3390.6" y="1591.2" class="st4" width="149.4" height="131.4"/>
	<rect x="3506" y="1697.2" class="st4" width="54.5" height="49.5"/>
	<rect x="3655.6" y="1817" class="st4" width="36.6" height="7.7"/>
	<rect x="3659.2" y="1572.8" class="st4" width="5.6" height="7.4"/>
	<rect x="4543.5" y="1572.6" class="st4" width="7.4" height="8.6"/>
	<ellipse class="st4" cx="3945" cy="1506.1" rx="13.6" ry="7.4"/>
	<g>
		<g>
			<path class="st8" d="M4761.5,977.7c0.8,0.3,1.5,0.4,2.2,0.8c25.9,15.7,53.6,27.6,82.3,37.1c26.4,8.8,53.4,15.4,80.3,21.9
				c22.4,5.4,45,10.8,67.7,14.5c29.5,4.9,59.2,8.7,89,12.2c25.7,3,51.4,5.8,77.2,7.3c24.9,1.5,49.9,1.7,74.7,1.7
				c19,0,37.9-1.2,56.9-1.9c1.7-0.1,2.9,0.1,3.8,2c10.9,24.2,25.9,46,40.9,67.7c10.1,14.7,19.7,29.7,29.7,44.5
				c15.4,23,33.2,44.3,51.1,65.4c16.1,18.9,32.5,37.5,50.4,54.7c30.8,29.4,63,57.4,99.7,79.2c22.4,13.3,45.6,25.2,68.5,37.7
				c2.3,1.3,5,2.1,8.4,3.5c-3.3,1-5.8,1.9-8.2,2.6c-50.5,14.3-101,28.5-151.5,42.8c-12.3,3.4-24.6,6.9-37,10.5
				c-26.2,7.5-52.3,15.3-78.6,22.7c-24.3,6.9-48.7,13.4-73.1,20.1c-52.1,14.2-104.1,28.3-156.2,42.5c-21.7,5.9-43.2,11.7-64.8,17.7
				c-3.4,1-6.1,0.5-9-1.4c-20.3-12.8-37.8-29.2-55.2-45.6c-23.9-22.5-43.9-48.5-64-74.3c-13.7-17.4-26.1-35.6-37.1-54.8
				c-0.5-0.9-1.2-1.7-1.8-2.5c-1.2-2.2-2.3-4.5-3.5-6.6c-10-17.7-20.4-35.2-30-53c-5.9-11-11-22.5-16.1-34.1
				c-8.2-18.8-16.3-37.7-24-56.7c-5.7-13.9-11-28-16.1-42.2c-5.1-14.1-10.2-28.1-14.5-42.4c-6.8-22.5-13.1-45.3-19.5-68
				c-3-10.8-6.3-21.4-8.8-32.3c-3-13.7-5.3-27.4-7.8-41.2C4764.6,1012.6,4762,995.2,4761.5,977.7z"/>
			<path class="st9" d="M4761.5,977.7c0.5,17.6,3,34.9,6.1,52.1c2.4,13.8,4.8,27.6,7.8,41.2c2.4,10.9,5.7,21.6,8.8,32.3
				c6.4,22.7,12.7,45.4,19.5,68c4.3,14.3,9.4,28.3,14.5,42.4c5.2,14.1,10.5,28.3,16.1,42.2c7.8,19,15.8,37.9,24,56.7
				c5,11.5,10.1,23,16.1,34.1c9.7,17.9,20,35.4,30,53c1.2,2.1,2.3,4.4,3.5,6.6c-7.6,0.8-15.2,1.8-22.8,2.6c-19,2-37.9,4-56.9,5.9
				c-16.6,1.7-33.2,3.4-49.8,5.1c-19.1,1.9-38.2,3.9-57.3,5.9c-18.5,1.9-37,3.8-55.6,5.7c-23.7,2.4-47.2,4.9-70.9,7.4
				c-18.5,1.9-37,3.9-55.6,5.7c-17.2,1.7-34.3,3.2-51.5,4.8c-2.8,0.3-5.6,0-8.1,0c7-3.6,14.1-7.2,21.3-11
				c23.7-12.3,44.5-28.8,64.5-46.2c27.4-23.9,50.4-51.4,70-81.8c14.1-22,28.2-44.1,39.4-67.9c14.1-29.7,27-59.8,38.1-90.7
				c7.3-20.5,14.8-40.9,21-61.6c5.9-19.9,10.6-40.2,15.4-60.4c3.9-16.2,7.3-32.5,11-48.8C4760.4,979.8,4761,978.8,4761.5,977.7z"/>
		</g>
	</g>
	<g>
		<g>
			<path class="st9" d="M3785.7,1012.9c0.1-0.8,0.3-1.5,0.5-2.3c0.3,0,0.6-0.1,0.8-0.1c1,5,2,10.1,3.2,15
				c4.3,18.2,8.5,36.4,12.9,54.6c4.3,18.2,8.4,36.5,13.4,54.5c9.7,34.8,20.2,69.4,33.4,103c8.1,20.5,16.5,41,25.7,61.1
				c12.3,27.2,28.3,52.2,47.4,75.2c3.4,4.1,7,8.2,10.8,12.6c-3.3,0-6.4,0.2-9.4,0c-27.3-1.9-54.7-3.9-82-5.8s-54.7-3.9-82-5.8
				c-24.2-1.7-48.4-3.4-72.6-5c-3.5-0.2-6.1-1.4-7.9-4.6c-3-5.5-6.2-10.9-9.3-16.3c0.1-0.5,0.2-1,0.4-1.4
				c6.6-12.8,13.8-25.4,19.8-38.6c10.3-22.5,20.3-45,29.6-67.9c10.5-25.9,20.9-51.9,29.8-78.4c9-26.9,16.9-54.3,23.9-81.8
				c5-19.7,8-39.8,11.7-59.7C3786.3,1018.5,3785.8,1015.7,3785.7,1012.9z"/>
			<path class="st8" d="M3785.7,1012.9c0.1,2.8,0.6,5.6,0.1,8.3c-3.7,19.9-6.6,40.1-11.7,59.7c-7,27.5-14.9,54.9-23.9,81.8
				c-8.9,26.5-19.2,52.5-29.8,78.4c-9.3,22.9-19.3,45.5-29.6,67.9c-6,13.2-13.2,25.8-19.8,38.6c-0.2,0.4-0.3,0.9-0.4,1.4
				c-4.1,5.9-8.1,11.9-12.4,17.7c-8.3,11.2-16.9,22.3-25.3,33.5c-2,2.6-4,3.2-7.4,2.5c-38.2-8.4-76.5-16.6-115.1-25
				c0.6-0.8,1-1.5,1.6-2c17.7-15.5,32.1-33.8,45.6-52.9c18.7-26.4,34.8-54.3,47-84.3c3.8-9.4,7.4-18.9,10.8-28.5
				c1.2-3.2,3-5.6,5.9-7.4c17.7-11.4,34.3-24.3,49.8-38.5c18.3-16.8,35.9-34.5,51.1-54.3c12.5-16.3,25.5-32.3,36.8-49.4
				C3768.9,1045.3,3776.8,1028.8,3785.7,1012.9z"/>
		</g>
	</g>
	<g>
		<g>
			<path class="st8" d="M3279.1,1425.7c-1.7,1.7-3.6,3.2-5.1,5c-12.5,14.3-24.8,29-37.5,43c-9,9.9-18.6,19.3-28.1,28.8
				c-1,1-3,1.7-4.6,1.7c-21-1.7-42.1-3.4-63.1-5.2c-14-1.2-28.1-2.4-42.1-3.7c-27.9-2.5-55.9-5-83.8-7.5
				c-24.7-2.2-49.4-4.3-74.1-6.5c-27-2.4-54-4.9-81-7.3c-16.7-1.5-33.3-2.9-50-4.3c-21.5-1.9-43-3.8-64.5-5.7
				c-0.6-0.1-1.2-0.3-2.5-1.4c0.7-0.4,1.4-0.7,2.1-1.2c36-25,68.3-54.2,99.2-85.1c17.7-17.7,35.2-35.4,50.1-55.4
				c18.5-24.9,36.3-50.3,51.5-77.5c13.9-24.8,25.5-50.5,35.6-76.9c0.8-2.2,2.1-2.6,4.1-2.6c29.4-0.3,58.7-2.3,87.4-8.6
				c27.4-5.9,54.5-13.2,81.4-20.9c37-10.6,72.6-25,107.9-40.3c40.3-17.4,79.4-36.6,116.5-60c19.9-12.6,39.6-25.4,59-38.8
				c10.8-7.6,20.6-16.7,30.8-25.2c0.3-0.3,0.7-0.6,1.7-1.4c0,2.1,0,3.7,0,5.2c-0.4,0.4-1.2,0.8-1.2,1.3c-1.2,6.7-2.2,13.4-3.5,20
				c-4.6,23.1-8.5,46.3-13.9,69.2c-5.6,23.6-12.4,46.9-19.1,70.2c-4.3,15-8.6,29.9-14,44.5c-7.4,20.3-15.5,40.4-23.9,60.3
				c-6.6,15.5-13.3,31-21.2,45.8c-7.9,15-17,29.3-26.1,43.5c-10.4,16.3-21.2,32.3-32.3,48.2c-8.2,11.8-17,23.2-25.6,34.8
				C3286,1416.4,3282.5,1421.1,3279.1,1425.7z M3213.6,1493c-0.1-0.1-0.1-0.4-0.3-0.4c-0.2,0-0.3,0.1-0.6,0.2
				c0.1,0.2,0.2,0.4,0.3,0.6C3213.2,1493.3,3213.4,1493.1,3213.6,1493z"/>
			<path class="st9" d="M3279.1,1425.7c3.4-4.7,7-9.4,10.4-14.1c8.6-11.6,17.4-22.9,25.6-34.8c11-15.9,21.9-31.9,32.3-48.2
				c9.1-14.3,18.1-28.6,26.1-43.5c7.9-14.8,14.7-30.3,21.2-45.8c8.4-19.9,16.5-40,23.9-60.3c5.4-14.5,9.7-29.5,14-44.5
				c6.7-23.3,13.5-46.6,19.1-70.2c5.4-22.9,9.4-46.1,13.9-69.2c1.3-6.6,2.3-13.3,3.5-20c0.1-0.5,0.8-0.9,1.2-1.3
				c0.9,6,2.1,12,2.7,18c4.1,38,9.5,75.7,17.7,113.1c7.2,33,15.1,65.6,26.1,97.6c10.6,30.7,22.4,60.9,38.3,89.3
				c19.8,35.3,41.7,69.2,68.8,99.5c7.2,8.1,16.1,14.9,24.5,21.9c9.3,7.7,19,15,29.1,22.8c-3.1-0.1-5.8-0.3-8.4-0.3
				c-16.5-0.3-33-0.6-49.5-1c-19.9-0.4-39.7-1-59.5-1.4c-17.3-0.4-34.6-0.9-51.9-1.3c-18.9-0.5-37.9-1-56.8-1.4
				c-17.8-0.5-35.5-0.9-53.3-1.4c-18.2-0.5-36.5-1-54.7-1.4c-18.3-0.5-36.7-0.9-55-1.4C3285.3,1426.3,3282.2,1426,3279.1,1425.7z"/>
			<path class="st9" d="M3213.6,1493c-0.1,0.1-0.3,0.3-0.4,0.4c-0.1-0.2-0.2-0.4-0.3-0.6c0.2-0.1,0.3-0.2,0.6-0.2
				C3213.4,1492.6,3213.4,1492.8,3213.6,1493z"/>
		</g>
	</g>
	<g>
		<g>
			<path class="st1" d="M2858,1460.3c0,6.3,0,12.6,0,19.3c-6.5,0-12.9,0-19.2,0c0-16.1,0-32.1,0-48.3c3.1,0,6.1,0,9.5,0
				c0,9.7,0,19.1,0,29C2851.8,1460.4,2854.9,1460.4,2858,1460.3L2858,1460.3z"/>
			<path class="st1" d="M5176.5,1547.2c0,6.4,0,12.9,0,19.3c-6.4,0-12.9,0-19.3,0c0-9.7,0-19.3,0-29l-0.1,0.1c3.1,0,6.1,0,9.6,0
				c0,3.1,0,6.1,0,9.7C5170.3,1547.2,5173.4,1547.2,5176.5,1547.2L5176.5,1547.2z"/>
			<path class="st1" d="M4667.9,1379c0,6.3,0,12.6,0,19.1c-3.2,0-6.2,0-9.7,0c0-6.3,0-12.7,0-19.1
				C4661.5,1379,4664.8,1379,4667.9,1379z"/>
			<path class="st1" d="M5353.1,1499.6c-3.2,0-6.4,0-9.7,0l0.1,0.1c0-3.1,0-6.1,0-9.7c3.2,0,6.4,0,9.6,0
				C5353.1,1493.2,5353.1,1496.4,5353.1,1499.6z"/>
			<path class="st1" d="M3023.4,1474.1c0,6.3,0,12.6,0,19.1c-9.6,0-19,0-28.9,0c0-6.3,0-12.7,0-19.1l-0.1,0.1c3.1,0,6.1,0,9.5,0
				c0-16.1,0-31.9,0-48.1c3.3,0,6.3,0,9.7,0c0,15.9,0,31.7,0,48.1C3017.1,1474.2,3020.3,1474.2,3023.4,1474.1
				C3023.5,1474.2,3023.4,1474.1,3023.4,1474.1z"/>
			<path class="st1" d="M4659,1417.7c3.1,0,6.1,0,9.6,0c0-6.4,0-12.7,0-19.1c3.3,0,6.3,0,9.7,0c0,6.2,0,12.4,0,19.1
				c3.4,0,6.6,0,9.8,0l-0.1-0.1c0,6.3,0,12.6,0,19.1c-9.6,0-19,0-28.9,0C4659,1430.4,4659,1424,4659,1417.7
				C4659,1417.6,4659,1417.7,4659,1417.7z"/>
			<path class="st1" d="M5314.4,1509.3c3.1,0,6.1,0,9.5,0c0-9.7,0-19.1,0-28.8c3.3,0,6.3,0,9.7,0c0,6.2,0,12.4,0,19.1
				c3.4,0,6.6,0,9.8,0l-0.1-0.1c0,6.3,0,12.6,0,19.1c-9.6,0-19,0-28.9,0C5314.5,1515.6,5314.5,1512.4,5314.4,1509.3L5314.4,1509.3z"
				/>
			<path class="st1" d="M3033,1454.8c0,6.3,0,12.7,0,19.3c-3.4,0-6.6,0-9.7,0l0.1,0.1c0-6.3,0-12.6,0-19.3
				C3026.8,1454.8,3029.9,1454.8,3033,1454.8L3033,1454.8z"/>
			<path class="st1" d="M5147.7,1518.3c3,0,6.1,0,9.7,0c0,6.5,0,12.9,0,19.3l0.1-0.1c-3.1,0-6.1,0-9.7,0
				C5147.7,1531,5147.7,1524.6,5147.7,1518.3L5147.7,1518.3z"/>
			<path class="st1" d="M5176.6,1547.2c0-6.3,0-12.6,0-19.1c3.1,0,6.1,0,9.4,0c0,6.2,0,12.4,0,19
				C5182.9,1547.2,5179.7,1547.2,5176.6,1547.2C5176.5,1547.2,5176.6,1547.2,5176.6,1547.2z"/>
			<path class="st1" d="M4649.4,1407.9c-3.1,0-6.1,0-9.4,0c0-3.1,0-6.1,0-9.4c3,0,6,0,9.4,0
				C4649.3,1401.7,4649.3,1404.9,4649.4,1407.9L4649.4,1407.9z"/>
			<path class="st1" d="M4649.3,1408c3,0,6.1,0,9.7,0c0,3.2,0,6.5,0,9.7l0.1-0.1c-3.1,0-6.1,0-9.7,0
				C4649.4,1414.2,4649.4,1411.1,4649.3,1408C4649.4,1407.9,4649.3,1408,4649.3,1408z"/>
			<path class="st1" d="M4688,1417.6c0-3.1,0-6.1,0-9.4c3.2,0,6.1,0,9.4,0c0,3,0,6,0,9.4C4694.2,1417.6,4691.1,1417.6,4688,1417.6
				C4687.9,1417.6,4688,1417.6,4688,1417.6z"/>
			<path class="st1" d="M3033.1,1454.8c0-3.1,0-6.1,0-9.4c3.2,0,6.1,0,9.4,0c0,3,0,6,0,9.4
				C3039.4,1454.8,3036.2,1454.8,3033.1,1454.8C3033,1454.8,3033.1,1454.8,3033.1,1454.8z"/>
			<path class="st1" d="M2858.1,1460.4c0-3.1,0-6.1,0-9.4c3.2,0,6.1,0,9.4,0c0,3,0,6,0,9.4
				C2864.3,1460.3,2861.1,1460.3,2858.1,1460.4C2858,1460.3,2858.1,1460.4,2858.1,1460.4z"/>
			<path class="st1" d="M2984.9,1464.4c-3.1,0-6.1,0-9.4,0c0-3.2,0-6.1,0-9.4c3,0,6,0,9.4,0
				C2984.8,1458.2,2984.8,1461.3,2984.9,1464.4L2984.9,1464.4z"/>
			<path class="st1" d="M2984.8,1464.5c3,0,6.1,0,9.7,0c0,3.2,0,6.5,0,9.7l0.1-0.1c-3.1,0-6.1,0-9.7,0
				C2984.9,1470.8,2984.9,1467.6,2984.8,1464.5C2984.9,1464.4,2984.8,1464.5,2984.8,1464.5z"/>
			<path class="st1" d="M5314.5,1509.3c-3.1,0-6.1,0-9.4,0c0-3.2,0-6.1,0-9.4c3,0,6,0,9.4,0
				C5314.4,1503,5314.4,1506.1,5314.5,1509.3C5314.4,1509.3,5314.5,1509.3,5314.5,1509.3z"/>
			<path class="st1" d="M5147.7,1518.2c-3.1,0-6.1,0-9.4,0c0-3.2,0-6.1,0-9.4c3,0,6,0,9.4,0
				C5147.7,1511.9,5147.7,1515.1,5147.7,1518.2C5147.7,1518.3,5147.7,1518.2,5147.7,1518.2z"/>
		</g>
	</g>
	<g>
		<g>
			<g>
				<path class="st1" d="M8085.2,840.4c-4.3,0-8.6,0-12.8,0c0,4.1,0,8.3,0,13.1c-4.8,0-8.7,0-13.2,0c0,8.8,0,17,0,25.5
					c-4.4,0-8.1,0-12.6,0c0,8.6,0,16.8,0,25.5c-4.6,0-8.5,0-13,0c0,4.6,0,8.5,0,13c-4.6,0-8.5,0-12.3,0c0,4.3,0,8.1,0,12.5
					c8.5,0,16.7,0,25,0c0,4.6,0,8.5,0,13c-4.3,0-8.2,0-12.8,0c0,4.6,0,8.5,0,13c-4.6,0-8.5,0-12.8,0c0,4.4,0,8.1,0,12.5
					c-4.3,0-8.2,0-12.8,0c0,4.6,0,8.5,0,13c-4.6,0-8.4,0-12.1,0c0,8.8,0,17,0,25c4.3,0,8,0,12.4,0c0-4.2,0-8.1,0-12.1
					c4.6,0,8.5,0,13,0c0,4.3,0,8.2,0,12.8c4.6,0,8.5,0,12.1,0c0,4.6,0,8.5,0,12.8c-4.3,0-8.1,0-12.4,0c0,4.3,0,8.2,0,12.8
					c-4.6,0-8.5,0-13,0c0,4.6,0,8.5,0,13c-4.6,0-8.5,0-12.8,0c0,4.3,0,8.1,0,12.5c-4.3,0-8.2,0-12.8,0c0,4.6,0,8.5,0,12.8
					c-4.6,0-8.6,0-12.7,0c0,4.3,0,8.6,0,12.8c8.4,0,16.9,0,25.9,0c0-4.8,0-8.7,0-12.3c4.6,0,8.5,0,12.8,0c0,4.3,0,8,0,12.4
					c4.3,0,8.2,0,12.2,0c0,4.6,0,8.4,0,13c-4.3,0-8.2,0-12.8,0c0,4.6,0,8.5,0,13c-4.6,0-8.5,0-12.8,0c0,4.3,0,8.1,0,12.5
					c-4.3,0-8.2,0-12.8,0c0,4.6,0,8.5,0,12.7c-4.6,0-8.6,0-12.7,0c0,8.6,0,17.1,0,25.6c4.3,0,8.6,0.1,12.9,0.1c0-4.1,0-8.3,0-12.5
					c4.6,0,8.5,0,12.3,0c0,4.3,0,8.2,0,12.3c-4.5,0-8.5,0-12.5,0c0,4.2,0,8.3,0,12.9c-4.7,0-8.7,0-12.7,0c-7.8,36,6,45.6,42.3,43.2
					c58.3-3.8,116.9-1,175.4-1c0-5.4,0-10.9,0-17c-4.8,0-8.7,0-13.2,0c0-8.8,0-17,0-25.5c-4.4,0-8.1,0-12.6,0c0-4.3,0-8.2,0-12.8
					c-4.6,0-8.5,0-12.3,0c0-4.6,0-8.5,0-13c4.3,0,8.3,0,12.1,0c0-4.3,0-8.1,0-12.5c-4.2,0-8.1,0-12.6,0c0-8.8,0-17,0-25.8
					c-4.6,0-8.5,0-12.6,0c0-4.6,0-8.6,0-12.7c-4.2,0-8.3,0-12.5,0c0-4.6,0-8.5,0-12.3c4.3,0,8.3,0,12.3,0c0,4.4,0,8.5,0,12.5
					c8.4,0,16.9,0,25.3,0c0-9.1,0-17.2,0-26.1c-4.3,0-8.3,0-12.8,0c0-8.8,0-17,0-25.5c-4.4,0-8.1,0-12.1,0c0-4.3,0-8.2,0-12.8
					c4.3,0,8.2,0,12.1,0c0-4.6,0-8.5,0-13c-4.3,0-8.3,0-12.5,0c0-4.3,0-8.1,0-12.5c-4.3,0-8.2,0-12.8,0c0-4.6,0-8.5,0-13
					c-4.6,0-8.5,0-12.6,0c0-4.6,0-8.6,0-12.7c-4.2,0-8.3,0-12.5,0c0-4.6,0-8.5,0-12.3c4.3,0,8.3,0,12.3,0c0,4.4,0,8.5,0,12.5
					c8.4,0,16.9,0,25.3,0c0-9,0-17.2,0-26c-4.3,0-8.3,0-12.8,0c0-4.6,0-8.4,0-12.7c-4.3,0-8.1,0-12.5,0c0-12.8,0-25.2,0-38.3
					c-4.5,0-8.4,0-12.9,0c0-13,0-25.5,0-38.5c-4.5,0-8.4,0-12.7,0C8085.2,856.9,8085.2,848.7,8085.2,840.4z M8123.5,1058.1
					c4.1,0,8.3,0,12.5,0c0,4.6,0,8.4,0,12.3c-4.3,0-8.2,0-12.3,0c0-4.4,0-8.4,0-12.5c-4.2,0-8.3,0-12.5,0c0-4.6,0-8.5,0-12.3
					c4.3,0,8.3,0,12.3,0C8123.5,1050.1,8123.5,1054.1,8123.5,1058.1z"/>
			</g>
		</g>
	</g>
	<g>
		<g>
			<g>
				<path class="st1" d="M7856.9,601.9c-4.8,0-9.4,0-14.2,0c0,9.4,0,18.8,0,28.8c-5.2,0-9.6,0-14.6,0c0,5,0,9.4,0,14.1
					c-4.8,0-9,0-13.9,0c0,9.5,0,18.6,0,28.4c-5,0-9.4,0-14.4,0c0,5,0,9.4,0,14.4c-5,0-9.4,0-14.4,0c0,5,0,9.4,0,14.1
					c-4.8,0-9,0-13.9,0c0,4.8,0,9.2,0,14.2c-5,0-9.4,0-13.7,0c0,9.8,0,18.9,0,28.4c4.9,0,9.4,0,13.9,0c0-4.6,0-9.3,0-13.9
					c5.1,0,9.4,0,13.7,0c0,4.8,0,9.2,0,13.7c-5,0-9.4,0-13.9,0c0,14.1,0,28.3,0,43.1c-5,0-9.4,0-14.4,0c0,5,0,9.4,0,14.4
					c-5,0-9.4,0-14.1,0c0,4.9,0,9.1,0,13.9c-4.8,0-9.1,0-13.5,0c0,9.8,0,18.9,0,27.9c4.8,0,9.2,0,14.1,0c0-4.8,0-9.2,0-13.4
					c4.9,0,9,0,13.9,0c0,4.7,0,9,0,14.1c5,0,9.4,0,13.7,0c0,5,0,9.4,0,14.4c-4.8,0-9.2,0-14.1,0c0,9.8,0,18.9,0,28.4
					c-4.9,0-9,0-13.9,0c0,4.8,0,9.2,0,14.2c-5,0-9.4,0-14.4,0c0,5,0,9.4,0,14.4c-5,0-9.4,0-14.1,0c0,9.7,0,18.5,0,28.1
					c-4.8,0-9.2,0-13.6,0c0,5,0,9.4,0,14.4c4.8,0,9.1,0,13.3,0c0,14.5,0,28.4,0,42.9c-4.8,0-9.2,0-14,0c0,4.9,0,9,0,13.9
					c-4.8,0-9.1,0-14.1,0c0,5,0,9.4,0,14.1c-5.1,0-9.6,0-14.1,0c0,9.5,0,19,0,28.5c4.6,0,9.2,0,14.5,0c0,5.3,0,9.7,0,14.7
					c5,0,9.4,0,13.6,0c0,4.9,0,9,0,13.9c-4.7,0-9,0-14.1,0c0,5,0,9.4,0,14.1c-5.1,0-9.6,0-14.1,0c0,36.8-0.1,73.6,0.2,110.4
					c0,1.7,3.1,4.8,4.8,4.8c101,0.2,201.9,0.3,302.9-0.4c1.7,0,3.3-9.8,5-15c-4.6,0-9.2,0-14.5,0c0-14.8,0-28.7,0-43
					c-4.9,0-9.1,0-13.5,0c0-4.8,0-9.2,0-14.2c4.7,0,9.1,0,13.4,0c0-9.8,0-18.9,0-28.7c-4.8,0-9.2,0-13.9,0c0-4.9,0-9.1,0-13.9
					c-4.8,0-9.1,0-14.1,0c0-9.8,0-18.9,0-28.7c-5,0-9.4,0-13.5,0c0-9.8,0-18.9,0-27.9c4.7,0,8.9,0,13.8,0c0,4.7,0,9,0,13.4
					c9.8,0,18.9,0,27.9,0c0-9.6,0-18.7,0-28.5c-4.8,0-9.2,0-14,0c0-4.9,0-9.1,0-13.9c-4.8,0-9.2,0-14.1,0c0-5,0-9.4,0-14.5
					c-5,0-9.4,0-14.4,0c0-19.3,0-37.9,0-57c-4.9,0-9.1,0-13.9,0c0-4.8,0-9.2,0-14.2c-5,0-9.4,0-14,0c0-9.9,0-19.1,0-28.3
					c-4.6,0-9.2,0-13.9,0c0-5.1,0-9.4,0-13.7c4.8,0,9.2,0,13.7,0c0,5,0,9.4,0,13.9c9.4,0,18.8,0,28.1,0c0-10.1,0-19.2,0-29
					c-4.8,0-9.2,0-14,0c0-4.9,0-9,0-13.9c-4.8,0-9.1,0-14.1,0c0-9.8,0-18.9,0-28.7c-5,0-9.4,0-13.6,0c0-9.8,0-18.9,0-27.9
					c4.7,0,8.9,0,13.7,0c0,4.7,0,9,0,14.1c5,0,9.4,0,14.4,0c0,5,0,9.4,0,13.6c5,0,9.4,0,13.4,0c0-9.7,0-18.8,0-28.3
					c-4.8,0-9,0-13.2,0c0-4.8,0-9.2,0-14.2c4.8,0,9.1,0,13.3,0c0-5,0-9.4,0-14.2c-4.7,0-8.9,0-13.7,0c0-9.5,0-18.7,0-28.4
					c-5,0-9.4,0-14.4,0c0-5,0-9.4,0-14.5c-5,0-9.4,0-14.4,0c0-14.5,0-28.4,0-42.7c-4.9,0-9,0-13.9,0c0-9.5,0-18.7,0-28.4
					c-5,0-9.4,0-14.1,0C7856.9,639.4,7856.9,620.7,7856.9,601.9z"/>
			</g>
		</g>
	</g>
	<g>
		<g>
			<g>
				<path class="st1" d="M158,769.7c0,3.6,0,7.2,0,11.3c3.7,0,7.2,0,11.2,0c0,4,0,7.5,0,11.4c3.9,0,7.2,0,11.1,0c0,3.8,0,7.3,0,11.3
					c4,0,7.5,0,11.4,0c0,7.8,0,15.1,0,22.8c-3.4,0-7,0-11,0c0-3.6,0-7,0-10.8c-3.9,0-7.2,0-11,0c0,7.2,0,14.5,0,22.3
					c3.3,0,6.8,0,10.9,0c0,8.1,0,15.6,0,23.1l0.1-0.1c-3.7,0-7.4,0-11.1,0c0,4.2,0,7.7,0,11.5c3.9,0,7.5,0,11.1,0l-0.1-0.1
					c0,3.7,0,7.4,0,11.1c4.2,0,7.7,0,11.5,0c0-3.9,0-7.5,0-11.1l-0.1,0.1c3.6,0,7.2,0,11.1,0c0,11.3,0,22.4,0,34.1
					c-3.5,0-7,0-10.8,0c0,3.9,0,7.2,0,11.2c7.1,0,14.4,0,22.2,0c0,4,0,7.5,0,11.5c4,0,7.5,0,11.6,0c0,4,0,7.5,0,11.6
					c4,0,7.5,0,11.4,0c0,7.7,0,14.8,0,22.5c3.8,0,7.3,0,11.2,0c0,7.8,0,15.1,0,23.2c-3.7,0-7.4,0-11.1,0c0-3.7,0-7.3,0-11.4
					c-4.1,0-7.7,0-11.4,0c0-3.8,0-7.6,0-11.4c-4.3,0-7.9,0-11.4,0c0-3.7,0-7.4,0-11.1c-4.1,0-7.6,0-11,0c0,3.9,0,7.3,0,11
					c3.9,0,7.5,0,11.1,0c0,3.7,0,7.4,0,11.4c4.2,0,7.8,0,11.4,0c0,3.7,0,7.4,0,11.4c4.2,0,7.8,0,11.4,0c0,11.2,0,22.3,0,34.1
					c3.8,0,7.3,0,11.3,0c0,4,0,7.5,0,11.4c3.9,0,7.2,0,11.2,0c0,7.6,0,14.9,0,22.6c4,0,7.5,0,11.5,0c0-3.4,0-7,0-11
					c4,0,7.5,0,11.4,0c0-7.7,0-14.8,0-22.5c3.8,0,7.3,0,11.4,0c0-4,0-7.5,0-11.6c4,0,7.5,0,11.3,0c0-7.7,0-14.8,0-22.5
					c-7.1,0-14.4,0-22.1,0c0-7.9,0-15.1,0-23c3.4,0,6.9,0,10.9,0c0-4,0-7.5,0-11.4c3.9,0,7.2,0,11.2,0c0-3.8,0-7.3,0-11.4
					c4,0,7.5,0,11.7,0c0-8.1,0-15.6,0-23.1c3.7,0,7.4,0,11.1,0c0-4.1,0-7.6,0-11c-3.9,0-7.3,0-11,0c0,3.9,0,7.5,0,11.1
					c-3.6,0-7.2,0-11.1,0c0-15.2,0-30.1,0-45.6c3.5,0,7,0,10.8,0c0-3.9,0-7.2,0-11.2c3.8,0,7.3,0,11.4,0c0-7.8,0-15.1,0-23
					c4,0,7.5,0,11.5,0c0-15.4,0-30.3,0-45.5c3.9,0,7.2,0,11.2,0c0,3.4,0,6.9,0,10.9c4,0,7.5,0,11.6,0c0,11.7,0,22.8,0,34.3
					c4,0,7.5,0,11.4,0c0,3.9,0,7.2,0,11.2c3.8,0,7.3,0,11.4,0c0,7.8,0,15.1,0,23c4,0,7.5,0,11.5,0c0,4,0,7.5,0,11.4
					c3.9,0,7.2,0,11,0c0,7.6,0,14.9,0,22.8c-3.3,0-6.8,0-10.6,0c0,4.1,0,7.5,0,11.6c3.6,0,7.1,0,10.9,0c0,7.7,0,14.8,0,22.5
					c3.8,0,7.3,0,11.4,0c0,4,0,7.5,0,11.6c4,0,7.5,0,11.3,0c0,7.7,0,14.8,0,22.5c-7.1,0-14.4,0-22.1,0c0,4,0,7.5,0,11.6
					c3.4,0,6.8,0,10.9,0c0,4,0,7.5,0,11.4c3.9,0,7.2,0,11.2,0c0,7.6,0,14.9,0,22.8c4,0,7.5,0,11.5,0c0,4,0,7.5,0,11.6
					c4,0,7.5,0,11.3,0c0,7.7,0,14.8,0,22.5c-7.2,0-14.4,0-22.1,0c0,7.9,0,15.1,0,23c3.4,0,6.9,0,11,0c0,4,0,7.5,0,11.4
					c3.9,0,7.2,0,11.2,0c0,11.4,0,22.5,0,34c4,0,7.5,0,11.5,0c0-7.2,0-14.5,0-22.3c4,0,7.5,0,11.4,0c0-7.7,0-14.8,0-22.4
					c3.9,0,7.3,0,11.4,0c0,3.3,0,6.8,0,10.8c4,0,7.5,0,11.6,0c0,7.8,0,15.1,0,22.7c7.7,0,14.8,0,22.4,0c0-3.4,0-6.9,0-11
					c-3.3,0-6.8,0-10.7,0c0-7.9,0-15.1,0-22.8c3.4,0,6.8,0,10.8,0c0-7.6,0-14.9,0-22.8c4,0,7.5,0,11.6,0c0-11.7,0-22.8,0-34.1
					c4,0,7.5,0,11.4,0c0,3.5,0,6.8,0,10.8c3.8,0,7.3,0,11.4,0c0,7.8,0,15.1,0,23c4,0,7.5,0,11.6,0c0,7.9,0,15.1,0,22.8
					c3.9,0,7.2,0,11,0c0,11.4,0,22.5,0,34.1c-3.3,0-6.8,0-10.6,0c0,4.1,0,7.5,0,11.6c3.5,0,7,0,10.9,0c0,7.7,0,14.8,0,22.5
					c3.8,0,7.3,0,11.2,0c0,4,0,7.5,0,11.7c-201.1,0-402.2,0-603.4,0c0-57,0-114,0-170.9c3.7,0,7.4,0,11,0c0-4.2,0-7.7,0-11.4
					c-3.9,0-7.4,0-11,0c0-26.6,0-53.2,0-79.8c3.7,0,7.4,0,11.3,0c0-4.3,0-7.9,0-11.4c3.7,0,7.4,0,11.1,0c0-4.1,0-7.6,0-11
					c-3.9,0-7.3,0-11,0c0,3.9,0,7.5,0,11.1c-3.8,0-7.7-0.1-11.4-0.1c0-19,0-38,0-57c3.6,0,7.1,0,11.2,0c0-3.7,0-7.2,0-11.2
					c4,0,7.4,0,11.5,0c0-4.2,0-7.9,0-11.6c3.7,0,7.4,0,11.1,0c0-4.1,0-7.6,0-11c-3.9,0-7.3,0-11,0c0,3.9,0,7.5,0,11.1
					c-3.6,0-7.2,0-11.1,0c0-15.2,0-30.1,0-45.4c3.4,0,6.9,0,10.9,0c0-4,0-7.5,0-11.5c4,0,7.5,0,11.2,0c0-3.9,0-7.2,0-11.1
					c-3.4,0-6.8,0-10.8,0c0-7.8,0-15.1,0-22.9c7.2,0,14.4,0,22.5,0c0-4.2,0-7.9,0-11.7l-0.1,0.1c3.7,0,7.4,0,11.1,0
					c0-4.2,0-7.7,0-11.5c-3.9,0-7.5,0-11.1,0l0.1,0.1c0-3.6,0-7.2,0-11.3c3.7,0,7.2,0,11.2,0c0-4,0-7.5,0-11.5c4,0,7.5,0,11.4,0
					c0-7.7,0-14.8,0-22.5c3.8,0,7.3,0,11.3,0c0-7.8,0-15.1,0-23c4,0,7.5,0,11.5,0c0-15.4,0-30.3,0-45.4c3.9,0,7.2,0,11.1,0
					c0,10.9,0,22,0,33.7c4,0,7.5,0,11.5,0c0,7.8,0,15.1,0,23c4,0,7.5,0,11.5,0c0,4,0,7.5,0,11.3c3.9,0,7.2,0,11.2,0
					c0,7.6,0,14.9,0,22.8c4,0,7.5,0,11.5,0c0,4,0,7.5,0,11.6c4,0,7.5,0,11.3,0c0,3.9,0,7.2,0,11.1c3.8,0,7.3,0,11.2,0
					c0,7.8,0,15.1,0,23c-3.4,0-6.8,0-10.7,0c0,4,0,7.5,0,11.6c3.6,0,7,0,10.9,0c0,7.7,0,14.8,0,22.5c7.6,0,14.9,0,22.5,0
					c0,7.8,0,15.1,0,23.2c-7.4,0-15,0-22.4,0c0-3.7,0-7.4,0-11.1c-4.1,0-7.6,0-11,0c0,3.9,0,7.3,0,11
					C150.9,769.7,154.5,769.7,158,769.7z M226.4,1031.8c0,3.7,0,7.4,0,11.1c4.1,0,7.6,0,11,0c0-3.9,0-7.3,0-11c-3.9,0-7.5,0-11.1,0
					c0-3.7,0-7.4,0-11.4c-8,0-15.4,0-22.8,0c0-3.7,0-7.4,0-11.1c-4.1,0-7.6,0-11,0c0,3.9,0,7.3,0,11c3.9,0,7.5,0,11.1,0
					c0,3.7,0,7.4,0,11.4C211.6,1031.8,219,1031.8,226.4,1031.8z M124.1,758c3.9,0,7.3,0,10.9,0c0-3.8,0-7.2,0-10.8
					c-3.8,0-7.2,0-10.9,0C124.1,750.9,124.1,754.2,124.1,758z"/>
				<path class="st1" d="M180.7,861c3.7,0,7.3,0,11.4,0c0,4.1,0,7.7,0,11.4l0.1-0.1c-3.9,0-7.7,0-11.5,0l0.1,0.1c0-3.9,0-7.7,0-11.5
					L180.7,861z"/>
				<path class="st1" d="M32.8,701.3c-3.6,0-7.2,0-11.1,0c0-3.7,0-7.2,0-11.3c3.7,0,7.4,0,11.1,0l-0.1-0.1c0,3.9,0,7.7,0,11.5
					L32.8,701.3z"/>
			</g>
		</g>
	</g>
	<g>
		<g>
			<g>
				<path class="st1" d="M818.6,855.3c4.3,0,8.6,0,12.8,0c0,4.1,0,8.3,0,13.1c4.8,0,8.7,0,13.2,0c0,8.8,0,17,0,25.5
					c4.4,0,8.1,0,12.5,0c0,8.6,0,16.8,0,25.5c4.6,0,8.5,0,13,0c0,4.6,0,8.5,0,13c4.6,0,8.5,0,12.3,0c0,4.3,0,8.1,0,12.5
					c-8.5,0-16.7,0-25,0c0,4.6,0,8.5,0,13c4.3,0,8.2,0,12.8,0c0,4.6,0,8.5,0,13c4.6,0,8.5,0,12.8,0c0,4.4,0,8.1,0,12.5
					c4.3,0,8.2,0,12.8,0c0,4.6,0,8.5,0,13c4.6,0,8.4,0,12.1,0c0,8.8,0,17,0,25c-4.3,0-8,0-12.4,0c0-4.2,0-8.1,0-12.1
					c-4.6,0-8.5,0-13,0c0,4.3,0,8.2,0,12.8c-4.6,0-8.5,0-12.1,0c0,4.6,0,8.5,0,12.8c4.3,0,8.1,0,12.4,0c0,4.3,0,8.2,0,12.8
					c4.6,0,8.5,0,13,0c0,4.6,0,8.5,0,13c4.6,0,8.5,0,12.8,0c0,4.3,0,8.1,0,12.5c4.3,0,8.2,0,12.8,0c0,4.6,0,8.5,0,12.8
					c4.6,0,8.6,0,12.7,0c0,4.3,0,8.6,0,12.8c-8.4,0-16.9,0-25.9,0c0-4.8,0-8.7,0-12.3c-4.6,0-8.5,0-12.8,0c0,4.3,0,8,0,12.4
					c-4.3,0-8.2,0-12.2,0c0,4.6,0,8.4,0,13c4.3,0,8.2,0,12.8,0c0,4.6,0,8.5,0,13c4.6,0,8.5,0,12.8,0c0,4.3,0,8.1,0,12.5
					c4.3,0,8.2,0,12.8,0c0,4.6,0,8.5,0,12.7c4.6,0,8.6,0,12.7,0c0,8.6,0,17.1,0,25.6c-4.3,0-8.6,0.1-12.9,0.1c0-4.1,0-8.3,0-12.5
					c-4.6,0-8.5,0-12.3,0c0,4.3,0,8.2,0,12.3c4.5,0,8.5,0,12.5,0c0,4.2,0,8.3,0,12.9c4.7,0,8.7,0,12.7,0c7.8,36-6,45.6-42.3,43.2
					c-58.3-3.8-116.9-1-175.4-1c0-5.4,0-10.9,0-17c4.8,0,8.7,0,13.2,0c0-8.8,0-17,0-25.5c4.4,0,8.1,0,12.5,0c0-4.3,0-8.2,0-12.8
					c4.6,0,8.5,0,12.3,0c0-4.6,0-8.5,0-13c-4.3,0-8.3,0-12.1,0c0-4.3,0-8.1,0-12.5c4.2,0,8.1,0,12.6,0c0-8.8,0-17,0-25.8
					c4.6,0,8.5,0,12.6,0c0-4.6,0-8.6,0-12.7c4.2,0,8.3,0,12.5,0c0-4.6,0-8.5,0-12.3c-4.3,0-8.3,0-12.3,0c0,4.4,0,8.5,0,12.5
					c-8.4,0-16.9,0-25.3,0c0-9.1,0-17.2,0-26.1c4.3,0,8.3,0,12.8,0c0-8.8,0-17,0-25.5c4.4,0,8.1,0,12.1,0c0-4.3,0-8.2,0-12.8
					c-4.3,0-8.2,0-12.1,0c0-4.6,0-8.5,0-13c4.3,0,8.3,0,12.6,0c0-4.3,0-8.1,0-12.5c4.3,0,8.2,0,12.8,0c0-4.6,0-8.5,0-13
					c4.6,0,8.5,0,12.6,0c0-4.6,0-8.6,0-12.7c4.2,0,8.3,0,12.5,0c0-4.6,0-8.5,0-12.3c-4.3,0-8.3,0-12.3,0c0,4.4,0,8.5,0,12.5
					c-8.4,0-16.9,0-25.3,0c0-9,0-17.2,0-26c4.3,0,8.3,0,12.8,0c0-4.6,0-8.4,0-12.7c4.3,0,8.1,0,12.5,0c0-12.8,0-25.2,0-38.3
					c4.5,0,8.4,0,12.9,0c0-13,0-25.5,0-38.5c4.5,0,8.4,0,12.7,0C818.6,871.8,818.6,863.5,818.6,855.3z M780.2,1073
					c-4.1,0-8.3,0-12.5,0c0,4.6,0,8.4,0,12.3c4.3,0,8.2,0,12.3,0c0-4.4,0-8.4,0-12.5c4.2,0,8.3,0,12.5,0c0-4.6,0-8.5,0-12.3
					c-4.3,0-8.3,0-12.3,0C780.2,1065,780.2,1069,780.2,1073z"/>
			</g>
		</g>
	</g>
	<g>
		<g>
			<g>
				<path class="st1" d="M7558.9,721.1c4.8,0,9.4,0,14.2,0c0,9.4,0,18.8,0,28.8c5.2,0,9.6,0,14.6,0c0,5,0,9.4,0,14.1
					c4.8,0,9,0,13.9,0c0,9.5,0,18.6,0,28.4c5,0,9.4,0,14.4,0c0,5,0,9.4,0,14.4c5,0,9.4,0,14.4,0c0,5,0,9.4,0,14.1c4.8,0,9,0,13.9,0
					c0,4.8,0,9.2,0,14.2c5,0,9.4,0,13.7,0c0,9.8,0,18.9,0,28.4c-4.9,0-9.4,0-13.9,0c0-4.6,0-9.3,0-13.9c-5.1,0-9.4,0-13.7,0
					c0,4.8,0,9.2,0,13.7c5,0,9.4,0,13.9,0c0,14.1,0,28.3,0,43.1c5,0,9.4,0,14.4,0c0,5,0,9.4,0,14.4c5,0,9.4,0,14.1,0
					c0,4.9,0,9.1,0,13.9c4.8,0,9.1,0,13.5,0c0,9.8,0,18.9,0,27.9c-4.8,0-9.2,0-14.1,0c0-4.8,0-9.2,0-13.4c-4.9,0-9,0-13.9,0
					c0,4.7,0,9,0,14.1c-5,0-9.4,0-13.7,0c0,5,0,9.4,0,14.4c4.8,0,9.2,0,14.1,0c0,9.8,0,18.9,0,28.4c4.9,0,9,0,13.9,0
					c0,4.8,0,9.2,0,14.2c5,0,9.4,0,14.4,0c0,5,0,9.4,0,14.4c5,0,9.4,0,14.1,0c0,9.7,0,18.5,0,28.1c4.8,0,9.2,0,13.6,0
					c0,5,0,9.4,0,14.4c-4.8,0-9.1,0-13.3,0c0,14.5,0,28.4,0,42.9c4.8,0,9.2,0,14,0c0,4.9,0,9,0,13.9c4.8,0,9.1,0,14.1,0
					c0,5,0,9.4,0,14.1c5.1,0,9.6,0,14.1,0c0,9.5,0,19,0,28.5c-4.6,0-9.2,0-14.5,0c0,5.3,0,9.7,0,14.7c-5,0-9.4,0-13.6,0
					c0,4.9,0,9,0,13.9c4.7,0,9,0,14.1,0c0,5,0,9.4,0,14.1c5.1,0,9.6,0,14.1,0c0,36.8,0.1,73.6-0.2,110.4c0,1.7-3.1,4.8-4.8,4.8
					c-101,0.2-201.9,0.3-302.9-0.4c-1.7,0-3.3-9.8-5-15c4.6,0,9.2,0,14.5,0c0-14.8,0-28.7,0-43c4.9,0,9.1,0,13.5,0
					c0-4.8,0-9.2,0-14.2c-4.7,0-9.1,0-13.4,0c0-9.8,0-18.9,0-28.7c4.8,0,9.2,0,13.9,0c0-4.9,0-9.1,0-13.9c4.8,0,9.1,0,14.1,0
					c0-9.8,0-18.9,0-28.7c5,0,9.4,0,13.5,0c0-9.8,0-18.9,0-27.9c-4.7,0-8.9,0-13.8,0c0,4.7,0,9,0,13.4c-9.8,0-18.9,0-27.9,0
					c0-9.6,0-18.7,0-28.5c4.8,0,9.2,0,14,0c0-4.9,0-9.1,0-13.9c4.8,0,9.2,0,14.1,0c0-5,0-9.4,0-14.5c5,0,9.4,0,14.4,0
					c0-19.3,0-37.9,0-57c4.9,0,9.1,0,13.9,0c0-4.8,0-9.2,0-14.2c5,0,9.4,0,14,0c0-9.9,0-19.1,0-28.3c4.6,0,9.2,0,13.9,0
					c0-5.1,0-9.4,0-13.7c-4.8,0-9.2,0-13.7,0c0,5,0,9.4,0,13.9c-9.4,0-18.8,0-28.1,0c0-10.1,0-19.2,0-29c4.8,0,9.2,0,14,0
					c0-4.9,0-9,0-13.9c4.8,0,9.1,0,14.1,0c0-9.8,0-18.9,0-28.7c5,0,9.4,0,13.6,0c0-9.8,0-18.9,0-27.9c-4.7,0-8.9,0-13.7,0
					c0,4.7,0,9,0,14.1c-5,0-9.4,0-14.4,0c0,5,0,9.4,0,13.6c-5,0-9.4,0-13.4,0c0-9.7,0-18.8,0-28.3c4.8,0,9,0,13.2,0
					c0-4.8,0-9.2,0-14.2c-4.8,0-9.1,0-13.3,0c0-5,0-9.4,0-14.2c4.7,0,8.9,0,13.7,0c0-9.5,0-18.7,0-28.4c5,0,9.4,0,14.4,0
					c0-5,0-9.4,0-14.5c5,0,9.4,0,14.4,0c0-14.5,0-28.4,0-42.7c4.9,0,9,0,13.9,0c0-9.5,0-18.7,0-28.4c5,0,9.4,0,14.1,0
					C7558.9,758.5,7558.9,739.8,7558.9,721.1z"/>
			</g>
		</g>
	</g>
	<g>
		<g>
			<g>
				<path class="st1" d="M7207.2,929.7c4.3,0,8.6,0,12.8,0c0,4.1,0,8.3,0,13.1c4.8,0,8.7,0,13.2,0c0,8.8,0,17,0,25.5
					c4.4,0,8.1,0,12.5,0c0,8.6,0,16.8,0,25.5c4.6,0,8.5,0,13,0c0,4.6,0,8.5,0,13c4.6,0,8.5,0,12.3,0c0,4.3,0,8.1,0,12.5
					c-8.5,0-16.7,0-25,0c0,4.6,0,8.5,0,13c4.3,0,8.2,0,12.8,0c0,4.6,0,8.5,0,13c4.6,0,8.5,0,12.8,0c0,4.4,0,8.1,0,12.5
					c4.3,0,8.2,0,12.8,0c0,4.6,0,8.5,0,13c4.6,0,8.4,0,12.1,0c0,8.8,0,17,0,25c-4.3,0-8,0-12.4,0c0-4.2,0-8.1,0-12.1
					c-4.6,0-8.5,0-13,0c0,4.3,0,8.2,0,12.8c-4.6,0-8.5,0-12.1,0c0,4.6,0,8.5,0,12.8c4.3,0,8.1,0,12.4,0c0,4.3,0,8.2,0,12.8
					c4.6,0,8.5,0,13,0c0,4.6,0,8.5,0,13c4.6,0,8.5,0,12.8,0c0,4.3,0,8.1,0,12.5c4.3,0,8.2,0,12.8,0c0,4.6,0,8.5,0,12.8
					c4.6,0,8.6,0,12.7,0c0,4.3,0,8.6,0,12.8c-8.4,0-16.9,0-25.9,0c0-4.8,0-8.7,0-12.3c-4.6,0-8.5,0-12.8,0c0,4.3,0,8,0,12.4
					c-4.3,0-8.2,0-12.2,0c0,4.6,0,8.4,0,13c4.3,0,8.2,0,12.8,0c0,4.6,0,8.5,0,13c4.6,0,8.5,0,12.8,0c0,4.3,0,8.1,0,12.5
					c4.3,0,8.2,0,12.8,0c0,4.6,0,8.5,0,12.7c4.6,0,8.6,0,12.7,0c0,8.6,0,17.1,0,25.6c-4.3,0-8.6,0.1-12.9,0.1c0-4.1,0-8.3,0-12.5
					c-4.6,0-8.5,0-12.3,0c0,4.3,0,8.2,0,12.3c4.5,0,8.5,0,12.5,0c0,4.2,0,8.3,0,12.9c4.7,0,8.7,0,12.7,0c7.8,36-6,45.6-42.3,43.2
					c-58.3-3.8-116.9-1-175.4-1c0-5.4,0-10.9,0-17c4.8,0,8.7,0,13.2,0c0-8.8,0-17,0-25.5c4.4,0,8.1,0,12.6,0c0-4.3,0-8.2,0-12.8
					c4.6,0,8.5,0,12.3,0c0-4.6,0-8.5,0-13c-4.3,0-8.3,0-12.1,0c0-4.3,0-8.1,0-12.5c4.2,0,8.1,0,12.6,0c0-8.8,0-17,0-25.8
					c4.6,0,8.5,0,12.6,0c0-4.6,0-8.6,0-12.7c4.2,0,8.3,0,12.5,0c0-4.6,0-8.5,0-12.3c-4.3,0-8.3,0-12.3,0c0,4.4,0,8.5,0,12.5
					c-8.4,0-16.9,0-25.3,0c0-9.1,0-17.2,0-26.1c4.3,0,8.3,0,12.8,0c0-8.8,0-17,0-25.5c4.4,0,8.1,0,12.1,0c0-4.3,0-8.2,0-12.8
					c-4.3,0-8.2,0-12.1,0c0-4.6,0-8.5,0-13c4.3,0,8.3,0,12.6,0c0-4.3,0-8.1,0-12.5c4.3,0,8.2,0,12.8,0c0-4.6,0-8.5,0-13
					c4.6,0,8.5,0,12.6,0c0-4.6,0-8.6,0-12.7c4.2,0,8.3,0,12.5,0c0-4.6,0-8.5,0-12.3c-4.3,0-8.3,0-12.3,0c0,4.4,0,8.5,0,12.5
					c-8.4,0-16.9,0-25.3,0c0-9,0-17.2,0-26c4.3,0,8.3,0,12.8,0c0-4.6,0-8.4,0-12.7c4.3,0,8.1,0,12.5,0c0-12.8,0-25.2,0-38.3
					c4.5,0,8.4,0,12.9,0c0-13,0-25.5,0-38.5c4.5,0,8.4,0,12.7,0C7207.2,946.3,7207.2,938,7207.2,929.7z M7168.8,1147.5
					c-4.1,0-8.3,0-12.5,0c0,4.6,0,8.4,0,12.3c4.3,0,8.2,0,12.3,0c0-4.4,0-8.4,0-12.5c4.2,0,8.3,0,12.5,0c0-4.6,0-8.5,0-12.3
					c-4.3,0-8.3,0-12.3,0C7168.8,1139.4,7168.8,1143.5,7168.8,1147.5z"/>
			</g>
		</g>
	</g>
</g>
<g id="Layer_2">
	<g>
		<g>
			<g>
				<polygon class="st10" points="4068.3,1309.4 4068.3,1274.7 4033.7,1274.7 4033.7,1309.4 3964.5,1309.4 3964.5,1447.8 
					3999.1,1447.8 3999.1,1344 4102.9,1344 4102.9,1309.4 				"/>
				<polygon class="st11" points="4033.7,1205.5 4033.7,1240.1 3999.1,1240.1 3999.1,1274.7 3964.5,1274.7 3964.5,1309.4 
					4033.7,1309.4 4033.7,1274.7 4068.3,1274.7 4068.3,1205.5 				"/>
				<rect x="4068.3" y="1170.9" class="st11" width="34.6" height="34.6"/>
				<rect x="4172" y="1274.7" class="st11" width="34.6" height="34.7"/>
				<rect x="4137.5" y="1240.1" class="st11" width="34.6" height="34.6"/>
				<polygon class="st10" points="4206.6,1344 4206.6,1309.4 4137.5,1309.4 4137.5,1344 4172,1344 4172,1378.6 4206.6,1378.6 
					4206.6,1447.8 4241.2,1447.8 4241.2,1344 				"/>
				<polygon class="st12" points="4172,1378.6 4172,1344 3999.1,1344 3999.1,1482.4 4033.7,1482.4 4033.7,1378.6 4137.5,1378.6 
					4137.5,1413.2 4172,1413.2 4172,1482.4 4206.6,1482.4 4206.6,1378.6 				"/>
				<path class="st13" d="M4137.5,1413.2v-34.6h-103.8V1517H4172v-103.8H4137.5z M4137.5,1482.4h-69.2v-69.2h34.6v34.6h34.6V1482.4z
					"/>
				<polygon class="st14" points="4102.9,1447.8 4102.9,1413.2 4068.3,1413.2 4068.3,1482.4 4137.5,1482.4 4137.5,1447.8 				"/>
			</g>
			<g>
				<path class="st15" d="M4379.8,1672.8c0,28.7-23.2,51.9-51.9,51.9l0,0c-28.7,0-51.9-23.2-51.9-51.9l0,0c0-28.7,23.3-52,51.9-52
					l0,0C4356.5,1620.9,4379.8,1644.2,4379.8,1672.8L4379.8,1672.8z"/>
				<path class="st15" d="M3863.4,1622.9L3863.4,1622.9c0.5-0.1,1.1-0.2,1.7-0.4L3863.4,1622.9z"/>
				<path class="st15" d="M4379.8,1568.9c0-28.7-23.2-51.9-51.9-51.9c-4.7,0-9.1,0.7-13.4,1.8l0-0.1l-446.2,103
					c3.1-0.6,6.4-0.9,9.7-0.9c28.7,0,51.9,23.3,51.9,52c0,24-16.3,44.1-38.5,50.1l0,0.1l450.2-103.9l0-0.1
					C4363.6,1612.9,4379.8,1592.8,4379.8,1568.9z"/>
				<path class="st16" d="M3929.8,1672.8c0,28.7-23.2,51.9-51.9,51.9l0,0c-28.7,0-51.9-23.2-51.9-51.9l0,0c0-28.7,23.2-52,51.9-52
					l0,0C3906.6,1620.9,3929.8,1644.2,3929.8,1672.8L3929.8,1672.8z"/>
				<path class="st16" d="M4275.9,1672.8c0-28.7,23.3-52,51.9-52c3.3,0,6.5,0.3,9.6,0.9l-446.2-103l0,0c-4.3-1-8.7-1.8-13.5-1.8
					c-28.7,0-50.6,23.2-50.6,51.9c0,23.7,17.8,43.7,38.6,49.9l-0.2,0.2c1.4,0.4,2,0.8,3.4,0.9l445.3,103.1l0-0.1
					C4292.3,1717,4275.9,1696.9,4275.9,1672.8z"/>
				<path class="st16" d="M4342.3,1622.9L4342.3,1622.9l-1.5-0.4C4341.3,1622.7,4341.8,1622.8,4342.3,1622.9z"/>
			</g>
		</g>
	</g>
</g>
</svg>
