<?xml version="1.0" encoding="utf-8"?>
<!-- Generator: Adobe Illustrator 16.0.3, SVG Export Plug-In . SVG Version: 6.00 Build 0)  -->
<!DOCTYPE svg PUBLIC "-//W3C//DTD SVG 1.1//EN" "http://www.w3.org/Graphics/SVG/1.1/DTD/svg11.dtd">
<svg version="1.1" id="Layer_1" xmlns="http://www.w3.org/2000/svg" xmlns:xlink="http://www.w3.org/1999/xlink" x="0px" y="0px"
	 width="150px" height="80px" viewBox="0 0 150 80" enable-background="new 0 0 150 80" xml:space="preserve">
<polygon fill="#FFFFFF" points="140,40 140,30 130,30 130,20 120,20 120,10 100,10 100,20 90,20 90,30 80,30 80,20 70,20 70,10 
	60,10 60,0 40,0 40,10 30,10 30,20 20,20 20,30 10,30 10,40 0,40 0,60 10,60 10,70 20,70 20,80 120,80 120,70 140,70 140,60 150,60 
	150,40 "/>
</svg>
