<?xml version="1.0" encoding="utf-8"?>
<!-- Generator: Adobe Illustrator 16.0.3, SVG Export Plug-In . SVG Version: 6.00 Build 0)  -->
<!DOCTYPE svg PUBLIC "-//W3C//DTD SVG 1.1//EN" "http://www.w3.org/Graphics/SVG/1.1/DTD/svg11.dtd">
<svg version="1.1" id="Layer_1" xmlns="http://www.w3.org/2000/svg" xmlns:xlink="http://www.w3.org/1999/xlink" x="0px" y="0px"
	 width="110px" height="70px" viewBox="0 0 110 70" enable-background="new 0 0 110 70" xml:space="preserve">
<polygon fill="#FFFFFF" points="100,30 100,20 90,20 90,10 70,10 70,20 60,20 60,10 50,10 50,0 30,0 30,10 20,10 20,20 10,20 10,30 
	0,30 0,50 10,50 10,60 40,60 40,70 80,70 80,60 100,60 100,50 110,50 110,30 "/>
</svg>
